%TF.GenerationSoftware,KiCad,Pcbnew,9.0.7-9.0.7~ubuntu24.04.1*%
%TF.CreationDate,2026-06-16T10:17:47+02:00*%
%TF.ProjectId,flight_controller,666c6967-6874-45f6-936f-6e74726f6c6c,rev?*%
%TF.SameCoordinates,Original*%
%TF.FileFunction,Copper,L5,Inr*%
%TF.FilePolarity,Positive*%
%FSLAX46Y46*%
G04 Gerber Fmt 4.6, Leading zero omitted, Abs format (unit mm)*
G04 Created by KiCad (PCBNEW 9.0.7-9.0.7~ubuntu24.04.1) date 2026-06-16 10:17:47*
%MOMM*%
%LPD*%
G01*
G04 APERTURE LIST*
%TA.AperFunction,ComponentPad*%
%ADD10R,1.700000X1.700000*%
%TD*%
%TA.AperFunction,ComponentPad*%
%ADD11C,1.700000*%
%TD*%
%TA.AperFunction,ComponentPad*%
%ADD12C,5.500000*%
%TD*%
%TA.AperFunction,ComponentPad*%
%ADD13R,0.850000X0.850000*%
%TD*%
%TA.AperFunction,ComponentPad*%
%ADD14C,0.850000*%
%TD*%
%TA.AperFunction,ComponentPad*%
%ADD15O,2.100000X1.000000*%
%TD*%
%TA.AperFunction,ComponentPad*%
%ADD16O,1.800000X1.000000*%
%TD*%
%TA.AperFunction,ViaPad*%
%ADD17C,0.500000*%
%TD*%
G04 APERTURE END LIST*
D10*
%TO.N,GNDREF*%
%TO.C,J5*%
X151250000Y-92000000D03*
D11*
%TO.N,/GPS_TX*%
X151250000Y-94540000D03*
%TO.N,/GPS_RX*%
X151250000Y-97080000D03*
%TO.N,+5V*%
X151250000Y-99620000D03*
%TD*%
D10*
%TO.N,GNDREF*%
%TO.C,J3*%
X160880000Y-128000000D03*
D11*
%TO.N,/VTX_TX*%
X163420000Y-128000000D03*
%TO.N,/VTX_RX*%
X165960000Y-128000000D03*
%TO.N,+9V*%
X168500000Y-128000000D03*
%TD*%
D10*
%TO.N,GNDREF*%
%TO.C,J4*%
X151250000Y-111000000D03*
D11*
%TO.N,/TRANSCEIVER_TX*%
X151250000Y-113540000D03*
%TO.N,/TRANSCEIVER_RX*%
X151250000Y-116080000D03*
%TO.N,+5V*%
X151250000Y-118620000D03*
%TD*%
D12*
%TO.N,*%
%TO.C,REF\u002A\u002A*%
X189750000Y-120250000D03*
%TD*%
%TO.N,*%
%TO.C,REF\u002A\u002A*%
X159250000Y-89750000D03*
%TD*%
%TO.N,*%
%TO.C,REF\u002A\u002A*%
X159250000Y-120250000D03*
%TD*%
D13*
%TO.N,GNDREF*%
%TO.C,J1*%
X193500000Y-102250000D03*
D14*
%TO.N,/JTAG_SWCLK*%
X193500000Y-103250000D03*
%TO.N,/JTAG_SWDIO*%
X193500000Y-104250000D03*
%TD*%
D12*
%TO.N,*%
%TO.C,REF\u002A\u002A*%
X189750000Y-89750000D03*
%TD*%
D15*
%TO.N,GNDREF*%
%TO.C,J6*%
X192482500Y-115820000D03*
X192482500Y-107180000D03*
D16*
X196662500Y-115820000D03*
X196662500Y-107180000D03*
%TD*%
D17*
%TO.N,+3.3V*%
X170850000Y-106200000D03*
X187650000Y-95300000D03*
X167414596Y-119950036D03*
X158750000Y-115100000D03*
X167431054Y-100206659D03*
X183450000Y-112900000D03*
X181380000Y-94410000D03*
X165974869Y-120543290D03*
X177735723Y-110265774D03*
X170434052Y-111143127D03*
X184150000Y-115900000D03*
X173180000Y-116750000D03*
X171760000Y-116760000D03*
X188320000Y-105030000D03*
X169113699Y-111137098D03*
X171750000Y-115910000D03*
X168232130Y-117837470D03*
X175350000Y-93180000D03*
X167500000Y-87950000D03*
X168394021Y-101152879D03*
%TO.N,GNDREF*%
X172093722Y-111618610D03*
X184293971Y-111573895D03*
X169603245Y-106089198D03*
X174700645Y-101298486D03*
X198113794Y-127590761D03*
X174322623Y-96829467D03*
X166732784Y-115234557D03*
X174321402Y-110798846D03*
X177892651Y-107550875D03*
X181893655Y-104285596D03*
X174241829Y-91951021D03*
X197224771Y-128529174D03*
X151884217Y-128422887D03*
X154165207Y-109982508D03*
X174884140Y-115386059D03*
X182564068Y-117816730D03*
X150781709Y-82359765D03*
X159150000Y-99860000D03*
X173088446Y-103359149D03*
X197261587Y-81310977D03*
X181750000Y-111100000D03*
X167388364Y-98700528D03*
X198200000Y-82200000D03*
X150945804Y-127533864D03*
X180982462Y-99177736D03*
X180850000Y-104700000D03*
X169247765Y-97215636D03*
X165050000Y-112600000D03*
X175759285Y-114497678D03*
X181685172Y-115285551D03*
X179903619Y-93036362D03*
X151670732Y-81421352D03*
X182844413Y-123989163D03*
X173211596Y-121689636D03*
%TO.N,VBAT*%
X162690000Y-99090000D03*
X184520000Y-127430000D03*
X162730000Y-104120000D03*
X183370000Y-118650000D03*
X162690000Y-102590000D03*
X162700000Y-100910000D03*
X179560000Y-127400000D03*
X181404769Y-127420000D03*
X177000000Y-86750000D03*
X154070000Y-100920000D03*
X183120000Y-127420000D03*
%TO.N,/ICM_INT1*%
X184050000Y-110800000D03*
X181950000Y-117400000D03*
%TO.N,+5VBAT*%
X161970000Y-105820000D03*
X190350000Y-106400000D03*
X161931992Y-108600000D03*
%TO.N,/BMP_SCLK*%
X174160000Y-115610000D03*
X174150000Y-110000000D03*
%TO.N,/BOOT*%
X173500000Y-92250000D03*
X180500000Y-98500000D03*
%TO.N,/BMP_SDI*%
X177150000Y-107500000D03*
X175250000Y-114000000D03*
%TO.N,+5V*%
X188069416Y-113819701D03*
X186259093Y-107668232D03*
X165963603Y-123580050D03*
X165954921Y-124387456D03*
X197950000Y-97600000D03*
%TO.N,Net-(U2-FB)*%
X159500000Y-100500000D03*
X154750000Y-109500000D03*
%TO.N,Net-(U4-FB)*%
X183599998Y-123934715D03*
X173650000Y-122300000D03*
%TO.N,/FLASH_SCLK*%
X165750000Y-112250000D03*
X166750000Y-114500000D03*
%TO.N,/ICM_MISO*%
X181000000Y-115750000D03*
X181750000Y-110250000D03*
%TO.N,/VTX_RX*%
X182450000Y-104950000D03*
%TO.N,/VTX_TX*%
X181446446Y-105096446D03*
%TO.N,/GPS_RX*%
X168100000Y-98450000D03*
X173150000Y-102600000D03*
%TO.N,/GPS_TX*%
X173950000Y-101600000D03*
X168850000Y-97850000D03*
%TD*%
%TA.AperFunction,Conductor*%
%TO.N,GNDREF*%
G36*
X196503736Y-80500726D02*
G01*
X196793796Y-80518271D01*
X196808659Y-80520076D01*
X197090798Y-80571780D01*
X197105335Y-80575363D01*
X197379172Y-80660695D01*
X197393163Y-80666000D01*
X197654743Y-80783727D01*
X197667989Y-80790680D01*
X197913465Y-80939075D01*
X197925776Y-80947573D01*
X198151573Y-81124473D01*
X198162781Y-81134403D01*
X198365596Y-81337218D01*
X198375526Y-81348426D01*
X198495481Y-81501538D01*
X198552422Y-81574217D01*
X198560928Y-81586540D01*
X198709316Y-81832004D01*
X198716275Y-81845263D01*
X198833997Y-82106831D01*
X198839306Y-82120832D01*
X198924635Y-82394663D01*
X198928219Y-82409201D01*
X198979923Y-82691340D01*
X198981728Y-82706205D01*
X198999274Y-82996263D01*
X198999500Y-83003750D01*
X198999500Y-126996249D01*
X198999274Y-127003736D01*
X198981728Y-127293794D01*
X198979923Y-127308659D01*
X198928219Y-127590798D01*
X198924635Y-127605336D01*
X198839306Y-127879167D01*
X198833997Y-127893168D01*
X198716275Y-128154736D01*
X198709316Y-128167995D01*
X198560928Y-128413459D01*
X198552422Y-128425782D01*
X198375526Y-128651573D01*
X198365596Y-128662781D01*
X198162781Y-128865596D01*
X198151573Y-128875526D01*
X197925782Y-129052422D01*
X197913459Y-129060928D01*
X197667995Y-129209316D01*
X197654736Y-129216275D01*
X197393168Y-129333997D01*
X197379167Y-129339306D01*
X197105336Y-129424635D01*
X197090798Y-129428219D01*
X196808659Y-129479923D01*
X196793794Y-129481728D01*
X196503736Y-129499274D01*
X196496249Y-129499500D01*
X162069269Y-129499500D01*
X162002230Y-129479815D01*
X161956475Y-129427011D01*
X161946531Y-129357853D01*
X161975556Y-129294297D01*
X161994958Y-129276234D01*
X162087187Y-129207190D01*
X162087190Y-129207187D01*
X162173350Y-129092093D01*
X162173354Y-129092086D01*
X162223596Y-128957379D01*
X162223598Y-128957372D01*
X162229999Y-128897844D01*
X162230000Y-128897827D01*
X162230000Y-128701087D01*
X162249685Y-128634048D01*
X162302489Y-128588293D01*
X162371647Y-128578349D01*
X162435203Y-128607374D01*
X162454318Y-128628202D01*
X162542441Y-128749495D01*
X162670500Y-128877554D01*
X162670505Y-128877558D01*
X162698427Y-128897844D01*
X162817006Y-128983996D01*
X162922484Y-129037740D01*
X162978360Y-129066211D01*
X162978363Y-129066212D01*
X163044683Y-129087760D01*
X163150591Y-129122171D01*
X163233429Y-129135291D01*
X163329449Y-129150500D01*
X163329454Y-129150500D01*
X163510551Y-129150500D01*
X163597259Y-129136765D01*
X163689409Y-129122171D01*
X163861639Y-129066211D01*
X164022994Y-128983996D01*
X164169501Y-128877553D01*
X164297553Y-128749501D01*
X164403996Y-128602994D01*
X164486211Y-128441639D01*
X164542171Y-128269409D01*
X164559250Y-128161576D01*
X164567527Y-128109321D01*
X164597456Y-128046186D01*
X164656768Y-128009255D01*
X164726630Y-128010253D01*
X164784863Y-128048863D01*
X164812473Y-128109321D01*
X164837829Y-128269410D01*
X164893787Y-128441636D01*
X164893788Y-128441639D01*
X164949664Y-128551300D01*
X164968513Y-128588293D01*
X164976006Y-128602997D01*
X165082441Y-128749494D01*
X165082445Y-128749499D01*
X165210500Y-128877554D01*
X165210505Y-128877558D01*
X165238427Y-128897844D01*
X165357006Y-128983996D01*
X165462484Y-129037740D01*
X165518360Y-129066211D01*
X165518363Y-129066212D01*
X165584683Y-129087760D01*
X165690591Y-129122171D01*
X165773429Y-129135291D01*
X165869449Y-129150500D01*
X165869454Y-129150500D01*
X166050551Y-129150500D01*
X166137259Y-129136765D01*
X166229409Y-129122171D01*
X166401639Y-129066211D01*
X166562994Y-128983996D01*
X166709501Y-128877553D01*
X166837553Y-128749501D01*
X166943996Y-128602994D01*
X167026211Y-128441639D01*
X167082171Y-128269409D01*
X167099250Y-128161576D01*
X167107527Y-128109321D01*
X167137456Y-128046186D01*
X167196768Y-128009255D01*
X167266630Y-128010253D01*
X167324863Y-128048863D01*
X167352473Y-128109321D01*
X167377829Y-128269410D01*
X167433787Y-128441636D01*
X167433788Y-128441639D01*
X167489664Y-128551300D01*
X167508513Y-128588293D01*
X167516006Y-128602997D01*
X167622441Y-128749494D01*
X167622445Y-128749499D01*
X167750500Y-128877554D01*
X167750505Y-128877558D01*
X167778427Y-128897844D01*
X167897006Y-128983996D01*
X168002484Y-129037740D01*
X168058360Y-129066211D01*
X168058363Y-129066212D01*
X168124683Y-129087760D01*
X168230591Y-129122171D01*
X168313429Y-129135291D01*
X168409449Y-129150500D01*
X168409454Y-129150500D01*
X168590551Y-129150500D01*
X168677259Y-129136765D01*
X168769409Y-129122171D01*
X168941639Y-129066211D01*
X169102994Y-128983996D01*
X169249501Y-128877553D01*
X169377553Y-128749501D01*
X169483996Y-128602994D01*
X169566211Y-128441639D01*
X169622171Y-128269409D01*
X169639250Y-128161576D01*
X169650500Y-128090551D01*
X169650500Y-127909448D01*
X169634019Y-127805397D01*
X169622171Y-127730591D01*
X169566211Y-127558361D01*
X169566211Y-127558360D01*
X169483995Y-127397004D01*
X169480566Y-127392285D01*
X169480565Y-127392283D01*
X169433516Y-127327525D01*
X179009500Y-127327525D01*
X179009500Y-127472475D01*
X179047016Y-127612485D01*
X179047017Y-127612488D01*
X179119488Y-127738011D01*
X179119490Y-127738013D01*
X179119491Y-127738015D01*
X179221985Y-127840509D01*
X179221986Y-127840510D01*
X179221988Y-127840511D01*
X179347511Y-127912982D01*
X179347512Y-127912982D01*
X179347515Y-127912984D01*
X179487525Y-127950500D01*
X179487528Y-127950500D01*
X179632472Y-127950500D01*
X179632475Y-127950500D01*
X179772485Y-127912984D01*
X179898015Y-127840509D01*
X180000509Y-127738015D01*
X180072984Y-127612485D01*
X180110500Y-127472475D01*
X180110500Y-127347525D01*
X180854269Y-127347525D01*
X180854269Y-127492475D01*
X180886426Y-127612485D01*
X180891786Y-127632488D01*
X180964257Y-127758011D01*
X180964259Y-127758013D01*
X180964260Y-127758015D01*
X181066754Y-127860509D01*
X181066755Y-127860510D01*
X181066757Y-127860511D01*
X181192280Y-127932982D01*
X181192281Y-127932982D01*
X181192284Y-127932984D01*
X181332294Y-127970500D01*
X181332297Y-127970500D01*
X181477241Y-127970500D01*
X181477244Y-127970500D01*
X181617254Y-127932984D01*
X181742784Y-127860509D01*
X181845278Y-127758015D01*
X181917753Y-127632485D01*
X181955269Y-127492475D01*
X181955269Y-127347525D01*
X182569500Y-127347525D01*
X182569500Y-127492475D01*
X182601657Y-127612485D01*
X182607017Y-127632488D01*
X182679488Y-127758011D01*
X182679490Y-127758013D01*
X182679491Y-127758015D01*
X182781985Y-127860509D01*
X182781986Y-127860510D01*
X182781988Y-127860511D01*
X182907511Y-127932982D01*
X182907512Y-127932982D01*
X182907515Y-127932984D01*
X183047525Y-127970500D01*
X183047528Y-127970500D01*
X183192472Y-127970500D01*
X183192475Y-127970500D01*
X183332485Y-127932984D01*
X183458015Y-127860509D01*
X183560509Y-127758015D01*
X183632984Y-127632485D01*
X183670500Y-127492475D01*
X183670500Y-127357525D01*
X183969500Y-127357525D01*
X183969500Y-127502475D01*
X184007016Y-127642485D01*
X184007017Y-127642488D01*
X184079488Y-127768011D01*
X184079490Y-127768013D01*
X184079491Y-127768015D01*
X184181985Y-127870509D01*
X184181986Y-127870510D01*
X184181988Y-127870511D01*
X184307511Y-127942982D01*
X184307512Y-127942982D01*
X184307515Y-127942984D01*
X184447525Y-127980500D01*
X184447528Y-127980500D01*
X184592472Y-127980500D01*
X184592475Y-127980500D01*
X184732485Y-127942984D01*
X184858015Y-127870509D01*
X184960509Y-127768015D01*
X185032984Y-127642485D01*
X185070500Y-127502475D01*
X185070500Y-127357525D01*
X185032984Y-127217515D01*
X185027210Y-127207515D01*
X184960511Y-127091988D01*
X184960506Y-127091982D01*
X184858017Y-126989493D01*
X184858011Y-126989488D01*
X184732488Y-126917017D01*
X184732489Y-126917017D01*
X184721006Y-126913940D01*
X184592475Y-126879500D01*
X184447525Y-126879500D01*
X184318993Y-126913940D01*
X184307511Y-126917017D01*
X184181988Y-126989488D01*
X184181982Y-126989493D01*
X184079493Y-127091982D01*
X184079488Y-127091988D01*
X184007017Y-127217511D01*
X184007016Y-127217515D01*
X183969500Y-127357525D01*
X183670500Y-127357525D01*
X183670500Y-127347525D01*
X183632984Y-127207515D01*
X183612461Y-127171969D01*
X183560511Y-127081988D01*
X183560506Y-127081982D01*
X183458017Y-126979493D01*
X183458011Y-126979488D01*
X183332488Y-126907017D01*
X183332489Y-126907017D01*
X183321006Y-126903940D01*
X183192475Y-126869500D01*
X183047525Y-126869500D01*
X182918993Y-126903940D01*
X182907511Y-126907017D01*
X182781988Y-126979488D01*
X182781982Y-126979493D01*
X182679493Y-127081982D01*
X182679488Y-127081988D01*
X182607017Y-127207511D01*
X182607016Y-127207515D01*
X182569500Y-127347525D01*
X181955269Y-127347525D01*
X181917753Y-127207515D01*
X181897230Y-127171969D01*
X181845280Y-127081988D01*
X181845275Y-127081982D01*
X181742786Y-126979493D01*
X181742780Y-126979488D01*
X181617257Y-126907017D01*
X181617258Y-126907017D01*
X181605775Y-126903940D01*
X181477244Y-126869500D01*
X181332294Y-126869500D01*
X181203762Y-126903940D01*
X181192280Y-126907017D01*
X181066757Y-126979488D01*
X181066751Y-126979493D01*
X180964262Y-127081982D01*
X180964257Y-127081988D01*
X180891786Y-127207511D01*
X180891785Y-127207515D01*
X180854269Y-127347525D01*
X180110500Y-127347525D01*
X180110500Y-127327525D01*
X180072984Y-127187515D01*
X180064008Y-127171969D01*
X180000511Y-127061988D01*
X180000506Y-127061982D01*
X179898017Y-126959493D01*
X179898011Y-126959488D01*
X179772488Y-126887017D01*
X179772489Y-126887017D01*
X179738199Y-126877829D01*
X179632475Y-126849500D01*
X179487525Y-126849500D01*
X179381801Y-126877829D01*
X179347511Y-126887017D01*
X179221988Y-126959488D01*
X179221982Y-126959493D01*
X179119493Y-127061982D01*
X179119488Y-127061988D01*
X179047017Y-127187511D01*
X179047016Y-127187515D01*
X179009500Y-127327525D01*
X169433516Y-127327525D01*
X169377558Y-127250504D01*
X169249499Y-127122445D01*
X169249494Y-127122441D01*
X169102997Y-127016006D01*
X169102996Y-127016005D01*
X169102994Y-127016004D01*
X169031328Y-126979488D01*
X168941639Y-126933788D01*
X168941636Y-126933787D01*
X168769410Y-126877829D01*
X168590551Y-126849500D01*
X168590546Y-126849500D01*
X168409454Y-126849500D01*
X168409449Y-126849500D01*
X168230589Y-126877829D01*
X168058363Y-126933787D01*
X168058360Y-126933788D01*
X167897002Y-127016006D01*
X167750505Y-127122441D01*
X167750500Y-127122445D01*
X167622445Y-127250500D01*
X167622441Y-127250505D01*
X167516006Y-127397002D01*
X167433788Y-127558360D01*
X167433787Y-127558363D01*
X167377829Y-127730589D01*
X167352473Y-127890678D01*
X167322544Y-127953813D01*
X167263232Y-127990744D01*
X167193369Y-127989746D01*
X167135137Y-127951136D01*
X167107527Y-127890678D01*
X167093740Y-127803639D01*
X167082171Y-127730591D01*
X167026211Y-127558361D01*
X167026211Y-127558360D01*
X166992639Y-127492472D01*
X166943996Y-127397006D01*
X166893517Y-127327527D01*
X166837558Y-127250505D01*
X166837554Y-127250500D01*
X166709499Y-127122445D01*
X166709494Y-127122441D01*
X166562997Y-127016006D01*
X166562996Y-127016005D01*
X166562994Y-127016004D01*
X166491328Y-126979488D01*
X166401639Y-126933788D01*
X166401636Y-126933787D01*
X166229410Y-126877829D01*
X166050551Y-126849500D01*
X166050546Y-126849500D01*
X165869454Y-126849500D01*
X165869449Y-126849500D01*
X165690589Y-126877829D01*
X165518363Y-126933787D01*
X165518360Y-126933788D01*
X165357002Y-127016006D01*
X165210505Y-127122441D01*
X165210500Y-127122445D01*
X165082445Y-127250500D01*
X165082441Y-127250505D01*
X164976006Y-127397002D01*
X164893788Y-127558360D01*
X164893787Y-127558363D01*
X164837829Y-127730589D01*
X164812473Y-127890678D01*
X164782544Y-127953813D01*
X164723232Y-127990744D01*
X164653369Y-127989746D01*
X164595137Y-127951136D01*
X164567527Y-127890678D01*
X164553740Y-127803639D01*
X164542171Y-127730591D01*
X164486211Y-127558361D01*
X164486211Y-127558360D01*
X164452639Y-127492472D01*
X164403996Y-127397006D01*
X164353517Y-127327527D01*
X164297558Y-127250505D01*
X164297554Y-127250500D01*
X164169499Y-127122445D01*
X164169494Y-127122441D01*
X164022997Y-127016006D01*
X164022996Y-127016005D01*
X164022994Y-127016004D01*
X163951328Y-126979488D01*
X163861639Y-126933788D01*
X163861636Y-126933787D01*
X163689410Y-126877829D01*
X163510551Y-126849500D01*
X163510546Y-126849500D01*
X163329454Y-126849500D01*
X163329449Y-126849500D01*
X163150589Y-126877829D01*
X162978363Y-126933787D01*
X162978360Y-126933788D01*
X162817002Y-127016006D01*
X162670505Y-127122441D01*
X162670500Y-127122445D01*
X162542445Y-127250500D01*
X162542441Y-127250505D01*
X162454318Y-127371797D01*
X162398988Y-127414463D01*
X162329375Y-127420442D01*
X162267580Y-127387836D01*
X162233223Y-127326998D01*
X162230000Y-127298912D01*
X162230000Y-127102172D01*
X162229999Y-127102155D01*
X162223598Y-127042627D01*
X162223596Y-127042620D01*
X162173354Y-126907913D01*
X162173350Y-126907906D01*
X162087190Y-126792812D01*
X162087187Y-126792809D01*
X161972093Y-126706649D01*
X161972086Y-126706645D01*
X161837379Y-126656403D01*
X161837372Y-126656401D01*
X161777844Y-126650000D01*
X161130000Y-126650000D01*
X161130000Y-127755025D01*
X161094905Y-127719930D01*
X161015095Y-127673852D01*
X160926078Y-127650000D01*
X160833922Y-127650000D01*
X160744905Y-127673852D01*
X160665095Y-127719930D01*
X160599930Y-127785095D01*
X160553852Y-127864905D01*
X160530000Y-127953922D01*
X160530000Y-128046078D01*
X160553852Y-128135095D01*
X160599930Y-128214905D01*
X160635025Y-128250000D01*
X159530000Y-128250000D01*
X159530000Y-128897844D01*
X159536401Y-128957372D01*
X159536403Y-128957379D01*
X159586645Y-129092086D01*
X159586649Y-129092093D01*
X159672809Y-129207187D01*
X159672812Y-129207190D01*
X159765042Y-129276234D01*
X159806913Y-129332168D01*
X159811897Y-129401859D01*
X159778411Y-129463182D01*
X159717088Y-129496666D01*
X159690731Y-129499500D01*
X152503751Y-129499500D01*
X152496264Y-129499274D01*
X152206205Y-129481728D01*
X152191340Y-129479923D01*
X151909201Y-129428219D01*
X151894663Y-129424635D01*
X151620832Y-129339306D01*
X151606831Y-129333997D01*
X151345263Y-129216275D01*
X151332004Y-129209316D01*
X151234710Y-129150500D01*
X151086537Y-129060926D01*
X151074217Y-129052422D01*
X150848426Y-128875526D01*
X150837218Y-128865596D01*
X150634403Y-128662781D01*
X150624473Y-128651573D01*
X150567106Y-128578349D01*
X150447573Y-128425776D01*
X150439075Y-128413465D01*
X150290680Y-128167989D01*
X150283727Y-128154743D01*
X150166000Y-127893163D01*
X150160693Y-127879167D01*
X150148647Y-127840511D01*
X150075363Y-127605335D01*
X150071780Y-127590798D01*
X150053761Y-127492472D01*
X150020075Y-127308657D01*
X150018271Y-127293794D01*
X150006679Y-127102155D01*
X159530000Y-127102155D01*
X159530000Y-127750000D01*
X160630000Y-127750000D01*
X160630000Y-126650000D01*
X159982155Y-126650000D01*
X159922627Y-126656401D01*
X159922620Y-126656403D01*
X159787913Y-126706645D01*
X159787906Y-126706649D01*
X159672812Y-126792809D01*
X159672809Y-126792812D01*
X159586649Y-126907906D01*
X159586645Y-126907913D01*
X159536403Y-127042620D01*
X159536401Y-127042627D01*
X159530000Y-127102155D01*
X150006679Y-127102155D01*
X150000726Y-127003736D01*
X150000500Y-126996249D01*
X150000500Y-124314981D01*
X165404421Y-124314981D01*
X165404421Y-124459931D01*
X165441937Y-124599941D01*
X165441938Y-124599944D01*
X165514409Y-124725467D01*
X165514411Y-124725469D01*
X165514412Y-124725471D01*
X165616906Y-124827965D01*
X165616907Y-124827966D01*
X165616909Y-124827967D01*
X165742432Y-124900438D01*
X165742433Y-124900438D01*
X165742436Y-124900440D01*
X165882446Y-124937956D01*
X165882449Y-124937956D01*
X166027393Y-124937956D01*
X166027396Y-124937956D01*
X166167406Y-124900440D01*
X166292936Y-124827965D01*
X166395430Y-124725471D01*
X166467905Y-124599941D01*
X166505421Y-124459931D01*
X166505421Y-124314981D01*
X166467905Y-124174971D01*
X166397300Y-124052680D01*
X166394416Y-124040791D01*
X166387357Y-124030800D01*
X166386333Y-124007474D01*
X166380828Y-123984783D01*
X166384754Y-123971503D01*
X166384293Y-123960998D01*
X166393553Y-123941742D01*
X166397533Y-123928281D01*
X166402603Y-123919573D01*
X166404112Y-123918065D01*
X166436343Y-123862240D01*
X183049498Y-123862240D01*
X183049498Y-124007190D01*
X183087014Y-124147200D01*
X183087015Y-124147203D01*
X183159486Y-124272726D01*
X183159488Y-124272728D01*
X183159489Y-124272730D01*
X183261983Y-124375224D01*
X183261984Y-124375225D01*
X183261986Y-124375226D01*
X183387509Y-124447697D01*
X183387510Y-124447697D01*
X183387513Y-124447699D01*
X183527523Y-124485215D01*
X183527526Y-124485215D01*
X183672470Y-124485215D01*
X183672473Y-124485215D01*
X183812483Y-124447699D01*
X183938013Y-124375224D01*
X184040507Y-124272730D01*
X184112982Y-124147200D01*
X184150498Y-124007190D01*
X184150498Y-123862240D01*
X184112982Y-123722230D01*
X184040507Y-123596700D01*
X183938013Y-123494206D01*
X183938011Y-123494205D01*
X183938009Y-123494203D01*
X183812486Y-123421732D01*
X183812487Y-123421732D01*
X183801004Y-123418655D01*
X183672473Y-123384215D01*
X183527523Y-123384215D01*
X183398991Y-123418655D01*
X183387509Y-123421732D01*
X183261986Y-123494203D01*
X183261980Y-123494208D01*
X183159491Y-123596697D01*
X183159486Y-123596703D01*
X183087015Y-123722226D01*
X183087014Y-123722230D01*
X183049498Y-123862240D01*
X166436343Y-123862240D01*
X166476587Y-123792535D01*
X166514103Y-123652525D01*
X166514103Y-123507575D01*
X166476587Y-123367565D01*
X166437866Y-123300499D01*
X166404114Y-123242038D01*
X166404109Y-123242032D01*
X166301620Y-123139543D01*
X166301614Y-123139538D01*
X166176091Y-123067067D01*
X166176092Y-123067067D01*
X166164609Y-123063990D01*
X166036078Y-123029550D01*
X165891128Y-123029550D01*
X165762596Y-123063990D01*
X165751114Y-123067067D01*
X165625591Y-123139538D01*
X165625585Y-123139543D01*
X165523096Y-123242032D01*
X165523091Y-123242038D01*
X165450620Y-123367561D01*
X165450619Y-123367565D01*
X165413103Y-123507575D01*
X165413103Y-123652525D01*
X165431780Y-123722226D01*
X165450620Y-123792538D01*
X165521222Y-123914823D01*
X165537695Y-123982723D01*
X165517279Y-124041711D01*
X165518476Y-124042402D01*
X165514890Y-124048611D01*
X165514843Y-124048750D01*
X165514696Y-124048947D01*
X165441938Y-124174967D01*
X165441937Y-124174971D01*
X165404421Y-124314981D01*
X150000500Y-124314981D01*
X150000500Y-120078681D01*
X156199500Y-120078681D01*
X156199500Y-120421318D01*
X156237858Y-120761768D01*
X156237861Y-120761782D01*
X156314102Y-121095816D01*
X156314103Y-121095818D01*
X156427264Y-121419216D01*
X156575922Y-121727907D01*
X156575924Y-121727910D01*
X156758211Y-122018018D01*
X156971834Y-122285893D01*
X157214107Y-122528166D01*
X157481982Y-122741789D01*
X157772090Y-122924076D01*
X158080785Y-123072736D01*
X158404183Y-123185897D01*
X158738217Y-123262139D01*
X158738226Y-123262140D01*
X158738231Y-123262141D01*
X158965197Y-123287713D01*
X159078682Y-123300499D01*
X159078685Y-123300500D01*
X159078688Y-123300500D01*
X159421315Y-123300500D01*
X159421316Y-123300499D01*
X159595311Y-123280895D01*
X159761768Y-123262141D01*
X159761771Y-123262140D01*
X159761783Y-123262139D01*
X160095817Y-123185897D01*
X160419215Y-123072736D01*
X160727910Y-122924076D01*
X161018018Y-122741789D01*
X161285893Y-122528166D01*
X161528166Y-122285893D01*
X161574713Y-122227525D01*
X173099500Y-122227525D01*
X173099500Y-122372475D01*
X173137016Y-122512485D01*
X173137017Y-122512488D01*
X173209488Y-122638011D01*
X173209490Y-122638013D01*
X173209491Y-122638015D01*
X173311985Y-122740509D01*
X173311986Y-122740510D01*
X173311988Y-122740511D01*
X173437511Y-122812982D01*
X173437512Y-122812982D01*
X173437515Y-122812984D01*
X173577525Y-122850500D01*
X173577528Y-122850500D01*
X173722472Y-122850500D01*
X173722475Y-122850500D01*
X173862485Y-122812984D01*
X173988015Y-122740509D01*
X174090509Y-122638015D01*
X174162984Y-122512485D01*
X174200500Y-122372475D01*
X174200500Y-122227525D01*
X174162984Y-122087515D01*
X174090509Y-121961985D01*
X173988015Y-121859491D01*
X173988013Y-121859490D01*
X173988011Y-121859488D01*
X173862488Y-121787017D01*
X173862489Y-121787017D01*
X173851006Y-121783940D01*
X173722475Y-121749500D01*
X173577525Y-121749500D01*
X173448993Y-121783940D01*
X173437511Y-121787017D01*
X173311988Y-121859488D01*
X173311982Y-121859493D01*
X173209493Y-121961982D01*
X173209488Y-121961988D01*
X173137017Y-122087511D01*
X173137016Y-122087515D01*
X173099500Y-122227525D01*
X161574713Y-122227525D01*
X161741789Y-122018018D01*
X161924076Y-121727910D01*
X162072736Y-121419215D01*
X162185897Y-121095817D01*
X162262139Y-120761783D01*
X162278591Y-120615765D01*
X162294923Y-120470815D01*
X165424369Y-120470815D01*
X165424369Y-120615765D01*
X165461885Y-120755775D01*
X165461886Y-120755778D01*
X165534357Y-120881301D01*
X165534359Y-120881303D01*
X165534360Y-120881305D01*
X165636854Y-120983799D01*
X165636855Y-120983800D01*
X165636857Y-120983801D01*
X165762380Y-121056272D01*
X165762381Y-121056272D01*
X165762384Y-121056274D01*
X165902394Y-121093790D01*
X165902397Y-121093790D01*
X166047341Y-121093790D01*
X166047344Y-121093790D01*
X166187354Y-121056274D01*
X166312884Y-120983799D01*
X166415378Y-120881305D01*
X166487853Y-120755775D01*
X166525369Y-120615765D01*
X166525369Y-120470815D01*
X166487853Y-120330805D01*
X166415378Y-120205275D01*
X166312884Y-120102781D01*
X166312882Y-120102780D01*
X166312880Y-120102778D01*
X166187357Y-120030307D01*
X166187358Y-120030307D01*
X166158259Y-120022510D01*
X166047344Y-119992790D01*
X165902394Y-119992790D01*
X165791479Y-120022510D01*
X165762380Y-120030307D01*
X165636857Y-120102778D01*
X165636851Y-120102783D01*
X165534362Y-120205272D01*
X165534357Y-120205278D01*
X165461886Y-120330801D01*
X165461885Y-120330805D01*
X165424369Y-120470815D01*
X162294923Y-120470815D01*
X162297403Y-120448805D01*
X162300499Y-120421318D01*
X162300500Y-120421314D01*
X162300500Y-120078685D01*
X162300499Y-120078681D01*
X162294170Y-120022511D01*
X162277839Y-119877561D01*
X166864096Y-119877561D01*
X166864096Y-120022511D01*
X166901612Y-120162521D01*
X166901613Y-120162524D01*
X166974084Y-120288047D01*
X166974086Y-120288049D01*
X166974087Y-120288051D01*
X167076581Y-120390545D01*
X167076582Y-120390546D01*
X167076584Y-120390547D01*
X167202107Y-120463018D01*
X167202108Y-120463018D01*
X167202111Y-120463020D01*
X167342121Y-120500536D01*
X167342124Y-120500536D01*
X167487068Y-120500536D01*
X167487071Y-120500536D01*
X167627081Y-120463020D01*
X167752611Y-120390545D01*
X167855105Y-120288051D01*
X167927580Y-120162521D01*
X167950045Y-120078681D01*
X186699500Y-120078681D01*
X186699500Y-120421318D01*
X186737858Y-120761768D01*
X186737861Y-120761782D01*
X186814102Y-121095816D01*
X186814103Y-121095818D01*
X186927264Y-121419216D01*
X187075922Y-121727907D01*
X187075924Y-121727910D01*
X187258211Y-122018018D01*
X187471834Y-122285893D01*
X187714107Y-122528166D01*
X187981982Y-122741789D01*
X188272090Y-122924076D01*
X188580785Y-123072736D01*
X188904183Y-123185897D01*
X189238217Y-123262139D01*
X189238226Y-123262140D01*
X189238231Y-123262141D01*
X189465197Y-123287713D01*
X189578682Y-123300499D01*
X189578685Y-123300500D01*
X189578688Y-123300500D01*
X189921315Y-123300500D01*
X189921316Y-123300499D01*
X190095311Y-123280895D01*
X190261768Y-123262141D01*
X190261771Y-123262140D01*
X190261783Y-123262139D01*
X190595817Y-123185897D01*
X190919215Y-123072736D01*
X191227910Y-122924076D01*
X191518018Y-122741789D01*
X191785893Y-122528166D01*
X192028166Y-122285893D01*
X192241789Y-122018018D01*
X192424076Y-121727910D01*
X192572736Y-121419215D01*
X192685897Y-121095817D01*
X192762139Y-120761783D01*
X192800500Y-120421312D01*
X192800500Y-120078688D01*
X192777839Y-119877561D01*
X192762141Y-119738231D01*
X192762140Y-119738226D01*
X192762139Y-119738217D01*
X192685897Y-119404183D01*
X192572736Y-119080785D01*
X192424076Y-118772090D01*
X192241789Y-118481982D01*
X192028166Y-118214107D01*
X191785893Y-117971834D01*
X191518018Y-117758211D01*
X191286101Y-117612488D01*
X191227907Y-117575922D01*
X190919216Y-117427264D01*
X190595818Y-117314103D01*
X190595816Y-117314102D01*
X190337473Y-117255137D01*
X190261783Y-117237861D01*
X190261780Y-117237860D01*
X190261768Y-117237858D01*
X189921318Y-117199500D01*
X189921312Y-117199500D01*
X189578688Y-117199500D01*
X189578681Y-117199500D01*
X189238231Y-117237858D01*
X189238217Y-117237861D01*
X188904183Y-117314102D01*
X188904181Y-117314103D01*
X188580783Y-117427264D01*
X188272092Y-117575922D01*
X187981983Y-117758210D01*
X187714107Y-117971833D01*
X187471833Y-118214107D01*
X187258210Y-118481983D01*
X187075922Y-118772092D01*
X186927264Y-119080783D01*
X186814103Y-119404181D01*
X186814102Y-119404183D01*
X186737861Y-119738217D01*
X186737858Y-119738231D01*
X186699500Y-120078681D01*
X167950045Y-120078681D01*
X167965096Y-120022511D01*
X167965096Y-119877561D01*
X167927580Y-119737551D01*
X167897939Y-119686212D01*
X167855107Y-119612024D01*
X167855102Y-119612018D01*
X167752613Y-119509529D01*
X167752607Y-119509524D01*
X167627084Y-119437053D01*
X167627085Y-119437053D01*
X167615602Y-119433976D01*
X167487071Y-119399536D01*
X167342121Y-119399536D01*
X167213589Y-119433976D01*
X167202107Y-119437053D01*
X167076584Y-119509524D01*
X167076578Y-119509529D01*
X166974089Y-119612018D01*
X166974084Y-119612024D01*
X166901613Y-119737547D01*
X166901430Y-119738231D01*
X166864096Y-119877561D01*
X162277839Y-119877561D01*
X162262141Y-119738231D01*
X162262140Y-119738226D01*
X162262139Y-119738217D01*
X162185897Y-119404183D01*
X162072736Y-119080785D01*
X161924076Y-118772090D01*
X161801823Y-118577525D01*
X182819500Y-118577525D01*
X182819500Y-118722475D01*
X182857016Y-118862485D01*
X182857017Y-118862488D01*
X182929488Y-118988011D01*
X182929490Y-118988013D01*
X182929491Y-118988015D01*
X183031985Y-119090509D01*
X183031986Y-119090510D01*
X183031988Y-119090511D01*
X183157511Y-119162982D01*
X183157512Y-119162982D01*
X183157515Y-119162984D01*
X183297525Y-119200500D01*
X183297528Y-119200500D01*
X183442472Y-119200500D01*
X183442475Y-119200500D01*
X183582485Y-119162984D01*
X183708015Y-119090509D01*
X183810509Y-118988015D01*
X183882984Y-118862485D01*
X183920500Y-118722475D01*
X183920500Y-118577525D01*
X183882984Y-118437515D01*
X183832798Y-118350591D01*
X183810511Y-118311988D01*
X183810506Y-118311982D01*
X183708017Y-118209493D01*
X183708011Y-118209488D01*
X183582488Y-118137017D01*
X183582489Y-118137017D01*
X183551371Y-118128679D01*
X183442475Y-118099500D01*
X183297525Y-118099500D01*
X183188629Y-118128679D01*
X183157511Y-118137017D01*
X183031988Y-118209488D01*
X183031982Y-118209493D01*
X182929493Y-118311982D01*
X182929488Y-118311988D01*
X182857017Y-118437511D01*
X182857016Y-118437515D01*
X182819500Y-118577525D01*
X161801823Y-118577525D01*
X161741789Y-118481982D01*
X161528166Y-118214107D01*
X161285893Y-117971834D01*
X161259141Y-117950500D01*
X161137902Y-117853815D01*
X161026527Y-117764997D01*
X161026524Y-117764995D01*
X167681630Y-117764995D01*
X167681630Y-117909945D01*
X167711545Y-118021588D01*
X167719147Y-118049958D01*
X167791618Y-118175481D01*
X167791620Y-118175483D01*
X167791621Y-118175485D01*
X167894115Y-118277979D01*
X167894116Y-118277980D01*
X167894118Y-118277981D01*
X168019641Y-118350452D01*
X168019642Y-118350452D01*
X168019645Y-118350454D01*
X168159655Y-118387970D01*
X168159658Y-118387970D01*
X168304602Y-118387970D01*
X168304605Y-118387970D01*
X168444615Y-118350454D01*
X168570145Y-118277979D01*
X168672639Y-118175485D01*
X168745114Y-118049955D01*
X168782630Y-117909945D01*
X168782630Y-117764995D01*
X168745114Y-117624985D01*
X168716787Y-117575922D01*
X168672641Y-117499458D01*
X168672636Y-117499452D01*
X168570147Y-117396963D01*
X168570141Y-117396958D01*
X168449880Y-117327525D01*
X181399500Y-117327525D01*
X181399500Y-117472475D01*
X181437016Y-117612485D01*
X181437017Y-117612488D01*
X181509488Y-117738011D01*
X181509490Y-117738013D01*
X181509491Y-117738015D01*
X181611985Y-117840509D01*
X181611986Y-117840510D01*
X181611988Y-117840511D01*
X181737511Y-117912982D01*
X181737512Y-117912982D01*
X181737515Y-117912984D01*
X181877525Y-117950500D01*
X181877528Y-117950500D01*
X182022472Y-117950500D01*
X182022475Y-117950500D01*
X182162485Y-117912984D01*
X182288015Y-117840509D01*
X182390509Y-117738015D01*
X182462984Y-117612485D01*
X182500500Y-117472475D01*
X182500500Y-117327525D01*
X182462984Y-117187515D01*
X182405537Y-117088015D01*
X182390511Y-117061988D01*
X182390506Y-117061982D01*
X182288017Y-116959493D01*
X182288011Y-116959488D01*
X182162488Y-116887017D01*
X182162489Y-116887017D01*
X182151006Y-116883940D01*
X182022475Y-116849500D01*
X181877525Y-116849500D01*
X181748993Y-116883940D01*
X181737511Y-116887017D01*
X181611988Y-116959488D01*
X181611982Y-116959493D01*
X181509493Y-117061982D01*
X181509488Y-117061988D01*
X181437017Y-117187511D01*
X181436214Y-117190508D01*
X181399500Y-117327525D01*
X168449880Y-117327525D01*
X168444618Y-117324487D01*
X168444619Y-117324487D01*
X168415811Y-117316768D01*
X168304605Y-117286970D01*
X168159655Y-117286970D01*
X168048449Y-117316768D01*
X168019641Y-117324487D01*
X167894118Y-117396958D01*
X167894112Y-117396963D01*
X167791623Y-117499452D01*
X167791618Y-117499458D01*
X167719147Y-117624981D01*
X167719146Y-117624985D01*
X167681630Y-117764995D01*
X161026524Y-117764995D01*
X161018018Y-117758211D01*
X160786101Y-117612488D01*
X160727907Y-117575922D01*
X160419216Y-117427264D01*
X160095818Y-117314103D01*
X160095816Y-117314102D01*
X159837473Y-117255137D01*
X159761783Y-117237861D01*
X159761780Y-117237860D01*
X159761768Y-117237858D01*
X159421318Y-117199500D01*
X159421312Y-117199500D01*
X159078688Y-117199500D01*
X159078681Y-117199500D01*
X158738231Y-117237858D01*
X158738217Y-117237861D01*
X158404183Y-117314102D01*
X158404181Y-117314103D01*
X158080783Y-117427264D01*
X157772092Y-117575922D01*
X157481983Y-117758210D01*
X157214107Y-117971833D01*
X156971833Y-118214107D01*
X156758210Y-118481983D01*
X156575922Y-118772092D01*
X156427264Y-119080783D01*
X156314103Y-119404181D01*
X156314102Y-119404183D01*
X156237861Y-119738217D01*
X156237858Y-119738231D01*
X156199500Y-120078681D01*
X150000500Y-120078681D01*
X150000500Y-119218411D01*
X150020185Y-119151372D01*
X150072989Y-119105617D01*
X150142147Y-119095673D01*
X150205703Y-119124698D01*
X150234985Y-119162116D01*
X150266006Y-119222997D01*
X150372441Y-119369494D01*
X150372445Y-119369499D01*
X150500500Y-119497554D01*
X150500505Y-119497558D01*
X150628287Y-119590396D01*
X150647006Y-119603996D01*
X150752484Y-119657740D01*
X150808360Y-119686211D01*
X150808363Y-119686212D01*
X150894476Y-119714191D01*
X150980591Y-119742171D01*
X151063429Y-119755291D01*
X151159449Y-119770500D01*
X151159454Y-119770500D01*
X151340551Y-119770500D01*
X151427259Y-119756765D01*
X151519409Y-119742171D01*
X151691639Y-119686211D01*
X151852994Y-119603996D01*
X151999501Y-119497553D01*
X152127553Y-119369501D01*
X152233996Y-119222994D01*
X152316211Y-119061639D01*
X152372171Y-118889409D01*
X152390752Y-118772092D01*
X152400500Y-118710551D01*
X152400500Y-118529448D01*
X152378091Y-118387970D01*
X152372171Y-118350591D01*
X152344191Y-118264476D01*
X152316212Y-118178363D01*
X152316211Y-118178360D01*
X152265015Y-118077884D01*
X152233996Y-118017006D01*
X152156210Y-117909942D01*
X152127558Y-117870505D01*
X152127554Y-117870500D01*
X151999499Y-117742445D01*
X151999494Y-117742441D01*
X151852997Y-117636006D01*
X151852996Y-117636005D01*
X151852994Y-117636004D01*
X151801300Y-117609664D01*
X151691639Y-117553788D01*
X151691636Y-117553787D01*
X151519410Y-117497829D01*
X151359321Y-117472473D01*
X151296186Y-117442544D01*
X151259255Y-117383232D01*
X151260253Y-117313370D01*
X151298863Y-117255137D01*
X151359321Y-117227527D01*
X151429425Y-117216422D01*
X151519409Y-117202171D01*
X151691639Y-117146211D01*
X151852994Y-117063996D01*
X151999501Y-116957553D01*
X152127553Y-116829501D01*
X152233996Y-116682994D01*
X152316211Y-116521639D01*
X152372171Y-116349409D01*
X152387209Y-116254461D01*
X152400500Y-116170551D01*
X152400500Y-115989449D01*
X152378222Y-115848797D01*
X152378222Y-115848795D01*
X152376437Y-115837525D01*
X171199500Y-115837525D01*
X171199500Y-115982475D01*
X171236350Y-116120000D01*
X171237017Y-116122488D01*
X171309488Y-116248011D01*
X171309493Y-116248017D01*
X171313795Y-116252319D01*
X171347280Y-116313642D01*
X171342296Y-116383334D01*
X171322536Y-116414079D01*
X171324438Y-116415539D01*
X171319488Y-116421988D01*
X171247017Y-116547511D01*
X171247016Y-116547515D01*
X171209500Y-116687525D01*
X171209500Y-116832475D01*
X171247016Y-116972485D01*
X171247017Y-116972488D01*
X171319488Y-117098011D01*
X171319490Y-117098013D01*
X171319491Y-117098015D01*
X171421985Y-117200509D01*
X171421986Y-117200510D01*
X171421988Y-117200511D01*
X171547511Y-117272982D01*
X171547512Y-117272982D01*
X171547515Y-117272984D01*
X171687525Y-117310500D01*
X171687528Y-117310500D01*
X171832472Y-117310500D01*
X171832475Y-117310500D01*
X171972485Y-117272984D01*
X172098015Y-117200509D01*
X172200509Y-117098015D01*
X172272984Y-116972485D01*
X172310500Y-116832475D01*
X172310500Y-116687525D01*
X172307820Y-116677525D01*
X172629500Y-116677525D01*
X172629500Y-116822475D01*
X172665695Y-116957554D01*
X172667017Y-116962488D01*
X172739488Y-117088011D01*
X172739490Y-117088013D01*
X172739491Y-117088015D01*
X172841985Y-117190509D01*
X172841986Y-117190510D01*
X172841988Y-117190511D01*
X172967511Y-117262982D01*
X172967512Y-117262982D01*
X172967515Y-117262984D01*
X173107525Y-117300500D01*
X173107528Y-117300500D01*
X173252472Y-117300500D01*
X173252475Y-117300500D01*
X173392485Y-117262984D01*
X173518015Y-117190509D01*
X173620509Y-117088015D01*
X173692984Y-116962485D01*
X173730500Y-116822475D01*
X173730500Y-116677525D01*
X173692984Y-116537515D01*
X173683816Y-116521636D01*
X173620511Y-116411988D01*
X173620506Y-116411982D01*
X173518017Y-116309493D01*
X173518011Y-116309488D01*
X173392488Y-116237017D01*
X173392489Y-116237017D01*
X173381006Y-116233940D01*
X173252475Y-116199500D01*
X173107525Y-116199500D01*
X172978993Y-116233940D01*
X172967511Y-116237017D01*
X172841988Y-116309488D01*
X172841982Y-116309493D01*
X172739493Y-116411982D01*
X172739488Y-116411988D01*
X172667017Y-116537511D01*
X172667016Y-116537515D01*
X172629500Y-116677525D01*
X172307820Y-116677525D01*
X172272984Y-116547515D01*
X172267210Y-116537515D01*
X172200511Y-116421988D01*
X172200506Y-116421982D01*
X172196205Y-116417681D01*
X172162720Y-116356358D01*
X172167704Y-116286666D01*
X172187463Y-116255920D01*
X172185562Y-116254461D01*
X172190504Y-116248019D01*
X172190509Y-116248015D01*
X172262984Y-116122485D01*
X172300500Y-115982475D01*
X172300500Y-115837525D01*
X172262984Y-115697515D01*
X172190509Y-115571985D01*
X172156049Y-115537525D01*
X173609500Y-115537525D01*
X173609500Y-115682475D01*
X173647016Y-115822485D01*
X173647017Y-115822488D01*
X173719488Y-115948011D01*
X173719490Y-115948013D01*
X173719491Y-115948015D01*
X173821985Y-116050509D01*
X173821986Y-116050510D01*
X173821988Y-116050511D01*
X173947511Y-116122982D01*
X173947512Y-116122982D01*
X173947515Y-116122984D01*
X174087525Y-116160500D01*
X174087528Y-116160500D01*
X174232472Y-116160500D01*
X174232475Y-116160500D01*
X174372485Y-116122984D01*
X174498015Y-116050509D01*
X174600509Y-115948015D01*
X174672984Y-115822485D01*
X174710500Y-115682475D01*
X174710500Y-115677525D01*
X180449500Y-115677525D01*
X180449500Y-115822475D01*
X180487016Y-115962485D01*
X180487017Y-115962488D01*
X180559488Y-116088011D01*
X180559490Y-116088013D01*
X180559491Y-116088015D01*
X180661985Y-116190509D01*
X180661986Y-116190510D01*
X180661988Y-116190511D01*
X180787511Y-116262982D01*
X180787512Y-116262982D01*
X180787515Y-116262984D01*
X180927525Y-116300500D01*
X180927528Y-116300500D01*
X181072472Y-116300500D01*
X181072475Y-116300500D01*
X181212485Y-116262984D01*
X181338015Y-116190509D01*
X181440509Y-116088015D01*
X181512984Y-115962485D01*
X181549147Y-115827525D01*
X183599500Y-115827525D01*
X183599500Y-115972475D01*
X183630460Y-116088017D01*
X183637017Y-116112488D01*
X183709488Y-116238011D01*
X183709490Y-116238013D01*
X183709491Y-116238015D01*
X183811985Y-116340509D01*
X183811986Y-116340510D01*
X183811988Y-116340511D01*
X183937511Y-116412982D01*
X183937512Y-116412982D01*
X183937515Y-116412984D01*
X184077525Y-116450500D01*
X184077528Y-116450500D01*
X184222472Y-116450500D01*
X184222475Y-116450500D01*
X184362485Y-116412984D01*
X184488015Y-116340509D01*
X184590509Y-116238015D01*
X184662984Y-116112485D01*
X184700500Y-115972475D01*
X184700500Y-115827525D01*
X184662984Y-115687515D01*
X184595136Y-115570000D01*
X190962638Y-115570000D01*
X191765512Y-115570000D01*
X191748295Y-115579940D01*
X191692440Y-115635795D01*
X191652944Y-115704204D01*
X191632500Y-115780504D01*
X191632500Y-115859496D01*
X191652944Y-115935796D01*
X191692440Y-116004205D01*
X191748295Y-116060060D01*
X191765512Y-116070000D01*
X190962638Y-116070000D01*
X190970930Y-116111690D01*
X190970930Y-116111692D01*
X191046307Y-116293671D01*
X191046314Y-116293684D01*
X191155748Y-116457462D01*
X191155751Y-116457466D01*
X191295033Y-116596748D01*
X191295037Y-116596751D01*
X191458815Y-116706185D01*
X191458828Y-116706192D01*
X191640806Y-116781569D01*
X191640818Y-116781572D01*
X191834004Y-116819999D01*
X191834008Y-116820000D01*
X192232500Y-116820000D01*
X192232500Y-116120000D01*
X192732500Y-116120000D01*
X192732500Y-116820000D01*
X193130992Y-116820000D01*
X193130995Y-116819999D01*
X193324181Y-116781572D01*
X193324193Y-116781569D01*
X193506171Y-116706192D01*
X193506184Y-116706185D01*
X193669962Y-116596751D01*
X193669966Y-116596748D01*
X193809248Y-116457466D01*
X193809251Y-116457462D01*
X193918685Y-116293684D01*
X193918692Y-116293671D01*
X193994069Y-116111692D01*
X193994069Y-116111690D01*
X194002362Y-116070000D01*
X193199488Y-116070000D01*
X193216705Y-116060060D01*
X193272560Y-116004205D01*
X193312056Y-115935796D01*
X193332500Y-115859496D01*
X193332500Y-115780504D01*
X193312056Y-115704204D01*
X193272560Y-115635795D01*
X193216705Y-115579940D01*
X193199488Y-115570000D01*
X194002362Y-115570000D01*
X195292638Y-115570000D01*
X196095512Y-115570000D01*
X196078295Y-115579940D01*
X196022440Y-115635795D01*
X195982944Y-115704204D01*
X195962500Y-115780504D01*
X195962500Y-115859496D01*
X195982944Y-115935796D01*
X196022440Y-116004205D01*
X196078295Y-116060060D01*
X196095512Y-116070000D01*
X195292638Y-116070000D01*
X195300930Y-116111690D01*
X195300930Y-116111692D01*
X195376307Y-116293671D01*
X195376314Y-116293684D01*
X195485748Y-116457462D01*
X195485751Y-116457466D01*
X195625033Y-116596748D01*
X195625037Y-116596751D01*
X195788815Y-116706185D01*
X195788828Y-116706192D01*
X195970806Y-116781569D01*
X195970818Y-116781572D01*
X196164004Y-116819999D01*
X196164008Y-116820000D01*
X196412500Y-116820000D01*
X196412500Y-116120000D01*
X196912500Y-116120000D01*
X196912500Y-116820000D01*
X197160992Y-116820000D01*
X197160995Y-116819999D01*
X197354181Y-116781572D01*
X197354193Y-116781569D01*
X197536171Y-116706192D01*
X197536184Y-116706185D01*
X197699962Y-116596751D01*
X197699966Y-116596748D01*
X197839248Y-116457466D01*
X197839251Y-116457462D01*
X197948685Y-116293684D01*
X197948692Y-116293671D01*
X198024069Y-116111692D01*
X198024069Y-116111690D01*
X198032362Y-116070000D01*
X197229488Y-116070000D01*
X197246705Y-116060060D01*
X197302560Y-116004205D01*
X197342056Y-115935796D01*
X197362500Y-115859496D01*
X197362500Y-115780504D01*
X197342056Y-115704204D01*
X197302560Y-115635795D01*
X197246705Y-115579940D01*
X197229488Y-115570000D01*
X198032362Y-115570000D01*
X198024069Y-115528309D01*
X198024069Y-115528307D01*
X197948692Y-115346328D01*
X197948685Y-115346315D01*
X197839251Y-115182537D01*
X197839248Y-115182533D01*
X197699966Y-115043251D01*
X197699962Y-115043248D01*
X197536184Y-114933814D01*
X197536171Y-114933807D01*
X197354193Y-114858430D01*
X197354181Y-114858427D01*
X197160995Y-114820000D01*
X196912500Y-114820000D01*
X196912500Y-115520000D01*
X196412500Y-115520000D01*
X196412500Y-114820000D01*
X196164004Y-114820000D01*
X195970818Y-114858427D01*
X195970806Y-114858430D01*
X195788828Y-114933807D01*
X195788815Y-114933814D01*
X195625037Y-115043248D01*
X195625033Y-115043251D01*
X195485751Y-115182533D01*
X195485748Y-115182537D01*
X195376314Y-115346315D01*
X195376307Y-115346328D01*
X195300930Y-115528307D01*
X195300930Y-115528309D01*
X195292638Y-115570000D01*
X194002362Y-115570000D01*
X193994069Y-115528309D01*
X193994069Y-115528307D01*
X193918692Y-115346328D01*
X193918685Y-115346315D01*
X193809251Y-115182537D01*
X193809248Y-115182533D01*
X193669966Y-115043251D01*
X193669962Y-115043248D01*
X193506184Y-114933814D01*
X193506174Y-114933809D01*
X193496657Y-114929867D01*
X193442254Y-114886026D01*
X193420189Y-114819731D01*
X193437469Y-114752032D01*
X193441148Y-114746597D01*
X193443012Y-114743367D01*
X193443015Y-114743365D01*
X193518781Y-114612135D01*
X193558000Y-114465766D01*
X193558000Y-114314234D01*
X193518781Y-114167865D01*
X193515384Y-114161982D01*
X193479124Y-114099178D01*
X193443015Y-114036635D01*
X193335865Y-113929485D01*
X193270250Y-113891602D01*
X193204636Y-113853719D01*
X193131450Y-113834109D01*
X193058266Y-113814500D01*
X192906734Y-113814500D01*
X192760363Y-113853719D01*
X192629135Y-113929485D01*
X192629132Y-113929487D01*
X192521987Y-114036632D01*
X192521985Y-114036635D01*
X192446219Y-114167863D01*
X192407000Y-114314234D01*
X192407000Y-114465765D01*
X192446219Y-114612136D01*
X192473558Y-114659488D01*
X192521985Y-114743365D01*
X192629135Y-114850515D01*
X192670500Y-114874397D01*
X192718716Y-114924964D01*
X192732500Y-114981784D01*
X192732500Y-115520000D01*
X192232500Y-115520000D01*
X192232500Y-114820000D01*
X191834004Y-114820000D01*
X191640818Y-114858427D01*
X191640806Y-114858430D01*
X191458828Y-114933807D01*
X191458815Y-114933814D01*
X191295037Y-115043248D01*
X191295033Y-115043251D01*
X191155751Y-115182533D01*
X191155748Y-115182537D01*
X191046314Y-115346315D01*
X191046307Y-115346328D01*
X190970930Y-115528307D01*
X190970930Y-115528309D01*
X190962638Y-115570000D01*
X184595136Y-115570000D01*
X184590509Y-115561985D01*
X184488015Y-115459491D01*
X184488013Y-115459490D01*
X184488011Y-115459488D01*
X184362488Y-115387017D01*
X184362489Y-115387017D01*
X184351006Y-115383940D01*
X184222475Y-115349500D01*
X184077525Y-115349500D01*
X183948993Y-115383940D01*
X183937511Y-115387017D01*
X183811988Y-115459488D01*
X183811982Y-115459493D01*
X183709493Y-115561982D01*
X183709488Y-115561988D01*
X183637017Y-115687511D01*
X183637016Y-115687515D01*
X183599500Y-115827525D01*
X181549147Y-115827525D01*
X181550500Y-115822475D01*
X181550500Y-115677525D01*
X181512984Y-115537515D01*
X181480694Y-115481588D01*
X181440511Y-115411988D01*
X181440506Y-115411982D01*
X181338017Y-115309493D01*
X181338011Y-115309488D01*
X181212488Y-115237017D01*
X181212489Y-115237017D01*
X181201006Y-115233940D01*
X181072475Y-115199500D01*
X180927525Y-115199500D01*
X180798993Y-115233940D01*
X180787511Y-115237017D01*
X180661988Y-115309488D01*
X180661982Y-115309493D01*
X180559493Y-115411982D01*
X180559488Y-115411988D01*
X180487017Y-115537511D01*
X180486214Y-115540509D01*
X180449500Y-115677525D01*
X174710500Y-115677525D01*
X174710500Y-115537525D01*
X174672984Y-115397515D01*
X174672696Y-115397017D01*
X174600511Y-115271988D01*
X174600506Y-115271982D01*
X174498017Y-115169493D01*
X174498011Y-115169488D01*
X174372488Y-115097017D01*
X174372489Y-115097017D01*
X174361006Y-115093940D01*
X174232475Y-115059500D01*
X174087525Y-115059500D01*
X173958993Y-115093940D01*
X173947511Y-115097017D01*
X173821988Y-115169488D01*
X173821982Y-115169493D01*
X173719493Y-115271982D01*
X173719488Y-115271988D01*
X173647017Y-115397511D01*
X173647016Y-115397515D01*
X173609500Y-115537525D01*
X172156049Y-115537525D01*
X172088015Y-115469491D01*
X172088013Y-115469490D01*
X172088011Y-115469488D01*
X171962488Y-115397017D01*
X171962489Y-115397017D01*
X171951006Y-115393940D01*
X171822475Y-115359500D01*
X171677525Y-115359500D01*
X171548993Y-115393940D01*
X171537511Y-115397017D01*
X171411988Y-115469488D01*
X171411982Y-115469493D01*
X171309493Y-115571982D01*
X171309488Y-115571988D01*
X171237017Y-115697511D01*
X171237016Y-115697515D01*
X171199500Y-115837525D01*
X152376437Y-115837525D01*
X152372171Y-115810590D01*
X152316212Y-115638363D01*
X152316211Y-115638360D01*
X152282392Y-115571988D01*
X152233996Y-115477006D01*
X152168615Y-115387016D01*
X152127558Y-115330505D01*
X152127554Y-115330500D01*
X151999499Y-115202445D01*
X151999494Y-115202441D01*
X151885632Y-115119716D01*
X151852997Y-115096006D01*
X151852996Y-115096005D01*
X151852994Y-115096004D01*
X151801300Y-115069664D01*
X151718599Y-115027525D01*
X158199500Y-115027525D01*
X158199500Y-115172475D01*
X158226164Y-115271985D01*
X158237017Y-115312488D01*
X158309488Y-115438011D01*
X158309490Y-115438013D01*
X158309491Y-115438015D01*
X158411985Y-115540509D01*
X158411986Y-115540510D01*
X158411988Y-115540511D01*
X158537511Y-115612982D01*
X158537512Y-115612982D01*
X158537515Y-115612984D01*
X158677525Y-115650500D01*
X158677528Y-115650500D01*
X158822472Y-115650500D01*
X158822475Y-115650500D01*
X158962485Y-115612984D01*
X159088015Y-115540509D01*
X159190509Y-115438015D01*
X159262984Y-115312485D01*
X159300500Y-115172475D01*
X159300500Y-115027525D01*
X159262984Y-114887515D01*
X159262124Y-114886026D01*
X159190511Y-114761988D01*
X159190506Y-114761982D01*
X159088017Y-114659493D01*
X159088011Y-114659488D01*
X158962488Y-114587017D01*
X158962489Y-114587017D01*
X158951006Y-114583940D01*
X158822475Y-114549500D01*
X158677525Y-114549500D01*
X158548993Y-114583940D01*
X158537511Y-114587017D01*
X158411988Y-114659488D01*
X158411982Y-114659493D01*
X158309493Y-114761982D01*
X158309488Y-114761988D01*
X158237017Y-114887511D01*
X158237016Y-114887515D01*
X158199500Y-115027525D01*
X151718599Y-115027525D01*
X151691639Y-115013788D01*
X151691636Y-115013787D01*
X151519410Y-114957829D01*
X151359321Y-114932473D01*
X151296186Y-114902544D01*
X151259255Y-114843232D01*
X151260253Y-114773370D01*
X151298863Y-114715137D01*
X151359321Y-114687527D01*
X151429425Y-114676422D01*
X151519409Y-114662171D01*
X151691639Y-114606211D01*
X151852994Y-114523996D01*
X151985776Y-114427525D01*
X166199500Y-114427525D01*
X166199500Y-114572475D01*
X166231125Y-114690500D01*
X166237017Y-114712488D01*
X166309488Y-114838011D01*
X166309490Y-114838013D01*
X166309491Y-114838015D01*
X166411985Y-114940509D01*
X166411986Y-114940510D01*
X166411988Y-114940511D01*
X166537511Y-115012982D01*
X166537512Y-115012982D01*
X166537515Y-115012984D01*
X166677525Y-115050500D01*
X166677528Y-115050500D01*
X166822472Y-115050500D01*
X166822475Y-115050500D01*
X166962485Y-115012984D01*
X167088015Y-114940509D01*
X167190509Y-114838015D01*
X167262984Y-114712485D01*
X167300500Y-114572475D01*
X167300500Y-114427525D01*
X167262984Y-114287515D01*
X167247219Y-114260210D01*
X167190511Y-114161988D01*
X167190506Y-114161982D01*
X167088017Y-114059493D01*
X167088015Y-114059491D01*
X167040727Y-114032189D01*
X167031367Y-114026785D01*
X166962485Y-113987016D01*
X166822475Y-113949500D01*
X166677525Y-113949500D01*
X166557593Y-113981636D01*
X166537511Y-113987017D01*
X166411988Y-114059488D01*
X166411982Y-114059493D01*
X166309493Y-114161982D01*
X166309488Y-114161988D01*
X166237017Y-114287511D01*
X166237016Y-114287515D01*
X166199500Y-114427525D01*
X151985776Y-114427525D01*
X151999501Y-114417553D01*
X152127553Y-114289501D01*
X152233996Y-114142994D01*
X152316211Y-113981639D01*
X152333793Y-113927525D01*
X174699500Y-113927525D01*
X174699500Y-114072475D01*
X174725060Y-114167865D01*
X174737017Y-114212488D01*
X174809488Y-114338011D01*
X174809490Y-114338013D01*
X174809491Y-114338015D01*
X174911985Y-114440509D01*
X174911986Y-114440510D01*
X174911988Y-114440511D01*
X175037511Y-114512982D01*
X175037512Y-114512982D01*
X175037515Y-114512984D01*
X175177525Y-114550500D01*
X175177528Y-114550500D01*
X175322472Y-114550500D01*
X175322475Y-114550500D01*
X175462485Y-114512984D01*
X175588015Y-114440509D01*
X175690509Y-114338015D01*
X175762984Y-114212485D01*
X175800500Y-114072475D01*
X175800500Y-113927525D01*
X175762984Y-113787515D01*
X175739724Y-113747228D01*
X175739723Y-113747226D01*
X187518916Y-113747226D01*
X187518916Y-113892176D01*
X187553445Y-114021039D01*
X187556433Y-114032189D01*
X187628904Y-114157712D01*
X187628906Y-114157714D01*
X187628907Y-114157716D01*
X187731401Y-114260210D01*
X187731402Y-114260211D01*
X187731404Y-114260212D01*
X187856927Y-114332683D01*
X187856928Y-114332683D01*
X187856931Y-114332685D01*
X187996941Y-114370201D01*
X187996944Y-114370201D01*
X188141888Y-114370201D01*
X188141891Y-114370201D01*
X188281901Y-114332685D01*
X188407431Y-114260210D01*
X188509925Y-114157716D01*
X188582400Y-114032186D01*
X188619916Y-113892176D01*
X188619916Y-113747226D01*
X188582400Y-113607216D01*
X188513002Y-113487016D01*
X188509927Y-113481689D01*
X188509922Y-113481683D01*
X188407433Y-113379194D01*
X188407427Y-113379189D01*
X188281904Y-113306718D01*
X188281905Y-113306718D01*
X188270422Y-113303641D01*
X188141891Y-113269201D01*
X187996941Y-113269201D01*
X187868409Y-113303641D01*
X187856927Y-113306718D01*
X187731404Y-113379189D01*
X187731398Y-113379194D01*
X187628909Y-113481683D01*
X187628904Y-113481689D01*
X187556433Y-113607212D01*
X187556432Y-113607216D01*
X187518916Y-113747226D01*
X175739723Y-113747226D01*
X175690511Y-113661988D01*
X175690506Y-113661982D01*
X175588017Y-113559493D01*
X175588011Y-113559488D01*
X175462488Y-113487017D01*
X175462489Y-113487017D01*
X175451006Y-113483940D01*
X175322475Y-113449500D01*
X175177525Y-113449500D01*
X175048993Y-113483940D01*
X175037511Y-113487017D01*
X174911988Y-113559488D01*
X174911982Y-113559493D01*
X174809493Y-113661982D01*
X174809488Y-113661988D01*
X174737017Y-113787511D01*
X174737016Y-113787515D01*
X174699500Y-113927525D01*
X152333793Y-113927525D01*
X152372171Y-113809409D01*
X152386765Y-113717259D01*
X152400500Y-113630551D01*
X152400500Y-113449448D01*
X152377893Y-113306718D01*
X152372171Y-113270591D01*
X152316211Y-113098361D01*
X152316211Y-113098360D01*
X152265015Y-112997884D01*
X152233996Y-112937006D01*
X152220396Y-112918287D01*
X152154454Y-112827525D01*
X182899500Y-112827525D01*
X182899500Y-112972475D01*
X182933232Y-113098363D01*
X182937017Y-113112488D01*
X183009488Y-113238011D01*
X183009490Y-113238013D01*
X183009491Y-113238015D01*
X183111985Y-113340509D01*
X183111986Y-113340510D01*
X183111988Y-113340511D01*
X183237511Y-113412982D01*
X183237512Y-113412982D01*
X183237515Y-113412984D01*
X183377525Y-113450500D01*
X183377528Y-113450500D01*
X183522472Y-113450500D01*
X183522475Y-113450500D01*
X183662485Y-113412984D01*
X183788015Y-113340509D01*
X183890509Y-113238015D01*
X183962984Y-113112485D01*
X184000500Y-112972475D01*
X184000500Y-112827525D01*
X183962984Y-112687515D01*
X183948507Y-112662441D01*
X183890511Y-112561988D01*
X183890506Y-112561982D01*
X183788017Y-112459493D01*
X183788011Y-112459488D01*
X183662488Y-112387017D01*
X183662489Y-112387017D01*
X183651006Y-112383940D01*
X183522475Y-112349500D01*
X183377525Y-112349500D01*
X183248993Y-112383940D01*
X183237511Y-112387017D01*
X183111988Y-112459488D01*
X183111982Y-112459493D01*
X183009493Y-112561982D01*
X183009488Y-112561988D01*
X182937017Y-112687511D01*
X182936214Y-112690508D01*
X182899500Y-112827525D01*
X152154454Y-112827525D01*
X152127558Y-112790505D01*
X152127554Y-112790500D01*
X151999495Y-112662441D01*
X151878202Y-112574318D01*
X151835536Y-112518989D01*
X151829557Y-112449375D01*
X151862162Y-112387580D01*
X151923001Y-112353223D01*
X151951087Y-112350000D01*
X152147828Y-112350000D01*
X152147844Y-112349999D01*
X152207372Y-112343598D01*
X152207379Y-112343596D01*
X152342086Y-112293354D01*
X152342093Y-112293350D01*
X152457187Y-112207190D01*
X152479395Y-112177525D01*
X165199500Y-112177525D01*
X165199500Y-112322475D01*
X165226299Y-112422489D01*
X165237017Y-112462488D01*
X165309488Y-112588011D01*
X165309490Y-112588013D01*
X165309491Y-112588015D01*
X165411985Y-112690509D01*
X165411986Y-112690510D01*
X165411988Y-112690511D01*
X165537511Y-112762982D01*
X165537512Y-112762982D01*
X165537515Y-112762984D01*
X165677525Y-112800500D01*
X165677528Y-112800500D01*
X165822472Y-112800500D01*
X165822475Y-112800500D01*
X165962485Y-112762984D01*
X166088015Y-112690509D01*
X166190509Y-112588015D01*
X166262984Y-112462485D01*
X166300500Y-112322475D01*
X166300500Y-112177525D01*
X166262984Y-112037515D01*
X166216717Y-111957379D01*
X166190511Y-111911988D01*
X166190506Y-111911982D01*
X166088017Y-111809493D01*
X166088011Y-111809488D01*
X165962488Y-111737017D01*
X165962489Y-111737017D01*
X165951006Y-111733940D01*
X165822475Y-111699500D01*
X165677525Y-111699500D01*
X165548993Y-111733940D01*
X165537511Y-111737017D01*
X165411988Y-111809488D01*
X165411982Y-111809493D01*
X165309493Y-111911982D01*
X165309488Y-111911988D01*
X165237017Y-112037511D01*
X165237016Y-112037515D01*
X165199500Y-112177525D01*
X152479395Y-112177525D01*
X152541110Y-112095086D01*
X152541110Y-112095085D01*
X152543350Y-112092092D01*
X152543354Y-112092086D01*
X152593596Y-111957379D01*
X152593598Y-111957372D01*
X152599999Y-111897844D01*
X152600000Y-111897827D01*
X152600000Y-111250000D01*
X151494975Y-111250000D01*
X151530070Y-111214905D01*
X151576148Y-111135095D01*
X151595031Y-111064623D01*
X168563199Y-111064623D01*
X168563199Y-111209573D01*
X168594436Y-111326148D01*
X168600716Y-111349586D01*
X168673187Y-111475109D01*
X168673189Y-111475111D01*
X168673190Y-111475113D01*
X168775684Y-111577607D01*
X168775685Y-111577608D01*
X168775687Y-111577609D01*
X168901210Y-111650080D01*
X168901211Y-111650080D01*
X168901214Y-111650082D01*
X169041224Y-111687598D01*
X169041227Y-111687598D01*
X169186171Y-111687598D01*
X169186174Y-111687598D01*
X169326184Y-111650082D01*
X169451714Y-111577607D01*
X169554208Y-111475113D01*
X169626683Y-111349583D01*
X169653294Y-111250269D01*
X169689657Y-111190613D01*
X169752503Y-111160083D01*
X169821879Y-111168377D01*
X169875757Y-111212862D01*
X169892841Y-111250271D01*
X169919453Y-111349586D01*
X169921069Y-111355615D01*
X169993540Y-111481138D01*
X169993542Y-111481140D01*
X169993543Y-111481142D01*
X170096037Y-111583636D01*
X170096038Y-111583637D01*
X170096040Y-111583638D01*
X170221563Y-111656109D01*
X170221564Y-111656109D01*
X170221567Y-111656111D01*
X170361577Y-111693627D01*
X170361580Y-111693627D01*
X170506524Y-111693627D01*
X170506527Y-111693627D01*
X170646537Y-111656111D01*
X170772067Y-111583636D01*
X170874561Y-111481142D01*
X170947036Y-111355612D01*
X170984552Y-111215602D01*
X170984552Y-111070652D01*
X170947036Y-110930642D01*
X170945228Y-110927511D01*
X170874563Y-110805115D01*
X170874558Y-110805109D01*
X170772069Y-110702620D01*
X170772063Y-110702615D01*
X170646540Y-110630144D01*
X170646541Y-110630144D01*
X170624040Y-110624115D01*
X170506527Y-110592627D01*
X170361577Y-110592627D01*
X170244064Y-110624115D01*
X170221563Y-110630144D01*
X170096040Y-110702615D01*
X170096034Y-110702620D01*
X169993545Y-110805109D01*
X169993540Y-110805115D01*
X169921069Y-110930638D01*
X169921068Y-110930642D01*
X169902484Y-111000000D01*
X169894458Y-111029952D01*
X169858092Y-111089612D01*
X169795245Y-111120141D01*
X169725870Y-111111846D01*
X169671992Y-111067360D01*
X169654909Y-111029956D01*
X169626683Y-110924613D01*
X169596579Y-110872472D01*
X169554210Y-110799086D01*
X169554205Y-110799080D01*
X169451716Y-110696591D01*
X169451710Y-110696586D01*
X169326187Y-110624115D01*
X169326188Y-110624115D01*
X169314705Y-110621038D01*
X169186174Y-110586598D01*
X169041224Y-110586598D01*
X168912692Y-110621038D01*
X168901210Y-110624115D01*
X168775687Y-110696586D01*
X168775681Y-110696591D01*
X168673192Y-110799080D01*
X168673187Y-110799086D01*
X168600716Y-110924609D01*
X168596282Y-110941153D01*
X168563199Y-111064623D01*
X151595031Y-111064623D01*
X151600000Y-111046078D01*
X151600000Y-110953922D01*
X151576148Y-110864905D01*
X151530070Y-110785095D01*
X151494975Y-110750000D01*
X151500000Y-110750000D01*
X152600000Y-110750000D01*
X152600000Y-110102172D01*
X152599999Y-110102155D01*
X152593598Y-110042627D01*
X152593596Y-110042620D01*
X152543354Y-109907913D01*
X152543350Y-109907906D01*
X152457190Y-109792812D01*
X152457187Y-109792809D01*
X152342093Y-109706649D01*
X152342086Y-109706645D01*
X152207379Y-109656403D01*
X152207372Y-109656401D01*
X152147844Y-109650000D01*
X151500000Y-109650000D01*
X151500000Y-110750000D01*
X151494975Y-110750000D01*
X151464905Y-110719930D01*
X151385095Y-110673852D01*
X151296078Y-110650000D01*
X151203922Y-110650000D01*
X151114905Y-110673852D01*
X151035095Y-110719930D01*
X151000000Y-110755025D01*
X151000000Y-109650000D01*
X150352155Y-109650000D01*
X150292627Y-109656401D01*
X150292617Y-109656403D01*
X150167832Y-109702945D01*
X150137225Y-109705133D01*
X150106853Y-109709501D01*
X150102697Y-109707603D01*
X150098141Y-109707929D01*
X150071213Y-109693225D01*
X150043297Y-109680476D01*
X150040826Y-109676631D01*
X150036818Y-109674443D01*
X150022115Y-109647516D01*
X150005523Y-109621698D01*
X150004631Y-109615495D01*
X150003334Y-109613120D01*
X150000500Y-109586763D01*
X150000500Y-109427525D01*
X154199500Y-109427525D01*
X154199500Y-109572475D01*
X154237016Y-109712485D01*
X154237017Y-109712488D01*
X154309488Y-109838011D01*
X154309490Y-109838013D01*
X154309491Y-109838015D01*
X154411985Y-109940509D01*
X154411986Y-109940510D01*
X154411988Y-109940511D01*
X154537511Y-110012982D01*
X154537512Y-110012982D01*
X154537515Y-110012984D01*
X154677525Y-110050500D01*
X154677528Y-110050500D01*
X154822472Y-110050500D01*
X154822475Y-110050500D01*
X154962485Y-110012984D01*
X155088015Y-109940509D01*
X155100999Y-109927525D01*
X173599500Y-109927525D01*
X173599500Y-110072475D01*
X173627649Y-110177527D01*
X173637017Y-110212488D01*
X173709488Y-110338011D01*
X173709490Y-110338013D01*
X173709491Y-110338015D01*
X173811985Y-110440509D01*
X173811986Y-110440510D01*
X173811988Y-110440511D01*
X173937511Y-110512982D01*
X173937512Y-110512982D01*
X173937515Y-110512984D01*
X174077525Y-110550500D01*
X174077528Y-110550500D01*
X174222472Y-110550500D01*
X174222475Y-110550500D01*
X174362485Y-110512984D01*
X174488015Y-110440509D01*
X174590509Y-110338015D01*
X174662984Y-110212485D01*
X174668125Y-110193299D01*
X177185223Y-110193299D01*
X177185223Y-110338249D01*
X177218513Y-110462488D01*
X177222740Y-110478262D01*
X177295211Y-110603785D01*
X177295213Y-110603787D01*
X177295214Y-110603789D01*
X177397708Y-110706283D01*
X177397709Y-110706284D01*
X177397711Y-110706285D01*
X177523234Y-110778756D01*
X177523235Y-110778756D01*
X177523238Y-110778758D01*
X177663248Y-110816274D01*
X177663251Y-110816274D01*
X177808195Y-110816274D01*
X177808198Y-110816274D01*
X177948208Y-110778758D01*
X178073738Y-110706283D01*
X178176232Y-110603789D01*
X178248707Y-110478259D01*
X178286223Y-110338249D01*
X178286223Y-110193299D01*
X178281996Y-110177525D01*
X181199500Y-110177525D01*
X181199500Y-110322475D01*
X181231128Y-110440511D01*
X181237017Y-110462488D01*
X181309488Y-110588011D01*
X181309490Y-110588013D01*
X181309491Y-110588015D01*
X181411985Y-110690509D01*
X181411986Y-110690510D01*
X181411988Y-110690511D01*
X181537511Y-110762982D01*
X181537512Y-110762982D01*
X181537515Y-110762984D01*
X181677525Y-110800500D01*
X181677528Y-110800500D01*
X181822472Y-110800500D01*
X181822475Y-110800500D01*
X181962485Y-110762984D01*
X182023902Y-110727525D01*
X183499500Y-110727525D01*
X183499500Y-110872475D01*
X183521324Y-110953922D01*
X183537017Y-111012488D01*
X183609488Y-111138011D01*
X183609490Y-111138013D01*
X183609491Y-111138015D01*
X183711985Y-111240509D01*
X183711986Y-111240510D01*
X183711988Y-111240511D01*
X183837511Y-111312982D01*
X183837512Y-111312982D01*
X183837515Y-111312984D01*
X183977525Y-111350500D01*
X183977528Y-111350500D01*
X184122472Y-111350500D01*
X184122475Y-111350500D01*
X184262485Y-111312984D01*
X184388015Y-111240509D01*
X184490509Y-111138015D01*
X184562984Y-111012485D01*
X184600500Y-110872475D01*
X184600500Y-110727525D01*
X184562984Y-110587515D01*
X184541613Y-110550500D01*
X184490511Y-110461988D01*
X184490506Y-110461982D01*
X184388017Y-110359493D01*
X184388011Y-110359488D01*
X184262488Y-110287017D01*
X184262489Y-110287017D01*
X184251006Y-110283940D01*
X184122475Y-110249500D01*
X183977525Y-110249500D01*
X183848993Y-110283940D01*
X183837511Y-110287017D01*
X183711988Y-110359488D01*
X183711982Y-110359493D01*
X183609493Y-110461982D01*
X183609488Y-110461988D01*
X183537017Y-110587511D01*
X183537016Y-110587515D01*
X183499500Y-110727525D01*
X182023902Y-110727525D01*
X182088015Y-110690509D01*
X182190509Y-110588015D01*
X182262984Y-110462485D01*
X182300500Y-110322475D01*
X182300500Y-110177525D01*
X182262984Y-110037515D01*
X182206977Y-109940509D01*
X182190511Y-109911988D01*
X182190506Y-109911982D01*
X182088017Y-109809493D01*
X182088011Y-109809488D01*
X181962488Y-109737017D01*
X181962489Y-109737017D01*
X181951006Y-109733940D01*
X181822475Y-109699500D01*
X181677525Y-109699500D01*
X181548993Y-109733940D01*
X181537511Y-109737017D01*
X181411988Y-109809488D01*
X181411982Y-109809493D01*
X181309493Y-109911982D01*
X181309488Y-109911988D01*
X181237017Y-110037511D01*
X181237016Y-110037515D01*
X181199500Y-110177525D01*
X178281996Y-110177525D01*
X178248707Y-110053289D01*
X178242551Y-110042627D01*
X178176234Y-109927762D01*
X178176229Y-109927756D01*
X178073740Y-109825267D01*
X178073734Y-109825262D01*
X177948211Y-109752791D01*
X177948212Y-109752791D01*
X177936729Y-109749714D01*
X177808198Y-109715274D01*
X177663248Y-109715274D01*
X177534716Y-109749714D01*
X177523234Y-109752791D01*
X177397711Y-109825262D01*
X177397705Y-109825267D01*
X177295216Y-109927756D01*
X177295211Y-109927762D01*
X177222740Y-110053285D01*
X177222739Y-110053289D01*
X177185223Y-110193299D01*
X174668125Y-110193299D01*
X174700500Y-110072475D01*
X174700500Y-109927525D01*
X174662984Y-109787515D01*
X174642935Y-109752790D01*
X174590511Y-109661988D01*
X174590506Y-109661982D01*
X174488017Y-109559493D01*
X174488011Y-109559488D01*
X174362488Y-109487017D01*
X174362489Y-109487017D01*
X174351006Y-109483940D01*
X174222475Y-109449500D01*
X174077525Y-109449500D01*
X173948993Y-109483940D01*
X173937511Y-109487017D01*
X173811988Y-109559488D01*
X173811982Y-109559493D01*
X173709493Y-109661982D01*
X173709488Y-109661988D01*
X173637017Y-109787511D01*
X173637016Y-109787515D01*
X173599500Y-109927525D01*
X155100999Y-109927525D01*
X155190509Y-109838015D01*
X155262984Y-109712485D01*
X155300500Y-109572475D01*
X155300500Y-109427525D01*
X155262984Y-109287515D01*
X155204085Y-109185500D01*
X155190511Y-109161988D01*
X155190506Y-109161982D01*
X155088017Y-109059493D01*
X155088011Y-109059488D01*
X154962488Y-108987017D01*
X154962489Y-108987017D01*
X154951006Y-108983940D01*
X154822475Y-108949500D01*
X154677525Y-108949500D01*
X154548993Y-108983940D01*
X154537511Y-108987017D01*
X154411988Y-109059488D01*
X154411982Y-109059493D01*
X154309493Y-109161982D01*
X154309488Y-109161988D01*
X154237017Y-109287511D01*
X154237016Y-109287515D01*
X154199500Y-109427525D01*
X150000500Y-109427525D01*
X150000500Y-108527525D01*
X161381492Y-108527525D01*
X161381492Y-108672475D01*
X161419008Y-108812485D01*
X161419009Y-108812488D01*
X161491480Y-108938011D01*
X161491482Y-108938013D01*
X161491483Y-108938015D01*
X161593977Y-109040509D01*
X161593978Y-109040510D01*
X161593980Y-109040511D01*
X161719503Y-109112982D01*
X161719504Y-109112982D01*
X161719507Y-109112984D01*
X161859517Y-109150500D01*
X161859520Y-109150500D01*
X162004464Y-109150500D01*
X162004467Y-109150500D01*
X162144477Y-109112984D01*
X162270007Y-109040509D01*
X162372501Y-108938015D01*
X162444976Y-108812485D01*
X162482492Y-108672475D01*
X162482492Y-108527525D01*
X162444976Y-108387515D01*
X162372501Y-108261985D01*
X162270007Y-108159491D01*
X162270005Y-108159490D01*
X162270003Y-108159488D01*
X162144480Y-108087017D01*
X162144481Y-108087017D01*
X162094852Y-108073719D01*
X162004467Y-108049500D01*
X161859517Y-108049500D01*
X161769132Y-108073719D01*
X161719503Y-108087017D01*
X161593980Y-108159488D01*
X161593974Y-108159493D01*
X161491485Y-108261982D01*
X161491480Y-108261988D01*
X161419009Y-108387511D01*
X161419008Y-108387515D01*
X161381492Y-108527525D01*
X150000500Y-108527525D01*
X150000500Y-107427525D01*
X176599500Y-107427525D01*
X176599500Y-107572475D01*
X176637016Y-107712485D01*
X176637017Y-107712488D01*
X176709488Y-107838011D01*
X176709490Y-107838013D01*
X176709491Y-107838015D01*
X176811985Y-107940509D01*
X176811986Y-107940510D01*
X176811988Y-107940511D01*
X176937511Y-108012982D01*
X176937512Y-108012982D01*
X176937515Y-108012984D01*
X177077525Y-108050500D01*
X177077528Y-108050500D01*
X177222472Y-108050500D01*
X177222475Y-108050500D01*
X177362485Y-108012984D01*
X177488015Y-107940509D01*
X177590509Y-107838015D01*
X177662984Y-107712485D01*
X177694262Y-107595757D01*
X185708593Y-107595757D01*
X185708593Y-107740707D01*
X185746109Y-107880717D01*
X185746110Y-107880720D01*
X185818581Y-108006243D01*
X185818583Y-108006245D01*
X185818584Y-108006247D01*
X185921078Y-108108741D01*
X185921079Y-108108742D01*
X185921081Y-108108743D01*
X186046604Y-108181214D01*
X186046605Y-108181214D01*
X186046608Y-108181216D01*
X186186618Y-108218732D01*
X186186621Y-108218732D01*
X186331565Y-108218732D01*
X186331568Y-108218732D01*
X186471578Y-108181216D01*
X186597108Y-108108741D01*
X186699602Y-108006247D01*
X186772077Y-107880717D01*
X186809593Y-107740707D01*
X186809593Y-107595757D01*
X186772077Y-107455747D01*
X186699602Y-107330217D01*
X186597108Y-107227723D01*
X186597106Y-107227722D01*
X186597104Y-107227720D01*
X186471581Y-107155249D01*
X186471582Y-107155249D01*
X186460099Y-107152172D01*
X186331568Y-107117732D01*
X186186618Y-107117732D01*
X186058086Y-107152172D01*
X186046604Y-107155249D01*
X185921081Y-107227720D01*
X185921075Y-107227725D01*
X185818586Y-107330214D01*
X185818581Y-107330220D01*
X185746110Y-107455743D01*
X185741676Y-107472287D01*
X185708593Y-107595757D01*
X177694262Y-107595757D01*
X177700500Y-107572475D01*
X177700500Y-107427525D01*
X177662984Y-107287515D01*
X177628461Y-107227720D01*
X177590511Y-107161988D01*
X177590506Y-107161982D01*
X177488017Y-107059493D01*
X177488011Y-107059488D01*
X177362488Y-106987017D01*
X177362489Y-106987017D01*
X177351006Y-106983940D01*
X177222475Y-106949500D01*
X177077525Y-106949500D01*
X176948993Y-106983940D01*
X176937511Y-106987017D01*
X176811988Y-107059488D01*
X176811982Y-107059493D01*
X176709493Y-107161982D01*
X176709488Y-107161988D01*
X176637017Y-107287511D01*
X176637016Y-107287515D01*
X176599500Y-107427525D01*
X150000500Y-107427525D01*
X150000500Y-105747525D01*
X161419500Y-105747525D01*
X161419500Y-105892475D01*
X161457016Y-106032485D01*
X161457017Y-106032488D01*
X161529488Y-106158011D01*
X161529490Y-106158013D01*
X161529491Y-106158015D01*
X161631985Y-106260509D01*
X161631986Y-106260510D01*
X161631988Y-106260511D01*
X161757511Y-106332982D01*
X161757512Y-106332982D01*
X161757515Y-106332984D01*
X161897525Y-106370500D01*
X161897528Y-106370500D01*
X162042472Y-106370500D01*
X162042475Y-106370500D01*
X162182485Y-106332984D01*
X162308015Y-106260509D01*
X162410509Y-106158015D01*
X162428112Y-106127525D01*
X170299500Y-106127525D01*
X170299500Y-106272475D01*
X170315714Y-106332984D01*
X170337017Y-106412488D01*
X170409488Y-106538011D01*
X170409490Y-106538013D01*
X170409491Y-106538015D01*
X170511985Y-106640509D01*
X170511986Y-106640510D01*
X170511988Y-106640511D01*
X170637511Y-106712982D01*
X170637512Y-106712982D01*
X170637515Y-106712984D01*
X170777525Y-106750500D01*
X170777528Y-106750500D01*
X170922472Y-106750500D01*
X170922475Y-106750500D01*
X171062485Y-106712984D01*
X171188015Y-106640509D01*
X171290509Y-106538015D01*
X171362984Y-106412485D01*
X171385749Y-106327525D01*
X189799500Y-106327525D01*
X189799500Y-106472475D01*
X189834399Y-106602719D01*
X189837017Y-106612488D01*
X189909488Y-106738011D01*
X189909490Y-106738013D01*
X189909491Y-106738015D01*
X190011985Y-106840509D01*
X190011986Y-106840510D01*
X190011988Y-106840511D01*
X190137511Y-106912982D01*
X190137512Y-106912982D01*
X190137515Y-106912984D01*
X190277525Y-106950500D01*
X190277528Y-106950500D01*
X190422472Y-106950500D01*
X190422475Y-106950500D01*
X190562485Y-106912984D01*
X190688015Y-106840509D01*
X190764894Y-106763629D01*
X190826213Y-106730147D01*
X190895905Y-106735131D01*
X190951839Y-106777002D01*
X190976256Y-106842466D01*
X190971798Y-106882273D01*
X190972118Y-106882337D01*
X190971370Y-106886095D01*
X190971236Y-106887296D01*
X190970932Y-106888296D01*
X190962638Y-106930000D01*
X191765512Y-106930000D01*
X191748295Y-106939940D01*
X191692440Y-106995795D01*
X191652944Y-107064204D01*
X191632500Y-107140504D01*
X191632500Y-107219496D01*
X191652944Y-107295796D01*
X191692440Y-107364205D01*
X191748295Y-107420060D01*
X191765512Y-107430000D01*
X190962638Y-107430000D01*
X190970930Y-107471690D01*
X190970930Y-107471692D01*
X191046307Y-107653671D01*
X191046314Y-107653684D01*
X191155748Y-107817462D01*
X191155751Y-107817466D01*
X191295033Y-107956748D01*
X191295037Y-107956751D01*
X191458815Y-108066185D01*
X191458828Y-108066192D01*
X191640806Y-108141569D01*
X191640818Y-108141572D01*
X191834004Y-108179999D01*
X191834008Y-108180000D01*
X192232500Y-108180000D01*
X192232500Y-107480000D01*
X192732500Y-107480000D01*
X192732500Y-108018215D01*
X192712815Y-108085254D01*
X192670502Y-108125601D01*
X192629138Y-108149483D01*
X192629132Y-108149487D01*
X192521987Y-108256632D01*
X192521985Y-108256635D01*
X192446219Y-108387863D01*
X192407000Y-108534234D01*
X192407000Y-108685765D01*
X192446219Y-108832136D01*
X192484102Y-108897750D01*
X192521985Y-108963365D01*
X192629135Y-109070515D01*
X192760365Y-109146281D01*
X192906734Y-109185500D01*
X192906736Y-109185500D01*
X193058264Y-109185500D01*
X193058266Y-109185500D01*
X193204635Y-109146281D01*
X193335865Y-109070515D01*
X193443015Y-108963365D01*
X193518781Y-108832135D01*
X193558000Y-108685766D01*
X193558000Y-108534234D01*
X193518781Y-108387865D01*
X193443015Y-108256635D01*
X193443013Y-108256633D01*
X193438951Y-108249597D01*
X193441154Y-108248325D01*
X193420541Y-108195022D01*
X193434573Y-108126576D01*
X193483382Y-108076582D01*
X193496663Y-108070129D01*
X193506182Y-108066186D01*
X193506184Y-108066185D01*
X193669962Y-107956751D01*
X193669966Y-107956748D01*
X193809248Y-107817466D01*
X193809251Y-107817462D01*
X193918685Y-107653684D01*
X193918692Y-107653671D01*
X193994069Y-107471692D01*
X193994069Y-107471690D01*
X194002362Y-107430000D01*
X193199488Y-107430000D01*
X193216705Y-107420060D01*
X193272560Y-107364205D01*
X193312056Y-107295796D01*
X193332500Y-107219496D01*
X193332500Y-107140504D01*
X193312056Y-107064204D01*
X193272560Y-106995795D01*
X193216705Y-106939940D01*
X193199488Y-106930000D01*
X194002362Y-106930000D01*
X195292638Y-106930000D01*
X196095512Y-106930000D01*
X196078295Y-106939940D01*
X196022440Y-106995795D01*
X195982944Y-107064204D01*
X195962500Y-107140504D01*
X195962500Y-107219496D01*
X195982944Y-107295796D01*
X196022440Y-107364205D01*
X196078295Y-107420060D01*
X196095512Y-107430000D01*
X195292638Y-107430000D01*
X195300930Y-107471690D01*
X195300930Y-107471692D01*
X195376307Y-107653671D01*
X195376314Y-107653684D01*
X195485748Y-107817462D01*
X195485751Y-107817466D01*
X195625033Y-107956748D01*
X195625037Y-107956751D01*
X195788815Y-108066185D01*
X195788828Y-108066192D01*
X195970806Y-108141569D01*
X195970818Y-108141572D01*
X196164004Y-108179999D01*
X196164008Y-108180000D01*
X196412500Y-108180000D01*
X196412500Y-107480000D01*
X196912500Y-107480000D01*
X196912500Y-108180000D01*
X197160992Y-108180000D01*
X197160995Y-108179999D01*
X197354181Y-108141572D01*
X197354193Y-108141569D01*
X197536171Y-108066192D01*
X197536184Y-108066185D01*
X197699962Y-107956751D01*
X197699966Y-107956748D01*
X197839248Y-107817466D01*
X197839251Y-107817462D01*
X197948685Y-107653684D01*
X197948692Y-107653671D01*
X198024069Y-107471692D01*
X198024069Y-107471690D01*
X198032362Y-107430000D01*
X197229488Y-107430000D01*
X197246705Y-107420060D01*
X197302560Y-107364205D01*
X197342056Y-107295796D01*
X197362500Y-107219496D01*
X197362500Y-107140504D01*
X197342056Y-107064204D01*
X197302560Y-106995795D01*
X197246705Y-106939940D01*
X197229488Y-106930000D01*
X198032362Y-106930000D01*
X198024069Y-106888309D01*
X198024069Y-106888307D01*
X197948692Y-106706328D01*
X197948685Y-106706315D01*
X197839251Y-106542537D01*
X197839248Y-106542533D01*
X197699966Y-106403251D01*
X197699962Y-106403248D01*
X197536184Y-106293814D01*
X197536171Y-106293807D01*
X197354193Y-106218430D01*
X197354181Y-106218427D01*
X197160995Y-106180000D01*
X196912500Y-106180000D01*
X196912500Y-106880000D01*
X196412500Y-106880000D01*
X196412500Y-106180000D01*
X196164004Y-106180000D01*
X195970818Y-106218427D01*
X195970806Y-106218430D01*
X195788828Y-106293807D01*
X195788815Y-106293814D01*
X195625037Y-106403248D01*
X195625033Y-106403251D01*
X195485751Y-106542533D01*
X195485748Y-106542537D01*
X195376314Y-106706315D01*
X195376307Y-106706328D01*
X195300930Y-106888307D01*
X195300930Y-106888309D01*
X195292638Y-106930000D01*
X194002362Y-106930000D01*
X193994069Y-106888309D01*
X193994069Y-106888307D01*
X193918692Y-106706328D01*
X193918685Y-106706315D01*
X193809251Y-106542537D01*
X193809248Y-106542533D01*
X193669966Y-106403251D01*
X193669962Y-106403248D01*
X193506184Y-106293814D01*
X193506171Y-106293807D01*
X193324193Y-106218430D01*
X193324181Y-106218427D01*
X193130995Y-106180000D01*
X192732500Y-106180000D01*
X192732500Y-106880000D01*
X192232500Y-106880000D01*
X192232500Y-106180000D01*
X191834004Y-106180000D01*
X191640818Y-106218427D01*
X191640806Y-106218430D01*
X191458828Y-106293807D01*
X191458815Y-106293814D01*
X191295037Y-106403248D01*
X191295033Y-106403251D01*
X191155751Y-106542533D01*
X191155746Y-106542539D01*
X191115535Y-106602719D01*
X191061923Y-106647523D01*
X190992598Y-106656230D01*
X190929571Y-106626075D01*
X190892852Y-106566631D01*
X190892660Y-106501733D01*
X190900500Y-106472475D01*
X190900500Y-106327525D01*
X190862984Y-106187515D01*
X190858645Y-106180000D01*
X190790511Y-106061988D01*
X190790506Y-106061982D01*
X190688017Y-105959493D01*
X190688011Y-105959488D01*
X190562488Y-105887017D01*
X190562489Y-105887017D01*
X190551006Y-105883940D01*
X190422475Y-105849500D01*
X190277525Y-105849500D01*
X190148993Y-105883940D01*
X190137511Y-105887017D01*
X190011988Y-105959488D01*
X190011982Y-105959493D01*
X189909493Y-106061982D01*
X189909488Y-106061988D01*
X189837017Y-106187511D01*
X189837016Y-106187515D01*
X189799500Y-106327525D01*
X171385749Y-106327525D01*
X171400500Y-106272475D01*
X171400500Y-106127525D01*
X171362984Y-105987515D01*
X171346805Y-105959493D01*
X171290511Y-105861988D01*
X171290506Y-105861982D01*
X171188017Y-105759493D01*
X171188011Y-105759488D01*
X171062488Y-105687017D01*
X171062489Y-105687017D01*
X171051006Y-105683940D01*
X170922475Y-105649500D01*
X170777525Y-105649500D01*
X170648993Y-105683940D01*
X170637511Y-105687017D01*
X170511988Y-105759488D01*
X170511982Y-105759493D01*
X170409493Y-105861982D01*
X170409488Y-105861988D01*
X170337017Y-105987511D01*
X170337016Y-105987515D01*
X170299500Y-106127525D01*
X162428112Y-106127525D01*
X162482984Y-106032485D01*
X162520500Y-105892475D01*
X162520500Y-105747525D01*
X162482984Y-105607515D01*
X162442244Y-105536952D01*
X162410511Y-105481988D01*
X162410506Y-105481982D01*
X162308017Y-105379493D01*
X162308011Y-105379488D01*
X162182488Y-105307017D01*
X162182489Y-105307017D01*
X162171006Y-105303940D01*
X162042475Y-105269500D01*
X161897525Y-105269500D01*
X161768993Y-105303940D01*
X161757511Y-105307017D01*
X161631988Y-105379488D01*
X161631982Y-105379493D01*
X161529493Y-105481982D01*
X161529488Y-105481988D01*
X161457017Y-105607511D01*
X161457016Y-105607515D01*
X161419500Y-105747525D01*
X150000500Y-105747525D01*
X150000500Y-105023971D01*
X180895946Y-105023971D01*
X180895946Y-105168921D01*
X180927858Y-105288015D01*
X180933463Y-105308934D01*
X181005934Y-105434457D01*
X181005936Y-105434459D01*
X181005937Y-105434461D01*
X181108431Y-105536955D01*
X181108432Y-105536956D01*
X181108434Y-105536957D01*
X181233957Y-105609428D01*
X181233958Y-105609428D01*
X181233961Y-105609430D01*
X181373971Y-105646946D01*
X181373974Y-105646946D01*
X181518918Y-105646946D01*
X181518921Y-105646946D01*
X181658931Y-105609430D01*
X181784461Y-105536955D01*
X181886955Y-105434461D01*
X181904609Y-105403882D01*
X181955174Y-105355667D01*
X182023781Y-105342443D01*
X182088646Y-105368410D01*
X182099677Y-105378201D01*
X182111985Y-105390509D01*
X182111986Y-105390510D01*
X182111988Y-105390511D01*
X182237511Y-105462982D01*
X182237512Y-105462982D01*
X182237515Y-105462984D01*
X182377525Y-105500500D01*
X182377528Y-105500500D01*
X182522472Y-105500500D01*
X182522475Y-105500500D01*
X182662485Y-105462984D01*
X182788015Y-105390509D01*
X182890509Y-105288015D01*
X182962984Y-105162485D01*
X183000500Y-105022475D01*
X183000500Y-104957525D01*
X187769500Y-104957525D01*
X187769500Y-105102475D01*
X187807016Y-105242485D01*
X187807017Y-105242488D01*
X187879488Y-105368011D01*
X187879490Y-105368013D01*
X187879491Y-105368015D01*
X187981985Y-105470509D01*
X187981986Y-105470510D01*
X187981988Y-105470511D01*
X188107511Y-105542982D01*
X188107512Y-105542982D01*
X188107515Y-105542984D01*
X188247525Y-105580500D01*
X188247528Y-105580500D01*
X188392472Y-105580500D01*
X188392475Y-105580500D01*
X188532485Y-105542984D01*
X188658015Y-105470509D01*
X188760509Y-105368015D01*
X188832984Y-105242485D01*
X188870500Y-105102475D01*
X188870500Y-104957525D01*
X188832984Y-104817515D01*
X188814950Y-104786280D01*
X188760511Y-104691988D01*
X188760506Y-104691982D01*
X188658017Y-104589493D01*
X188658011Y-104589488D01*
X188532488Y-104517017D01*
X188532489Y-104517017D01*
X188504409Y-104509493D01*
X188392475Y-104479500D01*
X188247525Y-104479500D01*
X188135591Y-104509493D01*
X188107511Y-104517017D01*
X187981988Y-104589488D01*
X187981982Y-104589493D01*
X187879493Y-104691982D01*
X187879488Y-104691988D01*
X187807017Y-104817511D01*
X187807016Y-104817515D01*
X187769500Y-104957525D01*
X183000500Y-104957525D01*
X183000500Y-104877525D01*
X182962984Y-104737515D01*
X182947395Y-104710515D01*
X182890511Y-104611988D01*
X182890506Y-104611982D01*
X182788017Y-104509493D01*
X182788011Y-104509488D01*
X182662488Y-104437017D01*
X182662489Y-104437017D01*
X182651006Y-104433940D01*
X182522475Y-104399500D01*
X182377525Y-104399500D01*
X182248993Y-104433940D01*
X182237511Y-104437017D01*
X182111988Y-104509488D01*
X182111982Y-104509493D01*
X182009493Y-104611982D01*
X182009489Y-104611988D01*
X181991835Y-104642565D01*
X181941267Y-104690780D01*
X181872660Y-104704001D01*
X181807796Y-104678032D01*
X181796768Y-104668244D01*
X181784463Y-104655939D01*
X181784457Y-104655934D01*
X181658934Y-104583463D01*
X181658935Y-104583463D01*
X181647452Y-104580386D01*
X181518921Y-104545946D01*
X181373971Y-104545946D01*
X181245439Y-104580386D01*
X181233957Y-104583463D01*
X181108434Y-104655934D01*
X181108428Y-104655939D01*
X181005939Y-104758428D01*
X181005934Y-104758434D01*
X180933463Y-104883957D01*
X180933462Y-104883961D01*
X180895946Y-105023971D01*
X150000500Y-105023971D01*
X150000500Y-104047525D01*
X162179500Y-104047525D01*
X162179500Y-104192475D01*
X162215216Y-104325766D01*
X162217017Y-104332488D01*
X162289488Y-104458011D01*
X162289490Y-104458013D01*
X162289491Y-104458015D01*
X162391985Y-104560509D01*
X162391986Y-104560510D01*
X162391988Y-104560511D01*
X162517511Y-104632982D01*
X162517512Y-104632982D01*
X162517515Y-104632984D01*
X162657525Y-104670500D01*
X162657528Y-104670500D01*
X162802472Y-104670500D01*
X162802475Y-104670500D01*
X162942485Y-104632984D01*
X163068015Y-104560509D01*
X163170509Y-104458015D01*
X163242984Y-104332485D01*
X163280500Y-104192475D01*
X163280500Y-104047525D01*
X163242984Y-103907515D01*
X163236702Y-103896635D01*
X163170511Y-103781988D01*
X163170506Y-103781982D01*
X163068017Y-103679493D01*
X163068011Y-103679488D01*
X162942488Y-103607017D01*
X162942489Y-103607017D01*
X162928856Y-103603364D01*
X162802475Y-103569500D01*
X162657525Y-103569500D01*
X162531144Y-103603364D01*
X162517511Y-103607017D01*
X162391988Y-103679488D01*
X162391982Y-103679493D01*
X162289493Y-103781982D01*
X162289488Y-103781988D01*
X162217017Y-103907511D01*
X162217016Y-103907515D01*
X162179500Y-104047525D01*
X150000500Y-104047525D01*
X150000500Y-102517525D01*
X162139500Y-102517525D01*
X162139500Y-102662475D01*
X162171627Y-102782372D01*
X162177017Y-102802488D01*
X162249488Y-102928011D01*
X162249490Y-102928013D01*
X162249491Y-102928015D01*
X162351985Y-103030509D01*
X162351986Y-103030510D01*
X162351988Y-103030511D01*
X162477511Y-103102982D01*
X162477512Y-103102982D01*
X162477515Y-103102984D01*
X162617525Y-103140500D01*
X162617528Y-103140500D01*
X162762472Y-103140500D01*
X162762475Y-103140500D01*
X162902485Y-103102984D01*
X163028015Y-103030509D01*
X163130509Y-102928015D01*
X163202984Y-102802485D01*
X163240500Y-102662475D01*
X163240500Y-102527525D01*
X172599500Y-102527525D01*
X172599500Y-102672475D01*
X172637016Y-102812485D01*
X172637017Y-102812488D01*
X172709488Y-102938011D01*
X172709490Y-102938013D01*
X172709491Y-102938015D01*
X172811985Y-103040509D01*
X172811986Y-103040510D01*
X172811988Y-103040511D01*
X172937511Y-103112982D01*
X172937512Y-103112982D01*
X172937515Y-103112984D01*
X173077525Y-103150500D01*
X173077528Y-103150500D01*
X173222472Y-103150500D01*
X173222475Y-103150500D01*
X173362485Y-103112984D01*
X173488015Y-103040509D01*
X173590509Y-102938015D01*
X173662984Y-102812485D01*
X173700500Y-102672475D01*
X173700500Y-102527525D01*
X173693125Y-102500000D01*
X192575000Y-102500000D01*
X192575000Y-102722844D01*
X192581401Y-102782372D01*
X192581403Y-102782379D01*
X192631645Y-102917086D01*
X192631649Y-102917093D01*
X192717809Y-103032187D01*
X192717812Y-103032190D01*
X192832906Y-103118350D01*
X192832913Y-103118354D01*
X192843833Y-103122427D01*
X192899767Y-103164298D01*
X192924184Y-103229762D01*
X192924500Y-103238609D01*
X192924500Y-103325765D01*
X192963719Y-103472136D01*
X193001602Y-103537750D01*
X193039485Y-103603365D01*
X193039487Y-103603367D01*
X193098439Y-103662319D01*
X193131924Y-103723642D01*
X193126940Y-103793334D01*
X193098439Y-103837681D01*
X193039487Y-103896632D01*
X193039485Y-103896635D01*
X192963719Y-104027863D01*
X192924500Y-104174234D01*
X192924500Y-104325766D01*
X192926301Y-104332488D01*
X192963719Y-104472136D01*
X192989631Y-104517016D01*
X193039485Y-104603365D01*
X193146635Y-104710515D01*
X193277865Y-104786281D01*
X193424234Y-104825500D01*
X193424236Y-104825500D01*
X193575764Y-104825500D01*
X193575766Y-104825500D01*
X193722135Y-104786281D01*
X193853365Y-104710515D01*
X193960515Y-104603365D01*
X194036281Y-104472135D01*
X194075500Y-104325766D01*
X194075500Y-104174234D01*
X194036281Y-104027865D01*
X193960515Y-103896635D01*
X193901561Y-103837681D01*
X193868076Y-103776358D01*
X193873060Y-103706666D01*
X193901561Y-103662319D01*
X193960515Y-103603365D01*
X194036281Y-103472135D01*
X194075500Y-103325766D01*
X194075500Y-103238608D01*
X194095185Y-103171569D01*
X194147989Y-103125814D01*
X194156173Y-103122424D01*
X194167087Y-103118353D01*
X194167093Y-103118350D01*
X194282187Y-103032190D01*
X194282190Y-103032187D01*
X194368350Y-102917093D01*
X194368354Y-102917086D01*
X194418596Y-102782379D01*
X194418598Y-102782372D01*
X194424999Y-102722844D01*
X194425000Y-102722827D01*
X194425000Y-102500000D01*
X193549728Y-102500000D01*
X193641614Y-102461940D01*
X193711940Y-102391614D01*
X193750000Y-102299728D01*
X193750000Y-102200272D01*
X193711940Y-102108386D01*
X193641614Y-102038060D01*
X193549728Y-102000000D01*
X193750000Y-102000000D01*
X194425000Y-102000000D01*
X194425000Y-101777172D01*
X194424999Y-101777155D01*
X194418598Y-101717627D01*
X194418596Y-101717620D01*
X194368354Y-101582913D01*
X194368350Y-101582906D01*
X194282190Y-101467812D01*
X194282187Y-101467809D01*
X194167093Y-101381649D01*
X194167086Y-101381645D01*
X194032379Y-101331403D01*
X194032372Y-101331401D01*
X193972844Y-101325000D01*
X193750000Y-101325000D01*
X193750000Y-102000000D01*
X193549728Y-102000000D01*
X193450272Y-102000000D01*
X193358386Y-102038060D01*
X193288060Y-102108386D01*
X193250000Y-102200272D01*
X193250000Y-102299728D01*
X193288060Y-102391614D01*
X193358386Y-102461940D01*
X193450272Y-102500000D01*
X192575000Y-102500000D01*
X173693125Y-102500000D01*
X173662984Y-102387515D01*
X173607563Y-102291524D01*
X173604516Y-102284242D01*
X173601493Y-102257059D01*
X173595043Y-102230472D01*
X173597687Y-102222832D01*
X173596794Y-102214800D01*
X173608947Y-102190295D01*
X173617895Y-102164445D01*
X173624248Y-102159448D01*
X173627840Y-102152207D01*
X173651314Y-102138163D01*
X173672816Y-102121254D01*
X173680862Y-102120485D01*
X173687799Y-102116336D01*
X173715140Y-102117212D01*
X173742369Y-102114612D01*
X173750982Y-102116592D01*
X173877525Y-102150500D01*
X173877528Y-102150500D01*
X174022472Y-102150500D01*
X174022475Y-102150500D01*
X174162485Y-102112984D01*
X174288015Y-102040509D01*
X174390509Y-101938015D01*
X174462984Y-101812485D01*
X174472451Y-101777155D01*
X192575000Y-101777155D01*
X192575000Y-102000000D01*
X193250000Y-102000000D01*
X193250000Y-101325000D01*
X193027155Y-101325000D01*
X192967627Y-101331401D01*
X192967620Y-101331403D01*
X192832913Y-101381645D01*
X192832906Y-101381649D01*
X192717812Y-101467809D01*
X192717809Y-101467812D01*
X192631649Y-101582906D01*
X192631645Y-101582913D01*
X192581403Y-101717620D01*
X192581401Y-101717627D01*
X192575000Y-101777155D01*
X174472451Y-101777155D01*
X174500500Y-101672475D01*
X174500500Y-101527525D01*
X174462984Y-101387515D01*
X174459597Y-101381649D01*
X174390511Y-101261988D01*
X174390506Y-101261982D01*
X174288017Y-101159493D01*
X174288011Y-101159488D01*
X174162488Y-101087017D01*
X174162489Y-101087017D01*
X174137809Y-101080404D01*
X174022475Y-101049500D01*
X173877525Y-101049500D01*
X173762191Y-101080404D01*
X173737511Y-101087017D01*
X173611988Y-101159488D01*
X173611982Y-101159493D01*
X173509493Y-101261982D01*
X173509488Y-101261988D01*
X173437017Y-101387511D01*
X173437016Y-101387515D01*
X173399500Y-101527525D01*
X173399500Y-101672475D01*
X173437016Y-101812485D01*
X173488483Y-101901629D01*
X173504956Y-101969527D01*
X173482104Y-102035554D01*
X173427183Y-102078745D01*
X173357630Y-102085387D01*
X173349003Y-102083403D01*
X173268589Y-102061856D01*
X173222475Y-102049500D01*
X173077525Y-102049500D01*
X172950999Y-102083403D01*
X172937511Y-102087017D01*
X172811988Y-102159488D01*
X172811982Y-102159493D01*
X172709493Y-102261982D01*
X172709488Y-102261988D01*
X172637017Y-102387511D01*
X172637016Y-102387515D01*
X172599500Y-102527525D01*
X163240500Y-102527525D01*
X163240500Y-102517525D01*
X163202984Y-102377515D01*
X163136284Y-102261988D01*
X163130511Y-102251988D01*
X163130506Y-102251982D01*
X163028017Y-102149493D01*
X163028011Y-102149488D01*
X162902488Y-102077017D01*
X162902489Y-102077017D01*
X162891006Y-102073940D01*
X162762475Y-102039500D01*
X162617525Y-102039500D01*
X162488993Y-102073940D01*
X162477511Y-102077017D01*
X162351988Y-102149488D01*
X162351982Y-102149493D01*
X162249493Y-102251982D01*
X162249488Y-102251988D01*
X162177017Y-102377511D01*
X162177016Y-102377515D01*
X162139500Y-102517525D01*
X150000500Y-102517525D01*
X150000500Y-100847525D01*
X153519500Y-100847525D01*
X153519500Y-100992475D01*
X153557016Y-101132485D01*
X153557017Y-101132488D01*
X153629488Y-101258011D01*
X153629490Y-101258013D01*
X153629491Y-101258015D01*
X153731985Y-101360509D01*
X153731986Y-101360510D01*
X153731988Y-101360511D01*
X153857511Y-101432982D01*
X153857512Y-101432982D01*
X153857515Y-101432984D01*
X153997525Y-101470500D01*
X153997528Y-101470500D01*
X154142472Y-101470500D01*
X154142475Y-101470500D01*
X154282485Y-101432984D01*
X154408015Y-101360509D01*
X154510509Y-101258015D01*
X154582984Y-101132485D01*
X154620500Y-100992475D01*
X154620500Y-100847525D01*
X154582984Y-100707515D01*
X154577210Y-100697515D01*
X154510511Y-100581988D01*
X154510506Y-100581982D01*
X154408017Y-100479493D01*
X154408011Y-100479488D01*
X154318009Y-100427525D01*
X158949500Y-100427525D01*
X158949500Y-100572475D01*
X158986985Y-100712370D01*
X158987017Y-100712488D01*
X159059488Y-100838011D01*
X159059490Y-100838013D01*
X159059491Y-100838015D01*
X159161985Y-100940509D01*
X159161986Y-100940510D01*
X159161988Y-100940511D01*
X159287511Y-101012982D01*
X159287512Y-101012982D01*
X159287515Y-101012984D01*
X159427525Y-101050500D01*
X159427528Y-101050500D01*
X159572472Y-101050500D01*
X159572475Y-101050500D01*
X159712485Y-101012984D01*
X159838015Y-100940509D01*
X159940509Y-100838015D01*
X159940792Y-100837525D01*
X162149500Y-100837525D01*
X162149500Y-100982475D01*
X162187016Y-101122485D01*
X162187017Y-101122488D01*
X162259488Y-101248011D01*
X162259490Y-101248013D01*
X162259491Y-101248015D01*
X162361985Y-101350509D01*
X162361986Y-101350510D01*
X162361988Y-101350511D01*
X162487511Y-101422982D01*
X162487512Y-101422982D01*
X162487515Y-101422984D01*
X162627525Y-101460500D01*
X162627528Y-101460500D01*
X162772472Y-101460500D01*
X162772475Y-101460500D01*
X162912485Y-101422984D01*
X163038015Y-101350509D01*
X163140509Y-101248015D01*
X163212984Y-101122485D01*
X163224260Y-101080404D01*
X167843521Y-101080404D01*
X167843521Y-101225354D01*
X167879736Y-101360509D01*
X167881038Y-101365367D01*
X167953509Y-101490890D01*
X167953511Y-101490892D01*
X167953512Y-101490894D01*
X168056006Y-101593388D01*
X168056007Y-101593389D01*
X168056009Y-101593390D01*
X168181532Y-101665861D01*
X168181533Y-101665861D01*
X168181536Y-101665863D01*
X168321546Y-101703379D01*
X168321549Y-101703379D01*
X168466493Y-101703379D01*
X168466496Y-101703379D01*
X168606506Y-101665863D01*
X168732036Y-101593388D01*
X168834530Y-101490894D01*
X168907005Y-101365364D01*
X168944521Y-101225354D01*
X168944521Y-101080404D01*
X168907005Y-100940394D01*
X168847897Y-100838017D01*
X168834532Y-100814867D01*
X168834527Y-100814861D01*
X168732038Y-100712372D01*
X168732032Y-100712367D01*
X168606509Y-100639896D01*
X168606510Y-100639896D01*
X168595027Y-100636819D01*
X168466496Y-100602379D01*
X168321546Y-100602379D01*
X168193014Y-100636819D01*
X168181532Y-100639896D01*
X168056009Y-100712367D01*
X168056003Y-100712372D01*
X167953514Y-100814861D01*
X167953509Y-100814867D01*
X167881038Y-100940390D01*
X167881037Y-100940394D01*
X167843521Y-101080404D01*
X163224260Y-101080404D01*
X163250500Y-100982475D01*
X163250500Y-100837525D01*
X163212984Y-100697515D01*
X163183917Y-100647170D01*
X163140511Y-100571988D01*
X163140506Y-100571982D01*
X163038017Y-100469493D01*
X163038011Y-100469488D01*
X162912488Y-100397017D01*
X162912489Y-100397017D01*
X162901006Y-100393940D01*
X162772475Y-100359500D01*
X162627525Y-100359500D01*
X162498993Y-100393940D01*
X162487511Y-100397017D01*
X162361988Y-100469488D01*
X162361982Y-100469493D01*
X162259493Y-100571982D01*
X162259488Y-100571988D01*
X162187017Y-100697511D01*
X162187016Y-100697515D01*
X162149500Y-100837525D01*
X159940792Y-100837525D01*
X160012984Y-100712485D01*
X160050500Y-100572475D01*
X160050500Y-100427525D01*
X160012984Y-100287515D01*
X160008145Y-100279134D01*
X159955563Y-100188059D01*
X159955562Y-100188058D01*
X159940509Y-100161985D01*
X159912708Y-100134184D01*
X166880554Y-100134184D01*
X166880554Y-100279134D01*
X166914821Y-100407017D01*
X166918071Y-100419147D01*
X166990542Y-100544670D01*
X166990544Y-100544672D01*
X166990545Y-100544674D01*
X167093039Y-100647168D01*
X167093040Y-100647169D01*
X167093042Y-100647170D01*
X167218565Y-100719641D01*
X167218566Y-100719641D01*
X167218569Y-100719643D01*
X167358579Y-100757159D01*
X167358582Y-100757159D01*
X167503526Y-100757159D01*
X167503529Y-100757159D01*
X167643539Y-100719643D01*
X167769069Y-100647168D01*
X167871563Y-100544674D01*
X167944038Y-100419144D01*
X167981554Y-100279134D01*
X167981554Y-100134184D01*
X167944038Y-99994174D01*
X167939905Y-99987016D01*
X167871565Y-99868647D01*
X167871560Y-99868641D01*
X167769071Y-99766152D01*
X167769065Y-99766147D01*
X167643542Y-99693676D01*
X167643543Y-99693676D01*
X167632060Y-99690599D01*
X167503529Y-99656159D01*
X167358579Y-99656159D01*
X167230047Y-99690599D01*
X167218565Y-99693676D01*
X167093042Y-99766147D01*
X167093036Y-99766152D01*
X166990547Y-99868641D01*
X166990542Y-99868647D01*
X166918071Y-99994170D01*
X166918070Y-99994174D01*
X166880554Y-100134184D01*
X159912708Y-100134184D01*
X159838015Y-100059491D01*
X159838013Y-100059490D01*
X159838011Y-100059488D01*
X159712488Y-99987017D01*
X159712489Y-99987017D01*
X159701006Y-99983940D01*
X159572475Y-99949500D01*
X159427525Y-99949500D01*
X159298993Y-99983940D01*
X159287511Y-99987017D01*
X159161988Y-100059488D01*
X159161982Y-100059493D01*
X159059493Y-100161982D01*
X159059488Y-100161988D01*
X158987017Y-100287511D01*
X158987016Y-100287515D01*
X158949500Y-100427525D01*
X154318009Y-100427525D01*
X154282488Y-100407017D01*
X154282489Y-100407017D01*
X154271006Y-100403940D01*
X154142475Y-100369500D01*
X153997525Y-100369500D01*
X153868993Y-100403940D01*
X153857511Y-100407017D01*
X153731988Y-100479488D01*
X153731982Y-100479493D01*
X153629493Y-100581982D01*
X153629488Y-100581988D01*
X153557017Y-100707511D01*
X153557016Y-100707515D01*
X153519500Y-100847525D01*
X150000500Y-100847525D01*
X150000500Y-100218411D01*
X150020185Y-100151372D01*
X150072989Y-100105617D01*
X150142147Y-100095673D01*
X150205703Y-100124698D01*
X150234985Y-100162116D01*
X150266006Y-100222997D01*
X150372441Y-100369494D01*
X150372445Y-100369499D01*
X150500500Y-100497554D01*
X150500505Y-100497558D01*
X150603617Y-100572472D01*
X150647006Y-100603996D01*
X150752484Y-100657740D01*
X150808360Y-100686211D01*
X150808363Y-100686212D01*
X150873929Y-100707515D01*
X150980591Y-100742171D01*
X151063429Y-100755291D01*
X151159449Y-100770500D01*
X151159454Y-100770500D01*
X151340551Y-100770500D01*
X151427259Y-100756765D01*
X151519409Y-100742171D01*
X151568977Y-100726065D01*
X151583131Y-100721467D01*
X151583131Y-100721466D01*
X151691639Y-100686211D01*
X151852994Y-100603996D01*
X151999501Y-100497553D01*
X152127553Y-100369501D01*
X152233996Y-100222994D01*
X152316211Y-100061639D01*
X152372171Y-99889409D01*
X152391693Y-99766152D01*
X152400500Y-99710551D01*
X152400500Y-99529448D01*
X152384019Y-99425397D01*
X152372171Y-99350591D01*
X152316211Y-99178361D01*
X152316209Y-99178355D01*
X152258804Y-99065694D01*
X152258803Y-99065693D01*
X152251062Y-99050500D01*
X152234260Y-99017525D01*
X162139500Y-99017525D01*
X162139500Y-99162475D01*
X162177016Y-99302485D01*
X162177017Y-99302488D01*
X162249488Y-99428011D01*
X162249490Y-99428013D01*
X162249491Y-99428015D01*
X162351985Y-99530509D01*
X162351986Y-99530510D01*
X162351988Y-99530511D01*
X162477511Y-99602982D01*
X162477512Y-99602982D01*
X162477515Y-99602984D01*
X162617525Y-99640500D01*
X162617528Y-99640500D01*
X162762472Y-99640500D01*
X162762475Y-99640500D01*
X162902485Y-99602984D01*
X163028015Y-99530509D01*
X163130509Y-99428015D01*
X163202984Y-99302485D01*
X163240500Y-99162475D01*
X163240500Y-99017525D01*
X163202984Y-98877515D01*
X163198933Y-98870499D01*
X163130511Y-98751988D01*
X163130506Y-98751982D01*
X163028017Y-98649493D01*
X163028011Y-98649488D01*
X162902488Y-98577017D01*
X162902489Y-98577017D01*
X162885527Y-98572472D01*
X162762475Y-98539500D01*
X162617525Y-98539500D01*
X162494473Y-98572472D01*
X162477511Y-98577017D01*
X162351988Y-98649488D01*
X162351982Y-98649493D01*
X162249493Y-98751982D01*
X162249488Y-98751988D01*
X162177017Y-98877511D01*
X162177016Y-98877515D01*
X162139500Y-99017525D01*
X152234260Y-99017525D01*
X152233996Y-99017006D01*
X152233994Y-99017003D01*
X152233993Y-99017001D01*
X152127558Y-98870505D01*
X152127554Y-98870500D01*
X151999499Y-98742445D01*
X151999494Y-98742441D01*
X151852997Y-98636006D01*
X151852996Y-98636005D01*
X151852994Y-98636004D01*
X151801300Y-98609664D01*
X151691639Y-98553788D01*
X151691636Y-98553787D01*
X151519410Y-98497829D01*
X151481793Y-98491871D01*
X151359321Y-98472473D01*
X151296186Y-98442544D01*
X151259255Y-98383232D01*
X151259337Y-98377525D01*
X167549500Y-98377525D01*
X167549500Y-98522475D01*
X167583534Y-98649491D01*
X167587017Y-98662488D01*
X167659488Y-98788011D01*
X167659490Y-98788013D01*
X167659491Y-98788015D01*
X167761985Y-98890509D01*
X167761986Y-98890510D01*
X167761988Y-98890511D01*
X167887511Y-98962982D01*
X167887512Y-98962982D01*
X167887515Y-98962984D01*
X168027525Y-99000500D01*
X168027528Y-99000500D01*
X168172472Y-99000500D01*
X168172475Y-99000500D01*
X168312485Y-98962984D01*
X168438015Y-98890509D01*
X168540509Y-98788015D01*
X168612984Y-98662485D01*
X168650500Y-98522475D01*
X168650500Y-98522471D01*
X168651561Y-98514415D01*
X168653390Y-98514655D01*
X168670185Y-98457461D01*
X168704733Y-98427525D01*
X179949500Y-98427525D01*
X179949500Y-98572475D01*
X179987016Y-98712485D01*
X179987017Y-98712488D01*
X180059488Y-98838011D01*
X180059490Y-98838013D01*
X180059491Y-98838015D01*
X180161985Y-98940509D01*
X180161986Y-98940510D01*
X180161988Y-98940511D01*
X180287511Y-99012982D01*
X180287512Y-99012982D01*
X180287515Y-99012984D01*
X180427525Y-99050500D01*
X180427528Y-99050500D01*
X180572472Y-99050500D01*
X180572475Y-99050500D01*
X180712485Y-99012984D01*
X180838015Y-98940509D01*
X180940509Y-98838015D01*
X181012984Y-98712485D01*
X181050500Y-98572475D01*
X181050500Y-98427525D01*
X181012984Y-98287515D01*
X180995629Y-98257456D01*
X180940511Y-98161988D01*
X180940506Y-98161982D01*
X180838017Y-98059493D01*
X180838011Y-98059488D01*
X180712488Y-97987017D01*
X180712489Y-97987017D01*
X180701006Y-97983940D01*
X180572475Y-97949500D01*
X180427525Y-97949500D01*
X180298993Y-97983940D01*
X180287511Y-97987017D01*
X180161988Y-98059488D01*
X180161982Y-98059493D01*
X180059493Y-98161982D01*
X180059488Y-98161988D01*
X179987017Y-98287511D01*
X179986214Y-98290508D01*
X179949500Y-98427525D01*
X168704733Y-98427525D01*
X168722989Y-98411706D01*
X168774500Y-98400500D01*
X168922472Y-98400500D01*
X168922475Y-98400500D01*
X169062485Y-98362984D01*
X169188015Y-98290509D01*
X169290509Y-98188015D01*
X169362984Y-98062485D01*
X169400500Y-97922475D01*
X169400500Y-97777525D01*
X169362984Y-97637515D01*
X169299481Y-97527525D01*
X197399500Y-97527525D01*
X197399500Y-97672475D01*
X197429744Y-97785344D01*
X197437017Y-97812488D01*
X197509488Y-97938011D01*
X197509490Y-97938013D01*
X197509491Y-97938015D01*
X197611985Y-98040509D01*
X197611986Y-98040510D01*
X197611988Y-98040511D01*
X197737511Y-98112982D01*
X197737512Y-98112982D01*
X197737515Y-98112984D01*
X197877525Y-98150500D01*
X197877528Y-98150500D01*
X198022472Y-98150500D01*
X198022475Y-98150500D01*
X198162485Y-98112984D01*
X198288015Y-98040509D01*
X198390509Y-97938015D01*
X198462984Y-97812485D01*
X198500500Y-97672475D01*
X198500500Y-97527525D01*
X198462984Y-97387515D01*
X198440983Y-97349409D01*
X198390511Y-97261988D01*
X198390506Y-97261982D01*
X198288017Y-97159493D01*
X198288011Y-97159488D01*
X198162488Y-97087017D01*
X198162489Y-97087017D01*
X198151006Y-97083940D01*
X198022475Y-97049500D01*
X197877525Y-97049500D01*
X197748993Y-97083940D01*
X197737511Y-97087017D01*
X197611988Y-97159488D01*
X197611982Y-97159493D01*
X197509493Y-97261982D01*
X197509488Y-97261988D01*
X197437017Y-97387511D01*
X197437016Y-97387515D01*
X197399500Y-97527525D01*
X169299481Y-97527525D01*
X169290509Y-97511985D01*
X169188015Y-97409491D01*
X169188013Y-97409490D01*
X169188011Y-97409488D01*
X169062488Y-97337017D01*
X169062489Y-97337017D01*
X169051006Y-97333940D01*
X168922475Y-97299500D01*
X168777525Y-97299500D01*
X168648993Y-97333940D01*
X168637511Y-97337017D01*
X168511988Y-97409488D01*
X168511982Y-97409493D01*
X168409493Y-97511982D01*
X168409488Y-97511988D01*
X168337017Y-97637511D01*
X168299499Y-97777528D01*
X168298439Y-97785585D01*
X168296609Y-97785344D01*
X168279815Y-97842539D01*
X168227011Y-97888294D01*
X168175500Y-97899500D01*
X168172475Y-97899500D01*
X168027525Y-97899500D01*
X167898993Y-97933940D01*
X167887511Y-97937017D01*
X167761988Y-98009488D01*
X167761982Y-98009493D01*
X167659493Y-98111982D01*
X167659488Y-98111988D01*
X167587017Y-98237511D01*
X167587016Y-98237515D01*
X167549500Y-98377525D01*
X151259337Y-98377525D01*
X151260253Y-98313369D01*
X151298863Y-98255137D01*
X151359321Y-98227527D01*
X151429425Y-98216422D01*
X151519409Y-98202171D01*
X151691639Y-98146211D01*
X151852994Y-98063996D01*
X151999501Y-97957553D01*
X152127553Y-97829501D01*
X152233996Y-97682994D01*
X152316211Y-97521639D01*
X152372171Y-97349409D01*
X152386765Y-97257259D01*
X152400500Y-97170551D01*
X152400500Y-96989448D01*
X152384019Y-96885397D01*
X152372171Y-96810591D01*
X152316211Y-96638361D01*
X152316211Y-96638360D01*
X152265015Y-96537884D01*
X152233996Y-96477006D01*
X152220396Y-96458287D01*
X152127558Y-96330505D01*
X152127554Y-96330500D01*
X151999499Y-96202445D01*
X151999494Y-96202441D01*
X151852997Y-96096006D01*
X151852996Y-96096005D01*
X151852994Y-96096004D01*
X151801300Y-96069664D01*
X151691639Y-96013788D01*
X151691636Y-96013787D01*
X151519410Y-95957829D01*
X151359321Y-95932473D01*
X151296186Y-95902544D01*
X151259255Y-95843232D01*
X151260253Y-95773370D01*
X151298863Y-95715137D01*
X151359321Y-95687527D01*
X151429425Y-95676422D01*
X151519409Y-95662171D01*
X151691639Y-95606211D01*
X151852994Y-95523996D01*
X151999501Y-95417553D01*
X152127553Y-95289501D01*
X152172581Y-95227525D01*
X187099500Y-95227525D01*
X187099500Y-95372475D01*
X187137016Y-95512485D01*
X187137017Y-95512488D01*
X187209488Y-95638011D01*
X187209490Y-95638013D01*
X187209491Y-95638015D01*
X187311985Y-95740509D01*
X187311986Y-95740510D01*
X187311988Y-95740511D01*
X187437511Y-95812982D01*
X187437512Y-95812982D01*
X187437515Y-95812984D01*
X187577525Y-95850500D01*
X187577528Y-95850500D01*
X187722472Y-95850500D01*
X187722475Y-95850500D01*
X187862485Y-95812984D01*
X187988015Y-95740509D01*
X188090509Y-95638015D01*
X188162984Y-95512485D01*
X188200500Y-95372475D01*
X188200500Y-95227525D01*
X188162984Y-95087515D01*
X188126723Y-95024710D01*
X188090511Y-94961988D01*
X188090506Y-94961982D01*
X187988017Y-94859493D01*
X187988011Y-94859488D01*
X187862488Y-94787017D01*
X187862489Y-94787017D01*
X187851006Y-94783940D01*
X187722475Y-94749500D01*
X187577525Y-94749500D01*
X187448993Y-94783940D01*
X187437511Y-94787017D01*
X187311988Y-94859488D01*
X187311982Y-94859493D01*
X187209493Y-94961982D01*
X187209488Y-94961988D01*
X187137017Y-95087511D01*
X187137016Y-95087515D01*
X187099500Y-95227525D01*
X152172581Y-95227525D01*
X152231440Y-95146513D01*
X152232605Y-95144907D01*
X152233996Y-95142994D01*
X152316211Y-94981639D01*
X152372171Y-94809409D01*
X152386765Y-94717259D01*
X152400500Y-94630551D01*
X152400500Y-94449448D01*
X152384558Y-94348796D01*
X152382773Y-94337525D01*
X180829500Y-94337525D01*
X180829500Y-94482475D01*
X180867016Y-94622485D01*
X180867017Y-94622488D01*
X180939488Y-94748011D01*
X180939490Y-94748013D01*
X180939491Y-94748015D01*
X181041985Y-94850509D01*
X181041986Y-94850510D01*
X181041988Y-94850511D01*
X181167511Y-94922982D01*
X181167512Y-94922982D01*
X181167515Y-94922984D01*
X181307525Y-94960500D01*
X181307528Y-94960500D01*
X181452472Y-94960500D01*
X181452475Y-94960500D01*
X181592485Y-94922984D01*
X181718015Y-94850509D01*
X181820509Y-94748015D01*
X181892984Y-94622485D01*
X181930500Y-94482475D01*
X181930500Y-94337525D01*
X181892984Y-94197515D01*
X181835738Y-94098363D01*
X181820511Y-94071988D01*
X181820506Y-94071982D01*
X181718017Y-93969493D01*
X181718011Y-93969488D01*
X181592488Y-93897017D01*
X181592489Y-93897017D01*
X181581006Y-93893940D01*
X181452475Y-93859500D01*
X181307525Y-93859500D01*
X181178993Y-93893940D01*
X181167511Y-93897017D01*
X181041988Y-93969488D01*
X181041982Y-93969493D01*
X180939493Y-94071982D01*
X180939488Y-94071988D01*
X180867017Y-94197511D01*
X180867016Y-94197515D01*
X180829500Y-94337525D01*
X152382773Y-94337525D01*
X152372171Y-94270589D01*
X152316212Y-94098363D01*
X152316211Y-94098360D01*
X152265015Y-93997884D01*
X152233996Y-93937006D01*
X152220396Y-93918287D01*
X152127558Y-93790505D01*
X152127554Y-93790500D01*
X151999495Y-93662441D01*
X151878202Y-93574318D01*
X151835536Y-93518989D01*
X151829557Y-93449375D01*
X151862162Y-93387580D01*
X151923001Y-93353223D01*
X151951087Y-93350000D01*
X152147828Y-93350000D01*
X152147844Y-93349999D01*
X152207372Y-93343598D01*
X152207379Y-93343596D01*
X152342086Y-93293354D01*
X152342093Y-93293350D01*
X152457187Y-93207190D01*
X152457190Y-93207187D01*
X152531798Y-93107525D01*
X174799500Y-93107525D01*
X174799500Y-93252475D01*
X174812353Y-93300442D01*
X174837017Y-93392488D01*
X174909488Y-93518011D01*
X174909490Y-93518013D01*
X174909491Y-93518015D01*
X175011985Y-93620509D01*
X175011986Y-93620510D01*
X175011988Y-93620511D01*
X175137511Y-93692982D01*
X175137512Y-93692982D01*
X175137515Y-93692984D01*
X175277525Y-93730500D01*
X175277528Y-93730500D01*
X175422472Y-93730500D01*
X175422475Y-93730500D01*
X175562485Y-93692984D01*
X175688015Y-93620509D01*
X175790509Y-93518015D01*
X175862984Y-93392485D01*
X175900500Y-93252475D01*
X175900500Y-93107525D01*
X175862984Y-92967515D01*
X175822759Y-92897844D01*
X175790511Y-92841988D01*
X175790506Y-92841982D01*
X175688017Y-92739493D01*
X175688011Y-92739488D01*
X175562488Y-92667017D01*
X175562489Y-92667017D01*
X175551006Y-92663940D01*
X175422475Y-92629500D01*
X175277525Y-92629500D01*
X175148993Y-92663940D01*
X175137511Y-92667017D01*
X175011988Y-92739488D01*
X175011982Y-92739493D01*
X174909493Y-92841982D01*
X174909488Y-92841988D01*
X174837017Y-92967511D01*
X174837016Y-92967515D01*
X174799500Y-93107525D01*
X152531798Y-93107525D01*
X152543350Y-93092093D01*
X152543353Y-93092087D01*
X152556790Y-93056064D01*
X152556790Y-93056063D01*
X152593596Y-92957380D01*
X152593598Y-92957372D01*
X152599999Y-92897844D01*
X152600000Y-92897827D01*
X152600000Y-92250000D01*
X151494975Y-92250000D01*
X151530070Y-92214905D01*
X151576148Y-92135095D01*
X151600000Y-92046078D01*
X151600000Y-91953922D01*
X151576148Y-91864905D01*
X151530070Y-91785095D01*
X151494975Y-91750000D01*
X151500000Y-91750000D01*
X152600000Y-91750000D01*
X152600000Y-91102172D01*
X152599999Y-91102155D01*
X152593598Y-91042627D01*
X152593596Y-91042620D01*
X152543354Y-90907913D01*
X152543350Y-90907906D01*
X152457190Y-90792812D01*
X152457187Y-90792809D01*
X152342093Y-90706649D01*
X152342086Y-90706645D01*
X152207379Y-90656403D01*
X152207372Y-90656401D01*
X152147844Y-90650000D01*
X151500000Y-90650000D01*
X151500000Y-91750000D01*
X151494975Y-91750000D01*
X151464905Y-91719930D01*
X151385095Y-91673852D01*
X151296078Y-91650000D01*
X151203922Y-91650000D01*
X151114905Y-91673852D01*
X151035095Y-91719930D01*
X151000000Y-91755025D01*
X151000000Y-90650000D01*
X150352155Y-90650000D01*
X150292627Y-90656401D01*
X150292617Y-90656403D01*
X150167832Y-90702945D01*
X150098141Y-90707929D01*
X150036818Y-90674443D01*
X150003334Y-90613120D01*
X150000500Y-90586763D01*
X150000500Y-89578681D01*
X156199500Y-89578681D01*
X156199500Y-89921318D01*
X156237858Y-90261768D01*
X156237861Y-90261782D01*
X156314102Y-90595816D01*
X156314103Y-90595818D01*
X156427264Y-90919216D01*
X156575922Y-91227907D01*
X156575924Y-91227910D01*
X156758211Y-91518018D01*
X156863463Y-91650000D01*
X156971197Y-91785095D01*
X156971834Y-91785893D01*
X157214107Y-92028166D01*
X157481982Y-92241789D01*
X157772090Y-92424076D01*
X158080785Y-92572736D01*
X158404183Y-92685897D01*
X158738217Y-92762139D01*
X158738226Y-92762140D01*
X158738231Y-92762141D01*
X158965197Y-92787713D01*
X159078682Y-92800499D01*
X159078685Y-92800500D01*
X159078688Y-92800500D01*
X159421315Y-92800500D01*
X159421316Y-92800499D01*
X159595311Y-92780895D01*
X159761768Y-92762141D01*
X159761771Y-92762140D01*
X159761783Y-92762139D01*
X160095817Y-92685897D01*
X160419215Y-92572736D01*
X160727910Y-92424076D01*
X161018018Y-92241789D01*
X161098603Y-92177525D01*
X172949500Y-92177525D01*
X172949500Y-92322475D01*
X172987016Y-92462485D01*
X172987017Y-92462488D01*
X173059488Y-92588011D01*
X173059490Y-92588013D01*
X173059491Y-92588015D01*
X173161985Y-92690509D01*
X173161986Y-92690510D01*
X173161988Y-92690511D01*
X173287511Y-92762982D01*
X173287512Y-92762982D01*
X173287515Y-92762984D01*
X173427525Y-92800500D01*
X173427528Y-92800500D01*
X173572472Y-92800500D01*
X173572475Y-92800500D01*
X173712485Y-92762984D01*
X173838015Y-92690509D01*
X173940509Y-92588015D01*
X174012984Y-92462485D01*
X174050500Y-92322475D01*
X174050500Y-92177525D01*
X174012984Y-92037515D01*
X174007586Y-92028166D01*
X173940511Y-91911988D01*
X173940506Y-91911982D01*
X173838017Y-91809493D01*
X173838011Y-91809488D01*
X173712488Y-91737017D01*
X173712489Y-91737017D01*
X173701006Y-91733940D01*
X173572475Y-91699500D01*
X173427525Y-91699500D01*
X173298993Y-91733940D01*
X173287511Y-91737017D01*
X173161988Y-91809488D01*
X173161982Y-91809493D01*
X173059493Y-91911982D01*
X173059488Y-91911988D01*
X172987017Y-92037511D01*
X172982583Y-92054055D01*
X172949500Y-92177525D01*
X161098603Y-92177525D01*
X161230363Y-92072450D01*
X161285886Y-92028172D01*
X161285888Y-92028169D01*
X161285893Y-92028166D01*
X161528166Y-91785893D01*
X161741789Y-91518018D01*
X161924076Y-91227910D01*
X162072736Y-90919215D01*
X162185897Y-90595817D01*
X162262139Y-90261783D01*
X162300500Y-89921312D01*
X162300500Y-89578688D01*
X162300499Y-89578681D01*
X186699500Y-89578681D01*
X186699500Y-89921318D01*
X186737858Y-90261768D01*
X186737861Y-90261782D01*
X186814102Y-90595816D01*
X186814103Y-90595818D01*
X186927264Y-90919216D01*
X187075922Y-91227907D01*
X187075924Y-91227910D01*
X187258211Y-91518018D01*
X187363463Y-91650000D01*
X187471197Y-91785095D01*
X187471834Y-91785893D01*
X187714107Y-92028166D01*
X187981982Y-92241789D01*
X188272090Y-92424076D01*
X188580785Y-92572736D01*
X188904183Y-92685897D01*
X189238217Y-92762139D01*
X189238226Y-92762140D01*
X189238231Y-92762141D01*
X189465197Y-92787713D01*
X189578682Y-92800499D01*
X189578685Y-92800500D01*
X189578688Y-92800500D01*
X189921315Y-92800500D01*
X189921316Y-92800499D01*
X190095311Y-92780895D01*
X190261768Y-92762141D01*
X190261771Y-92762140D01*
X190261783Y-92762139D01*
X190595817Y-92685897D01*
X190919215Y-92572736D01*
X191227910Y-92424076D01*
X191518018Y-92241789D01*
X191785893Y-92028166D01*
X192028166Y-91785893D01*
X192241789Y-91518018D01*
X192424076Y-91227910D01*
X192572736Y-90919215D01*
X192685897Y-90595817D01*
X192762139Y-90261783D01*
X192800500Y-89921312D01*
X192800500Y-89578688D01*
X192762139Y-89238217D01*
X192685897Y-88904183D01*
X192572736Y-88580785D01*
X192424076Y-88272090D01*
X192241789Y-87981982D01*
X192028166Y-87714107D01*
X191785893Y-87471834D01*
X191518018Y-87258211D01*
X191227910Y-87075924D01*
X191227907Y-87075922D01*
X190919216Y-86927264D01*
X190595818Y-86814103D01*
X190595816Y-86814102D01*
X190338024Y-86755262D01*
X190261783Y-86737861D01*
X190261780Y-86737860D01*
X190261768Y-86737858D01*
X189921318Y-86699500D01*
X189921312Y-86699500D01*
X189578688Y-86699500D01*
X189578681Y-86699500D01*
X189238231Y-86737858D01*
X189238217Y-86737861D01*
X188904183Y-86814102D01*
X188904181Y-86814103D01*
X188580783Y-86927264D01*
X188272092Y-87075922D01*
X187981983Y-87258210D01*
X187714107Y-87471833D01*
X187471833Y-87714107D01*
X187258210Y-87981983D01*
X187075922Y-88272092D01*
X186927264Y-88580783D01*
X186814103Y-88904181D01*
X186814102Y-88904183D01*
X186737861Y-89238217D01*
X186737858Y-89238231D01*
X186699500Y-89578681D01*
X162300499Y-89578681D01*
X162262139Y-89238217D01*
X162185897Y-88904183D01*
X162072736Y-88580785D01*
X161924076Y-88272090D01*
X161741789Y-87981982D01*
X161658487Y-87877525D01*
X166949500Y-87877525D01*
X166949500Y-88022475D01*
X166987016Y-88162485D01*
X166987017Y-88162488D01*
X167059488Y-88288011D01*
X167059490Y-88288013D01*
X167059491Y-88288015D01*
X167161985Y-88390509D01*
X167161986Y-88390510D01*
X167161988Y-88390511D01*
X167287511Y-88462982D01*
X167287512Y-88462982D01*
X167287515Y-88462984D01*
X167427525Y-88500500D01*
X167427528Y-88500500D01*
X167572472Y-88500500D01*
X167572475Y-88500500D01*
X167712485Y-88462984D01*
X167838015Y-88390509D01*
X167940509Y-88288015D01*
X168012984Y-88162485D01*
X168050500Y-88022475D01*
X168050500Y-87877525D01*
X168012984Y-87737515D01*
X167999469Y-87714107D01*
X167940511Y-87611988D01*
X167940506Y-87611982D01*
X167838017Y-87509493D01*
X167838011Y-87509488D01*
X167712488Y-87437017D01*
X167712489Y-87437017D01*
X167701006Y-87433940D01*
X167572475Y-87399500D01*
X167427525Y-87399500D01*
X167298993Y-87433940D01*
X167287511Y-87437017D01*
X167161988Y-87509488D01*
X167161982Y-87509493D01*
X167059493Y-87611982D01*
X167059488Y-87611988D01*
X166987017Y-87737511D01*
X166987016Y-87737515D01*
X166949500Y-87877525D01*
X161658487Y-87877525D01*
X161528166Y-87714107D01*
X161285893Y-87471834D01*
X161018018Y-87258211D01*
X160727910Y-87075924D01*
X160727907Y-87075922D01*
X160419216Y-86927264D01*
X160095818Y-86814103D01*
X160095816Y-86814102D01*
X159991483Y-86790289D01*
X159897445Y-86768825D01*
X159761783Y-86737861D01*
X159761780Y-86737860D01*
X159761768Y-86737858D01*
X159421318Y-86699500D01*
X159421312Y-86699500D01*
X159078688Y-86699500D01*
X159078681Y-86699500D01*
X158738231Y-86737858D01*
X158738217Y-86737861D01*
X158404183Y-86814102D01*
X158404181Y-86814103D01*
X158080783Y-86927264D01*
X157772092Y-87075922D01*
X157481983Y-87258210D01*
X157214107Y-87471833D01*
X156971833Y-87714107D01*
X156758210Y-87981983D01*
X156575922Y-88272092D01*
X156427264Y-88580783D01*
X156314103Y-88904181D01*
X156314102Y-88904183D01*
X156237861Y-89238217D01*
X156237858Y-89238231D01*
X156199500Y-89578681D01*
X150000500Y-89578681D01*
X150000500Y-86677525D01*
X176449500Y-86677525D01*
X176449500Y-86822475D01*
X176487016Y-86962485D01*
X176487017Y-86962488D01*
X176559488Y-87088011D01*
X176559490Y-87088013D01*
X176559491Y-87088015D01*
X176661985Y-87190509D01*
X176661986Y-87190510D01*
X176661988Y-87190511D01*
X176787511Y-87262982D01*
X176787512Y-87262982D01*
X176787515Y-87262984D01*
X176927525Y-87300500D01*
X176927528Y-87300500D01*
X177072472Y-87300500D01*
X177072475Y-87300500D01*
X177212485Y-87262984D01*
X177338015Y-87190509D01*
X177440509Y-87088015D01*
X177512984Y-86962485D01*
X177550500Y-86822475D01*
X177550500Y-86677525D01*
X177512984Y-86537515D01*
X177440509Y-86411985D01*
X177338015Y-86309491D01*
X177338013Y-86309490D01*
X177338011Y-86309488D01*
X177212488Y-86237017D01*
X177212489Y-86237017D01*
X177201006Y-86233940D01*
X177072475Y-86199500D01*
X176927525Y-86199500D01*
X176798993Y-86233940D01*
X176787511Y-86237017D01*
X176661988Y-86309488D01*
X176661982Y-86309493D01*
X176559493Y-86411982D01*
X176559488Y-86411988D01*
X176487017Y-86537511D01*
X176487016Y-86537515D01*
X176449500Y-86677525D01*
X150000500Y-86677525D01*
X150000500Y-83003750D01*
X150000726Y-82996263D01*
X150018271Y-82706205D01*
X150020076Y-82691340D01*
X150071780Y-82409201D01*
X150075364Y-82394663D01*
X150152096Y-82148422D01*
X150160696Y-82120822D01*
X150165998Y-82106841D01*
X150283731Y-81845249D01*
X150290676Y-81832016D01*
X150439080Y-81586526D01*
X150447567Y-81574230D01*
X150624480Y-81348417D01*
X150634395Y-81337226D01*
X150837226Y-81134395D01*
X150848417Y-81124480D01*
X151074230Y-80947567D01*
X151086526Y-80939080D01*
X151332016Y-80790676D01*
X151345249Y-80783731D01*
X151606841Y-80665998D01*
X151620822Y-80660696D01*
X151894668Y-80575362D01*
X151909197Y-80571780D01*
X152191344Y-80520075D01*
X152206201Y-80518271D01*
X152496264Y-80500726D01*
X152503751Y-80500500D01*
X152565892Y-80500500D01*
X196434108Y-80500500D01*
X196496249Y-80500500D01*
X196503736Y-80500726D01*
G37*
%TD.AperFunction*%
%TD*%
M02*
