%TF.GenerationSoftware,KiCad,Pcbnew,9.0.7-9.0.7~ubuntu24.04.1*%
%TF.CreationDate,2026-06-16T01:14:12+02:00*%
%TF.ProjectId,flight_controller,666c6967-6874-45f6-936f-6e74726f6c6c,rev?*%
%TF.SameCoordinates,Original*%
%TF.FileFunction,Copper,L4,Inr*%
%TF.FilePolarity,Positive*%
%FSLAX46Y46*%
G04 Gerber Fmt 4.6, Leading zero omitted, Abs format (unit mm)*
G04 Created by KiCad (PCBNEW 9.0.7-9.0.7~ubuntu24.04.1) date 2026-06-16 01:14:12*
%MOMM*%
%LPD*%
G01*
G04 APERTURE LIST*
%TA.AperFunction,ComponentPad*%
%ADD10R,1.700000X1.700000*%
%TD*%
%TA.AperFunction,ComponentPad*%
%ADD11C,1.700000*%
%TD*%
%TA.AperFunction,ComponentPad*%
%ADD12C,5.500000*%
%TD*%
%TA.AperFunction,ComponentPad*%
%ADD13R,0.850000X0.850000*%
%TD*%
%TA.AperFunction,ComponentPad*%
%ADD14C,0.850000*%
%TD*%
%TA.AperFunction,ComponentPad*%
%ADD15O,2.100000X1.000000*%
%TD*%
%TA.AperFunction,ComponentPad*%
%ADD16O,1.800000X1.000000*%
%TD*%
%TA.AperFunction,ViaPad*%
%ADD17C,0.500000*%
%TD*%
G04 APERTURE END LIST*
D10*
%TO.N,GNDREF*%
%TO.C,J5*%
X151250000Y-92000000D03*
D11*
%TO.N,/GPS_TX*%
X151250000Y-94540000D03*
%TO.N,/GPS_RX*%
X151250000Y-97080000D03*
%TO.N,+5V*%
X151250000Y-99620000D03*
%TD*%
D10*
%TO.N,GNDREF*%
%TO.C,J3*%
X160880000Y-128000000D03*
D11*
%TO.N,/VTX_TX*%
X163420000Y-128000000D03*
%TO.N,/VTX_RX*%
X165960000Y-128000000D03*
%TO.N,+9V*%
X168500000Y-128000000D03*
%TD*%
D10*
%TO.N,GNDREF*%
%TO.C,J4*%
X151250000Y-111000000D03*
D11*
%TO.N,/TRANSCEIVER_TX*%
X151250000Y-113540000D03*
%TO.N,/TRANSCEIVER_RX*%
X151250000Y-116080000D03*
%TO.N,+5V*%
X151250000Y-118620000D03*
%TD*%
D12*
%TO.N,*%
%TO.C,REF\u002A\u002A*%
X189750000Y-120250000D03*
%TD*%
%TO.N,*%
%TO.C,REF\u002A\u002A*%
X159250000Y-89750000D03*
%TD*%
%TO.N,*%
%TO.C,REF\u002A\u002A*%
X159250000Y-120250000D03*
%TD*%
D13*
%TO.N,GNDREF*%
%TO.C,J1*%
X193500000Y-102250000D03*
D14*
%TO.N,/JTAG_SWCLK*%
X193500000Y-103250000D03*
%TO.N,/JTAG_SWDIO*%
X193500000Y-104250000D03*
%TD*%
D12*
%TO.N,*%
%TO.C,REF\u002A\u002A*%
X189750000Y-89750000D03*
%TD*%
D15*
%TO.N,GNDREF*%
%TO.C,J6*%
X192482500Y-115820000D03*
X192482500Y-107180000D03*
D16*
X196662500Y-115820000D03*
X196662500Y-107180000D03*
%TD*%
D17*
%TO.N,+3.3V*%
X175350000Y-93180000D03*
X188320000Y-105030000D03*
X177735723Y-110265774D03*
X167431054Y-100206659D03*
X168394021Y-101152879D03*
X170434052Y-111143127D03*
X169113699Y-111137098D03*
%TO.N,+5V*%
X165963603Y-123580050D03*
X165954921Y-124387456D03*
%TO.N,+3.3V*%
X167414596Y-119950036D03*
X168232130Y-117837470D03*
X165974869Y-120543290D03*
X171750000Y-115910000D03*
X173180000Y-116750000D03*
X171760000Y-116760000D03*
%TO.N,VBAT*%
X183120000Y-127420000D03*
X162730000Y-104120000D03*
X162690000Y-99090000D03*
X162690000Y-102590000D03*
X162700000Y-100910000D03*
X181404769Y-127420000D03*
X184520000Y-127430000D03*
X179560000Y-127400000D03*
%TO.N,+5VBAT*%
X161970000Y-105820000D03*
X161931992Y-108600000D03*
%TO.N,+3.3V*%
X170850000Y-106200000D03*
X187650000Y-95300000D03*
X158750000Y-115100000D03*
X183450000Y-112900000D03*
X181380000Y-94410000D03*
X184150000Y-115900000D03*
X167500000Y-87950000D03*
%TO.N,GNDREF*%
X172093722Y-111618610D03*
X184293971Y-111573895D03*
X169603245Y-106089198D03*
X174700645Y-101298486D03*
X198113794Y-127590761D03*
X174322623Y-96829467D03*
X166732784Y-115234557D03*
X174321402Y-110798846D03*
X177892651Y-107550875D03*
X181893655Y-104285596D03*
X174241829Y-91951021D03*
X197224771Y-128529174D03*
X151884217Y-128422887D03*
X154165207Y-109982508D03*
X174884140Y-115386059D03*
X182564068Y-117816730D03*
X150781709Y-82359765D03*
X159150000Y-99860000D03*
X173088446Y-103359149D03*
X197261587Y-81310977D03*
X181750000Y-111100000D03*
X167388364Y-98700528D03*
X198200000Y-82200000D03*
X150945804Y-127533864D03*
X180982462Y-99177736D03*
X180850000Y-104700000D03*
X169247765Y-97215636D03*
X165050000Y-112600000D03*
X175759285Y-114497678D03*
X181685172Y-115285551D03*
X179903619Y-93036362D03*
X151670732Y-81421352D03*
X182844413Y-123989163D03*
X173211596Y-121689636D03*
%TO.N,VBAT*%
X183150000Y-119100000D03*
X177000000Y-86750000D03*
X154310000Y-101380000D03*
%TO.N,/ICM_INT1*%
X184050000Y-110800000D03*
X181950000Y-117400000D03*
%TO.N,+5VBAT*%
X190350000Y-106400000D03*
%TO.N,/BMP_SCLK*%
X174160000Y-115610000D03*
X174150000Y-110000000D03*
%TO.N,/BOOT*%
X173500000Y-92250000D03*
X180500000Y-98500000D03*
%TO.N,/BMP_SDI*%
X177150000Y-107500000D03*
X175250000Y-114000000D03*
%TO.N,+5V*%
X188069416Y-113819701D03*
X186259093Y-107668232D03*
X197950000Y-97600000D03*
%TO.N,Net-(U2-FB)*%
X159500000Y-100500000D03*
X154750000Y-109500000D03*
%TO.N,Net-(U4-FB)*%
X183599998Y-123934715D03*
X173650000Y-122300000D03*
%TO.N,/FLASH_SCLK*%
X165750000Y-112250000D03*
X166750000Y-114500000D03*
%TO.N,/ICM_MISO*%
X181000000Y-115750000D03*
X181750000Y-110250000D03*
%TO.N,/VTX_RX*%
X182450000Y-104950000D03*
%TO.N,/VTX_TX*%
X181446446Y-105096446D03*
%TO.N,/GPS_RX*%
X168100000Y-98450000D03*
X173150000Y-102600000D03*
%TO.N,/GPS_TX*%
X173950000Y-101600000D03*
X168850000Y-97850000D03*
%TD*%
%TA.AperFunction,Conductor*%
%TO.N,VBAT*%
G36*
X196374756Y-80520185D02*
G01*
X196420511Y-80572989D01*
X196430455Y-80642147D01*
X196410819Y-80693390D01*
X196330646Y-80813377D01*
X196251457Y-81004556D01*
X196251455Y-81004564D01*
X196211087Y-81207507D01*
X196211087Y-81414446D01*
X196251455Y-81617389D01*
X196251457Y-81617397D01*
X196330645Y-81808573D01*
X196445611Y-81980634D01*
X196591929Y-82126952D01*
X196591932Y-82126954D01*
X196763989Y-82241918D01*
X196955167Y-82321107D01*
X197079899Y-82345917D01*
X197141808Y-82378301D01*
X197176382Y-82439017D01*
X197177323Y-82443343D01*
X197189868Y-82506412D01*
X197189870Y-82506420D01*
X197269058Y-82697596D01*
X197384024Y-82869657D01*
X197530342Y-83015975D01*
X197530345Y-83015977D01*
X197702402Y-83130941D01*
X197893580Y-83210130D01*
X198096530Y-83250499D01*
X198096534Y-83250500D01*
X198096535Y-83250500D01*
X198303466Y-83250500D01*
X198303467Y-83250499D01*
X198506420Y-83210130D01*
X198697598Y-83130941D01*
X198806610Y-83058101D01*
X198873287Y-83037224D01*
X198940667Y-83055709D01*
X198987357Y-83107687D01*
X198999500Y-83161204D01*
X198999500Y-96871063D01*
X198979815Y-96938102D01*
X198927011Y-96983857D01*
X198857853Y-96993801D01*
X198794297Y-96964776D01*
X198772398Y-96939954D01*
X198765977Y-96930345D01*
X198765974Y-96930341D01*
X198619657Y-96784024D01*
X198484187Y-96693507D01*
X198447598Y-96669059D01*
X198256420Y-96589870D01*
X198256412Y-96589868D01*
X198053469Y-96549500D01*
X198053465Y-96549500D01*
X197846535Y-96549500D01*
X197846530Y-96549500D01*
X197643587Y-96589868D01*
X197643579Y-96589870D01*
X197452403Y-96669058D01*
X197280342Y-96784024D01*
X197134024Y-96930342D01*
X197019058Y-97102403D01*
X196939870Y-97293579D01*
X196939868Y-97293587D01*
X196899500Y-97496530D01*
X196899500Y-97703469D01*
X196939868Y-97906412D01*
X196939870Y-97906420D01*
X197019058Y-98097596D01*
X197134024Y-98269657D01*
X197280342Y-98415975D01*
X197280345Y-98415977D01*
X197452402Y-98530941D01*
X197643580Y-98610130D01*
X197846530Y-98650499D01*
X197846534Y-98650500D01*
X197846535Y-98650500D01*
X198053466Y-98650500D01*
X198053467Y-98650499D01*
X198256420Y-98610130D01*
X198447598Y-98530941D01*
X198619655Y-98415977D01*
X198765977Y-98269655D01*
X198772396Y-98260047D01*
X198826007Y-98215241D01*
X198895332Y-98206532D01*
X198958360Y-98236685D01*
X198995081Y-98296127D01*
X198999500Y-98328936D01*
X198999500Y-126691472D01*
X198979815Y-126758511D01*
X198927011Y-126804266D01*
X198857853Y-126814210D01*
X198794297Y-126785185D01*
X198787819Y-126779153D01*
X198783451Y-126774785D01*
X198658763Y-126691472D01*
X198611392Y-126659820D01*
X198582221Y-126647737D01*
X198420214Y-126580631D01*
X198420206Y-126580629D01*
X198217263Y-126540261D01*
X198217259Y-126540261D01*
X198010329Y-126540261D01*
X198010324Y-126540261D01*
X197807381Y-126580629D01*
X197807373Y-126580631D01*
X197616197Y-126659819D01*
X197444136Y-126774785D01*
X197297818Y-126921103D01*
X197182852Y-127093164D01*
X197103664Y-127284340D01*
X197103662Y-127284348D01*
X197078853Y-127409071D01*
X197046468Y-127470982D01*
X196985752Y-127505556D01*
X196981427Y-127506497D01*
X196918358Y-127519042D01*
X196918350Y-127519044D01*
X196727174Y-127598232D01*
X196555113Y-127713198D01*
X196408795Y-127859516D01*
X196293829Y-128031577D01*
X196214641Y-128222753D01*
X196214639Y-128222761D01*
X196174271Y-128425704D01*
X196174271Y-128632643D01*
X196214639Y-128835586D01*
X196214641Y-128835594D01*
X196282127Y-128998520D01*
X196293830Y-129026772D01*
X196326205Y-129075225D01*
X196408795Y-129198831D01*
X196497783Y-129287819D01*
X196531268Y-129349142D01*
X196526284Y-129418834D01*
X196484412Y-129474767D01*
X196418948Y-129499184D01*
X196410102Y-129499500D01*
X169625747Y-129499500D01*
X169558708Y-129479815D01*
X169512953Y-129427011D01*
X169503009Y-129357853D01*
X169532034Y-129294297D01*
X169552861Y-129275183D01*
X169561805Y-129268683D01*
X169575229Y-129258931D01*
X169758931Y-129075229D01*
X169911634Y-128865051D01*
X170029579Y-128633572D01*
X170109860Y-128386493D01*
X170142453Y-128180705D01*
X170150500Y-128129902D01*
X170150500Y-127870097D01*
X170125649Y-127713197D01*
X170109860Y-127613507D01*
X170029579Y-127366428D01*
X170029577Y-127366425D01*
X170029577Y-127366423D01*
X169986787Y-127282445D01*
X169911634Y-127134949D01*
X169758931Y-126924771D01*
X169575229Y-126741069D01*
X169575225Y-126741066D01*
X169365054Y-126588368D01*
X169365053Y-126588367D01*
X169365051Y-126588366D01*
X169270640Y-126540261D01*
X169133576Y-126470422D01*
X168886493Y-126390140D01*
X168629902Y-126349500D01*
X168629897Y-126349500D01*
X168370103Y-126349500D01*
X168370098Y-126349500D01*
X168113506Y-126390140D01*
X167866423Y-126470422D01*
X167634945Y-126588368D01*
X167424774Y-126741066D01*
X167424768Y-126741071D01*
X167317681Y-126848159D01*
X167256358Y-126881644D01*
X167186666Y-126876660D01*
X167142319Y-126848159D01*
X167035231Y-126741071D01*
X167035225Y-126741066D01*
X166825054Y-126588368D01*
X166825053Y-126588367D01*
X166825051Y-126588366D01*
X166730640Y-126540261D01*
X166593576Y-126470422D01*
X166346493Y-126390140D01*
X166089902Y-126349500D01*
X166089897Y-126349500D01*
X165830103Y-126349500D01*
X165830098Y-126349500D01*
X165573506Y-126390140D01*
X165326423Y-126470422D01*
X165094945Y-126588368D01*
X164884774Y-126741066D01*
X164884768Y-126741071D01*
X164777681Y-126848159D01*
X164716358Y-126881644D01*
X164646666Y-126876660D01*
X164602319Y-126848159D01*
X164495231Y-126741071D01*
X164495225Y-126741066D01*
X164285054Y-126588368D01*
X164285053Y-126588367D01*
X164285051Y-126588366D01*
X164190640Y-126540261D01*
X164053576Y-126470422D01*
X163806493Y-126390140D01*
X163549902Y-126349500D01*
X163549897Y-126349500D01*
X163290103Y-126349500D01*
X163290098Y-126349500D01*
X163033506Y-126390140D01*
X162786423Y-126470422D01*
X162554946Y-126588367D01*
X162493219Y-126633214D01*
X162427413Y-126656693D01*
X162359359Y-126640867D01*
X162332654Y-126620576D01*
X162232262Y-126520184D01*
X162079523Y-126424211D01*
X161909254Y-126364631D01*
X161909249Y-126364630D01*
X161774960Y-126349500D01*
X161774954Y-126349500D01*
X159985046Y-126349500D01*
X159985039Y-126349500D01*
X159850750Y-126364630D01*
X159850745Y-126364631D01*
X159680476Y-126424211D01*
X159527737Y-126520184D01*
X159400184Y-126647737D01*
X159304211Y-126800476D01*
X159244631Y-126970745D01*
X159244630Y-126970750D01*
X159229500Y-127105039D01*
X159229500Y-128894960D01*
X159244630Y-129029249D01*
X159244631Y-129029254D01*
X159304211Y-129199524D01*
X159373332Y-129309527D01*
X159392333Y-129376764D01*
X159371966Y-129443599D01*
X159318698Y-129488814D01*
X159268339Y-129499500D01*
X152572576Y-129499500D01*
X152505537Y-129479815D01*
X152459782Y-129427011D01*
X152449838Y-129357853D01*
X152478863Y-129294297D01*
X152503686Y-129272398D01*
X152541331Y-129247243D01*
X152553872Y-129238864D01*
X152700194Y-129092542D01*
X152815158Y-128920485D01*
X152894347Y-128729307D01*
X152934717Y-128526352D01*
X152934717Y-128319422D01*
X152894347Y-128116467D01*
X152815158Y-127925289D01*
X152700194Y-127753232D01*
X152700192Y-127753229D01*
X152553874Y-127606911D01*
X152422367Y-127519042D01*
X152381815Y-127491946D01*
X152377631Y-127490213D01*
X152190637Y-127412757D01*
X152190629Y-127412755D01*
X152065906Y-127387946D01*
X152003995Y-127355561D01*
X151969421Y-127294846D01*
X151968493Y-127290583D01*
X151955934Y-127227444D01*
X151876745Y-127036266D01*
X151761781Y-126864209D01*
X151761779Y-126864206D01*
X151615461Y-126717888D01*
X151510471Y-126647737D01*
X151443402Y-126602923D01*
X151408263Y-126588368D01*
X151252224Y-126523734D01*
X151252216Y-126523732D01*
X151049273Y-126483364D01*
X151049269Y-126483364D01*
X150842339Y-126483364D01*
X150842334Y-126483364D01*
X150639391Y-126523732D01*
X150639383Y-126523734D01*
X150448207Y-126602922D01*
X150276146Y-126717888D01*
X150276145Y-126717889D01*
X150212181Y-126781854D01*
X150150858Y-126815339D01*
X150081166Y-126810355D01*
X150025233Y-126768483D01*
X150000816Y-126703019D01*
X150000500Y-126694173D01*
X150000500Y-124283986D01*
X164904421Y-124283986D01*
X164904421Y-124490925D01*
X164944789Y-124693868D01*
X164944791Y-124693876D01*
X164990877Y-124805138D01*
X165023980Y-124885054D01*
X165067544Y-124950252D01*
X165138945Y-125057113D01*
X165285263Y-125203431D01*
X165285266Y-125203433D01*
X165457323Y-125318397D01*
X165648501Y-125397586D01*
X165851451Y-125437955D01*
X165851455Y-125437956D01*
X165851456Y-125437956D01*
X166058387Y-125437956D01*
X166058388Y-125437955D01*
X166261341Y-125397586D01*
X166452519Y-125318397D01*
X166624576Y-125203433D01*
X166770898Y-125057111D01*
X166885862Y-124885054D01*
X166965051Y-124693876D01*
X167005421Y-124490921D01*
X167005421Y-124283991D01*
X166965051Y-124081036D01*
X166948750Y-124041685D01*
X166945922Y-124015380D01*
X166939393Y-123989743D01*
X166941919Y-123978145D01*
X166941282Y-123972217D01*
X166945678Y-123955013D01*
X166947068Y-123950842D01*
X166973733Y-123886470D01*
X166973888Y-123885693D01*
X181793913Y-123885693D01*
X181793913Y-124092632D01*
X181831976Y-124283986D01*
X181834283Y-124295583D01*
X181913472Y-124486761D01*
X181970954Y-124572789D01*
X182028437Y-124658820D01*
X182174755Y-124805138D01*
X182174758Y-124805140D01*
X182346815Y-124920104D01*
X182537993Y-124999293D01*
X182740943Y-125039662D01*
X182740947Y-125039663D01*
X182740948Y-125039663D01*
X182947879Y-125039663D01*
X182947880Y-125039662D01*
X183150833Y-124999293D01*
X183251195Y-124957720D01*
X183320661Y-124950252D01*
X183322837Y-124950665D01*
X183496530Y-124985214D01*
X183496532Y-124985215D01*
X183496533Y-124985215D01*
X183703464Y-124985215D01*
X183703465Y-124985214D01*
X183906418Y-124944845D01*
X184097596Y-124865656D01*
X184269653Y-124750692D01*
X184415975Y-124604370D01*
X184530939Y-124432313D01*
X184610128Y-124241135D01*
X184650498Y-124038180D01*
X184650498Y-123831250D01*
X184610128Y-123628295D01*
X184530939Y-123437117D01*
X184415975Y-123265060D01*
X184415973Y-123265057D01*
X184269655Y-123118739D01*
X184179082Y-123058221D01*
X184097596Y-123003774D01*
X184037866Y-122979033D01*
X183906418Y-122924585D01*
X183906410Y-122924583D01*
X183703467Y-122884215D01*
X183703463Y-122884215D01*
X183496533Y-122884215D01*
X183496528Y-122884215D01*
X183293585Y-122924582D01*
X183293585Y-122924583D01*
X183293582Y-122924584D01*
X183293578Y-122924585D01*
X183193214Y-122966157D01*
X183123744Y-122973625D01*
X183121571Y-122973212D01*
X182947882Y-122938663D01*
X182947878Y-122938663D01*
X182740948Y-122938663D01*
X182740943Y-122938663D01*
X182538000Y-122979031D01*
X182537992Y-122979033D01*
X182346816Y-123058221D01*
X182174755Y-123173187D01*
X182028437Y-123319505D01*
X181913471Y-123491566D01*
X181834283Y-123682742D01*
X181834281Y-123682750D01*
X181793913Y-123885693D01*
X166973888Y-123885693D01*
X166990834Y-123800500D01*
X167011171Y-123698255D01*
X167014103Y-123683515D01*
X167014103Y-123476585D01*
X166973733Y-123273630D01*
X166894544Y-123082452D01*
X166779580Y-122910395D01*
X166779578Y-122910392D01*
X166633260Y-122764074D01*
X166547229Y-122706591D01*
X166461201Y-122649109D01*
X166432573Y-122637251D01*
X166270023Y-122569920D01*
X166270015Y-122569918D01*
X166067072Y-122529550D01*
X166067068Y-122529550D01*
X165860138Y-122529550D01*
X165860133Y-122529550D01*
X165657190Y-122569918D01*
X165657182Y-122569920D01*
X165466006Y-122649108D01*
X165293945Y-122764074D01*
X165147627Y-122910392D01*
X165032661Y-123082453D01*
X164953473Y-123273629D01*
X164953471Y-123273637D01*
X164913103Y-123476580D01*
X164913103Y-123683519D01*
X164953471Y-123886462D01*
X164953473Y-123886470D01*
X164969772Y-123925819D01*
X164977241Y-123995289D01*
X164969773Y-124020723D01*
X164944790Y-124081039D01*
X164944788Y-124081043D01*
X164904421Y-124283986D01*
X150000500Y-124283986D01*
X150000500Y-119995679D01*
X150020185Y-119928640D01*
X150072989Y-119882885D01*
X150142147Y-119872941D01*
X150197383Y-119895360D01*
X150384949Y-120031634D01*
X150471188Y-120075575D01*
X150616423Y-120149577D01*
X150616425Y-120149577D01*
X150616428Y-120149579D01*
X150863507Y-120229860D01*
X150995706Y-120250797D01*
X151120098Y-120270500D01*
X151120103Y-120270500D01*
X151379902Y-120270500D01*
X151493298Y-120252539D01*
X151636493Y-120229860D01*
X151883572Y-120149579D01*
X152028812Y-120075575D01*
X155699500Y-120075575D01*
X155699500Y-120424425D01*
X155701017Y-120439825D01*
X155733692Y-120771594D01*
X155801744Y-121113721D01*
X155801747Y-121113732D01*
X155903016Y-121447571D01*
X156036516Y-121769867D01*
X156036518Y-121769872D01*
X156200955Y-122077511D01*
X156200972Y-122077539D01*
X156394759Y-122367563D01*
X156394776Y-122367586D01*
X156616084Y-122637251D01*
X156862748Y-122883915D01*
X156862753Y-122883919D01*
X156862754Y-122883920D01*
X157132419Y-123105228D01*
X157132426Y-123105233D01*
X157132436Y-123105240D01*
X157422460Y-123299027D01*
X157422465Y-123299030D01*
X157422477Y-123299038D01*
X157422486Y-123299042D01*
X157422488Y-123299044D01*
X157730127Y-123463481D01*
X157730129Y-123463481D01*
X157730135Y-123463485D01*
X158052430Y-123596984D01*
X158386258Y-123698250D01*
X158386264Y-123698251D01*
X158386267Y-123698252D01*
X158386278Y-123698255D01*
X158728405Y-123766307D01*
X159075575Y-123800500D01*
X159075578Y-123800500D01*
X159424422Y-123800500D01*
X159424425Y-123800500D01*
X159771595Y-123766307D01*
X159838197Y-123753059D01*
X160113721Y-123698255D01*
X160113732Y-123698252D01*
X160113732Y-123698251D01*
X160113742Y-123698250D01*
X160447570Y-123596984D01*
X160769865Y-123463485D01*
X161077523Y-123299038D01*
X161367581Y-123105228D01*
X161637246Y-122883920D01*
X161883920Y-122637246D01*
X162105228Y-122367581D01*
X162299038Y-122077523D01*
X162463485Y-121769865D01*
X162596984Y-121447570D01*
X162698250Y-121113742D01*
X162698252Y-121113732D01*
X162698255Y-121113721D01*
X162766307Y-120771594D01*
X162766857Y-120766011D01*
X162798984Y-120439820D01*
X164924369Y-120439820D01*
X164924369Y-120646759D01*
X164964737Y-120849702D01*
X164964739Y-120849710D01*
X165027213Y-121000536D01*
X165043928Y-121040888D01*
X165092607Y-121113742D01*
X165158893Y-121212947D01*
X165305211Y-121359265D01*
X165305214Y-121359267D01*
X165477271Y-121474231D01*
X165668449Y-121553420D01*
X165871399Y-121593789D01*
X165871403Y-121593790D01*
X165871404Y-121593790D01*
X166078335Y-121593790D01*
X166078336Y-121593789D01*
X166116660Y-121586166D01*
X172161096Y-121586166D01*
X172161096Y-121793105D01*
X172201464Y-121996048D01*
X172201466Y-121996056D01*
X172235217Y-122077539D01*
X172280655Y-122187234D01*
X172286869Y-122196534D01*
X172395620Y-122359293D01*
X172541935Y-122505608D01*
X172541938Y-122505610D01*
X172541941Y-122505613D01*
X172589521Y-122537404D01*
X172634325Y-122591015D01*
X172639289Y-122604505D01*
X172639869Y-122606418D01*
X172719058Y-122797596D01*
X172834024Y-122969657D01*
X172980342Y-123115975D01*
X172980345Y-123115977D01*
X173152402Y-123230941D01*
X173343580Y-123310130D01*
X173546530Y-123350499D01*
X173546534Y-123350500D01*
X173546535Y-123350500D01*
X173753466Y-123350500D01*
X173753467Y-123350499D01*
X173956420Y-123310130D01*
X174147598Y-123230941D01*
X174319655Y-123115977D01*
X174465977Y-122969655D01*
X174580941Y-122797598D01*
X174660130Y-122606420D01*
X174700500Y-122403465D01*
X174700500Y-122196535D01*
X174660130Y-121993580D01*
X174580941Y-121802402D01*
X174465977Y-121630345D01*
X174465975Y-121630342D01*
X174319658Y-121484025D01*
X174319654Y-121484022D01*
X174272074Y-121452230D01*
X174227269Y-121398618D01*
X174222306Y-121385128D01*
X174221727Y-121383220D01*
X174221726Y-121383219D01*
X174221726Y-121383216D01*
X174142537Y-121192038D01*
X174027573Y-121019981D01*
X174027571Y-121019978D01*
X173881253Y-120873660D01*
X173728500Y-120771595D01*
X173709194Y-120758695D01*
X173518016Y-120679506D01*
X173518008Y-120679504D01*
X173315065Y-120639136D01*
X173315061Y-120639136D01*
X173108131Y-120639136D01*
X173108126Y-120639136D01*
X172905183Y-120679504D01*
X172905175Y-120679506D01*
X172713999Y-120758694D01*
X172541938Y-120873660D01*
X172395620Y-121019978D01*
X172280654Y-121192039D01*
X172201466Y-121383215D01*
X172201464Y-121383223D01*
X172161096Y-121586166D01*
X166116660Y-121586166D01*
X166281289Y-121553420D01*
X166472467Y-121474231D01*
X166644524Y-121359267D01*
X166790846Y-121212945D01*
X166905810Y-121040888D01*
X166916532Y-121015000D01*
X166960370Y-120960599D01*
X167026664Y-120938532D01*
X167078545Y-120947892D01*
X167108176Y-120960166D01*
X167311126Y-121000535D01*
X167311130Y-121000536D01*
X167311131Y-121000536D01*
X167518062Y-121000536D01*
X167518063Y-121000535D01*
X167721016Y-120960166D01*
X167912194Y-120880977D01*
X168084251Y-120766013D01*
X168230573Y-120619691D01*
X168345537Y-120447634D01*
X168424726Y-120256456D01*
X168460705Y-120075575D01*
X186199500Y-120075575D01*
X186199500Y-120424425D01*
X186201017Y-120439825D01*
X186233692Y-120771594D01*
X186301744Y-121113721D01*
X186301747Y-121113732D01*
X186403016Y-121447571D01*
X186536516Y-121769867D01*
X186536518Y-121769872D01*
X186700955Y-122077511D01*
X186700972Y-122077539D01*
X186894759Y-122367563D01*
X186894776Y-122367586D01*
X187116084Y-122637251D01*
X187362748Y-122883915D01*
X187362753Y-122883919D01*
X187362754Y-122883920D01*
X187632419Y-123105228D01*
X187632426Y-123105233D01*
X187632436Y-123105240D01*
X187922460Y-123299027D01*
X187922465Y-123299030D01*
X187922477Y-123299038D01*
X187922486Y-123299042D01*
X187922488Y-123299044D01*
X188230127Y-123463481D01*
X188230129Y-123463481D01*
X188230135Y-123463485D01*
X188552430Y-123596984D01*
X188886258Y-123698250D01*
X188886264Y-123698251D01*
X188886267Y-123698252D01*
X188886278Y-123698255D01*
X189228405Y-123766307D01*
X189575575Y-123800500D01*
X189575578Y-123800500D01*
X189924422Y-123800500D01*
X189924425Y-123800500D01*
X190271595Y-123766307D01*
X190338197Y-123753059D01*
X190613721Y-123698255D01*
X190613732Y-123698252D01*
X190613732Y-123698251D01*
X190613742Y-123698250D01*
X190947570Y-123596984D01*
X191269865Y-123463485D01*
X191577523Y-123299038D01*
X191867581Y-123105228D01*
X192137246Y-122883920D01*
X192383920Y-122637246D01*
X192605228Y-122367581D01*
X192799038Y-122077523D01*
X192963485Y-121769865D01*
X193096984Y-121447570D01*
X193198250Y-121113742D01*
X193198252Y-121113732D01*
X193198255Y-121113721D01*
X193266307Y-120771594D01*
X193266857Y-120766011D01*
X193300500Y-120424425D01*
X193300500Y-120075575D01*
X193266307Y-119728405D01*
X193249443Y-119643623D01*
X193198255Y-119386278D01*
X193198252Y-119386267D01*
X193198251Y-119386264D01*
X193198250Y-119386258D01*
X193096984Y-119052430D01*
X192963485Y-118730135D01*
X192922494Y-118653447D01*
X192799044Y-118422488D01*
X192799042Y-118422486D01*
X192799038Y-118422477D01*
X192799027Y-118422460D01*
X192605240Y-118132436D01*
X192605233Y-118132426D01*
X192605228Y-118132419D01*
X192383920Y-117862754D01*
X192383919Y-117862753D01*
X192383915Y-117862748D01*
X192137251Y-117616084D01*
X191867586Y-117394776D01*
X191867563Y-117394759D01*
X191796987Y-117347602D01*
X191752181Y-117293990D01*
X191743474Y-117224665D01*
X191773628Y-117161638D01*
X191833071Y-117124918D01*
X191865877Y-117120500D01*
X193134851Y-117120500D01*
X193134852Y-117120500D01*
X193337034Y-117088477D01*
X193531719Y-117025220D01*
X193714110Y-116932287D01*
X193822600Y-116853465D01*
X193879713Y-116811971D01*
X193879715Y-116811968D01*
X193879719Y-116811966D01*
X194024466Y-116667219D01*
X194024468Y-116667215D01*
X194024471Y-116667213D01*
X194098023Y-116565975D01*
X194144787Y-116501610D01*
X194237720Y-116319219D01*
X194300977Y-116124534D01*
X194333000Y-115922352D01*
X194333000Y-115717648D01*
X194962000Y-115717648D01*
X194962000Y-115922351D01*
X194994022Y-116124534D01*
X195057281Y-116319223D01*
X195097215Y-116397596D01*
X195150212Y-116501609D01*
X195150215Y-116501613D01*
X195270528Y-116667213D01*
X195415286Y-116811971D01*
X195570249Y-116924556D01*
X195580890Y-116932287D01*
X195697107Y-116991503D01*
X195763276Y-117025218D01*
X195763278Y-117025218D01*
X195763281Y-117025220D01*
X195798047Y-117036516D01*
X195957965Y-117088477D01*
X196059057Y-117104488D01*
X196160148Y-117120500D01*
X196160149Y-117120500D01*
X197164851Y-117120500D01*
X197164852Y-117120500D01*
X197367034Y-117088477D01*
X197561719Y-117025220D01*
X197744110Y-116932287D01*
X197852600Y-116853465D01*
X197909713Y-116811971D01*
X197909715Y-116811968D01*
X197909719Y-116811966D01*
X198054466Y-116667219D01*
X198054468Y-116667215D01*
X198054471Y-116667213D01*
X198128023Y-116565975D01*
X198174787Y-116501610D01*
X198267720Y-116319219D01*
X198330977Y-116124534D01*
X198363000Y-115922352D01*
X198363000Y-115717648D01*
X198344933Y-115603577D01*
X198330977Y-115515465D01*
X198267718Y-115320776D01*
X198221639Y-115230342D01*
X198174787Y-115138390D01*
X198167056Y-115127749D01*
X198054471Y-114972786D01*
X197909713Y-114828028D01*
X197744113Y-114707715D01*
X197744112Y-114707714D01*
X197744110Y-114707713D01*
X197681634Y-114675880D01*
X197561723Y-114614781D01*
X197367034Y-114551522D01*
X197192495Y-114523878D01*
X197164852Y-114519500D01*
X196160148Y-114519500D01*
X196135829Y-114523351D01*
X195957965Y-114551522D01*
X195763276Y-114614781D01*
X195580886Y-114707715D01*
X195415286Y-114828028D01*
X195270528Y-114972786D01*
X195150215Y-115138386D01*
X195057281Y-115320776D01*
X194994022Y-115515465D01*
X194962000Y-115717648D01*
X194333000Y-115717648D01*
X194314933Y-115603577D01*
X194300977Y-115515465D01*
X194237718Y-115320776D01*
X194191639Y-115230342D01*
X194144787Y-115138390D01*
X194137056Y-115127749D01*
X194024471Y-114972786D01*
X193879713Y-114828028D01*
X193714114Y-114707715D01*
X193609179Y-114654248D01*
X193558383Y-114606273D01*
X193541588Y-114538452D01*
X193545699Y-114511673D01*
X193558000Y-114465766D01*
X193558000Y-114314234D01*
X193518781Y-114167865D01*
X193443015Y-114036635D01*
X193335865Y-113929485D01*
X193270250Y-113891602D01*
X193204636Y-113853719D01*
X193108724Y-113828020D01*
X193058266Y-113814500D01*
X192906734Y-113814500D01*
X192760363Y-113853719D01*
X192629135Y-113929485D01*
X192629132Y-113929487D01*
X192521987Y-114036632D01*
X192521985Y-114036635D01*
X192446219Y-114167863D01*
X192407000Y-114314234D01*
X192407000Y-114395500D01*
X192387315Y-114462539D01*
X192334511Y-114508294D01*
X192283000Y-114519500D01*
X191830148Y-114519500D01*
X191805829Y-114523351D01*
X191627965Y-114551522D01*
X191433276Y-114614781D01*
X191250886Y-114707715D01*
X191085286Y-114828028D01*
X190940528Y-114972786D01*
X190820215Y-115138386D01*
X190727281Y-115320776D01*
X190664022Y-115515465D01*
X190632000Y-115717648D01*
X190632000Y-115922351D01*
X190664022Y-116124534D01*
X190727281Y-116319223D01*
X190820212Y-116501609D01*
X190941248Y-116668202D01*
X190964727Y-116734009D01*
X190948901Y-116802062D01*
X190898795Y-116850757D01*
X190830317Y-116864632D01*
X190804936Y-116859748D01*
X190613742Y-116801750D01*
X190613741Y-116801749D01*
X190613732Y-116801747D01*
X190613721Y-116801744D01*
X190271594Y-116733692D01*
X190010120Y-116707940D01*
X189924425Y-116699500D01*
X189575575Y-116699500D01*
X189496394Y-116707298D01*
X189228405Y-116733692D01*
X188886278Y-116801744D01*
X188886267Y-116801747D01*
X188552428Y-116903016D01*
X188230132Y-117036516D01*
X188230127Y-117036518D01*
X187922488Y-117200955D01*
X187922460Y-117200972D01*
X187632436Y-117394759D01*
X187632413Y-117394776D01*
X187362748Y-117616084D01*
X187116084Y-117862748D01*
X186894776Y-118132413D01*
X186894759Y-118132436D01*
X186700972Y-118422460D01*
X186700955Y-118422488D01*
X186536518Y-118730127D01*
X186536516Y-118730132D01*
X186403016Y-119052428D01*
X186301747Y-119386267D01*
X186301744Y-119386278D01*
X186233692Y-119728405D01*
X186209680Y-119972213D01*
X186199500Y-120075575D01*
X168460705Y-120075575D01*
X168465096Y-120053501D01*
X168465096Y-119846571D01*
X168424726Y-119643616D01*
X168345537Y-119452438D01*
X168230573Y-119280381D01*
X168230572Y-119280380D01*
X168230571Y-119280378D01*
X168084253Y-119134060D01*
X168055836Y-119115073D01*
X168011030Y-119061461D01*
X168002323Y-118992136D01*
X168032477Y-118929108D01*
X168091920Y-118892388D01*
X168124726Y-118887970D01*
X168335596Y-118887970D01*
X168335597Y-118887969D01*
X168538550Y-118847600D01*
X168729728Y-118768411D01*
X168901785Y-118653447D01*
X169048107Y-118507125D01*
X169163071Y-118335068D01*
X169242260Y-118143890D01*
X169282630Y-117940935D01*
X169282630Y-117734005D01*
X169242260Y-117531050D01*
X169163071Y-117339872D01*
X169048107Y-117167815D01*
X169048105Y-117167812D01*
X168901787Y-117021494D01*
X168787385Y-116945054D01*
X168729728Y-116906529D01*
X168628580Y-116864632D01*
X168538550Y-116827340D01*
X168538542Y-116827338D01*
X168335599Y-116786970D01*
X168335595Y-116786970D01*
X168128665Y-116786970D01*
X168128660Y-116786970D01*
X167925717Y-116827338D01*
X167925709Y-116827340D01*
X167734533Y-116906528D01*
X167562472Y-117021494D01*
X167416154Y-117167812D01*
X167301188Y-117339873D01*
X167222000Y-117531049D01*
X167221998Y-117531057D01*
X167181630Y-117734000D01*
X167181630Y-117940939D01*
X167221998Y-118143882D01*
X167222000Y-118143890D01*
X167299479Y-118330941D01*
X167301189Y-118335068D01*
X167352857Y-118412395D01*
X167416154Y-118507127D01*
X167562472Y-118653445D01*
X167590890Y-118672433D01*
X167635696Y-118726045D01*
X167644403Y-118795370D01*
X167614249Y-118858398D01*
X167554806Y-118895118D01*
X167522000Y-118899536D01*
X167311126Y-118899536D01*
X167108183Y-118939904D01*
X167108175Y-118939906D01*
X166916999Y-119019094D01*
X166744938Y-119134060D01*
X166598618Y-119280380D01*
X166483658Y-119452431D01*
X166483653Y-119452440D01*
X166472930Y-119478328D01*
X166429087Y-119532730D01*
X166362792Y-119554793D01*
X166310920Y-119545433D01*
X166281289Y-119533160D01*
X166281287Y-119533159D01*
X166281286Y-119533159D01*
X166281281Y-119533157D01*
X166078338Y-119492790D01*
X166078334Y-119492790D01*
X165871404Y-119492790D01*
X165871399Y-119492790D01*
X165668456Y-119533158D01*
X165668448Y-119533160D01*
X165477272Y-119612348D01*
X165305211Y-119727314D01*
X165158893Y-119873632D01*
X165043927Y-120045693D01*
X164964739Y-120236869D01*
X164964737Y-120236877D01*
X164924369Y-120439820D01*
X162798984Y-120439820D01*
X162800500Y-120424425D01*
X162800500Y-120075575D01*
X162766307Y-119728405D01*
X162749443Y-119643623D01*
X162698255Y-119386278D01*
X162698252Y-119386267D01*
X162698251Y-119386264D01*
X162698250Y-119386258D01*
X162596984Y-119052430D01*
X162463485Y-118730135D01*
X162422494Y-118653447D01*
X162299044Y-118422488D01*
X162299042Y-118422486D01*
X162299038Y-118422477D01*
X162299027Y-118422460D01*
X162105240Y-118132436D01*
X162105233Y-118132426D01*
X162105228Y-118132419D01*
X161883920Y-117862754D01*
X161883919Y-117862753D01*
X161883915Y-117862748D01*
X161637251Y-117616084D01*
X161367586Y-117394776D01*
X161367563Y-117394759D01*
X161077539Y-117200972D01*
X161077511Y-117200955D01*
X160769872Y-117036518D01*
X160769867Y-117036516D01*
X160742591Y-117025218D01*
X160595199Y-116964166D01*
X160447571Y-116903016D01*
X160122257Y-116804333D01*
X160113742Y-116801750D01*
X160113741Y-116801749D01*
X160113732Y-116801747D01*
X160113721Y-116801744D01*
X159771594Y-116733692D01*
X159510120Y-116707940D01*
X159424425Y-116699500D01*
X159075575Y-116699500D01*
X158996394Y-116707298D01*
X158728405Y-116733692D01*
X158386278Y-116801744D01*
X158386267Y-116801747D01*
X158052428Y-116903016D01*
X157730132Y-117036516D01*
X157730127Y-117036518D01*
X157422488Y-117200955D01*
X157422460Y-117200972D01*
X157132436Y-117394759D01*
X157132413Y-117394776D01*
X156862748Y-117616084D01*
X156616084Y-117862748D01*
X156394776Y-118132413D01*
X156394759Y-118132436D01*
X156200972Y-118422460D01*
X156200955Y-118422488D01*
X156036518Y-118730127D01*
X156036516Y-118730132D01*
X155903016Y-119052428D01*
X155801747Y-119386267D01*
X155801744Y-119386278D01*
X155733692Y-119728405D01*
X155709680Y-119972213D01*
X155699500Y-120075575D01*
X152028812Y-120075575D01*
X152115051Y-120031634D01*
X152325229Y-119878931D01*
X152508931Y-119695229D01*
X152661634Y-119485051D01*
X152779579Y-119253572D01*
X152859860Y-119006493D01*
X152882539Y-118863298D01*
X152900500Y-118749902D01*
X152900500Y-118490097D01*
X152875292Y-118330941D01*
X152859860Y-118233507D01*
X152779579Y-117986428D01*
X152779577Y-117986425D01*
X152779577Y-117986423D01*
X152734317Y-117897596D01*
X152661634Y-117754949D01*
X152508931Y-117544771D01*
X152401841Y-117437681D01*
X152368356Y-117376358D01*
X152373340Y-117306666D01*
X152401841Y-117262319D01*
X152439495Y-117224665D01*
X152508931Y-117155229D01*
X152661634Y-116945051D01*
X152779579Y-116713572D01*
X152859860Y-116466493D01*
X152886290Y-116299618D01*
X152900500Y-116209902D01*
X152900500Y-115950097D01*
X152878947Y-115814021D01*
X152859860Y-115693507D01*
X152779579Y-115446428D01*
X152779577Y-115446425D01*
X152779577Y-115446423D01*
X152711926Y-115313653D01*
X152661634Y-115214949D01*
X152508931Y-115004771D01*
X152500690Y-114996530D01*
X157699500Y-114996530D01*
X157699500Y-115203469D01*
X157739868Y-115406412D01*
X157739870Y-115406420D01*
X157817397Y-115593587D01*
X157819059Y-115597598D01*
X157855769Y-115652539D01*
X157934024Y-115769657D01*
X158080342Y-115915975D01*
X158080345Y-115915977D01*
X158252402Y-116030941D01*
X158443580Y-116110130D01*
X158646530Y-116150499D01*
X158646534Y-116150500D01*
X158646535Y-116150500D01*
X158853466Y-116150500D01*
X158853467Y-116150499D01*
X159056420Y-116110130D01*
X159247598Y-116030941D01*
X159419655Y-115915977D01*
X159565977Y-115769655D01*
X159680941Y-115597598D01*
X159760130Y-115406420D01*
X159800500Y-115203465D01*
X159800500Y-115131087D01*
X165682284Y-115131087D01*
X165682284Y-115338026D01*
X165722652Y-115540969D01*
X165722654Y-115540977D01*
X165785408Y-115692479D01*
X165801843Y-115732155D01*
X165806998Y-115739870D01*
X165916808Y-115904214D01*
X166063126Y-116050532D01*
X166063129Y-116050534D01*
X166235186Y-116165498D01*
X166426364Y-116244687D01*
X166620642Y-116283331D01*
X166629314Y-116285056D01*
X166629318Y-116285057D01*
X166629319Y-116285057D01*
X166836250Y-116285057D01*
X166836251Y-116285056D01*
X167039204Y-116244687D01*
X167230382Y-116165498D01*
X167402439Y-116050534D01*
X167548761Y-115904212D01*
X167614030Y-115806530D01*
X170699500Y-115806530D01*
X170699500Y-116013469D01*
X170739868Y-116216412D01*
X170739871Y-116216424D01*
X170774331Y-116299618D01*
X170781800Y-116369087D01*
X170774332Y-116394520D01*
X170749870Y-116453578D01*
X170749867Y-116453587D01*
X170709500Y-116656530D01*
X170709500Y-116863469D01*
X170749868Y-117066412D01*
X170749870Y-117066420D01*
X170815417Y-117224665D01*
X170829059Y-117257598D01*
X170870175Y-117319133D01*
X170944024Y-117429657D01*
X171090342Y-117575975D01*
X171090345Y-117575977D01*
X171262402Y-117690941D01*
X171453580Y-117770130D01*
X171656530Y-117810499D01*
X171656534Y-117810500D01*
X171656535Y-117810500D01*
X171863466Y-117810500D01*
X171863467Y-117810499D01*
X172066420Y-117770130D01*
X172257598Y-117690941D01*
X172408594Y-117590049D01*
X172475270Y-117569172D01*
X172542650Y-117587657D01*
X172546349Y-117590033D01*
X172682402Y-117680941D01*
X172873580Y-117760130D01*
X173076530Y-117800499D01*
X173076534Y-117800500D01*
X173076535Y-117800500D01*
X173283466Y-117800500D01*
X173283467Y-117800499D01*
X173486420Y-117760130D01*
X173677598Y-117680941D01*
X173849655Y-117565977D01*
X173995977Y-117419655D01*
X174110941Y-117247598D01*
X174190130Y-117056420D01*
X174230500Y-116853465D01*
X174230500Y-116768821D01*
X174250185Y-116701782D01*
X174302989Y-116656027D01*
X174330309Y-116647204D01*
X174333195Y-116646629D01*
X174466420Y-116620130D01*
X174657598Y-116540941D01*
X174782542Y-116457456D01*
X174849219Y-116436579D01*
X174851432Y-116436559D01*
X174987606Y-116436559D01*
X174987607Y-116436558D01*
X175190560Y-116396189D01*
X175381738Y-116317000D01*
X175553795Y-116202036D01*
X175700117Y-116055714D01*
X175815081Y-115883657D01*
X175894270Y-115692479D01*
X175903409Y-115646530D01*
X179949500Y-115646530D01*
X179949500Y-115853469D01*
X179989868Y-116056412D01*
X179989870Y-116056420D01*
X180067853Y-116244688D01*
X180069059Y-116247598D01*
X180115408Y-116316964D01*
X180184024Y-116419657D01*
X180330342Y-116565975D01*
X180330345Y-116565977D01*
X180502402Y-116680941D01*
X180693580Y-116760130D01*
X180828515Y-116786970D01*
X180900536Y-116801296D01*
X180962447Y-116833680D01*
X180997021Y-116894396D01*
X180993282Y-116964166D01*
X180990906Y-116970365D01*
X180939871Y-117093575D01*
X180939868Y-117093587D01*
X180899500Y-117296530D01*
X180899500Y-117503469D01*
X180939868Y-117706412D01*
X180939870Y-117706420D01*
X181004623Y-117862748D01*
X181019059Y-117897598D01*
X181048016Y-117940935D01*
X181134024Y-118069657D01*
X181280342Y-118215975D01*
X181280345Y-118215977D01*
X181452402Y-118330941D01*
X181643580Y-118410130D01*
X181654971Y-118412395D01*
X181716882Y-118444779D01*
X181733883Y-118465122D01*
X181748090Y-118486384D01*
X181748093Y-118486388D01*
X181894410Y-118632705D01*
X181894413Y-118632707D01*
X182066470Y-118747671D01*
X182257648Y-118826860D01*
X182460598Y-118867229D01*
X182460602Y-118867230D01*
X182460603Y-118867230D01*
X182667534Y-118867230D01*
X182667535Y-118867229D01*
X182870488Y-118826860D01*
X183061666Y-118747671D01*
X183233723Y-118632707D01*
X183380045Y-118486385D01*
X183495009Y-118314328D01*
X183574198Y-118123150D01*
X183614568Y-117920195D01*
X183614568Y-117713265D01*
X183574198Y-117510310D01*
X183495009Y-117319132D01*
X183380045Y-117147075D01*
X183380043Y-117147072D01*
X183233725Y-117000754D01*
X183131251Y-116932284D01*
X183061666Y-116885789D01*
X183007771Y-116863465D01*
X182870488Y-116806600D01*
X182870483Y-116806598D01*
X182859093Y-116804333D01*
X182797182Y-116771947D01*
X182780184Y-116751606D01*
X182765980Y-116730349D01*
X182765974Y-116730341D01*
X182619657Y-116584024D01*
X182447596Y-116469057D01*
X182265102Y-116393466D01*
X182210699Y-116349625D01*
X182188634Y-116283331D01*
X182205913Y-116215631D01*
X182243663Y-116175804D01*
X182354827Y-116101528D01*
X182501149Y-115955206D01*
X182607172Y-115796530D01*
X183099500Y-115796530D01*
X183099500Y-116003469D01*
X183138998Y-116202036D01*
X183139870Y-116206420D01*
X183219059Y-116397598D01*
X183259055Y-116457457D01*
X183334024Y-116569657D01*
X183480342Y-116715975D01*
X183480345Y-116715977D01*
X183652402Y-116830941D01*
X183843580Y-116910130D01*
X184019141Y-116945051D01*
X184046530Y-116950499D01*
X184046534Y-116950500D01*
X184046535Y-116950500D01*
X184253466Y-116950500D01*
X184253467Y-116950499D01*
X184456420Y-116910130D01*
X184647598Y-116830941D01*
X184819655Y-116715977D01*
X184965977Y-116569655D01*
X185080941Y-116397598D01*
X185160130Y-116206420D01*
X185200500Y-116003465D01*
X185200500Y-115796535D01*
X185160130Y-115593580D01*
X185080941Y-115402402D01*
X184965977Y-115230345D01*
X184965975Y-115230342D01*
X184819657Y-115084024D01*
X184688719Y-114996535D01*
X184647598Y-114969059D01*
X184578269Y-114940342D01*
X184456420Y-114889870D01*
X184456412Y-114889868D01*
X184253469Y-114849500D01*
X184253465Y-114849500D01*
X184046535Y-114849500D01*
X184046530Y-114849500D01*
X183843587Y-114889868D01*
X183843579Y-114889870D01*
X183652403Y-114969058D01*
X183480342Y-115084024D01*
X183334024Y-115230342D01*
X183219058Y-115402403D01*
X183139870Y-115593579D01*
X183139868Y-115593587D01*
X183099500Y-115796530D01*
X182607172Y-115796530D01*
X182616113Y-115783149D01*
X182695302Y-115591971D01*
X182735672Y-115389016D01*
X182735672Y-115182086D01*
X182695302Y-114979131D01*
X182616113Y-114787953D01*
X182501149Y-114615896D01*
X182501147Y-114615893D01*
X182354829Y-114469575D01*
X182245508Y-114396530D01*
X182182770Y-114354610D01*
X182085294Y-114314234D01*
X181991592Y-114275421D01*
X181991584Y-114275419D01*
X181788641Y-114235051D01*
X181788637Y-114235051D01*
X181581707Y-114235051D01*
X181581702Y-114235051D01*
X181378759Y-114275419D01*
X181378751Y-114275421D01*
X181187575Y-114354609D01*
X181015514Y-114469575D01*
X180869197Y-114615892D01*
X180869194Y-114615896D01*
X180829114Y-114675880D01*
X180775501Y-114720685D01*
X180750204Y-114728606D01*
X180693585Y-114739868D01*
X180693579Y-114739870D01*
X180502403Y-114819058D01*
X180330342Y-114934024D01*
X180184024Y-115080342D01*
X180069058Y-115252403D01*
X179989870Y-115443579D01*
X179989868Y-115443587D01*
X179949500Y-115646530D01*
X175903409Y-115646530D01*
X175909289Y-115616966D01*
X175918555Y-115599251D01*
X175923154Y-115579795D01*
X175934418Y-115568926D01*
X175941674Y-115555056D01*
X175959047Y-115545162D01*
X175973435Y-115531281D01*
X175997508Y-115522789D01*
X175999567Y-115521466D01*
X176001493Y-115520992D01*
X176002390Y-115520482D01*
X176006682Y-115519547D01*
X176065705Y-115507808D01*
X176256883Y-115428619D01*
X176428940Y-115313655D01*
X176575262Y-115167333D01*
X176690226Y-114995276D01*
X176769415Y-114804098D01*
X176809785Y-114601143D01*
X176809785Y-114394213D01*
X176769415Y-114191258D01*
X176690226Y-114000080D01*
X176575262Y-113828023D01*
X176575260Y-113828020D01*
X176428942Y-113681702D01*
X176321827Y-113610131D01*
X176256883Y-113566737D01*
X176256880Y-113566735D01*
X176256879Y-113566735D01*
X176244500Y-113561607D01*
X176190097Y-113517765D01*
X176182595Y-113505497D01*
X176180941Y-113502402D01*
X176065975Y-113330342D01*
X175919657Y-113184024D01*
X175790307Y-113097596D01*
X175747598Y-113069059D01*
X175740157Y-113065977D01*
X175556420Y-112989870D01*
X175556412Y-112989868D01*
X175353469Y-112949500D01*
X175353465Y-112949500D01*
X175146535Y-112949500D01*
X175146530Y-112949500D01*
X174943587Y-112989868D01*
X174943579Y-112989870D01*
X174752403Y-113069058D01*
X174580342Y-113184024D01*
X174434024Y-113330342D01*
X174319058Y-113502403D01*
X174239870Y-113693579D01*
X174239868Y-113693587D01*
X174199500Y-113896530D01*
X174199500Y-114103469D01*
X174239868Y-114306412D01*
X174239870Y-114306420D01*
X174273681Y-114388047D01*
X174281150Y-114457517D01*
X174249875Y-114519996D01*
X174189786Y-114555648D01*
X174159120Y-114559500D01*
X174056530Y-114559500D01*
X173853587Y-114599868D01*
X173853579Y-114599870D01*
X173662403Y-114679058D01*
X173490342Y-114794024D01*
X173344024Y-114940342D01*
X173229058Y-115112403D01*
X173149870Y-115303579D01*
X173149868Y-115303587D01*
X173109500Y-115506530D01*
X173109500Y-115591178D01*
X173100556Y-115621635D01*
X173093254Y-115652539D01*
X173090781Y-115654924D01*
X173089815Y-115658217D01*
X173065831Y-115678998D01*
X173042974Y-115701054D01*
X173038596Y-115702598D01*
X173037011Y-115703972D01*
X173009690Y-115712796D01*
X172912141Y-115732199D01*
X172842550Y-115725970D01*
X172787373Y-115683107D01*
X172766334Y-115634773D01*
X172760130Y-115603580D01*
X172680941Y-115412402D01*
X172565977Y-115240345D01*
X172565975Y-115240342D01*
X172419657Y-115094024D01*
X172271964Y-114995340D01*
X172247598Y-114979059D01*
X172154127Y-114940342D01*
X172056420Y-114899870D01*
X172056412Y-114899868D01*
X171853469Y-114859500D01*
X171853465Y-114859500D01*
X171646535Y-114859500D01*
X171646530Y-114859500D01*
X171443587Y-114899868D01*
X171443579Y-114899870D01*
X171252403Y-114979058D01*
X171080342Y-115094024D01*
X170934024Y-115240342D01*
X170819058Y-115412403D01*
X170739870Y-115603579D01*
X170739868Y-115603587D01*
X170699500Y-115806530D01*
X167614030Y-115806530D01*
X167663725Y-115732155D01*
X167742914Y-115540977D01*
X167783284Y-115338022D01*
X167783284Y-115131092D01*
X167756518Y-114996530D01*
X167742915Y-114928141D01*
X167741759Y-114924330D01*
X167741740Y-114922233D01*
X167741726Y-114922162D01*
X167741739Y-114922159D01*
X167741132Y-114854463D01*
X167745858Y-114840876D01*
X167760127Y-114806428D01*
X167760127Y-114806425D01*
X167760130Y-114806420D01*
X167800500Y-114603465D01*
X167800500Y-114396535D01*
X167760130Y-114193580D01*
X167680941Y-114002402D01*
X167565977Y-113830345D01*
X167565975Y-113830342D01*
X167419657Y-113684024D01*
X167309067Y-113610131D01*
X167247598Y-113569059D01*
X167241992Y-113566737D01*
X167056420Y-113489870D01*
X167056412Y-113489868D01*
X166853469Y-113449500D01*
X166853465Y-113449500D01*
X166646535Y-113449500D01*
X166646530Y-113449500D01*
X166443587Y-113489868D01*
X166443579Y-113489870D01*
X166252403Y-113569058D01*
X166080342Y-113684024D01*
X165934024Y-113830342D01*
X165819058Y-114002403D01*
X165739870Y-114193579D01*
X165739868Y-114193587D01*
X165699500Y-114396530D01*
X165699500Y-114603469D01*
X165739868Y-114806414D01*
X165741029Y-114810241D01*
X165741047Y-114812341D01*
X165741058Y-114812394D01*
X165741048Y-114812395D01*
X165741646Y-114880108D01*
X165736927Y-114893677D01*
X165722654Y-114928135D01*
X165722651Y-114928144D01*
X165682284Y-115131087D01*
X159800500Y-115131087D01*
X159800500Y-114996535D01*
X159760130Y-114793580D01*
X159680941Y-114602402D01*
X159565977Y-114430345D01*
X159565975Y-114430342D01*
X159419657Y-114284024D01*
X159284307Y-114193587D01*
X159247598Y-114169059D01*
X159244715Y-114167865D01*
X159056420Y-114089870D01*
X159056412Y-114089868D01*
X158853469Y-114049500D01*
X158853465Y-114049500D01*
X158646535Y-114049500D01*
X158646530Y-114049500D01*
X158443587Y-114089868D01*
X158443579Y-114089870D01*
X158252403Y-114169058D01*
X158080342Y-114284024D01*
X157934024Y-114430342D01*
X157819058Y-114602403D01*
X157739870Y-114793579D01*
X157739868Y-114793587D01*
X157699500Y-114996530D01*
X152500690Y-114996530D01*
X152399508Y-114895348D01*
X152397321Y-114892916D01*
X152383584Y-114864246D01*
X152368356Y-114836358D01*
X152368598Y-114832969D01*
X152367130Y-114829905D01*
X152371072Y-114798369D01*
X152373340Y-114766666D01*
X152375446Y-114763388D01*
X152375798Y-114760575D01*
X152382128Y-114752991D01*
X152401841Y-114722319D01*
X152448280Y-114675880D01*
X152508931Y-114615229D01*
X152661634Y-114405051D01*
X152779579Y-114173572D01*
X152859860Y-113926493D01*
X152893202Y-113715977D01*
X152900500Y-113669902D01*
X152900500Y-113410097D01*
X152864693Y-113184023D01*
X152859860Y-113153507D01*
X152779579Y-112906428D01*
X152779577Y-112906425D01*
X152779577Y-112906423D01*
X152691133Y-112732844D01*
X152661634Y-112674949D01*
X152616785Y-112613220D01*
X152605319Y-112581086D01*
X152593420Y-112549182D01*
X152593615Y-112548283D01*
X152593306Y-112547416D01*
X152601030Y-112514198D01*
X152604874Y-112496530D01*
X163999500Y-112496530D01*
X163999500Y-112703469D01*
X164039868Y-112906412D01*
X164039870Y-112906420D01*
X164074435Y-112989868D01*
X164119059Y-113097598D01*
X164156415Y-113153506D01*
X164234024Y-113269657D01*
X164380342Y-113415975D01*
X164380345Y-113415977D01*
X164552402Y-113530941D01*
X164743580Y-113610130D01*
X164946530Y-113650499D01*
X164946534Y-113650500D01*
X164946535Y-113650500D01*
X165153466Y-113650500D01*
X165153467Y-113650499D01*
X165356420Y-113610130D01*
X165547598Y-113530941D01*
X165719655Y-113415977D01*
X165803982Y-113331649D01*
X165865303Y-113298165D01*
X165867471Y-113297714D01*
X166056420Y-113260130D01*
X166247598Y-113180941D01*
X166419655Y-113065977D01*
X166565977Y-112919655D01*
X166680941Y-112747598D01*
X166760130Y-112556420D01*
X166800500Y-112353465D01*
X166800500Y-112146535D01*
X166760130Y-111943580D01*
X166680941Y-111752402D01*
X166565977Y-111580345D01*
X166565975Y-111580342D01*
X166419657Y-111434024D01*
X166333626Y-111376541D01*
X166247598Y-111319059D01*
X166240874Y-111316274D01*
X166056420Y-111239870D01*
X166056412Y-111239868D01*
X165853469Y-111199500D01*
X165853465Y-111199500D01*
X165646535Y-111199500D01*
X165646530Y-111199500D01*
X165443587Y-111239868D01*
X165443579Y-111239870D01*
X165252403Y-111319058D01*
X165080342Y-111434024D01*
X165080341Y-111434025D01*
X164996018Y-111518349D01*
X164934695Y-111551834D01*
X164932528Y-111552285D01*
X164743587Y-111589868D01*
X164743579Y-111589870D01*
X164552403Y-111669058D01*
X164380342Y-111784024D01*
X164234024Y-111930342D01*
X164119058Y-112102403D01*
X164039870Y-112293579D01*
X164039868Y-112293587D01*
X163999500Y-112496530D01*
X152604874Y-112496530D01*
X152608272Y-112480909D01*
X152608996Y-112479941D01*
X152609131Y-112479362D01*
X152629423Y-112452655D01*
X152679316Y-112402762D01*
X152692208Y-112389870D01*
X152729816Y-112352262D01*
X152825789Y-112199522D01*
X152885368Y-112029255D01*
X152900500Y-111894954D01*
X152900500Y-111033628D01*
X168063199Y-111033628D01*
X168063199Y-111240567D01*
X168103567Y-111443510D01*
X168103569Y-111443518D01*
X168167390Y-111597596D01*
X168182758Y-111634696D01*
X168211265Y-111677360D01*
X168297723Y-111806755D01*
X168444041Y-111953073D01*
X168444044Y-111953075D01*
X168616101Y-112068039D01*
X168807279Y-112147228D01*
X169010229Y-112187597D01*
X169010233Y-112187598D01*
X169010234Y-112187598D01*
X169217165Y-112187598D01*
X169217166Y-112187597D01*
X169420119Y-112147228D01*
X169611297Y-112068039D01*
X169700474Y-112008452D01*
X169767149Y-111987575D01*
X169834529Y-112006059D01*
X169838244Y-112008447D01*
X169936454Y-112074068D01*
X170127632Y-112153257D01*
X170300272Y-112187597D01*
X170330582Y-112193626D01*
X170330586Y-112193627D01*
X170330587Y-112193627D01*
X170537518Y-112193627D01*
X170537519Y-112193626D01*
X170740472Y-112153257D01*
X170931650Y-112074068D01*
X170973376Y-112046187D01*
X171040051Y-112025309D01*
X171107432Y-112043792D01*
X171154123Y-112095770D01*
X171156824Y-112101827D01*
X171157063Y-112102403D01*
X171162780Y-112116207D01*
X171162784Y-112116214D01*
X171277744Y-112288265D01*
X171424064Y-112434585D01*
X171424067Y-112434587D01*
X171596124Y-112549551D01*
X171787302Y-112628740D01*
X171960807Y-112663252D01*
X171990252Y-112669109D01*
X171990256Y-112669110D01*
X171990257Y-112669110D01*
X172197188Y-112669110D01*
X172197189Y-112669109D01*
X172400142Y-112628740D01*
X172591320Y-112549551D01*
X172763377Y-112434587D01*
X172909699Y-112288265D01*
X173024663Y-112116208D01*
X173103852Y-111925030D01*
X173144222Y-111722075D01*
X173144222Y-111515145D01*
X173103852Y-111312190D01*
X173024663Y-111121012D01*
X172909699Y-110948955D01*
X172909697Y-110948952D01*
X172763379Y-110802634D01*
X172643375Y-110722451D01*
X172591320Y-110687669D01*
X172524270Y-110659896D01*
X172400142Y-110608480D01*
X172400134Y-110608478D01*
X172197191Y-110568110D01*
X172197187Y-110568110D01*
X171990257Y-110568110D01*
X171990252Y-110568110D01*
X171787309Y-110608478D01*
X171787301Y-110608480D01*
X171596122Y-110687669D01*
X171554395Y-110715550D01*
X171487717Y-110736427D01*
X171420337Y-110717941D01*
X171373648Y-110665962D01*
X171370957Y-110659929D01*
X171364993Y-110645529D01*
X171250029Y-110473472D01*
X171250027Y-110473469D01*
X171103709Y-110327151D01*
X170971470Y-110238793D01*
X170931650Y-110212186D01*
X170925187Y-110209509D01*
X170740472Y-110132997D01*
X170740464Y-110132995D01*
X170537521Y-110092627D01*
X170537517Y-110092627D01*
X170330587Y-110092627D01*
X170330582Y-110092627D01*
X170127639Y-110132995D01*
X170127631Y-110132997D01*
X169936455Y-110212185D01*
X169847277Y-110271771D01*
X169780599Y-110292648D01*
X169713219Y-110274163D01*
X169709497Y-110271771D01*
X169620320Y-110212186D01*
X169611297Y-110206157D01*
X169598936Y-110201037D01*
X169420119Y-110126968D01*
X169420111Y-110126966D01*
X169217168Y-110086598D01*
X169217164Y-110086598D01*
X169010234Y-110086598D01*
X169010229Y-110086598D01*
X168807286Y-110126966D01*
X168807278Y-110126968D01*
X168616102Y-110206156D01*
X168444041Y-110321122D01*
X168297723Y-110467440D01*
X168182757Y-110639501D01*
X168103569Y-110830677D01*
X168103567Y-110830685D01*
X168063199Y-111033628D01*
X152900500Y-111033628D01*
X152900500Y-110268076D01*
X152920185Y-110201037D01*
X152972989Y-110155282D01*
X153042147Y-110145338D01*
X153105703Y-110174363D01*
X153143477Y-110233141D01*
X153146117Y-110243885D01*
X153155075Y-110288920D01*
X153155077Y-110288928D01*
X153229019Y-110467440D01*
X153234266Y-110480106D01*
X153243269Y-110493580D01*
X153349231Y-110652165D01*
X153495549Y-110798483D01*
X153495552Y-110798485D01*
X153667609Y-110913449D01*
X153858787Y-110992638D01*
X154042502Y-111029181D01*
X154061737Y-111033007D01*
X154061741Y-111033008D01*
X154061742Y-111033008D01*
X154268673Y-111033008D01*
X154268674Y-111033007D01*
X154471627Y-110992638D01*
X154662805Y-110913449D01*
X154834862Y-110798485D01*
X154981184Y-110652163D01*
X155062714Y-110530141D01*
X155116326Y-110485336D01*
X155118365Y-110484471D01*
X155247594Y-110430943D01*
X155247595Y-110430942D01*
X155247598Y-110430941D01*
X155419655Y-110315977D01*
X155565977Y-110169655D01*
X155680941Y-109997598D01*
X155722805Y-109896530D01*
X173099500Y-109896530D01*
X173099500Y-110103469D01*
X173139868Y-110306412D01*
X173139870Y-110306420D01*
X173219058Y-110497597D01*
X173219059Y-110497598D01*
X173258362Y-110556420D01*
X173260789Y-110560051D01*
X173281667Y-110626728D01*
X173279305Y-110653130D01*
X173270902Y-110695379D01*
X173270902Y-110902315D01*
X173311270Y-111105258D01*
X173311272Y-111105266D01*
X173381952Y-111275903D01*
X173390461Y-111296444D01*
X173400982Y-111312190D01*
X173505426Y-111468503D01*
X173651744Y-111614821D01*
X173651747Y-111614823D01*
X173823804Y-111729787D01*
X174014982Y-111808976D01*
X174193916Y-111844568D01*
X174217932Y-111849345D01*
X174217936Y-111849346D01*
X174217937Y-111849346D01*
X174424868Y-111849346D01*
X174424869Y-111849345D01*
X174627822Y-111808976D01*
X174819000Y-111729787D01*
X174991057Y-111614823D01*
X175137379Y-111468501D01*
X175252343Y-111296444D01*
X175331532Y-111105266D01*
X175371902Y-110902311D01*
X175371902Y-110695381D01*
X175331532Y-110492426D01*
X175270282Y-110344558D01*
X175252344Y-110301250D01*
X175252342Y-110301247D01*
X175210610Y-110238790D01*
X175201441Y-110209509D01*
X175190206Y-110180953D01*
X175190541Y-110174697D01*
X175189733Y-110172115D01*
X175190611Y-110162304D01*
X176685223Y-110162304D01*
X176685223Y-110369243D01*
X176725591Y-110572186D01*
X176725593Y-110572194D01*
X176773424Y-110687669D01*
X176804782Y-110763372D01*
X176849754Y-110830678D01*
X176919747Y-110935431D01*
X177066065Y-111081749D01*
X177066068Y-111081751D01*
X177238125Y-111196715D01*
X177429303Y-111275904D01*
X177632253Y-111316273D01*
X177632257Y-111316274D01*
X177632258Y-111316274D01*
X177839189Y-111316274D01*
X177839190Y-111316273D01*
X178042143Y-111275904D01*
X178233321Y-111196715D01*
X178405378Y-111081751D01*
X178551700Y-110935429D01*
X178666664Y-110763372D01*
X178745853Y-110572194D01*
X178786223Y-110369239D01*
X178786223Y-110162309D01*
X178783084Y-110146530D01*
X180699500Y-110146530D01*
X180699500Y-110353469D01*
X180739867Y-110556412D01*
X180739869Y-110556416D01*
X180739870Y-110556420D01*
X180746404Y-110572194D01*
X180769332Y-110627549D01*
X180776799Y-110697018D01*
X180769332Y-110722451D01*
X180739869Y-110793583D01*
X180739867Y-110793587D01*
X180699500Y-110996530D01*
X180699500Y-111203469D01*
X180739868Y-111406412D01*
X180739870Y-111406420D01*
X180811912Y-111580345D01*
X180819059Y-111597598D01*
X180843846Y-111634694D01*
X180934024Y-111769657D01*
X181080342Y-111915975D01*
X181080345Y-111915977D01*
X181252402Y-112030941D01*
X181443580Y-112110130D01*
X181646530Y-112150499D01*
X181646534Y-112150500D01*
X181646535Y-112150500D01*
X181853466Y-112150500D01*
X181853467Y-112150499D01*
X182056420Y-112110130D01*
X182247598Y-112030941D01*
X182419655Y-111915977D01*
X182565977Y-111769655D01*
X182680941Y-111597598D01*
X182760130Y-111406420D01*
X182800500Y-111203465D01*
X182800500Y-111151919D01*
X182820185Y-111084880D01*
X182872989Y-111039125D01*
X182942147Y-111029181D01*
X183005703Y-111058206D01*
X183039061Y-111104466D01*
X183039869Y-111106418D01*
X183039870Y-111106420D01*
X183077242Y-111196643D01*
X183119059Y-111297599D01*
X183119059Y-111297600D01*
X183222573Y-111452520D01*
X183227751Y-111467870D01*
X183236070Y-111479212D01*
X183240935Y-111506955D01*
X183243235Y-111513771D01*
X183243471Y-111517594D01*
X183243471Y-111677360D01*
X183257768Y-111749242D01*
X183258285Y-111757603D01*
X183252309Y-111783837D01*
X183249910Y-111810645D01*
X183244665Y-111817395D01*
X183242768Y-111825728D01*
X183223556Y-111844568D01*
X183207046Y-111865821D01*
X183197765Y-111869860D01*
X183192883Y-111874649D01*
X183181200Y-111877071D01*
X183158715Y-111886859D01*
X183143583Y-111889869D01*
X183143579Y-111889870D01*
X182952403Y-111969058D01*
X182780342Y-112084024D01*
X182634024Y-112230342D01*
X182519058Y-112402403D01*
X182439870Y-112593579D01*
X182439868Y-112593587D01*
X182399500Y-112796530D01*
X182399500Y-113003469D01*
X182439868Y-113206412D01*
X182439870Y-113206420D01*
X182462117Y-113260130D01*
X182519059Y-113397598D01*
X182553739Y-113449500D01*
X182634024Y-113569657D01*
X182780342Y-113715975D01*
X182780345Y-113715977D01*
X182952402Y-113830941D01*
X183143580Y-113910130D01*
X183346530Y-113950499D01*
X183346534Y-113950500D01*
X183346535Y-113950500D01*
X183553466Y-113950500D01*
X183553467Y-113950499D01*
X183756420Y-113910130D01*
X183947598Y-113830941D01*
X184119275Y-113716231D01*
X187018916Y-113716231D01*
X187018916Y-113923170D01*
X187059284Y-114126113D01*
X187059286Y-114126121D01*
X187138474Y-114317297D01*
X187253440Y-114489358D01*
X187399758Y-114635676D01*
X187399761Y-114635678D01*
X187571818Y-114750642D01*
X187762996Y-114829831D01*
X187936013Y-114864246D01*
X187965946Y-114870200D01*
X187965950Y-114870201D01*
X187965951Y-114870201D01*
X188172882Y-114870201D01*
X188172883Y-114870200D01*
X188375836Y-114829831D01*
X188567014Y-114750642D01*
X188739071Y-114635678D01*
X188885393Y-114489356D01*
X189000357Y-114317299D01*
X189079546Y-114126121D01*
X189119916Y-113923166D01*
X189119916Y-113716236D01*
X189079546Y-113513281D01*
X189000357Y-113322103D01*
X188885393Y-113150046D01*
X188885391Y-113150043D01*
X188739073Y-113003725D01*
X188593456Y-112906428D01*
X188567014Y-112888760D01*
X188375836Y-112809571D01*
X188375828Y-112809569D01*
X188172885Y-112769201D01*
X188172881Y-112769201D01*
X187965951Y-112769201D01*
X187965946Y-112769201D01*
X187763003Y-112809569D01*
X187762995Y-112809571D01*
X187571819Y-112888759D01*
X187399758Y-113003725D01*
X187253440Y-113150043D01*
X187138474Y-113322104D01*
X187059286Y-113513280D01*
X187059284Y-113513288D01*
X187018916Y-113716231D01*
X184119275Y-113716231D01*
X184119655Y-113715977D01*
X184165735Y-113669897D01*
X184213170Y-113622463D01*
X184265974Y-113569658D01*
X184265975Y-113569657D01*
X184265977Y-113569655D01*
X184380941Y-113397598D01*
X184460130Y-113206420D01*
X184500500Y-113003465D01*
X184500500Y-112796535D01*
X184487831Y-112732843D01*
X184494058Y-112663252D01*
X184536921Y-112608075D01*
X184585258Y-112587034D01*
X184600391Y-112584025D01*
X184791569Y-112504836D01*
X184963626Y-112389872D01*
X185109948Y-112243550D01*
X185224912Y-112071493D01*
X185304101Y-111880315D01*
X185344471Y-111677360D01*
X185344471Y-111470430D01*
X185304101Y-111267475D01*
X185224912Y-111076297D01*
X185166109Y-110988292D01*
X185121397Y-110921374D01*
X185100520Y-110854696D01*
X185100500Y-110852484D01*
X185100500Y-110696534D01*
X185100499Y-110696530D01*
X185086777Y-110627546D01*
X185060130Y-110493580D01*
X184980941Y-110302402D01*
X184865977Y-110130345D01*
X184865975Y-110130342D01*
X184719657Y-109984024D01*
X184588719Y-109896535D01*
X184547598Y-109869059D01*
X184484662Y-109842990D01*
X184356420Y-109789870D01*
X184356412Y-109789868D01*
X184153469Y-109749500D01*
X184153465Y-109749500D01*
X183946535Y-109749500D01*
X183946530Y-109749500D01*
X183743587Y-109789868D01*
X183743579Y-109789870D01*
X183552403Y-109869058D01*
X183380342Y-109984024D01*
X183234024Y-110130342D01*
X183119058Y-110302403D01*
X183039870Y-110493579D01*
X183039868Y-110493587D01*
X182999500Y-110696530D01*
X182999500Y-110748080D01*
X182979815Y-110815119D01*
X182927011Y-110860874D01*
X182857853Y-110870818D01*
X182794297Y-110841793D01*
X182760940Y-110795534D01*
X182730668Y-110722454D01*
X182723198Y-110652985D01*
X182730663Y-110627556D01*
X182760130Y-110556420D01*
X182800500Y-110353465D01*
X182800500Y-110146535D01*
X182760130Y-109943580D01*
X182680941Y-109752402D01*
X182565977Y-109580345D01*
X182565975Y-109580342D01*
X182419657Y-109434024D01*
X182293156Y-109349500D01*
X182247598Y-109319059D01*
X182232615Y-109312853D01*
X182056420Y-109239870D01*
X182056412Y-109239868D01*
X181853469Y-109199500D01*
X181853465Y-109199500D01*
X181646535Y-109199500D01*
X181646530Y-109199500D01*
X181443587Y-109239868D01*
X181443579Y-109239870D01*
X181252403Y-109319058D01*
X181080342Y-109434024D01*
X180934024Y-109580342D01*
X180819058Y-109752403D01*
X180739870Y-109943579D01*
X180739868Y-109943587D01*
X180699500Y-110146530D01*
X178783084Y-110146530D01*
X178745853Y-109959354D01*
X178666664Y-109768176D01*
X178551700Y-109596119D01*
X178551698Y-109596116D01*
X178405380Y-109449798D01*
X178277920Y-109364633D01*
X178233321Y-109334833D01*
X178195239Y-109319059D01*
X178042143Y-109255644D01*
X178042135Y-109255642D01*
X177839192Y-109215274D01*
X177839188Y-109215274D01*
X177632258Y-109215274D01*
X177632253Y-109215274D01*
X177429310Y-109255642D01*
X177429302Y-109255644D01*
X177238126Y-109334832D01*
X177066065Y-109449798D01*
X176919747Y-109596116D01*
X176804781Y-109768177D01*
X176725593Y-109959353D01*
X176725591Y-109959361D01*
X176685223Y-110162304D01*
X175190611Y-110162304D01*
X175192095Y-110145717D01*
X175200186Y-110105046D01*
X175200500Y-110103467D01*
X175200500Y-109896534D01*
X175200499Y-109896530D01*
X175195035Y-109869059D01*
X175160130Y-109693580D01*
X175080941Y-109502402D01*
X174965977Y-109330345D01*
X174965975Y-109330342D01*
X174819657Y-109184024D01*
X174649777Y-109070515D01*
X174647598Y-109069059D01*
X174456420Y-108989870D01*
X174456412Y-108989868D01*
X174253469Y-108949500D01*
X174253465Y-108949500D01*
X174046535Y-108949500D01*
X174046530Y-108949500D01*
X173843587Y-108989868D01*
X173843579Y-108989870D01*
X173652403Y-109069058D01*
X173480342Y-109184024D01*
X173334024Y-109330342D01*
X173219058Y-109502403D01*
X173139870Y-109693579D01*
X173139868Y-109693587D01*
X173099500Y-109896530D01*
X155722805Y-109896530D01*
X155760130Y-109806420D01*
X155800500Y-109603465D01*
X155800500Y-109396535D01*
X155760130Y-109193580D01*
X155680941Y-109002402D01*
X155565977Y-108830345D01*
X155565975Y-108830342D01*
X155419657Y-108684024D01*
X155360255Y-108644333D01*
X155247598Y-108569059D01*
X155247599Y-108569059D01*
X155247597Y-108569058D01*
X155072499Y-108496530D01*
X160881492Y-108496530D01*
X160881492Y-108703469D01*
X160921860Y-108906412D01*
X160921862Y-108906420D01*
X161001050Y-109097596D01*
X161116016Y-109269657D01*
X161262334Y-109415975D01*
X161262337Y-109415977D01*
X161434394Y-109530941D01*
X161625572Y-109610130D01*
X161828522Y-109650499D01*
X161828526Y-109650500D01*
X161828527Y-109650500D01*
X162035458Y-109650500D01*
X162035459Y-109650499D01*
X162238412Y-109610130D01*
X162429590Y-109530941D01*
X162601647Y-109415977D01*
X162747969Y-109269655D01*
X162862933Y-109097598D01*
X162942122Y-108906420D01*
X162982492Y-108703465D01*
X162982492Y-108496535D01*
X162942122Y-108293580D01*
X162862933Y-108102402D01*
X162747969Y-107930345D01*
X162747967Y-107930342D01*
X162601649Y-107784024D01*
X162515618Y-107726541D01*
X162429590Y-107669059D01*
X162394055Y-107654340D01*
X162238412Y-107589870D01*
X162238404Y-107589868D01*
X162035461Y-107549500D01*
X162035457Y-107549500D01*
X161828527Y-107549500D01*
X161828522Y-107549500D01*
X161625579Y-107589868D01*
X161625571Y-107589870D01*
X161434395Y-107669058D01*
X161262334Y-107784024D01*
X161116016Y-107930342D01*
X161001050Y-108102403D01*
X160921862Y-108293579D01*
X160921860Y-108293587D01*
X160881492Y-108496530D01*
X155072499Y-108496530D01*
X155056420Y-108489870D01*
X155056412Y-108489868D01*
X154853469Y-108449500D01*
X154853465Y-108449500D01*
X154646535Y-108449500D01*
X154646530Y-108449500D01*
X154443587Y-108489868D01*
X154443579Y-108489870D01*
X154252403Y-108569058D01*
X154080342Y-108684024D01*
X153934025Y-108830341D01*
X153934022Y-108830345D01*
X153852491Y-108952365D01*
X153798879Y-108997170D01*
X153796843Y-108998035D01*
X153667609Y-109051567D01*
X153667602Y-109051570D01*
X153495551Y-109166530D01*
X153349231Y-109312850D01*
X153234265Y-109484911D01*
X153155077Y-109676087D01*
X153155075Y-109676095D01*
X153114707Y-109879038D01*
X153114707Y-109896344D01*
X153095022Y-109963383D01*
X153042218Y-110009138D01*
X152973060Y-110019082D01*
X152909504Y-109990057D01*
X152873666Y-109937299D01*
X152825790Y-109800480D01*
X152825789Y-109800478D01*
X152729816Y-109647738D01*
X152602262Y-109520184D01*
X152573962Y-109502402D01*
X152449523Y-109424211D01*
X152279254Y-109364631D01*
X152279249Y-109364630D01*
X152144960Y-109349500D01*
X152144954Y-109349500D01*
X150355046Y-109349500D01*
X150355039Y-109349500D01*
X150220750Y-109364630D01*
X150220739Y-109364633D01*
X150165453Y-109383978D01*
X150095674Y-109387539D01*
X150035047Y-109352809D01*
X150002821Y-109290816D01*
X150000500Y-109266936D01*
X150000500Y-107396530D01*
X176099500Y-107396530D01*
X176099500Y-107603469D01*
X176139868Y-107806412D01*
X176139870Y-107806420D01*
X176219058Y-107997596D01*
X176334024Y-108169657D01*
X176480342Y-108315975D01*
X176480345Y-108315977D01*
X176652402Y-108430941D01*
X176843580Y-108510130D01*
X177046530Y-108550499D01*
X177046534Y-108550500D01*
X177046535Y-108550500D01*
X177253466Y-108550500D01*
X177253466Y-108550499D01*
X177424249Y-108516529D01*
X177493840Y-108522756D01*
X177495872Y-108523576D01*
X177586231Y-108561005D01*
X177749822Y-108593545D01*
X177789181Y-108601374D01*
X177789185Y-108601375D01*
X177789186Y-108601375D01*
X177996117Y-108601375D01*
X177996118Y-108601374D01*
X178199071Y-108561005D01*
X178390249Y-108481816D01*
X178562306Y-108366852D01*
X178708628Y-108220530D01*
X178823592Y-108048473D01*
X178902781Y-107857295D01*
X178943151Y-107654340D01*
X178943151Y-107564762D01*
X185208593Y-107564762D01*
X185208593Y-107771701D01*
X185248961Y-107974644D01*
X185248963Y-107974652D01*
X185301879Y-108102403D01*
X185328152Y-108165830D01*
X185385634Y-108251858D01*
X185443117Y-108337889D01*
X185589435Y-108484207D01*
X185589438Y-108484209D01*
X185761495Y-108599173D01*
X185952673Y-108678362D01*
X186155623Y-108718731D01*
X186155627Y-108718732D01*
X186155628Y-108718732D01*
X186362559Y-108718732D01*
X186362560Y-108718731D01*
X186565513Y-108678362D01*
X186756691Y-108599173D01*
X186928748Y-108484209D01*
X187075070Y-108337887D01*
X187190034Y-108165830D01*
X187269223Y-107974652D01*
X187309593Y-107771697D01*
X187309593Y-107564767D01*
X187269223Y-107361812D01*
X187190034Y-107170634D01*
X187075070Y-106998577D01*
X187075068Y-106998574D01*
X186928750Y-106852256D01*
X186788961Y-106758853D01*
X186756691Y-106737291D01*
X186750916Y-106734899D01*
X186565513Y-106658102D01*
X186565505Y-106658100D01*
X186362562Y-106617732D01*
X186362558Y-106617732D01*
X186155628Y-106617732D01*
X186155623Y-106617732D01*
X185952680Y-106658100D01*
X185952672Y-106658102D01*
X185761496Y-106737290D01*
X185589435Y-106852256D01*
X185443117Y-106998574D01*
X185328151Y-107170635D01*
X185248963Y-107361811D01*
X185248961Y-107361819D01*
X185208593Y-107564762D01*
X178943151Y-107564762D01*
X178943151Y-107447410D01*
X178902781Y-107244455D01*
X178823592Y-107053277D01*
X178708628Y-106881220D01*
X178708626Y-106881217D01*
X178562308Y-106734899D01*
X178414256Y-106635975D01*
X178390249Y-106619934D01*
X178310247Y-106586796D01*
X178199071Y-106540745D01*
X178199063Y-106540743D01*
X177996120Y-106500375D01*
X177996116Y-106500375D01*
X177789186Y-106500375D01*
X177789181Y-106500375D01*
X177618401Y-106534345D01*
X177548809Y-106528118D01*
X177546757Y-106527289D01*
X177456420Y-106489870D01*
X177456412Y-106489868D01*
X177253469Y-106449500D01*
X177253465Y-106449500D01*
X177046535Y-106449500D01*
X177046530Y-106449500D01*
X176843587Y-106489868D01*
X176843579Y-106489870D01*
X176652403Y-106569058D01*
X176480342Y-106684024D01*
X176334024Y-106830342D01*
X176219058Y-107002403D01*
X176139870Y-107193579D01*
X176139868Y-107193587D01*
X176099500Y-107396530D01*
X150000500Y-107396530D01*
X150000500Y-105716530D01*
X160919500Y-105716530D01*
X160919500Y-105923469D01*
X160959868Y-106126412D01*
X160959870Y-106126420D01*
X161033206Y-106303469D01*
X161039059Y-106317598D01*
X161091185Y-106395610D01*
X161154024Y-106489657D01*
X161300342Y-106635975D01*
X161300345Y-106635977D01*
X161472402Y-106750941D01*
X161663580Y-106830130D01*
X161862287Y-106869655D01*
X161866530Y-106870499D01*
X161866534Y-106870500D01*
X161866535Y-106870500D01*
X162073466Y-106870500D01*
X162073467Y-106870499D01*
X162276420Y-106830130D01*
X162467598Y-106750941D01*
X162639655Y-106635977D01*
X162785977Y-106489655D01*
X162900941Y-106317598D01*
X162980130Y-106126420D01*
X163008116Y-105985728D01*
X168552745Y-105985728D01*
X168552745Y-106192667D01*
X168593113Y-106395610D01*
X168593115Y-106395618D01*
X168664956Y-106569058D01*
X168672304Y-106586796D01*
X168719949Y-106658102D01*
X168787269Y-106758855D01*
X168933587Y-106905173D01*
X168933590Y-106905175D01*
X169105647Y-107020139D01*
X169296825Y-107099328D01*
X169499775Y-107139697D01*
X169499779Y-107139698D01*
X169499780Y-107139698D01*
X169706711Y-107139698D01*
X169706712Y-107139697D01*
X169909665Y-107099328D01*
X170092534Y-107023580D01*
X170162000Y-107016112D01*
X170208874Y-107035040D01*
X170352400Y-107130940D01*
X170352401Y-107130940D01*
X170352402Y-107130941D01*
X170543580Y-107210130D01*
X170716140Y-107244454D01*
X170746530Y-107250499D01*
X170746534Y-107250500D01*
X170746535Y-107250500D01*
X170953466Y-107250500D01*
X170953467Y-107250499D01*
X171156420Y-107210130D01*
X171347598Y-107130941D01*
X171519655Y-107015977D01*
X171665977Y-106869655D01*
X171780941Y-106697598D01*
X171860130Y-106506420D01*
X171900500Y-106303465D01*
X171900500Y-106296530D01*
X189299500Y-106296530D01*
X189299500Y-106503469D01*
X189339868Y-106706412D01*
X189339870Y-106706420D01*
X189409891Y-106875466D01*
X189419059Y-106897598D01*
X189424122Y-106905175D01*
X189534024Y-107069657D01*
X189680342Y-107215975D01*
X189680345Y-107215977D01*
X189852402Y-107330941D01*
X190043580Y-107410130D01*
X190246530Y-107450499D01*
X190246534Y-107450500D01*
X190246535Y-107450500D01*
X190453466Y-107450500D01*
X190501476Y-107440950D01*
X190532780Y-107434723D01*
X190602371Y-107440950D01*
X190657549Y-107483812D01*
X190674903Y-107518021D01*
X190727281Y-107679223D01*
X190774400Y-107771697D01*
X190818014Y-107857295D01*
X190820215Y-107861613D01*
X190940528Y-108027213D01*
X191085286Y-108171971D01*
X191240249Y-108284556D01*
X191250890Y-108292287D01*
X191340385Y-108337887D01*
X191433276Y-108385218D01*
X191433278Y-108385218D01*
X191433281Y-108385220D01*
X191535645Y-108418480D01*
X191627965Y-108448477D01*
X191729057Y-108464488D01*
X191830148Y-108480500D01*
X192283000Y-108480500D01*
X192350039Y-108500185D01*
X192395794Y-108552989D01*
X192407000Y-108604500D01*
X192407000Y-108685766D01*
X192415833Y-108718731D01*
X192446219Y-108832136D01*
X192484102Y-108897750D01*
X192521985Y-108963365D01*
X192629135Y-109070515D01*
X192760365Y-109146281D01*
X192906734Y-109185500D01*
X192906736Y-109185500D01*
X193058264Y-109185500D01*
X193058266Y-109185500D01*
X193204635Y-109146281D01*
X193335865Y-109070515D01*
X193443015Y-108963365D01*
X193518781Y-108832135D01*
X193558000Y-108685766D01*
X193558000Y-108534234D01*
X193545699Y-108488325D01*
X193547362Y-108418480D01*
X193586524Y-108360618D01*
X193609175Y-108345753D01*
X193714110Y-108292287D01*
X193812876Y-108220530D01*
X193879713Y-108171971D01*
X193879715Y-108171968D01*
X193879719Y-108171966D01*
X194024466Y-108027219D01*
X194024468Y-108027215D01*
X194024471Y-108027213D01*
X194077232Y-107954590D01*
X194144787Y-107861610D01*
X194237720Y-107679219D01*
X194300977Y-107484534D01*
X194333000Y-107282352D01*
X194333000Y-107077648D01*
X194962000Y-107077648D01*
X194962000Y-107282351D01*
X194994022Y-107484534D01*
X195057281Y-107679223D01*
X195104400Y-107771697D01*
X195148014Y-107857295D01*
X195150215Y-107861613D01*
X195270528Y-108027213D01*
X195415286Y-108171971D01*
X195570249Y-108284556D01*
X195580890Y-108292287D01*
X195670385Y-108337887D01*
X195763276Y-108385218D01*
X195763278Y-108385218D01*
X195763281Y-108385220D01*
X195865645Y-108418480D01*
X195957965Y-108448477D01*
X196059057Y-108464488D01*
X196160148Y-108480500D01*
X196160149Y-108480500D01*
X197164851Y-108480500D01*
X197164852Y-108480500D01*
X197367034Y-108448477D01*
X197561719Y-108385220D01*
X197744110Y-108292287D01*
X197842876Y-108220530D01*
X197909713Y-108171971D01*
X197909715Y-108171968D01*
X197909719Y-108171966D01*
X198054466Y-108027219D01*
X198054468Y-108027215D01*
X198054471Y-108027213D01*
X198107232Y-107954590D01*
X198174787Y-107861610D01*
X198267720Y-107679219D01*
X198330977Y-107484534D01*
X198363000Y-107282352D01*
X198363000Y-107077648D01*
X198356251Y-107035040D01*
X198330977Y-106875465D01*
X198285304Y-106734898D01*
X198267720Y-106680781D01*
X198267718Y-106680778D01*
X198267718Y-106680776D01*
X198219831Y-106586794D01*
X198174787Y-106498390D01*
X198139267Y-106449500D01*
X198054471Y-106332786D01*
X197909713Y-106188028D01*
X197744113Y-106067715D01*
X197744112Y-106067714D01*
X197744110Y-106067713D01*
X197662754Y-106026260D01*
X197561723Y-105974781D01*
X197367034Y-105911522D01*
X197192495Y-105883878D01*
X197164852Y-105879500D01*
X196160148Y-105879500D01*
X196135829Y-105883351D01*
X195957965Y-105911522D01*
X195763276Y-105974781D01*
X195580886Y-106067715D01*
X195415286Y-106188028D01*
X195270528Y-106332786D01*
X195150215Y-106498386D01*
X195057281Y-106680776D01*
X194994022Y-106875465D01*
X194962000Y-107077648D01*
X194333000Y-107077648D01*
X194326251Y-107035040D01*
X194300977Y-106875465D01*
X194255304Y-106734898D01*
X194237720Y-106680781D01*
X194237718Y-106680778D01*
X194237718Y-106680776D01*
X194189831Y-106586794D01*
X194144787Y-106498390D01*
X194109267Y-106449500D01*
X194024471Y-106332786D01*
X193879713Y-106188028D01*
X193714113Y-106067715D01*
X193714112Y-106067714D01*
X193714110Y-106067713D01*
X193632754Y-106026260D01*
X193531723Y-105974781D01*
X193337034Y-105911522D01*
X193162495Y-105883878D01*
X193134852Y-105879500D01*
X191830148Y-105879500D01*
X191762754Y-105890174D01*
X191627964Y-105911523D01*
X191627961Y-105911523D01*
X191434449Y-105974399D01*
X191364607Y-105976394D01*
X191304775Y-105940313D01*
X191283974Y-105907689D01*
X191283814Y-105907776D01*
X191282695Y-105905682D01*
X191281568Y-105903915D01*
X191280942Y-105902404D01*
X191275045Y-105893579D01*
X191165977Y-105730345D01*
X191165975Y-105730342D01*
X191019657Y-105584024D01*
X190914227Y-105513579D01*
X190847598Y-105469059D01*
X190656420Y-105389870D01*
X190656412Y-105389868D01*
X190453469Y-105349500D01*
X190453465Y-105349500D01*
X190246535Y-105349500D01*
X190246530Y-105349500D01*
X190043587Y-105389868D01*
X190043579Y-105389870D01*
X189852403Y-105469058D01*
X189680342Y-105584024D01*
X189534024Y-105730342D01*
X189419058Y-105902403D01*
X189339870Y-106093579D01*
X189339868Y-106093587D01*
X189299500Y-106296530D01*
X171900500Y-106296530D01*
X171900500Y-106096535D01*
X171860130Y-105893580D01*
X171780941Y-105702402D01*
X171665977Y-105530345D01*
X171665975Y-105530342D01*
X171519657Y-105384024D01*
X171433626Y-105326541D01*
X171347598Y-105269059D01*
X171156420Y-105189870D01*
X171156412Y-105189868D01*
X170953469Y-105149500D01*
X170953465Y-105149500D01*
X170746535Y-105149500D01*
X170746530Y-105149500D01*
X170543587Y-105189868D01*
X170543579Y-105189870D01*
X170360713Y-105265616D01*
X170291243Y-105273085D01*
X170244370Y-105254158D01*
X170159718Y-105197596D01*
X170100843Y-105158257D01*
X169909665Y-105079068D01*
X169909657Y-105079066D01*
X169706714Y-105038698D01*
X169706710Y-105038698D01*
X169499780Y-105038698D01*
X169499775Y-105038698D01*
X169296832Y-105079066D01*
X169296824Y-105079068D01*
X169105648Y-105158256D01*
X168933587Y-105273222D01*
X168787269Y-105419540D01*
X168672303Y-105591601D01*
X168593115Y-105782777D01*
X168593113Y-105782785D01*
X168552745Y-105985728D01*
X163008116Y-105985728D01*
X163010369Y-105974399D01*
X163014138Y-105955450D01*
X163014138Y-105955449D01*
X163020500Y-105923465D01*
X163020500Y-105716535D01*
X162980130Y-105513580D01*
X162900941Y-105322402D01*
X162785977Y-105150345D01*
X162785975Y-105150342D01*
X162639657Y-105004024D01*
X162523678Y-104926530D01*
X162467598Y-104889059D01*
X162276420Y-104809870D01*
X162276412Y-104809868D01*
X162073469Y-104769500D01*
X162073465Y-104769500D01*
X161866535Y-104769500D01*
X161866530Y-104769500D01*
X161663587Y-104809868D01*
X161663579Y-104809870D01*
X161472403Y-104889058D01*
X161300342Y-105004024D01*
X161154024Y-105150342D01*
X161039058Y-105322403D01*
X160959870Y-105513579D01*
X160959868Y-105513587D01*
X160919500Y-105716530D01*
X150000500Y-105716530D01*
X150000500Y-104596530D01*
X179799500Y-104596530D01*
X179799500Y-104803469D01*
X179839868Y-105006412D01*
X179839870Y-105006420D01*
X179919058Y-105197596D01*
X180034024Y-105369657D01*
X180180342Y-105515975D01*
X180180345Y-105515977D01*
X180352402Y-105630941D01*
X180543580Y-105710130D01*
X180550278Y-105711462D01*
X180612190Y-105743846D01*
X180629190Y-105764188D01*
X180630466Y-105766098D01*
X180630471Y-105766104D01*
X180776788Y-105912421D01*
X180776791Y-105912423D01*
X180948848Y-106027387D01*
X181140026Y-106106576D01*
X181342976Y-106146945D01*
X181342980Y-106146946D01*
X181342981Y-106146946D01*
X181549912Y-106146946D01*
X181549913Y-106146945D01*
X181752866Y-106106576D01*
X181944044Y-106027387D01*
X182027431Y-105971669D01*
X182094106Y-105950791D01*
X182137545Y-105959030D01*
X182137749Y-105958361D01*
X182143572Y-105960126D01*
X182143580Y-105960130D01*
X182272271Y-105985728D01*
X182346530Y-106000499D01*
X182346534Y-106000500D01*
X182346535Y-106000500D01*
X182553466Y-106000500D01*
X182553467Y-106000499D01*
X182756420Y-105960130D01*
X182947598Y-105880941D01*
X183119655Y-105765977D01*
X183265977Y-105619655D01*
X183380941Y-105447598D01*
X183460130Y-105256420D01*
X183500500Y-105053465D01*
X183500500Y-104926530D01*
X187269500Y-104926530D01*
X187269500Y-105133469D01*
X187309868Y-105336412D01*
X187309870Y-105336420D01*
X187384244Y-105515975D01*
X187389059Y-105527598D01*
X187431824Y-105591601D01*
X187504024Y-105699657D01*
X187650342Y-105845975D01*
X187650345Y-105845977D01*
X187822402Y-105960941D01*
X188013580Y-106040130D01*
X188216530Y-106080499D01*
X188216534Y-106080500D01*
X188216535Y-106080500D01*
X188423466Y-106080500D01*
X188423467Y-106080499D01*
X188626420Y-106040130D01*
X188817598Y-105960941D01*
X188989655Y-105845977D01*
X189135977Y-105699655D01*
X189250941Y-105527598D01*
X189330130Y-105336420D01*
X189370500Y-105133465D01*
X189370500Y-104926535D01*
X189330130Y-104723580D01*
X189250941Y-104532402D01*
X189135977Y-104360345D01*
X189135975Y-104360342D01*
X188989657Y-104214024D01*
X188903626Y-104156541D01*
X188817598Y-104099059D01*
X188651701Y-104030342D01*
X188626420Y-104019870D01*
X188626412Y-104019868D01*
X188423469Y-103979500D01*
X188423465Y-103979500D01*
X188216535Y-103979500D01*
X188216530Y-103979500D01*
X188013587Y-104019868D01*
X188013579Y-104019870D01*
X187822403Y-104099058D01*
X187650342Y-104214024D01*
X187504024Y-104360342D01*
X187389058Y-104532403D01*
X187309870Y-104723579D01*
X187309868Y-104723587D01*
X187269500Y-104926530D01*
X183500500Y-104926530D01*
X183500500Y-104846535D01*
X183460130Y-104643580D01*
X183380941Y-104452402D01*
X183265977Y-104280345D01*
X183265975Y-104280342D01*
X183119655Y-104134022D01*
X182942533Y-104015674D01*
X182943905Y-104013619D01*
X182901803Y-103972229D01*
X182895564Y-103959330D01*
X182864371Y-103884024D01*
X182824596Y-103787998D01*
X182709632Y-103615941D01*
X182709630Y-103615938D01*
X182563312Y-103469620D01*
X182477281Y-103412137D01*
X182391253Y-103354655D01*
X182321504Y-103325764D01*
X182200075Y-103275466D01*
X182200067Y-103275464D01*
X181997124Y-103235096D01*
X181997120Y-103235096D01*
X181790190Y-103235096D01*
X181790185Y-103235096D01*
X181587242Y-103275464D01*
X181587234Y-103275466D01*
X181396058Y-103354654D01*
X181223999Y-103469619D01*
X181075944Y-103617674D01*
X181014621Y-103651158D01*
X180964074Y-103651610D01*
X180953465Y-103649500D01*
X180746535Y-103649500D01*
X180746530Y-103649500D01*
X180543587Y-103689868D01*
X180543579Y-103689870D01*
X180352403Y-103769058D01*
X180180342Y-103884024D01*
X180034024Y-104030342D01*
X179919058Y-104202403D01*
X179839870Y-104393579D01*
X179839868Y-104393587D01*
X179799500Y-104596530D01*
X150000500Y-104596530D01*
X150000500Y-103255679D01*
X172037946Y-103255679D01*
X172037946Y-103462618D01*
X172078314Y-103665561D01*
X172078316Y-103665569D01*
X172157504Y-103856745D01*
X172272470Y-104028806D01*
X172418788Y-104175124D01*
X172418791Y-104175126D01*
X172590848Y-104290090D01*
X172782026Y-104369279D01*
X172984976Y-104409648D01*
X172984980Y-104409649D01*
X172984981Y-104409649D01*
X173191912Y-104409649D01*
X173191913Y-104409648D01*
X173394866Y-104369279D01*
X173586044Y-104290090D01*
X173758101Y-104175126D01*
X173904423Y-104028804D01*
X174019387Y-103856747D01*
X174098576Y-103665569D01*
X174138946Y-103462614D01*
X174138946Y-103255684D01*
X174138946Y-103255681D01*
X174106222Y-103091172D01*
X174112449Y-103021580D01*
X174113226Y-103019653D01*
X174160130Y-102906420D01*
X174200500Y-102703465D01*
X174201689Y-102697490D01*
X174203052Y-102697761D01*
X174206257Y-102689822D01*
X192924499Y-102689822D01*
X192933231Y-102733717D01*
X192933234Y-102733724D01*
X192966495Y-102783503D01*
X192969732Y-102785666D01*
X193014538Y-102839278D01*
X193023247Y-102908602D01*
X193008230Y-102950769D01*
X192963720Y-103027861D01*
X192963720Y-103027862D01*
X192963719Y-103027864D01*
X192963719Y-103027865D01*
X192924500Y-103174234D01*
X192924500Y-103325766D01*
X192932241Y-103354655D01*
X192963719Y-103472136D01*
X193001602Y-103537750D01*
X193039485Y-103603365D01*
X193039487Y-103603367D01*
X193098439Y-103662319D01*
X193131924Y-103723642D01*
X193126940Y-103793334D01*
X193098439Y-103837681D01*
X193039487Y-103896632D01*
X193039485Y-103896635D01*
X192963719Y-104027863D01*
X192963055Y-104030342D01*
X192924500Y-104174234D01*
X192924500Y-104325766D01*
X192942672Y-104393587D01*
X192963719Y-104472136D01*
X192998514Y-104532402D01*
X193039485Y-104603365D01*
X193146635Y-104710515D01*
X193277865Y-104786281D01*
X193424234Y-104825500D01*
X193424236Y-104825500D01*
X193575764Y-104825500D01*
X193575766Y-104825500D01*
X193722135Y-104786281D01*
X193853365Y-104710515D01*
X193960515Y-104603365D01*
X194036281Y-104472135D01*
X194075500Y-104325766D01*
X194075500Y-104174234D01*
X194036281Y-104027865D01*
X194029242Y-104015674D01*
X193996712Y-103959330D01*
X193960515Y-103896635D01*
X193901561Y-103837681D01*
X193868076Y-103776358D01*
X193873060Y-103706666D01*
X193901561Y-103662319D01*
X193914380Y-103649500D01*
X193960515Y-103603365D01*
X194036281Y-103472135D01*
X194075500Y-103325766D01*
X194075500Y-103174234D01*
X194036281Y-103027865D01*
X194032652Y-103021580D01*
X193991770Y-102950770D01*
X193975296Y-102882870D01*
X193998148Y-102816843D01*
X194030267Y-102785666D01*
X194033504Y-102783504D01*
X194066767Y-102733722D01*
X194072786Y-102703465D01*
X194075500Y-102689822D01*
X194075500Y-101810177D01*
X194066768Y-101766282D01*
X194066767Y-101766281D01*
X194066767Y-101766278D01*
X194033504Y-101716496D01*
X194033503Y-101716495D01*
X193983724Y-101683234D01*
X193983717Y-101683231D01*
X193939822Y-101674500D01*
X193939820Y-101674500D01*
X193060180Y-101674500D01*
X193060178Y-101674500D01*
X193016282Y-101683231D01*
X193016275Y-101683234D01*
X192966496Y-101716495D01*
X192966495Y-101716496D01*
X192933234Y-101766275D01*
X192933231Y-101766282D01*
X192924500Y-101810177D01*
X192924500Y-101810180D01*
X192924500Y-102689820D01*
X192924500Y-102689822D01*
X192924499Y-102689822D01*
X174206257Y-102689822D01*
X174226574Y-102639494D01*
X174276368Y-102601866D01*
X174447598Y-102530941D01*
X174619655Y-102415977D01*
X174619658Y-102415974D01*
X174650328Y-102385305D01*
X174711651Y-102351820D01*
X174738009Y-102348986D01*
X174804111Y-102348986D01*
X174804112Y-102348985D01*
X175007065Y-102308616D01*
X175198243Y-102229427D01*
X175370300Y-102114463D01*
X175516622Y-101968141D01*
X175631586Y-101796084D01*
X175710775Y-101604906D01*
X175751145Y-101401951D01*
X175751145Y-101195021D01*
X175710775Y-100992066D01*
X175631586Y-100800888D01*
X175516622Y-100628831D01*
X175516620Y-100628828D01*
X175370302Y-100482510D01*
X175241622Y-100396530D01*
X175198243Y-100367545D01*
X175007065Y-100288356D01*
X175007057Y-100288354D01*
X174804114Y-100247986D01*
X174804110Y-100247986D01*
X174597180Y-100247986D01*
X174597175Y-100247986D01*
X174394232Y-100288354D01*
X174394224Y-100288356D01*
X174203048Y-100367544D01*
X174030987Y-100482510D01*
X174030986Y-100482511D01*
X174000317Y-100513181D01*
X173938994Y-100546666D01*
X173912636Y-100549500D01*
X173846530Y-100549500D01*
X173643587Y-100589868D01*
X173643579Y-100589870D01*
X173452403Y-100669058D01*
X173280342Y-100784024D01*
X173134024Y-100930342D01*
X173019058Y-101102403D01*
X172939870Y-101293579D01*
X172939868Y-101293587D01*
X172898311Y-101502510D01*
X172896952Y-101502239D01*
X172873409Y-101560525D01*
X172823629Y-101598133D01*
X172652404Y-101669057D01*
X172480342Y-101784024D01*
X172334024Y-101930342D01*
X172219058Y-102102403D01*
X172139870Y-102293579D01*
X172139868Y-102293587D01*
X172099500Y-102496530D01*
X172099500Y-102496535D01*
X172099500Y-102703465D01*
X172132223Y-102867977D01*
X172125995Y-102937569D01*
X172125174Y-102939601D01*
X172078316Y-103052729D01*
X172078315Y-103052733D01*
X172078314Y-103052736D01*
X172078313Y-103052736D01*
X172037946Y-103255679D01*
X150000500Y-103255679D01*
X150000500Y-100995679D01*
X150020185Y-100928640D01*
X150072989Y-100882885D01*
X150142147Y-100872941D01*
X150197383Y-100895360D01*
X150384949Y-101031634D01*
X150494312Y-101087357D01*
X150616423Y-101149577D01*
X150616425Y-101149577D01*
X150616428Y-101149579D01*
X150863507Y-101229860D01*
X150995706Y-101250797D01*
X151120098Y-101270500D01*
X151120103Y-101270500D01*
X151379902Y-101270500D01*
X151493298Y-101252539D01*
X151636493Y-101229860D01*
X151883572Y-101149579D01*
X152115051Y-101031634D01*
X152325229Y-100878931D01*
X152508931Y-100695229D01*
X152661634Y-100485051D01*
X152779579Y-100253572D01*
X152859860Y-100006493D01*
X152882539Y-99863298D01*
X152899450Y-99756530D01*
X158099500Y-99756530D01*
X158099500Y-99963469D01*
X158139868Y-100166412D01*
X158139870Y-100166420D01*
X158199394Y-100310124D01*
X158219059Y-100357598D01*
X158334023Y-100529655D01*
X158433248Y-100628880D01*
X158466732Y-100690201D01*
X158467183Y-100692368D01*
X158489868Y-100806414D01*
X158489870Y-100806420D01*
X158566767Y-100992066D01*
X158569059Y-100997598D01*
X158603681Y-101049414D01*
X158684024Y-101169657D01*
X158830342Y-101315975D01*
X158830345Y-101315977D01*
X159002402Y-101430941D01*
X159193580Y-101510130D01*
X159396530Y-101550499D01*
X159396534Y-101550500D01*
X159396535Y-101550500D01*
X159603466Y-101550500D01*
X159603467Y-101550499D01*
X159806420Y-101510130D01*
X159997598Y-101430941D01*
X160169655Y-101315977D01*
X160315977Y-101169655D01*
X160430941Y-100997598D01*
X160510130Y-100806420D01*
X160550500Y-100603465D01*
X160550500Y-100396535D01*
X160510130Y-100193580D01*
X160430941Y-100002402D01*
X160315977Y-99830345D01*
X160216749Y-99731117D01*
X160183266Y-99669797D01*
X160182844Y-99667773D01*
X160160130Y-99553580D01*
X160080941Y-99362402D01*
X159965977Y-99190345D01*
X159965975Y-99190342D01*
X159819657Y-99044024D01*
X159733450Y-98986423D01*
X159647598Y-98929059D01*
X159508192Y-98871315D01*
X159456420Y-98849870D01*
X159456412Y-98849868D01*
X159253469Y-98809500D01*
X159253465Y-98809500D01*
X159046535Y-98809500D01*
X159046530Y-98809500D01*
X158843587Y-98849868D01*
X158843579Y-98849870D01*
X158652403Y-98929058D01*
X158480342Y-99044024D01*
X158334024Y-99190342D01*
X158219058Y-99362403D01*
X158139870Y-99553579D01*
X158139868Y-99553587D01*
X158099500Y-99756530D01*
X152899450Y-99756530D01*
X152900500Y-99749902D01*
X152900500Y-99490097D01*
X152872922Y-99315978D01*
X152859860Y-99233507D01*
X152779579Y-98986428D01*
X152779577Y-98986425D01*
X152779577Y-98986423D01*
X152718495Y-98866545D01*
X152661634Y-98754949D01*
X152653262Y-98743426D01*
X152595454Y-98663859D01*
X152595452Y-98663857D01*
X152585747Y-98650499D01*
X152546920Y-98597058D01*
X166337864Y-98597058D01*
X166337864Y-98803997D01*
X166378232Y-99006940D01*
X166378234Y-99006948D01*
X166457422Y-99198124D01*
X166572388Y-99370185D01*
X166592838Y-99390635D01*
X166626323Y-99451958D01*
X166621339Y-99521650D01*
X166608260Y-99547206D01*
X166500112Y-99709062D01*
X166420924Y-99900238D01*
X166420922Y-99900246D01*
X166380554Y-100103189D01*
X166380554Y-100310128D01*
X166420922Y-100513071D01*
X166420924Y-100513079D01*
X166479907Y-100655477D01*
X166500113Y-100704257D01*
X166553411Y-100784023D01*
X166615078Y-100876316D01*
X166761396Y-101022634D01*
X166761399Y-101022636D01*
X166933456Y-101137600D01*
X167124634Y-101216789D01*
X167190342Y-101229859D01*
X167263083Y-101244328D01*
X167324994Y-101276712D01*
X167359568Y-101337428D01*
X167360509Y-101341753D01*
X167383889Y-101459293D01*
X167383891Y-101459299D01*
X167437975Y-101589870D01*
X167463080Y-101650477D01*
X167507192Y-101716495D01*
X167578045Y-101822536D01*
X167724363Y-101968854D01*
X167724366Y-101968856D01*
X167896423Y-102083820D01*
X168087601Y-102163009D01*
X168290551Y-102203378D01*
X168290555Y-102203379D01*
X168290556Y-102203379D01*
X168497487Y-102203379D01*
X168497488Y-102203378D01*
X168700441Y-102163009D01*
X168891619Y-102083820D01*
X169063676Y-101968856D01*
X169209998Y-101822534D01*
X169324962Y-101650477D01*
X169404151Y-101459299D01*
X169444521Y-101256344D01*
X169444521Y-101049414D01*
X169404151Y-100846459D01*
X169324962Y-100655281D01*
X169209998Y-100483224D01*
X169209996Y-100483221D01*
X169063678Y-100336903D01*
X168930603Y-100247986D01*
X168891619Y-100221938D01*
X168809362Y-100187866D01*
X168700441Y-100142749D01*
X168700433Y-100142747D01*
X168561991Y-100115209D01*
X168500080Y-100082824D01*
X168465506Y-100022109D01*
X168464565Y-100017783D01*
X168441185Y-99900246D01*
X168441184Y-99900239D01*
X168361995Y-99709061D01*
X168323491Y-99651436D01*
X168302614Y-99584759D01*
X168321099Y-99517379D01*
X168373078Y-99470689D01*
X168402402Y-99460929D01*
X168406420Y-99460130D01*
X168597598Y-99380941D01*
X168769655Y-99265977D01*
X168915977Y-99119655D01*
X169030941Y-98947598D01*
X169033793Y-98940713D01*
X169077633Y-98886308D01*
X169124161Y-98866546D01*
X169156420Y-98860130D01*
X169347598Y-98780941D01*
X169519655Y-98665977D01*
X169665977Y-98519655D01*
X169748246Y-98396530D01*
X179449500Y-98396530D01*
X179449500Y-98603469D01*
X179489868Y-98806412D01*
X179489870Y-98806420D01*
X179516750Y-98871315D01*
X179569059Y-98997598D01*
X179600079Y-99044023D01*
X179684024Y-99169657D01*
X179830339Y-99315972D01*
X179830346Y-99315978D01*
X179912808Y-99371077D01*
X179957614Y-99424689D01*
X179965535Y-99449988D01*
X179972330Y-99484148D01*
X179972332Y-99484156D01*
X180051520Y-99675332D01*
X180166486Y-99847393D01*
X180312804Y-99993711D01*
X180312807Y-99993713D01*
X180484864Y-100108677D01*
X180676042Y-100187866D01*
X180847330Y-100221937D01*
X180878992Y-100228235D01*
X180878996Y-100228236D01*
X180878997Y-100228236D01*
X181085928Y-100228236D01*
X181085929Y-100228235D01*
X181288882Y-100187866D01*
X181480060Y-100108677D01*
X181652117Y-99993713D01*
X181798439Y-99847391D01*
X181913403Y-99675334D01*
X181992592Y-99484156D01*
X182032962Y-99281201D01*
X182032962Y-99074271D01*
X181992592Y-98871316D01*
X181913403Y-98680138D01*
X181798439Y-98508081D01*
X181798437Y-98508078D01*
X181652119Y-98361760D01*
X181602994Y-98328936D01*
X181569652Y-98306658D01*
X181524847Y-98253047D01*
X181516927Y-98227752D01*
X181510130Y-98193580D01*
X181430941Y-98002402D01*
X181315977Y-97830345D01*
X181315975Y-97830342D01*
X181169657Y-97684024D01*
X181083626Y-97626541D01*
X180997598Y-97569059D01*
X180884123Y-97522056D01*
X180806420Y-97489870D01*
X180806412Y-97489868D01*
X180603469Y-97449500D01*
X180603465Y-97449500D01*
X180396535Y-97449500D01*
X180396530Y-97449500D01*
X180193587Y-97489868D01*
X180193579Y-97489870D01*
X180002403Y-97569058D01*
X179830342Y-97684024D01*
X179684024Y-97830342D01*
X179569058Y-98002403D01*
X179489870Y-98193579D01*
X179489868Y-98193587D01*
X179449500Y-98396530D01*
X169748246Y-98396530D01*
X169780941Y-98347598D01*
X169860130Y-98156420D01*
X169869966Y-98106967D01*
X169902349Y-98045058D01*
X169912927Y-98035298D01*
X169917403Y-98031624D01*
X169917420Y-98031613D01*
X170063742Y-97885291D01*
X170178706Y-97713234D01*
X170257895Y-97522056D01*
X170298265Y-97319101D01*
X170298265Y-97112171D01*
X170257895Y-96909216D01*
X170182005Y-96726002D01*
X170182003Y-96725997D01*
X173272123Y-96725997D01*
X173272123Y-96932936D01*
X173312491Y-97135879D01*
X173312493Y-97135887D01*
X173391681Y-97327063D01*
X173506647Y-97499124D01*
X173652965Y-97645442D01*
X173652968Y-97645444D01*
X173825025Y-97760408D01*
X174016203Y-97839597D01*
X174219153Y-97879966D01*
X174219157Y-97879967D01*
X174219158Y-97879967D01*
X174426089Y-97879967D01*
X174426090Y-97879966D01*
X174629043Y-97839597D01*
X174820221Y-97760408D01*
X174992278Y-97645444D01*
X175138600Y-97499122D01*
X175253564Y-97327065D01*
X175332753Y-97135887D01*
X175373123Y-96932932D01*
X175373123Y-96726002D01*
X175332753Y-96523047D01*
X175253564Y-96331869D01*
X175138600Y-96159812D01*
X175138598Y-96159809D01*
X174992280Y-96013491D01*
X174906249Y-95956008D01*
X174820221Y-95898526D01*
X174629043Y-95819337D01*
X174629035Y-95819335D01*
X174426092Y-95778967D01*
X174426088Y-95778967D01*
X174219158Y-95778967D01*
X174219153Y-95778967D01*
X174016210Y-95819335D01*
X174016202Y-95819337D01*
X173825026Y-95898525D01*
X173652965Y-96013491D01*
X173506647Y-96159809D01*
X173391681Y-96331870D01*
X173312493Y-96523046D01*
X173312491Y-96523054D01*
X173272123Y-96725997D01*
X170182003Y-96725997D01*
X170178708Y-96718041D01*
X170063740Y-96545978D01*
X169917422Y-96399660D01*
X169783428Y-96310129D01*
X169745363Y-96284695D01*
X169554185Y-96205506D01*
X169554177Y-96205504D01*
X169351234Y-96165136D01*
X169351230Y-96165136D01*
X169144300Y-96165136D01*
X169144295Y-96165136D01*
X168941352Y-96205504D01*
X168941344Y-96205506D01*
X168750168Y-96284694D01*
X168578107Y-96399660D01*
X168431789Y-96545978D01*
X168316823Y-96718039D01*
X168237635Y-96909215D01*
X168237633Y-96909220D01*
X168227797Y-96958669D01*
X168195411Y-97020580D01*
X168184847Y-97030327D01*
X168180345Y-97034021D01*
X168034024Y-97180342D01*
X167919058Y-97352403D01*
X167916204Y-97359294D01*
X167872360Y-97413696D01*
X167825837Y-97433453D01*
X167793585Y-97439868D01*
X167793579Y-97439870D01*
X167602400Y-97519059D01*
X167437667Y-97629130D01*
X167370990Y-97650008D01*
X167368777Y-97650028D01*
X167284894Y-97650028D01*
X167081951Y-97690396D01*
X167081943Y-97690398D01*
X166890767Y-97769586D01*
X166718706Y-97884552D01*
X166572388Y-98030870D01*
X166457422Y-98202931D01*
X166378234Y-98394107D01*
X166378232Y-98394115D01*
X166337864Y-98597058D01*
X152546920Y-98597058D01*
X152508931Y-98544771D01*
X152401841Y-98437681D01*
X152368356Y-98376358D01*
X152373340Y-98306666D01*
X152401841Y-98262319D01*
X152448919Y-98215241D01*
X152508931Y-98155229D01*
X152661634Y-97945051D01*
X152779579Y-97713572D01*
X152859860Y-97466493D01*
X152882539Y-97323298D01*
X152900500Y-97209902D01*
X152900500Y-96950097D01*
X152871557Y-96767361D01*
X152859860Y-96693507D01*
X152779579Y-96446428D01*
X152779577Y-96446425D01*
X152779577Y-96446423D01*
X152730701Y-96350500D01*
X152661634Y-96214949D01*
X152508931Y-96004771D01*
X152401841Y-95897681D01*
X152368356Y-95836358D01*
X152373340Y-95766666D01*
X152401841Y-95722319D01*
X152508931Y-95615229D01*
X152661634Y-95405051D01*
X152779579Y-95173572D01*
X152859860Y-94926493D01*
X152893133Y-94716412D01*
X152900500Y-94669902D01*
X152900500Y-94410097D01*
X152872054Y-94230499D01*
X152859860Y-94153507D01*
X152779579Y-93906428D01*
X152779577Y-93906425D01*
X152779577Y-93906423D01*
X152694955Y-93740345D01*
X152661634Y-93674949D01*
X152616785Y-93613220D01*
X152593306Y-93547416D01*
X152609131Y-93479362D01*
X152629423Y-93452655D01*
X152729816Y-93352262D01*
X152825789Y-93199522D01*
X152885368Y-93029255D01*
X152900500Y-92894954D01*
X152900500Y-91105046D01*
X152885368Y-90970745D01*
X152825789Y-90800478D01*
X152729816Y-90647738D01*
X152602262Y-90520184D01*
X152499500Y-90455614D01*
X152449523Y-90424211D01*
X152279254Y-90364631D01*
X152279249Y-90364630D01*
X152144960Y-90349500D01*
X152144954Y-90349500D01*
X150355046Y-90349500D01*
X150355039Y-90349500D01*
X150220750Y-90364630D01*
X150220739Y-90364633D01*
X150165453Y-90383978D01*
X150095674Y-90387539D01*
X150035047Y-90352809D01*
X150002821Y-90290816D01*
X150000500Y-90266936D01*
X150000500Y-89575578D01*
X155699500Y-89575578D01*
X155699500Y-89924421D01*
X155733692Y-90271594D01*
X155801744Y-90613721D01*
X155801747Y-90613732D01*
X155903016Y-90947571D01*
X156036516Y-91269867D01*
X156036518Y-91269872D01*
X156200955Y-91577511D01*
X156200972Y-91577539D01*
X156394759Y-91867563D01*
X156394776Y-91867586D01*
X156616084Y-92137251D01*
X156862748Y-92383915D01*
X156862753Y-92383919D01*
X156862754Y-92383920D01*
X157132419Y-92605228D01*
X157132426Y-92605233D01*
X157132436Y-92605240D01*
X157422460Y-92799027D01*
X157422465Y-92799030D01*
X157422477Y-92799038D01*
X157422486Y-92799042D01*
X157422488Y-92799044D01*
X157730127Y-92963481D01*
X157730129Y-92963481D01*
X157730135Y-92963485D01*
X158052430Y-93096984D01*
X158386258Y-93198250D01*
X158386264Y-93198251D01*
X158386267Y-93198252D01*
X158386278Y-93198255D01*
X158697346Y-93260129D01*
X158728405Y-93266307D01*
X159075575Y-93300500D01*
X159075578Y-93300500D01*
X159424422Y-93300500D01*
X159424425Y-93300500D01*
X159771595Y-93266307D01*
X159838197Y-93253059D01*
X160113721Y-93198255D01*
X160113732Y-93198252D01*
X160113732Y-93198251D01*
X160113742Y-93198250D01*
X160447570Y-93096984D01*
X160769865Y-92963485D01*
X161077523Y-92799038D01*
X161367581Y-92605228D01*
X161637246Y-92383920D01*
X161874636Y-92146530D01*
X172449500Y-92146530D01*
X172449500Y-92353469D01*
X172489868Y-92556412D01*
X172489870Y-92556420D01*
X172569058Y-92747596D01*
X172684024Y-92919657D01*
X172830342Y-93065975D01*
X172830345Y-93065977D01*
X173002402Y-93180941D01*
X173193580Y-93260130D01*
X173396530Y-93300499D01*
X173396534Y-93300500D01*
X173396535Y-93300500D01*
X173603466Y-93300500D01*
X173603467Y-93300499D01*
X173806420Y-93260130D01*
X173997598Y-93180941D01*
X174106610Y-93108101D01*
X174173287Y-93087224D01*
X174240667Y-93105709D01*
X174287357Y-93157687D01*
X174299500Y-93211204D01*
X174299500Y-93283469D01*
X174339868Y-93486412D01*
X174339870Y-93486420D01*
X174419058Y-93677596D01*
X174534024Y-93849657D01*
X174680342Y-93995975D01*
X174680345Y-93995977D01*
X174852402Y-94110941D01*
X175043580Y-94190130D01*
X175246530Y-94230499D01*
X175246534Y-94230500D01*
X175246535Y-94230500D01*
X175453466Y-94230500D01*
X175453467Y-94230499D01*
X175656420Y-94190130D01*
X175847598Y-94110941D01*
X176019655Y-93995977D01*
X176165977Y-93849655D01*
X176280941Y-93677598D01*
X176360130Y-93486420D01*
X176400500Y-93283465D01*
X176400500Y-93076535D01*
X176371928Y-92932892D01*
X178853119Y-92932892D01*
X178853119Y-93139831D01*
X178893487Y-93342774D01*
X178893489Y-93342782D01*
X178972677Y-93533958D01*
X179087643Y-93706019D01*
X179233961Y-93852337D01*
X179233964Y-93852339D01*
X179406021Y-93967303D01*
X179597199Y-94046492D01*
X179800149Y-94086861D01*
X179800153Y-94086862D01*
X179800154Y-94086862D01*
X180007085Y-94086862D01*
X180007085Y-94086861D01*
X180174958Y-94053470D01*
X180206264Y-94047243D01*
X180275855Y-94053470D01*
X180331033Y-94096333D01*
X180354277Y-94162223D01*
X180352073Y-94193050D01*
X180329500Y-94306536D01*
X180329500Y-94513469D01*
X180369868Y-94716412D01*
X180369870Y-94716420D01*
X180449058Y-94907596D01*
X180564024Y-95079657D01*
X180710342Y-95225975D01*
X180710345Y-95225977D01*
X180882402Y-95340941D01*
X181073580Y-95420130D01*
X181276530Y-95460499D01*
X181276534Y-95460500D01*
X181276535Y-95460500D01*
X181483466Y-95460500D01*
X181483467Y-95460499D01*
X181686420Y-95420130D01*
X181877598Y-95340941D01*
X182049655Y-95225977D01*
X182079102Y-95196530D01*
X186599500Y-95196530D01*
X186599500Y-95403469D01*
X186639868Y-95606412D01*
X186639870Y-95606420D01*
X186719059Y-95797598D01*
X186776541Y-95883626D01*
X186834024Y-95969657D01*
X186980342Y-96115975D01*
X186980345Y-96115977D01*
X187152402Y-96230941D01*
X187343580Y-96310130D01*
X187546530Y-96350499D01*
X187546534Y-96350500D01*
X187546535Y-96350500D01*
X187753466Y-96350500D01*
X187753467Y-96350499D01*
X187956420Y-96310130D01*
X188147598Y-96230941D01*
X188319655Y-96115977D01*
X188465977Y-95969655D01*
X188580941Y-95797598D01*
X188660130Y-95606420D01*
X188700500Y-95403465D01*
X188700500Y-95196535D01*
X188660130Y-94993580D01*
X188580941Y-94802402D01*
X188465977Y-94630345D01*
X188465975Y-94630342D01*
X188319657Y-94484024D01*
X188209016Y-94410097D01*
X188147598Y-94369059D01*
X187956420Y-94289870D01*
X187956412Y-94289868D01*
X187753469Y-94249500D01*
X187753465Y-94249500D01*
X187546535Y-94249500D01*
X187546530Y-94249500D01*
X187343587Y-94289868D01*
X187343579Y-94289870D01*
X187152403Y-94369058D01*
X186980342Y-94484024D01*
X186834024Y-94630342D01*
X186719058Y-94802403D01*
X186639870Y-94993579D01*
X186639868Y-94993587D01*
X186599500Y-95196530D01*
X182079102Y-95196530D01*
X182102060Y-95173572D01*
X182172871Y-95102762D01*
X182195974Y-95079658D01*
X182195975Y-95079657D01*
X182195977Y-95079655D01*
X182310941Y-94907598D01*
X182390130Y-94716420D01*
X182430500Y-94513465D01*
X182430500Y-94306535D01*
X182390130Y-94103580D01*
X182310941Y-93912402D01*
X182195977Y-93740345D01*
X182195975Y-93740342D01*
X182049657Y-93594024D01*
X181931931Y-93515363D01*
X181877598Y-93479059D01*
X181813853Y-93452655D01*
X181686420Y-93399870D01*
X181686412Y-93399868D01*
X181483469Y-93359500D01*
X181483465Y-93359500D01*
X181276535Y-93359500D01*
X181276530Y-93359500D01*
X181077354Y-93399118D01*
X181007762Y-93392891D01*
X180952585Y-93350027D01*
X180929341Y-93284137D01*
X180931546Y-93253309D01*
X180939921Y-93211204D01*
X180954119Y-93139827D01*
X180954119Y-92932897D01*
X180913749Y-92729942D01*
X180834560Y-92538764D01*
X180719596Y-92366707D01*
X180719594Y-92366704D01*
X180573276Y-92220386D01*
X180407793Y-92109815D01*
X180401217Y-92105421D01*
X180210039Y-92026232D01*
X180210031Y-92026230D01*
X180007088Y-91985862D01*
X180007084Y-91985862D01*
X179800154Y-91985862D01*
X179800149Y-91985862D01*
X179597206Y-92026230D01*
X179597198Y-92026232D01*
X179406022Y-92105420D01*
X179233961Y-92220386D01*
X179087643Y-92366704D01*
X178972677Y-92538765D01*
X178893489Y-92729941D01*
X178893487Y-92729949D01*
X178853119Y-92932892D01*
X176371928Y-92932892D01*
X176360130Y-92873580D01*
X176280941Y-92682402D01*
X176165977Y-92510345D01*
X176165975Y-92510342D01*
X176019657Y-92364024D01*
X175933626Y-92306541D01*
X175847598Y-92249059D01*
X175778373Y-92220385D01*
X175656420Y-92169870D01*
X175656412Y-92169868D01*
X175453469Y-92129500D01*
X175453465Y-92129500D01*
X175416329Y-92129500D01*
X175349290Y-92109815D01*
X175303535Y-92057011D01*
X175292329Y-92005500D01*
X175292329Y-91847555D01*
X175292328Y-91847551D01*
X175251960Y-91644608D01*
X175251959Y-91644601D01*
X175172770Y-91453423D01*
X175057806Y-91281366D01*
X175057804Y-91281363D01*
X174911486Y-91135045D01*
X174825455Y-91077562D01*
X174739427Y-91020080D01*
X174620322Y-90970745D01*
X174548249Y-90940891D01*
X174548241Y-90940889D01*
X174345298Y-90900521D01*
X174345294Y-90900521D01*
X174138364Y-90900521D01*
X174138359Y-90900521D01*
X173935416Y-90940889D01*
X173935408Y-90940891D01*
X173744232Y-91020079D01*
X173572171Y-91135045D01*
X173572170Y-91135046D01*
X173544036Y-91163181D01*
X173482713Y-91196666D01*
X173456355Y-91199500D01*
X173396530Y-91199500D01*
X173193587Y-91239868D01*
X173193579Y-91239870D01*
X173002403Y-91319058D01*
X172830342Y-91434024D01*
X172684024Y-91580342D01*
X172569058Y-91752403D01*
X172489870Y-91943579D01*
X172489868Y-91943587D01*
X172449500Y-92146530D01*
X161874636Y-92146530D01*
X161883920Y-92137246D01*
X162105228Y-91867581D01*
X162299038Y-91577523D01*
X162463485Y-91269865D01*
X162596984Y-90947570D01*
X162698250Y-90613742D01*
X162698252Y-90613732D01*
X162698255Y-90613721D01*
X162766307Y-90271594D01*
X162800500Y-89924421D01*
X162800500Y-89575578D01*
X186199500Y-89575578D01*
X186199500Y-89924421D01*
X186233692Y-90271594D01*
X186301744Y-90613721D01*
X186301747Y-90613732D01*
X186403016Y-90947571D01*
X186536516Y-91269867D01*
X186536518Y-91269872D01*
X186700955Y-91577511D01*
X186700972Y-91577539D01*
X186894759Y-91867563D01*
X186894776Y-91867586D01*
X187116084Y-92137251D01*
X187362748Y-92383915D01*
X187362753Y-92383919D01*
X187362754Y-92383920D01*
X187632419Y-92605228D01*
X187632426Y-92605233D01*
X187632436Y-92605240D01*
X187922460Y-92799027D01*
X187922465Y-92799030D01*
X187922477Y-92799038D01*
X187922486Y-92799042D01*
X187922488Y-92799044D01*
X188230127Y-92963481D01*
X188230129Y-92963481D01*
X188230135Y-92963485D01*
X188552430Y-93096984D01*
X188886258Y-93198250D01*
X188886264Y-93198251D01*
X188886267Y-93198252D01*
X188886278Y-93198255D01*
X189197346Y-93260129D01*
X189228405Y-93266307D01*
X189575575Y-93300500D01*
X189575578Y-93300500D01*
X189924422Y-93300500D01*
X189924425Y-93300500D01*
X190271595Y-93266307D01*
X190338197Y-93253059D01*
X190613721Y-93198255D01*
X190613732Y-93198252D01*
X190613732Y-93198251D01*
X190613742Y-93198250D01*
X190947570Y-93096984D01*
X191269865Y-92963485D01*
X191577523Y-92799038D01*
X191867581Y-92605228D01*
X192137246Y-92383920D01*
X192383920Y-92137246D01*
X192605228Y-91867581D01*
X192799038Y-91577523D01*
X192963485Y-91269865D01*
X193096984Y-90947570D01*
X193198250Y-90613742D01*
X193198252Y-90613732D01*
X193198255Y-90613721D01*
X193266307Y-90271594D01*
X193300500Y-89924421D01*
X193300500Y-89575578D01*
X193266307Y-89228405D01*
X193198255Y-88886278D01*
X193198252Y-88886267D01*
X193198251Y-88886264D01*
X193198250Y-88886258D01*
X193096984Y-88552430D01*
X192963485Y-88230135D01*
X192799038Y-87922477D01*
X192799027Y-87922460D01*
X192605240Y-87632436D01*
X192605233Y-87632426D01*
X192605228Y-87632419D01*
X192383920Y-87362754D01*
X192383919Y-87362753D01*
X192383915Y-87362748D01*
X192137251Y-87116084D01*
X191867586Y-86894776D01*
X191867563Y-86894759D01*
X191577539Y-86700972D01*
X191577511Y-86700955D01*
X191269872Y-86536518D01*
X191269867Y-86536516D01*
X190947571Y-86403016D01*
X190613732Y-86301747D01*
X190613721Y-86301744D01*
X190271594Y-86233692D01*
X190010120Y-86207940D01*
X189924425Y-86199500D01*
X189575575Y-86199500D01*
X189496394Y-86207298D01*
X189228405Y-86233692D01*
X188886278Y-86301744D01*
X188886267Y-86301747D01*
X188552428Y-86403016D01*
X188230132Y-86536516D01*
X188230127Y-86536518D01*
X187922488Y-86700955D01*
X187922460Y-86700972D01*
X187632436Y-86894759D01*
X187632413Y-86894776D01*
X187362748Y-87116084D01*
X187116084Y-87362748D01*
X186894776Y-87632413D01*
X186894759Y-87632436D01*
X186700972Y-87922460D01*
X186700955Y-87922488D01*
X186536518Y-88230127D01*
X186536516Y-88230132D01*
X186403016Y-88552428D01*
X186301747Y-88886267D01*
X186301744Y-88886278D01*
X186233692Y-89228405D01*
X186199500Y-89575578D01*
X162800500Y-89575578D01*
X162766307Y-89228405D01*
X162698255Y-88886278D01*
X162698252Y-88886267D01*
X162698251Y-88886264D01*
X162698250Y-88886258D01*
X162596984Y-88552430D01*
X162463485Y-88230135D01*
X162299038Y-87922477D01*
X162290255Y-87909332D01*
X162248292Y-87846530D01*
X166449500Y-87846530D01*
X166449500Y-88053469D01*
X166489868Y-88256412D01*
X166489870Y-88256420D01*
X166569058Y-88447596D01*
X166684024Y-88619657D01*
X166830342Y-88765975D01*
X166830345Y-88765977D01*
X167002402Y-88880941D01*
X167193580Y-88960130D01*
X167396530Y-89000499D01*
X167396534Y-89000500D01*
X167396535Y-89000500D01*
X167603466Y-89000500D01*
X167603467Y-89000499D01*
X167806420Y-88960130D01*
X167997598Y-88880941D01*
X168169655Y-88765977D01*
X168315977Y-88619655D01*
X168430941Y-88447598D01*
X168510130Y-88256420D01*
X168550500Y-88053465D01*
X168550500Y-87846535D01*
X168510130Y-87643580D01*
X168430941Y-87452402D01*
X168315977Y-87280345D01*
X168315975Y-87280342D01*
X168169657Y-87134024D01*
X168083626Y-87076541D01*
X167997598Y-87019059D01*
X167806420Y-86939870D01*
X167806412Y-86939868D01*
X167603469Y-86899500D01*
X167603465Y-86899500D01*
X167396535Y-86899500D01*
X167396530Y-86899500D01*
X167193587Y-86939868D01*
X167193579Y-86939870D01*
X167002403Y-87019058D01*
X166830342Y-87134024D01*
X166684024Y-87280342D01*
X166569058Y-87452403D01*
X166489870Y-87643579D01*
X166489868Y-87643587D01*
X166449500Y-87846530D01*
X162248292Y-87846530D01*
X162105240Y-87632436D01*
X162105233Y-87632426D01*
X162105228Y-87632419D01*
X161883920Y-87362754D01*
X161883919Y-87362753D01*
X161883915Y-87362748D01*
X161637251Y-87116084D01*
X161367586Y-86894776D01*
X161367563Y-86894759D01*
X161077539Y-86700972D01*
X161077511Y-86700955D01*
X160769872Y-86536518D01*
X160769867Y-86536516D01*
X160447571Y-86403016D01*
X160113732Y-86301747D01*
X160113721Y-86301744D01*
X159771594Y-86233692D01*
X159510120Y-86207940D01*
X159424425Y-86199500D01*
X159075575Y-86199500D01*
X158996394Y-86207298D01*
X158728405Y-86233692D01*
X158386278Y-86301744D01*
X158386267Y-86301747D01*
X158052428Y-86403016D01*
X157730132Y-86536516D01*
X157730127Y-86536518D01*
X157422488Y-86700955D01*
X157422460Y-86700972D01*
X157132436Y-86894759D01*
X157132413Y-86894776D01*
X156862748Y-87116084D01*
X156616084Y-87362748D01*
X156394776Y-87632413D01*
X156394759Y-87632436D01*
X156200972Y-87922460D01*
X156200955Y-87922488D01*
X156036518Y-88230127D01*
X156036516Y-88230132D01*
X155903016Y-88552428D01*
X155801747Y-88886267D01*
X155801744Y-88886278D01*
X155733692Y-89228405D01*
X155699500Y-89575578D01*
X150000500Y-89575578D01*
X150000500Y-83333191D01*
X150020185Y-83266152D01*
X150072989Y-83220397D01*
X150142147Y-83210453D01*
X150193390Y-83230088D01*
X150284111Y-83290706D01*
X150475289Y-83369895D01*
X150678239Y-83410264D01*
X150678243Y-83410265D01*
X150678244Y-83410265D01*
X150885175Y-83410265D01*
X150885176Y-83410264D01*
X151088129Y-83369895D01*
X151279307Y-83290706D01*
X151451364Y-83175742D01*
X151597686Y-83029420D01*
X151712650Y-82857363D01*
X151791839Y-82666185D01*
X151816649Y-82541451D01*
X151849033Y-82479543D01*
X151909748Y-82444969D01*
X151914024Y-82444038D01*
X151977152Y-82431482D01*
X152168330Y-82352293D01*
X152340387Y-82237329D01*
X152486709Y-82091007D01*
X152601673Y-81918950D01*
X152680862Y-81727772D01*
X152721232Y-81524817D01*
X152721232Y-81317887D01*
X152680862Y-81114932D01*
X152601673Y-80923754D01*
X152486709Y-80751697D01*
X152486707Y-80751694D01*
X152447194Y-80712181D01*
X152413709Y-80650858D01*
X152418693Y-80581166D01*
X152460565Y-80525233D01*
X152526029Y-80500816D01*
X152534875Y-80500500D01*
X152565892Y-80500500D01*
X196307717Y-80500500D01*
X196374756Y-80520185D01*
G37*
%TD.AperFunction*%
%TD*%
M02*
