%TF.GenerationSoftware,KiCad,Pcbnew,9.0.7-9.0.7~ubuntu24.04.1*%
%TF.CreationDate,2026-06-10T13:49:41+02:00*%
%TF.ProjectId,flight_controller,666c6967-6874-45f6-936f-6e74726f6c6c,rev?*%
%TF.SameCoordinates,Original*%
%TF.FileFunction,Copper,L4,Inr*%
%TF.FilePolarity,Positive*%
%FSLAX46Y46*%
G04 Gerber Fmt 4.6, Leading zero omitted, Abs format (unit mm)*
G04 Created by KiCad (PCBNEW 9.0.7-9.0.7~ubuntu24.04.1) date 2026-06-10 13:49:41*
%MOMM*%
%LPD*%
G01*
G04 APERTURE LIST*
%TA.AperFunction,ComponentPad*%
%ADD10R,1.700000X1.700000*%
%TD*%
%TA.AperFunction,ComponentPad*%
%ADD11C,1.700000*%
%TD*%
%TA.AperFunction,ComponentPad*%
%ADD12C,5.500000*%
%TD*%
%TA.AperFunction,ComponentPad*%
%ADD13R,0.850000X0.850000*%
%TD*%
%TA.AperFunction,ComponentPad*%
%ADD14C,0.850000*%
%TD*%
%TA.AperFunction,ComponentPad*%
%ADD15O,2.100000X1.000000*%
%TD*%
%TA.AperFunction,ComponentPad*%
%ADD16O,1.800000X1.000000*%
%TD*%
%TA.AperFunction,ViaPad*%
%ADD17C,0.500000*%
%TD*%
G04 APERTURE END LIST*
D10*
%TO.N,GNDREF*%
%TO.C,J5*%
X151250000Y-92000000D03*
D11*
%TO.N,/GPS_TX*%
X151250000Y-94540000D03*
%TO.N,/GPS_RX*%
X151250000Y-97080000D03*
%TO.N,+5V*%
X151250000Y-99620000D03*
%TD*%
D10*
%TO.N,GNDREF*%
%TO.C,J3*%
X160880000Y-128000000D03*
D11*
%TO.N,/VTX_TX*%
X163420000Y-128000000D03*
%TO.N,/VTX_RX*%
X165960000Y-128000000D03*
%TO.N,+9V*%
X168500000Y-128000000D03*
%TD*%
D10*
%TO.N,GNDREF*%
%TO.C,J4*%
X151250000Y-111000000D03*
D11*
%TO.N,/TRANSCEIVER_TX*%
X151250000Y-113540000D03*
%TO.N,/TRANSCEIVER_RX*%
X151250000Y-116080000D03*
%TO.N,+5V*%
X151250000Y-118620000D03*
%TD*%
D12*
%TO.N,*%
%TO.C,REF\u002A\u002A*%
X189750000Y-120250000D03*
%TD*%
%TO.N,*%
%TO.C,REF\u002A\u002A*%
X159250000Y-89750000D03*
%TD*%
%TO.N,*%
%TO.C,REF\u002A\u002A*%
X159250000Y-120250000D03*
%TD*%
D13*
%TO.N,GNDREF*%
%TO.C,J1*%
X193500000Y-102250000D03*
D14*
%TO.N,/JTAG_SWCLK*%
X193500000Y-103250000D03*
%TO.N,/JTAG_SWDIO*%
X193500000Y-104250000D03*
%TD*%
D12*
%TO.N,*%
%TO.C,REF\u002A\u002A*%
X189750000Y-89750000D03*
%TD*%
D15*
%TO.N,GNDREF*%
%TO.C,J6*%
X192482500Y-115820000D03*
X192482500Y-107180000D03*
D16*
X196662500Y-115820000D03*
X196662500Y-107180000D03*
%TD*%
D17*
%TO.N,+3.3V*%
X170850000Y-106200000D03*
X187650000Y-95300000D03*
X158750000Y-115100000D03*
X167450000Y-100600000D03*
X183450000Y-112900000D03*
X176650000Y-112900000D03*
X180650000Y-93600000D03*
X184150000Y-115900000D03*
X174513909Y-118263909D03*
X170550000Y-115300000D03*
X170250000Y-111000000D03*
X175250000Y-92200000D03*
X188150000Y-102500000D03*
X167950110Y-117501685D03*
X167500000Y-87950000D03*
%TO.N,GNDREF*%
X172093722Y-111618610D03*
X184293971Y-111573895D03*
X169603245Y-106089198D03*
X174700645Y-101298486D03*
X198113794Y-127590761D03*
X174322623Y-96829467D03*
X166732784Y-115234557D03*
X174321402Y-110798846D03*
X177892651Y-107550875D03*
X181893655Y-104285596D03*
X174241829Y-91951021D03*
X197224771Y-128529174D03*
X151884217Y-128422887D03*
X154165207Y-109982508D03*
X182564068Y-117816730D03*
X150781709Y-82359765D03*
X160041445Y-99986123D03*
X173088446Y-103359149D03*
X197261587Y-81310977D03*
X174204007Y-115665703D03*
X181750000Y-111100000D03*
X167388364Y-98700528D03*
X198200000Y-82200000D03*
X150945804Y-127533864D03*
X180982462Y-99177736D03*
X180850000Y-104700000D03*
X169247765Y-97215636D03*
X165050000Y-112600000D03*
X175759285Y-114497678D03*
X181685172Y-115285551D03*
X179903619Y-93036362D03*
X151670732Y-81421352D03*
X182844413Y-123989163D03*
%TO.N,VBAT*%
X183150000Y-119100000D03*
X185750000Y-126500000D03*
X177000000Y-86750000D03*
X162250000Y-98000000D03*
X154350000Y-101200000D03*
%TO.N,/ICM_INT1*%
X184050000Y-110800000D03*
X181950000Y-117400000D03*
%TO.N,+5VBAT*%
X190350000Y-106400000D03*
X162250000Y-109500000D03*
%TO.N,/BMP_SCLK*%
X173750000Y-114300000D03*
X174150000Y-110000000D03*
%TO.N,/BOOT*%
X173500000Y-92250000D03*
X180500000Y-98500000D03*
%TO.N,/BMP_SDI*%
X177150000Y-107500000D03*
X175250000Y-114000000D03*
%TO.N,+5V*%
X164550110Y-123401685D03*
X188050000Y-114800000D03*
X186750000Y-109000000D03*
X197950000Y-97600000D03*
X170550000Y-123300000D03*
%TO.N,Net-(U2-FB)*%
X159500000Y-100500000D03*
X154750000Y-109500000D03*
%TO.N,Net-(U4-FB)*%
X183599998Y-123934715D03*
X173650000Y-122300000D03*
%TO.N,/FLASH_SCLK*%
X165750000Y-112250000D03*
X166750000Y-114500000D03*
%TO.N,/ICM_MISO*%
X181000000Y-115750000D03*
X181750000Y-110250000D03*
%TO.N,/VTX_RX*%
X182450000Y-104950000D03*
%TO.N,/VTX_TX*%
X181446446Y-105096446D03*
%TO.N,/GPS_RX*%
X168100000Y-98450000D03*
X173150000Y-102600000D03*
%TO.N,/GPS_TX*%
X173950000Y-101600000D03*
X168850000Y-97850000D03*
%TD*%
%TA.AperFunction,Conductor*%
%TO.N,VBAT*%
G36*
X196374756Y-80520185D02*
G01*
X196420511Y-80572989D01*
X196430455Y-80642147D01*
X196410819Y-80693390D01*
X196330646Y-80813377D01*
X196251457Y-81004556D01*
X196251455Y-81004564D01*
X196211087Y-81207507D01*
X196211087Y-81414446D01*
X196251455Y-81617389D01*
X196251457Y-81617397D01*
X196330645Y-81808573D01*
X196445611Y-81980634D01*
X196591929Y-82126952D01*
X196591932Y-82126954D01*
X196763989Y-82241918D01*
X196955167Y-82321107D01*
X197079899Y-82345917D01*
X197141808Y-82378301D01*
X197176382Y-82439017D01*
X197177323Y-82443343D01*
X197189868Y-82506412D01*
X197189870Y-82506420D01*
X197269058Y-82697596D01*
X197384024Y-82869657D01*
X197530342Y-83015975D01*
X197530345Y-83015977D01*
X197702402Y-83130941D01*
X197893580Y-83210130D01*
X198096530Y-83250499D01*
X198096534Y-83250500D01*
X198096535Y-83250500D01*
X198303466Y-83250500D01*
X198303467Y-83250499D01*
X198506420Y-83210130D01*
X198697598Y-83130941D01*
X198806610Y-83058101D01*
X198873287Y-83037224D01*
X198940667Y-83055709D01*
X198987357Y-83107687D01*
X198999500Y-83161204D01*
X198999500Y-96871063D01*
X198979815Y-96938102D01*
X198927011Y-96983857D01*
X198857853Y-96993801D01*
X198794297Y-96964776D01*
X198772398Y-96939954D01*
X198765977Y-96930345D01*
X198765974Y-96930341D01*
X198619657Y-96784024D01*
X198484187Y-96693507D01*
X198447598Y-96669059D01*
X198256420Y-96589870D01*
X198256412Y-96589868D01*
X198053469Y-96549500D01*
X198053465Y-96549500D01*
X197846535Y-96549500D01*
X197846530Y-96549500D01*
X197643587Y-96589868D01*
X197643579Y-96589870D01*
X197452403Y-96669058D01*
X197280342Y-96784024D01*
X197134024Y-96930342D01*
X197019058Y-97102403D01*
X196939870Y-97293579D01*
X196939868Y-97293587D01*
X196899500Y-97496530D01*
X196899500Y-97703469D01*
X196939868Y-97906412D01*
X196939870Y-97906420D01*
X197019058Y-98097596D01*
X197134024Y-98269657D01*
X197280342Y-98415975D01*
X197280345Y-98415977D01*
X197452402Y-98530941D01*
X197643580Y-98610130D01*
X197846530Y-98650499D01*
X197846534Y-98650500D01*
X197846535Y-98650500D01*
X198053466Y-98650500D01*
X198053467Y-98650499D01*
X198256420Y-98610130D01*
X198447598Y-98530941D01*
X198619655Y-98415977D01*
X198765977Y-98269655D01*
X198772396Y-98260047D01*
X198826007Y-98215241D01*
X198895332Y-98206532D01*
X198958360Y-98236685D01*
X198995081Y-98296127D01*
X198999500Y-98328936D01*
X198999500Y-126691472D01*
X198979815Y-126758511D01*
X198927011Y-126804266D01*
X198857853Y-126814210D01*
X198794297Y-126785185D01*
X198787819Y-126779153D01*
X198783451Y-126774785D01*
X198658763Y-126691472D01*
X198611392Y-126659820D01*
X198582221Y-126647737D01*
X198420214Y-126580631D01*
X198420206Y-126580629D01*
X198217263Y-126540261D01*
X198217259Y-126540261D01*
X198010329Y-126540261D01*
X198010324Y-126540261D01*
X197807381Y-126580629D01*
X197807373Y-126580631D01*
X197616197Y-126659819D01*
X197444136Y-126774785D01*
X197297818Y-126921103D01*
X197182852Y-127093164D01*
X197103664Y-127284340D01*
X197103662Y-127284348D01*
X197078853Y-127409071D01*
X197046468Y-127470982D01*
X196985752Y-127505556D01*
X196981427Y-127506497D01*
X196918358Y-127519042D01*
X196918350Y-127519044D01*
X196727174Y-127598232D01*
X196555113Y-127713198D01*
X196408795Y-127859516D01*
X196293829Y-128031577D01*
X196214641Y-128222753D01*
X196214639Y-128222761D01*
X196174271Y-128425704D01*
X196174271Y-128632643D01*
X196214639Y-128835586D01*
X196214641Y-128835594D01*
X196282127Y-128998520D01*
X196293830Y-129026772D01*
X196326205Y-129075225D01*
X196408795Y-129198831D01*
X196497783Y-129287819D01*
X196531268Y-129349142D01*
X196526284Y-129418834D01*
X196484412Y-129474767D01*
X196418948Y-129499184D01*
X196410102Y-129499500D01*
X169625747Y-129499500D01*
X169558708Y-129479815D01*
X169512953Y-129427011D01*
X169503009Y-129357853D01*
X169532034Y-129294297D01*
X169552861Y-129275183D01*
X169561805Y-129268683D01*
X169575229Y-129258931D01*
X169758931Y-129075229D01*
X169911634Y-128865051D01*
X170029579Y-128633572D01*
X170109860Y-128386493D01*
X170142453Y-128180705D01*
X170150500Y-128129902D01*
X170150500Y-127870097D01*
X170125649Y-127713197D01*
X170109860Y-127613507D01*
X170029579Y-127366428D01*
X170029577Y-127366425D01*
X170029577Y-127366423D01*
X169986787Y-127282445D01*
X169911634Y-127134949D01*
X169758931Y-126924771D01*
X169575229Y-126741069D01*
X169575225Y-126741066D01*
X169365054Y-126588368D01*
X169365053Y-126588367D01*
X169365051Y-126588366D01*
X169270640Y-126540261D01*
X169133576Y-126470422D01*
X168886493Y-126390140D01*
X168629902Y-126349500D01*
X168629897Y-126349500D01*
X168370103Y-126349500D01*
X168370098Y-126349500D01*
X168113506Y-126390140D01*
X167866423Y-126470422D01*
X167634945Y-126588368D01*
X167424774Y-126741066D01*
X167424768Y-126741071D01*
X167317681Y-126848159D01*
X167256358Y-126881644D01*
X167186666Y-126876660D01*
X167142319Y-126848159D01*
X167035231Y-126741071D01*
X167035225Y-126741066D01*
X166825054Y-126588368D01*
X166825053Y-126588367D01*
X166825051Y-126588366D01*
X166730640Y-126540261D01*
X166593576Y-126470422D01*
X166346493Y-126390140D01*
X166089902Y-126349500D01*
X166089897Y-126349500D01*
X165830103Y-126349500D01*
X165830098Y-126349500D01*
X165573506Y-126390140D01*
X165326423Y-126470422D01*
X165094945Y-126588368D01*
X164884774Y-126741066D01*
X164884768Y-126741071D01*
X164777681Y-126848159D01*
X164716358Y-126881644D01*
X164646666Y-126876660D01*
X164602319Y-126848159D01*
X164495231Y-126741071D01*
X164495225Y-126741066D01*
X164285054Y-126588368D01*
X164285053Y-126588367D01*
X164285051Y-126588366D01*
X164190640Y-126540261D01*
X164053576Y-126470422D01*
X163806493Y-126390140D01*
X163549902Y-126349500D01*
X163549897Y-126349500D01*
X163290103Y-126349500D01*
X163290098Y-126349500D01*
X163033506Y-126390140D01*
X162786423Y-126470422D01*
X162554946Y-126588367D01*
X162493219Y-126633214D01*
X162427413Y-126656693D01*
X162359359Y-126640867D01*
X162332654Y-126620576D01*
X162232262Y-126520184D01*
X162079523Y-126424211D01*
X161909254Y-126364631D01*
X161909249Y-126364630D01*
X161774960Y-126349500D01*
X161774954Y-126349500D01*
X159985046Y-126349500D01*
X159985039Y-126349500D01*
X159850750Y-126364630D01*
X159850745Y-126364631D01*
X159680476Y-126424211D01*
X159527737Y-126520184D01*
X159400184Y-126647737D01*
X159304211Y-126800476D01*
X159244631Y-126970745D01*
X159244630Y-126970750D01*
X159229500Y-127105039D01*
X159229500Y-128894960D01*
X159244630Y-129029249D01*
X159244631Y-129029254D01*
X159304211Y-129199524D01*
X159373332Y-129309527D01*
X159392333Y-129376764D01*
X159371966Y-129443599D01*
X159318698Y-129488814D01*
X159268339Y-129499500D01*
X152572576Y-129499500D01*
X152505537Y-129479815D01*
X152459782Y-129427011D01*
X152449838Y-129357853D01*
X152478863Y-129294297D01*
X152503686Y-129272398D01*
X152541331Y-129247243D01*
X152553872Y-129238864D01*
X152700194Y-129092542D01*
X152815158Y-128920485D01*
X152894347Y-128729307D01*
X152934717Y-128526352D01*
X152934717Y-128319422D01*
X152894347Y-128116467D01*
X152815158Y-127925289D01*
X152700194Y-127753232D01*
X152700192Y-127753229D01*
X152553874Y-127606911D01*
X152422367Y-127519042D01*
X152381815Y-127491946D01*
X152377631Y-127490213D01*
X152190637Y-127412757D01*
X152190629Y-127412755D01*
X152065906Y-127387946D01*
X152003995Y-127355561D01*
X151969421Y-127294846D01*
X151968493Y-127290583D01*
X151955934Y-127227444D01*
X151876745Y-127036266D01*
X151761781Y-126864209D01*
X151761779Y-126864206D01*
X151615461Y-126717888D01*
X151510471Y-126647737D01*
X151443402Y-126602923D01*
X151408263Y-126588368D01*
X151252224Y-126523734D01*
X151252216Y-126523732D01*
X151049273Y-126483364D01*
X151049269Y-126483364D01*
X150842339Y-126483364D01*
X150842334Y-126483364D01*
X150639391Y-126523732D01*
X150639383Y-126523734D01*
X150448207Y-126602922D01*
X150276146Y-126717888D01*
X150276145Y-126717889D01*
X150212181Y-126781854D01*
X150150858Y-126815339D01*
X150081166Y-126810355D01*
X150025233Y-126768483D01*
X150000816Y-126703019D01*
X150000500Y-126694173D01*
X150000500Y-119995679D01*
X150020185Y-119928640D01*
X150072989Y-119882885D01*
X150142147Y-119872941D01*
X150197383Y-119895360D01*
X150384949Y-120031634D01*
X150471188Y-120075575D01*
X150616423Y-120149577D01*
X150616425Y-120149577D01*
X150616428Y-120149579D01*
X150863507Y-120229860D01*
X150995706Y-120250797D01*
X151120098Y-120270500D01*
X151120103Y-120270500D01*
X151379902Y-120270500D01*
X151493298Y-120252539D01*
X151636493Y-120229860D01*
X151883572Y-120149579D01*
X152028806Y-120075578D01*
X155699500Y-120075578D01*
X155699500Y-120424421D01*
X155733692Y-120771594D01*
X155801744Y-121113721D01*
X155801747Y-121113732D01*
X155903016Y-121447571D01*
X156036516Y-121769867D01*
X156036518Y-121769872D01*
X156200955Y-122077511D01*
X156200972Y-122077539D01*
X156394759Y-122367563D01*
X156394776Y-122367586D01*
X156616084Y-122637251D01*
X156862748Y-122883915D01*
X156862753Y-122883919D01*
X156862754Y-122883920D01*
X157132419Y-123105228D01*
X157132426Y-123105233D01*
X157132436Y-123105240D01*
X157422460Y-123299027D01*
X157422465Y-123299030D01*
X157422477Y-123299038D01*
X157422486Y-123299042D01*
X157422488Y-123299044D01*
X157730127Y-123463481D01*
X157730129Y-123463481D01*
X157730135Y-123463485D01*
X158052430Y-123596984D01*
X158386258Y-123698250D01*
X158386264Y-123698251D01*
X158386267Y-123698252D01*
X158386278Y-123698255D01*
X158728405Y-123766307D01*
X159075575Y-123800500D01*
X159075578Y-123800500D01*
X159424422Y-123800500D01*
X159424425Y-123800500D01*
X159771595Y-123766307D01*
X159838197Y-123753059D01*
X160113721Y-123698255D01*
X160113732Y-123698252D01*
X160113732Y-123698251D01*
X160113742Y-123698250D01*
X160447570Y-123596984D01*
X160769865Y-123463485D01*
X161077523Y-123299038D01*
X161078755Y-123298215D01*
X163499610Y-123298215D01*
X163499610Y-123505154D01*
X163539978Y-123708097D01*
X163539980Y-123708105D01*
X163619168Y-123899281D01*
X163734134Y-124071342D01*
X163880452Y-124217660D01*
X163880455Y-124217662D01*
X164052512Y-124332626D01*
X164243690Y-124411815D01*
X164446640Y-124452184D01*
X164446644Y-124452185D01*
X164446645Y-124452185D01*
X164653576Y-124452185D01*
X164653577Y-124452184D01*
X164856530Y-124411815D01*
X165047708Y-124332626D01*
X165219765Y-124217662D01*
X165366087Y-124071340D01*
X165481051Y-123899283D01*
X165560240Y-123708105D01*
X165600610Y-123505150D01*
X165600610Y-123298220D01*
X165591821Y-123254036D01*
X165583984Y-123214634D01*
X165580383Y-123196530D01*
X169499500Y-123196530D01*
X169499500Y-123403469D01*
X169539868Y-123606412D01*
X169539870Y-123606420D01*
X169581989Y-123708105D01*
X169619059Y-123797598D01*
X169676541Y-123883626D01*
X169734024Y-123969657D01*
X169880342Y-124115975D01*
X169880345Y-124115977D01*
X170052402Y-124230941D01*
X170243580Y-124310130D01*
X170446530Y-124350499D01*
X170446534Y-124350500D01*
X170446535Y-124350500D01*
X170653466Y-124350500D01*
X170653467Y-124350499D01*
X170856420Y-124310130D01*
X171047598Y-124230941D01*
X171219655Y-124115977D01*
X171365977Y-123969655D01*
X171422078Y-123885693D01*
X181793913Y-123885693D01*
X181793913Y-124092632D01*
X181834281Y-124295575D01*
X181834283Y-124295583D01*
X181913471Y-124486759D01*
X182028437Y-124658820D01*
X182174755Y-124805138D01*
X182174758Y-124805140D01*
X182346815Y-124920104D01*
X182537993Y-124999293D01*
X182740943Y-125039662D01*
X182740947Y-125039663D01*
X182740948Y-125039663D01*
X182947879Y-125039663D01*
X182947880Y-125039662D01*
X183150833Y-124999293D01*
X183251195Y-124957720D01*
X183320661Y-124950252D01*
X183322837Y-124950665D01*
X183496530Y-124985214D01*
X183496532Y-124985215D01*
X183496533Y-124985215D01*
X183703464Y-124985215D01*
X183703465Y-124985214D01*
X183906418Y-124944845D01*
X184097596Y-124865656D01*
X184269653Y-124750692D01*
X184415975Y-124604370D01*
X184530939Y-124432313D01*
X184610128Y-124241135D01*
X184650498Y-124038180D01*
X184650498Y-123831250D01*
X184610128Y-123628295D01*
X184530939Y-123437117D01*
X184415975Y-123265060D01*
X184415973Y-123265057D01*
X184269655Y-123118739D01*
X184179082Y-123058221D01*
X184097596Y-123003774D01*
X184072983Y-122993579D01*
X183906418Y-122924585D01*
X183906410Y-122924583D01*
X183703467Y-122884215D01*
X183703463Y-122884215D01*
X183496533Y-122884215D01*
X183496528Y-122884215D01*
X183293585Y-122924582D01*
X183293585Y-122924583D01*
X183293582Y-122924584D01*
X183293578Y-122924585D01*
X183193214Y-122966157D01*
X183123744Y-122973625D01*
X183121571Y-122973212D01*
X182947882Y-122938663D01*
X182947878Y-122938663D01*
X182740948Y-122938663D01*
X182740943Y-122938663D01*
X182538000Y-122979031D01*
X182537992Y-122979033D01*
X182346816Y-123058221D01*
X182174755Y-123173187D01*
X182028437Y-123319505D01*
X181913471Y-123491566D01*
X181834283Y-123682742D01*
X181834281Y-123682750D01*
X181793913Y-123885693D01*
X171422078Y-123885693D01*
X171458456Y-123831250D01*
X171472173Y-123810721D01*
X171472175Y-123810717D01*
X171480941Y-123797598D01*
X171560130Y-123606420D01*
X171600500Y-123403465D01*
X171600500Y-123196535D01*
X171560130Y-122993580D01*
X171480941Y-122802402D01*
X171365977Y-122630345D01*
X171365975Y-122630342D01*
X171219657Y-122484024D01*
X171133626Y-122426541D01*
X171047598Y-122369059D01*
X171043986Y-122367563D01*
X170892956Y-122305004D01*
X170856420Y-122289870D01*
X170856412Y-122289868D01*
X170653469Y-122249500D01*
X170653465Y-122249500D01*
X170446535Y-122249500D01*
X170446530Y-122249500D01*
X170243587Y-122289868D01*
X170243579Y-122289870D01*
X170052403Y-122369058D01*
X169880342Y-122484024D01*
X169734024Y-122630342D01*
X169619058Y-122802403D01*
X169539870Y-122993579D01*
X169539868Y-122993587D01*
X169499500Y-123196530D01*
X165580383Y-123196530D01*
X165562224Y-123105240D01*
X165560240Y-123095265D01*
X165481051Y-122904087D01*
X165366087Y-122732030D01*
X165366085Y-122732027D01*
X165219767Y-122585709D01*
X165067583Y-122484024D01*
X165047708Y-122470744D01*
X164856530Y-122391555D01*
X164856522Y-122391553D01*
X164653579Y-122351185D01*
X164653575Y-122351185D01*
X164446645Y-122351185D01*
X164446640Y-122351185D01*
X164243697Y-122391553D01*
X164243689Y-122391555D01*
X164052513Y-122470743D01*
X163880452Y-122585709D01*
X163734134Y-122732027D01*
X163619168Y-122904088D01*
X163539980Y-123095264D01*
X163539978Y-123095272D01*
X163499610Y-123298215D01*
X161078755Y-123298215D01*
X161367581Y-123105228D01*
X161637246Y-122883920D01*
X161883920Y-122637246D01*
X162105228Y-122367581D01*
X162219520Y-122196530D01*
X172599500Y-122196530D01*
X172599500Y-122403469D01*
X172639868Y-122606412D01*
X172639870Y-122606420D01*
X172719058Y-122797596D01*
X172834024Y-122969657D01*
X172980342Y-123115975D01*
X172980345Y-123115977D01*
X173152402Y-123230941D01*
X173343580Y-123310130D01*
X173546530Y-123350499D01*
X173546534Y-123350500D01*
X173546535Y-123350500D01*
X173753466Y-123350500D01*
X173753467Y-123350499D01*
X173956420Y-123310130D01*
X174147598Y-123230941D01*
X174319655Y-123115977D01*
X174465977Y-122969655D01*
X174580941Y-122797598D01*
X174660130Y-122606420D01*
X174700500Y-122403465D01*
X174700500Y-122196535D01*
X174660130Y-121993580D01*
X174580941Y-121802402D01*
X174465977Y-121630345D01*
X174465975Y-121630342D01*
X174319657Y-121484024D01*
X174233626Y-121426541D01*
X174147598Y-121369059D01*
X173956420Y-121289870D01*
X173956412Y-121289868D01*
X173753469Y-121249500D01*
X173753465Y-121249500D01*
X173546535Y-121249500D01*
X173546530Y-121249500D01*
X173343587Y-121289868D01*
X173343579Y-121289870D01*
X173152403Y-121369058D01*
X172980342Y-121484024D01*
X172834024Y-121630342D01*
X172719058Y-121802403D01*
X172639870Y-121993579D01*
X172639868Y-121993587D01*
X172599500Y-122196530D01*
X162219520Y-122196530D01*
X162299038Y-122077523D01*
X162463485Y-121769865D01*
X162596984Y-121447570D01*
X162698250Y-121113742D01*
X162698252Y-121113732D01*
X162698255Y-121113721D01*
X162766307Y-120771594D01*
X162800500Y-120424421D01*
X162800500Y-120075578D01*
X186199500Y-120075578D01*
X186199500Y-120424421D01*
X186233692Y-120771594D01*
X186301744Y-121113721D01*
X186301747Y-121113732D01*
X186403016Y-121447571D01*
X186536516Y-121769867D01*
X186536518Y-121769872D01*
X186700955Y-122077511D01*
X186700972Y-122077539D01*
X186894759Y-122367563D01*
X186894776Y-122367586D01*
X187116084Y-122637251D01*
X187362748Y-122883915D01*
X187362753Y-122883919D01*
X187362754Y-122883920D01*
X187632419Y-123105228D01*
X187632426Y-123105233D01*
X187632436Y-123105240D01*
X187922460Y-123299027D01*
X187922465Y-123299030D01*
X187922477Y-123299038D01*
X187922486Y-123299042D01*
X187922488Y-123299044D01*
X188230127Y-123463481D01*
X188230129Y-123463481D01*
X188230135Y-123463485D01*
X188552430Y-123596984D01*
X188886258Y-123698250D01*
X188886264Y-123698251D01*
X188886267Y-123698252D01*
X188886278Y-123698255D01*
X189228405Y-123766307D01*
X189575575Y-123800500D01*
X189575578Y-123800500D01*
X189924422Y-123800500D01*
X189924425Y-123800500D01*
X190271595Y-123766307D01*
X190338197Y-123753059D01*
X190613721Y-123698255D01*
X190613732Y-123698252D01*
X190613732Y-123698251D01*
X190613742Y-123698250D01*
X190947570Y-123596984D01*
X191269865Y-123463485D01*
X191577523Y-123299038D01*
X191867581Y-123105228D01*
X192137246Y-122883920D01*
X192383920Y-122637246D01*
X192605228Y-122367581D01*
X192799038Y-122077523D01*
X192963485Y-121769865D01*
X193096984Y-121447570D01*
X193198250Y-121113742D01*
X193198252Y-121113732D01*
X193198255Y-121113721D01*
X193266307Y-120771594D01*
X193300500Y-120424421D01*
X193300500Y-120075578D01*
X193282750Y-119895361D01*
X193266307Y-119728405D01*
X193217902Y-119485054D01*
X193198255Y-119386278D01*
X193198252Y-119386267D01*
X193198251Y-119386264D01*
X193198250Y-119386258D01*
X193096984Y-119052430D01*
X192963485Y-118730135D01*
X192911407Y-118632705D01*
X192799044Y-118422488D01*
X192799042Y-118422486D01*
X192799038Y-118422477D01*
X192799027Y-118422460D01*
X192605240Y-118132436D01*
X192605233Y-118132426D01*
X192605228Y-118132419D01*
X192383920Y-117862754D01*
X192383919Y-117862753D01*
X192383915Y-117862748D01*
X192137251Y-117616084D01*
X191867586Y-117394776D01*
X191867563Y-117394759D01*
X191796987Y-117347602D01*
X191752181Y-117293990D01*
X191743474Y-117224665D01*
X191773628Y-117161638D01*
X191833071Y-117124918D01*
X191865877Y-117120500D01*
X193134851Y-117120500D01*
X193134852Y-117120500D01*
X193337034Y-117088477D01*
X193531719Y-117025220D01*
X193714110Y-116932287D01*
X193813952Y-116859748D01*
X193879713Y-116811971D01*
X193879715Y-116811968D01*
X193879719Y-116811966D01*
X194024466Y-116667219D01*
X194024468Y-116667215D01*
X194024471Y-116667213D01*
X194084911Y-116584023D01*
X194144787Y-116501610D01*
X194237720Y-116319219D01*
X194300977Y-116124534D01*
X194333000Y-115922352D01*
X194333000Y-115717648D01*
X194962000Y-115717648D01*
X194962000Y-115922351D01*
X194994022Y-116124534D01*
X195057281Y-116319223D01*
X195097215Y-116397596D01*
X195150212Y-116501609D01*
X195150215Y-116501613D01*
X195270528Y-116667213D01*
X195415286Y-116811971D01*
X195570249Y-116924556D01*
X195580890Y-116932287D01*
X195697107Y-116991503D01*
X195763276Y-117025218D01*
X195763278Y-117025218D01*
X195763281Y-117025220D01*
X195798047Y-117036516D01*
X195957965Y-117088477D01*
X196059057Y-117104488D01*
X196160148Y-117120500D01*
X196160149Y-117120500D01*
X197164851Y-117120500D01*
X197164852Y-117120500D01*
X197367034Y-117088477D01*
X197561719Y-117025220D01*
X197744110Y-116932287D01*
X197843952Y-116859748D01*
X197909713Y-116811971D01*
X197909715Y-116811968D01*
X197909719Y-116811966D01*
X198054466Y-116667219D01*
X198054468Y-116667215D01*
X198054471Y-116667213D01*
X198114911Y-116584023D01*
X198174787Y-116501610D01*
X198267720Y-116319219D01*
X198330977Y-116124534D01*
X198363000Y-115922352D01*
X198363000Y-115717648D01*
X198330977Y-115515466D01*
X198328488Y-115507807D01*
X198267718Y-115320776D01*
X198219023Y-115225208D01*
X198174787Y-115138390D01*
X198135288Y-115084024D01*
X198054471Y-114972786D01*
X197909713Y-114828028D01*
X197744113Y-114707715D01*
X197744112Y-114707714D01*
X197744110Y-114707713D01*
X197681634Y-114675880D01*
X197561723Y-114614781D01*
X197367034Y-114551522D01*
X197192495Y-114523878D01*
X197164852Y-114519500D01*
X196160148Y-114519500D01*
X196135829Y-114523351D01*
X195957965Y-114551522D01*
X195763276Y-114614781D01*
X195580886Y-114707715D01*
X195415286Y-114828028D01*
X195270528Y-114972786D01*
X195150215Y-115138386D01*
X195057281Y-115320776D01*
X194994022Y-115515465D01*
X194962000Y-115717648D01*
X194333000Y-115717648D01*
X194300977Y-115515466D01*
X194298488Y-115507807D01*
X194237718Y-115320776D01*
X194189023Y-115225208D01*
X194144787Y-115138390D01*
X194105288Y-115084024D01*
X194024471Y-114972786D01*
X193879713Y-114828028D01*
X193714114Y-114707715D01*
X193609179Y-114654248D01*
X193558383Y-114606273D01*
X193541588Y-114538452D01*
X193545699Y-114511673D01*
X193558000Y-114465766D01*
X193558000Y-114314234D01*
X193518781Y-114167865D01*
X193443015Y-114036635D01*
X193335865Y-113929485D01*
X193231203Y-113869058D01*
X193204636Y-113853719D01*
X193117390Y-113830342D01*
X193058266Y-113814500D01*
X192906734Y-113814500D01*
X192760363Y-113853719D01*
X192629135Y-113929485D01*
X192629132Y-113929487D01*
X192521987Y-114036632D01*
X192521985Y-114036635D01*
X192446219Y-114167863D01*
X192407000Y-114314234D01*
X192407000Y-114395500D01*
X192387315Y-114462539D01*
X192334511Y-114508294D01*
X192283000Y-114519500D01*
X191830148Y-114519500D01*
X191805829Y-114523351D01*
X191627965Y-114551522D01*
X191433276Y-114614781D01*
X191250886Y-114707715D01*
X191085286Y-114828028D01*
X190940528Y-114972786D01*
X190820215Y-115138386D01*
X190727281Y-115320776D01*
X190664022Y-115515465D01*
X190632000Y-115717648D01*
X190632000Y-115922351D01*
X190664022Y-116124534D01*
X190727281Y-116319223D01*
X190820212Y-116501609D01*
X190941248Y-116668202D01*
X190964727Y-116734009D01*
X190948901Y-116802062D01*
X190898795Y-116850757D01*
X190830317Y-116864632D01*
X190804936Y-116859748D01*
X190613742Y-116801750D01*
X190613741Y-116801749D01*
X190613732Y-116801747D01*
X190613721Y-116801744D01*
X190271594Y-116733692D01*
X190010120Y-116707940D01*
X189924425Y-116699500D01*
X189575575Y-116699500D01*
X189496394Y-116707298D01*
X189228405Y-116733692D01*
X188886278Y-116801744D01*
X188886267Y-116801747D01*
X188552428Y-116903016D01*
X188230132Y-117036516D01*
X188230127Y-117036518D01*
X187922488Y-117200955D01*
X187922460Y-117200972D01*
X187632436Y-117394759D01*
X187632413Y-117394776D01*
X187362748Y-117616084D01*
X187116084Y-117862748D01*
X186894776Y-118132413D01*
X186894759Y-118132436D01*
X186700972Y-118422460D01*
X186700955Y-118422488D01*
X186536518Y-118730127D01*
X186536516Y-118730132D01*
X186403016Y-119052428D01*
X186301747Y-119386267D01*
X186301744Y-119386278D01*
X186233692Y-119728405D01*
X186199500Y-120075578D01*
X162800500Y-120075578D01*
X162782750Y-119895361D01*
X162766307Y-119728405D01*
X162717902Y-119485054D01*
X162698255Y-119386278D01*
X162698252Y-119386267D01*
X162698251Y-119386264D01*
X162698250Y-119386258D01*
X162596984Y-119052430D01*
X162463485Y-118730135D01*
X162411407Y-118632705D01*
X162299044Y-118422488D01*
X162299042Y-118422486D01*
X162299038Y-118422477D01*
X162299027Y-118422460D01*
X162105240Y-118132436D01*
X162105233Y-118132426D01*
X162105228Y-118132419D01*
X161883920Y-117862754D01*
X161883919Y-117862753D01*
X161883915Y-117862748D01*
X161637251Y-117616084D01*
X161481157Y-117487981D01*
X161371776Y-117398215D01*
X166899610Y-117398215D01*
X166899610Y-117605154D01*
X166939978Y-117808097D01*
X166939980Y-117808105D01*
X167019168Y-117999281D01*
X167134134Y-118171342D01*
X167280452Y-118317660D01*
X167280455Y-118317662D01*
X167452512Y-118432626D01*
X167643690Y-118511815D01*
X167846640Y-118552184D01*
X167846644Y-118552185D01*
X167846645Y-118552185D01*
X168053576Y-118552185D01*
X168053577Y-118552184D01*
X168256530Y-118511815D01*
X168447708Y-118432626D01*
X168619765Y-118317662D01*
X168766087Y-118171340D01*
X168773371Y-118160439D01*
X173463409Y-118160439D01*
X173463409Y-118367378D01*
X173503777Y-118570321D01*
X173503779Y-118570329D01*
X173582967Y-118761505D01*
X173697933Y-118933566D01*
X173844251Y-119079884D01*
X173844254Y-119079886D01*
X174016311Y-119194850D01*
X174207489Y-119274039D01*
X174410439Y-119314408D01*
X174410443Y-119314409D01*
X174410444Y-119314409D01*
X174617375Y-119314409D01*
X174617376Y-119314408D01*
X174820329Y-119274039D01*
X175011507Y-119194850D01*
X175183564Y-119079886D01*
X175329886Y-118933564D01*
X175444850Y-118761507D01*
X175524039Y-118570329D01*
X175564409Y-118367374D01*
X175564409Y-118160444D01*
X175524039Y-117957489D01*
X175444850Y-117766311D01*
X175329886Y-117594254D01*
X175329884Y-117594251D01*
X175183566Y-117447933D01*
X175020431Y-117338931D01*
X175011507Y-117332968D01*
X174923550Y-117296535D01*
X174820329Y-117253779D01*
X174820321Y-117253777D01*
X174617378Y-117213409D01*
X174617374Y-117213409D01*
X174410444Y-117213409D01*
X174410439Y-117213409D01*
X174207496Y-117253777D01*
X174207488Y-117253779D01*
X174016312Y-117332967D01*
X173844251Y-117447933D01*
X173697933Y-117594251D01*
X173582967Y-117766312D01*
X173503779Y-117957488D01*
X173503777Y-117957496D01*
X173463409Y-118160439D01*
X168773371Y-118160439D01*
X168881051Y-117999283D01*
X168960240Y-117808105D01*
X169000610Y-117605150D01*
X169000610Y-117398220D01*
X168960240Y-117195265D01*
X168881051Y-117004087D01*
X168766087Y-116832030D01*
X168766085Y-116832027D01*
X168619767Y-116685709D01*
X168467583Y-116584024D01*
X168447708Y-116570744D01*
X168256530Y-116491555D01*
X168256522Y-116491553D01*
X168053579Y-116451185D01*
X168053575Y-116451185D01*
X167846645Y-116451185D01*
X167846640Y-116451185D01*
X167643697Y-116491553D01*
X167643689Y-116491555D01*
X167452513Y-116570743D01*
X167280452Y-116685709D01*
X167134134Y-116832027D01*
X167019168Y-117004088D01*
X166939980Y-117195264D01*
X166939978Y-117195272D01*
X166899610Y-117398215D01*
X161371776Y-117398215D01*
X161367586Y-117394776D01*
X161367563Y-117394759D01*
X161077539Y-117200972D01*
X161077511Y-117200955D01*
X160769872Y-117036518D01*
X160769867Y-117036516D01*
X160742591Y-117025218D01*
X160595199Y-116964166D01*
X160447571Y-116903016D01*
X160122257Y-116804333D01*
X160113742Y-116801750D01*
X160113741Y-116801749D01*
X160113732Y-116801747D01*
X160113721Y-116801744D01*
X159771594Y-116733692D01*
X159510120Y-116707940D01*
X159424425Y-116699500D01*
X159075575Y-116699500D01*
X158996394Y-116707298D01*
X158728405Y-116733692D01*
X158386278Y-116801744D01*
X158386267Y-116801747D01*
X158052428Y-116903016D01*
X157730132Y-117036516D01*
X157730127Y-117036518D01*
X157422488Y-117200955D01*
X157422460Y-117200972D01*
X157132436Y-117394759D01*
X157132413Y-117394776D01*
X156862748Y-117616084D01*
X156616084Y-117862748D01*
X156394776Y-118132413D01*
X156394759Y-118132436D01*
X156200972Y-118422460D01*
X156200955Y-118422488D01*
X156036518Y-118730127D01*
X156036516Y-118730132D01*
X155903016Y-119052428D01*
X155801747Y-119386267D01*
X155801744Y-119386278D01*
X155733692Y-119728405D01*
X155699500Y-120075578D01*
X152028806Y-120075578D01*
X152115051Y-120031634D01*
X152325229Y-119878931D01*
X152508931Y-119695229D01*
X152661634Y-119485051D01*
X152779579Y-119253572D01*
X152859860Y-119006493D01*
X152882539Y-118863298D01*
X152900500Y-118749902D01*
X152900500Y-118490097D01*
X152875292Y-118330941D01*
X152859860Y-118233507D01*
X152779579Y-117986428D01*
X152779577Y-117986425D01*
X152779577Y-117986423D01*
X152734317Y-117897596D01*
X152661634Y-117754949D01*
X152508931Y-117544771D01*
X152401841Y-117437681D01*
X152368356Y-117376358D01*
X152373340Y-117306666D01*
X152401841Y-117262319D01*
X152450751Y-117213409D01*
X152508931Y-117155229D01*
X152661634Y-116945051D01*
X152779579Y-116713572D01*
X152859860Y-116466493D01*
X152884625Y-116310129D01*
X152900500Y-116209902D01*
X152900500Y-115950097D01*
X152876178Y-115796535D01*
X152859860Y-115693507D01*
X152779579Y-115446428D01*
X152779577Y-115446425D01*
X152779577Y-115446423D01*
X152680717Y-115252402D01*
X152661634Y-115214949D01*
X152508931Y-115004771D01*
X152500690Y-114996530D01*
X157699500Y-114996530D01*
X157699500Y-115203469D01*
X157739868Y-115406412D01*
X157739870Y-115406420D01*
X157817397Y-115593587D01*
X157819059Y-115597598D01*
X157876541Y-115683626D01*
X157934024Y-115769657D01*
X158080342Y-115915975D01*
X158080345Y-115915977D01*
X158252402Y-116030941D01*
X158443580Y-116110130D01*
X158646530Y-116150499D01*
X158646534Y-116150500D01*
X158646535Y-116150500D01*
X158853466Y-116150500D01*
X158853467Y-116150499D01*
X159056420Y-116110130D01*
X159247598Y-116030941D01*
X159419655Y-115915977D01*
X159565977Y-115769655D01*
X159680941Y-115597598D01*
X159760130Y-115406420D01*
X159800500Y-115203465D01*
X159800500Y-115131087D01*
X165682284Y-115131087D01*
X165682284Y-115338026D01*
X165722652Y-115540969D01*
X165722654Y-115540977D01*
X165801842Y-115732153D01*
X165916808Y-115904214D01*
X166063126Y-116050532D01*
X166063129Y-116050534D01*
X166235186Y-116165498D01*
X166426364Y-116244687D01*
X166620642Y-116283331D01*
X166629314Y-116285056D01*
X166629318Y-116285057D01*
X166629319Y-116285057D01*
X166836250Y-116285057D01*
X166836251Y-116285056D01*
X167039204Y-116244687D01*
X167230382Y-116165498D01*
X167402439Y-116050534D01*
X167548761Y-115904212D01*
X167663725Y-115732155D01*
X167742914Y-115540977D01*
X167783284Y-115338022D01*
X167783284Y-115196530D01*
X169499500Y-115196530D01*
X169499500Y-115403469D01*
X169539868Y-115606412D01*
X169539870Y-115606420D01*
X169618616Y-115796530D01*
X169619059Y-115797598D01*
X169654406Y-115850499D01*
X169734024Y-115969657D01*
X169880342Y-116115975D01*
X169880345Y-116115977D01*
X170052402Y-116230941D01*
X170243580Y-116310130D01*
X170370411Y-116335358D01*
X170446530Y-116350499D01*
X170446534Y-116350500D01*
X170446535Y-116350500D01*
X170653466Y-116350500D01*
X170653467Y-116350499D01*
X170856420Y-116310130D01*
X171047598Y-116230941D01*
X171219655Y-116115977D01*
X171365977Y-115969655D01*
X171480941Y-115797598D01*
X171560130Y-115606420D01*
X171600500Y-115403465D01*
X171600500Y-115196535D01*
X171560130Y-114993580D01*
X171480941Y-114802402D01*
X171365977Y-114630345D01*
X171365975Y-114630342D01*
X171219657Y-114484024D01*
X171101464Y-114405051D01*
X171047598Y-114369059D01*
X170856420Y-114289870D01*
X170856412Y-114289868D01*
X170653469Y-114249500D01*
X170653465Y-114249500D01*
X170446535Y-114249500D01*
X170446530Y-114249500D01*
X170243587Y-114289868D01*
X170243579Y-114289870D01*
X170052403Y-114369058D01*
X169880342Y-114484024D01*
X169734024Y-114630342D01*
X169619058Y-114802403D01*
X169539870Y-114993579D01*
X169539868Y-114993587D01*
X169499500Y-115196530D01*
X167783284Y-115196530D01*
X167783284Y-115131092D01*
X167756518Y-114996530D01*
X167742915Y-114928141D01*
X167741759Y-114924330D01*
X167741740Y-114922233D01*
X167741726Y-114922162D01*
X167741739Y-114922159D01*
X167741132Y-114854463D01*
X167745858Y-114840876D01*
X167760127Y-114806428D01*
X167760127Y-114806425D01*
X167760130Y-114806420D01*
X167800500Y-114603465D01*
X167800500Y-114396535D01*
X167760717Y-114196530D01*
X172699500Y-114196530D01*
X172699500Y-114403469D01*
X172739868Y-114606412D01*
X172739870Y-114606420D01*
X172817397Y-114793587D01*
X172819059Y-114797598D01*
X172874190Y-114880108D01*
X172934024Y-114969657D01*
X173080342Y-115115975D01*
X173080345Y-115115977D01*
X173163586Y-115171597D01*
X173208391Y-115225208D01*
X173217099Y-115294533D01*
X173209257Y-115322151D01*
X173193878Y-115359278D01*
X173193875Y-115359290D01*
X173153507Y-115562233D01*
X173153507Y-115769172D01*
X173193875Y-115972115D01*
X173193877Y-115972123D01*
X173273065Y-116163299D01*
X173388031Y-116335360D01*
X173534349Y-116481678D01*
X173534352Y-116481680D01*
X173706409Y-116596644D01*
X173897587Y-116675833D01*
X174087315Y-116713572D01*
X174100537Y-116716202D01*
X174100541Y-116716203D01*
X174100542Y-116716203D01*
X174307473Y-116716203D01*
X174307474Y-116716202D01*
X174510427Y-116675833D01*
X174701605Y-116596644D01*
X174873662Y-116481680D01*
X175019984Y-116335358D01*
X175134948Y-116163301D01*
X175214137Y-115972123D01*
X175254507Y-115769168D01*
X175254507Y-115646530D01*
X179949500Y-115646530D01*
X179949500Y-115853469D01*
X179989868Y-116056412D01*
X179989870Y-116056420D01*
X180067853Y-116244688D01*
X180069059Y-116247598D01*
X180094088Y-116285057D01*
X180184024Y-116419657D01*
X180330342Y-116565975D01*
X180330345Y-116565977D01*
X180502402Y-116680941D01*
X180693580Y-116760130D01*
X180841466Y-116789546D01*
X180900536Y-116801296D01*
X180962447Y-116833680D01*
X180997021Y-116894396D01*
X180993282Y-116964166D01*
X180990906Y-116970365D01*
X180939871Y-117093575D01*
X180939868Y-117093587D01*
X180899500Y-117296530D01*
X180899500Y-117503469D01*
X180939868Y-117706412D01*
X180939870Y-117706420D01*
X181004623Y-117862748D01*
X181019059Y-117897598D01*
X181059076Y-117957488D01*
X181134024Y-118069657D01*
X181280342Y-118215975D01*
X181280345Y-118215977D01*
X181452402Y-118330941D01*
X181643580Y-118410130D01*
X181654971Y-118412395D01*
X181716882Y-118444779D01*
X181733883Y-118465122D01*
X181748090Y-118486384D01*
X181748093Y-118486388D01*
X181894410Y-118632705D01*
X181894413Y-118632707D01*
X182066470Y-118747671D01*
X182257648Y-118826860D01*
X182460598Y-118867229D01*
X182460602Y-118867230D01*
X182460603Y-118867230D01*
X182667534Y-118867230D01*
X182667535Y-118867229D01*
X182870488Y-118826860D01*
X183061666Y-118747671D01*
X183233723Y-118632707D01*
X183380045Y-118486385D01*
X183495009Y-118314328D01*
X183574198Y-118123150D01*
X183614568Y-117920195D01*
X183614568Y-117713265D01*
X183574198Y-117510310D01*
X183495009Y-117319132D01*
X183380045Y-117147075D01*
X183380043Y-117147072D01*
X183233725Y-117000754D01*
X183131251Y-116932284D01*
X183061666Y-116885789D01*
X182870488Y-116806600D01*
X182870483Y-116806598D01*
X182859093Y-116804333D01*
X182797182Y-116771947D01*
X182780184Y-116751606D01*
X182765980Y-116730349D01*
X182765974Y-116730341D01*
X182619657Y-116584024D01*
X182447596Y-116469057D01*
X182265102Y-116393466D01*
X182210699Y-116349625D01*
X182188634Y-116283331D01*
X182205913Y-116215631D01*
X182243663Y-116175804D01*
X182354827Y-116101528D01*
X182501149Y-115955206D01*
X182607172Y-115796530D01*
X183099500Y-115796530D01*
X183099500Y-116003469D01*
X183139868Y-116206412D01*
X183139870Y-116206420D01*
X183219059Y-116397598D01*
X183265093Y-116466493D01*
X183334024Y-116569657D01*
X183480342Y-116715975D01*
X183480345Y-116715977D01*
X183652402Y-116830941D01*
X183843580Y-116910130D01*
X184019141Y-116945051D01*
X184046530Y-116950499D01*
X184046534Y-116950500D01*
X184046535Y-116950500D01*
X184253466Y-116950500D01*
X184253467Y-116950499D01*
X184456420Y-116910130D01*
X184647598Y-116830941D01*
X184819655Y-116715977D01*
X184965977Y-116569655D01*
X185080941Y-116397598D01*
X185160130Y-116206420D01*
X185200500Y-116003465D01*
X185200500Y-115796535D01*
X185160130Y-115593580D01*
X185080941Y-115402402D01*
X184965977Y-115230345D01*
X184965975Y-115230342D01*
X184819657Y-115084024D01*
X184688719Y-114996535D01*
X184647598Y-114969059D01*
X184548799Y-114928135D01*
X184456420Y-114889870D01*
X184456412Y-114889868D01*
X184253469Y-114849500D01*
X184253465Y-114849500D01*
X184046535Y-114849500D01*
X184046530Y-114849500D01*
X183843587Y-114889868D01*
X183843579Y-114889870D01*
X183652403Y-114969058D01*
X183480342Y-115084024D01*
X183334024Y-115230342D01*
X183219058Y-115402403D01*
X183139870Y-115593579D01*
X183139868Y-115593587D01*
X183099500Y-115796530D01*
X182607172Y-115796530D01*
X182616113Y-115783149D01*
X182695302Y-115591971D01*
X182735672Y-115389016D01*
X182735672Y-115182086D01*
X182695302Y-114979131D01*
X182616113Y-114787953D01*
X182601890Y-114766666D01*
X182596990Y-114759332D01*
X182596989Y-114759331D01*
X182555027Y-114696530D01*
X186999500Y-114696530D01*
X186999500Y-114903469D01*
X187039868Y-115106412D01*
X187039870Y-115106420D01*
X187100338Y-115252403D01*
X187119059Y-115297598D01*
X187135465Y-115322151D01*
X187234024Y-115469657D01*
X187380342Y-115615975D01*
X187380345Y-115615977D01*
X187552402Y-115730941D01*
X187743580Y-115810130D01*
X187946530Y-115850499D01*
X187946534Y-115850500D01*
X187946535Y-115850500D01*
X188153466Y-115850500D01*
X188153467Y-115850499D01*
X188356420Y-115810130D01*
X188547598Y-115730941D01*
X188719655Y-115615977D01*
X188865977Y-115469655D01*
X188980941Y-115297598D01*
X189060130Y-115106420D01*
X189100500Y-114903465D01*
X189100500Y-114696535D01*
X189060130Y-114493580D01*
X188980941Y-114302402D01*
X188865977Y-114130345D01*
X188865975Y-114130342D01*
X188719657Y-113984024D01*
X188609067Y-113910131D01*
X188547598Y-113869059D01*
X188510564Y-113853719D01*
X188356420Y-113789870D01*
X188356412Y-113789868D01*
X188153469Y-113749500D01*
X188153465Y-113749500D01*
X187946535Y-113749500D01*
X187946530Y-113749500D01*
X187743587Y-113789868D01*
X187743579Y-113789870D01*
X187552403Y-113869058D01*
X187380342Y-113984024D01*
X187234024Y-114130342D01*
X187119058Y-114302403D01*
X187039870Y-114493579D01*
X187039868Y-114493587D01*
X186999500Y-114696530D01*
X182555027Y-114696530D01*
X182501152Y-114615900D01*
X182501146Y-114615892D01*
X182354829Y-114469575D01*
X182245508Y-114396530D01*
X182182770Y-114354610D01*
X182085294Y-114314234D01*
X181991592Y-114275421D01*
X181991584Y-114275419D01*
X181788641Y-114235051D01*
X181788637Y-114235051D01*
X181581707Y-114235051D01*
X181581702Y-114235051D01*
X181378759Y-114275419D01*
X181378751Y-114275421D01*
X181187575Y-114354609D01*
X181015514Y-114469575D01*
X180869197Y-114615892D01*
X180869194Y-114615896D01*
X180829114Y-114675880D01*
X180775501Y-114720685D01*
X180750204Y-114728606D01*
X180693585Y-114739868D01*
X180693579Y-114739870D01*
X180502403Y-114819058D01*
X180330342Y-114934024D01*
X180184024Y-115080342D01*
X180069058Y-115252403D01*
X179989870Y-115443579D01*
X179989868Y-115443587D01*
X179949500Y-115646530D01*
X175254507Y-115646530D01*
X175254507Y-115611224D01*
X175274192Y-115544185D01*
X175326996Y-115498430D01*
X175396154Y-115488486D01*
X175425954Y-115496661D01*
X175452865Y-115507808D01*
X175619578Y-115540969D01*
X175655815Y-115548177D01*
X175655819Y-115548178D01*
X175655820Y-115548178D01*
X175862751Y-115548178D01*
X175862752Y-115548177D01*
X175904748Y-115539823D01*
X176010316Y-115518826D01*
X176036062Y-115513704D01*
X176065705Y-115507808D01*
X176256883Y-115428619D01*
X176428940Y-115313655D01*
X176575262Y-115167333D01*
X176690226Y-114995276D01*
X176769415Y-114804098D01*
X176809785Y-114601143D01*
X176809785Y-114394213D01*
X176769415Y-114191258D01*
X176760220Y-114169059D01*
X176733888Y-114105487D01*
X176726419Y-114036018D01*
X176757694Y-113973539D01*
X176817783Y-113937887D01*
X176824213Y-113936427D01*
X176956420Y-113910130D01*
X177147598Y-113830941D01*
X177319655Y-113715977D01*
X177465977Y-113569655D01*
X177580941Y-113397598D01*
X177660130Y-113206420D01*
X177700500Y-113003465D01*
X177700500Y-112796535D01*
X177660130Y-112593580D01*
X177580941Y-112402402D01*
X177465977Y-112230345D01*
X177465975Y-112230342D01*
X177319657Y-112084024D01*
X177209067Y-112010131D01*
X177147598Y-111969059D01*
X177054127Y-111930342D01*
X176956420Y-111889870D01*
X176956412Y-111889868D01*
X176753469Y-111849500D01*
X176753465Y-111849500D01*
X176546535Y-111849500D01*
X176546530Y-111849500D01*
X176343587Y-111889868D01*
X176343579Y-111889870D01*
X176152403Y-111969058D01*
X175980342Y-112084024D01*
X175834024Y-112230342D01*
X175719058Y-112402403D01*
X175639870Y-112593579D01*
X175639868Y-112593587D01*
X175599500Y-112796530D01*
X175599500Y-112847344D01*
X175579815Y-112914383D01*
X175527011Y-112960138D01*
X175457853Y-112970082D01*
X175451310Y-112968962D01*
X175383206Y-112955415D01*
X175353465Y-112949500D01*
X175146535Y-112949500D01*
X175146530Y-112949500D01*
X174943587Y-112989868D01*
X174943579Y-112989870D01*
X174752403Y-113069058D01*
X174580342Y-113184024D01*
X174434025Y-113330341D01*
X174434018Y-113330350D01*
X174427486Y-113340126D01*
X174373873Y-113384930D01*
X174304548Y-113393636D01*
X174255499Y-113374337D01*
X174247601Y-113369060D01*
X174247599Y-113369059D01*
X174056420Y-113289870D01*
X174056412Y-113289868D01*
X173853469Y-113249500D01*
X173853465Y-113249500D01*
X173646535Y-113249500D01*
X173646530Y-113249500D01*
X173443587Y-113289868D01*
X173443579Y-113289870D01*
X173252403Y-113369058D01*
X173080342Y-113484024D01*
X172934024Y-113630342D01*
X172819058Y-113802403D01*
X172739870Y-113993579D01*
X172739868Y-113993587D01*
X172699500Y-114196530D01*
X167760717Y-114196530D01*
X167760130Y-114193580D01*
X167680941Y-114002402D01*
X167565977Y-113830345D01*
X167565975Y-113830342D01*
X167419657Y-113684024D01*
X167309067Y-113610131D01*
X167247598Y-113569059D01*
X167056420Y-113489870D01*
X167056412Y-113489868D01*
X166853469Y-113449500D01*
X166853465Y-113449500D01*
X166646535Y-113449500D01*
X166646530Y-113449500D01*
X166443587Y-113489868D01*
X166443579Y-113489870D01*
X166252403Y-113569058D01*
X166080342Y-113684024D01*
X165934024Y-113830342D01*
X165819058Y-114002403D01*
X165739870Y-114193579D01*
X165739868Y-114193587D01*
X165699500Y-114396530D01*
X165699500Y-114603469D01*
X165739868Y-114806414D01*
X165741029Y-114810241D01*
X165741047Y-114812341D01*
X165741058Y-114812394D01*
X165741048Y-114812395D01*
X165741646Y-114880108D01*
X165736927Y-114893677D01*
X165722654Y-114928135D01*
X165722651Y-114928144D01*
X165682284Y-115131087D01*
X159800500Y-115131087D01*
X159800500Y-114996535D01*
X159760130Y-114793580D01*
X159680941Y-114602402D01*
X159565977Y-114430345D01*
X159565975Y-114430342D01*
X159419657Y-114284024D01*
X159288719Y-114196535D01*
X159247598Y-114169059D01*
X159244715Y-114167865D01*
X159056420Y-114089870D01*
X159056412Y-114089868D01*
X158853469Y-114049500D01*
X158853465Y-114049500D01*
X158646535Y-114049500D01*
X158646530Y-114049500D01*
X158443587Y-114089868D01*
X158443579Y-114089870D01*
X158252403Y-114169058D01*
X158080342Y-114284024D01*
X157934024Y-114430342D01*
X157819058Y-114602403D01*
X157739870Y-114793579D01*
X157739868Y-114793587D01*
X157699500Y-114996530D01*
X152500690Y-114996530D01*
X152399508Y-114895348D01*
X152397321Y-114892916D01*
X152383584Y-114864246D01*
X152368356Y-114836358D01*
X152368598Y-114832969D01*
X152367130Y-114829905D01*
X152371072Y-114798369D01*
X152373340Y-114766666D01*
X152375446Y-114763388D01*
X152375798Y-114760575D01*
X152382128Y-114752991D01*
X152401841Y-114722319D01*
X152448280Y-114675880D01*
X152508931Y-114615229D01*
X152661634Y-114405051D01*
X152779579Y-114173572D01*
X152859860Y-113926493D01*
X152882539Y-113783298D01*
X152900500Y-113669902D01*
X152900500Y-113410097D01*
X152864693Y-113184023D01*
X152859860Y-113153507D01*
X152779579Y-112906428D01*
X152779577Y-112906425D01*
X152779577Y-112906423D01*
X152691133Y-112732844D01*
X152661634Y-112674949D01*
X152616785Y-112613220D01*
X152605319Y-112581086D01*
X152593420Y-112549182D01*
X152593615Y-112548283D01*
X152593306Y-112547416D01*
X152601030Y-112514198D01*
X152604874Y-112496530D01*
X163999500Y-112496530D01*
X163999500Y-112703469D01*
X164039868Y-112906412D01*
X164039870Y-112906420D01*
X164119058Y-113097596D01*
X164234024Y-113269657D01*
X164380342Y-113415975D01*
X164380345Y-113415977D01*
X164552402Y-113530941D01*
X164743580Y-113610130D01*
X164946530Y-113650499D01*
X164946534Y-113650500D01*
X164946535Y-113650500D01*
X165153466Y-113650500D01*
X165153467Y-113650499D01*
X165356420Y-113610130D01*
X165547598Y-113530941D01*
X165719655Y-113415977D01*
X165803982Y-113331649D01*
X165865303Y-113298165D01*
X165867471Y-113297714D01*
X166056420Y-113260130D01*
X166247598Y-113180941D01*
X166419655Y-113065977D01*
X166565977Y-112919655D01*
X166680941Y-112747598D01*
X166760130Y-112556420D01*
X166800500Y-112353465D01*
X166800500Y-112146535D01*
X166760130Y-111943580D01*
X166680941Y-111752402D01*
X166565977Y-111580345D01*
X166565975Y-111580342D01*
X166419657Y-111434024D01*
X166333626Y-111376541D01*
X166247598Y-111319059D01*
X166231012Y-111312189D01*
X166056420Y-111239870D01*
X166056412Y-111239868D01*
X165853469Y-111199500D01*
X165853465Y-111199500D01*
X165646535Y-111199500D01*
X165646530Y-111199500D01*
X165443587Y-111239868D01*
X165443579Y-111239870D01*
X165252403Y-111319058D01*
X165080342Y-111434024D01*
X165080341Y-111434025D01*
X164996018Y-111518349D01*
X164934695Y-111551834D01*
X164932528Y-111552285D01*
X164743587Y-111589868D01*
X164743579Y-111589870D01*
X164552403Y-111669058D01*
X164380342Y-111784024D01*
X164234024Y-111930342D01*
X164119058Y-112102403D01*
X164039870Y-112293579D01*
X164039868Y-112293587D01*
X163999500Y-112496530D01*
X152604874Y-112496530D01*
X152608272Y-112480909D01*
X152608996Y-112479941D01*
X152609131Y-112479362D01*
X152629423Y-112452655D01*
X152679316Y-112402762D01*
X152692208Y-112389870D01*
X152729816Y-112352262D01*
X152825789Y-112199522D01*
X152885368Y-112029255D01*
X152900500Y-111894954D01*
X152900500Y-110268076D01*
X152920185Y-110201037D01*
X152972989Y-110155282D01*
X153042147Y-110145338D01*
X153105703Y-110174363D01*
X153143477Y-110233141D01*
X153146117Y-110243885D01*
X153155077Y-110288928D01*
X153234266Y-110480106D01*
X153254327Y-110510129D01*
X153349231Y-110652165D01*
X153495549Y-110798483D01*
X153495552Y-110798485D01*
X153667609Y-110913449D01*
X153858787Y-110992638D01*
X154042502Y-111029181D01*
X154061737Y-111033007D01*
X154061741Y-111033008D01*
X154061742Y-111033008D01*
X154268673Y-111033008D01*
X154268674Y-111033007D01*
X154471627Y-110992638D01*
X154662805Y-110913449D01*
X154688126Y-110896530D01*
X169199500Y-110896530D01*
X169199500Y-111103469D01*
X169239868Y-111306412D01*
X169239870Y-111306420D01*
X169307805Y-111470430D01*
X169319059Y-111497598D01*
X169374346Y-111580342D01*
X169434024Y-111669657D01*
X169580342Y-111815975D01*
X169580345Y-111815977D01*
X169752402Y-111930941D01*
X169943580Y-112010130D01*
X170146530Y-112050499D01*
X170146534Y-112050500D01*
X170146535Y-112050500D01*
X170353466Y-112050500D01*
X170353467Y-112050499D01*
X170556420Y-112010130D01*
X170747598Y-111930941D01*
X170890910Y-111835183D01*
X170957586Y-111814306D01*
X171024966Y-111832790D01*
X171071656Y-111884769D01*
X171081416Y-111914092D01*
X171083591Y-111925027D01*
X171083592Y-111925030D01*
X171101829Y-111969059D01*
X171162781Y-112116208D01*
X171185694Y-112150500D01*
X171277746Y-112288267D01*
X171424064Y-112434585D01*
X171424067Y-112434587D01*
X171596124Y-112549551D01*
X171787302Y-112628740D01*
X171960807Y-112663252D01*
X171990252Y-112669109D01*
X171990256Y-112669110D01*
X171990257Y-112669110D01*
X172197188Y-112669110D01*
X172197189Y-112669109D01*
X172400142Y-112628740D01*
X172591320Y-112549551D01*
X172763377Y-112434587D01*
X172909699Y-112288265D01*
X173024663Y-112116208D01*
X173103852Y-111925030D01*
X173144222Y-111722075D01*
X173144222Y-111515145D01*
X173103852Y-111312190D01*
X173024663Y-111121012D01*
X172909699Y-110948955D01*
X172909697Y-110948952D01*
X172763379Y-110802634D01*
X172616526Y-110704511D01*
X172591320Y-110687669D01*
X172505606Y-110652165D01*
X172400142Y-110608480D01*
X172400134Y-110608478D01*
X172197191Y-110568110D01*
X172197187Y-110568110D01*
X171990257Y-110568110D01*
X171990252Y-110568110D01*
X171787309Y-110608478D01*
X171787301Y-110608480D01*
X171596125Y-110687668D01*
X171452812Y-110783426D01*
X171386135Y-110804303D01*
X171318754Y-110785818D01*
X171272065Y-110733839D01*
X171262304Y-110704511D01*
X171260130Y-110693580D01*
X171180941Y-110502402D01*
X171065977Y-110330345D01*
X171065975Y-110330342D01*
X170919657Y-110184024D01*
X170801457Y-110105046D01*
X170747598Y-110069059D01*
X170702790Y-110050499D01*
X170676505Y-110039611D01*
X170556420Y-109989870D01*
X170556412Y-109989868D01*
X170353469Y-109949500D01*
X170353465Y-109949500D01*
X170146535Y-109949500D01*
X170146530Y-109949500D01*
X169943587Y-109989868D01*
X169943579Y-109989870D01*
X169752403Y-110069058D01*
X169580342Y-110184024D01*
X169434024Y-110330342D01*
X169319058Y-110502403D01*
X169239870Y-110693579D01*
X169239868Y-110693587D01*
X169199500Y-110896530D01*
X154688126Y-110896530D01*
X154834862Y-110798485D01*
X154981184Y-110652163D01*
X155062714Y-110530141D01*
X155116326Y-110485336D01*
X155118365Y-110484471D01*
X155247594Y-110430943D01*
X155247595Y-110430942D01*
X155247598Y-110430941D01*
X155419655Y-110315977D01*
X155565977Y-110169655D01*
X155680941Y-109997598D01*
X155760130Y-109806420D01*
X155800500Y-109603465D01*
X155800500Y-109396535D01*
X155800499Y-109396530D01*
X161199500Y-109396530D01*
X161199500Y-109603469D01*
X161239868Y-109806412D01*
X161239870Y-109806420D01*
X161304886Y-109963383D01*
X161319059Y-109997598D01*
X161333414Y-110019082D01*
X161434024Y-110169657D01*
X161580342Y-110315975D01*
X161580345Y-110315977D01*
X161752402Y-110430941D01*
X161943580Y-110510130D01*
X162146530Y-110550499D01*
X162146534Y-110550500D01*
X162146535Y-110550500D01*
X162353466Y-110550500D01*
X162353467Y-110550499D01*
X162556420Y-110510130D01*
X162747598Y-110430941D01*
X162919655Y-110315977D01*
X163065977Y-110169655D01*
X163180941Y-109997598D01*
X163222805Y-109896530D01*
X173099500Y-109896530D01*
X173099500Y-110103469D01*
X173139868Y-110306412D01*
X173139870Y-110306420D01*
X173219058Y-110497597D01*
X173227433Y-110510131D01*
X173258362Y-110556420D01*
X173260789Y-110560051D01*
X173281667Y-110626728D01*
X173279305Y-110653130D01*
X173270902Y-110695379D01*
X173270902Y-110902315D01*
X173311270Y-111105258D01*
X173311272Y-111105266D01*
X173378461Y-111267475D01*
X173390461Y-111296444D01*
X173400982Y-111312190D01*
X173505426Y-111468503D01*
X173651744Y-111614821D01*
X173651747Y-111614823D01*
X173823804Y-111729787D01*
X174014982Y-111808976D01*
X174193916Y-111844568D01*
X174217932Y-111849345D01*
X174217936Y-111849346D01*
X174217937Y-111849346D01*
X174424868Y-111849346D01*
X174424869Y-111849345D01*
X174627822Y-111808976D01*
X174819000Y-111729787D01*
X174991057Y-111614823D01*
X175137379Y-111468501D01*
X175252343Y-111296444D01*
X175331532Y-111105266D01*
X175371902Y-110902311D01*
X175371902Y-110695381D01*
X175331532Y-110492426D01*
X175270282Y-110344558D01*
X175252344Y-110301250D01*
X175252342Y-110301247D01*
X175244111Y-110288928D01*
X175210610Y-110238790D01*
X175201440Y-110209506D01*
X175190206Y-110180947D01*
X175190541Y-110174696D01*
X175189733Y-110172115D01*
X175192023Y-110146530D01*
X180699500Y-110146530D01*
X180699500Y-110353469D01*
X180739867Y-110556412D01*
X180739869Y-110556416D01*
X180739870Y-110556420D01*
X180759064Y-110602759D01*
X180769332Y-110627549D01*
X180776799Y-110697018D01*
X180769332Y-110722451D01*
X180739869Y-110793583D01*
X180739867Y-110793587D01*
X180699500Y-110996530D01*
X180699500Y-111203469D01*
X180739868Y-111406412D01*
X180739870Y-111406420D01*
X180811912Y-111580345D01*
X180819059Y-111597598D01*
X180866807Y-111669058D01*
X180934024Y-111769657D01*
X181080342Y-111915975D01*
X181080345Y-111915977D01*
X181252402Y-112030941D01*
X181443580Y-112110130D01*
X181646530Y-112150499D01*
X181646534Y-112150500D01*
X181646535Y-112150500D01*
X181853466Y-112150500D01*
X181853467Y-112150499D01*
X182056420Y-112110130D01*
X182247598Y-112030941D01*
X182419655Y-111915977D01*
X182565977Y-111769655D01*
X182680941Y-111597598D01*
X182760130Y-111406420D01*
X182800500Y-111203465D01*
X182800500Y-111151919D01*
X182820185Y-111084880D01*
X182872989Y-111039125D01*
X182942147Y-111029181D01*
X183005703Y-111058206D01*
X183039061Y-111104466D01*
X183039869Y-111106418D01*
X183039870Y-111106420D01*
X183077242Y-111196643D01*
X183119059Y-111297599D01*
X183119059Y-111297600D01*
X183222573Y-111452520D01*
X183227751Y-111467870D01*
X183236070Y-111479212D01*
X183240935Y-111506955D01*
X183243235Y-111513771D01*
X183243471Y-111517594D01*
X183243471Y-111677360D01*
X183257768Y-111749242D01*
X183258285Y-111757603D01*
X183252309Y-111783837D01*
X183249910Y-111810645D01*
X183244665Y-111817395D01*
X183242768Y-111825728D01*
X183223556Y-111844568D01*
X183207046Y-111865821D01*
X183197765Y-111869860D01*
X183192883Y-111874649D01*
X183181200Y-111877071D01*
X183158715Y-111886859D01*
X183143583Y-111889869D01*
X183143579Y-111889870D01*
X182952403Y-111969058D01*
X182780342Y-112084024D01*
X182634024Y-112230342D01*
X182519058Y-112402403D01*
X182439870Y-112593579D01*
X182439868Y-112593587D01*
X182399500Y-112796530D01*
X182399500Y-113003469D01*
X182439868Y-113206412D01*
X182439870Y-113206420D01*
X182474435Y-113289868D01*
X182519059Y-113397598D01*
X182553739Y-113449500D01*
X182634024Y-113569657D01*
X182780342Y-113715975D01*
X182780345Y-113715977D01*
X182952402Y-113830941D01*
X183143580Y-113910130D01*
X183275735Y-113936417D01*
X183346530Y-113950499D01*
X183346534Y-113950500D01*
X183346535Y-113950500D01*
X183553466Y-113950500D01*
X183553467Y-113950499D01*
X183756420Y-113910130D01*
X183947598Y-113830941D01*
X184119655Y-113715977D01*
X184265977Y-113569655D01*
X184380941Y-113397598D01*
X184460130Y-113206420D01*
X184500500Y-113003465D01*
X184500500Y-112796535D01*
X184487831Y-112732843D01*
X184494058Y-112663252D01*
X184536921Y-112608075D01*
X184585258Y-112587034D01*
X184600391Y-112584025D01*
X184791569Y-112504836D01*
X184963626Y-112389872D01*
X185109948Y-112243550D01*
X185224912Y-112071493D01*
X185304101Y-111880315D01*
X185344471Y-111677360D01*
X185344471Y-111470430D01*
X185304101Y-111267475D01*
X185224912Y-111076297D01*
X185166109Y-110988292D01*
X185121397Y-110921374D01*
X185100520Y-110854696D01*
X185100500Y-110852484D01*
X185100500Y-110696534D01*
X185100499Y-110696530D01*
X185086777Y-110627546D01*
X185060130Y-110493580D01*
X184980941Y-110302402D01*
X184865977Y-110130345D01*
X184865975Y-110130342D01*
X184719657Y-109984024D01*
X184588719Y-109896535D01*
X184547598Y-109869059D01*
X184419447Y-109815977D01*
X184356420Y-109789870D01*
X184356412Y-109789868D01*
X184153469Y-109749500D01*
X184153465Y-109749500D01*
X183946535Y-109749500D01*
X183946530Y-109749500D01*
X183743587Y-109789868D01*
X183743579Y-109789870D01*
X183552403Y-109869058D01*
X183380342Y-109984024D01*
X183234024Y-110130342D01*
X183119058Y-110302403D01*
X183039870Y-110493579D01*
X183039868Y-110493587D01*
X182999500Y-110696530D01*
X182999500Y-110748080D01*
X182979815Y-110815119D01*
X182927011Y-110860874D01*
X182857853Y-110870818D01*
X182794297Y-110841793D01*
X182760940Y-110795534D01*
X182730668Y-110722454D01*
X182723198Y-110652985D01*
X182730663Y-110627556D01*
X182760130Y-110556420D01*
X182800500Y-110353465D01*
X182800500Y-110146535D01*
X182760130Y-109943580D01*
X182680941Y-109752402D01*
X182565977Y-109580345D01*
X182565975Y-109580342D01*
X182419657Y-109434024D01*
X182293156Y-109349500D01*
X182247598Y-109319059D01*
X182232615Y-109312853D01*
X182056420Y-109239870D01*
X182056412Y-109239868D01*
X181853469Y-109199500D01*
X181853465Y-109199500D01*
X181646535Y-109199500D01*
X181646530Y-109199500D01*
X181443587Y-109239868D01*
X181443579Y-109239870D01*
X181252403Y-109319058D01*
X181080342Y-109434024D01*
X180934024Y-109580342D01*
X180819058Y-109752403D01*
X180739870Y-109943579D01*
X180739868Y-109943587D01*
X180699500Y-110146530D01*
X175192023Y-110146530D01*
X175192096Y-110145712D01*
X175200186Y-110105046D01*
X175200500Y-110103467D01*
X175200500Y-109896534D01*
X175200499Y-109896530D01*
X175195035Y-109869059D01*
X175160130Y-109693580D01*
X175080941Y-109502402D01*
X174965977Y-109330345D01*
X174965975Y-109330342D01*
X174819657Y-109184024D01*
X174733626Y-109126541D01*
X174647598Y-109069059D01*
X174456420Y-108989870D01*
X174456412Y-108989868D01*
X174253469Y-108949500D01*
X174253465Y-108949500D01*
X174046535Y-108949500D01*
X174046530Y-108949500D01*
X173843587Y-108989868D01*
X173843579Y-108989870D01*
X173652403Y-109069058D01*
X173480342Y-109184024D01*
X173334024Y-109330342D01*
X173219058Y-109502403D01*
X173139870Y-109693579D01*
X173139868Y-109693587D01*
X173099500Y-109896530D01*
X163222805Y-109896530D01*
X163260130Y-109806420D01*
X163300500Y-109603465D01*
X163300500Y-109396535D01*
X163260130Y-109193580D01*
X163180941Y-109002402D01*
X163110200Y-108896530D01*
X185699500Y-108896530D01*
X185699500Y-109103469D01*
X185739868Y-109306412D01*
X185739870Y-109306420D01*
X185801668Y-109455614D01*
X185819059Y-109497598D01*
X185874346Y-109580342D01*
X185934024Y-109669657D01*
X186080342Y-109815975D01*
X186080345Y-109815977D01*
X186252402Y-109930941D01*
X186443580Y-110010130D01*
X186646530Y-110050499D01*
X186646534Y-110050500D01*
X186646535Y-110050500D01*
X186853466Y-110050500D01*
X186853467Y-110050499D01*
X187056420Y-110010130D01*
X187247598Y-109930941D01*
X187419655Y-109815977D01*
X187565977Y-109669655D01*
X187680941Y-109497598D01*
X187760130Y-109306420D01*
X187800500Y-109103465D01*
X187800500Y-108896535D01*
X187760130Y-108693580D01*
X187680941Y-108502402D01*
X187565977Y-108330345D01*
X187565975Y-108330342D01*
X187419657Y-108184024D01*
X187333626Y-108126541D01*
X187247598Y-108069059D01*
X187197899Y-108048473D01*
X187056420Y-107989870D01*
X187056412Y-107989868D01*
X186853469Y-107949500D01*
X186853465Y-107949500D01*
X186646535Y-107949500D01*
X186646530Y-107949500D01*
X186443587Y-107989868D01*
X186443579Y-107989870D01*
X186252403Y-108069058D01*
X186080342Y-108184024D01*
X185934024Y-108330342D01*
X185819058Y-108502403D01*
X185739870Y-108693579D01*
X185739868Y-108693587D01*
X185699500Y-108896530D01*
X163110200Y-108896530D01*
X163065977Y-108830345D01*
X163065975Y-108830342D01*
X162919657Y-108684024D01*
X162833626Y-108626541D01*
X162747598Y-108569059D01*
X162728156Y-108561006D01*
X162556420Y-108489870D01*
X162556412Y-108489868D01*
X162353469Y-108449500D01*
X162353465Y-108449500D01*
X162146535Y-108449500D01*
X162146530Y-108449500D01*
X161943587Y-108489868D01*
X161943579Y-108489870D01*
X161752403Y-108569058D01*
X161580342Y-108684024D01*
X161434024Y-108830342D01*
X161319058Y-109002403D01*
X161239870Y-109193579D01*
X161239868Y-109193587D01*
X161199500Y-109396530D01*
X155800499Y-109396530D01*
X155760130Y-109193580D01*
X155680941Y-109002402D01*
X155565977Y-108830345D01*
X155565975Y-108830342D01*
X155419657Y-108684024D01*
X155333626Y-108626541D01*
X155247598Y-108569059D01*
X155228156Y-108561006D01*
X155056420Y-108489870D01*
X155056412Y-108489868D01*
X154853469Y-108449500D01*
X154853465Y-108449500D01*
X154646535Y-108449500D01*
X154646530Y-108449500D01*
X154443587Y-108489868D01*
X154443579Y-108489870D01*
X154252403Y-108569058D01*
X154080342Y-108684024D01*
X153934025Y-108830341D01*
X153934022Y-108830345D01*
X153852491Y-108952365D01*
X153798879Y-108997170D01*
X153796843Y-108998035D01*
X153667609Y-109051567D01*
X153667602Y-109051570D01*
X153495551Y-109166530D01*
X153349231Y-109312850D01*
X153234265Y-109484911D01*
X153155077Y-109676087D01*
X153155075Y-109676095D01*
X153114707Y-109879038D01*
X153114707Y-109896344D01*
X153095022Y-109963383D01*
X153042218Y-110009138D01*
X152973060Y-110019082D01*
X152909504Y-109990057D01*
X152873666Y-109937299D01*
X152825790Y-109800480D01*
X152825789Y-109800478D01*
X152729816Y-109647738D01*
X152602262Y-109520184D01*
X152566317Y-109497598D01*
X152449523Y-109424211D01*
X152279254Y-109364631D01*
X152279249Y-109364630D01*
X152144960Y-109349500D01*
X152144954Y-109349500D01*
X150355046Y-109349500D01*
X150355039Y-109349500D01*
X150220750Y-109364630D01*
X150220739Y-109364633D01*
X150165453Y-109383978D01*
X150095674Y-109387539D01*
X150035047Y-109352809D01*
X150002821Y-109290816D01*
X150000500Y-109266936D01*
X150000500Y-107396530D01*
X176099500Y-107396530D01*
X176099500Y-107603469D01*
X176139868Y-107806412D01*
X176139870Y-107806420D01*
X176219058Y-107997596D01*
X176334024Y-108169657D01*
X176480342Y-108315975D01*
X176480345Y-108315977D01*
X176652402Y-108430941D01*
X176843580Y-108510130D01*
X177046530Y-108550499D01*
X177046534Y-108550500D01*
X177046535Y-108550500D01*
X177253466Y-108550500D01*
X177253466Y-108550499D01*
X177424249Y-108516529D01*
X177493840Y-108522756D01*
X177495872Y-108523576D01*
X177586231Y-108561005D01*
X177789181Y-108601374D01*
X177789185Y-108601375D01*
X177789186Y-108601375D01*
X177996117Y-108601375D01*
X177996118Y-108601374D01*
X178199071Y-108561005D01*
X178390249Y-108481816D01*
X178562306Y-108366852D01*
X178708628Y-108220530D01*
X178823592Y-108048473D01*
X178902781Y-107857295D01*
X178943151Y-107654340D01*
X178943151Y-107447410D01*
X178902781Y-107244455D01*
X178823592Y-107053277D01*
X178708628Y-106881220D01*
X178708626Y-106881217D01*
X178562308Y-106734899D01*
X178476277Y-106677416D01*
X178390249Y-106619934D01*
X178310247Y-106586796D01*
X178199071Y-106540745D01*
X178199063Y-106540743D01*
X177996120Y-106500375D01*
X177996116Y-106500375D01*
X177789186Y-106500375D01*
X177789181Y-106500375D01*
X177618401Y-106534345D01*
X177548809Y-106528118D01*
X177546757Y-106527289D01*
X177456420Y-106489870D01*
X177456412Y-106489868D01*
X177253469Y-106449500D01*
X177253465Y-106449500D01*
X177046535Y-106449500D01*
X177046530Y-106449500D01*
X176843587Y-106489868D01*
X176843579Y-106489870D01*
X176652403Y-106569058D01*
X176480342Y-106684024D01*
X176334024Y-106830342D01*
X176219058Y-107002403D01*
X176139870Y-107193579D01*
X176139868Y-107193587D01*
X176099500Y-107396530D01*
X150000500Y-107396530D01*
X150000500Y-105985728D01*
X168552745Y-105985728D01*
X168552745Y-106192667D01*
X168593113Y-106395610D01*
X168593115Y-106395618D01*
X168672303Y-106586794D01*
X168787269Y-106758855D01*
X168933587Y-106905173D01*
X168933590Y-106905175D01*
X169105647Y-107020139D01*
X169296825Y-107099328D01*
X169499775Y-107139697D01*
X169499779Y-107139698D01*
X169499780Y-107139698D01*
X169706711Y-107139698D01*
X169706712Y-107139697D01*
X169909665Y-107099328D01*
X170092534Y-107023580D01*
X170162000Y-107016112D01*
X170208874Y-107035040D01*
X170352400Y-107130940D01*
X170352401Y-107130940D01*
X170352402Y-107130941D01*
X170543580Y-107210130D01*
X170716140Y-107244454D01*
X170746530Y-107250499D01*
X170746534Y-107250500D01*
X170746535Y-107250500D01*
X170953466Y-107250500D01*
X170953467Y-107250499D01*
X171156420Y-107210130D01*
X171347598Y-107130941D01*
X171519655Y-107015977D01*
X171665977Y-106869655D01*
X171780941Y-106697598D01*
X171860130Y-106506420D01*
X171900500Y-106303465D01*
X171900500Y-106296530D01*
X189299500Y-106296530D01*
X189299500Y-106503469D01*
X189339868Y-106706412D01*
X189339870Y-106706420D01*
X189409891Y-106875466D01*
X189419059Y-106897598D01*
X189424122Y-106905175D01*
X189534024Y-107069657D01*
X189680342Y-107215975D01*
X189680345Y-107215977D01*
X189852402Y-107330941D01*
X190043580Y-107410130D01*
X190246530Y-107450499D01*
X190246534Y-107450500D01*
X190246535Y-107450500D01*
X190453466Y-107450500D01*
X190501476Y-107440950D01*
X190532780Y-107434723D01*
X190602371Y-107440950D01*
X190657549Y-107483812D01*
X190674903Y-107518021D01*
X190727281Y-107679223D01*
X190791191Y-107804653D01*
X190818014Y-107857295D01*
X190820215Y-107861613D01*
X190940528Y-108027213D01*
X191085286Y-108171971D01*
X191240249Y-108284556D01*
X191250890Y-108292287D01*
X191355819Y-108345751D01*
X191433276Y-108385218D01*
X191433278Y-108385218D01*
X191433281Y-108385220D01*
X191535645Y-108418480D01*
X191627965Y-108448477D01*
X191729057Y-108464488D01*
X191830148Y-108480500D01*
X192283000Y-108480500D01*
X192350039Y-108500185D01*
X192395794Y-108552989D01*
X192407000Y-108604500D01*
X192407000Y-108685766D01*
X192409094Y-108693580D01*
X192446219Y-108832136D01*
X192483398Y-108896530D01*
X192521985Y-108963365D01*
X192629135Y-109070515D01*
X192760365Y-109146281D01*
X192906734Y-109185500D01*
X192906736Y-109185500D01*
X193058264Y-109185500D01*
X193058266Y-109185500D01*
X193204635Y-109146281D01*
X193335865Y-109070515D01*
X193443015Y-108963365D01*
X193518781Y-108832135D01*
X193558000Y-108685766D01*
X193558000Y-108534234D01*
X193545699Y-108488325D01*
X193547362Y-108418480D01*
X193586524Y-108360618D01*
X193609175Y-108345753D01*
X193714110Y-108292287D01*
X193812876Y-108220530D01*
X193879713Y-108171971D01*
X193879715Y-108171968D01*
X193879719Y-108171966D01*
X194024466Y-108027219D01*
X194024468Y-108027215D01*
X194024471Y-108027213D01*
X194080932Y-107949500D01*
X194144787Y-107861610D01*
X194237720Y-107679219D01*
X194300977Y-107484534D01*
X194333000Y-107282352D01*
X194333000Y-107077648D01*
X194962000Y-107077648D01*
X194962000Y-107282351D01*
X194994022Y-107484534D01*
X195057281Y-107679223D01*
X195121191Y-107804653D01*
X195148014Y-107857295D01*
X195150215Y-107861613D01*
X195270528Y-108027213D01*
X195415286Y-108171971D01*
X195570249Y-108284556D01*
X195580890Y-108292287D01*
X195685819Y-108345751D01*
X195763276Y-108385218D01*
X195763278Y-108385218D01*
X195763281Y-108385220D01*
X195865645Y-108418480D01*
X195957965Y-108448477D01*
X196059057Y-108464488D01*
X196160148Y-108480500D01*
X196160149Y-108480500D01*
X197164851Y-108480500D01*
X197164852Y-108480500D01*
X197367034Y-108448477D01*
X197561719Y-108385220D01*
X197744110Y-108292287D01*
X197842876Y-108220530D01*
X197909713Y-108171971D01*
X197909715Y-108171968D01*
X197909719Y-108171966D01*
X198054466Y-108027219D01*
X198054468Y-108027215D01*
X198054471Y-108027213D01*
X198110932Y-107949500D01*
X198174787Y-107861610D01*
X198267720Y-107679219D01*
X198330977Y-107484534D01*
X198363000Y-107282352D01*
X198363000Y-107077648D01*
X198356251Y-107035040D01*
X198330977Y-106875465D01*
X198285304Y-106734898D01*
X198267720Y-106680781D01*
X198267718Y-106680778D01*
X198267718Y-106680776D01*
X198219831Y-106586794D01*
X198174787Y-106498390D01*
X198139267Y-106449500D01*
X198054471Y-106332786D01*
X197909713Y-106188028D01*
X197744113Y-106067715D01*
X197744112Y-106067714D01*
X197744110Y-106067713D01*
X197662754Y-106026260D01*
X197561723Y-105974781D01*
X197367034Y-105911522D01*
X197192495Y-105883878D01*
X197164852Y-105879500D01*
X196160148Y-105879500D01*
X196135829Y-105883351D01*
X195957965Y-105911522D01*
X195763276Y-105974781D01*
X195580886Y-106067715D01*
X195415286Y-106188028D01*
X195270528Y-106332786D01*
X195150215Y-106498386D01*
X195057281Y-106680776D01*
X194994022Y-106875465D01*
X194962000Y-107077648D01*
X194333000Y-107077648D01*
X194326251Y-107035040D01*
X194300977Y-106875465D01*
X194255304Y-106734898D01*
X194237720Y-106680781D01*
X194237718Y-106680778D01*
X194237718Y-106680776D01*
X194189831Y-106586794D01*
X194144787Y-106498390D01*
X194109267Y-106449500D01*
X194024471Y-106332786D01*
X193879713Y-106188028D01*
X193714113Y-106067715D01*
X193714112Y-106067714D01*
X193714110Y-106067713D01*
X193632754Y-106026260D01*
X193531723Y-105974781D01*
X193337034Y-105911522D01*
X193162495Y-105883878D01*
X193134852Y-105879500D01*
X191830148Y-105879500D01*
X191762754Y-105890174D01*
X191627964Y-105911523D01*
X191627961Y-105911523D01*
X191434449Y-105974399D01*
X191364607Y-105976394D01*
X191304775Y-105940313D01*
X191283974Y-105907689D01*
X191283814Y-105907776D01*
X191282695Y-105905682D01*
X191281568Y-105903915D01*
X191280942Y-105902404D01*
X191275045Y-105893579D01*
X191165977Y-105730345D01*
X191165975Y-105730342D01*
X191019657Y-105584024D01*
X190917813Y-105515975D01*
X190847598Y-105469059D01*
X190656420Y-105389870D01*
X190656412Y-105389868D01*
X190453469Y-105349500D01*
X190453465Y-105349500D01*
X190246535Y-105349500D01*
X190246530Y-105349500D01*
X190043587Y-105389868D01*
X190043579Y-105389870D01*
X189852403Y-105469058D01*
X189680342Y-105584024D01*
X189534024Y-105730342D01*
X189419058Y-105902403D01*
X189339870Y-106093579D01*
X189339868Y-106093587D01*
X189299500Y-106296530D01*
X171900500Y-106296530D01*
X171900500Y-106096535D01*
X171860130Y-105893580D01*
X171780941Y-105702402D01*
X171665977Y-105530345D01*
X171665975Y-105530342D01*
X171519657Y-105384024D01*
X171433626Y-105326541D01*
X171347598Y-105269059D01*
X171156420Y-105189870D01*
X171156412Y-105189868D01*
X170953469Y-105149500D01*
X170953465Y-105149500D01*
X170746535Y-105149500D01*
X170746530Y-105149500D01*
X170543587Y-105189868D01*
X170543579Y-105189870D01*
X170360713Y-105265616D01*
X170291243Y-105273085D01*
X170244370Y-105254158D01*
X170159718Y-105197596D01*
X170100843Y-105158257D01*
X169909665Y-105079068D01*
X169909657Y-105079066D01*
X169706714Y-105038698D01*
X169706710Y-105038698D01*
X169499780Y-105038698D01*
X169499775Y-105038698D01*
X169296832Y-105079066D01*
X169296824Y-105079068D01*
X169105648Y-105158256D01*
X168933587Y-105273222D01*
X168787269Y-105419540D01*
X168672303Y-105591601D01*
X168593115Y-105782777D01*
X168593113Y-105782785D01*
X168552745Y-105985728D01*
X150000500Y-105985728D01*
X150000500Y-104596530D01*
X179799500Y-104596530D01*
X179799500Y-104803469D01*
X179839868Y-105006412D01*
X179839870Y-105006420D01*
X179919058Y-105197596D01*
X180034024Y-105369657D01*
X180180342Y-105515975D01*
X180180345Y-105515977D01*
X180352402Y-105630941D01*
X180543580Y-105710130D01*
X180550278Y-105711462D01*
X180612190Y-105743846D01*
X180629190Y-105764188D01*
X180630466Y-105766098D01*
X180630471Y-105766104D01*
X180776788Y-105912421D01*
X180776791Y-105912423D01*
X180948848Y-106027387D01*
X181140026Y-106106576D01*
X181342976Y-106146945D01*
X181342980Y-106146946D01*
X181342981Y-106146946D01*
X181549912Y-106146946D01*
X181549913Y-106146945D01*
X181752866Y-106106576D01*
X181944044Y-106027387D01*
X182027431Y-105971669D01*
X182094106Y-105950791D01*
X182137545Y-105959030D01*
X182137749Y-105958361D01*
X182143572Y-105960126D01*
X182143580Y-105960130D01*
X182272271Y-105985728D01*
X182346530Y-106000499D01*
X182346534Y-106000500D01*
X182346535Y-106000500D01*
X182553466Y-106000500D01*
X182553467Y-106000499D01*
X182756420Y-105960130D01*
X182947598Y-105880941D01*
X183119655Y-105765977D01*
X183265977Y-105619655D01*
X183380941Y-105447598D01*
X183460130Y-105256420D01*
X183500500Y-105053465D01*
X183500500Y-104846535D01*
X183460130Y-104643580D01*
X183380941Y-104452402D01*
X183265977Y-104280345D01*
X183265975Y-104280342D01*
X183119655Y-104134022D01*
X182942533Y-104015674D01*
X182943905Y-104013619D01*
X182901803Y-103972229D01*
X182895564Y-103959330D01*
X182864371Y-103884024D01*
X182824596Y-103787998D01*
X182709632Y-103615941D01*
X182709630Y-103615938D01*
X182563312Y-103469620D01*
X182477281Y-103412137D01*
X182391253Y-103354655D01*
X182321504Y-103325764D01*
X182200075Y-103275466D01*
X182200067Y-103275464D01*
X181997124Y-103235096D01*
X181997120Y-103235096D01*
X181790190Y-103235096D01*
X181790185Y-103235096D01*
X181587242Y-103275464D01*
X181587234Y-103275466D01*
X181396058Y-103354654D01*
X181223999Y-103469619D01*
X181075944Y-103617674D01*
X181014621Y-103651158D01*
X180964074Y-103651610D01*
X180953465Y-103649500D01*
X180746535Y-103649500D01*
X180746530Y-103649500D01*
X180543587Y-103689868D01*
X180543579Y-103689870D01*
X180352403Y-103769058D01*
X180180342Y-103884024D01*
X180034024Y-104030342D01*
X179919058Y-104202403D01*
X179839870Y-104393579D01*
X179839868Y-104393587D01*
X179799500Y-104596530D01*
X150000500Y-104596530D01*
X150000500Y-103255679D01*
X172037946Y-103255679D01*
X172037946Y-103462618D01*
X172078314Y-103665561D01*
X172078316Y-103665569D01*
X172157504Y-103856745D01*
X172272470Y-104028806D01*
X172418788Y-104175124D01*
X172418791Y-104175126D01*
X172590848Y-104290090D01*
X172782026Y-104369279D01*
X172984976Y-104409648D01*
X172984980Y-104409649D01*
X172984981Y-104409649D01*
X173191912Y-104409649D01*
X173191913Y-104409648D01*
X173394866Y-104369279D01*
X173586044Y-104290090D01*
X173758101Y-104175126D01*
X173904423Y-104028804D01*
X174019387Y-103856747D01*
X174098576Y-103665569D01*
X174138946Y-103462614D01*
X174138946Y-103255684D01*
X174138946Y-103255681D01*
X174106222Y-103091172D01*
X174112449Y-103021580D01*
X174113226Y-103019653D01*
X174160130Y-102906420D01*
X174200500Y-102703465D01*
X174201689Y-102697490D01*
X174203052Y-102697761D01*
X174226574Y-102639494D01*
X174276368Y-102601866D01*
X174447598Y-102530941D01*
X174619655Y-102415977D01*
X174619658Y-102415974D01*
X174639103Y-102396530D01*
X187099500Y-102396530D01*
X187099500Y-102603469D01*
X187139868Y-102806412D01*
X187139870Y-102806420D01*
X187219058Y-102997596D01*
X187334024Y-103169657D01*
X187480342Y-103315975D01*
X187480345Y-103315977D01*
X187652402Y-103430941D01*
X187843580Y-103510130D01*
X188046530Y-103550499D01*
X188046534Y-103550500D01*
X188046535Y-103550500D01*
X188253466Y-103550500D01*
X188253467Y-103550499D01*
X188456420Y-103510130D01*
X188647598Y-103430941D01*
X188819655Y-103315977D01*
X188965977Y-103169655D01*
X189080941Y-102997598D01*
X189160130Y-102806420D01*
X189183323Y-102689822D01*
X192924499Y-102689822D01*
X192933231Y-102733717D01*
X192933234Y-102733724D01*
X192966495Y-102783503D01*
X192969732Y-102785666D01*
X193014538Y-102839278D01*
X193023247Y-102908602D01*
X193008230Y-102950769D01*
X192963720Y-103027861D01*
X192963720Y-103027862D01*
X192963719Y-103027864D01*
X192963719Y-103027865D01*
X192924500Y-103174234D01*
X192924500Y-103325766D01*
X192932241Y-103354655D01*
X192963719Y-103472136D01*
X192985656Y-103510131D01*
X193039485Y-103603365D01*
X193039487Y-103603367D01*
X193098439Y-103662319D01*
X193131924Y-103723642D01*
X193126940Y-103793334D01*
X193098439Y-103837681D01*
X193039487Y-103896632D01*
X193039485Y-103896635D01*
X192963719Y-104027863D01*
X192963055Y-104030342D01*
X192924500Y-104174234D01*
X192924500Y-104325766D01*
X192942672Y-104393587D01*
X192963719Y-104472136D01*
X193001602Y-104537750D01*
X193039485Y-104603365D01*
X193146635Y-104710515D01*
X193277865Y-104786281D01*
X193424234Y-104825500D01*
X193424236Y-104825500D01*
X193575764Y-104825500D01*
X193575766Y-104825500D01*
X193722135Y-104786281D01*
X193853365Y-104710515D01*
X193960515Y-104603365D01*
X194036281Y-104472135D01*
X194075500Y-104325766D01*
X194075500Y-104174234D01*
X194036281Y-104027865D01*
X194029242Y-104015674D01*
X193996712Y-103959330D01*
X193960515Y-103896635D01*
X193901561Y-103837681D01*
X193868076Y-103776358D01*
X193873060Y-103706666D01*
X193901561Y-103662319D01*
X193914380Y-103649500D01*
X193960515Y-103603365D01*
X194036281Y-103472135D01*
X194075500Y-103325766D01*
X194075500Y-103174234D01*
X194036281Y-103027865D01*
X194032652Y-103021580D01*
X193991770Y-102950770D01*
X193975296Y-102882870D01*
X193998148Y-102816843D01*
X194030267Y-102785666D01*
X194033504Y-102783504D01*
X194066767Y-102733722D01*
X194072786Y-102703465D01*
X194075500Y-102689822D01*
X194075500Y-101810177D01*
X194066768Y-101766282D01*
X194066767Y-101766281D01*
X194066767Y-101766278D01*
X194033504Y-101716496D01*
X193984906Y-101684024D01*
X193983724Y-101683234D01*
X193983717Y-101683231D01*
X193939822Y-101674500D01*
X193939820Y-101674500D01*
X193060180Y-101674500D01*
X193060178Y-101674500D01*
X193016282Y-101683231D01*
X193016275Y-101683234D01*
X192966496Y-101716495D01*
X192966495Y-101716496D01*
X192933234Y-101766275D01*
X192933231Y-101766282D01*
X192924500Y-101810177D01*
X192924500Y-101810180D01*
X192924500Y-102689820D01*
X192924500Y-102689822D01*
X192924499Y-102689822D01*
X189183323Y-102689822D01*
X189200500Y-102603465D01*
X189200500Y-102396535D01*
X189160130Y-102193580D01*
X189080941Y-102002402D01*
X189080940Y-102002400D01*
X189080940Y-102002399D01*
X188994465Y-101872980D01*
X188994463Y-101872978D01*
X188965975Y-101830342D01*
X188819657Y-101684024D01*
X188709067Y-101610131D01*
X188647598Y-101569059D01*
X188626995Y-101560525D01*
X188456420Y-101489870D01*
X188456412Y-101489868D01*
X188253469Y-101449500D01*
X188253465Y-101449500D01*
X188046535Y-101449500D01*
X188046530Y-101449500D01*
X187843587Y-101489868D01*
X187843579Y-101489870D01*
X187652403Y-101569058D01*
X187480342Y-101684024D01*
X187334024Y-101830342D01*
X187219058Y-102002403D01*
X187139870Y-102193579D01*
X187139868Y-102193587D01*
X187099500Y-102396530D01*
X174639103Y-102396530D01*
X174650328Y-102385305D01*
X174711651Y-102351820D01*
X174738009Y-102348986D01*
X174804111Y-102348986D01*
X174804112Y-102348985D01*
X175007065Y-102308616D01*
X175198243Y-102229427D01*
X175370300Y-102114463D01*
X175516622Y-101968141D01*
X175631586Y-101796084D01*
X175710775Y-101604906D01*
X175751145Y-101401951D01*
X175751145Y-101195021D01*
X175710775Y-100992066D01*
X175631586Y-100800888D01*
X175516622Y-100628831D01*
X175516620Y-100628828D01*
X175370302Y-100482510D01*
X175241622Y-100396530D01*
X175198243Y-100367545D01*
X175007065Y-100288356D01*
X175007057Y-100288354D01*
X174804114Y-100247986D01*
X174804110Y-100247986D01*
X174597180Y-100247986D01*
X174597175Y-100247986D01*
X174394232Y-100288354D01*
X174394224Y-100288356D01*
X174203048Y-100367544D01*
X174030987Y-100482510D01*
X174030986Y-100482511D01*
X174000317Y-100513181D01*
X173938994Y-100546666D01*
X173912636Y-100549500D01*
X173846530Y-100549500D01*
X173643587Y-100589868D01*
X173643579Y-100589870D01*
X173452403Y-100669058D01*
X173280342Y-100784024D01*
X173134024Y-100930342D01*
X173019058Y-101102403D01*
X172939870Y-101293579D01*
X172939868Y-101293587D01*
X172898311Y-101502510D01*
X172896952Y-101502239D01*
X172873409Y-101560525D01*
X172823629Y-101598133D01*
X172652404Y-101669057D01*
X172480342Y-101784024D01*
X172334024Y-101930342D01*
X172219058Y-102102403D01*
X172139870Y-102293579D01*
X172139868Y-102293587D01*
X172099500Y-102496530D01*
X172099500Y-102496535D01*
X172099500Y-102703465D01*
X172132223Y-102867977D01*
X172125995Y-102937569D01*
X172125174Y-102939601D01*
X172078316Y-103052729D01*
X172078315Y-103052733D01*
X172078314Y-103052736D01*
X172078313Y-103052736D01*
X172037946Y-103255679D01*
X150000500Y-103255679D01*
X150000500Y-100995679D01*
X150020185Y-100928640D01*
X150072989Y-100882885D01*
X150142147Y-100872941D01*
X150197383Y-100895360D01*
X150384949Y-101031634D01*
X150494312Y-101087357D01*
X150616423Y-101149577D01*
X150616425Y-101149577D01*
X150616428Y-101149579D01*
X150863507Y-101229860D01*
X150995706Y-101250797D01*
X151120098Y-101270500D01*
X151120103Y-101270500D01*
X151379902Y-101270500D01*
X151493298Y-101252539D01*
X151636493Y-101229860D01*
X151883572Y-101149579D01*
X152115051Y-101031634D01*
X152325229Y-100878931D01*
X152508931Y-100695229D01*
X152661634Y-100485051D01*
X152706738Y-100396530D01*
X158449500Y-100396530D01*
X158449500Y-100603469D01*
X158489867Y-100806408D01*
X158489870Y-100806420D01*
X158566767Y-100992066D01*
X158569059Y-100997598D01*
X158591801Y-101031634D01*
X158684024Y-101169657D01*
X158830342Y-101315975D01*
X158830345Y-101315977D01*
X159002402Y-101430941D01*
X159193580Y-101510130D01*
X159396530Y-101550499D01*
X159396534Y-101550500D01*
X159396535Y-101550500D01*
X159603466Y-101550500D01*
X159603467Y-101550499D01*
X159806420Y-101510130D01*
X159997598Y-101430941D01*
X160169655Y-101315977D01*
X160315977Y-101169655D01*
X160430941Y-100997598D01*
X160430945Y-100997586D01*
X160433811Y-100992227D01*
X160436015Y-100993405D01*
X160472952Y-100947521D01*
X160496266Y-100934782D01*
X160539043Y-100917064D01*
X160711100Y-100802100D01*
X160857422Y-100655778D01*
X160972386Y-100483721D01*
X161051575Y-100292543D01*
X161091945Y-100089588D01*
X161091945Y-99882658D01*
X161051575Y-99679703D01*
X160972386Y-99488525D01*
X160857422Y-99316468D01*
X160857420Y-99316465D01*
X160711102Y-99170147D01*
X160567604Y-99074266D01*
X160539043Y-99055182D01*
X160347865Y-98975993D01*
X160347857Y-98975991D01*
X160144914Y-98935623D01*
X160144910Y-98935623D01*
X159937980Y-98935623D01*
X159937975Y-98935623D01*
X159735032Y-98975991D01*
X159735024Y-98975993D01*
X159543848Y-99055181D01*
X159371787Y-99170147D01*
X159225469Y-99316465D01*
X159139629Y-99444935D01*
X159113424Y-99484156D01*
X159110501Y-99488530D01*
X159107630Y-99493901D01*
X159105441Y-99492730D01*
X159068416Y-99538654D01*
X159045175Y-99551341D01*
X159002403Y-99569058D01*
X159002394Y-99569063D01*
X158830344Y-99684022D01*
X158684024Y-99830342D01*
X158569058Y-100002403D01*
X158489870Y-100193579D01*
X158489868Y-100193587D01*
X158449500Y-100396530D01*
X152706738Y-100396530D01*
X152738525Y-100334145D01*
X152779575Y-100253581D01*
X152779576Y-100253577D01*
X152779579Y-100253572D01*
X152859860Y-100006493D01*
X152882539Y-99863298D01*
X152900500Y-99749902D01*
X152900500Y-99490097D01*
X152872922Y-99315978D01*
X152859860Y-99233507D01*
X152779579Y-98986428D01*
X152779577Y-98986425D01*
X152779577Y-98986423D01*
X152718495Y-98866545D01*
X152661634Y-98754949D01*
X152653262Y-98743426D01*
X152595454Y-98663859D01*
X152595452Y-98663857D01*
X152585747Y-98650499D01*
X152546920Y-98597058D01*
X166337864Y-98597058D01*
X166337864Y-98803997D01*
X166378232Y-99006940D01*
X166378234Y-99006948D01*
X166457422Y-99198124D01*
X166572388Y-99370185D01*
X166718706Y-99516503D01*
X166718709Y-99516505D01*
X166795408Y-99567753D01*
X166840212Y-99621364D01*
X166848920Y-99690689D01*
X166818766Y-99753717D01*
X166795411Y-99773955D01*
X166780346Y-99784021D01*
X166780341Y-99784025D01*
X166634024Y-99930342D01*
X166519058Y-100102403D01*
X166439870Y-100293579D01*
X166439868Y-100293587D01*
X166399500Y-100496530D01*
X166399500Y-100703469D01*
X166439868Y-100906412D01*
X166439870Y-100906420D01*
X166519058Y-101097596D01*
X166634024Y-101269657D01*
X166780342Y-101415975D01*
X166780345Y-101415977D01*
X166952402Y-101530941D01*
X167143580Y-101610130D01*
X167346530Y-101650499D01*
X167346534Y-101650500D01*
X167346535Y-101650500D01*
X167553466Y-101650500D01*
X167553467Y-101650499D01*
X167756420Y-101610130D01*
X167947598Y-101530941D01*
X168119655Y-101415977D01*
X168265977Y-101269655D01*
X168380941Y-101097598D01*
X168460130Y-100906420D01*
X168500500Y-100703465D01*
X168500500Y-100496535D01*
X168460130Y-100293580D01*
X168380941Y-100102402D01*
X168265977Y-99930345D01*
X168265975Y-99930342D01*
X168119657Y-99784024D01*
X168042956Y-99732775D01*
X168021906Y-99707588D01*
X167999987Y-99683185D01*
X167999620Y-99680922D01*
X167998150Y-99679163D01*
X167994061Y-99646609D01*
X167988813Y-99614214D01*
X167989728Y-99612111D01*
X167989443Y-99609838D01*
X168003597Y-99580251D01*
X168016701Y-99550152D01*
X168018975Y-99548109D01*
X168019597Y-99546810D01*
X168042955Y-99526570D01*
X168050701Y-99521394D01*
X168117378Y-99500520D01*
X168119587Y-99500500D01*
X168203466Y-99500500D01*
X168203467Y-99500499D01*
X168406420Y-99460130D01*
X168597598Y-99380941D01*
X168769655Y-99265977D01*
X168915977Y-99119655D01*
X169030941Y-98947598D01*
X169033793Y-98940713D01*
X169077633Y-98886308D01*
X169124161Y-98866546D01*
X169156420Y-98860130D01*
X169347598Y-98780941D01*
X169519655Y-98665977D01*
X169665977Y-98519655D01*
X169748246Y-98396530D01*
X179449500Y-98396530D01*
X179449500Y-98603469D01*
X179489868Y-98806412D01*
X179489870Y-98806420D01*
X179516750Y-98871315D01*
X179569059Y-98997598D01*
X179607535Y-99055182D01*
X179684024Y-99169657D01*
X179830339Y-99315972D01*
X179830346Y-99315978D01*
X179912808Y-99371077D01*
X179957614Y-99424689D01*
X179965535Y-99449988D01*
X179972330Y-99484148D01*
X179972332Y-99484156D01*
X180039622Y-99646609D01*
X180051521Y-99675334D01*
X180109003Y-99761362D01*
X180166486Y-99847393D01*
X180312804Y-99993711D01*
X180312807Y-99993713D01*
X180484864Y-100108677D01*
X180676042Y-100187866D01*
X180878992Y-100228235D01*
X180878996Y-100228236D01*
X180878997Y-100228236D01*
X181085928Y-100228236D01*
X181085929Y-100228235D01*
X181288882Y-100187866D01*
X181480060Y-100108677D01*
X181652117Y-99993713D01*
X181798439Y-99847391D01*
X181913403Y-99675334D01*
X181992592Y-99484156D01*
X182032962Y-99281201D01*
X182032962Y-99074271D01*
X181992592Y-98871316D01*
X181913403Y-98680138D01*
X181798439Y-98508081D01*
X181798437Y-98508078D01*
X181652119Y-98361760D01*
X181602994Y-98328936D01*
X181569652Y-98306658D01*
X181524847Y-98253047D01*
X181516927Y-98227752D01*
X181510130Y-98193580D01*
X181430941Y-98002402D01*
X181315977Y-97830345D01*
X181315975Y-97830342D01*
X181169657Y-97684024D01*
X181083626Y-97626541D01*
X180997598Y-97569059D01*
X180884123Y-97522056D01*
X180806420Y-97489870D01*
X180806412Y-97489868D01*
X180603469Y-97449500D01*
X180603465Y-97449500D01*
X180396535Y-97449500D01*
X180396530Y-97449500D01*
X180193587Y-97489868D01*
X180193579Y-97489870D01*
X180002403Y-97569058D01*
X179830342Y-97684024D01*
X179684024Y-97830342D01*
X179569058Y-98002403D01*
X179489870Y-98193579D01*
X179489868Y-98193587D01*
X179449500Y-98396530D01*
X169748246Y-98396530D01*
X169780941Y-98347598D01*
X169860130Y-98156420D01*
X169869966Y-98106967D01*
X169902349Y-98045058D01*
X169912927Y-98035298D01*
X169917403Y-98031624D01*
X169917420Y-98031613D01*
X170063742Y-97885291D01*
X170178706Y-97713234D01*
X170257895Y-97522056D01*
X170298265Y-97319101D01*
X170298265Y-97112171D01*
X170257895Y-96909216D01*
X170182005Y-96726002D01*
X170182003Y-96725997D01*
X173272123Y-96725997D01*
X173272123Y-96932936D01*
X173312491Y-97135879D01*
X173312493Y-97135887D01*
X173391681Y-97327063D01*
X173506647Y-97499124D01*
X173652965Y-97645442D01*
X173652968Y-97645444D01*
X173825025Y-97760408D01*
X174016203Y-97839597D01*
X174219153Y-97879966D01*
X174219157Y-97879967D01*
X174219158Y-97879967D01*
X174426089Y-97879967D01*
X174426090Y-97879966D01*
X174629043Y-97839597D01*
X174820221Y-97760408D01*
X174992278Y-97645444D01*
X175138600Y-97499122D01*
X175253564Y-97327065D01*
X175332753Y-97135887D01*
X175373123Y-96932932D01*
X175373123Y-96726002D01*
X175332753Y-96523047D01*
X175253564Y-96331869D01*
X175138600Y-96159812D01*
X175138598Y-96159809D01*
X174992280Y-96013491D01*
X174906249Y-95956008D01*
X174820221Y-95898526D01*
X174629043Y-95819337D01*
X174629035Y-95819335D01*
X174426092Y-95778967D01*
X174426088Y-95778967D01*
X174219158Y-95778967D01*
X174219153Y-95778967D01*
X174016210Y-95819335D01*
X174016202Y-95819337D01*
X173825026Y-95898525D01*
X173652965Y-96013491D01*
X173506647Y-96159809D01*
X173391681Y-96331870D01*
X173312493Y-96523046D01*
X173312491Y-96523054D01*
X173272123Y-96725997D01*
X170182003Y-96725997D01*
X170178708Y-96718041D01*
X170063740Y-96545978D01*
X169917422Y-96399660D01*
X169783428Y-96310129D01*
X169745363Y-96284695D01*
X169554185Y-96205506D01*
X169554177Y-96205504D01*
X169351234Y-96165136D01*
X169351230Y-96165136D01*
X169144300Y-96165136D01*
X169144295Y-96165136D01*
X168941352Y-96205504D01*
X168941344Y-96205506D01*
X168750168Y-96284694D01*
X168578107Y-96399660D01*
X168431789Y-96545978D01*
X168316823Y-96718039D01*
X168237635Y-96909215D01*
X168237633Y-96909220D01*
X168227797Y-96958669D01*
X168195411Y-97020580D01*
X168184847Y-97030327D01*
X168180345Y-97034021D01*
X168034024Y-97180342D01*
X167919058Y-97352403D01*
X167916204Y-97359294D01*
X167872360Y-97413696D01*
X167825837Y-97433453D01*
X167793585Y-97439868D01*
X167793579Y-97439870D01*
X167602400Y-97519059D01*
X167437667Y-97629130D01*
X167370990Y-97650008D01*
X167368777Y-97650028D01*
X167284894Y-97650028D01*
X167081951Y-97690396D01*
X167081943Y-97690398D01*
X166890767Y-97769586D01*
X166718706Y-97884552D01*
X166572388Y-98030870D01*
X166457422Y-98202931D01*
X166378234Y-98394107D01*
X166378232Y-98394115D01*
X166337864Y-98597058D01*
X152546920Y-98597058D01*
X152508931Y-98544771D01*
X152401841Y-98437681D01*
X152368356Y-98376358D01*
X152373340Y-98306666D01*
X152401841Y-98262319D01*
X152448919Y-98215241D01*
X152508931Y-98155229D01*
X152661634Y-97945051D01*
X152779579Y-97713572D01*
X152859860Y-97466493D01*
X152882539Y-97323298D01*
X152900500Y-97209902D01*
X152900500Y-96950097D01*
X152871557Y-96767361D01*
X152859860Y-96693507D01*
X152779579Y-96446428D01*
X152779577Y-96446425D01*
X152779577Y-96446423D01*
X152730701Y-96350500D01*
X152661634Y-96214949D01*
X152508931Y-96004771D01*
X152401841Y-95897681D01*
X152368356Y-95836358D01*
X152373340Y-95766666D01*
X152401841Y-95722319D01*
X152508931Y-95615229D01*
X152661634Y-95405051D01*
X152767881Y-95196530D01*
X186599500Y-95196530D01*
X186599500Y-95403469D01*
X186639868Y-95606412D01*
X186639870Y-95606420D01*
X186719059Y-95797598D01*
X186776541Y-95883626D01*
X186834024Y-95969657D01*
X186980342Y-96115975D01*
X186980345Y-96115977D01*
X187152402Y-96230941D01*
X187343580Y-96310130D01*
X187546530Y-96350499D01*
X187546534Y-96350500D01*
X187546535Y-96350500D01*
X187753466Y-96350500D01*
X187753467Y-96350499D01*
X187956420Y-96310130D01*
X188147598Y-96230941D01*
X188319655Y-96115977D01*
X188465977Y-95969655D01*
X188580941Y-95797598D01*
X188660130Y-95606420D01*
X188700500Y-95403465D01*
X188700500Y-95196535D01*
X188660130Y-94993580D01*
X188580941Y-94802402D01*
X188465977Y-94630345D01*
X188465975Y-94630342D01*
X188319657Y-94484024D01*
X188209016Y-94410097D01*
X188147598Y-94369059D01*
X187956420Y-94289870D01*
X187956412Y-94289868D01*
X187753469Y-94249500D01*
X187753465Y-94249500D01*
X187546535Y-94249500D01*
X187546530Y-94249500D01*
X187343587Y-94289868D01*
X187343579Y-94289870D01*
X187152403Y-94369058D01*
X186980342Y-94484024D01*
X186834024Y-94630342D01*
X186719058Y-94802403D01*
X186639870Y-94993579D01*
X186639868Y-94993587D01*
X186599500Y-95196530D01*
X152767881Y-95196530D01*
X152779579Y-95173572D01*
X152859860Y-94926493D01*
X152879514Y-94802402D01*
X152900500Y-94669902D01*
X152900500Y-94410097D01*
X152875063Y-94249500D01*
X152859860Y-94153507D01*
X152779579Y-93906428D01*
X152779577Y-93906425D01*
X152779577Y-93906423D01*
X152677464Y-93706017D01*
X152661634Y-93674949D01*
X152616785Y-93613220D01*
X152593306Y-93547416D01*
X152609131Y-93479362D01*
X152629423Y-93452655D01*
X152729816Y-93352262D01*
X152825789Y-93199522D01*
X152885368Y-93029255D01*
X152886865Y-93015975D01*
X152896513Y-92930342D01*
X152900500Y-92894954D01*
X152900500Y-91105046D01*
X152885368Y-90970745D01*
X152825789Y-90800478D01*
X152729816Y-90647738D01*
X152602262Y-90520184D01*
X152499500Y-90455614D01*
X152449523Y-90424211D01*
X152279254Y-90364631D01*
X152279249Y-90364630D01*
X152144960Y-90349500D01*
X152144954Y-90349500D01*
X150355046Y-90349500D01*
X150355039Y-90349500D01*
X150220750Y-90364630D01*
X150220739Y-90364633D01*
X150165453Y-90383978D01*
X150095674Y-90387539D01*
X150035047Y-90352809D01*
X150002821Y-90290816D01*
X150000500Y-90266936D01*
X150000500Y-89575578D01*
X155699500Y-89575578D01*
X155699500Y-89924421D01*
X155733692Y-90271594D01*
X155801744Y-90613721D01*
X155801747Y-90613732D01*
X155903016Y-90947571D01*
X156036516Y-91269867D01*
X156036518Y-91269872D01*
X156200955Y-91577511D01*
X156200972Y-91577539D01*
X156394759Y-91867563D01*
X156394776Y-91867586D01*
X156616084Y-92137251D01*
X156862748Y-92383915D01*
X156862753Y-92383919D01*
X156862754Y-92383920D01*
X157132419Y-92605228D01*
X157132426Y-92605233D01*
X157132436Y-92605240D01*
X157422460Y-92799027D01*
X157422465Y-92799030D01*
X157422477Y-92799038D01*
X157422486Y-92799042D01*
X157422488Y-92799044D01*
X157730127Y-92963481D01*
X157730129Y-92963481D01*
X157730135Y-92963485D01*
X158052430Y-93096984D01*
X158386258Y-93198250D01*
X158386264Y-93198251D01*
X158386267Y-93198252D01*
X158386278Y-93198255D01*
X158697346Y-93260129D01*
X158728405Y-93266307D01*
X159075575Y-93300500D01*
X159075578Y-93300500D01*
X159424422Y-93300500D01*
X159424425Y-93300500D01*
X159771595Y-93266307D01*
X159838197Y-93253059D01*
X160113721Y-93198255D01*
X160113732Y-93198252D01*
X160113732Y-93198251D01*
X160113742Y-93198250D01*
X160447570Y-93096984D01*
X160769865Y-92963485D01*
X161077523Y-92799038D01*
X161367581Y-92605228D01*
X161637246Y-92383920D01*
X161874636Y-92146530D01*
X172449500Y-92146530D01*
X172449500Y-92353469D01*
X172489868Y-92556412D01*
X172489870Y-92556420D01*
X172569058Y-92747596D01*
X172684024Y-92919657D01*
X172830342Y-93065975D01*
X172830345Y-93065977D01*
X173002402Y-93180941D01*
X173193580Y-93260130D01*
X173361741Y-93293579D01*
X173396530Y-93300499D01*
X173396534Y-93300500D01*
X173396535Y-93300500D01*
X173603466Y-93300500D01*
X173603467Y-93300499D01*
X173806420Y-93260130D01*
X173997598Y-93180941D01*
X174169655Y-93065977D01*
X174169658Y-93065974D01*
X174197793Y-93037840D01*
X174218028Y-93026790D01*
X174235679Y-93011959D01*
X174251116Y-93008722D01*
X174259116Y-93004355D01*
X174269690Y-93002530D01*
X174277552Y-93001521D01*
X174345294Y-93001521D01*
X174468473Y-92977019D01*
X174472690Y-92976478D01*
X174503149Y-92981329D01*
X174533873Y-92984079D01*
X174538196Y-92986912D01*
X174541690Y-92987469D01*
X174548968Y-92993971D01*
X174576155Y-93011788D01*
X174580342Y-93015975D01*
X174580345Y-93015977D01*
X174752402Y-93130941D01*
X174943580Y-93210130D01*
X175146530Y-93250499D01*
X175146534Y-93250500D01*
X175146535Y-93250500D01*
X175353466Y-93250500D01*
X175353467Y-93250499D01*
X175556420Y-93210130D01*
X175747598Y-93130941D01*
X175919655Y-93015977D01*
X176002740Y-92932892D01*
X178853119Y-92932892D01*
X178853119Y-93139831D01*
X178893487Y-93342774D01*
X178893489Y-93342782D01*
X178972677Y-93533958D01*
X179087643Y-93706019D01*
X179233961Y-93852337D01*
X179233964Y-93852339D01*
X179406021Y-93967303D01*
X179597199Y-94046492D01*
X179647979Y-94056592D01*
X179709889Y-94088975D01*
X179726891Y-94109319D01*
X179834024Y-94269657D01*
X179980342Y-94415975D01*
X179980345Y-94415977D01*
X180152402Y-94530941D01*
X180343580Y-94610130D01*
X180546530Y-94650499D01*
X180546534Y-94650500D01*
X180546535Y-94650500D01*
X180753466Y-94650500D01*
X180753467Y-94650499D01*
X180956420Y-94610130D01*
X181147598Y-94530941D01*
X181319655Y-94415977D01*
X181465977Y-94269655D01*
X181580941Y-94097598D01*
X181660130Y-93906420D01*
X181700500Y-93703465D01*
X181700500Y-93496535D01*
X181660130Y-93293580D01*
X181580941Y-93102402D01*
X181465977Y-92930345D01*
X181465975Y-92930342D01*
X181319657Y-92784024D01*
X181190310Y-92697598D01*
X181147598Y-92669059D01*
X180956420Y-92589870D01*
X180956414Y-92589868D01*
X180905638Y-92579768D01*
X180843727Y-92547383D01*
X180826728Y-92527041D01*
X180719599Y-92366711D01*
X180719593Y-92366703D01*
X180573276Y-92220386D01*
X180448847Y-92137246D01*
X180401217Y-92105421D01*
X180379764Y-92096535D01*
X180210039Y-92026232D01*
X180210031Y-92026230D01*
X180007088Y-91985862D01*
X180007084Y-91985862D01*
X179800154Y-91985862D01*
X179800149Y-91985862D01*
X179597206Y-92026230D01*
X179597198Y-92026232D01*
X179406022Y-92105420D01*
X179233961Y-92220386D01*
X179087643Y-92366704D01*
X178972677Y-92538765D01*
X178893489Y-92729941D01*
X178893487Y-92729949D01*
X178853119Y-92932892D01*
X176002740Y-92932892D01*
X176065977Y-92869655D01*
X176180941Y-92697598D01*
X176260130Y-92506420D01*
X176300500Y-92303465D01*
X176300500Y-92096535D01*
X176260130Y-91893580D01*
X176180941Y-91702402D01*
X176065977Y-91530345D01*
X176065975Y-91530342D01*
X175919657Y-91384024D01*
X175822427Y-91319058D01*
X175747598Y-91269059D01*
X175556420Y-91189870D01*
X175556412Y-91189868D01*
X175353469Y-91149500D01*
X175353465Y-91149500D01*
X175146535Y-91149500D01*
X175079349Y-91162863D01*
X175027543Y-91173168D01*
X174957951Y-91166939D01*
X174915672Y-91139231D01*
X174911486Y-91135045D01*
X174825455Y-91077562D01*
X174739427Y-91020080D01*
X174620322Y-90970745D01*
X174548249Y-90940891D01*
X174548241Y-90940889D01*
X174345298Y-90900521D01*
X174345294Y-90900521D01*
X174138364Y-90900521D01*
X174138359Y-90900521D01*
X173935416Y-90940889D01*
X173935408Y-90940891D01*
X173744232Y-91020079D01*
X173572171Y-91135045D01*
X173572170Y-91135046D01*
X173544036Y-91163181D01*
X173482713Y-91196666D01*
X173456355Y-91199500D01*
X173396530Y-91199500D01*
X173193587Y-91239868D01*
X173193579Y-91239870D01*
X173002403Y-91319058D01*
X172830342Y-91434024D01*
X172684024Y-91580342D01*
X172569058Y-91752403D01*
X172489870Y-91943579D01*
X172489868Y-91943587D01*
X172449500Y-92146530D01*
X161874636Y-92146530D01*
X161883920Y-92137246D01*
X162105228Y-91867581D01*
X162299038Y-91577523D01*
X162463485Y-91269865D01*
X162596984Y-90947570D01*
X162698250Y-90613742D01*
X162698252Y-90613732D01*
X162698255Y-90613721D01*
X162766307Y-90271594D01*
X162800500Y-89924421D01*
X162800500Y-89575578D01*
X186199500Y-89575578D01*
X186199500Y-89924421D01*
X186233692Y-90271594D01*
X186301744Y-90613721D01*
X186301747Y-90613732D01*
X186403016Y-90947571D01*
X186536516Y-91269867D01*
X186536518Y-91269872D01*
X186700955Y-91577511D01*
X186700972Y-91577539D01*
X186894759Y-91867563D01*
X186894776Y-91867586D01*
X187116084Y-92137251D01*
X187362748Y-92383915D01*
X187362753Y-92383919D01*
X187362754Y-92383920D01*
X187632419Y-92605228D01*
X187632426Y-92605233D01*
X187632436Y-92605240D01*
X187922460Y-92799027D01*
X187922465Y-92799030D01*
X187922477Y-92799038D01*
X187922486Y-92799042D01*
X187922488Y-92799044D01*
X188230127Y-92963481D01*
X188230129Y-92963481D01*
X188230135Y-92963485D01*
X188552430Y-93096984D01*
X188886258Y-93198250D01*
X188886264Y-93198251D01*
X188886267Y-93198252D01*
X188886278Y-93198255D01*
X189197346Y-93260129D01*
X189228405Y-93266307D01*
X189575575Y-93300500D01*
X189575578Y-93300500D01*
X189924422Y-93300500D01*
X189924425Y-93300500D01*
X190271595Y-93266307D01*
X190338197Y-93253059D01*
X190613721Y-93198255D01*
X190613732Y-93198252D01*
X190613732Y-93198251D01*
X190613742Y-93198250D01*
X190947570Y-93096984D01*
X191269865Y-92963485D01*
X191577523Y-92799038D01*
X191867581Y-92605228D01*
X192137246Y-92383920D01*
X192383920Y-92137246D01*
X192605228Y-91867581D01*
X192799038Y-91577523D01*
X192963485Y-91269865D01*
X193096984Y-90947570D01*
X193198250Y-90613742D01*
X193198252Y-90613732D01*
X193198255Y-90613721D01*
X193266307Y-90271594D01*
X193300500Y-89924421D01*
X193300500Y-89575578D01*
X193266307Y-89228405D01*
X193198255Y-88886278D01*
X193198252Y-88886267D01*
X193198251Y-88886264D01*
X193198250Y-88886258D01*
X193096984Y-88552430D01*
X192963485Y-88230135D01*
X192799038Y-87922477D01*
X192799027Y-87922460D01*
X192605240Y-87632436D01*
X192605233Y-87632426D01*
X192605228Y-87632419D01*
X192383920Y-87362754D01*
X192383919Y-87362753D01*
X192383915Y-87362748D01*
X192137251Y-87116084D01*
X191867586Y-86894776D01*
X191867563Y-86894759D01*
X191577539Y-86700972D01*
X191577511Y-86700955D01*
X191269872Y-86536518D01*
X191269867Y-86536516D01*
X190947571Y-86403016D01*
X190613732Y-86301747D01*
X190613721Y-86301744D01*
X190271594Y-86233692D01*
X190010120Y-86207940D01*
X189924425Y-86199500D01*
X189575575Y-86199500D01*
X189496394Y-86207298D01*
X189228405Y-86233692D01*
X188886278Y-86301744D01*
X188886267Y-86301747D01*
X188552428Y-86403016D01*
X188230132Y-86536516D01*
X188230127Y-86536518D01*
X187922488Y-86700955D01*
X187922460Y-86700972D01*
X187632436Y-86894759D01*
X187632413Y-86894776D01*
X187362748Y-87116084D01*
X187116084Y-87362748D01*
X186894776Y-87632413D01*
X186894759Y-87632436D01*
X186700972Y-87922460D01*
X186700955Y-87922488D01*
X186536518Y-88230127D01*
X186536516Y-88230132D01*
X186403016Y-88552428D01*
X186301747Y-88886267D01*
X186301744Y-88886278D01*
X186233692Y-89228405D01*
X186199500Y-89575578D01*
X162800500Y-89575578D01*
X162766307Y-89228405D01*
X162698255Y-88886278D01*
X162698252Y-88886267D01*
X162698251Y-88886264D01*
X162698250Y-88886258D01*
X162596984Y-88552430D01*
X162463485Y-88230135D01*
X162299038Y-87922477D01*
X162290255Y-87909332D01*
X162248292Y-87846530D01*
X166449500Y-87846530D01*
X166449500Y-88053469D01*
X166489868Y-88256412D01*
X166489870Y-88256420D01*
X166569058Y-88447596D01*
X166684024Y-88619657D01*
X166830342Y-88765975D01*
X166830345Y-88765977D01*
X167002402Y-88880941D01*
X167193580Y-88960130D01*
X167396530Y-89000499D01*
X167396534Y-89000500D01*
X167396535Y-89000500D01*
X167603466Y-89000500D01*
X167603467Y-89000499D01*
X167806420Y-88960130D01*
X167997598Y-88880941D01*
X168169655Y-88765977D01*
X168315977Y-88619655D01*
X168430941Y-88447598D01*
X168510130Y-88256420D01*
X168550500Y-88053465D01*
X168550500Y-87846535D01*
X168510130Y-87643580D01*
X168430941Y-87452402D01*
X168315977Y-87280345D01*
X168315975Y-87280342D01*
X168169657Y-87134024D01*
X168083626Y-87076541D01*
X167997598Y-87019059D01*
X167806420Y-86939870D01*
X167806412Y-86939868D01*
X167603469Y-86899500D01*
X167603465Y-86899500D01*
X167396535Y-86899500D01*
X167396530Y-86899500D01*
X167193587Y-86939868D01*
X167193579Y-86939870D01*
X167002403Y-87019058D01*
X166830342Y-87134024D01*
X166684024Y-87280342D01*
X166569058Y-87452403D01*
X166489870Y-87643579D01*
X166489868Y-87643587D01*
X166449500Y-87846530D01*
X162248292Y-87846530D01*
X162105240Y-87632436D01*
X162105233Y-87632426D01*
X162105228Y-87632419D01*
X161883920Y-87362754D01*
X161883919Y-87362753D01*
X161883915Y-87362748D01*
X161637251Y-87116084D01*
X161367586Y-86894776D01*
X161367563Y-86894759D01*
X161077539Y-86700972D01*
X161077511Y-86700955D01*
X160769872Y-86536518D01*
X160769867Y-86536516D01*
X160447571Y-86403016D01*
X160113732Y-86301747D01*
X160113721Y-86301744D01*
X159771594Y-86233692D01*
X159510120Y-86207940D01*
X159424425Y-86199500D01*
X159075575Y-86199500D01*
X158996394Y-86207298D01*
X158728405Y-86233692D01*
X158386278Y-86301744D01*
X158386267Y-86301747D01*
X158052428Y-86403016D01*
X157730132Y-86536516D01*
X157730127Y-86536518D01*
X157422488Y-86700955D01*
X157422460Y-86700972D01*
X157132436Y-86894759D01*
X157132413Y-86894776D01*
X156862748Y-87116084D01*
X156616084Y-87362748D01*
X156394776Y-87632413D01*
X156394759Y-87632436D01*
X156200972Y-87922460D01*
X156200955Y-87922488D01*
X156036518Y-88230127D01*
X156036516Y-88230132D01*
X155903016Y-88552428D01*
X155801747Y-88886267D01*
X155801744Y-88886278D01*
X155733692Y-89228405D01*
X155699500Y-89575578D01*
X150000500Y-89575578D01*
X150000500Y-83333191D01*
X150020185Y-83266152D01*
X150072989Y-83220397D01*
X150142147Y-83210453D01*
X150193390Y-83230088D01*
X150284111Y-83290706D01*
X150475289Y-83369895D01*
X150678239Y-83410264D01*
X150678243Y-83410265D01*
X150678244Y-83410265D01*
X150885175Y-83410265D01*
X150885176Y-83410264D01*
X151088129Y-83369895D01*
X151279307Y-83290706D01*
X151451364Y-83175742D01*
X151597686Y-83029420D01*
X151712650Y-82857363D01*
X151791839Y-82666185D01*
X151816649Y-82541451D01*
X151849033Y-82479543D01*
X151909748Y-82444969D01*
X151914024Y-82444038D01*
X151977152Y-82431482D01*
X152168330Y-82352293D01*
X152340387Y-82237329D01*
X152486709Y-82091007D01*
X152601673Y-81918950D01*
X152680862Y-81727772D01*
X152721232Y-81524817D01*
X152721232Y-81317887D01*
X152680862Y-81114932D01*
X152601673Y-80923754D01*
X152486709Y-80751697D01*
X152486707Y-80751694D01*
X152447194Y-80712181D01*
X152413709Y-80650858D01*
X152418693Y-80581166D01*
X152460565Y-80525233D01*
X152526029Y-80500816D01*
X152534875Y-80500500D01*
X152565892Y-80500500D01*
X196307717Y-80500500D01*
X196374756Y-80520185D01*
G37*
%TD.AperFunction*%
%TD*%
M02*
