%TF.GenerationSoftware,KiCad,Pcbnew,9.0.7-9.0.7~ubuntu24.04.1*%
%TF.CreationDate,2026-06-07T21:21:28+02:00*%
%TF.ProjectId,flight_controller,666c6967-6874-45f6-936f-6e74726f6c6c,rev?*%
%TF.SameCoordinates,Original*%
%TF.FileFunction,Copper,L5,Inr*%
%TF.FilePolarity,Positive*%
%FSLAX46Y46*%
G04 Gerber Fmt 4.6, Leading zero omitted, Abs format (unit mm)*
G04 Created by KiCad (PCBNEW 9.0.7-9.0.7~ubuntu24.04.1) date 2026-06-07 21:21:28*
%MOMM*%
%LPD*%
G01*
G04 APERTURE LIST*
%TA.AperFunction,ComponentPad*%
%ADD10R,1.700000X1.700000*%
%TD*%
%TA.AperFunction,ComponentPad*%
%ADD11C,1.700000*%
%TD*%
%TA.AperFunction,ComponentPad*%
%ADD12C,5.500000*%
%TD*%
%TA.AperFunction,ComponentPad*%
%ADD13R,0.850000X0.850000*%
%TD*%
%TA.AperFunction,ComponentPad*%
%ADD14C,0.850000*%
%TD*%
%TA.AperFunction,ComponentPad*%
%ADD15O,2.100000X1.000000*%
%TD*%
%TA.AperFunction,ComponentPad*%
%ADD16O,1.800000X1.000000*%
%TD*%
%TA.AperFunction,ViaPad*%
%ADD17C,0.500000*%
%TD*%
%TA.AperFunction,ViaPad*%
%ADD18C,0.400000*%
%TD*%
G04 APERTURE END LIST*
D10*
%TO.N,GNDREF*%
%TO.C,J5*%
X151250000Y-92000000D03*
D11*
%TO.N,/GPS_TX*%
X151250000Y-94540000D03*
%TO.N,/GPS_RX*%
X151250000Y-97080000D03*
%TO.N,+5V*%
X151250000Y-99620000D03*
%TD*%
D10*
%TO.N,GNDREF*%
%TO.C,J3*%
X160880000Y-128000000D03*
D11*
%TO.N,/VTX_TX*%
X163420000Y-128000000D03*
%TO.N,/VTX_RX*%
X165960000Y-128000000D03*
%TO.N,+9V*%
X168500000Y-128000000D03*
%TD*%
D10*
%TO.N,GNDREF*%
%TO.C,J4*%
X151250000Y-111000000D03*
D11*
%TO.N,/TRANSCEIVER_TX*%
X151250000Y-113540000D03*
%TO.N,/TRANSCEIVER_RX*%
X151250000Y-116080000D03*
%TO.N,+5V*%
X151250000Y-118620000D03*
%TD*%
D12*
%TO.N,*%
%TO.C,REF\u002A\u002A*%
X189750000Y-120250000D03*
%TD*%
%TO.N,*%
%TO.C,REF\u002A\u002A*%
X159250000Y-89750000D03*
%TD*%
%TO.N,*%
%TO.C,REF\u002A\u002A*%
X159250000Y-120250000D03*
%TD*%
D13*
%TO.N,GNDREF*%
%TO.C,J1*%
X193500000Y-102250000D03*
D14*
%TO.N,/JTAG_SWCLK*%
X193500000Y-103250000D03*
%TO.N,/JTAG_SWDIO*%
X193500000Y-104250000D03*
%TD*%
D12*
%TO.N,*%
%TO.C,REF\u002A\u002A*%
X189750000Y-89750000D03*
%TD*%
D15*
%TO.N,GNDREF*%
%TO.C,J6*%
X192482500Y-115820000D03*
X192482500Y-107180000D03*
D16*
X196662500Y-115820000D03*
X196662500Y-107180000D03*
%TD*%
D17*
%TO.N,GNDREF*%
X173088446Y-103359149D03*
D18*
%TO.N,Net-(U4-FB)*%
X173650000Y-122300000D03*
%TO.N,/VTX_TX*%
X181446446Y-105096446D03*
D17*
%TO.N,GNDREF*%
X181893655Y-104285596D03*
X180850000Y-104700000D03*
X181750000Y-111100000D03*
%TO.N,+3.3V*%
X170850000Y-106200000D03*
X187650000Y-95300000D03*
X158750000Y-115100000D03*
X167450000Y-100600000D03*
X183450000Y-112900000D03*
X176650000Y-112900000D03*
X180650000Y-93600000D03*
X184150000Y-115900000D03*
X174513909Y-118263909D03*
X170550000Y-115300000D03*
X170250000Y-111000000D03*
X175250000Y-92200000D03*
X188150000Y-102500000D03*
X167950110Y-117501685D03*
X164850000Y-87400000D03*
%TO.N,GNDREF*%
X172093722Y-111618610D03*
X184293971Y-111573895D03*
X169603245Y-106089198D03*
X174700645Y-101298486D03*
X198113794Y-127590761D03*
X174322623Y-96829467D03*
X166732784Y-115234557D03*
X174321402Y-110798846D03*
X177892651Y-107550875D03*
X174241829Y-91951021D03*
X197224771Y-128529174D03*
X151884217Y-128422887D03*
X154165207Y-109982508D03*
X182564068Y-117816730D03*
X150781709Y-82359765D03*
X160041445Y-99986123D03*
X197261587Y-81310977D03*
X174204007Y-115665703D03*
X167388364Y-98700528D03*
X198200000Y-82200000D03*
X150945804Y-127533864D03*
X180982462Y-99177736D03*
X169247765Y-97215636D03*
X165050000Y-112600000D03*
X175759285Y-114497678D03*
X181685172Y-115285551D03*
X179903619Y-93036362D03*
X151670732Y-81421352D03*
X182844413Y-123989163D03*
%TO.N,VBAT*%
X183150000Y-119100000D03*
X185750000Y-126500000D03*
X177000000Y-86750000D03*
X162250000Y-98000000D03*
X154350000Y-101200000D03*
%TO.N,/ICM_INT1*%
X184050000Y-110800000D03*
X181950000Y-117400000D03*
%TO.N,+5VBAT*%
X190350000Y-106400000D03*
X162250000Y-109500000D03*
%TO.N,/BMP_SCLK*%
X173750000Y-114300000D03*
X174150000Y-110000000D03*
%TO.N,/BOOT*%
X173500000Y-92250000D03*
X180500000Y-98500000D03*
%TO.N,/BMP_SDI*%
X177150000Y-107500000D03*
X175250000Y-114000000D03*
%TO.N,+5V*%
X164550110Y-123401685D03*
X188050000Y-114800000D03*
X186750000Y-109000000D03*
X197950000Y-97600000D03*
X170550000Y-123300000D03*
%TO.N,Net-(U2-FB)*%
X159500000Y-100500000D03*
X154750000Y-109500000D03*
%TO.N,Net-(U4-FB)*%
X183599998Y-123934715D03*
%TO.N,/FLASH_SCLK*%
X165750000Y-112250000D03*
X166750000Y-114500000D03*
%TO.N,/ICM_MISO*%
X181000000Y-115750000D03*
X181750000Y-110250000D03*
%TO.N,/VTX_RX*%
X182349745Y-104918666D03*
%TO.N,/GPS_RX*%
X168100000Y-98450000D03*
X173150000Y-102600000D03*
%TO.N,/GPS_TX*%
X173950000Y-101600000D03*
X168850000Y-97850000D03*
%TD*%
%TA.AperFunction,Conductor*%
%TO.N,GNDREF*%
G36*
X196503736Y-80500726D02*
G01*
X196793796Y-80518271D01*
X196808659Y-80520076D01*
X197090798Y-80571780D01*
X197105335Y-80575363D01*
X197379172Y-80660695D01*
X197393163Y-80666000D01*
X197654743Y-80783727D01*
X197667989Y-80790680D01*
X197913465Y-80939075D01*
X197925776Y-80947573D01*
X198151573Y-81124473D01*
X198162781Y-81134403D01*
X198365596Y-81337218D01*
X198375526Y-81348426D01*
X198495481Y-81501538D01*
X198552422Y-81574217D01*
X198560928Y-81586540D01*
X198709316Y-81832004D01*
X198716275Y-81845263D01*
X198833997Y-82106831D01*
X198839306Y-82120832D01*
X198924635Y-82394663D01*
X198928219Y-82409201D01*
X198979923Y-82691340D01*
X198981728Y-82706205D01*
X198999274Y-82996263D01*
X198999500Y-83003750D01*
X198999500Y-126996249D01*
X198999274Y-127003736D01*
X198981728Y-127293794D01*
X198979923Y-127308659D01*
X198928219Y-127590798D01*
X198924635Y-127605336D01*
X198839306Y-127879167D01*
X198833997Y-127893168D01*
X198716275Y-128154736D01*
X198709316Y-128167995D01*
X198560928Y-128413459D01*
X198552422Y-128425782D01*
X198375526Y-128651573D01*
X198365596Y-128662781D01*
X198162781Y-128865596D01*
X198151573Y-128875526D01*
X197925782Y-129052422D01*
X197913459Y-129060928D01*
X197667995Y-129209316D01*
X197654736Y-129216275D01*
X197393168Y-129333997D01*
X197379167Y-129339306D01*
X197105336Y-129424635D01*
X197090798Y-129428219D01*
X196808659Y-129479923D01*
X196793794Y-129481728D01*
X196503736Y-129499274D01*
X196496249Y-129499500D01*
X162069269Y-129499500D01*
X162002230Y-129479815D01*
X161956475Y-129427011D01*
X161946531Y-129357853D01*
X161975556Y-129294297D01*
X161994958Y-129276234D01*
X162087187Y-129207190D01*
X162087190Y-129207187D01*
X162173350Y-129092093D01*
X162173354Y-129092086D01*
X162223596Y-128957379D01*
X162223598Y-128957372D01*
X162229999Y-128897844D01*
X162230000Y-128897827D01*
X162230000Y-128701087D01*
X162249685Y-128634048D01*
X162302489Y-128588293D01*
X162371647Y-128578349D01*
X162435203Y-128607374D01*
X162454318Y-128628202D01*
X162542441Y-128749495D01*
X162670500Y-128877554D01*
X162670505Y-128877558D01*
X162698427Y-128897844D01*
X162817006Y-128983996D01*
X162922484Y-129037740D01*
X162978360Y-129066211D01*
X162978363Y-129066212D01*
X163044683Y-129087760D01*
X163150591Y-129122171D01*
X163233429Y-129135291D01*
X163329449Y-129150500D01*
X163329454Y-129150500D01*
X163510551Y-129150500D01*
X163597259Y-129136765D01*
X163689409Y-129122171D01*
X163861639Y-129066211D01*
X164022994Y-128983996D01*
X164169501Y-128877553D01*
X164297553Y-128749501D01*
X164403996Y-128602994D01*
X164486211Y-128441639D01*
X164542171Y-128269409D01*
X164559250Y-128161576D01*
X164567527Y-128109321D01*
X164597456Y-128046186D01*
X164656768Y-128009255D01*
X164726630Y-128010253D01*
X164784863Y-128048863D01*
X164812473Y-128109321D01*
X164837829Y-128269410D01*
X164893787Y-128441636D01*
X164893788Y-128441639D01*
X164949664Y-128551300D01*
X164968513Y-128588293D01*
X164976006Y-128602997D01*
X165082441Y-128749494D01*
X165082445Y-128749499D01*
X165210500Y-128877554D01*
X165210505Y-128877558D01*
X165238427Y-128897844D01*
X165357006Y-128983996D01*
X165462484Y-129037740D01*
X165518360Y-129066211D01*
X165518363Y-129066212D01*
X165584683Y-129087760D01*
X165690591Y-129122171D01*
X165773429Y-129135291D01*
X165869449Y-129150500D01*
X165869454Y-129150500D01*
X166050551Y-129150500D01*
X166137259Y-129136765D01*
X166229409Y-129122171D01*
X166401639Y-129066211D01*
X166562994Y-128983996D01*
X166709501Y-128877553D01*
X166837553Y-128749501D01*
X166943996Y-128602994D01*
X167026211Y-128441639D01*
X167082171Y-128269409D01*
X167099250Y-128161576D01*
X167107527Y-128109321D01*
X167137456Y-128046186D01*
X167196768Y-128009255D01*
X167266630Y-128010253D01*
X167324863Y-128048863D01*
X167352473Y-128109321D01*
X167377829Y-128269410D01*
X167433787Y-128441636D01*
X167433788Y-128441639D01*
X167489664Y-128551300D01*
X167508513Y-128588293D01*
X167516006Y-128602997D01*
X167622441Y-128749494D01*
X167622445Y-128749499D01*
X167750500Y-128877554D01*
X167750505Y-128877558D01*
X167778427Y-128897844D01*
X167897006Y-128983996D01*
X168002484Y-129037740D01*
X168058360Y-129066211D01*
X168058363Y-129066212D01*
X168124683Y-129087760D01*
X168230591Y-129122171D01*
X168313429Y-129135291D01*
X168409449Y-129150500D01*
X168409454Y-129150500D01*
X168590551Y-129150500D01*
X168677259Y-129136765D01*
X168769409Y-129122171D01*
X168941639Y-129066211D01*
X169102994Y-128983996D01*
X169249501Y-128877553D01*
X169377553Y-128749501D01*
X169483996Y-128602994D01*
X169566211Y-128441639D01*
X169622171Y-128269409D01*
X169639250Y-128161576D01*
X169650500Y-128090551D01*
X169650500Y-127909448D01*
X169625245Y-127750000D01*
X169622171Y-127730591D01*
X169566211Y-127558361D01*
X169566211Y-127558360D01*
X169495937Y-127420442D01*
X169483996Y-127397006D01*
X169465681Y-127371797D01*
X169377558Y-127250505D01*
X169377554Y-127250500D01*
X169249499Y-127122445D01*
X169249494Y-127122441D01*
X169102997Y-127016006D01*
X169102996Y-127016005D01*
X169102994Y-127016004D01*
X169051300Y-126989664D01*
X168941639Y-126933788D01*
X168941636Y-126933787D01*
X168769410Y-126877829D01*
X168590551Y-126849500D01*
X168590546Y-126849500D01*
X168409454Y-126849500D01*
X168409449Y-126849500D01*
X168230589Y-126877829D01*
X168058363Y-126933787D01*
X168058360Y-126933788D01*
X167897002Y-127016006D01*
X167750505Y-127122441D01*
X167750500Y-127122445D01*
X167622445Y-127250500D01*
X167622441Y-127250505D01*
X167516006Y-127397002D01*
X167433788Y-127558360D01*
X167433787Y-127558363D01*
X167377829Y-127730589D01*
X167352473Y-127890678D01*
X167322544Y-127953813D01*
X167263232Y-127990744D01*
X167193369Y-127989746D01*
X167135137Y-127951136D01*
X167107527Y-127890678D01*
X167085245Y-127750000D01*
X167082171Y-127730591D01*
X167026211Y-127558361D01*
X167026211Y-127558360D01*
X166955937Y-127420442D01*
X166943996Y-127397006D01*
X166925681Y-127371797D01*
X166837558Y-127250505D01*
X166837554Y-127250500D01*
X166709499Y-127122445D01*
X166709494Y-127122441D01*
X166562997Y-127016006D01*
X166562996Y-127016005D01*
X166562994Y-127016004D01*
X166511300Y-126989664D01*
X166401639Y-126933788D01*
X166401636Y-126933787D01*
X166229410Y-126877829D01*
X166050551Y-126849500D01*
X166050546Y-126849500D01*
X165869454Y-126849500D01*
X165869449Y-126849500D01*
X165690589Y-126877829D01*
X165518363Y-126933787D01*
X165518360Y-126933788D01*
X165357002Y-127016006D01*
X165210505Y-127122441D01*
X165210500Y-127122445D01*
X165082445Y-127250500D01*
X165082441Y-127250505D01*
X164976006Y-127397002D01*
X164893788Y-127558360D01*
X164893787Y-127558363D01*
X164837829Y-127730589D01*
X164812473Y-127890678D01*
X164782544Y-127953813D01*
X164723232Y-127990744D01*
X164653369Y-127989746D01*
X164595137Y-127951136D01*
X164567527Y-127890678D01*
X164545245Y-127750000D01*
X164542171Y-127730591D01*
X164486211Y-127558361D01*
X164486211Y-127558360D01*
X164415937Y-127420442D01*
X164403996Y-127397006D01*
X164385681Y-127371797D01*
X164297558Y-127250505D01*
X164297554Y-127250500D01*
X164169499Y-127122445D01*
X164169494Y-127122441D01*
X164022997Y-127016006D01*
X164022996Y-127016005D01*
X164022994Y-127016004D01*
X163971300Y-126989664D01*
X163861639Y-126933788D01*
X163861636Y-126933787D01*
X163689410Y-126877829D01*
X163510551Y-126849500D01*
X163510546Y-126849500D01*
X163329454Y-126849500D01*
X163329449Y-126849500D01*
X163150589Y-126877829D01*
X162978363Y-126933787D01*
X162978360Y-126933788D01*
X162817002Y-127016006D01*
X162670505Y-127122441D01*
X162670500Y-127122445D01*
X162542445Y-127250500D01*
X162542441Y-127250505D01*
X162454318Y-127371797D01*
X162398988Y-127414463D01*
X162329375Y-127420442D01*
X162267580Y-127387836D01*
X162233223Y-127326998D01*
X162230000Y-127298912D01*
X162230000Y-127102172D01*
X162229999Y-127102155D01*
X162223598Y-127042627D01*
X162223596Y-127042620D01*
X162173354Y-126907913D01*
X162173350Y-126907906D01*
X162087190Y-126792812D01*
X162087187Y-126792809D01*
X161972093Y-126706649D01*
X161972086Y-126706645D01*
X161837379Y-126656403D01*
X161837372Y-126656401D01*
X161777844Y-126650000D01*
X161130000Y-126650000D01*
X161130000Y-127566988D01*
X161072993Y-127534075D01*
X160945826Y-127500000D01*
X160814174Y-127500000D01*
X160687007Y-127534075D01*
X160630000Y-127566988D01*
X160630000Y-126650000D01*
X159982155Y-126650000D01*
X159922627Y-126656401D01*
X159922620Y-126656403D01*
X159787913Y-126706645D01*
X159787906Y-126706649D01*
X159672812Y-126792809D01*
X159672809Y-126792812D01*
X159586649Y-126907906D01*
X159586645Y-126907913D01*
X159536403Y-127042620D01*
X159536401Y-127042627D01*
X159530000Y-127102155D01*
X159530000Y-127750000D01*
X160446988Y-127750000D01*
X160414075Y-127807007D01*
X160380000Y-127934174D01*
X160380000Y-128065826D01*
X160414075Y-128192993D01*
X160446988Y-128250000D01*
X159530000Y-128250000D01*
X159530000Y-128897844D01*
X159536401Y-128957372D01*
X159536403Y-128957379D01*
X159586645Y-129092086D01*
X159586649Y-129092093D01*
X159672809Y-129207187D01*
X159672812Y-129207190D01*
X159765042Y-129276234D01*
X159806913Y-129332168D01*
X159811897Y-129401859D01*
X159778411Y-129463182D01*
X159717088Y-129496666D01*
X159690731Y-129499500D01*
X152503751Y-129499500D01*
X152496264Y-129499274D01*
X152206205Y-129481728D01*
X152191340Y-129479923D01*
X151909201Y-129428219D01*
X151894663Y-129424635D01*
X151620832Y-129339306D01*
X151606831Y-129333997D01*
X151345263Y-129216275D01*
X151332004Y-129209316D01*
X151234710Y-129150500D01*
X151086537Y-129060926D01*
X151074217Y-129052422D01*
X150848426Y-128875526D01*
X150837218Y-128865596D01*
X150634403Y-128662781D01*
X150624473Y-128651573D01*
X150505723Y-128500000D01*
X150447573Y-128425776D01*
X150439075Y-128413465D01*
X150290680Y-128167989D01*
X150283727Y-128154743D01*
X150166000Y-127893163D01*
X150160693Y-127879167D01*
X150114394Y-127730589D01*
X150075363Y-127605335D01*
X150071780Y-127590798D01*
X150036266Y-127397006D01*
X150020075Y-127308657D01*
X150018271Y-127293794D01*
X150000726Y-127003736D01*
X150000500Y-126996249D01*
X150000500Y-126427525D01*
X185199500Y-126427525D01*
X185199500Y-126572475D01*
X185221989Y-126656403D01*
X185237017Y-126712488D01*
X185309488Y-126838011D01*
X185309490Y-126838013D01*
X185309491Y-126838015D01*
X185411985Y-126940509D01*
X185411986Y-126940510D01*
X185411988Y-126940511D01*
X185537511Y-127012982D01*
X185537512Y-127012982D01*
X185537515Y-127012984D01*
X185677525Y-127050500D01*
X185677528Y-127050500D01*
X185822472Y-127050500D01*
X185822475Y-127050500D01*
X185962485Y-127012984D01*
X186088015Y-126940509D01*
X186190509Y-126838015D01*
X186262984Y-126712485D01*
X186300500Y-126572475D01*
X186300500Y-126427525D01*
X186262984Y-126287515D01*
X186190509Y-126161985D01*
X186088015Y-126059491D01*
X186088013Y-126059490D01*
X186088011Y-126059488D01*
X185962488Y-125987017D01*
X185962489Y-125987017D01*
X185951006Y-125983940D01*
X185822475Y-125949500D01*
X185677525Y-125949500D01*
X185548993Y-125983940D01*
X185537511Y-125987017D01*
X185411988Y-126059488D01*
X185411982Y-126059493D01*
X185309493Y-126161982D01*
X185309488Y-126161988D01*
X185237017Y-126287511D01*
X185237016Y-126287515D01*
X185199500Y-126427525D01*
X150000500Y-126427525D01*
X150000500Y-123329210D01*
X163999610Y-123329210D01*
X163999610Y-123474160D01*
X164032444Y-123596697D01*
X164037127Y-123614173D01*
X164109598Y-123739696D01*
X164109600Y-123739698D01*
X164109601Y-123739700D01*
X164212095Y-123842194D01*
X164212096Y-123842195D01*
X164212098Y-123842196D01*
X164337621Y-123914667D01*
X164337622Y-123914667D01*
X164337625Y-123914669D01*
X164477635Y-123952185D01*
X164477638Y-123952185D01*
X164622582Y-123952185D01*
X164622585Y-123952185D01*
X164762595Y-123914669D01*
X164853404Y-123862240D01*
X183049498Y-123862240D01*
X183049498Y-124007190D01*
X183087014Y-124147200D01*
X183087015Y-124147203D01*
X183159486Y-124272726D01*
X183159488Y-124272728D01*
X183159489Y-124272730D01*
X183261983Y-124375224D01*
X183261984Y-124375225D01*
X183261986Y-124375226D01*
X183387509Y-124447697D01*
X183387510Y-124447697D01*
X183387513Y-124447699D01*
X183527523Y-124485215D01*
X183527526Y-124485215D01*
X183672470Y-124485215D01*
X183672473Y-124485215D01*
X183812483Y-124447699D01*
X183938013Y-124375224D01*
X184040507Y-124272730D01*
X184112982Y-124147200D01*
X184150498Y-124007190D01*
X184150498Y-123862240D01*
X184112982Y-123722230D01*
X184064361Y-123638017D01*
X184040509Y-123596703D01*
X184040504Y-123596697D01*
X183938015Y-123494208D01*
X183938009Y-123494203D01*
X183812486Y-123421732D01*
X183812487Y-123421732D01*
X183801004Y-123418655D01*
X183672473Y-123384215D01*
X183527523Y-123384215D01*
X183398991Y-123418655D01*
X183387509Y-123421732D01*
X183261986Y-123494203D01*
X183261980Y-123494208D01*
X183159491Y-123596697D01*
X183159486Y-123596703D01*
X183087015Y-123722226D01*
X183087014Y-123722230D01*
X183049498Y-123862240D01*
X164853404Y-123862240D01*
X164888125Y-123842194D01*
X164990619Y-123739700D01*
X165063094Y-123614170D01*
X165100610Y-123474160D01*
X165100610Y-123329210D01*
X165073363Y-123227525D01*
X169999500Y-123227525D01*
X169999500Y-123372475D01*
X170032118Y-123494206D01*
X170037017Y-123512488D01*
X170109488Y-123638011D01*
X170109490Y-123638013D01*
X170109491Y-123638015D01*
X170211985Y-123740509D01*
X170211986Y-123740510D01*
X170211988Y-123740511D01*
X170337511Y-123812982D01*
X170337512Y-123812982D01*
X170337515Y-123812984D01*
X170477525Y-123850500D01*
X170477528Y-123850500D01*
X170622472Y-123850500D01*
X170622475Y-123850500D01*
X170762485Y-123812984D01*
X170888015Y-123740509D01*
X170990509Y-123638015D01*
X171062984Y-123512485D01*
X171100500Y-123372475D01*
X171100500Y-123227525D01*
X171062984Y-123087515D01*
X171054451Y-123072736D01*
X170990511Y-122961988D01*
X170990506Y-122961982D01*
X170888017Y-122859493D01*
X170888011Y-122859488D01*
X170762488Y-122787017D01*
X170762489Y-122787017D01*
X170751006Y-122783940D01*
X170622475Y-122749500D01*
X170477525Y-122749500D01*
X170348993Y-122783940D01*
X170337511Y-122787017D01*
X170211988Y-122859488D01*
X170211982Y-122859493D01*
X170109493Y-122961982D01*
X170109488Y-122961988D01*
X170037017Y-123087511D01*
X170037016Y-123087515D01*
X169999500Y-123227525D01*
X165073363Y-123227525D01*
X165063094Y-123189200D01*
X165061186Y-123185896D01*
X164990621Y-123063673D01*
X164990616Y-123063667D01*
X164888127Y-122961178D01*
X164888121Y-122961173D01*
X164762598Y-122888702D01*
X164762599Y-122888702D01*
X164751116Y-122885625D01*
X164622585Y-122851185D01*
X164477635Y-122851185D01*
X164349103Y-122885625D01*
X164337621Y-122888702D01*
X164212098Y-122961173D01*
X164212092Y-122961178D01*
X164109603Y-123063667D01*
X164109598Y-123063673D01*
X164037127Y-123189196D01*
X164037126Y-123189200D01*
X163999610Y-123329210D01*
X150000500Y-123329210D01*
X150000500Y-120078681D01*
X156199500Y-120078681D01*
X156199500Y-120421318D01*
X156237858Y-120761768D01*
X156237861Y-120761782D01*
X156314102Y-121095816D01*
X156314103Y-121095818D01*
X156427264Y-121419216D01*
X156575922Y-121727907D01*
X156575924Y-121727910D01*
X156758211Y-122018018D01*
X156971834Y-122285893D01*
X157214107Y-122528166D01*
X157481982Y-122741789D01*
X157772090Y-122924076D01*
X158080785Y-123072736D01*
X158404183Y-123185897D01*
X158738217Y-123262139D01*
X158738226Y-123262140D01*
X158738231Y-123262141D01*
X158965197Y-123287713D01*
X159078682Y-123300499D01*
X159078685Y-123300500D01*
X159078688Y-123300500D01*
X159421315Y-123300500D01*
X159421316Y-123300499D01*
X159595311Y-123280895D01*
X159761768Y-123262141D01*
X159761771Y-123262140D01*
X159761783Y-123262139D01*
X160000688Y-123207609D01*
X160033188Y-123200192D01*
X160059657Y-123194150D01*
X160095817Y-123185897D01*
X160419215Y-123072736D01*
X160727910Y-122924076D01*
X161018018Y-122741789D01*
X161285893Y-122528166D01*
X161528166Y-122285893D01*
X161569463Y-122234108D01*
X173149500Y-122234108D01*
X173149500Y-122365891D01*
X173183608Y-122493187D01*
X173203804Y-122528166D01*
X173249500Y-122607314D01*
X173342686Y-122700500D01*
X173456814Y-122766392D01*
X173584108Y-122800500D01*
X173584110Y-122800500D01*
X173715890Y-122800500D01*
X173715892Y-122800500D01*
X173843186Y-122766392D01*
X173957314Y-122700500D01*
X174050500Y-122607314D01*
X174116392Y-122493186D01*
X174150500Y-122365892D01*
X174150500Y-122234108D01*
X174116392Y-122106814D01*
X174050500Y-121992686D01*
X173957314Y-121899500D01*
X173900250Y-121866554D01*
X173843187Y-121833608D01*
X173779539Y-121816554D01*
X173715892Y-121799500D01*
X173584108Y-121799500D01*
X173456812Y-121833608D01*
X173342686Y-121899500D01*
X173342683Y-121899502D01*
X173249502Y-121992683D01*
X173249500Y-121992686D01*
X173183608Y-122106812D01*
X173149500Y-122234108D01*
X161569463Y-122234108D01*
X161741789Y-122018018D01*
X161924076Y-121727910D01*
X162072736Y-121419215D01*
X162185897Y-121095817D01*
X162262139Y-120761783D01*
X162300500Y-120421312D01*
X162300500Y-120078688D01*
X162300499Y-120078681D01*
X186699500Y-120078681D01*
X186699500Y-120421318D01*
X186737858Y-120761768D01*
X186737861Y-120761782D01*
X186814102Y-121095816D01*
X186814103Y-121095818D01*
X186927264Y-121419216D01*
X187075922Y-121727907D01*
X187075924Y-121727910D01*
X187258211Y-122018018D01*
X187471834Y-122285893D01*
X187714107Y-122528166D01*
X187981982Y-122741789D01*
X188272090Y-122924076D01*
X188580785Y-123072736D01*
X188904183Y-123185897D01*
X189238217Y-123262139D01*
X189238226Y-123262140D01*
X189238231Y-123262141D01*
X189465197Y-123287713D01*
X189578682Y-123300499D01*
X189578685Y-123300500D01*
X189578688Y-123300500D01*
X189921315Y-123300500D01*
X189921316Y-123300499D01*
X190095311Y-123280895D01*
X190261768Y-123262141D01*
X190261771Y-123262140D01*
X190261783Y-123262139D01*
X190595817Y-123185897D01*
X190919215Y-123072736D01*
X191227910Y-122924076D01*
X191518018Y-122741789D01*
X191785893Y-122528166D01*
X192028166Y-122285893D01*
X192241789Y-122018018D01*
X192424076Y-121727910D01*
X192572736Y-121419215D01*
X192685897Y-121095817D01*
X192762139Y-120761783D01*
X192800500Y-120421312D01*
X192800500Y-120078688D01*
X192787713Y-119965197D01*
X192762141Y-119738231D01*
X192762140Y-119738226D01*
X192762139Y-119738217D01*
X192685897Y-119404183D01*
X192572736Y-119080785D01*
X192424076Y-118772090D01*
X192241789Y-118481982D01*
X192028166Y-118214107D01*
X191785893Y-117971834D01*
X191518018Y-117758211D01*
X191286101Y-117612488D01*
X191227907Y-117575922D01*
X190919216Y-117427264D01*
X190595818Y-117314103D01*
X190595816Y-117314102D01*
X190337473Y-117255137D01*
X190261783Y-117237861D01*
X190261780Y-117237860D01*
X190261768Y-117237858D01*
X189921318Y-117199500D01*
X189921312Y-117199500D01*
X189578688Y-117199500D01*
X189578681Y-117199500D01*
X189238231Y-117237858D01*
X189238217Y-117237861D01*
X188904183Y-117314102D01*
X188904181Y-117314103D01*
X188580783Y-117427264D01*
X188272092Y-117575922D01*
X187981983Y-117758210D01*
X187714107Y-117971833D01*
X187471833Y-118214107D01*
X187258210Y-118481983D01*
X187075922Y-118772092D01*
X186927264Y-119080783D01*
X186814103Y-119404181D01*
X186814102Y-119404183D01*
X186737861Y-119738217D01*
X186737858Y-119738231D01*
X186699500Y-120078681D01*
X162300499Y-120078681D01*
X162287713Y-119965197D01*
X162262141Y-119738231D01*
X162262140Y-119738226D01*
X162262139Y-119738217D01*
X162185897Y-119404183D01*
X162072736Y-119080785D01*
X162072546Y-119080391D01*
X162069082Y-119073196D01*
X162069081Y-119073195D01*
X162047087Y-119027525D01*
X182599500Y-119027525D01*
X182599500Y-119172475D01*
X182637016Y-119312485D01*
X182637017Y-119312488D01*
X182709488Y-119438011D01*
X182709490Y-119438013D01*
X182709491Y-119438015D01*
X182811985Y-119540509D01*
X182811986Y-119540510D01*
X182811988Y-119540511D01*
X182937511Y-119612982D01*
X182937512Y-119612982D01*
X182937515Y-119612984D01*
X183077525Y-119650500D01*
X183077528Y-119650500D01*
X183222472Y-119650500D01*
X183222475Y-119650500D01*
X183362485Y-119612984D01*
X183488015Y-119540509D01*
X183590509Y-119438015D01*
X183662984Y-119312485D01*
X183700500Y-119172475D01*
X183700500Y-119027525D01*
X183662984Y-118887515D01*
X183596344Y-118772092D01*
X183590511Y-118761988D01*
X183590506Y-118761982D01*
X183488017Y-118659493D01*
X183488011Y-118659488D01*
X183362488Y-118587017D01*
X183362489Y-118587017D01*
X183351006Y-118583940D01*
X183222475Y-118549500D01*
X183077525Y-118549500D01*
X182948993Y-118583940D01*
X182937511Y-118587017D01*
X182811988Y-118659488D01*
X182811982Y-118659493D01*
X182709493Y-118761982D01*
X182709488Y-118761988D01*
X182637017Y-118887511D01*
X182637016Y-118887515D01*
X182599500Y-119027525D01*
X162047087Y-119027525D01*
X161924077Y-118772092D01*
X161917728Y-118761988D01*
X161741789Y-118481982D01*
X161528166Y-118214107D01*
X161505493Y-118191434D01*
X173963409Y-118191434D01*
X173963409Y-118336384D01*
X174000925Y-118476394D01*
X174000926Y-118476397D01*
X174073397Y-118601920D01*
X174073399Y-118601922D01*
X174073400Y-118601924D01*
X174175894Y-118704418D01*
X174175895Y-118704419D01*
X174175897Y-118704420D01*
X174301420Y-118776891D01*
X174301421Y-118776891D01*
X174301424Y-118776893D01*
X174441434Y-118814409D01*
X174441437Y-118814409D01*
X174586381Y-118814409D01*
X174586384Y-118814409D01*
X174726394Y-118776893D01*
X174851924Y-118704418D01*
X174954418Y-118601924D01*
X175026893Y-118476394D01*
X175064409Y-118336384D01*
X175064409Y-118191434D01*
X175026893Y-118051424D01*
X175007019Y-118017002D01*
X174954420Y-117925897D01*
X174954415Y-117925891D01*
X174851926Y-117823402D01*
X174851920Y-117823397D01*
X174726397Y-117750926D01*
X174726398Y-117750926D01*
X174694754Y-117742447D01*
X174586384Y-117713409D01*
X174441434Y-117713409D01*
X174333064Y-117742447D01*
X174301420Y-117750926D01*
X174175897Y-117823397D01*
X174175891Y-117823402D01*
X174073402Y-117925891D01*
X174073397Y-117925897D01*
X174000926Y-118051420D01*
X174000925Y-118051424D01*
X173963409Y-118191434D01*
X161505493Y-118191434D01*
X161285893Y-117971834D01*
X161018018Y-117758211D01*
X160786101Y-117612488D01*
X160727907Y-117575922D01*
X160638369Y-117532803D01*
X160423257Y-117429210D01*
X167399610Y-117429210D01*
X167399610Y-117574160D01*
X167416182Y-117636006D01*
X167437127Y-117714173D01*
X167509598Y-117839696D01*
X167509600Y-117839698D01*
X167509601Y-117839700D01*
X167612095Y-117942194D01*
X167612096Y-117942195D01*
X167612098Y-117942196D01*
X167737621Y-118014667D01*
X167737622Y-118014667D01*
X167737625Y-118014669D01*
X167877635Y-118052185D01*
X167877638Y-118052185D01*
X168022582Y-118052185D01*
X168022585Y-118052185D01*
X168162595Y-118014669D01*
X168288125Y-117942194D01*
X168390619Y-117839700D01*
X168463094Y-117714170D01*
X168500610Y-117574160D01*
X168500610Y-117429210D01*
X168473363Y-117327525D01*
X181399500Y-117327525D01*
X181399500Y-117472475D01*
X181437016Y-117612485D01*
X181437017Y-117612488D01*
X181509488Y-117738011D01*
X181509490Y-117738013D01*
X181509491Y-117738015D01*
X181611985Y-117840509D01*
X181611986Y-117840510D01*
X181611988Y-117840511D01*
X181737511Y-117912982D01*
X181737512Y-117912982D01*
X181737515Y-117912984D01*
X181877525Y-117950500D01*
X181877528Y-117950500D01*
X182022472Y-117950500D01*
X182022475Y-117950500D01*
X182162485Y-117912984D01*
X182288015Y-117840509D01*
X182390509Y-117738015D01*
X182462984Y-117612485D01*
X182500500Y-117472475D01*
X182500500Y-117327525D01*
X182462984Y-117187515D01*
X182449215Y-117163667D01*
X182390511Y-117061988D01*
X182390506Y-117061982D01*
X182288017Y-116959493D01*
X182288011Y-116959488D01*
X182162488Y-116887017D01*
X182162489Y-116887017D01*
X182151006Y-116883940D01*
X182022475Y-116849500D01*
X181877525Y-116849500D01*
X181748993Y-116883940D01*
X181737511Y-116887017D01*
X181611988Y-116959488D01*
X181611982Y-116959493D01*
X181509493Y-117061982D01*
X181509488Y-117061988D01*
X181437017Y-117187511D01*
X181437016Y-117187515D01*
X181399500Y-117327525D01*
X168473363Y-117327525D01*
X168463094Y-117289200D01*
X168433453Y-117237861D01*
X168390621Y-117163673D01*
X168390616Y-117163667D01*
X168288127Y-117061178D01*
X168288121Y-117061173D01*
X168162598Y-116988702D01*
X168162599Y-116988702D01*
X168151116Y-116985625D01*
X168022585Y-116951185D01*
X167877635Y-116951185D01*
X167749103Y-116985625D01*
X167737621Y-116988702D01*
X167612098Y-117061173D01*
X167612092Y-117061178D01*
X167509603Y-117163667D01*
X167509598Y-117163673D01*
X167437127Y-117289196D01*
X167437126Y-117289200D01*
X167399610Y-117429210D01*
X160423257Y-117429210D01*
X160419216Y-117427264D01*
X160095818Y-117314103D01*
X160095816Y-117314102D01*
X159837473Y-117255137D01*
X159761783Y-117237861D01*
X159761780Y-117237860D01*
X159761768Y-117237858D01*
X159421318Y-117199500D01*
X159421312Y-117199500D01*
X159078688Y-117199500D01*
X159078681Y-117199500D01*
X158738231Y-117237858D01*
X158738217Y-117237861D01*
X158404183Y-117314102D01*
X158404181Y-117314103D01*
X158080783Y-117427264D01*
X157772092Y-117575922D01*
X157481983Y-117758210D01*
X157214107Y-117971833D01*
X156971833Y-118214107D01*
X156758210Y-118481983D01*
X156575922Y-118772092D01*
X156427264Y-119080783D01*
X156314103Y-119404181D01*
X156314102Y-119404183D01*
X156237861Y-119738217D01*
X156237858Y-119738231D01*
X156199500Y-120078681D01*
X150000500Y-120078681D01*
X150000500Y-119218411D01*
X150020185Y-119151372D01*
X150072989Y-119105617D01*
X150142147Y-119095673D01*
X150205703Y-119124698D01*
X150234985Y-119162116D01*
X150266006Y-119222997D01*
X150372441Y-119369494D01*
X150372445Y-119369499D01*
X150500500Y-119497554D01*
X150500505Y-119497558D01*
X150628287Y-119590396D01*
X150647006Y-119603996D01*
X150738275Y-119650500D01*
X150808360Y-119686211D01*
X150808363Y-119686212D01*
X150894476Y-119714191D01*
X150980591Y-119742171D01*
X151063429Y-119755291D01*
X151159449Y-119770500D01*
X151159454Y-119770500D01*
X151340551Y-119770500D01*
X151427259Y-119756765D01*
X151519409Y-119742171D01*
X151691639Y-119686211D01*
X151852994Y-119603996D01*
X151999501Y-119497553D01*
X152127553Y-119369501D01*
X152233996Y-119222994D01*
X152316211Y-119061639D01*
X152372171Y-118889409D01*
X152390752Y-118772092D01*
X152400500Y-118710551D01*
X152400500Y-118529448D01*
X152384019Y-118425397D01*
X152372171Y-118350591D01*
X152342938Y-118260620D01*
X152316212Y-118178363D01*
X152316211Y-118178360D01*
X152265015Y-118077884D01*
X152233996Y-118017006D01*
X152167800Y-117925894D01*
X152127558Y-117870505D01*
X152127554Y-117870500D01*
X151999499Y-117742445D01*
X151999494Y-117742441D01*
X151852997Y-117636006D01*
X151852996Y-117636005D01*
X151852994Y-117636004D01*
X151801300Y-117609664D01*
X151691639Y-117553788D01*
X151691636Y-117553787D01*
X151519410Y-117497829D01*
X151359321Y-117472473D01*
X151296186Y-117442544D01*
X151259255Y-117383232D01*
X151260253Y-117313370D01*
X151298863Y-117255137D01*
X151359321Y-117227527D01*
X151429425Y-117216422D01*
X151519409Y-117202171D01*
X151691639Y-117146211D01*
X151852994Y-117063996D01*
X151999501Y-116957553D01*
X152127553Y-116829501D01*
X152233996Y-116682994D01*
X152316211Y-116521639D01*
X152372171Y-116349409D01*
X152397338Y-116190511D01*
X152400500Y-116170551D01*
X152400500Y-115989448D01*
X152374053Y-115822475D01*
X152372171Y-115810591D01*
X152316211Y-115638361D01*
X152316211Y-115638360D01*
X152277294Y-115561982D01*
X152233996Y-115477006D01*
X152168615Y-115387016D01*
X152127558Y-115330505D01*
X152127554Y-115330500D01*
X151999499Y-115202445D01*
X151999494Y-115202441D01*
X151885632Y-115119716D01*
X151852997Y-115096006D01*
X151852996Y-115096005D01*
X151852994Y-115096004D01*
X151801300Y-115069664D01*
X151718599Y-115027525D01*
X158199500Y-115027525D01*
X158199500Y-115172475D01*
X158236213Y-115309488D01*
X158237017Y-115312488D01*
X158309488Y-115438011D01*
X158309490Y-115438013D01*
X158309491Y-115438015D01*
X158411985Y-115540509D01*
X158411986Y-115540510D01*
X158411988Y-115540511D01*
X158537511Y-115612982D01*
X158537512Y-115612982D01*
X158537515Y-115612984D01*
X158677525Y-115650500D01*
X158677528Y-115650500D01*
X158822472Y-115650500D01*
X158822475Y-115650500D01*
X158962485Y-115612984D01*
X159088015Y-115540509D01*
X159190509Y-115438015D01*
X159262984Y-115312485D01*
X159285749Y-115227525D01*
X169999500Y-115227525D01*
X169999500Y-115372475D01*
X170028737Y-115481588D01*
X170037017Y-115512488D01*
X170109488Y-115638011D01*
X170109490Y-115638013D01*
X170109491Y-115638015D01*
X170211985Y-115740509D01*
X170211986Y-115740510D01*
X170211988Y-115740511D01*
X170337511Y-115812982D01*
X170337512Y-115812982D01*
X170337515Y-115812984D01*
X170477525Y-115850500D01*
X170477528Y-115850500D01*
X170622472Y-115850500D01*
X170622475Y-115850500D01*
X170762485Y-115812984D01*
X170888015Y-115740509D01*
X170950999Y-115677525D01*
X180449500Y-115677525D01*
X180449500Y-115822475D01*
X180479865Y-115935796D01*
X180487017Y-115962488D01*
X180559488Y-116088011D01*
X180559490Y-116088013D01*
X180559491Y-116088015D01*
X180661985Y-116190509D01*
X180661986Y-116190510D01*
X180661988Y-116190511D01*
X180787511Y-116262982D01*
X180787512Y-116262982D01*
X180787515Y-116262984D01*
X180927525Y-116300500D01*
X180927528Y-116300500D01*
X181072472Y-116300500D01*
X181072475Y-116300500D01*
X181212485Y-116262984D01*
X181338015Y-116190509D01*
X181440509Y-116088015D01*
X181512984Y-115962485D01*
X181549147Y-115827525D01*
X183599500Y-115827525D01*
X183599500Y-115972475D01*
X183630460Y-116088017D01*
X183637017Y-116112488D01*
X183709488Y-116238011D01*
X183709490Y-116238013D01*
X183709491Y-116238015D01*
X183811985Y-116340509D01*
X183811986Y-116340510D01*
X183811988Y-116340511D01*
X183937511Y-116412982D01*
X183937512Y-116412982D01*
X183937515Y-116412984D01*
X184077525Y-116450500D01*
X184077528Y-116450500D01*
X184222472Y-116450500D01*
X184222475Y-116450500D01*
X184362485Y-116412984D01*
X184488015Y-116340509D01*
X184590509Y-116238015D01*
X184662984Y-116112485D01*
X184700500Y-115972475D01*
X184700500Y-115827525D01*
X184662984Y-115687515D01*
X184595136Y-115570000D01*
X190962638Y-115570000D01*
X191765512Y-115570000D01*
X191748295Y-115579940D01*
X191692440Y-115635795D01*
X191652944Y-115704204D01*
X191632500Y-115780504D01*
X191632500Y-115859496D01*
X191652944Y-115935796D01*
X191692440Y-116004205D01*
X191748295Y-116060060D01*
X191765512Y-116070000D01*
X190962638Y-116070000D01*
X190970930Y-116111690D01*
X190970930Y-116111692D01*
X191046307Y-116293671D01*
X191046314Y-116293684D01*
X191155748Y-116457462D01*
X191155751Y-116457466D01*
X191295033Y-116596748D01*
X191295037Y-116596751D01*
X191458815Y-116706185D01*
X191458828Y-116706192D01*
X191640806Y-116781569D01*
X191640818Y-116781572D01*
X191834004Y-116819999D01*
X191834008Y-116820000D01*
X192232500Y-116820000D01*
X192232500Y-116120000D01*
X192732500Y-116120000D01*
X192732500Y-116820000D01*
X193130992Y-116820000D01*
X193130995Y-116819999D01*
X193324181Y-116781572D01*
X193324193Y-116781569D01*
X193506171Y-116706192D01*
X193506184Y-116706185D01*
X193669962Y-116596751D01*
X193669966Y-116596748D01*
X193809248Y-116457466D01*
X193809251Y-116457462D01*
X193918685Y-116293684D01*
X193918692Y-116293671D01*
X193994069Y-116111692D01*
X193994069Y-116111690D01*
X194002362Y-116070000D01*
X193199488Y-116070000D01*
X193216705Y-116060060D01*
X193272560Y-116004205D01*
X193312056Y-115935796D01*
X193332500Y-115859496D01*
X193332500Y-115780504D01*
X193312056Y-115704204D01*
X193272560Y-115635795D01*
X193216705Y-115579940D01*
X193199488Y-115570000D01*
X194002362Y-115570000D01*
X195292638Y-115570000D01*
X196095512Y-115570000D01*
X196078295Y-115579940D01*
X196022440Y-115635795D01*
X195982944Y-115704204D01*
X195962500Y-115780504D01*
X195962500Y-115859496D01*
X195982944Y-115935796D01*
X196022440Y-116004205D01*
X196078295Y-116060060D01*
X196095512Y-116070000D01*
X195292638Y-116070000D01*
X195300930Y-116111690D01*
X195300930Y-116111692D01*
X195376307Y-116293671D01*
X195376314Y-116293684D01*
X195485748Y-116457462D01*
X195485751Y-116457466D01*
X195625033Y-116596748D01*
X195625037Y-116596751D01*
X195788815Y-116706185D01*
X195788828Y-116706192D01*
X195970806Y-116781569D01*
X195970818Y-116781572D01*
X196164004Y-116819999D01*
X196164008Y-116820000D01*
X196412500Y-116820000D01*
X196412500Y-116120000D01*
X196912500Y-116120000D01*
X196912500Y-116820000D01*
X197160992Y-116820000D01*
X197160995Y-116819999D01*
X197354181Y-116781572D01*
X197354193Y-116781569D01*
X197536171Y-116706192D01*
X197536184Y-116706185D01*
X197699962Y-116596751D01*
X197699966Y-116596748D01*
X197839248Y-116457466D01*
X197839251Y-116457462D01*
X197948685Y-116293684D01*
X197948692Y-116293671D01*
X198024069Y-116111692D01*
X198024069Y-116111690D01*
X198032362Y-116070000D01*
X197229488Y-116070000D01*
X197246705Y-116060060D01*
X197302560Y-116004205D01*
X197342056Y-115935796D01*
X197362500Y-115859496D01*
X197362500Y-115780504D01*
X197342056Y-115704204D01*
X197302560Y-115635795D01*
X197246705Y-115579940D01*
X197229488Y-115570000D01*
X198032362Y-115570000D01*
X198024069Y-115528309D01*
X198024069Y-115528307D01*
X197948692Y-115346328D01*
X197948685Y-115346315D01*
X197839251Y-115182537D01*
X197839248Y-115182533D01*
X197699966Y-115043251D01*
X197699962Y-115043248D01*
X197536184Y-114933814D01*
X197536171Y-114933807D01*
X197354193Y-114858430D01*
X197354181Y-114858427D01*
X197160995Y-114820000D01*
X196912500Y-114820000D01*
X196912500Y-115520000D01*
X196412500Y-115520000D01*
X196412500Y-114820000D01*
X196164004Y-114820000D01*
X195970818Y-114858427D01*
X195970806Y-114858430D01*
X195788828Y-114933807D01*
X195788815Y-114933814D01*
X195625037Y-115043248D01*
X195625033Y-115043251D01*
X195485751Y-115182533D01*
X195485748Y-115182537D01*
X195376314Y-115346315D01*
X195376307Y-115346328D01*
X195300930Y-115528307D01*
X195300930Y-115528309D01*
X195292638Y-115570000D01*
X194002362Y-115570000D01*
X193994069Y-115528309D01*
X193994069Y-115528307D01*
X193918692Y-115346328D01*
X193918685Y-115346315D01*
X193809251Y-115182537D01*
X193809248Y-115182533D01*
X193669966Y-115043251D01*
X193669962Y-115043248D01*
X193506184Y-114933814D01*
X193506174Y-114933809D01*
X193496657Y-114929867D01*
X193442254Y-114886026D01*
X193420189Y-114819731D01*
X193437469Y-114752032D01*
X193441148Y-114746597D01*
X193443012Y-114743367D01*
X193443015Y-114743365D01*
X193518781Y-114612135D01*
X193558000Y-114465766D01*
X193558000Y-114314234D01*
X193518781Y-114167865D01*
X193515384Y-114161982D01*
X193479124Y-114099178D01*
X193443015Y-114036635D01*
X193335865Y-113929485D01*
X193270250Y-113891602D01*
X193204636Y-113853719D01*
X193131450Y-113834109D01*
X193058266Y-113814500D01*
X192906734Y-113814500D01*
X192760363Y-113853719D01*
X192629135Y-113929485D01*
X192629132Y-113929487D01*
X192521987Y-114036632D01*
X192521985Y-114036635D01*
X192446219Y-114167863D01*
X192407000Y-114314234D01*
X192407000Y-114465765D01*
X192446219Y-114612136D01*
X192461160Y-114638014D01*
X192521985Y-114743365D01*
X192629135Y-114850515D01*
X192667171Y-114872475D01*
X192670500Y-114874397D01*
X192718716Y-114924964D01*
X192732500Y-114981784D01*
X192732500Y-115520000D01*
X192232500Y-115520000D01*
X192232500Y-114820000D01*
X191834004Y-114820000D01*
X191640818Y-114858427D01*
X191640806Y-114858430D01*
X191458828Y-114933807D01*
X191458815Y-114933814D01*
X191295037Y-115043248D01*
X191295033Y-115043251D01*
X191155751Y-115182533D01*
X191155748Y-115182537D01*
X191046314Y-115346315D01*
X191046307Y-115346328D01*
X190970930Y-115528307D01*
X190970930Y-115528309D01*
X190962638Y-115570000D01*
X184595136Y-115570000D01*
X184590509Y-115561985D01*
X184488015Y-115459491D01*
X184488013Y-115459490D01*
X184488011Y-115459488D01*
X184362488Y-115387017D01*
X184362489Y-115387017D01*
X184351006Y-115383940D01*
X184222475Y-115349500D01*
X184077525Y-115349500D01*
X183948993Y-115383940D01*
X183937511Y-115387017D01*
X183811988Y-115459488D01*
X183811982Y-115459493D01*
X183709493Y-115561982D01*
X183709488Y-115561988D01*
X183637017Y-115687511D01*
X183637016Y-115687515D01*
X183599500Y-115827525D01*
X181549147Y-115827525D01*
X181550500Y-115822475D01*
X181550500Y-115677525D01*
X181512984Y-115537515D01*
X181480694Y-115481588D01*
X181440511Y-115411988D01*
X181440506Y-115411982D01*
X181338017Y-115309493D01*
X181338011Y-115309488D01*
X181212488Y-115237017D01*
X181212489Y-115237017D01*
X181201006Y-115233940D01*
X181072475Y-115199500D01*
X180927525Y-115199500D01*
X180798993Y-115233940D01*
X180787511Y-115237017D01*
X180661988Y-115309488D01*
X180661982Y-115309493D01*
X180559493Y-115411982D01*
X180559488Y-115411988D01*
X180487017Y-115537511D01*
X180486214Y-115540509D01*
X180449500Y-115677525D01*
X170950999Y-115677525D01*
X170990509Y-115638015D01*
X171062984Y-115512485D01*
X171100500Y-115372475D01*
X171100500Y-115227525D01*
X171062984Y-115087515D01*
X171041613Y-115050500D01*
X170990511Y-114961988D01*
X170990506Y-114961982D01*
X170888017Y-114859493D01*
X170888011Y-114859488D01*
X170762488Y-114787017D01*
X170762489Y-114787017D01*
X170724239Y-114776768D01*
X170622475Y-114749500D01*
X170477525Y-114749500D01*
X170375761Y-114776768D01*
X170337511Y-114787017D01*
X170211988Y-114859488D01*
X170211982Y-114859493D01*
X170109493Y-114961982D01*
X170109488Y-114961988D01*
X170037017Y-115087511D01*
X170037016Y-115087515D01*
X169999500Y-115227525D01*
X159285749Y-115227525D01*
X159300500Y-115172475D01*
X159300500Y-115027525D01*
X159262984Y-114887515D01*
X159262124Y-114886026D01*
X159190511Y-114761988D01*
X159190506Y-114761982D01*
X159088017Y-114659493D01*
X159088011Y-114659488D01*
X158962488Y-114587017D01*
X158962489Y-114587017D01*
X158951006Y-114583940D01*
X158822475Y-114549500D01*
X158677525Y-114549500D01*
X158548993Y-114583940D01*
X158537511Y-114587017D01*
X158411988Y-114659488D01*
X158411982Y-114659493D01*
X158309493Y-114761982D01*
X158309488Y-114761988D01*
X158237017Y-114887511D01*
X158237016Y-114887515D01*
X158199500Y-115027525D01*
X151718599Y-115027525D01*
X151691639Y-115013788D01*
X151691636Y-115013787D01*
X151519410Y-114957829D01*
X151359321Y-114932473D01*
X151296186Y-114902544D01*
X151259255Y-114843232D01*
X151260253Y-114773370D01*
X151298863Y-114715137D01*
X151359321Y-114687527D01*
X151429425Y-114676422D01*
X151519409Y-114662171D01*
X151691639Y-114606211D01*
X151852994Y-114523996D01*
X151985776Y-114427525D01*
X166199500Y-114427525D01*
X166199500Y-114572475D01*
X166231125Y-114690500D01*
X166237017Y-114712488D01*
X166309488Y-114838011D01*
X166309490Y-114838013D01*
X166309491Y-114838015D01*
X166411985Y-114940509D01*
X166411986Y-114940510D01*
X166411988Y-114940511D01*
X166537511Y-115012982D01*
X166537512Y-115012982D01*
X166537515Y-115012984D01*
X166677525Y-115050500D01*
X166677528Y-115050500D01*
X166822472Y-115050500D01*
X166822475Y-115050500D01*
X166962485Y-115012984D01*
X167088015Y-114940509D01*
X167190509Y-114838015D01*
X167262984Y-114712485D01*
X167300500Y-114572475D01*
X167300500Y-114427525D01*
X167262984Y-114287515D01*
X167262982Y-114287511D01*
X167259454Y-114281400D01*
X167259453Y-114281399D01*
X167241036Y-114249500D01*
X167228349Y-114227525D01*
X173199500Y-114227525D01*
X173199500Y-114372475D01*
X173224498Y-114465766D01*
X173237017Y-114512488D01*
X173309488Y-114638011D01*
X173309490Y-114638013D01*
X173309491Y-114638015D01*
X173411985Y-114740509D01*
X173411986Y-114740510D01*
X173411988Y-114740511D01*
X173537511Y-114812982D01*
X173537512Y-114812982D01*
X173537515Y-114812984D01*
X173677525Y-114850500D01*
X173677528Y-114850500D01*
X173822472Y-114850500D01*
X173822475Y-114850500D01*
X173962485Y-114812984D01*
X174088015Y-114740509D01*
X174100999Y-114727525D01*
X187499500Y-114727525D01*
X187499500Y-114872475D01*
X187528790Y-114981784D01*
X187537017Y-115012488D01*
X187609488Y-115138011D01*
X187609490Y-115138013D01*
X187609491Y-115138015D01*
X187711985Y-115240509D01*
X187711986Y-115240510D01*
X187711988Y-115240511D01*
X187837511Y-115312982D01*
X187837512Y-115312982D01*
X187837515Y-115312984D01*
X187977525Y-115350500D01*
X187977528Y-115350500D01*
X188122472Y-115350500D01*
X188122475Y-115350500D01*
X188262485Y-115312984D01*
X188388015Y-115240509D01*
X188490509Y-115138015D01*
X188562984Y-115012485D01*
X188600500Y-114872475D01*
X188600500Y-114727525D01*
X188562984Y-114587515D01*
X188562696Y-114587017D01*
X188490511Y-114461988D01*
X188490506Y-114461982D01*
X188388017Y-114359493D01*
X188388011Y-114359488D01*
X188262488Y-114287017D01*
X188262489Y-114287017D01*
X188241522Y-114281399D01*
X188122475Y-114249500D01*
X187977525Y-114249500D01*
X187858478Y-114281399D01*
X187837511Y-114287017D01*
X187711988Y-114359488D01*
X187711982Y-114359493D01*
X187609493Y-114461982D01*
X187609488Y-114461988D01*
X187537017Y-114587511D01*
X187537016Y-114587515D01*
X187499500Y-114727525D01*
X174100999Y-114727525D01*
X174190509Y-114638015D01*
X174262984Y-114512485D01*
X174300500Y-114372475D01*
X174300500Y-114227525D01*
X174262984Y-114087515D01*
X174190509Y-113961985D01*
X174156049Y-113927525D01*
X174699500Y-113927525D01*
X174699500Y-114072475D01*
X174725060Y-114167865D01*
X174737017Y-114212488D01*
X174809488Y-114338011D01*
X174809490Y-114338013D01*
X174809491Y-114338015D01*
X174911985Y-114440509D01*
X174911986Y-114440510D01*
X174911988Y-114440511D01*
X175037511Y-114512982D01*
X175037512Y-114512982D01*
X175037515Y-114512984D01*
X175177525Y-114550500D01*
X175177528Y-114550500D01*
X175322472Y-114550500D01*
X175322475Y-114550500D01*
X175462485Y-114512984D01*
X175588015Y-114440509D01*
X175690509Y-114338015D01*
X175762984Y-114212485D01*
X175800500Y-114072475D01*
X175800500Y-113927525D01*
X175762984Y-113787515D01*
X175762696Y-113787017D01*
X175690511Y-113661988D01*
X175690506Y-113661982D01*
X175588017Y-113559493D01*
X175588011Y-113559488D01*
X175462488Y-113487017D01*
X175462489Y-113487017D01*
X175451006Y-113483940D01*
X175322475Y-113449500D01*
X175177525Y-113449500D01*
X175048993Y-113483940D01*
X175037511Y-113487017D01*
X174911988Y-113559488D01*
X174911982Y-113559493D01*
X174809493Y-113661982D01*
X174809488Y-113661988D01*
X174737017Y-113787511D01*
X174737016Y-113787515D01*
X174699500Y-113927525D01*
X174156049Y-113927525D01*
X174088015Y-113859491D01*
X174088013Y-113859490D01*
X174088011Y-113859488D01*
X173962488Y-113787017D01*
X173962489Y-113787017D01*
X173951006Y-113783940D01*
X173822475Y-113749500D01*
X173677525Y-113749500D01*
X173548993Y-113783940D01*
X173537511Y-113787017D01*
X173411988Y-113859488D01*
X173411982Y-113859493D01*
X173309493Y-113961982D01*
X173309488Y-113961988D01*
X173237017Y-114087511D01*
X173237016Y-114087515D01*
X173199500Y-114227525D01*
X167228349Y-114227525D01*
X167190509Y-114161985D01*
X167088015Y-114059491D01*
X167088013Y-114059490D01*
X167088011Y-114059488D01*
X166962488Y-113987017D01*
X166962489Y-113987017D01*
X166941515Y-113981397D01*
X166822475Y-113949500D01*
X166677525Y-113949500D01*
X166558485Y-113981397D01*
X166537511Y-113987017D01*
X166411988Y-114059488D01*
X166411982Y-114059493D01*
X166309493Y-114161982D01*
X166309488Y-114161988D01*
X166237017Y-114287511D01*
X166237016Y-114287515D01*
X166199500Y-114427525D01*
X151985776Y-114427525D01*
X151999501Y-114417553D01*
X152127553Y-114289501D01*
X152233996Y-114142994D01*
X152316211Y-113981639D01*
X152372171Y-113809409D01*
X152386765Y-113717259D01*
X152400500Y-113630551D01*
X152400500Y-113449448D01*
X152383244Y-113340506D01*
X152372171Y-113270591D01*
X152316211Y-113098361D01*
X152316211Y-113098360D01*
X152265015Y-112997884D01*
X152233996Y-112937006D01*
X152220396Y-112918287D01*
X152154454Y-112827525D01*
X176099500Y-112827525D01*
X176099500Y-112972475D01*
X176133232Y-113098363D01*
X176137017Y-113112488D01*
X176209488Y-113238011D01*
X176209490Y-113238013D01*
X176209491Y-113238015D01*
X176311985Y-113340509D01*
X176311986Y-113340510D01*
X176311988Y-113340511D01*
X176437511Y-113412982D01*
X176437512Y-113412982D01*
X176437515Y-113412984D01*
X176577525Y-113450500D01*
X176577528Y-113450500D01*
X176722472Y-113450500D01*
X176722475Y-113450500D01*
X176862485Y-113412984D01*
X176988015Y-113340509D01*
X177090509Y-113238015D01*
X177162984Y-113112485D01*
X177200500Y-112972475D01*
X177200500Y-112827525D01*
X182899500Y-112827525D01*
X182899500Y-112972475D01*
X182933232Y-113098363D01*
X182937017Y-113112488D01*
X183009488Y-113238011D01*
X183009490Y-113238013D01*
X183009491Y-113238015D01*
X183111985Y-113340509D01*
X183111986Y-113340510D01*
X183111988Y-113340511D01*
X183237511Y-113412982D01*
X183237512Y-113412982D01*
X183237515Y-113412984D01*
X183377525Y-113450500D01*
X183377528Y-113450500D01*
X183522472Y-113450500D01*
X183522475Y-113450500D01*
X183662485Y-113412984D01*
X183788015Y-113340509D01*
X183890509Y-113238015D01*
X183962984Y-113112485D01*
X184000500Y-112972475D01*
X184000500Y-112827525D01*
X183962984Y-112687515D01*
X183948507Y-112662441D01*
X183890511Y-112561988D01*
X183890506Y-112561982D01*
X183788017Y-112459493D01*
X183788011Y-112459488D01*
X183662488Y-112387017D01*
X183662489Y-112387017D01*
X183651006Y-112383940D01*
X183522475Y-112349500D01*
X183377525Y-112349500D01*
X183248993Y-112383940D01*
X183237511Y-112387017D01*
X183111988Y-112459488D01*
X183111982Y-112459493D01*
X183009493Y-112561982D01*
X183009488Y-112561988D01*
X182937017Y-112687511D01*
X182936214Y-112690508D01*
X182899500Y-112827525D01*
X177200500Y-112827525D01*
X177162984Y-112687515D01*
X177148507Y-112662441D01*
X177090511Y-112561988D01*
X177090506Y-112561982D01*
X176988017Y-112459493D01*
X176988011Y-112459488D01*
X176862488Y-112387017D01*
X176862489Y-112387017D01*
X176851006Y-112383940D01*
X176722475Y-112349500D01*
X176577525Y-112349500D01*
X176448993Y-112383940D01*
X176437511Y-112387017D01*
X176311988Y-112459488D01*
X176311982Y-112459493D01*
X176209493Y-112561982D01*
X176209488Y-112561988D01*
X176137017Y-112687511D01*
X176136214Y-112690508D01*
X176099500Y-112827525D01*
X152154454Y-112827525D01*
X152127558Y-112790505D01*
X152127554Y-112790500D01*
X151999495Y-112662441D01*
X151878202Y-112574318D01*
X151835536Y-112518989D01*
X151829557Y-112449375D01*
X151862162Y-112387580D01*
X151923001Y-112353223D01*
X151951087Y-112350000D01*
X152147828Y-112350000D01*
X152147844Y-112349999D01*
X152207372Y-112343598D01*
X152207379Y-112343596D01*
X152342086Y-112293354D01*
X152342093Y-112293350D01*
X152457187Y-112207190D01*
X152479395Y-112177525D01*
X165199500Y-112177525D01*
X165199500Y-112322475D01*
X165226299Y-112422489D01*
X165237017Y-112462488D01*
X165309488Y-112588011D01*
X165309490Y-112588013D01*
X165309491Y-112588015D01*
X165411985Y-112690509D01*
X165411986Y-112690510D01*
X165411988Y-112690511D01*
X165537511Y-112762982D01*
X165537512Y-112762982D01*
X165537515Y-112762984D01*
X165677525Y-112800500D01*
X165677528Y-112800500D01*
X165822472Y-112800500D01*
X165822475Y-112800500D01*
X165962485Y-112762984D01*
X166088015Y-112690509D01*
X166190509Y-112588015D01*
X166262984Y-112462485D01*
X166300500Y-112322475D01*
X166300500Y-112177525D01*
X166262984Y-112037515D01*
X166216717Y-111957379D01*
X166190511Y-111911988D01*
X166190506Y-111911982D01*
X166088017Y-111809493D01*
X166088011Y-111809488D01*
X165962488Y-111737017D01*
X165962489Y-111737017D01*
X165951006Y-111733940D01*
X165822475Y-111699500D01*
X165677525Y-111699500D01*
X165548993Y-111733940D01*
X165537511Y-111737017D01*
X165411988Y-111809488D01*
X165411982Y-111809493D01*
X165309493Y-111911982D01*
X165309488Y-111911988D01*
X165237017Y-112037511D01*
X165237016Y-112037515D01*
X165199500Y-112177525D01*
X152479395Y-112177525D01*
X152541110Y-112095086D01*
X152541110Y-112095085D01*
X152543350Y-112092092D01*
X152543354Y-112092086D01*
X152593596Y-111957379D01*
X152593598Y-111957372D01*
X152599999Y-111897844D01*
X152600000Y-111897827D01*
X152600000Y-111250000D01*
X151683012Y-111250000D01*
X151715925Y-111192993D01*
X151750000Y-111065826D01*
X151750000Y-110934174D01*
X151748218Y-110927525D01*
X169699500Y-110927525D01*
X169699500Y-111072475D01*
X169727645Y-111177511D01*
X169737017Y-111212488D01*
X169809488Y-111338011D01*
X169809490Y-111338013D01*
X169809491Y-111338015D01*
X169911985Y-111440509D01*
X169911986Y-111440510D01*
X169911988Y-111440511D01*
X170037511Y-111512982D01*
X170037512Y-111512982D01*
X170037515Y-111512984D01*
X170177525Y-111550500D01*
X170177528Y-111550500D01*
X170322472Y-111550500D01*
X170322475Y-111550500D01*
X170462485Y-111512984D01*
X170588015Y-111440509D01*
X170690509Y-111338015D01*
X170762984Y-111212485D01*
X170800500Y-111072475D01*
X170800500Y-110927525D01*
X170762984Y-110787515D01*
X170706977Y-110690509D01*
X170690511Y-110661988D01*
X170690506Y-110661982D01*
X170588017Y-110559493D01*
X170588011Y-110559488D01*
X170462488Y-110487017D01*
X170462489Y-110487017D01*
X170451006Y-110483940D01*
X170322475Y-110449500D01*
X170177525Y-110449500D01*
X170048993Y-110483940D01*
X170037511Y-110487017D01*
X169911988Y-110559488D01*
X169911982Y-110559493D01*
X169809493Y-110661982D01*
X169809488Y-110661988D01*
X169737017Y-110787511D01*
X169737016Y-110787515D01*
X169699500Y-110927525D01*
X151748218Y-110927525D01*
X151715925Y-110807007D01*
X151683012Y-110750000D01*
X152600000Y-110750000D01*
X152600000Y-110102172D01*
X152599999Y-110102155D01*
X152593598Y-110042627D01*
X152593596Y-110042620D01*
X152543354Y-109907913D01*
X152543350Y-109907906D01*
X152457190Y-109792812D01*
X152457187Y-109792809D01*
X152342093Y-109706649D01*
X152342086Y-109706645D01*
X152207379Y-109656403D01*
X152207372Y-109656401D01*
X152147844Y-109650000D01*
X151500000Y-109650000D01*
X151500000Y-110566988D01*
X151442993Y-110534075D01*
X151315826Y-110500000D01*
X151184174Y-110500000D01*
X151057007Y-110534075D01*
X151000000Y-110566988D01*
X151000000Y-109650000D01*
X150352155Y-109650000D01*
X150292627Y-109656401D01*
X150292617Y-109656403D01*
X150167832Y-109702945D01*
X150137225Y-109705133D01*
X150106853Y-109709501D01*
X150102697Y-109707603D01*
X150098141Y-109707929D01*
X150071213Y-109693225D01*
X150043297Y-109680476D01*
X150040826Y-109676631D01*
X150036818Y-109674443D01*
X150022115Y-109647516D01*
X150005523Y-109621698D01*
X150004631Y-109615495D01*
X150003334Y-109613120D01*
X150000500Y-109586763D01*
X150000500Y-109427525D01*
X154199500Y-109427525D01*
X154199500Y-109572475D01*
X154237016Y-109712485D01*
X154237017Y-109712488D01*
X154309488Y-109838011D01*
X154309490Y-109838013D01*
X154309491Y-109838015D01*
X154411985Y-109940509D01*
X154411986Y-109940510D01*
X154411988Y-109940511D01*
X154537511Y-110012982D01*
X154537512Y-110012982D01*
X154537515Y-110012984D01*
X154677525Y-110050500D01*
X154677528Y-110050500D01*
X154822472Y-110050500D01*
X154822475Y-110050500D01*
X154962485Y-110012984D01*
X155088015Y-109940509D01*
X155190509Y-109838015D01*
X155262984Y-109712485D01*
X155300500Y-109572475D01*
X155300500Y-109427525D01*
X161699500Y-109427525D01*
X161699500Y-109572475D01*
X161737016Y-109712485D01*
X161737017Y-109712488D01*
X161809488Y-109838011D01*
X161809490Y-109838013D01*
X161809491Y-109838015D01*
X161911985Y-109940509D01*
X161911986Y-109940510D01*
X161911988Y-109940511D01*
X162037511Y-110012982D01*
X162037512Y-110012982D01*
X162037515Y-110012984D01*
X162177525Y-110050500D01*
X162177528Y-110050500D01*
X162322472Y-110050500D01*
X162322475Y-110050500D01*
X162462485Y-110012984D01*
X162588015Y-109940509D01*
X162600999Y-109927525D01*
X173599500Y-109927525D01*
X173599500Y-110072475D01*
X173627649Y-110177527D01*
X173637017Y-110212488D01*
X173709488Y-110338011D01*
X173709490Y-110338013D01*
X173709491Y-110338015D01*
X173811985Y-110440509D01*
X173811986Y-110440510D01*
X173811988Y-110440511D01*
X173937511Y-110512982D01*
X173937512Y-110512982D01*
X173937515Y-110512984D01*
X174077525Y-110550500D01*
X174077528Y-110550500D01*
X174222472Y-110550500D01*
X174222475Y-110550500D01*
X174362485Y-110512984D01*
X174488015Y-110440509D01*
X174590509Y-110338015D01*
X174662984Y-110212485D01*
X174672352Y-110177525D01*
X181199500Y-110177525D01*
X181199500Y-110322475D01*
X181231128Y-110440511D01*
X181237017Y-110462488D01*
X181309488Y-110588011D01*
X181309490Y-110588013D01*
X181309491Y-110588015D01*
X181411985Y-110690509D01*
X181411986Y-110690510D01*
X181411988Y-110690511D01*
X181537511Y-110762982D01*
X181537512Y-110762982D01*
X181537515Y-110762984D01*
X181677525Y-110800500D01*
X181677528Y-110800500D01*
X181822472Y-110800500D01*
X181822475Y-110800500D01*
X181962485Y-110762984D01*
X182023902Y-110727525D01*
X183499500Y-110727525D01*
X183499500Y-110872475D01*
X183528396Y-110980315D01*
X183537017Y-111012488D01*
X183609488Y-111138011D01*
X183609490Y-111138013D01*
X183609491Y-111138015D01*
X183711985Y-111240509D01*
X183711986Y-111240510D01*
X183711988Y-111240511D01*
X183837511Y-111312982D01*
X183837512Y-111312982D01*
X183837515Y-111312984D01*
X183977525Y-111350500D01*
X183977528Y-111350500D01*
X184122472Y-111350500D01*
X184122475Y-111350500D01*
X184262485Y-111312984D01*
X184388015Y-111240509D01*
X184490509Y-111138015D01*
X184562984Y-111012485D01*
X184600500Y-110872475D01*
X184600500Y-110727525D01*
X184562984Y-110587515D01*
X184546805Y-110559493D01*
X184490511Y-110461988D01*
X184490506Y-110461982D01*
X184388017Y-110359493D01*
X184388011Y-110359488D01*
X184262488Y-110287017D01*
X184262489Y-110287017D01*
X184251006Y-110283940D01*
X184122475Y-110249500D01*
X183977525Y-110249500D01*
X183848993Y-110283940D01*
X183837511Y-110287017D01*
X183711988Y-110359488D01*
X183711982Y-110359493D01*
X183609493Y-110461982D01*
X183609488Y-110461988D01*
X183537017Y-110587511D01*
X183537016Y-110587515D01*
X183499500Y-110727525D01*
X182023902Y-110727525D01*
X182088015Y-110690509D01*
X182190509Y-110588015D01*
X182262984Y-110462485D01*
X182300500Y-110322475D01*
X182300500Y-110177525D01*
X182262984Y-110037515D01*
X182206977Y-109940509D01*
X182190511Y-109911988D01*
X182190506Y-109911982D01*
X182088017Y-109809493D01*
X182088011Y-109809488D01*
X181962488Y-109737017D01*
X181962489Y-109737017D01*
X181951006Y-109733940D01*
X181822475Y-109699500D01*
X181677525Y-109699500D01*
X181548993Y-109733940D01*
X181537511Y-109737017D01*
X181411988Y-109809488D01*
X181411982Y-109809493D01*
X181309493Y-109911982D01*
X181309488Y-109911988D01*
X181237017Y-110037511D01*
X181237016Y-110037515D01*
X181199500Y-110177525D01*
X174672352Y-110177525D01*
X174700500Y-110072475D01*
X174700500Y-109927525D01*
X174662984Y-109787515D01*
X174633828Y-109737016D01*
X174590511Y-109661988D01*
X174590506Y-109661982D01*
X174488017Y-109559493D01*
X174488011Y-109559488D01*
X174362488Y-109487017D01*
X174362489Y-109487017D01*
X174351006Y-109483940D01*
X174222475Y-109449500D01*
X174077525Y-109449500D01*
X173948993Y-109483940D01*
X173937511Y-109487017D01*
X173811988Y-109559488D01*
X173811982Y-109559493D01*
X173709493Y-109661982D01*
X173709488Y-109661988D01*
X173637017Y-109787511D01*
X173637016Y-109787515D01*
X173599500Y-109927525D01*
X162600999Y-109927525D01*
X162690509Y-109838015D01*
X162762984Y-109712485D01*
X162800500Y-109572475D01*
X162800500Y-109427525D01*
X162762984Y-109287515D01*
X162719665Y-109212485D01*
X162690511Y-109161988D01*
X162690506Y-109161982D01*
X162588017Y-109059493D01*
X162588015Y-109059491D01*
X162462485Y-108987016D01*
X162322475Y-108949500D01*
X162177525Y-108949500D01*
X162048993Y-108983940D01*
X162037511Y-108987017D01*
X161911988Y-109059488D01*
X161911982Y-109059493D01*
X161809493Y-109161982D01*
X161809488Y-109161988D01*
X161737017Y-109287511D01*
X161737016Y-109287515D01*
X161699500Y-109427525D01*
X155300500Y-109427525D01*
X155262984Y-109287515D01*
X155219665Y-109212485D01*
X155190511Y-109161988D01*
X155190506Y-109161982D01*
X155088017Y-109059493D01*
X155088011Y-109059488D01*
X154962488Y-108987017D01*
X154962489Y-108987017D01*
X154951006Y-108983940D01*
X154822475Y-108949500D01*
X154677525Y-108949500D01*
X154548993Y-108983940D01*
X154537511Y-108987017D01*
X154411988Y-109059488D01*
X154411982Y-109059493D01*
X154309493Y-109161982D01*
X154309488Y-109161988D01*
X154237017Y-109287511D01*
X154237016Y-109287515D01*
X154199500Y-109427525D01*
X150000500Y-109427525D01*
X150000500Y-108927525D01*
X186199500Y-108927525D01*
X186199500Y-109072475D01*
X186237016Y-109212485D01*
X186237017Y-109212488D01*
X186309488Y-109338011D01*
X186309490Y-109338013D01*
X186309491Y-109338015D01*
X186411985Y-109440509D01*
X186411986Y-109440510D01*
X186411988Y-109440511D01*
X186537511Y-109512982D01*
X186537512Y-109512982D01*
X186537515Y-109512984D01*
X186677525Y-109550500D01*
X186677528Y-109550500D01*
X186822472Y-109550500D01*
X186822475Y-109550500D01*
X186962485Y-109512984D01*
X187088015Y-109440509D01*
X187190509Y-109338015D01*
X187262984Y-109212485D01*
X187300500Y-109072475D01*
X187300500Y-108927525D01*
X187262984Y-108787515D01*
X187204238Y-108685765D01*
X187190511Y-108661988D01*
X187190506Y-108661982D01*
X187088017Y-108559493D01*
X187088011Y-108559488D01*
X186962488Y-108487017D01*
X186962489Y-108487017D01*
X186951006Y-108483940D01*
X186822475Y-108449500D01*
X186677525Y-108449500D01*
X186548993Y-108483940D01*
X186537511Y-108487017D01*
X186411988Y-108559488D01*
X186411982Y-108559493D01*
X186309493Y-108661982D01*
X186309488Y-108661988D01*
X186237017Y-108787511D01*
X186237016Y-108787515D01*
X186199500Y-108927525D01*
X150000500Y-108927525D01*
X150000500Y-107427525D01*
X176599500Y-107427525D01*
X176599500Y-107572475D01*
X176637016Y-107712485D01*
X176637017Y-107712488D01*
X176709488Y-107838011D01*
X176709490Y-107838013D01*
X176709491Y-107838015D01*
X176811985Y-107940509D01*
X176811986Y-107940510D01*
X176811988Y-107940511D01*
X176937511Y-108012982D01*
X176937512Y-108012982D01*
X176937515Y-108012984D01*
X177077525Y-108050500D01*
X177077528Y-108050500D01*
X177222472Y-108050500D01*
X177222475Y-108050500D01*
X177362485Y-108012984D01*
X177488015Y-107940509D01*
X177590509Y-107838015D01*
X177662984Y-107712485D01*
X177700500Y-107572475D01*
X177700500Y-107427525D01*
X177662984Y-107287515D01*
X177590509Y-107161985D01*
X177488015Y-107059491D01*
X177488013Y-107059490D01*
X177488011Y-107059488D01*
X177362488Y-106987017D01*
X177362489Y-106987017D01*
X177351006Y-106983940D01*
X177222475Y-106949500D01*
X177077525Y-106949500D01*
X176948993Y-106983940D01*
X176937511Y-106987017D01*
X176811988Y-107059488D01*
X176811982Y-107059493D01*
X176709493Y-107161982D01*
X176709488Y-107161988D01*
X176637017Y-107287511D01*
X176637016Y-107287515D01*
X176599500Y-107427525D01*
X150000500Y-107427525D01*
X150000500Y-106127525D01*
X170299500Y-106127525D01*
X170299500Y-106272475D01*
X170334541Y-106403248D01*
X170337017Y-106412488D01*
X170409488Y-106538011D01*
X170409490Y-106538013D01*
X170409491Y-106538015D01*
X170511985Y-106640509D01*
X170511986Y-106640510D01*
X170511988Y-106640511D01*
X170637511Y-106712982D01*
X170637512Y-106712982D01*
X170637515Y-106712984D01*
X170777525Y-106750500D01*
X170777528Y-106750500D01*
X170922472Y-106750500D01*
X170922475Y-106750500D01*
X171062485Y-106712984D01*
X171188015Y-106640509D01*
X171290509Y-106538015D01*
X171362984Y-106412485D01*
X171385749Y-106327525D01*
X189799500Y-106327525D01*
X189799500Y-106472475D01*
X189834399Y-106602719D01*
X189837017Y-106612488D01*
X189909488Y-106738011D01*
X189909490Y-106738013D01*
X189909491Y-106738015D01*
X190011985Y-106840509D01*
X190011986Y-106840510D01*
X190011988Y-106840511D01*
X190137511Y-106912982D01*
X190137512Y-106912982D01*
X190137515Y-106912984D01*
X190277525Y-106950500D01*
X190277528Y-106950500D01*
X190422472Y-106950500D01*
X190422475Y-106950500D01*
X190562485Y-106912984D01*
X190688015Y-106840509D01*
X190764894Y-106763629D01*
X190826213Y-106730147D01*
X190895905Y-106735131D01*
X190951839Y-106777002D01*
X190976256Y-106842466D01*
X190971798Y-106882273D01*
X190972118Y-106882337D01*
X190971370Y-106886095D01*
X190971236Y-106887296D01*
X190970932Y-106888296D01*
X190962638Y-106930000D01*
X191765512Y-106930000D01*
X191748295Y-106939940D01*
X191692440Y-106995795D01*
X191652944Y-107064204D01*
X191632500Y-107140504D01*
X191632500Y-107219496D01*
X191652944Y-107295796D01*
X191692440Y-107364205D01*
X191748295Y-107420060D01*
X191765512Y-107430000D01*
X190962638Y-107430000D01*
X190970930Y-107471690D01*
X190970930Y-107471692D01*
X191046307Y-107653671D01*
X191046314Y-107653684D01*
X191155748Y-107817462D01*
X191155751Y-107817466D01*
X191295033Y-107956748D01*
X191295037Y-107956751D01*
X191458815Y-108066185D01*
X191458828Y-108066192D01*
X191640806Y-108141569D01*
X191640818Y-108141572D01*
X191834004Y-108179999D01*
X191834008Y-108180000D01*
X192232500Y-108180000D01*
X192232500Y-107480000D01*
X192732500Y-107480000D01*
X192732500Y-108018215D01*
X192712815Y-108085254D01*
X192670502Y-108125601D01*
X192629138Y-108149483D01*
X192629132Y-108149487D01*
X192521987Y-108256632D01*
X192521985Y-108256635D01*
X192446219Y-108387863D01*
X192407000Y-108534234D01*
X192407000Y-108685765D01*
X192446219Y-108832136D01*
X192484102Y-108897750D01*
X192521985Y-108963365D01*
X192629135Y-109070515D01*
X192760365Y-109146281D01*
X192906734Y-109185500D01*
X192906736Y-109185500D01*
X193058264Y-109185500D01*
X193058266Y-109185500D01*
X193204635Y-109146281D01*
X193335865Y-109070515D01*
X193443015Y-108963365D01*
X193518781Y-108832135D01*
X193558000Y-108685766D01*
X193558000Y-108534234D01*
X193518781Y-108387865D01*
X193443015Y-108256635D01*
X193443013Y-108256633D01*
X193438951Y-108249597D01*
X193441154Y-108248325D01*
X193420541Y-108195022D01*
X193434573Y-108126576D01*
X193483382Y-108076582D01*
X193496663Y-108070129D01*
X193506182Y-108066186D01*
X193506184Y-108066185D01*
X193669962Y-107956751D01*
X193669966Y-107956748D01*
X193809248Y-107817466D01*
X193809251Y-107817462D01*
X193918685Y-107653684D01*
X193918692Y-107653671D01*
X193994069Y-107471692D01*
X193994069Y-107471690D01*
X194002362Y-107430000D01*
X193199488Y-107430000D01*
X193216705Y-107420060D01*
X193272560Y-107364205D01*
X193312056Y-107295796D01*
X193332500Y-107219496D01*
X193332500Y-107140504D01*
X193312056Y-107064204D01*
X193272560Y-106995795D01*
X193216705Y-106939940D01*
X193199488Y-106930000D01*
X194002362Y-106930000D01*
X195292638Y-106930000D01*
X196095512Y-106930000D01*
X196078295Y-106939940D01*
X196022440Y-106995795D01*
X195982944Y-107064204D01*
X195962500Y-107140504D01*
X195962500Y-107219496D01*
X195982944Y-107295796D01*
X196022440Y-107364205D01*
X196078295Y-107420060D01*
X196095512Y-107430000D01*
X195292638Y-107430000D01*
X195300930Y-107471690D01*
X195300930Y-107471692D01*
X195376307Y-107653671D01*
X195376314Y-107653684D01*
X195485748Y-107817462D01*
X195485751Y-107817466D01*
X195625033Y-107956748D01*
X195625037Y-107956751D01*
X195788815Y-108066185D01*
X195788828Y-108066192D01*
X195970806Y-108141569D01*
X195970818Y-108141572D01*
X196164004Y-108179999D01*
X196164008Y-108180000D01*
X196412500Y-108180000D01*
X196412500Y-107480000D01*
X196912500Y-107480000D01*
X196912500Y-108180000D01*
X197160992Y-108180000D01*
X197160995Y-108179999D01*
X197354181Y-108141572D01*
X197354193Y-108141569D01*
X197536171Y-108066192D01*
X197536184Y-108066185D01*
X197699962Y-107956751D01*
X197699966Y-107956748D01*
X197839248Y-107817466D01*
X197839251Y-107817462D01*
X197948685Y-107653684D01*
X197948692Y-107653671D01*
X198024069Y-107471692D01*
X198024069Y-107471690D01*
X198032362Y-107430000D01*
X197229488Y-107430000D01*
X197246705Y-107420060D01*
X197302560Y-107364205D01*
X197342056Y-107295796D01*
X197362500Y-107219496D01*
X197362500Y-107140504D01*
X197342056Y-107064204D01*
X197302560Y-106995795D01*
X197246705Y-106939940D01*
X197229488Y-106930000D01*
X198032362Y-106930000D01*
X198024069Y-106888309D01*
X198024069Y-106888307D01*
X197948692Y-106706328D01*
X197948685Y-106706315D01*
X197839251Y-106542537D01*
X197839248Y-106542533D01*
X197699966Y-106403251D01*
X197699962Y-106403248D01*
X197536184Y-106293814D01*
X197536171Y-106293807D01*
X197354193Y-106218430D01*
X197354181Y-106218427D01*
X197160995Y-106180000D01*
X196912500Y-106180000D01*
X196912500Y-106880000D01*
X196412500Y-106880000D01*
X196412500Y-106180000D01*
X196164004Y-106180000D01*
X195970818Y-106218427D01*
X195970806Y-106218430D01*
X195788828Y-106293807D01*
X195788815Y-106293814D01*
X195625037Y-106403248D01*
X195625033Y-106403251D01*
X195485751Y-106542533D01*
X195485748Y-106542537D01*
X195376314Y-106706315D01*
X195376307Y-106706328D01*
X195300930Y-106888307D01*
X195300930Y-106888309D01*
X195292638Y-106930000D01*
X194002362Y-106930000D01*
X193994069Y-106888309D01*
X193994069Y-106888307D01*
X193918692Y-106706328D01*
X193918685Y-106706315D01*
X193809251Y-106542537D01*
X193809248Y-106542533D01*
X193669966Y-106403251D01*
X193669962Y-106403248D01*
X193506184Y-106293814D01*
X193506171Y-106293807D01*
X193324193Y-106218430D01*
X193324181Y-106218427D01*
X193130995Y-106180000D01*
X192732500Y-106180000D01*
X192732500Y-106880000D01*
X192232500Y-106880000D01*
X192232500Y-106180000D01*
X191834004Y-106180000D01*
X191640818Y-106218427D01*
X191640806Y-106218430D01*
X191458828Y-106293807D01*
X191458815Y-106293814D01*
X191295037Y-106403248D01*
X191295033Y-106403251D01*
X191155751Y-106542533D01*
X191155746Y-106542539D01*
X191115535Y-106602719D01*
X191061923Y-106647523D01*
X190992598Y-106656230D01*
X190929571Y-106626075D01*
X190892852Y-106566631D01*
X190892660Y-106501733D01*
X190900500Y-106472475D01*
X190900500Y-106327525D01*
X190862984Y-106187515D01*
X190858645Y-106180000D01*
X190790511Y-106061988D01*
X190790506Y-106061982D01*
X190688017Y-105959493D01*
X190688011Y-105959488D01*
X190562488Y-105887017D01*
X190562489Y-105887017D01*
X190551006Y-105883940D01*
X190422475Y-105849500D01*
X190277525Y-105849500D01*
X190148993Y-105883940D01*
X190137511Y-105887017D01*
X190011988Y-105959488D01*
X190011982Y-105959493D01*
X189909493Y-106061982D01*
X189909488Y-106061988D01*
X189837017Y-106187511D01*
X189837016Y-106187515D01*
X189799500Y-106327525D01*
X171385749Y-106327525D01*
X171400500Y-106272475D01*
X171400500Y-106127525D01*
X171362984Y-105987515D01*
X171346805Y-105959493D01*
X171290511Y-105861988D01*
X171290506Y-105861982D01*
X171188017Y-105759493D01*
X171188011Y-105759488D01*
X171062488Y-105687017D01*
X171062489Y-105687017D01*
X171051006Y-105683940D01*
X170922475Y-105649500D01*
X170777525Y-105649500D01*
X170648993Y-105683940D01*
X170637511Y-105687017D01*
X170511988Y-105759488D01*
X170511982Y-105759493D01*
X170409493Y-105861982D01*
X170409488Y-105861988D01*
X170337017Y-105987511D01*
X170337016Y-105987515D01*
X170299500Y-106127525D01*
X150000500Y-106127525D01*
X150000500Y-105030554D01*
X180945946Y-105030554D01*
X180945946Y-105162337D01*
X180980054Y-105289633D01*
X181011971Y-105344913D01*
X181045946Y-105403760D01*
X181139132Y-105496946D01*
X181253260Y-105562838D01*
X181380554Y-105596946D01*
X181380556Y-105596946D01*
X181512336Y-105596946D01*
X181512338Y-105596946D01*
X181639632Y-105562838D01*
X181753760Y-105496946D01*
X181846946Y-105403760D01*
X181846950Y-105403752D01*
X181851894Y-105397311D01*
X181853580Y-105398605D01*
X181895989Y-105358151D01*
X181964593Y-105344913D01*
X182014832Y-105360966D01*
X182137260Y-105431650D01*
X182277270Y-105469166D01*
X182277273Y-105469166D01*
X182422217Y-105469166D01*
X182422220Y-105469166D01*
X182562230Y-105431650D01*
X182687760Y-105359175D01*
X182790254Y-105256681D01*
X182862729Y-105131151D01*
X182900245Y-104991141D01*
X182900245Y-104846191D01*
X182862729Y-104706181D01*
X182843251Y-104672445D01*
X182790256Y-104580654D01*
X182790251Y-104580648D01*
X182687762Y-104478159D01*
X182687756Y-104478154D01*
X182562233Y-104405683D01*
X182562234Y-104405683D01*
X182550751Y-104402606D01*
X182422220Y-104368166D01*
X182277270Y-104368166D01*
X182148738Y-104402606D01*
X182137256Y-104405683D01*
X182011733Y-104478154D01*
X182011727Y-104478159D01*
X181909238Y-104580648D01*
X181909231Y-104580657D01*
X181882441Y-104627059D01*
X181831874Y-104675274D01*
X181763266Y-104688496D01*
X181713056Y-104672445D01*
X181673342Y-104649516D01*
X181639633Y-104630054D01*
X181575985Y-104613000D01*
X181512338Y-104595946D01*
X181380554Y-104595946D01*
X181253258Y-104630054D01*
X181139132Y-104695946D01*
X181139129Y-104695948D01*
X181045948Y-104789129D01*
X181045946Y-104789132D01*
X180980054Y-104903258D01*
X180945946Y-105030554D01*
X150000500Y-105030554D01*
X150000500Y-102527525D01*
X172599500Y-102527525D01*
X172599500Y-102672475D01*
X172628947Y-102782372D01*
X172637017Y-102812488D01*
X172709488Y-102938011D01*
X172709490Y-102938013D01*
X172709491Y-102938015D01*
X172811985Y-103040509D01*
X172811986Y-103040510D01*
X172811988Y-103040511D01*
X172937511Y-103112982D01*
X172937512Y-103112982D01*
X172937515Y-103112984D01*
X173077525Y-103150500D01*
X173077528Y-103150500D01*
X173222472Y-103150500D01*
X173222475Y-103150500D01*
X173362485Y-103112984D01*
X173488015Y-103040509D01*
X173590509Y-102938015D01*
X173662984Y-102812485D01*
X173700500Y-102672475D01*
X173700500Y-102527525D01*
X173673705Y-102427525D01*
X187599500Y-102427525D01*
X187599500Y-102572475D01*
X187626838Y-102674500D01*
X187637017Y-102712488D01*
X187709488Y-102838011D01*
X187709490Y-102838013D01*
X187709491Y-102838015D01*
X187811985Y-102940509D01*
X187811986Y-102940510D01*
X187811988Y-102940511D01*
X187937511Y-103012982D01*
X187937512Y-103012982D01*
X187937515Y-103012984D01*
X188077525Y-103050500D01*
X188077528Y-103050500D01*
X188222472Y-103050500D01*
X188222475Y-103050500D01*
X188362485Y-103012984D01*
X188488015Y-102940509D01*
X188590509Y-102838015D01*
X188662984Y-102712485D01*
X188700500Y-102572475D01*
X188700500Y-102500000D01*
X192575000Y-102500000D01*
X192575000Y-102722844D01*
X192581401Y-102782372D01*
X192581403Y-102782379D01*
X192631645Y-102917086D01*
X192631649Y-102917093D01*
X192717809Y-103032187D01*
X192717812Y-103032190D01*
X192832906Y-103118350D01*
X192832913Y-103118354D01*
X192843833Y-103122427D01*
X192899767Y-103164298D01*
X192924184Y-103229762D01*
X192924500Y-103238609D01*
X192924500Y-103325765D01*
X192963719Y-103472136D01*
X193001602Y-103537750D01*
X193039485Y-103603365D01*
X193039487Y-103603367D01*
X193098439Y-103662319D01*
X193131924Y-103723642D01*
X193126940Y-103793334D01*
X193098439Y-103837681D01*
X193039487Y-103896632D01*
X193039485Y-103896635D01*
X192963719Y-104027863D01*
X192924500Y-104174234D01*
X192924500Y-104325765D01*
X192963719Y-104472136D01*
X193001602Y-104537750D01*
X193039485Y-104603365D01*
X193146635Y-104710515D01*
X193277865Y-104786281D01*
X193424234Y-104825500D01*
X193424236Y-104825500D01*
X193575764Y-104825500D01*
X193575766Y-104825500D01*
X193722135Y-104786281D01*
X193853365Y-104710515D01*
X193960515Y-104603365D01*
X194036281Y-104472135D01*
X194075500Y-104325766D01*
X194075500Y-104174234D01*
X194036281Y-104027865D01*
X193960515Y-103896635D01*
X193901561Y-103837681D01*
X193868076Y-103776358D01*
X193873060Y-103706666D01*
X193901561Y-103662319D01*
X193960515Y-103603365D01*
X194036281Y-103472135D01*
X194075500Y-103325766D01*
X194075500Y-103238608D01*
X194095185Y-103171569D01*
X194147989Y-103125814D01*
X194156173Y-103122424D01*
X194167087Y-103118353D01*
X194167093Y-103118350D01*
X194282187Y-103032190D01*
X194282190Y-103032187D01*
X194368350Y-102917093D01*
X194368354Y-102917086D01*
X194418596Y-102782379D01*
X194418598Y-102782372D01*
X194424999Y-102722844D01*
X194425000Y-102722827D01*
X194425000Y-102500000D01*
X193549728Y-102500000D01*
X193641614Y-102461940D01*
X193711940Y-102391614D01*
X193750000Y-102299728D01*
X193750000Y-102200272D01*
X193711940Y-102108386D01*
X193641614Y-102038060D01*
X193549728Y-102000000D01*
X193750000Y-102000000D01*
X194425000Y-102000000D01*
X194425000Y-101777172D01*
X194424999Y-101777155D01*
X194418598Y-101717627D01*
X194418596Y-101717620D01*
X194368354Y-101582913D01*
X194368350Y-101582906D01*
X194282190Y-101467812D01*
X194282187Y-101467809D01*
X194167093Y-101381649D01*
X194167086Y-101381645D01*
X194032379Y-101331403D01*
X194032372Y-101331401D01*
X193972844Y-101325000D01*
X193750000Y-101325000D01*
X193750000Y-102000000D01*
X193549728Y-102000000D01*
X193450272Y-102000000D01*
X193358386Y-102038060D01*
X193288060Y-102108386D01*
X193250000Y-102200272D01*
X193250000Y-102299728D01*
X193288060Y-102391614D01*
X193358386Y-102461940D01*
X193450272Y-102500000D01*
X192575000Y-102500000D01*
X188700500Y-102500000D01*
X188700500Y-102427525D01*
X188662984Y-102287515D01*
X188648244Y-102261985D01*
X188590511Y-102161988D01*
X188590506Y-102161982D01*
X188488017Y-102059493D01*
X188488011Y-102059488D01*
X188362488Y-101987017D01*
X188362489Y-101987017D01*
X188351006Y-101983940D01*
X188222475Y-101949500D01*
X188077525Y-101949500D01*
X187948993Y-101983940D01*
X187937511Y-101987017D01*
X187811988Y-102059488D01*
X187811982Y-102059493D01*
X187709493Y-102161982D01*
X187709488Y-102161988D01*
X187637017Y-102287511D01*
X187637016Y-102287515D01*
X187599500Y-102427525D01*
X173673705Y-102427525D01*
X173662984Y-102387515D01*
X173608196Y-102292621D01*
X173605511Y-102286552D01*
X173601779Y-102258237D01*
X173595043Y-102230472D01*
X173597271Y-102224034D01*
X173596381Y-102217282D01*
X173608552Y-102191438D01*
X173617895Y-102164445D01*
X173623248Y-102160234D01*
X173626151Y-102154072D01*
X173650364Y-102138910D01*
X173672816Y-102121254D01*
X173679595Y-102120606D01*
X173685370Y-102116991D01*
X173713937Y-102117327D01*
X173742369Y-102114612D01*
X173750982Y-102116592D01*
X173877525Y-102150500D01*
X173877528Y-102150500D01*
X174022472Y-102150500D01*
X174022475Y-102150500D01*
X174162485Y-102112984D01*
X174288015Y-102040509D01*
X174390509Y-101938015D01*
X174462984Y-101812485D01*
X174472451Y-101777155D01*
X192575000Y-101777155D01*
X192575000Y-102000000D01*
X193250000Y-102000000D01*
X193250000Y-101325000D01*
X193027155Y-101325000D01*
X192967627Y-101331401D01*
X192967620Y-101331403D01*
X192832913Y-101381645D01*
X192832906Y-101381649D01*
X192717812Y-101467809D01*
X192717809Y-101467812D01*
X192631649Y-101582906D01*
X192631645Y-101582913D01*
X192581403Y-101717620D01*
X192581401Y-101717627D01*
X192575000Y-101777155D01*
X174472451Y-101777155D01*
X174500500Y-101672475D01*
X174500500Y-101527525D01*
X174462984Y-101387515D01*
X174459597Y-101381649D01*
X174390511Y-101261988D01*
X174390506Y-101261982D01*
X174288017Y-101159493D01*
X174288011Y-101159488D01*
X174162488Y-101087017D01*
X174162489Y-101087017D01*
X174151006Y-101083940D01*
X174022475Y-101049500D01*
X173877525Y-101049500D01*
X173748993Y-101083940D01*
X173737511Y-101087017D01*
X173611988Y-101159488D01*
X173611982Y-101159493D01*
X173509493Y-101261982D01*
X173509488Y-101261988D01*
X173437017Y-101387511D01*
X173437016Y-101387515D01*
X173399500Y-101527525D01*
X173399500Y-101672475D01*
X173437016Y-101812485D01*
X173488483Y-101901629D01*
X173504956Y-101969527D01*
X173482104Y-102035554D01*
X173427183Y-102078745D01*
X173357630Y-102085387D01*
X173349003Y-102083403D01*
X173259750Y-102059488D01*
X173222475Y-102049500D01*
X173077525Y-102049500D01*
X172950999Y-102083403D01*
X172937511Y-102087017D01*
X172811988Y-102159488D01*
X172811982Y-102159493D01*
X172709493Y-102261982D01*
X172709488Y-102261988D01*
X172637017Y-102387511D01*
X172637016Y-102387515D01*
X172599500Y-102527525D01*
X150000500Y-102527525D01*
X150000500Y-101127525D01*
X153799500Y-101127525D01*
X153799500Y-101272475D01*
X153837016Y-101412485D01*
X153837017Y-101412488D01*
X153909488Y-101538011D01*
X153909490Y-101538013D01*
X153909491Y-101538015D01*
X154011985Y-101640509D01*
X154011986Y-101640510D01*
X154011988Y-101640511D01*
X154137511Y-101712982D01*
X154137512Y-101712982D01*
X154137515Y-101712984D01*
X154277525Y-101750500D01*
X154277528Y-101750500D01*
X154422472Y-101750500D01*
X154422475Y-101750500D01*
X154562485Y-101712984D01*
X154688015Y-101640509D01*
X154790509Y-101538015D01*
X154862984Y-101412485D01*
X154900500Y-101272475D01*
X154900500Y-101127525D01*
X154862984Y-100987515D01*
X154835843Y-100940506D01*
X154790511Y-100861988D01*
X154790506Y-100861982D01*
X154688017Y-100759493D01*
X154688011Y-100759488D01*
X154562488Y-100687017D01*
X154562489Y-100687017D01*
X154551006Y-100683940D01*
X154422475Y-100649500D01*
X154277525Y-100649500D01*
X154148993Y-100683940D01*
X154137511Y-100687017D01*
X154011988Y-100759488D01*
X154011982Y-100759493D01*
X153909493Y-100861982D01*
X153909488Y-100861988D01*
X153837017Y-100987511D01*
X153837016Y-100987515D01*
X153799500Y-101127525D01*
X150000500Y-101127525D01*
X150000500Y-100218411D01*
X150020185Y-100151372D01*
X150072989Y-100105617D01*
X150142147Y-100095673D01*
X150205703Y-100124698D01*
X150234984Y-100162115D01*
X150266003Y-100222993D01*
X150266006Y-100222997D01*
X150372441Y-100369494D01*
X150372445Y-100369499D01*
X150500500Y-100497554D01*
X150500505Y-100497558D01*
X150603617Y-100572472D01*
X150647006Y-100603996D01*
X150736312Y-100649500D01*
X150808360Y-100686211D01*
X150808363Y-100686212D01*
X150889225Y-100712485D01*
X150980591Y-100742171D01*
X151063429Y-100755291D01*
X151159449Y-100770500D01*
X151159454Y-100770500D01*
X151340551Y-100770500D01*
X151427259Y-100756765D01*
X151519409Y-100742171D01*
X151691639Y-100686211D01*
X151852994Y-100603996D01*
X151999501Y-100497553D01*
X152069529Y-100427525D01*
X158949500Y-100427525D01*
X158949500Y-100572475D01*
X158979976Y-100686211D01*
X158987017Y-100712488D01*
X159059488Y-100838011D01*
X159059490Y-100838013D01*
X159059491Y-100838015D01*
X159161985Y-100940509D01*
X159161986Y-100940510D01*
X159161988Y-100940511D01*
X159287511Y-101012982D01*
X159287512Y-101012982D01*
X159287515Y-101012984D01*
X159427525Y-101050500D01*
X159427528Y-101050500D01*
X159572472Y-101050500D01*
X159572475Y-101050500D01*
X159712485Y-101012984D01*
X159838015Y-100940509D01*
X159940509Y-100838015D01*
X160012984Y-100712485D01*
X160050500Y-100572475D01*
X160050500Y-100527525D01*
X166899500Y-100527525D01*
X166899500Y-100672475D01*
X166922817Y-100759493D01*
X166937017Y-100812488D01*
X167009488Y-100938011D01*
X167009490Y-100938013D01*
X167009491Y-100938015D01*
X167111985Y-101040509D01*
X167111986Y-101040510D01*
X167111988Y-101040511D01*
X167237511Y-101112982D01*
X167237512Y-101112982D01*
X167237515Y-101112984D01*
X167377525Y-101150500D01*
X167377528Y-101150500D01*
X167522472Y-101150500D01*
X167522475Y-101150500D01*
X167662485Y-101112984D01*
X167788015Y-101040509D01*
X167890509Y-100938015D01*
X167962984Y-100812485D01*
X168000500Y-100672475D01*
X168000500Y-100527525D01*
X167962984Y-100387515D01*
X167952582Y-100369499D01*
X167890511Y-100261988D01*
X167890506Y-100261982D01*
X167788017Y-100159493D01*
X167788011Y-100159488D01*
X167662488Y-100087017D01*
X167662489Y-100087017D01*
X167651006Y-100083940D01*
X167522475Y-100049500D01*
X167377525Y-100049500D01*
X167248993Y-100083940D01*
X167237511Y-100087017D01*
X167111988Y-100159488D01*
X167111982Y-100159493D01*
X167009493Y-100261982D01*
X167009488Y-100261988D01*
X166937017Y-100387511D01*
X166937016Y-100387515D01*
X166899500Y-100527525D01*
X160050500Y-100527525D01*
X160050500Y-100427525D01*
X160012984Y-100287515D01*
X159998244Y-100261985D01*
X159940511Y-100161988D01*
X159940506Y-100161982D01*
X159838017Y-100059493D01*
X159838011Y-100059488D01*
X159712488Y-99987017D01*
X159712489Y-99987017D01*
X159701006Y-99983940D01*
X159572475Y-99949500D01*
X159427525Y-99949500D01*
X159298993Y-99983940D01*
X159287511Y-99987017D01*
X159161988Y-100059488D01*
X159161982Y-100059493D01*
X159059493Y-100161982D01*
X159059488Y-100161988D01*
X158987017Y-100287511D01*
X158987016Y-100287515D01*
X158949500Y-100427525D01*
X152069529Y-100427525D01*
X152127553Y-100369501D01*
X152134721Y-100359633D01*
X152144256Y-100346512D01*
X152205665Y-100261988D01*
X152233996Y-100222994D01*
X152316211Y-100061639D01*
X152372171Y-99889409D01*
X152386765Y-99797259D01*
X152400500Y-99710551D01*
X152400500Y-99529448D01*
X152384019Y-99425397D01*
X152372171Y-99350591D01*
X152316211Y-99178361D01*
X152316211Y-99178360D01*
X152265015Y-99077884D01*
X152233996Y-99017006D01*
X152194747Y-98962984D01*
X152127558Y-98870505D01*
X152127554Y-98870500D01*
X151999499Y-98742445D01*
X151999494Y-98742441D01*
X151852997Y-98636006D01*
X151852996Y-98636005D01*
X151852994Y-98636004D01*
X151801300Y-98609664D01*
X151691639Y-98553788D01*
X151691636Y-98553787D01*
X151519410Y-98497829D01*
X151359321Y-98472473D01*
X151296186Y-98442544D01*
X151259255Y-98383232D01*
X151260253Y-98313370D01*
X151298863Y-98255137D01*
X151359321Y-98227527D01*
X151429425Y-98216422D01*
X151519409Y-98202171D01*
X151691639Y-98146211D01*
X151852994Y-98063996D01*
X151999501Y-97957553D01*
X152029529Y-97927525D01*
X161699500Y-97927525D01*
X161699500Y-98072475D01*
X161737016Y-98212485D01*
X161737017Y-98212488D01*
X161809488Y-98338011D01*
X161809490Y-98338013D01*
X161809491Y-98338015D01*
X161911985Y-98440509D01*
X161911986Y-98440510D01*
X161911988Y-98440511D01*
X162037511Y-98512982D01*
X162037512Y-98512982D01*
X162037515Y-98512984D01*
X162177525Y-98550500D01*
X162177528Y-98550500D01*
X162322472Y-98550500D01*
X162322475Y-98550500D01*
X162462485Y-98512984D01*
X162588015Y-98440509D01*
X162650999Y-98377525D01*
X167549500Y-98377525D01*
X167549500Y-98522475D01*
X167579921Y-98636006D01*
X167587017Y-98662488D01*
X167659488Y-98788011D01*
X167659490Y-98788013D01*
X167659491Y-98788015D01*
X167761985Y-98890509D01*
X167761986Y-98890510D01*
X167761988Y-98890511D01*
X167887511Y-98962982D01*
X167887512Y-98962982D01*
X167887515Y-98962984D01*
X168027525Y-99000500D01*
X168027528Y-99000500D01*
X168172472Y-99000500D01*
X168172475Y-99000500D01*
X168312485Y-98962984D01*
X168438015Y-98890509D01*
X168540509Y-98788015D01*
X168612984Y-98662485D01*
X168650500Y-98522475D01*
X168650500Y-98522471D01*
X168651561Y-98514415D01*
X168653390Y-98514655D01*
X168670185Y-98457461D01*
X168704733Y-98427525D01*
X179949500Y-98427525D01*
X179949500Y-98572475D01*
X179987016Y-98712485D01*
X179987017Y-98712488D01*
X180059488Y-98838011D01*
X180059490Y-98838013D01*
X180059491Y-98838015D01*
X180161985Y-98940509D01*
X180161986Y-98940510D01*
X180161988Y-98940511D01*
X180287511Y-99012982D01*
X180287512Y-99012982D01*
X180287515Y-99012984D01*
X180427525Y-99050500D01*
X180427528Y-99050500D01*
X180572472Y-99050500D01*
X180572475Y-99050500D01*
X180712485Y-99012984D01*
X180838015Y-98940509D01*
X180940509Y-98838015D01*
X181012984Y-98712485D01*
X181050500Y-98572475D01*
X181050500Y-98427525D01*
X181012984Y-98287515D01*
X180995629Y-98257456D01*
X180940511Y-98161988D01*
X180940506Y-98161982D01*
X180838017Y-98059493D01*
X180838011Y-98059488D01*
X180712488Y-97987017D01*
X180712489Y-97987017D01*
X180701006Y-97983940D01*
X180572475Y-97949500D01*
X180427525Y-97949500D01*
X180298993Y-97983940D01*
X180287511Y-97987017D01*
X180161988Y-98059488D01*
X180161982Y-98059493D01*
X180059493Y-98161982D01*
X180059488Y-98161988D01*
X179987017Y-98287511D01*
X179986214Y-98290508D01*
X179949500Y-98427525D01*
X168704733Y-98427525D01*
X168722989Y-98411706D01*
X168774500Y-98400500D01*
X168922472Y-98400500D01*
X168922475Y-98400500D01*
X169062485Y-98362984D01*
X169188015Y-98290509D01*
X169290509Y-98188015D01*
X169362984Y-98062485D01*
X169400500Y-97922475D01*
X169400500Y-97777525D01*
X169362984Y-97637515D01*
X169299481Y-97527525D01*
X197399500Y-97527525D01*
X197399500Y-97672475D01*
X197437016Y-97812485D01*
X197437017Y-97812488D01*
X197509488Y-97938011D01*
X197509490Y-97938013D01*
X197509491Y-97938015D01*
X197611985Y-98040509D01*
X197611986Y-98040510D01*
X197611988Y-98040511D01*
X197737511Y-98112982D01*
X197737512Y-98112982D01*
X197737515Y-98112984D01*
X197877525Y-98150500D01*
X197877528Y-98150500D01*
X198022472Y-98150500D01*
X198022475Y-98150500D01*
X198162485Y-98112984D01*
X198288015Y-98040509D01*
X198390509Y-97938015D01*
X198462984Y-97812485D01*
X198500500Y-97672475D01*
X198500500Y-97527525D01*
X198462984Y-97387515D01*
X198440983Y-97349409D01*
X198390511Y-97261988D01*
X198390506Y-97261982D01*
X198288017Y-97159493D01*
X198288011Y-97159488D01*
X198162488Y-97087017D01*
X198162489Y-97087017D01*
X198151006Y-97083940D01*
X198022475Y-97049500D01*
X197877525Y-97049500D01*
X197748993Y-97083940D01*
X197737511Y-97087017D01*
X197611988Y-97159488D01*
X197611982Y-97159493D01*
X197509493Y-97261982D01*
X197509488Y-97261988D01*
X197437017Y-97387511D01*
X197437016Y-97387515D01*
X197399500Y-97527525D01*
X169299481Y-97527525D01*
X169290509Y-97511985D01*
X169188015Y-97409491D01*
X169188013Y-97409490D01*
X169188011Y-97409488D01*
X169062488Y-97337017D01*
X169062489Y-97337017D01*
X169051006Y-97333940D01*
X168922475Y-97299500D01*
X168777525Y-97299500D01*
X168648993Y-97333940D01*
X168637511Y-97337017D01*
X168511988Y-97409488D01*
X168511982Y-97409493D01*
X168409493Y-97511982D01*
X168409488Y-97511988D01*
X168337017Y-97637511D01*
X168299499Y-97777528D01*
X168298439Y-97785585D01*
X168296609Y-97785344D01*
X168279815Y-97842539D01*
X168227011Y-97888294D01*
X168175500Y-97899500D01*
X168172475Y-97899500D01*
X168027525Y-97899500D01*
X167898993Y-97933940D01*
X167887511Y-97937017D01*
X167761988Y-98009488D01*
X167761982Y-98009493D01*
X167659493Y-98111982D01*
X167659488Y-98111988D01*
X167587017Y-98237511D01*
X167587016Y-98237515D01*
X167549500Y-98377525D01*
X162650999Y-98377525D01*
X162690509Y-98338015D01*
X162762984Y-98212485D01*
X162800500Y-98072475D01*
X162800500Y-97927525D01*
X162762984Y-97787515D01*
X162757217Y-97777527D01*
X162690511Y-97661988D01*
X162690506Y-97661982D01*
X162588017Y-97559493D01*
X162588011Y-97559488D01*
X162462488Y-97487017D01*
X162462489Y-97487017D01*
X162451006Y-97483940D01*
X162322475Y-97449500D01*
X162177525Y-97449500D01*
X162048993Y-97483940D01*
X162037511Y-97487017D01*
X161911988Y-97559488D01*
X161911982Y-97559493D01*
X161809493Y-97661982D01*
X161809488Y-97661988D01*
X161737017Y-97787511D01*
X161737016Y-97787515D01*
X161699500Y-97927525D01*
X152029529Y-97927525D01*
X152127553Y-97829501D01*
X152233996Y-97682994D01*
X152316211Y-97521639D01*
X152372171Y-97349409D01*
X152386765Y-97257259D01*
X152400500Y-97170551D01*
X152400500Y-96989448D01*
X152384019Y-96885397D01*
X152372171Y-96810591D01*
X152316211Y-96638361D01*
X152316211Y-96638360D01*
X152265015Y-96537884D01*
X152233996Y-96477006D01*
X152220396Y-96458287D01*
X152127558Y-96330505D01*
X152127554Y-96330500D01*
X151999499Y-96202445D01*
X151999494Y-96202441D01*
X151852997Y-96096006D01*
X151852996Y-96096005D01*
X151852994Y-96096004D01*
X151801300Y-96069664D01*
X151691639Y-96013788D01*
X151691636Y-96013787D01*
X151519410Y-95957829D01*
X151359321Y-95932473D01*
X151296186Y-95902544D01*
X151259255Y-95843232D01*
X151260253Y-95773370D01*
X151298863Y-95715137D01*
X151359321Y-95687527D01*
X151429425Y-95676422D01*
X151519409Y-95662171D01*
X151691639Y-95606211D01*
X151852994Y-95523996D01*
X151999501Y-95417553D01*
X152127553Y-95289501D01*
X152172581Y-95227525D01*
X187099500Y-95227525D01*
X187099500Y-95372475D01*
X187137016Y-95512485D01*
X187137017Y-95512488D01*
X187209488Y-95638011D01*
X187209490Y-95638013D01*
X187209491Y-95638015D01*
X187311985Y-95740509D01*
X187311986Y-95740510D01*
X187311988Y-95740511D01*
X187437511Y-95812982D01*
X187437512Y-95812982D01*
X187437515Y-95812984D01*
X187577525Y-95850500D01*
X187577528Y-95850500D01*
X187722472Y-95850500D01*
X187722475Y-95850500D01*
X187862485Y-95812984D01*
X187988015Y-95740509D01*
X188090509Y-95638015D01*
X188162984Y-95512485D01*
X188200500Y-95372475D01*
X188200500Y-95227525D01*
X188162984Y-95087515D01*
X188126723Y-95024710D01*
X188090511Y-94961988D01*
X188090506Y-94961982D01*
X187988017Y-94859493D01*
X187988011Y-94859488D01*
X187862488Y-94787017D01*
X187862489Y-94787017D01*
X187851006Y-94783940D01*
X187722475Y-94749500D01*
X187577525Y-94749500D01*
X187448993Y-94783940D01*
X187437511Y-94787017D01*
X187311988Y-94859488D01*
X187311982Y-94859493D01*
X187209493Y-94961982D01*
X187209488Y-94961988D01*
X187137017Y-95087511D01*
X187137016Y-95087515D01*
X187099500Y-95227525D01*
X152172581Y-95227525D01*
X152231440Y-95146513D01*
X152232605Y-95144907D01*
X152233996Y-95142994D01*
X152316211Y-94981639D01*
X152372171Y-94809409D01*
X152386765Y-94717259D01*
X152400500Y-94630551D01*
X152400500Y-94449448D01*
X152384019Y-94345397D01*
X152372171Y-94270591D01*
X152333152Y-94150500D01*
X152316212Y-94098363D01*
X152316211Y-94098360D01*
X152265015Y-93997884D01*
X152233996Y-93937006D01*
X152143527Y-93812485D01*
X152127558Y-93790505D01*
X152127554Y-93790500D01*
X151999499Y-93662445D01*
X151999494Y-93662441D01*
X151940711Y-93619732D01*
X151940688Y-93619717D01*
X151930389Y-93612234D01*
X151878201Y-93574318D01*
X151842118Y-93527525D01*
X180099500Y-93527525D01*
X180099500Y-93672475D01*
X180137016Y-93812485D01*
X180137017Y-93812488D01*
X180209488Y-93938011D01*
X180209490Y-93938013D01*
X180209491Y-93938015D01*
X180311985Y-94040509D01*
X180311986Y-94040510D01*
X180311988Y-94040511D01*
X180437511Y-94112982D01*
X180437512Y-94112982D01*
X180437515Y-94112984D01*
X180577525Y-94150500D01*
X180577528Y-94150500D01*
X180722472Y-94150500D01*
X180722475Y-94150500D01*
X180862485Y-94112984D01*
X180988015Y-94040509D01*
X181090509Y-93938015D01*
X181162984Y-93812485D01*
X181200500Y-93672475D01*
X181200500Y-93527525D01*
X181162984Y-93387515D01*
X181143185Y-93353223D01*
X181090511Y-93261988D01*
X181090506Y-93261982D01*
X180988017Y-93159493D01*
X180988011Y-93159488D01*
X180862488Y-93087017D01*
X180862489Y-93087017D01*
X180851006Y-93083940D01*
X180722475Y-93049500D01*
X180577525Y-93049500D01*
X180448993Y-93083940D01*
X180437511Y-93087017D01*
X180311988Y-93159488D01*
X180311982Y-93159493D01*
X180209493Y-93261982D01*
X180209488Y-93261988D01*
X180137017Y-93387511D01*
X180137016Y-93387515D01*
X180099500Y-93527525D01*
X151842118Y-93527525D01*
X151835536Y-93518989D01*
X151829557Y-93449376D01*
X151862162Y-93387580D01*
X151923000Y-93353223D01*
X151951087Y-93350000D01*
X152147828Y-93350000D01*
X152147844Y-93349999D01*
X152207372Y-93343598D01*
X152207379Y-93343596D01*
X152342086Y-93293354D01*
X152342093Y-93293350D01*
X152457187Y-93207190D01*
X152457190Y-93207187D01*
X152543350Y-93092093D01*
X152543354Y-93092086D01*
X152593596Y-92957379D01*
X152593598Y-92957372D01*
X152599999Y-92897844D01*
X152600000Y-92897827D01*
X152600000Y-92250000D01*
X151683012Y-92250000D01*
X151715925Y-92192993D01*
X151750000Y-92065826D01*
X151750000Y-91934174D01*
X151715925Y-91807007D01*
X151683012Y-91750000D01*
X152600000Y-91750000D01*
X152600000Y-91102172D01*
X152599999Y-91102155D01*
X152593598Y-91042627D01*
X152593596Y-91042620D01*
X152543354Y-90907913D01*
X152543350Y-90907906D01*
X152457190Y-90792812D01*
X152457187Y-90792809D01*
X152342093Y-90706649D01*
X152342086Y-90706645D01*
X152207379Y-90656403D01*
X152207372Y-90656401D01*
X152147844Y-90650000D01*
X151500000Y-90650000D01*
X151500000Y-91566988D01*
X151442993Y-91534075D01*
X151315826Y-91500000D01*
X151184174Y-91500000D01*
X151057007Y-91534075D01*
X151000000Y-91566988D01*
X151000000Y-90650000D01*
X150352155Y-90650000D01*
X150292627Y-90656401D01*
X150292617Y-90656403D01*
X150167832Y-90702945D01*
X150098141Y-90707929D01*
X150036818Y-90674443D01*
X150003334Y-90613120D01*
X150000500Y-90586763D01*
X150000500Y-89578681D01*
X156199500Y-89578681D01*
X156199500Y-89921318D01*
X156237858Y-90261768D01*
X156237861Y-90261782D01*
X156314102Y-90595816D01*
X156314103Y-90595818D01*
X156427264Y-90919216D01*
X156575922Y-91227907D01*
X156575924Y-91227910D01*
X156758211Y-91518018D01*
X156971834Y-91785893D01*
X157214107Y-92028166D01*
X157481982Y-92241789D01*
X157772090Y-92424076D01*
X158080785Y-92572736D01*
X158404183Y-92685897D01*
X158738217Y-92762139D01*
X158738226Y-92762140D01*
X158738231Y-92762141D01*
X158965197Y-92787713D01*
X159078682Y-92800499D01*
X159078685Y-92800500D01*
X159078688Y-92800500D01*
X159421315Y-92800500D01*
X159421316Y-92800499D01*
X159595311Y-92780895D01*
X159761768Y-92762141D01*
X159761771Y-92762140D01*
X159761783Y-92762139D01*
X160095817Y-92685897D01*
X160419215Y-92572736D01*
X160727910Y-92424076D01*
X161018018Y-92241789D01*
X161098603Y-92177525D01*
X172949500Y-92177525D01*
X172949500Y-92322475D01*
X172987016Y-92462485D01*
X172987017Y-92462488D01*
X173059488Y-92588011D01*
X173059490Y-92588013D01*
X173059491Y-92588015D01*
X173161985Y-92690509D01*
X173161986Y-92690510D01*
X173161988Y-92690511D01*
X173287511Y-92762982D01*
X173287512Y-92762982D01*
X173287515Y-92762984D01*
X173427525Y-92800500D01*
X173427528Y-92800500D01*
X173572472Y-92800500D01*
X173572475Y-92800500D01*
X173712485Y-92762984D01*
X173838015Y-92690509D01*
X173940509Y-92588015D01*
X174012984Y-92462485D01*
X174050500Y-92322475D01*
X174050500Y-92177525D01*
X174037102Y-92127525D01*
X174699500Y-92127525D01*
X174699500Y-92272475D01*
X174712897Y-92322472D01*
X174737017Y-92412488D01*
X174809488Y-92538011D01*
X174809490Y-92538013D01*
X174809491Y-92538015D01*
X174911985Y-92640509D01*
X174911986Y-92640510D01*
X174911988Y-92640511D01*
X175037511Y-92712982D01*
X175037512Y-92712982D01*
X175037515Y-92712984D01*
X175177525Y-92750500D01*
X175177528Y-92750500D01*
X175322472Y-92750500D01*
X175322475Y-92750500D01*
X175462485Y-92712984D01*
X175588015Y-92640509D01*
X175690509Y-92538015D01*
X175762984Y-92412485D01*
X175800500Y-92272475D01*
X175800500Y-92127525D01*
X175762984Y-91987515D01*
X175732187Y-91934174D01*
X175690511Y-91861988D01*
X175690506Y-91861982D01*
X175588017Y-91759493D01*
X175588011Y-91759488D01*
X175462488Y-91687017D01*
X175462489Y-91687017D01*
X175451006Y-91683940D01*
X175322475Y-91649500D01*
X175177525Y-91649500D01*
X175048993Y-91683940D01*
X175037511Y-91687017D01*
X174911988Y-91759488D01*
X174911982Y-91759493D01*
X174809493Y-91861982D01*
X174809488Y-91861988D01*
X174737017Y-91987511D01*
X174737016Y-91987515D01*
X174699500Y-92127525D01*
X174037102Y-92127525D01*
X174012984Y-92037515D01*
X174007586Y-92028166D01*
X173940511Y-91911988D01*
X173940506Y-91911982D01*
X173838017Y-91809493D01*
X173838011Y-91809488D01*
X173712488Y-91737017D01*
X173712489Y-91737017D01*
X173701006Y-91733940D01*
X173572475Y-91699500D01*
X173427525Y-91699500D01*
X173298993Y-91733940D01*
X173287511Y-91737017D01*
X173161988Y-91809488D01*
X173161982Y-91809493D01*
X173059493Y-91911982D01*
X173059488Y-91911988D01*
X172987017Y-92037511D01*
X172987016Y-92037515D01*
X172949500Y-92177525D01*
X161098603Y-92177525D01*
X161274175Y-92037511D01*
X161285886Y-92028172D01*
X161285888Y-92028169D01*
X161285893Y-92028166D01*
X161528166Y-91785893D01*
X161741789Y-91518018D01*
X161924076Y-91227910D01*
X162072736Y-90919215D01*
X162185897Y-90595817D01*
X162262139Y-90261783D01*
X162300500Y-89921312D01*
X162300500Y-89578688D01*
X162300499Y-89578681D01*
X186699500Y-89578681D01*
X186699500Y-89921318D01*
X186737858Y-90261768D01*
X186737861Y-90261782D01*
X186814102Y-90595816D01*
X186814103Y-90595818D01*
X186927264Y-90919216D01*
X187075922Y-91227907D01*
X187075924Y-91227910D01*
X187258211Y-91518018D01*
X187471834Y-91785893D01*
X187714107Y-92028166D01*
X187981982Y-92241789D01*
X188272090Y-92424076D01*
X188580785Y-92572736D01*
X188904183Y-92685897D01*
X189238217Y-92762139D01*
X189238226Y-92762140D01*
X189238231Y-92762141D01*
X189465197Y-92787713D01*
X189578682Y-92800499D01*
X189578685Y-92800500D01*
X189578688Y-92800500D01*
X189921315Y-92800500D01*
X189921316Y-92800499D01*
X190095311Y-92780895D01*
X190261768Y-92762141D01*
X190261771Y-92762140D01*
X190261783Y-92762139D01*
X190595817Y-92685897D01*
X190919215Y-92572736D01*
X191227910Y-92424076D01*
X191518018Y-92241789D01*
X191785893Y-92028166D01*
X192028166Y-91785893D01*
X192241789Y-91518018D01*
X192424076Y-91227910D01*
X192572736Y-90919215D01*
X192685897Y-90595817D01*
X192762139Y-90261783D01*
X192800500Y-89921312D01*
X192800500Y-89578688D01*
X192762139Y-89238217D01*
X192685897Y-88904183D01*
X192572736Y-88580785D01*
X192424076Y-88272090D01*
X192241789Y-87981982D01*
X192028166Y-87714107D01*
X191785893Y-87471834D01*
X191518018Y-87258211D01*
X191227910Y-87075924D01*
X191227907Y-87075922D01*
X190919216Y-86927264D01*
X190595818Y-86814103D01*
X190595816Y-86814102D01*
X190338024Y-86755262D01*
X190261783Y-86737861D01*
X190261780Y-86737860D01*
X190261768Y-86737858D01*
X189921318Y-86699500D01*
X189921312Y-86699500D01*
X189578688Y-86699500D01*
X189578681Y-86699500D01*
X189238231Y-86737858D01*
X189238217Y-86737861D01*
X188904183Y-86814102D01*
X188904181Y-86814103D01*
X188580783Y-86927264D01*
X188272092Y-87075922D01*
X187981983Y-87258210D01*
X187714107Y-87471833D01*
X187471833Y-87714107D01*
X187258210Y-87981983D01*
X187075922Y-88272092D01*
X186927264Y-88580783D01*
X186814103Y-88904181D01*
X186814102Y-88904183D01*
X186737861Y-89238217D01*
X186737858Y-89238231D01*
X186699500Y-89578681D01*
X162300499Y-89578681D01*
X162262139Y-89238217D01*
X162185897Y-88904183D01*
X162072736Y-88580785D01*
X161924076Y-88272090D01*
X161741789Y-87981982D01*
X161528166Y-87714107D01*
X161285893Y-87471834D01*
X161104935Y-87327525D01*
X164299500Y-87327525D01*
X164299500Y-87472475D01*
X164337016Y-87612485D01*
X164337017Y-87612488D01*
X164409488Y-87738011D01*
X164409490Y-87738013D01*
X164409491Y-87738015D01*
X164511985Y-87840509D01*
X164511986Y-87840510D01*
X164511988Y-87840511D01*
X164637511Y-87912982D01*
X164637512Y-87912982D01*
X164637515Y-87912984D01*
X164777525Y-87950500D01*
X164777528Y-87950500D01*
X164922472Y-87950500D01*
X164922475Y-87950500D01*
X165062485Y-87912984D01*
X165188015Y-87840509D01*
X165290509Y-87738015D01*
X165362984Y-87612485D01*
X165400500Y-87472475D01*
X165400500Y-87327525D01*
X165362984Y-87187515D01*
X165305537Y-87088015D01*
X165290511Y-87061988D01*
X165290506Y-87061982D01*
X165188017Y-86959493D01*
X165188011Y-86959488D01*
X165062488Y-86887017D01*
X165062489Y-86887017D01*
X165051006Y-86883940D01*
X164922475Y-86849500D01*
X164777525Y-86849500D01*
X164648993Y-86883940D01*
X164637511Y-86887017D01*
X164511988Y-86959488D01*
X164511982Y-86959493D01*
X164409493Y-87061982D01*
X164409488Y-87061988D01*
X164337017Y-87187511D01*
X164336214Y-87190509D01*
X164299500Y-87327525D01*
X161104935Y-87327525D01*
X161018018Y-87258211D01*
X160727910Y-87075924D01*
X160727907Y-87075922D01*
X160419216Y-86927264D01*
X160095818Y-86814103D01*
X160095816Y-86814102D01*
X159991483Y-86790289D01*
X159897445Y-86768825D01*
X159761783Y-86737861D01*
X159761780Y-86737860D01*
X159761768Y-86737858D01*
X159421318Y-86699500D01*
X159421312Y-86699500D01*
X159078688Y-86699500D01*
X159078681Y-86699500D01*
X158738231Y-86737858D01*
X158738217Y-86737861D01*
X158404183Y-86814102D01*
X158404181Y-86814103D01*
X158080783Y-86927264D01*
X157772092Y-87075922D01*
X157481983Y-87258210D01*
X157214107Y-87471833D01*
X156971833Y-87714107D01*
X156758210Y-87981983D01*
X156575922Y-88272092D01*
X156427264Y-88580783D01*
X156314103Y-88904181D01*
X156314102Y-88904183D01*
X156237861Y-89238217D01*
X156237858Y-89238231D01*
X156199500Y-89578681D01*
X150000500Y-89578681D01*
X150000500Y-86677525D01*
X176449500Y-86677525D01*
X176449500Y-86822475D01*
X176486213Y-86959488D01*
X176487017Y-86962488D01*
X176559488Y-87088011D01*
X176559490Y-87088013D01*
X176559491Y-87088015D01*
X176661985Y-87190509D01*
X176661986Y-87190510D01*
X176661988Y-87190511D01*
X176787511Y-87262982D01*
X176787512Y-87262982D01*
X176787515Y-87262984D01*
X176927525Y-87300500D01*
X176927528Y-87300500D01*
X177072472Y-87300500D01*
X177072475Y-87300500D01*
X177212485Y-87262984D01*
X177338015Y-87190509D01*
X177440509Y-87088015D01*
X177512984Y-86962485D01*
X177550500Y-86822475D01*
X177550500Y-86677525D01*
X177512984Y-86537515D01*
X177440509Y-86411985D01*
X177338015Y-86309491D01*
X177338013Y-86309490D01*
X177338011Y-86309488D01*
X177212488Y-86237017D01*
X177212489Y-86237017D01*
X177201006Y-86233940D01*
X177072475Y-86199500D01*
X176927525Y-86199500D01*
X176798993Y-86233940D01*
X176787511Y-86237017D01*
X176661988Y-86309488D01*
X176661982Y-86309493D01*
X176559493Y-86411982D01*
X176559488Y-86411988D01*
X176487017Y-86537511D01*
X176487016Y-86537515D01*
X176449500Y-86677525D01*
X150000500Y-86677525D01*
X150000500Y-83003750D01*
X150000726Y-82996263D01*
X150018271Y-82706205D01*
X150020076Y-82691340D01*
X150071780Y-82409201D01*
X150075364Y-82394663D01*
X150152096Y-82148422D01*
X150160696Y-82120822D01*
X150165998Y-82106841D01*
X150283731Y-81845249D01*
X150290676Y-81832016D01*
X150439080Y-81586526D01*
X150447567Y-81574230D01*
X150624480Y-81348417D01*
X150634395Y-81337226D01*
X150837226Y-81134395D01*
X150848417Y-81124480D01*
X151074230Y-80947567D01*
X151086526Y-80939080D01*
X151332016Y-80790676D01*
X151345249Y-80783731D01*
X151606841Y-80665998D01*
X151620822Y-80660696D01*
X151894668Y-80575362D01*
X151909197Y-80571780D01*
X152191344Y-80520075D01*
X152206201Y-80518271D01*
X152496264Y-80500726D01*
X152503751Y-80500500D01*
X152565892Y-80500500D01*
X196434108Y-80500500D01*
X196496249Y-80500500D01*
X196503736Y-80500726D01*
G37*
%TD.AperFunction*%
%TD*%
M02*
