%TF.GenerationSoftware,KiCad,Pcbnew,9.0.7-9.0.7~ubuntu24.04.1*%
%TF.CreationDate,2026-06-04T21:37:59+02:00*%
%TF.ProjectId,flight_controller,666c6967-6874-45f6-936f-6e74726f6c6c,rev?*%
%TF.SameCoordinates,Original*%
%TF.FileFunction,Copper,L6,Bot*%
%TF.FilePolarity,Positive*%
%FSLAX46Y46*%
G04 Gerber Fmt 4.6, Leading zero omitted, Abs format (unit mm)*
G04 Created by KiCad (PCBNEW 9.0.7-9.0.7~ubuntu24.04.1) date 2026-06-04 21:37:59*
%MOMM*%
%LPD*%
G01*
G04 APERTURE LIST*
%TA.AperFunction,ComponentPad*%
%ADD10R,1.700000X1.700000*%
%TD*%
%TA.AperFunction,ComponentPad*%
%ADD11C,1.700000*%
%TD*%
%TA.AperFunction,ComponentPad*%
%ADD12C,5.500000*%
%TD*%
%TA.AperFunction,ComponentPad*%
%ADD13R,0.850000X0.850000*%
%TD*%
%TA.AperFunction,ComponentPad*%
%ADD14C,0.850000*%
%TD*%
%TA.AperFunction,ComponentPad*%
%ADD15O,2.100000X1.000000*%
%TD*%
%TA.AperFunction,ComponentPad*%
%ADD16O,1.800000X1.000000*%
%TD*%
%TA.AperFunction,ViaPad*%
%ADD17C,0.500000*%
%TD*%
%TA.AperFunction,ViaPad*%
%ADD18C,0.400000*%
%TD*%
%TA.AperFunction,ViaPad*%
%ADD19C,0.600000*%
%TD*%
%TA.AperFunction,Conductor*%
%ADD20C,0.200000*%
%TD*%
G04 APERTURE END LIST*
D10*
%TO.P,J5,1,Pin_1*%
%TO.N,GNDREF*%
X151250000Y-92000000D03*
D11*
%TO.P,J5,2,Pin_2*%
%TO.N,/GPS_TX*%
X151250000Y-94540000D03*
%TO.P,J5,3,Pin_3*%
%TO.N,/GPS_RX*%
X151250000Y-97080000D03*
%TO.P,J5,4,Pin_4*%
%TO.N,+5V*%
X151250000Y-99620000D03*
%TD*%
D10*
%TO.P,J3,1,Pin_1*%
%TO.N,GNDREF*%
X160880000Y-128000000D03*
D11*
%TO.P,J3,2,Pin_2*%
%TO.N,/VTX_TX*%
X163420000Y-128000000D03*
%TO.P,J3,3,Pin_3*%
%TO.N,/VTX_RX*%
X165960000Y-128000000D03*
%TO.P,J3,4,Pin_4*%
%TO.N,+9V*%
X168500000Y-128000000D03*
%TD*%
D10*
%TO.P,J4,1,Pin_1*%
%TO.N,GNDREF*%
X151250000Y-111000000D03*
D11*
%TO.P,J4,2,Pin_2*%
%TO.N,/TRANSCEIVER_TX*%
X151250000Y-113540000D03*
%TO.P,J4,3,Pin_3*%
%TO.N,/TRANSCEIVER_RX*%
X151250000Y-116080000D03*
%TO.P,J4,4,Pin_4*%
%TO.N,+5V*%
X151250000Y-118620000D03*
%TD*%
D12*
%TO.P,REF\u002A\u002A,*%
%TO.N,*%
X189750000Y-120250000D03*
%TD*%
%TO.P,REF\u002A\u002A,*%
%TO.N,*%
X159250000Y-89750000D03*
%TD*%
%TO.P,REF\u002A\u002A,*%
%TO.N,*%
X159250000Y-120250000D03*
%TD*%
D13*
%TO.P,J1,1,Pin_1*%
%TO.N,GNDREF*%
X193500000Y-102250000D03*
D14*
%TO.P,J1,2,Pin_2*%
%TO.N,/JTAG_SWCLK*%
X193500000Y-103250000D03*
%TO.P,J1,3,Pin_3*%
%TO.N,/JTAG_SWDIO*%
X193500000Y-104250000D03*
%TD*%
D12*
%TO.P,REF\u002A\u002A,*%
%TO.N,*%
X189750000Y-89750000D03*
%TD*%
D15*
%TO.P,J6,SH1,SHELL_GND*%
%TO.N,GNDREF*%
X192482500Y-115820000D03*
%TO.P,J6,SH2,SHELL_GND*%
X192482500Y-107180000D03*
D16*
%TO.P,J6,SH3,SHELL_GND*%
X196662500Y-115820000D03*
%TO.P,J6,SH4,SHELL_GND*%
X196662500Y-107180000D03*
%TD*%
D17*
%TO.N,+3.3V*%
X170850000Y-106200000D03*
X187650000Y-95300000D03*
D18*
X158750000Y-115100000D03*
X167450000Y-100600000D03*
D17*
X183450000Y-112900000D03*
D18*
X176650000Y-112900000D03*
D17*
X180650000Y-93600000D03*
X184150000Y-115900000D03*
X174513909Y-118263909D03*
D18*
X170550000Y-115300000D03*
X170250000Y-111000000D03*
X175250000Y-92200000D03*
X188150000Y-102500000D03*
X167950110Y-117501685D03*
D17*
X164850000Y-87400000D03*
D18*
%TO.N,GNDREF*%
X172093722Y-111618610D03*
X184297235Y-111471365D03*
X169603245Y-106089198D03*
X173914779Y-102286424D03*
X198113794Y-127590761D03*
X174287852Y-96860528D03*
X166650000Y-115100000D03*
X174321402Y-110798846D03*
X177765277Y-107560855D03*
X181930646Y-104398435D03*
X174241829Y-91951021D03*
X197224771Y-128529174D03*
X151884217Y-128422887D03*
X154269998Y-109860002D03*
X182466875Y-117706020D03*
X150781709Y-82359765D03*
X160028624Y-100051574D03*
X197261587Y-81310977D03*
X174118961Y-115605162D03*
X181750000Y-111100000D03*
X167601259Y-98437911D03*
X198200000Y-82200000D03*
X150945804Y-127533864D03*
X180982462Y-99177736D03*
X180806316Y-104839451D03*
X168950000Y-97400000D03*
X165050000Y-112600000D03*
X175759285Y-114497678D03*
X181547594Y-115204811D03*
X179903619Y-93036362D03*
X151670732Y-81421352D03*
X182844413Y-123989163D03*
%TO.N,VBAT*%
X183150000Y-119100000D03*
D17*
X185750000Y-126500000D03*
D18*
X177000000Y-86750000D03*
D17*
X162250000Y-98000000D03*
D18*
X154350000Y-101200000D03*
%TO.N,/ICM_INT1*%
X184050000Y-110800000D03*
X181950000Y-117400000D03*
%TO.N,+5VBAT*%
X190350000Y-106400000D03*
X162250000Y-109500000D03*
%TO.N,/BMP_SCLK*%
X173750000Y-114300000D03*
X174150000Y-110000000D03*
%TO.N,/BOOT*%
X173500000Y-92250000D03*
X180500000Y-98500000D03*
%TO.N,/BMP_SDI*%
X177150000Y-107500000D03*
X175250000Y-114000000D03*
%TO.N,+5V*%
X164550110Y-123401685D03*
D17*
X188050000Y-114800000D03*
D18*
X186750000Y-109000000D03*
X197950000Y-97600000D03*
X170550000Y-123300000D03*
%TO.N,Net-(U2-FB)*%
X159500000Y-100500000D03*
X154750000Y-109500000D03*
%TO.N,Net-(U4-FB)*%
X173648970Y-122483732D03*
X183599998Y-123934715D03*
%TO.N,/FLASH_SCLK*%
X165750000Y-112250000D03*
X166750000Y-114500000D03*
D19*
%TO.N,/ICM_MISO*%
X181000000Y-115750000D03*
X181750000Y-110250000D03*
D18*
%TO.N,/VTX_RX*%
X182313188Y-104936812D03*
%TO.N,/VTX_TX*%
X181250000Y-105250000D03*
%TO.N,/GPS_RX*%
X168249059Y-98382122D03*
X173150000Y-102600000D03*
%TO.N,/GPS_TX*%
X173950000Y-101600000D03*
X168728554Y-98021446D03*
%TD*%
D20*
%TO.N,+3.3V*%
X174513909Y-118263909D02*
X174408550Y-118158550D01*
%TO.N,/ICM_INT1*%
X182350000Y-117000000D02*
X182350000Y-112700000D01*
X184050000Y-111000000D02*
X184050000Y-110800000D01*
X181950000Y-117400000D02*
X182350000Y-117000000D01*
X182350000Y-112700000D02*
X184050000Y-111000000D01*
%TO.N,/BMP_SCLK*%
X173750000Y-114300000D02*
X173750531Y-114299469D01*
X173750531Y-114299469D02*
X173750531Y-110399469D01*
X173750531Y-110399469D02*
X174150000Y-110000000D01*
%TO.N,/BOOT*%
X179750000Y-98500000D02*
X173500000Y-92250000D01*
X180500000Y-98500000D02*
X179750000Y-98500000D01*
%TO.N,/BMP_SDI*%
X175250000Y-109400000D02*
X177150000Y-107500000D01*
X175250000Y-114000000D02*
X175250000Y-109400000D01*
%TO.N,Net-(U2-FB)*%
X154750000Y-105250000D02*
X159500000Y-100500000D01*
X154750000Y-109500000D02*
X154750000Y-105250000D01*
%TO.N,Net-(U4-FB)*%
X182160501Y-122495218D02*
X173660456Y-122495218D01*
X182160501Y-122495218D02*
X183599998Y-123934715D01*
X173660456Y-122495218D02*
X173648970Y-122483732D01*
%TO.N,/FLASH_SCLK*%
X165750000Y-113500000D02*
X165750000Y-112250000D01*
X166750000Y-114500000D02*
X165750000Y-113500000D01*
%TO.N,/ICM_MISO*%
X181000000Y-115750000D02*
X181000000Y-111000000D01*
X181000000Y-111000000D02*
X181750000Y-110250000D01*
%TO.N,/VTX_RX*%
X182313188Y-104936812D02*
X180401000Y-106849000D01*
X180401000Y-111599000D02*
X165960000Y-126040000D01*
X165960000Y-126040000D02*
X165960000Y-128000000D01*
X180401000Y-106849000D02*
X180401000Y-111599000D01*
%TO.N,/VTX_TX*%
X180000000Y-111420000D02*
X163420000Y-128000000D01*
X181250000Y-105250000D02*
X180000000Y-106500000D01*
X180000000Y-106500000D02*
X180000000Y-111420000D01*
%TO.N,/GPS_RX*%
X170000000Y-99000000D02*
X168866937Y-99000000D01*
X173150000Y-102600000D02*
X173150000Y-102150000D01*
X173150000Y-102150000D02*
X170000000Y-99000000D01*
X168866937Y-99000000D02*
X168249059Y-98382122D01*
%TO.N,/GPS_TX*%
X169207108Y-98500000D02*
X168728554Y-98021446D01*
X170250000Y-98500000D02*
X169207108Y-98500000D01*
X173950000Y-101600000D02*
X173350000Y-101600000D01*
X173350000Y-101600000D02*
X170250000Y-98500000D01*
%TD*%
%TA.AperFunction,Conductor*%
%TO.N,GNDREF*%
G36*
X196503736Y-80500726D02*
G01*
X196793796Y-80518271D01*
X196808659Y-80520076D01*
X197090798Y-80571780D01*
X197105335Y-80575363D01*
X197379172Y-80660695D01*
X197393163Y-80666000D01*
X197654743Y-80783727D01*
X197667989Y-80790680D01*
X197913465Y-80939075D01*
X197925776Y-80947573D01*
X198151573Y-81124473D01*
X198162781Y-81134403D01*
X198365596Y-81337218D01*
X198375526Y-81348426D01*
X198495481Y-81501538D01*
X198552422Y-81574217D01*
X198560928Y-81586540D01*
X198709316Y-81832004D01*
X198716275Y-81845263D01*
X198833997Y-82106831D01*
X198839306Y-82120832D01*
X198924635Y-82394663D01*
X198928219Y-82409201D01*
X198979923Y-82691340D01*
X198981728Y-82706205D01*
X198999274Y-82996263D01*
X198999500Y-83003750D01*
X198999500Y-126996249D01*
X198999274Y-127003736D01*
X198981728Y-127293794D01*
X198979923Y-127308659D01*
X198928219Y-127590798D01*
X198924635Y-127605336D01*
X198839306Y-127879167D01*
X198833997Y-127893168D01*
X198716275Y-128154736D01*
X198709316Y-128167995D01*
X198560928Y-128413459D01*
X198552422Y-128425782D01*
X198375526Y-128651573D01*
X198365596Y-128662781D01*
X198162781Y-128865596D01*
X198151573Y-128875526D01*
X197925782Y-129052422D01*
X197913459Y-129060928D01*
X197667995Y-129209316D01*
X197654736Y-129216275D01*
X197393168Y-129333997D01*
X197379167Y-129339306D01*
X197105336Y-129424635D01*
X197090798Y-129428219D01*
X196808659Y-129479923D01*
X196793794Y-129481728D01*
X196503736Y-129499274D01*
X196496249Y-129499500D01*
X162069269Y-129499500D01*
X162002230Y-129479815D01*
X161956475Y-129427011D01*
X161946531Y-129357853D01*
X161975556Y-129294297D01*
X161994958Y-129276234D01*
X162087187Y-129207190D01*
X162087190Y-129207187D01*
X162173350Y-129092093D01*
X162173354Y-129092086D01*
X162223596Y-128957379D01*
X162223598Y-128957372D01*
X162229999Y-128897844D01*
X162230000Y-128897827D01*
X162230000Y-128495564D01*
X162249685Y-128428525D01*
X162302489Y-128382770D01*
X162371647Y-128372826D01*
X162435203Y-128401851D01*
X162468561Y-128448112D01*
X162475939Y-128465925D01*
X162489059Y-128497598D01*
X162565701Y-128612302D01*
X162604024Y-128669657D01*
X162750342Y-128815975D01*
X162750345Y-128815977D01*
X162922402Y-128930941D01*
X163113580Y-129010130D01*
X163316530Y-129050499D01*
X163316534Y-129050500D01*
X163316535Y-129050500D01*
X163523466Y-129050500D01*
X163523467Y-129050499D01*
X163726420Y-129010130D01*
X163917598Y-128930941D01*
X164089655Y-128815977D01*
X164235977Y-128669655D01*
X164350941Y-128497598D01*
X164430130Y-128306420D01*
X164470500Y-128103465D01*
X164470500Y-127896535D01*
X164430130Y-127693580D01*
X164380194Y-127573026D01*
X164372726Y-127503559D01*
X164404001Y-127441080D01*
X164407046Y-127437923D01*
X165447820Y-126397149D01*
X165509142Y-126363666D01*
X165578834Y-126368650D01*
X165634767Y-126410522D01*
X165659184Y-126475986D01*
X165659500Y-126484832D01*
X165659500Y-126904563D01*
X165639815Y-126971602D01*
X165587011Y-127017357D01*
X165582953Y-127019124D01*
X165462404Y-127069057D01*
X165290342Y-127184024D01*
X165144024Y-127330342D01*
X165029058Y-127502403D01*
X164949870Y-127693579D01*
X164949868Y-127693587D01*
X164909500Y-127896530D01*
X164909500Y-128103469D01*
X164949868Y-128306412D01*
X164949870Y-128306420D01*
X165015939Y-128465925D01*
X165029059Y-128497598D01*
X165030664Y-128500000D01*
X165144024Y-128669657D01*
X165290342Y-128815975D01*
X165290345Y-128815977D01*
X165462402Y-128930941D01*
X165653580Y-129010130D01*
X165856530Y-129050499D01*
X165856534Y-129050500D01*
X165856535Y-129050500D01*
X166063466Y-129050500D01*
X166063467Y-129050499D01*
X166266420Y-129010130D01*
X166457598Y-128930941D01*
X166629655Y-128815977D01*
X166775977Y-128669655D01*
X166890941Y-128497598D01*
X166970130Y-128306420D01*
X167010500Y-128103465D01*
X167010500Y-127896535D01*
X167010499Y-127896530D01*
X167449500Y-127896530D01*
X167449500Y-128103469D01*
X167489868Y-128306412D01*
X167489870Y-128306420D01*
X167555939Y-128465925D01*
X167569059Y-128497598D01*
X167570664Y-128500000D01*
X167684024Y-128669657D01*
X167830342Y-128815975D01*
X167830345Y-128815977D01*
X168002402Y-128930941D01*
X168193580Y-129010130D01*
X168396530Y-129050499D01*
X168396534Y-129050500D01*
X168396535Y-129050500D01*
X168603466Y-129050500D01*
X168603467Y-129050499D01*
X168806420Y-129010130D01*
X168997598Y-128930941D01*
X169169655Y-128815977D01*
X169315977Y-128669655D01*
X169430941Y-128497598D01*
X169510130Y-128306420D01*
X169550500Y-128103465D01*
X169550500Y-127896535D01*
X169510130Y-127693580D01*
X169430941Y-127502402D01*
X169315977Y-127330345D01*
X169315975Y-127330342D01*
X169169657Y-127184024D01*
X169002616Y-127072412D01*
X168997598Y-127069059D01*
X168997593Y-127069057D01*
X168806420Y-126989870D01*
X168806412Y-126989868D01*
X168603469Y-126949500D01*
X168603465Y-126949500D01*
X168396535Y-126949500D01*
X168396530Y-126949500D01*
X168193587Y-126989868D01*
X168193579Y-126989870D01*
X168002403Y-127069058D01*
X167830342Y-127184024D01*
X167684024Y-127330342D01*
X167569058Y-127502403D01*
X167489870Y-127693579D01*
X167489868Y-127693587D01*
X167449500Y-127896530D01*
X167010499Y-127896530D01*
X166970130Y-127693580D01*
X166890941Y-127502402D01*
X166775977Y-127330345D01*
X166775975Y-127330342D01*
X166629657Y-127184024D01*
X166457595Y-127069057D01*
X166337047Y-127019124D01*
X166282643Y-126975282D01*
X166260579Y-126908988D01*
X166260500Y-126904563D01*
X166260500Y-126440691D01*
X185299500Y-126440691D01*
X185299500Y-126559309D01*
X185330201Y-126673886D01*
X185389511Y-126776613D01*
X185473387Y-126860489D01*
X185576114Y-126919799D01*
X185690691Y-126950500D01*
X185690694Y-126950500D01*
X185809306Y-126950500D01*
X185809309Y-126950500D01*
X185923886Y-126919799D01*
X186026613Y-126860489D01*
X186110489Y-126776613D01*
X186169799Y-126673886D01*
X186200500Y-126559309D01*
X186200500Y-126440691D01*
X186169799Y-126326114D01*
X186110489Y-126223387D01*
X186026613Y-126139511D01*
X185923886Y-126080201D01*
X185809309Y-126049500D01*
X185690691Y-126049500D01*
X185576114Y-126080201D01*
X185576112Y-126080201D01*
X185576112Y-126080202D01*
X185473387Y-126139511D01*
X185473384Y-126139513D01*
X185389513Y-126223384D01*
X185389511Y-126223387D01*
X185330201Y-126326114D01*
X185299500Y-126440691D01*
X166260500Y-126440691D01*
X166260500Y-126215832D01*
X166280185Y-126148793D01*
X166296814Y-126128156D01*
X169177697Y-123247273D01*
X170149500Y-123247273D01*
X170149500Y-123352727D01*
X170176793Y-123454587D01*
X170229520Y-123545913D01*
X170304087Y-123620480D01*
X170395413Y-123673207D01*
X170497273Y-123700500D01*
X170497275Y-123700500D01*
X170602725Y-123700500D01*
X170602727Y-123700500D01*
X170704587Y-123673207D01*
X170795913Y-123620480D01*
X170870480Y-123545913D01*
X170923207Y-123454587D01*
X170950500Y-123352727D01*
X170950500Y-123247273D01*
X170923207Y-123145413D01*
X170870480Y-123054087D01*
X170795913Y-122979520D01*
X170704587Y-122926793D01*
X170602727Y-122899500D01*
X170497273Y-122899500D01*
X170395413Y-122926793D01*
X170395410Y-122926794D01*
X170304085Y-122979521D01*
X170229521Y-123054085D01*
X170176794Y-123145410D01*
X170176793Y-123145413D01*
X170149500Y-123247273D01*
X169177697Y-123247273D01*
X169993965Y-122431005D01*
X173248470Y-122431005D01*
X173248470Y-122536459D01*
X173275763Y-122638319D01*
X173328490Y-122729645D01*
X173403057Y-122804212D01*
X173494383Y-122856939D01*
X173596243Y-122884232D01*
X173596245Y-122884232D01*
X173701695Y-122884232D01*
X173701697Y-122884232D01*
X173803557Y-122856939D01*
X173880820Y-122812330D01*
X173942820Y-122795718D01*
X181984668Y-122795718D01*
X182051707Y-122815403D01*
X182072349Y-122832037D01*
X183165661Y-123925349D01*
X183197755Y-123980936D01*
X183226791Y-124089303D01*
X183226792Y-124089304D01*
X183279518Y-124180628D01*
X183354085Y-124255195D01*
X183445411Y-124307922D01*
X183547271Y-124335215D01*
X183547273Y-124335215D01*
X183652723Y-124335215D01*
X183652725Y-124335215D01*
X183754585Y-124307922D01*
X183845911Y-124255195D01*
X183920478Y-124180628D01*
X183973205Y-124089302D01*
X184000498Y-123987442D01*
X184000498Y-123881988D01*
X183973205Y-123780128D01*
X183920478Y-123688802D01*
X183845911Y-123614235D01*
X183754587Y-123561509D01*
X183754586Y-123561508D01*
X183696383Y-123545913D01*
X183652725Y-123534215D01*
X183652724Y-123534215D01*
X183646219Y-123532472D01*
X183590632Y-123500378D01*
X182345013Y-122254759D01*
X182345005Y-122254753D01*
X182276496Y-122215200D01*
X182276491Y-122215197D01*
X182251014Y-122208370D01*
X182200063Y-122194718D01*
X182200061Y-122194718D01*
X173977711Y-122194718D01*
X173910672Y-122175033D01*
X173901661Y-122167772D01*
X173901333Y-122168201D01*
X173894886Y-122163254D01*
X173803559Y-122110526D01*
X173803558Y-122110525D01*
X173803557Y-122110525D01*
X173701697Y-122083232D01*
X173596243Y-122083232D01*
X173494383Y-122110525D01*
X173494380Y-122110526D01*
X173403055Y-122163253D01*
X173328491Y-122237817D01*
X173275764Y-122329142D01*
X173275763Y-122329145D01*
X173248470Y-122431005D01*
X169993965Y-122431005D01*
X172340673Y-120084296D01*
X186799500Y-120084296D01*
X186799500Y-120415703D01*
X186836601Y-120744991D01*
X186836604Y-120745005D01*
X186910346Y-121068093D01*
X186910349Y-121068101D01*
X187019799Y-121380890D01*
X187163582Y-121679458D01*
X187163584Y-121679461D01*
X187339896Y-121960060D01*
X187438123Y-122083232D01*
X187543363Y-122215200D01*
X187546516Y-122219153D01*
X187780847Y-122453484D01*
X188039940Y-122660104D01*
X188320539Y-122836416D01*
X188619113Y-122980202D01*
X188830259Y-123054085D01*
X188931898Y-123089650D01*
X188931906Y-123089653D01*
X188931909Y-123089653D01*
X188931910Y-123089654D01*
X189254994Y-123163396D01*
X189255003Y-123163397D01*
X189255008Y-123163398D01*
X189474533Y-123188132D01*
X189584297Y-123200499D01*
X189584300Y-123200500D01*
X189584303Y-123200500D01*
X189915700Y-123200500D01*
X189915701Y-123200499D01*
X190083996Y-123181537D01*
X190244991Y-123163398D01*
X190244994Y-123163397D01*
X190245006Y-123163396D01*
X190568090Y-123089654D01*
X190880887Y-122980202D01*
X191179461Y-122836416D01*
X191460060Y-122660104D01*
X191719153Y-122453484D01*
X191953484Y-122219153D01*
X192160104Y-121960060D01*
X192336416Y-121679461D01*
X192480202Y-121380887D01*
X192589654Y-121068090D01*
X192663396Y-120745006D01*
X192700500Y-120415697D01*
X192700500Y-120084303D01*
X192663396Y-119754994D01*
X192589654Y-119431910D01*
X192585654Y-119420480D01*
X192527606Y-119254586D01*
X192480202Y-119119113D01*
X192336416Y-118820539D01*
X192160104Y-118539940D01*
X191953484Y-118280847D01*
X191719153Y-118046516D01*
X191460060Y-117839896D01*
X191179461Y-117663584D01*
X191179458Y-117663582D01*
X190880890Y-117519799D01*
X190568101Y-117410349D01*
X190568093Y-117410346D01*
X190325777Y-117355039D01*
X190245006Y-117336604D01*
X190245003Y-117336603D01*
X190244991Y-117336601D01*
X189915703Y-117299500D01*
X189915697Y-117299500D01*
X189584303Y-117299500D01*
X189584296Y-117299500D01*
X189255008Y-117336601D01*
X189254994Y-117336604D01*
X188931906Y-117410346D01*
X188931898Y-117410349D01*
X188619109Y-117519799D01*
X188320541Y-117663582D01*
X188039941Y-117839895D01*
X187780847Y-118046515D01*
X187546515Y-118280847D01*
X187339895Y-118539941D01*
X187163582Y-118820541D01*
X187019799Y-119119109D01*
X186910349Y-119431898D01*
X186910346Y-119431906D01*
X186836604Y-119754994D01*
X186836601Y-119755008D01*
X186799500Y-120084296D01*
X172340673Y-120084296D01*
X173377696Y-119047273D01*
X182749500Y-119047273D01*
X182749500Y-119152727D01*
X182776793Y-119254587D01*
X182829520Y-119345913D01*
X182904087Y-119420480D01*
X182995413Y-119473207D01*
X183097273Y-119500500D01*
X183097275Y-119500500D01*
X183202725Y-119500500D01*
X183202727Y-119500500D01*
X183304587Y-119473207D01*
X183395913Y-119420480D01*
X183470480Y-119345913D01*
X183523207Y-119254587D01*
X183550500Y-119152727D01*
X183550500Y-119047273D01*
X183523207Y-118945413D01*
X183470480Y-118854087D01*
X183395913Y-118779520D01*
X183304587Y-118726793D01*
X183202727Y-118699500D01*
X183097273Y-118699500D01*
X182995413Y-118726793D01*
X182995410Y-118726794D01*
X182904085Y-118779521D01*
X182829521Y-118854085D01*
X182776794Y-118945410D01*
X182776793Y-118945413D01*
X182749500Y-119047273D01*
X173377696Y-119047273D01*
X173940702Y-118484267D01*
X174002023Y-118450784D01*
X174071715Y-118455768D01*
X174127648Y-118497640D01*
X174135767Y-118509947D01*
X174153420Y-118540522D01*
X174237296Y-118624398D01*
X174340023Y-118683708D01*
X174454600Y-118714409D01*
X174454603Y-118714409D01*
X174573215Y-118714409D01*
X174573218Y-118714409D01*
X174687795Y-118683708D01*
X174790522Y-118624398D01*
X174874398Y-118540522D01*
X174933708Y-118437795D01*
X174964409Y-118323218D01*
X174964409Y-118204600D01*
X174933708Y-118090023D01*
X174874398Y-117987296D01*
X174790522Y-117903420D01*
X174771590Y-117892489D01*
X174759947Y-117885767D01*
X174711733Y-117835198D01*
X174698512Y-117766591D01*
X174724481Y-117701727D01*
X174734260Y-117690709D01*
X175077696Y-117347273D01*
X181549500Y-117347273D01*
X181549500Y-117452727D01*
X181576793Y-117554587D01*
X181629520Y-117645913D01*
X181704087Y-117720480D01*
X181795413Y-117773207D01*
X181897273Y-117800500D01*
X181897275Y-117800500D01*
X182002725Y-117800500D01*
X182002727Y-117800500D01*
X182104587Y-117773207D01*
X182195913Y-117720480D01*
X182270480Y-117645913D01*
X182323207Y-117554587D01*
X182350500Y-117452727D01*
X182350500Y-117452723D01*
X182352242Y-117446222D01*
X182384334Y-117390636D01*
X182590460Y-117184511D01*
X182608025Y-117154087D01*
X182630021Y-117115989D01*
X182650500Y-117039562D01*
X182650500Y-115840691D01*
X183699500Y-115840691D01*
X183699500Y-115959309D01*
X183730201Y-116073886D01*
X183789511Y-116176613D01*
X183873387Y-116260489D01*
X183976114Y-116319799D01*
X184090691Y-116350500D01*
X184090694Y-116350500D01*
X184209306Y-116350500D01*
X184209309Y-116350500D01*
X184323886Y-116319799D01*
X184426613Y-116260489D01*
X184510489Y-116176613D01*
X184569799Y-116073886D01*
X184600500Y-115959309D01*
X184600500Y-115840691D01*
X184569799Y-115726114D01*
X184510489Y-115623387D01*
X184457102Y-115570000D01*
X190962638Y-115570000D01*
X191765512Y-115570000D01*
X191748295Y-115579940D01*
X191692440Y-115635795D01*
X191652944Y-115704204D01*
X191632500Y-115780504D01*
X191632500Y-115859496D01*
X191652944Y-115935796D01*
X191692440Y-116004205D01*
X191748295Y-116060060D01*
X191765512Y-116070000D01*
X190962638Y-116070000D01*
X190970930Y-116111690D01*
X190970930Y-116111692D01*
X191046307Y-116293671D01*
X191046314Y-116293684D01*
X191155748Y-116457462D01*
X191155751Y-116457466D01*
X191295033Y-116596748D01*
X191295037Y-116596751D01*
X191458815Y-116706185D01*
X191458828Y-116706192D01*
X191640806Y-116781569D01*
X191640818Y-116781572D01*
X191834004Y-116819999D01*
X191834008Y-116820000D01*
X192232500Y-116820000D01*
X192232500Y-116120000D01*
X192732500Y-116120000D01*
X192732500Y-116820000D01*
X193130992Y-116820000D01*
X193130995Y-116819999D01*
X193324181Y-116781572D01*
X193324193Y-116781569D01*
X193506171Y-116706192D01*
X193506184Y-116706185D01*
X193669962Y-116596751D01*
X193669966Y-116596748D01*
X193809248Y-116457466D01*
X193809251Y-116457462D01*
X193918685Y-116293684D01*
X193918692Y-116293671D01*
X193994069Y-116111692D01*
X193994069Y-116111690D01*
X194002362Y-116070000D01*
X193199488Y-116070000D01*
X193216705Y-116060060D01*
X193272560Y-116004205D01*
X193312056Y-115935796D01*
X193332500Y-115859496D01*
X193332500Y-115780504D01*
X193312056Y-115704204D01*
X193272560Y-115635795D01*
X193216705Y-115579940D01*
X193199488Y-115570000D01*
X194002362Y-115570000D01*
X195292638Y-115570000D01*
X196095512Y-115570000D01*
X196078295Y-115579940D01*
X196022440Y-115635795D01*
X195982944Y-115704204D01*
X195962500Y-115780504D01*
X195962500Y-115859496D01*
X195982944Y-115935796D01*
X196022440Y-116004205D01*
X196078295Y-116060060D01*
X196095512Y-116070000D01*
X195292638Y-116070000D01*
X195300930Y-116111690D01*
X195300930Y-116111692D01*
X195376307Y-116293671D01*
X195376314Y-116293684D01*
X195485748Y-116457462D01*
X195485751Y-116457466D01*
X195625033Y-116596748D01*
X195625037Y-116596751D01*
X195788815Y-116706185D01*
X195788828Y-116706192D01*
X195970806Y-116781569D01*
X195970818Y-116781572D01*
X196164004Y-116819999D01*
X196164008Y-116820000D01*
X196412500Y-116820000D01*
X196412500Y-116120000D01*
X196912500Y-116120000D01*
X196912500Y-116820000D01*
X197160992Y-116820000D01*
X197160995Y-116819999D01*
X197354181Y-116781572D01*
X197354193Y-116781569D01*
X197536171Y-116706192D01*
X197536184Y-116706185D01*
X197699962Y-116596751D01*
X197699966Y-116596748D01*
X197839248Y-116457466D01*
X197839251Y-116457462D01*
X197948685Y-116293684D01*
X197948692Y-116293671D01*
X198024069Y-116111692D01*
X198024069Y-116111690D01*
X198032362Y-116070000D01*
X197229488Y-116070000D01*
X197246705Y-116060060D01*
X197302560Y-116004205D01*
X197342056Y-115935796D01*
X197362500Y-115859496D01*
X197362500Y-115780504D01*
X197342056Y-115704204D01*
X197302560Y-115635795D01*
X197246705Y-115579940D01*
X197229488Y-115570000D01*
X198032362Y-115570000D01*
X198024069Y-115528309D01*
X198024069Y-115528307D01*
X197948692Y-115346328D01*
X197948685Y-115346315D01*
X197839251Y-115182537D01*
X197839248Y-115182533D01*
X197699966Y-115043251D01*
X197699962Y-115043248D01*
X197536184Y-114933814D01*
X197536171Y-114933807D01*
X197354193Y-114858430D01*
X197354181Y-114858427D01*
X197160995Y-114820000D01*
X196912500Y-114820000D01*
X196912500Y-115520000D01*
X196412500Y-115520000D01*
X196412500Y-114820000D01*
X196164004Y-114820000D01*
X195970818Y-114858427D01*
X195970806Y-114858430D01*
X195788828Y-114933807D01*
X195788815Y-114933814D01*
X195625037Y-115043248D01*
X195625033Y-115043251D01*
X195485751Y-115182533D01*
X195485748Y-115182537D01*
X195376314Y-115346315D01*
X195376307Y-115346328D01*
X195300930Y-115528307D01*
X195300930Y-115528309D01*
X195292638Y-115570000D01*
X194002362Y-115570000D01*
X193994069Y-115528309D01*
X193994069Y-115528307D01*
X193918692Y-115346328D01*
X193918685Y-115346315D01*
X193809251Y-115182537D01*
X193809248Y-115182533D01*
X193669966Y-115043251D01*
X193669962Y-115043248D01*
X193506184Y-114933814D01*
X193506174Y-114933809D01*
X193496657Y-114929867D01*
X193442254Y-114886026D01*
X193420189Y-114819731D01*
X193437469Y-114752032D01*
X193441148Y-114746597D01*
X193443012Y-114743367D01*
X193443015Y-114743365D01*
X193518781Y-114612135D01*
X193558000Y-114465766D01*
X193558000Y-114314234D01*
X193518781Y-114167865D01*
X193443015Y-114036635D01*
X193335865Y-113929485D01*
X193270250Y-113891602D01*
X193204636Y-113853719D01*
X193097005Y-113824880D01*
X193058266Y-113814500D01*
X192906734Y-113814500D01*
X192760363Y-113853719D01*
X192629135Y-113929485D01*
X192629132Y-113929487D01*
X192521987Y-114036632D01*
X192521985Y-114036635D01*
X192446219Y-114167863D01*
X192407000Y-114314234D01*
X192407000Y-114465765D01*
X192446219Y-114612136D01*
X192481479Y-114673207D01*
X192521985Y-114743365D01*
X192629135Y-114850515D01*
X192668435Y-114873205D01*
X192670500Y-114874397D01*
X192718716Y-114924964D01*
X192732500Y-114981784D01*
X192732500Y-115520000D01*
X192232500Y-115520000D01*
X192232500Y-114820000D01*
X191834004Y-114820000D01*
X191640818Y-114858427D01*
X191640806Y-114858430D01*
X191458828Y-114933807D01*
X191458815Y-114933814D01*
X191295037Y-115043248D01*
X191295033Y-115043251D01*
X191155751Y-115182533D01*
X191155748Y-115182537D01*
X191046314Y-115346315D01*
X191046307Y-115346328D01*
X190970930Y-115528307D01*
X190970930Y-115528309D01*
X190962638Y-115570000D01*
X184457102Y-115570000D01*
X184426613Y-115539511D01*
X184323886Y-115480201D01*
X184209309Y-115449500D01*
X184090691Y-115449500D01*
X183976114Y-115480201D01*
X183976112Y-115480201D01*
X183976112Y-115480202D01*
X183873387Y-115539511D01*
X183873384Y-115539513D01*
X183789513Y-115623384D01*
X183789511Y-115623387D01*
X183730201Y-115726114D01*
X183699500Y-115840691D01*
X182650500Y-115840691D01*
X182650500Y-114740691D01*
X187599500Y-114740691D01*
X187599500Y-114859309D01*
X187630201Y-114973886D01*
X187689511Y-115076613D01*
X187773387Y-115160489D01*
X187876114Y-115219799D01*
X187990691Y-115250500D01*
X187990694Y-115250500D01*
X188109306Y-115250500D01*
X188109309Y-115250500D01*
X188223886Y-115219799D01*
X188326613Y-115160489D01*
X188410489Y-115076613D01*
X188469799Y-114973886D01*
X188500500Y-114859309D01*
X188500500Y-114740691D01*
X188469799Y-114626114D01*
X188410489Y-114523387D01*
X188326613Y-114439511D01*
X188223886Y-114380201D01*
X188109309Y-114349500D01*
X187990691Y-114349500D01*
X187876114Y-114380201D01*
X187876112Y-114380201D01*
X187876112Y-114380202D01*
X187773387Y-114439511D01*
X187773384Y-114439513D01*
X187689513Y-114523384D01*
X187689511Y-114523387D01*
X187650764Y-114590499D01*
X187630201Y-114626114D01*
X187599500Y-114740691D01*
X182650500Y-114740691D01*
X182650500Y-112875833D01*
X182670185Y-112808794D01*
X182686813Y-112788157D01*
X182805952Y-112669018D01*
X182867271Y-112635536D01*
X182936963Y-112640520D01*
X182992897Y-112682391D01*
X183017314Y-112747855D01*
X183013405Y-112788794D01*
X182999500Y-112840689D01*
X182999500Y-112840691D01*
X182999500Y-112959309D01*
X183030201Y-113073886D01*
X183089511Y-113176613D01*
X183173387Y-113260489D01*
X183276114Y-113319799D01*
X183390691Y-113350500D01*
X183390694Y-113350500D01*
X183509306Y-113350500D01*
X183509309Y-113350500D01*
X183623886Y-113319799D01*
X183726613Y-113260489D01*
X183810489Y-113176613D01*
X183869799Y-113073886D01*
X183900500Y-112959309D01*
X183900500Y-112840691D01*
X183869799Y-112726114D01*
X183810489Y-112623387D01*
X183726613Y-112539511D01*
X183623886Y-112480201D01*
X183509309Y-112449500D01*
X183390691Y-112449500D01*
X183390689Y-112449500D01*
X183338794Y-112463405D01*
X183268944Y-112461742D01*
X183211082Y-112422578D01*
X183183579Y-112358349D01*
X183195166Y-112289447D01*
X183219018Y-112255952D01*
X184290460Y-111184511D01*
X184296986Y-111173207D01*
X184330021Y-111115989D01*
X184335501Y-111095535D01*
X184341091Y-111084337D01*
X184353289Y-111071204D01*
X184364356Y-111052036D01*
X184370480Y-111045913D01*
X184423207Y-110954587D01*
X184450500Y-110852727D01*
X184450500Y-110747273D01*
X184423207Y-110645413D01*
X184370480Y-110554087D01*
X184295913Y-110479520D01*
X184204587Y-110426793D01*
X184102727Y-110399500D01*
X183997273Y-110399500D01*
X183895413Y-110426793D01*
X183895410Y-110426794D01*
X183804085Y-110479521D01*
X183729521Y-110554085D01*
X183676794Y-110645410D01*
X183676793Y-110645413D01*
X183649500Y-110747273D01*
X183649500Y-110852732D01*
X183656921Y-110880427D01*
X183655257Y-110950277D01*
X183624827Y-111000200D01*
X182165489Y-112459540D01*
X182109541Y-112515487D01*
X182109535Y-112515495D01*
X182069982Y-112584004D01*
X182069979Y-112584009D01*
X182063267Y-112609059D01*
X182051203Y-112654085D01*
X182049500Y-112660439D01*
X182049500Y-116824167D01*
X182040855Y-116853604D01*
X182034332Y-116883595D01*
X182030577Y-116888610D01*
X182029815Y-116891206D01*
X182013180Y-116911849D01*
X181959364Y-116965664D01*
X181903778Y-116997757D01*
X181795411Y-117026793D01*
X181795410Y-117026794D01*
X181704085Y-117079521D01*
X181629521Y-117154085D01*
X181576794Y-117245410D01*
X181576793Y-117245413D01*
X181549500Y-117347273D01*
X175077696Y-117347273D01*
X180487821Y-111937149D01*
X180549142Y-111903666D01*
X180618834Y-111908650D01*
X180674767Y-111950522D01*
X180699184Y-112015986D01*
X180699500Y-112024832D01*
X180699500Y-115291323D01*
X180679815Y-115358362D01*
X180663182Y-115379004D01*
X180599500Y-115442686D01*
X180533608Y-115556812D01*
X180516549Y-115620478D01*
X180499500Y-115684108D01*
X180499500Y-115815892D01*
X180509175Y-115852001D01*
X180533608Y-115943187D01*
X180552862Y-115976535D01*
X180599500Y-116057314D01*
X180692686Y-116150500D01*
X180806814Y-116216392D01*
X180934108Y-116250500D01*
X180934110Y-116250500D01*
X181065890Y-116250500D01*
X181065892Y-116250500D01*
X181193186Y-116216392D01*
X181307314Y-116150500D01*
X181400500Y-116057314D01*
X181466392Y-115943186D01*
X181500500Y-115815892D01*
X181500500Y-115684108D01*
X181466392Y-115556814D01*
X181400500Y-115442686D01*
X181336818Y-115379004D01*
X181303334Y-115317680D01*
X181300500Y-115291323D01*
X181300500Y-111175832D01*
X181320185Y-111108793D01*
X181336815Y-111088155D01*
X181638151Y-110786818D01*
X181699474Y-110753334D01*
X181725832Y-110750500D01*
X181815890Y-110750500D01*
X181815892Y-110750500D01*
X181943186Y-110716392D01*
X182057314Y-110650500D01*
X182150500Y-110557314D01*
X182216392Y-110443186D01*
X182250500Y-110315892D01*
X182250500Y-110184108D01*
X182216392Y-110056814D01*
X182150500Y-109942686D01*
X182057314Y-109849500D01*
X181959123Y-109792809D01*
X181943187Y-109783608D01*
X181879539Y-109766554D01*
X181815892Y-109749500D01*
X181684108Y-109749500D01*
X181556812Y-109783608D01*
X181442686Y-109849500D01*
X181442683Y-109849502D01*
X181349502Y-109942683D01*
X181349500Y-109942686D01*
X181283608Y-110056812D01*
X181249500Y-110184108D01*
X181249500Y-110274166D01*
X181229815Y-110341205D01*
X181213181Y-110361847D01*
X180913181Y-110661847D01*
X180851858Y-110695332D01*
X180782166Y-110690348D01*
X180726233Y-110648476D01*
X180701816Y-110583012D01*
X180701500Y-110574166D01*
X180701500Y-108947273D01*
X186349500Y-108947273D01*
X186349500Y-109052727D01*
X186374568Y-109146281D01*
X186376793Y-109154586D01*
X186376794Y-109154589D01*
X186390922Y-109179059D01*
X186429520Y-109245913D01*
X186504087Y-109320480D01*
X186595413Y-109373207D01*
X186697273Y-109400500D01*
X186697275Y-109400500D01*
X186802725Y-109400500D01*
X186802727Y-109400500D01*
X186904587Y-109373207D01*
X186995913Y-109320480D01*
X187070480Y-109245913D01*
X187123207Y-109154587D01*
X187150500Y-109052727D01*
X187150500Y-108947273D01*
X187123207Y-108845413D01*
X187070480Y-108754087D01*
X186995913Y-108679520D01*
X186916192Y-108633493D01*
X186904591Y-108626795D01*
X186904589Y-108626794D01*
X186904587Y-108626793D01*
X186802727Y-108599500D01*
X186697273Y-108599500D01*
X186595413Y-108626793D01*
X186595410Y-108626794D01*
X186504085Y-108679521D01*
X186429521Y-108754085D01*
X186376794Y-108845410D01*
X186376793Y-108845413D01*
X186349500Y-108947273D01*
X180701500Y-108947273D01*
X180701500Y-107024833D01*
X180710144Y-106995392D01*
X180716668Y-106965406D01*
X180720422Y-106960390D01*
X180721185Y-106957794D01*
X180737819Y-106937152D01*
X180744971Y-106930000D01*
X190962638Y-106930000D01*
X191765512Y-106930000D01*
X191748295Y-106939940D01*
X191692440Y-106995795D01*
X191652944Y-107064204D01*
X191632500Y-107140504D01*
X191632500Y-107219496D01*
X191652944Y-107295796D01*
X191692440Y-107364205D01*
X191748295Y-107420060D01*
X191765512Y-107430000D01*
X190962638Y-107430000D01*
X190970930Y-107471690D01*
X190970930Y-107471692D01*
X191046307Y-107653671D01*
X191046314Y-107653684D01*
X191155748Y-107817462D01*
X191155751Y-107817466D01*
X191295033Y-107956748D01*
X191295037Y-107956751D01*
X191458815Y-108066185D01*
X191458828Y-108066192D01*
X191640806Y-108141569D01*
X191640818Y-108141572D01*
X191834004Y-108179999D01*
X191834008Y-108180000D01*
X192232500Y-108180000D01*
X192232500Y-107480000D01*
X192732500Y-107480000D01*
X192732500Y-108018215D01*
X192712815Y-108085254D01*
X192670502Y-108125601D01*
X192629138Y-108149483D01*
X192629132Y-108149487D01*
X192521987Y-108256632D01*
X192521985Y-108256635D01*
X192446219Y-108387863D01*
X192407000Y-108534234D01*
X192407000Y-108685765D01*
X192446219Y-108832136D01*
X192453883Y-108845410D01*
X192521985Y-108963365D01*
X192629135Y-109070515D01*
X192760365Y-109146281D01*
X192906734Y-109185500D01*
X192906736Y-109185500D01*
X193058264Y-109185500D01*
X193058266Y-109185500D01*
X193204635Y-109146281D01*
X193335865Y-109070515D01*
X193443015Y-108963365D01*
X193518781Y-108832135D01*
X193558000Y-108685766D01*
X193558000Y-108534234D01*
X193518781Y-108387865D01*
X193443015Y-108256635D01*
X193443013Y-108256633D01*
X193438951Y-108249597D01*
X193441154Y-108248325D01*
X193420541Y-108195022D01*
X193434573Y-108126576D01*
X193483382Y-108076582D01*
X193496663Y-108070129D01*
X193506182Y-108066186D01*
X193506184Y-108066185D01*
X193669962Y-107956751D01*
X193669966Y-107956748D01*
X193809248Y-107817466D01*
X193809251Y-107817462D01*
X193918685Y-107653684D01*
X193918692Y-107653671D01*
X193994069Y-107471692D01*
X193994069Y-107471690D01*
X194002362Y-107430000D01*
X193199488Y-107430000D01*
X193216705Y-107420060D01*
X193272560Y-107364205D01*
X193312056Y-107295796D01*
X193332500Y-107219496D01*
X193332500Y-107140504D01*
X193312056Y-107064204D01*
X193272560Y-106995795D01*
X193216705Y-106939940D01*
X193199488Y-106930000D01*
X194002362Y-106930000D01*
X195292638Y-106930000D01*
X196095512Y-106930000D01*
X196078295Y-106939940D01*
X196022440Y-106995795D01*
X195982944Y-107064204D01*
X195962500Y-107140504D01*
X195962500Y-107219496D01*
X195982944Y-107295796D01*
X196022440Y-107364205D01*
X196078295Y-107420060D01*
X196095512Y-107430000D01*
X195292638Y-107430000D01*
X195300930Y-107471690D01*
X195300930Y-107471692D01*
X195376307Y-107653671D01*
X195376314Y-107653684D01*
X195485748Y-107817462D01*
X195485751Y-107817466D01*
X195625033Y-107956748D01*
X195625037Y-107956751D01*
X195788815Y-108066185D01*
X195788828Y-108066192D01*
X195970806Y-108141569D01*
X195970818Y-108141572D01*
X196164004Y-108179999D01*
X196164008Y-108180000D01*
X196412500Y-108180000D01*
X196412500Y-107480000D01*
X196912500Y-107480000D01*
X196912500Y-108180000D01*
X197160992Y-108180000D01*
X197160995Y-108179999D01*
X197354181Y-108141572D01*
X197354193Y-108141569D01*
X197536171Y-108066192D01*
X197536184Y-108066185D01*
X197699962Y-107956751D01*
X197699966Y-107956748D01*
X197839248Y-107817466D01*
X197839251Y-107817462D01*
X197948685Y-107653684D01*
X197948692Y-107653671D01*
X198024069Y-107471692D01*
X198024069Y-107471690D01*
X198032362Y-107430000D01*
X197229488Y-107430000D01*
X197246705Y-107420060D01*
X197302560Y-107364205D01*
X197342056Y-107295796D01*
X197362500Y-107219496D01*
X197362500Y-107140504D01*
X197342056Y-107064204D01*
X197302560Y-106995795D01*
X197246705Y-106939940D01*
X197229488Y-106930000D01*
X198032362Y-106930000D01*
X198024069Y-106888309D01*
X198024069Y-106888307D01*
X197948692Y-106706328D01*
X197948685Y-106706315D01*
X197839251Y-106542537D01*
X197839248Y-106542533D01*
X197699966Y-106403251D01*
X197699962Y-106403248D01*
X197536184Y-106293814D01*
X197536171Y-106293807D01*
X197354193Y-106218430D01*
X197354181Y-106218427D01*
X197160995Y-106180000D01*
X196912500Y-106180000D01*
X196912500Y-106880000D01*
X196412500Y-106880000D01*
X196412500Y-106180000D01*
X196164004Y-106180000D01*
X195970818Y-106218427D01*
X195970806Y-106218430D01*
X195788828Y-106293807D01*
X195788815Y-106293814D01*
X195625037Y-106403248D01*
X195625033Y-106403251D01*
X195485751Y-106542533D01*
X195485748Y-106542537D01*
X195376314Y-106706315D01*
X195376307Y-106706328D01*
X195300930Y-106888307D01*
X195300930Y-106888309D01*
X195292638Y-106930000D01*
X194002362Y-106930000D01*
X193994069Y-106888309D01*
X193994069Y-106888307D01*
X193918692Y-106706328D01*
X193918685Y-106706315D01*
X193809251Y-106542537D01*
X193809248Y-106542533D01*
X193669966Y-106403251D01*
X193669962Y-106403248D01*
X193506184Y-106293814D01*
X193506171Y-106293807D01*
X193324193Y-106218430D01*
X193324181Y-106218427D01*
X193130995Y-106180000D01*
X192732500Y-106180000D01*
X192732500Y-106880000D01*
X192232500Y-106880000D01*
X192232500Y-106180000D01*
X191834004Y-106180000D01*
X191640818Y-106218427D01*
X191640806Y-106218430D01*
X191458828Y-106293807D01*
X191458815Y-106293814D01*
X191295037Y-106403248D01*
X191295033Y-106403251D01*
X191155751Y-106542533D01*
X191155748Y-106542537D01*
X191046314Y-106706315D01*
X191046307Y-106706328D01*
X190970930Y-106888307D01*
X190970930Y-106888309D01*
X190962638Y-106930000D01*
X180744971Y-106930000D01*
X181327698Y-106347273D01*
X189949500Y-106347273D01*
X189949500Y-106452727D01*
X189973565Y-106542537D01*
X189976793Y-106554586D01*
X189976794Y-106554589D01*
X189990922Y-106579059D01*
X190029520Y-106645913D01*
X190104087Y-106720480D01*
X190195413Y-106773207D01*
X190297273Y-106800500D01*
X190297275Y-106800500D01*
X190402725Y-106800500D01*
X190402727Y-106800500D01*
X190504587Y-106773207D01*
X190595913Y-106720480D01*
X190670480Y-106645913D01*
X190723207Y-106554587D01*
X190750500Y-106452727D01*
X190750500Y-106347273D01*
X190723207Y-106245413D01*
X190670480Y-106154087D01*
X190595913Y-106079520D01*
X190504587Y-106026793D01*
X190402727Y-105999500D01*
X190297273Y-105999500D01*
X190195413Y-106026793D01*
X190195410Y-106026794D01*
X190104085Y-106079521D01*
X190029521Y-106154085D01*
X189976794Y-106245410D01*
X189976793Y-106245413D01*
X189949500Y-106347273D01*
X181327698Y-106347273D01*
X181423506Y-106251465D01*
X181835460Y-105839511D01*
X182303824Y-105371146D01*
X182359410Y-105339054D01*
X182365911Y-105337312D01*
X182365915Y-105337312D01*
X182467775Y-105310019D01*
X182559101Y-105257292D01*
X182633668Y-105182725D01*
X182686395Y-105091399D01*
X182713688Y-104989539D01*
X182713688Y-104884085D01*
X182686395Y-104782225D01*
X182633668Y-104690899D01*
X182559101Y-104616332D01*
X182467775Y-104563605D01*
X182365915Y-104536312D01*
X182260461Y-104536312D01*
X182158601Y-104563605D01*
X182158598Y-104563606D01*
X182067273Y-104616333D01*
X181992709Y-104690897D01*
X181939982Y-104782222D01*
X181939981Y-104782223D01*
X181910945Y-104890590D01*
X181902926Y-104904477D01*
X181900002Y-104917923D01*
X181878851Y-104946177D01*
X181776423Y-105048605D01*
X181715100Y-105082090D01*
X181645408Y-105077106D01*
X181589475Y-105035234D01*
X181581359Y-105022930D01*
X181570480Y-105004087D01*
X181495913Y-104929520D01*
X181404587Y-104876793D01*
X181302727Y-104849500D01*
X181197273Y-104849500D01*
X181095413Y-104876793D01*
X181095410Y-104876794D01*
X181004085Y-104929521D01*
X180929521Y-105004085D01*
X180876794Y-105095410D01*
X180876793Y-105095411D01*
X180847757Y-105203778D01*
X180815663Y-105259365D01*
X179815489Y-106259540D01*
X179759541Y-106315487D01*
X179759535Y-106315495D01*
X179719982Y-106384004D01*
X179719979Y-106384009D01*
X179706326Y-106434962D01*
X179701567Y-106452726D01*
X179699500Y-106460439D01*
X179699500Y-111244166D01*
X179679815Y-111311205D01*
X179663181Y-111331847D01*
X163982104Y-127012923D01*
X163920781Y-127046408D01*
X163851089Y-127041424D01*
X163846971Y-127039803D01*
X163726424Y-126989871D01*
X163726412Y-126989868D01*
X163523469Y-126949500D01*
X163523465Y-126949500D01*
X163316535Y-126949500D01*
X163316530Y-126949500D01*
X163113587Y-126989868D01*
X163113579Y-126989870D01*
X162922403Y-127069058D01*
X162750342Y-127184024D01*
X162604024Y-127330342D01*
X162489058Y-127502403D01*
X162468561Y-127551888D01*
X162424720Y-127606291D01*
X162358426Y-127628356D01*
X162290726Y-127611077D01*
X162243116Y-127559939D01*
X162230000Y-127504435D01*
X162230000Y-127102172D01*
X162229999Y-127102155D01*
X162223598Y-127042627D01*
X162223596Y-127042620D01*
X162173354Y-126907913D01*
X162173350Y-126907906D01*
X162087190Y-126792812D01*
X162087187Y-126792809D01*
X161972093Y-126706649D01*
X161972086Y-126706645D01*
X161837379Y-126656403D01*
X161837372Y-126656401D01*
X161777844Y-126650000D01*
X161130000Y-126650000D01*
X161130000Y-127566988D01*
X161072993Y-127534075D01*
X160945826Y-127500000D01*
X160814174Y-127500000D01*
X160687007Y-127534075D01*
X160630000Y-127566988D01*
X160630000Y-126650000D01*
X159982155Y-126650000D01*
X159922627Y-126656401D01*
X159922620Y-126656403D01*
X159787913Y-126706645D01*
X159787906Y-126706649D01*
X159672812Y-126792809D01*
X159672809Y-126792812D01*
X159586649Y-126907906D01*
X159586645Y-126907913D01*
X159536403Y-127042620D01*
X159536401Y-127042627D01*
X159530000Y-127102155D01*
X159530000Y-127750000D01*
X160446988Y-127750000D01*
X160414075Y-127807007D01*
X160380000Y-127934174D01*
X160380000Y-128065826D01*
X160414075Y-128192993D01*
X160446988Y-128250000D01*
X159530000Y-128250000D01*
X159530000Y-128897844D01*
X159536401Y-128957372D01*
X159536403Y-128957379D01*
X159586645Y-129092086D01*
X159586649Y-129092093D01*
X159672809Y-129207187D01*
X159672812Y-129207190D01*
X159765042Y-129276234D01*
X159806913Y-129332168D01*
X159811897Y-129401859D01*
X159778411Y-129463182D01*
X159717088Y-129496666D01*
X159690731Y-129499500D01*
X152503751Y-129499500D01*
X152496264Y-129499274D01*
X152206205Y-129481728D01*
X152191340Y-129479923D01*
X151909201Y-129428219D01*
X151894663Y-129424635D01*
X151620832Y-129339306D01*
X151606831Y-129333997D01*
X151345263Y-129216275D01*
X151332004Y-129209316D01*
X151328482Y-129207187D01*
X151086537Y-129060926D01*
X151074217Y-129052422D01*
X151071762Y-129050499D01*
X150848426Y-128875526D01*
X150837218Y-128865596D01*
X150634403Y-128662781D01*
X150624473Y-128651573D01*
X150505723Y-128500000D01*
X150447573Y-128425776D01*
X150439075Y-128413465D01*
X150290680Y-128167989D01*
X150283727Y-128154743D01*
X150166000Y-127893163D01*
X150160693Y-127879167D01*
X150075364Y-127605336D01*
X150071780Y-127590798D01*
X150020076Y-127308659D01*
X150018271Y-127293794D01*
X150006932Y-127106338D01*
X150000726Y-127003736D01*
X150000500Y-126996249D01*
X150000500Y-123348958D01*
X164149610Y-123348958D01*
X164149610Y-123454412D01*
X164174128Y-123545913D01*
X164176903Y-123556271D01*
X164176904Y-123556274D01*
X164191032Y-123580744D01*
X164229630Y-123647598D01*
X164304197Y-123722165D01*
X164395523Y-123774892D01*
X164497383Y-123802185D01*
X164497385Y-123802185D01*
X164602835Y-123802185D01*
X164602837Y-123802185D01*
X164704697Y-123774892D01*
X164796023Y-123722165D01*
X164870590Y-123647598D01*
X164923317Y-123556272D01*
X164950610Y-123454412D01*
X164950610Y-123348958D01*
X164923317Y-123247098D01*
X164870590Y-123155772D01*
X164796023Y-123081205D01*
X164704697Y-123028478D01*
X164602837Y-123001185D01*
X164497383Y-123001185D01*
X164395523Y-123028478D01*
X164395520Y-123028479D01*
X164304195Y-123081206D01*
X164229631Y-123155770D01*
X164176904Y-123247095D01*
X164176903Y-123247098D01*
X164149610Y-123348958D01*
X150000500Y-123348958D01*
X150000500Y-120084296D01*
X156299500Y-120084296D01*
X156299500Y-120415703D01*
X156336601Y-120744991D01*
X156336604Y-120745005D01*
X156410346Y-121068093D01*
X156410349Y-121068101D01*
X156519799Y-121380890D01*
X156663582Y-121679458D01*
X156663584Y-121679461D01*
X156839896Y-121960060D01*
X156938123Y-122083232D01*
X157043363Y-122215200D01*
X157046516Y-122219153D01*
X157280847Y-122453484D01*
X157539940Y-122660104D01*
X157820539Y-122836416D01*
X158119113Y-122980202D01*
X158330259Y-123054085D01*
X158431898Y-123089650D01*
X158431906Y-123089653D01*
X158431909Y-123089653D01*
X158431910Y-123089654D01*
X158754994Y-123163396D01*
X158755003Y-123163397D01*
X158755008Y-123163398D01*
X158974533Y-123188132D01*
X159084297Y-123200499D01*
X159084300Y-123200500D01*
X159084303Y-123200500D01*
X159415700Y-123200500D01*
X159415701Y-123200499D01*
X159583996Y-123181537D01*
X159744991Y-123163398D01*
X159744994Y-123163397D01*
X159745006Y-123163396D01*
X160068090Y-123089654D01*
X160380887Y-122980202D01*
X160679461Y-122836416D01*
X160960060Y-122660104D01*
X161219153Y-122453484D01*
X161453484Y-122219153D01*
X161660104Y-121960060D01*
X161836416Y-121679461D01*
X161980202Y-121380887D01*
X162089654Y-121068090D01*
X162163396Y-120745006D01*
X162200500Y-120415697D01*
X162200500Y-120084303D01*
X162163396Y-119754994D01*
X162089654Y-119431910D01*
X162085654Y-119420480D01*
X162027606Y-119254586D01*
X161980202Y-119119113D01*
X161836416Y-118820539D01*
X161660104Y-118539940D01*
X161453484Y-118280847D01*
X161219153Y-118046516D01*
X160960060Y-117839896D01*
X160679461Y-117663584D01*
X160679458Y-117663582D01*
X160448900Y-117552551D01*
X160448898Y-117552549D01*
X160380898Y-117519802D01*
X160380890Y-117519799D01*
X160178439Y-117448958D01*
X167549610Y-117448958D01*
X167549610Y-117554412D01*
X167574128Y-117645913D01*
X167576903Y-117656271D01*
X167576904Y-117656274D01*
X167591032Y-117680744D01*
X167629630Y-117747598D01*
X167704197Y-117822165D01*
X167795523Y-117874892D01*
X167897383Y-117902185D01*
X167897385Y-117902185D01*
X168002835Y-117902185D01*
X168002837Y-117902185D01*
X168104697Y-117874892D01*
X168196023Y-117822165D01*
X168270590Y-117747598D01*
X168323317Y-117656272D01*
X168350610Y-117554412D01*
X168350610Y-117448958D01*
X168323317Y-117347098D01*
X168270590Y-117255772D01*
X168196023Y-117181205D01*
X168108199Y-117130500D01*
X168104699Y-117128479D01*
X168104698Y-117128478D01*
X168104697Y-117128478D01*
X168002837Y-117101185D01*
X167897383Y-117101185D01*
X167795523Y-117128478D01*
X167795520Y-117128479D01*
X167704195Y-117181206D01*
X167629631Y-117255770D01*
X167576904Y-117347095D01*
X167576903Y-117347098D01*
X167549610Y-117448958D01*
X160178439Y-117448958D01*
X160068101Y-117410349D01*
X160068093Y-117410346D01*
X159825777Y-117355039D01*
X159745006Y-117336604D01*
X159745003Y-117336603D01*
X159744991Y-117336601D01*
X159415703Y-117299500D01*
X159415697Y-117299500D01*
X159084303Y-117299500D01*
X159084296Y-117299500D01*
X158755008Y-117336601D01*
X158754994Y-117336604D01*
X158431906Y-117410346D01*
X158431898Y-117410349D01*
X158119109Y-117519799D01*
X157820541Y-117663582D01*
X157539941Y-117839895D01*
X157280847Y-118046515D01*
X157046515Y-118280847D01*
X156839895Y-118539941D01*
X156663582Y-118820541D01*
X156519799Y-119119109D01*
X156410349Y-119431898D01*
X156410346Y-119431906D01*
X156336604Y-119754994D01*
X156336601Y-119755008D01*
X156299500Y-120084296D01*
X150000500Y-120084296D01*
X150000500Y-118971919D01*
X150020185Y-118904880D01*
X150072989Y-118859125D01*
X150142147Y-118849181D01*
X150205703Y-118878206D01*
X150239061Y-118924466D01*
X150239869Y-118926418D01*
X150239870Y-118926420D01*
X150319059Y-119117598D01*
X150342530Y-119152725D01*
X150434024Y-119289657D01*
X150580342Y-119435975D01*
X150580345Y-119435977D01*
X150752402Y-119550941D01*
X150943580Y-119630130D01*
X151146530Y-119670499D01*
X151146534Y-119670500D01*
X151146535Y-119670500D01*
X151353466Y-119670500D01*
X151353467Y-119670499D01*
X151556420Y-119630130D01*
X151747598Y-119550941D01*
X151919655Y-119435977D01*
X152065977Y-119289655D01*
X152180941Y-119117598D01*
X152260130Y-118926420D01*
X152300500Y-118723465D01*
X152300500Y-118516535D01*
X152260130Y-118313580D01*
X152180941Y-118122402D01*
X152065977Y-117950345D01*
X152065975Y-117950342D01*
X151919657Y-117804024D01*
X151766557Y-117701727D01*
X151747598Y-117689059D01*
X151686096Y-117663584D01*
X151556420Y-117609870D01*
X151556412Y-117609868D01*
X151353469Y-117569500D01*
X151353465Y-117569500D01*
X151146535Y-117569500D01*
X151146530Y-117569500D01*
X150943587Y-117609868D01*
X150943579Y-117609870D01*
X150752403Y-117689058D01*
X150580342Y-117804024D01*
X150434024Y-117950342D01*
X150319057Y-118122403D01*
X150239061Y-118315533D01*
X150195220Y-118369936D01*
X150128926Y-118392001D01*
X150061226Y-118374722D01*
X150013616Y-118323584D01*
X150000500Y-118268080D01*
X150000500Y-116431919D01*
X150020185Y-116364880D01*
X150072989Y-116319125D01*
X150142147Y-116309181D01*
X150205703Y-116338206D01*
X150239061Y-116384466D01*
X150239869Y-116386418D01*
X150239870Y-116386420D01*
X150294093Y-116517325D01*
X150319058Y-116577596D01*
X150434024Y-116749657D01*
X150580342Y-116895975D01*
X150580345Y-116895977D01*
X150752402Y-117010941D01*
X150943580Y-117090130D01*
X151136370Y-117128478D01*
X151146530Y-117130499D01*
X151146534Y-117130500D01*
X151146535Y-117130500D01*
X151353466Y-117130500D01*
X151353467Y-117130499D01*
X151556420Y-117090130D01*
X151747598Y-117010941D01*
X151919655Y-116895977D01*
X152065977Y-116749655D01*
X152180941Y-116577598D01*
X152260130Y-116386420D01*
X152300500Y-116183465D01*
X152300500Y-115976535D01*
X152260130Y-115773580D01*
X152180941Y-115582402D01*
X152065977Y-115410345D01*
X152065975Y-115410342D01*
X151919657Y-115264024D01*
X151764704Y-115160489D01*
X151747598Y-115149059D01*
X151556420Y-115069870D01*
X151556412Y-115069868D01*
X151442820Y-115047273D01*
X158349500Y-115047273D01*
X158349500Y-115152727D01*
X158376793Y-115254587D01*
X158429520Y-115345913D01*
X158504087Y-115420480D01*
X158595413Y-115473207D01*
X158697273Y-115500500D01*
X158697275Y-115500500D01*
X158802725Y-115500500D01*
X158802727Y-115500500D01*
X158904587Y-115473207D01*
X158995913Y-115420480D01*
X159070480Y-115345913D01*
X159123207Y-115254587D01*
X159125167Y-115247273D01*
X170149500Y-115247273D01*
X170149500Y-115352727D01*
X170176793Y-115454587D01*
X170229520Y-115545913D01*
X170304087Y-115620480D01*
X170395413Y-115673207D01*
X170497273Y-115700500D01*
X170497275Y-115700500D01*
X170602725Y-115700500D01*
X170602727Y-115700500D01*
X170704587Y-115673207D01*
X170795913Y-115620480D01*
X170870480Y-115545913D01*
X170923207Y-115454587D01*
X170950500Y-115352727D01*
X170950500Y-115247273D01*
X170923207Y-115145413D01*
X170870480Y-115054087D01*
X170795913Y-114979520D01*
X170716736Y-114933807D01*
X170704589Y-114926794D01*
X170704588Y-114926793D01*
X170704587Y-114926793D01*
X170602727Y-114899500D01*
X170497273Y-114899500D01*
X170395413Y-114926793D01*
X170395410Y-114926794D01*
X170304085Y-114979521D01*
X170229521Y-115054085D01*
X170176794Y-115145410D01*
X170176793Y-115145413D01*
X170149500Y-115247273D01*
X159125167Y-115247273D01*
X159150500Y-115152727D01*
X159150500Y-115047273D01*
X159123207Y-114945413D01*
X159070480Y-114854087D01*
X158995913Y-114779520D01*
X158904587Y-114726793D01*
X158802727Y-114699500D01*
X158697273Y-114699500D01*
X158595413Y-114726793D01*
X158595410Y-114726794D01*
X158504085Y-114779521D01*
X158429521Y-114854085D01*
X158376794Y-114945410D01*
X158376793Y-114945413D01*
X158349500Y-115047273D01*
X151442820Y-115047273D01*
X151353469Y-115029500D01*
X151353465Y-115029500D01*
X151146535Y-115029500D01*
X151146530Y-115029500D01*
X150943587Y-115069868D01*
X150943579Y-115069870D01*
X150752403Y-115149058D01*
X150580342Y-115264024D01*
X150434024Y-115410342D01*
X150319057Y-115582403D01*
X150239061Y-115775533D01*
X150195220Y-115829936D01*
X150128926Y-115852001D01*
X150061226Y-115834722D01*
X150013616Y-115783584D01*
X150000500Y-115728080D01*
X150000500Y-113891919D01*
X150020185Y-113824880D01*
X150072989Y-113779125D01*
X150142147Y-113769181D01*
X150205703Y-113798206D01*
X150239061Y-113844466D01*
X150239869Y-113846418D01*
X150239870Y-113846420D01*
X150274277Y-113929485D01*
X150317438Y-114033686D01*
X150319059Y-114037598D01*
X150359256Y-114097757D01*
X150434024Y-114209657D01*
X150580342Y-114355975D01*
X150580345Y-114355977D01*
X150752402Y-114470941D01*
X150943580Y-114550130D01*
X151146530Y-114590499D01*
X151146534Y-114590500D01*
X151146535Y-114590500D01*
X151353466Y-114590500D01*
X151353467Y-114590499D01*
X151556420Y-114550130D01*
X151747598Y-114470941D01*
X151919655Y-114355977D01*
X152065977Y-114209655D01*
X152180941Y-114037598D01*
X152260130Y-113846420D01*
X152300500Y-113643465D01*
X152300500Y-113436535D01*
X152260130Y-113233580D01*
X152180941Y-113042402D01*
X152065977Y-112870345D01*
X152065975Y-112870342D01*
X151919657Y-112724024D01*
X151787224Y-112635536D01*
X151747598Y-112609059D01*
X151698112Y-112588561D01*
X151643709Y-112544720D01*
X151621644Y-112478426D01*
X151638923Y-112410726D01*
X151690061Y-112363116D01*
X151745565Y-112350000D01*
X152147828Y-112350000D01*
X152147844Y-112349999D01*
X152207372Y-112343598D01*
X152207379Y-112343596D01*
X152342086Y-112293354D01*
X152342093Y-112293350D01*
X152457187Y-112207190D01*
X152457190Y-112207187D01*
X152464612Y-112197273D01*
X165349500Y-112197273D01*
X165349500Y-112302727D01*
X165376793Y-112404587D01*
X165429520Y-112495913D01*
X165429523Y-112495916D01*
X165432887Y-112501742D01*
X165449500Y-112563743D01*
X165449500Y-113539562D01*
X165463152Y-113590513D01*
X165469979Y-113615990D01*
X165469982Y-113615995D01*
X165509535Y-113684504D01*
X165509541Y-113684512D01*
X166315663Y-114490634D01*
X166347757Y-114546221D01*
X166376793Y-114654588D01*
X166376794Y-114654589D01*
X166429520Y-114745913D01*
X166504087Y-114820480D01*
X166595413Y-114873207D01*
X166697273Y-114900500D01*
X166697275Y-114900500D01*
X166802725Y-114900500D01*
X166802727Y-114900500D01*
X166904587Y-114873207D01*
X166995913Y-114820480D01*
X167070480Y-114745913D01*
X167123207Y-114654587D01*
X167150500Y-114552727D01*
X167150500Y-114447273D01*
X167123207Y-114345413D01*
X167070480Y-114254087D01*
X167063666Y-114247273D01*
X173349500Y-114247273D01*
X173349500Y-114352727D01*
X173376793Y-114454587D01*
X173429520Y-114545913D01*
X173504087Y-114620480D01*
X173595413Y-114673207D01*
X173697273Y-114700500D01*
X173697275Y-114700500D01*
X173802725Y-114700500D01*
X173802727Y-114700500D01*
X173904587Y-114673207D01*
X173995913Y-114620480D01*
X174070480Y-114545913D01*
X174123207Y-114454587D01*
X174150500Y-114352727D01*
X174150500Y-114247273D01*
X174123207Y-114145413D01*
X174070480Y-114054087D01*
X174070479Y-114054086D01*
X174067644Y-114049175D01*
X174063493Y-114033686D01*
X174056054Y-114022110D01*
X174051031Y-113987175D01*
X174051031Y-113947273D01*
X174849500Y-113947273D01*
X174849500Y-114052727D01*
X174876793Y-114154587D01*
X174929520Y-114245913D01*
X175004087Y-114320480D01*
X175095413Y-114373207D01*
X175197273Y-114400500D01*
X175197275Y-114400500D01*
X175302725Y-114400500D01*
X175302727Y-114400500D01*
X175404587Y-114373207D01*
X175495913Y-114320480D01*
X175570480Y-114245913D01*
X175623207Y-114154587D01*
X175650500Y-114052727D01*
X175650500Y-113947273D01*
X175623207Y-113845413D01*
X175570480Y-113754087D01*
X175570478Y-113754085D01*
X175567113Y-113748256D01*
X175550500Y-113686256D01*
X175550500Y-112847273D01*
X176249500Y-112847273D01*
X176249500Y-112952727D01*
X176276793Y-113054587D01*
X176329520Y-113145913D01*
X176404087Y-113220480D01*
X176495413Y-113273207D01*
X176597273Y-113300500D01*
X176597275Y-113300500D01*
X176702725Y-113300500D01*
X176702727Y-113300500D01*
X176804587Y-113273207D01*
X176895913Y-113220480D01*
X176970480Y-113145913D01*
X177023207Y-113054587D01*
X177050500Y-112952727D01*
X177050500Y-112847273D01*
X177023207Y-112745413D01*
X176970480Y-112654087D01*
X176895913Y-112579520D01*
X176804587Y-112526793D01*
X176702727Y-112499500D01*
X176597273Y-112499500D01*
X176495413Y-112526793D01*
X176495410Y-112526794D01*
X176404085Y-112579521D01*
X176329521Y-112654085D01*
X176276794Y-112745410D01*
X176276793Y-112745413D01*
X176249500Y-112847273D01*
X175550500Y-112847273D01*
X175550500Y-109575833D01*
X175570185Y-109508794D01*
X175586819Y-109488152D01*
X176320886Y-108754085D01*
X177140636Y-107934334D01*
X177196222Y-107902242D01*
X177202723Y-107900500D01*
X177202727Y-107900500D01*
X177304587Y-107873207D01*
X177395913Y-107820480D01*
X177470480Y-107745913D01*
X177523207Y-107654587D01*
X177550500Y-107552727D01*
X177550500Y-107447273D01*
X177523207Y-107345413D01*
X177470480Y-107254087D01*
X177395913Y-107179520D01*
X177304587Y-107126793D01*
X177202727Y-107099500D01*
X177097273Y-107099500D01*
X176995413Y-107126793D01*
X176995410Y-107126794D01*
X176904085Y-107179521D01*
X176829521Y-107254085D01*
X176776794Y-107345410D01*
X176776793Y-107345411D01*
X176747757Y-107453778D01*
X176715663Y-107509365D01*
X175065489Y-109159540D01*
X175009541Y-109215487D01*
X175009535Y-109215495D01*
X174969982Y-109284004D01*
X174969979Y-109284009D01*
X174949500Y-109360439D01*
X174949500Y-113686256D01*
X174932887Y-113748256D01*
X174929520Y-113754086D01*
X174929520Y-113754087D01*
X174915064Y-113779125D01*
X174876794Y-113845410D01*
X174876793Y-113845413D01*
X174849500Y-113947273D01*
X174051031Y-113947273D01*
X174051031Y-110575302D01*
X174070716Y-110508263D01*
X174087349Y-110487622D01*
X174095451Y-110479520D01*
X174140635Y-110434335D01*
X174196222Y-110402242D01*
X174202723Y-110400500D01*
X174202727Y-110400500D01*
X174304587Y-110373207D01*
X174395913Y-110320480D01*
X174470480Y-110245913D01*
X174523207Y-110154587D01*
X174550500Y-110052727D01*
X174550500Y-109947273D01*
X174523207Y-109845413D01*
X174470480Y-109754087D01*
X174395913Y-109679520D01*
X174304587Y-109626793D01*
X174202727Y-109599500D01*
X174097273Y-109599500D01*
X173995413Y-109626793D01*
X173995410Y-109626794D01*
X173904085Y-109679521D01*
X173829521Y-109754085D01*
X173776794Y-109845410D01*
X173776793Y-109845411D01*
X173747757Y-109953778D01*
X173739738Y-109967665D01*
X173736814Y-109981111D01*
X173715664Y-110009365D01*
X173566020Y-110159009D01*
X173566019Y-110159009D01*
X173566018Y-110159010D01*
X173510072Y-110214956D01*
X173510066Y-110214964D01*
X173470513Y-110283473D01*
X173470510Y-110283478D01*
X173450031Y-110359908D01*
X173450031Y-113985336D01*
X173433418Y-114047336D01*
X173376794Y-114145410D01*
X173376793Y-114145413D01*
X173349500Y-114247273D01*
X167063666Y-114247273D01*
X166995913Y-114179520D01*
X166904589Y-114126794D01*
X166904588Y-114126793D01*
X166849377Y-114111999D01*
X166802727Y-114099500D01*
X166802726Y-114099500D01*
X166796221Y-114097757D01*
X166740634Y-114065663D01*
X166086819Y-113411848D01*
X166053334Y-113350525D01*
X166050500Y-113324167D01*
X166050500Y-112563743D01*
X166067113Y-112501742D01*
X166070476Y-112495916D01*
X166070480Y-112495913D01*
X166123207Y-112404587D01*
X166150500Y-112302727D01*
X166150500Y-112197273D01*
X166123207Y-112095413D01*
X166070480Y-112004087D01*
X165995913Y-111929520D01*
X165904587Y-111876793D01*
X165802727Y-111849500D01*
X165697273Y-111849500D01*
X165595413Y-111876793D01*
X165595410Y-111876794D01*
X165504085Y-111929521D01*
X165429521Y-112004085D01*
X165376794Y-112095410D01*
X165376793Y-112095413D01*
X165349500Y-112197273D01*
X152464612Y-112197273D01*
X152526326Y-112114835D01*
X152526326Y-112114834D01*
X152543352Y-112092089D01*
X152543354Y-112092086D01*
X152593596Y-111957379D01*
X152593598Y-111957372D01*
X152599999Y-111897844D01*
X152600000Y-111897827D01*
X152600000Y-111250000D01*
X151683012Y-111250000D01*
X151715925Y-111192993D01*
X151750000Y-111065826D01*
X151750000Y-110947273D01*
X169849500Y-110947273D01*
X169849500Y-111052727D01*
X169876793Y-111154587D01*
X169929520Y-111245913D01*
X170004087Y-111320480D01*
X170095413Y-111373207D01*
X170197273Y-111400500D01*
X170197275Y-111400500D01*
X170302725Y-111400500D01*
X170302727Y-111400500D01*
X170404587Y-111373207D01*
X170495913Y-111320480D01*
X170570480Y-111245913D01*
X170623207Y-111154587D01*
X170650500Y-111052727D01*
X170650500Y-110947273D01*
X170623207Y-110845413D01*
X170570480Y-110754087D01*
X170495913Y-110679520D01*
X170404587Y-110626793D01*
X170302727Y-110599500D01*
X170197273Y-110599500D01*
X170095413Y-110626793D01*
X170095410Y-110626794D01*
X170004085Y-110679521D01*
X169929521Y-110754085D01*
X169876794Y-110845410D01*
X169876793Y-110845413D01*
X169849500Y-110947273D01*
X151750000Y-110947273D01*
X151750000Y-110934174D01*
X151715925Y-110807007D01*
X151683012Y-110750000D01*
X152600000Y-110750000D01*
X152600000Y-110102172D01*
X152599999Y-110102155D01*
X152593598Y-110042627D01*
X152593596Y-110042620D01*
X152543354Y-109907913D01*
X152543350Y-109907906D01*
X152457190Y-109792812D01*
X152457187Y-109792809D01*
X152342093Y-109706649D01*
X152342086Y-109706645D01*
X152207379Y-109656403D01*
X152207372Y-109656401D01*
X152147844Y-109650000D01*
X151500000Y-109650000D01*
X151500000Y-110566988D01*
X151442993Y-110534075D01*
X151315826Y-110500000D01*
X151184174Y-110500000D01*
X151057007Y-110534075D01*
X151000000Y-110566988D01*
X151000000Y-109650000D01*
X150352155Y-109650000D01*
X150292627Y-109656401D01*
X150292617Y-109656403D01*
X150167832Y-109702945D01*
X150137225Y-109705133D01*
X150106853Y-109709501D01*
X150102697Y-109707603D01*
X150098141Y-109707929D01*
X150071213Y-109693225D01*
X150043297Y-109680476D01*
X150040826Y-109676631D01*
X150036818Y-109674443D01*
X150022115Y-109647516D01*
X150005523Y-109621698D01*
X150004631Y-109615495D01*
X150003334Y-109613120D01*
X150000500Y-109586763D01*
X150000500Y-109447273D01*
X154349500Y-109447273D01*
X154349500Y-109552727D01*
X154376793Y-109654587D01*
X154429520Y-109745913D01*
X154504087Y-109820480D01*
X154595413Y-109873207D01*
X154697273Y-109900500D01*
X154697275Y-109900500D01*
X154802725Y-109900500D01*
X154802727Y-109900500D01*
X154904587Y-109873207D01*
X154995913Y-109820480D01*
X155070480Y-109745913D01*
X155123207Y-109654587D01*
X155150500Y-109552727D01*
X155150500Y-109447273D01*
X161849500Y-109447273D01*
X161849500Y-109552727D01*
X161876793Y-109654587D01*
X161929520Y-109745913D01*
X162004087Y-109820480D01*
X162095413Y-109873207D01*
X162197273Y-109900500D01*
X162197275Y-109900500D01*
X162302725Y-109900500D01*
X162302727Y-109900500D01*
X162404587Y-109873207D01*
X162495913Y-109820480D01*
X162570480Y-109745913D01*
X162623207Y-109654587D01*
X162650500Y-109552727D01*
X162650500Y-109447273D01*
X162623207Y-109345413D01*
X162570480Y-109254087D01*
X162495913Y-109179520D01*
X162404587Y-109126793D01*
X162302727Y-109099500D01*
X162197273Y-109099500D01*
X162095413Y-109126793D01*
X162095410Y-109126794D01*
X162004085Y-109179521D01*
X161929521Y-109254085D01*
X161876794Y-109345410D01*
X161876793Y-109345413D01*
X161849500Y-109447273D01*
X155150500Y-109447273D01*
X155123207Y-109345413D01*
X155070480Y-109254087D01*
X155070478Y-109254085D01*
X155067113Y-109248256D01*
X155050500Y-109186256D01*
X155050500Y-106140691D01*
X170399500Y-106140691D01*
X170399500Y-106259309D01*
X170430201Y-106373886D01*
X170489511Y-106476613D01*
X170573387Y-106560489D01*
X170676114Y-106619799D01*
X170790691Y-106650500D01*
X170790694Y-106650500D01*
X170909306Y-106650500D01*
X170909309Y-106650500D01*
X171023886Y-106619799D01*
X171126613Y-106560489D01*
X171210489Y-106476613D01*
X171269799Y-106373886D01*
X171300500Y-106259309D01*
X171300500Y-106140691D01*
X171269799Y-106026114D01*
X171210489Y-105923387D01*
X171126613Y-105839511D01*
X171023886Y-105780201D01*
X170909309Y-105749500D01*
X170790691Y-105749500D01*
X170676114Y-105780201D01*
X170676112Y-105780201D01*
X170676112Y-105780202D01*
X170573387Y-105839511D01*
X170573384Y-105839513D01*
X170489513Y-105923384D01*
X170489511Y-105923387D01*
X170430201Y-106026114D01*
X170399500Y-106140691D01*
X155050500Y-106140691D01*
X155050500Y-105425833D01*
X155070185Y-105358794D01*
X155086819Y-105338152D01*
X157260673Y-103164298D01*
X159490636Y-100934334D01*
X159546222Y-100902242D01*
X159552723Y-100900500D01*
X159552727Y-100900500D01*
X159654587Y-100873207D01*
X159745913Y-100820480D01*
X159820480Y-100745913D01*
X159873207Y-100654587D01*
X159900500Y-100552727D01*
X159900500Y-100547273D01*
X167049500Y-100547273D01*
X167049500Y-100652727D01*
X167076793Y-100754587D01*
X167129520Y-100845913D01*
X167204087Y-100920480D01*
X167295413Y-100973207D01*
X167397273Y-101000500D01*
X167397275Y-101000500D01*
X167502725Y-101000500D01*
X167502727Y-101000500D01*
X167604587Y-100973207D01*
X167695913Y-100920480D01*
X167770480Y-100845913D01*
X167823207Y-100754587D01*
X167850500Y-100652727D01*
X167850500Y-100547273D01*
X167823207Y-100445413D01*
X167770480Y-100354087D01*
X167695913Y-100279520D01*
X167604587Y-100226793D01*
X167502727Y-100199500D01*
X167397273Y-100199500D01*
X167295413Y-100226793D01*
X167295410Y-100226794D01*
X167204085Y-100279521D01*
X167129521Y-100354085D01*
X167076794Y-100445410D01*
X167076793Y-100445413D01*
X167049500Y-100547273D01*
X159900500Y-100547273D01*
X159900500Y-100447273D01*
X159873207Y-100345413D01*
X159820480Y-100254087D01*
X159745913Y-100179520D01*
X159654587Y-100126793D01*
X159552727Y-100099500D01*
X159447273Y-100099500D01*
X159345413Y-100126793D01*
X159345410Y-100126794D01*
X159254085Y-100179521D01*
X159179521Y-100254085D01*
X159126794Y-100345410D01*
X159126793Y-100345411D01*
X159097757Y-100453778D01*
X159065663Y-100509365D01*
X154565489Y-105009540D01*
X154509541Y-105065487D01*
X154509535Y-105065495D01*
X154469982Y-105134004D01*
X154469979Y-105134009D01*
X154449500Y-105210439D01*
X154449500Y-109186256D01*
X154432887Y-109248256D01*
X154376794Y-109345410D01*
X154376793Y-109345413D01*
X154349500Y-109447273D01*
X150000500Y-109447273D01*
X150000500Y-101147273D01*
X153949500Y-101147273D01*
X153949500Y-101252727D01*
X153976793Y-101354587D01*
X154029520Y-101445913D01*
X154104087Y-101520480D01*
X154195413Y-101573207D01*
X154297273Y-101600500D01*
X154297275Y-101600500D01*
X154402725Y-101600500D01*
X154402727Y-101600500D01*
X154504587Y-101573207D01*
X154595913Y-101520480D01*
X154670480Y-101445913D01*
X154723207Y-101354587D01*
X154750500Y-101252727D01*
X154750500Y-101147273D01*
X154723207Y-101045413D01*
X154670480Y-100954087D01*
X154595913Y-100879520D01*
X154504587Y-100826793D01*
X154402727Y-100799500D01*
X154297273Y-100799500D01*
X154195413Y-100826793D01*
X154195410Y-100826794D01*
X154104085Y-100879521D01*
X154029521Y-100954085D01*
X153976794Y-101045410D01*
X153976793Y-101045413D01*
X153949500Y-101147273D01*
X150000500Y-101147273D01*
X150000500Y-99971919D01*
X150020185Y-99904880D01*
X150072989Y-99859125D01*
X150142147Y-99849181D01*
X150205703Y-99878206D01*
X150239061Y-99924466D01*
X150239869Y-99926418D01*
X150239870Y-99926420D01*
X150294093Y-100057325D01*
X150319058Y-100117596D01*
X150434024Y-100289657D01*
X150580342Y-100435975D01*
X150580345Y-100435977D01*
X150752402Y-100550941D01*
X150943580Y-100630130D01*
X151146530Y-100670499D01*
X151146534Y-100670500D01*
X151146535Y-100670500D01*
X151353466Y-100670500D01*
X151353467Y-100670499D01*
X151556420Y-100630130D01*
X151747598Y-100550941D01*
X151919655Y-100435977D01*
X152065977Y-100289655D01*
X152180941Y-100117598D01*
X152260130Y-99926420D01*
X152300500Y-99723465D01*
X152300500Y-99516535D01*
X152260130Y-99313580D01*
X152180941Y-99122402D01*
X152065977Y-98950345D01*
X152065975Y-98950342D01*
X151919657Y-98804024D01*
X151824521Y-98740457D01*
X151747598Y-98689059D01*
X151664373Y-98654586D01*
X151556420Y-98609870D01*
X151556412Y-98609868D01*
X151353469Y-98569500D01*
X151353465Y-98569500D01*
X151146535Y-98569500D01*
X151146530Y-98569500D01*
X150943587Y-98609868D01*
X150943579Y-98609870D01*
X150752403Y-98689058D01*
X150580342Y-98804024D01*
X150434024Y-98950342D01*
X150319057Y-99122403D01*
X150239061Y-99315533D01*
X150195220Y-99369936D01*
X150128926Y-99392001D01*
X150061226Y-99374722D01*
X150013616Y-99323584D01*
X150000500Y-99268080D01*
X150000500Y-97431919D01*
X150020185Y-97364880D01*
X150072989Y-97319125D01*
X150142147Y-97309181D01*
X150205703Y-97338206D01*
X150239061Y-97384466D01*
X150239869Y-97386418D01*
X150239870Y-97386420D01*
X150319059Y-97577598D01*
X150366260Y-97648240D01*
X150434024Y-97749657D01*
X150580342Y-97895975D01*
X150580345Y-97895977D01*
X150752402Y-98010941D01*
X150943580Y-98090130D01*
X151127899Y-98126793D01*
X151146530Y-98130499D01*
X151146534Y-98130500D01*
X151146535Y-98130500D01*
X151353466Y-98130500D01*
X151353467Y-98130499D01*
X151556420Y-98090130D01*
X151747598Y-98010941D01*
X151852735Y-97940691D01*
X161799500Y-97940691D01*
X161799500Y-98059309D01*
X161830201Y-98173886D01*
X161889511Y-98276613D01*
X161973387Y-98360489D01*
X162076114Y-98419799D01*
X162190691Y-98450500D01*
X162190694Y-98450500D01*
X162309306Y-98450500D01*
X162309309Y-98450500D01*
X162423886Y-98419799D01*
X162526613Y-98360489D01*
X162557707Y-98329395D01*
X167848559Y-98329395D01*
X167848559Y-98434849D01*
X167875852Y-98536709D01*
X167928579Y-98628035D01*
X168003146Y-98702602D01*
X168094472Y-98755329D01*
X168196332Y-98782622D01*
X168196335Y-98782622D01*
X168202836Y-98784364D01*
X168258424Y-98816458D01*
X168626477Y-99184511D01*
X168682426Y-99240460D01*
X168682428Y-99240461D01*
X168682432Y-99240464D01*
X168730265Y-99268080D01*
X168750948Y-99280021D01*
X168827375Y-99300500D01*
X168906499Y-99300500D01*
X169824167Y-99300500D01*
X169891206Y-99320185D01*
X169911848Y-99336819D01*
X172798694Y-102223665D01*
X172832179Y-102284988D01*
X172827195Y-102354680D01*
X172818401Y-102373345D01*
X172776793Y-102445412D01*
X172776793Y-102445413D01*
X172749500Y-102547273D01*
X172749500Y-102652727D01*
X172776793Y-102754587D01*
X172829520Y-102845913D01*
X172904087Y-102920480D01*
X172995413Y-102973207D01*
X173097273Y-103000500D01*
X173097275Y-103000500D01*
X173202725Y-103000500D01*
X173202727Y-103000500D01*
X173304587Y-102973207D01*
X173395913Y-102920480D01*
X173470480Y-102845913D01*
X173523207Y-102754587D01*
X173550500Y-102652727D01*
X173550500Y-102547273D01*
X173523705Y-102447273D01*
X187749500Y-102447273D01*
X187749500Y-102552727D01*
X187776793Y-102654587D01*
X187829520Y-102745913D01*
X187904087Y-102820480D01*
X187995413Y-102873207D01*
X188097273Y-102900500D01*
X188097275Y-102900500D01*
X188202725Y-102900500D01*
X188202727Y-102900500D01*
X188304587Y-102873207D01*
X188395913Y-102820480D01*
X188470480Y-102745913D01*
X188523207Y-102654587D01*
X188550500Y-102552727D01*
X188550500Y-102500000D01*
X192575000Y-102500000D01*
X192575000Y-102722844D01*
X192581401Y-102782372D01*
X192581403Y-102782379D01*
X192631645Y-102917086D01*
X192631649Y-102917093D01*
X192717809Y-103032187D01*
X192717812Y-103032190D01*
X192832906Y-103118350D01*
X192832913Y-103118354D01*
X192843833Y-103122427D01*
X192899767Y-103164298D01*
X192924184Y-103229762D01*
X192924500Y-103238609D01*
X192924500Y-103325765D01*
X192963719Y-103472136D01*
X193001602Y-103537750D01*
X193039485Y-103603365D01*
X193039487Y-103603367D01*
X193098439Y-103662319D01*
X193131924Y-103723642D01*
X193126940Y-103793334D01*
X193098439Y-103837681D01*
X193039487Y-103896632D01*
X193039485Y-103896635D01*
X192963719Y-104027863D01*
X192924500Y-104174234D01*
X192924500Y-104325765D01*
X192963719Y-104472136D01*
X193000772Y-104536312D01*
X193039485Y-104603365D01*
X193146635Y-104710515D01*
X193260281Y-104776129D01*
X193270834Y-104782222D01*
X193277865Y-104786281D01*
X193424234Y-104825500D01*
X193424236Y-104825500D01*
X193575764Y-104825500D01*
X193575766Y-104825500D01*
X193722135Y-104786281D01*
X193853365Y-104710515D01*
X193960515Y-104603365D01*
X194036281Y-104472135D01*
X194075500Y-104325766D01*
X194075500Y-104174234D01*
X194036281Y-104027865D01*
X193960515Y-103896635D01*
X193901561Y-103837681D01*
X193868076Y-103776358D01*
X193873060Y-103706666D01*
X193901561Y-103662319D01*
X193960515Y-103603365D01*
X194036281Y-103472135D01*
X194075500Y-103325766D01*
X194075500Y-103238608D01*
X194095185Y-103171569D01*
X194147989Y-103125814D01*
X194156173Y-103122424D01*
X194167087Y-103118353D01*
X194167093Y-103118350D01*
X194282187Y-103032190D01*
X194282190Y-103032187D01*
X194368350Y-102917093D01*
X194368354Y-102917086D01*
X194418596Y-102782379D01*
X194418598Y-102782372D01*
X194424999Y-102722844D01*
X194425000Y-102722827D01*
X194425000Y-102500000D01*
X193549728Y-102500000D01*
X193641614Y-102461940D01*
X193711940Y-102391614D01*
X193750000Y-102299728D01*
X193750000Y-102200272D01*
X193711940Y-102108386D01*
X193641614Y-102038060D01*
X193549728Y-102000000D01*
X193750000Y-102000000D01*
X194425000Y-102000000D01*
X194425000Y-101777172D01*
X194424999Y-101777155D01*
X194418598Y-101717627D01*
X194418596Y-101717620D01*
X194368354Y-101582913D01*
X194368350Y-101582906D01*
X194282190Y-101467812D01*
X194282187Y-101467809D01*
X194167093Y-101381649D01*
X194167086Y-101381645D01*
X194032379Y-101331403D01*
X194032372Y-101331401D01*
X193972844Y-101325000D01*
X193750000Y-101325000D01*
X193750000Y-102000000D01*
X193549728Y-102000000D01*
X193450272Y-102000000D01*
X193358386Y-102038060D01*
X193288060Y-102108386D01*
X193250000Y-102200272D01*
X193250000Y-102299728D01*
X193288060Y-102391614D01*
X193358386Y-102461940D01*
X193450272Y-102500000D01*
X192575000Y-102500000D01*
X188550500Y-102500000D01*
X188550500Y-102447273D01*
X188523207Y-102345413D01*
X188470480Y-102254087D01*
X188395913Y-102179520D01*
X188304587Y-102126793D01*
X188202727Y-102099500D01*
X188097273Y-102099500D01*
X187995413Y-102126793D01*
X187995410Y-102126794D01*
X187904085Y-102179521D01*
X187829521Y-102254085D01*
X187776794Y-102345410D01*
X187776793Y-102345413D01*
X187749500Y-102447273D01*
X173523705Y-102447273D01*
X173523207Y-102445413D01*
X173470480Y-102354087D01*
X173468926Y-102352533D01*
X173463289Y-102341103D01*
X173459738Y-102320734D01*
X173450500Y-102286256D01*
X173450500Y-102110439D01*
X173449950Y-102108386D01*
X173447569Y-102099500D01*
X173436072Y-102056591D01*
X173437735Y-101986743D01*
X173476898Y-101928881D01*
X173541127Y-101901377D01*
X173555847Y-101900500D01*
X173636256Y-101900500D01*
X173698256Y-101917113D01*
X173704085Y-101920478D01*
X173704087Y-101920480D01*
X173795413Y-101973207D01*
X173897273Y-102000500D01*
X173897275Y-102000500D01*
X174002725Y-102000500D01*
X174002727Y-102000500D01*
X174104587Y-101973207D01*
X174195913Y-101920480D01*
X174270480Y-101845913D01*
X174310177Y-101777155D01*
X192575000Y-101777155D01*
X192575000Y-102000000D01*
X193250000Y-102000000D01*
X193250000Y-101325000D01*
X193027155Y-101325000D01*
X192967627Y-101331401D01*
X192967620Y-101331403D01*
X192832913Y-101381645D01*
X192832906Y-101381649D01*
X192717812Y-101467809D01*
X192717809Y-101467812D01*
X192631649Y-101582906D01*
X192631645Y-101582913D01*
X192581403Y-101717620D01*
X192581401Y-101717627D01*
X192575000Y-101777155D01*
X174310177Y-101777155D01*
X174323207Y-101754587D01*
X174350500Y-101652727D01*
X174350500Y-101547273D01*
X174323207Y-101445413D01*
X174270480Y-101354087D01*
X174195913Y-101279520D01*
X174104587Y-101226793D01*
X174002727Y-101199500D01*
X173897273Y-101199500D01*
X173795413Y-101226793D01*
X173795410Y-101226794D01*
X173750494Y-101252727D01*
X173704087Y-101279520D01*
X173704086Y-101279520D01*
X173698256Y-101282887D01*
X173682767Y-101287037D01*
X173671191Y-101294477D01*
X173636256Y-101299500D01*
X173525833Y-101299500D01*
X173458794Y-101279815D01*
X173438152Y-101263181D01*
X170434512Y-98259541D01*
X170434507Y-98259537D01*
X170410907Y-98245912D01*
X170410907Y-98245911D01*
X170410905Y-98245911D01*
X170365994Y-98219981D01*
X170365993Y-98219980D01*
X170356960Y-98217559D01*
X170289562Y-98199500D01*
X170289560Y-98199500D01*
X169382941Y-98199500D01*
X169353500Y-98190855D01*
X169323514Y-98184332D01*
X169318498Y-98180577D01*
X169315902Y-98179815D01*
X169295260Y-98163181D01*
X169162890Y-98030811D01*
X169130796Y-97975223D01*
X169129054Y-97968721D01*
X169129054Y-97968719D01*
X169101761Y-97866859D01*
X169049034Y-97775533D01*
X168974467Y-97700966D01*
X168907613Y-97662368D01*
X168883143Y-97648240D01*
X168883142Y-97648239D01*
X168883141Y-97648239D01*
X168781281Y-97620946D01*
X168675827Y-97620946D01*
X168573967Y-97648239D01*
X168573964Y-97648240D01*
X168482639Y-97700967D01*
X168408075Y-97775531D01*
X168355348Y-97866856D01*
X168355347Y-97866857D01*
X168349223Y-97889716D01*
X168312858Y-97949376D01*
X168250011Y-97979905D01*
X168229448Y-97981622D01*
X168196332Y-97981622D01*
X168094472Y-98008915D01*
X168094469Y-98008916D01*
X168003144Y-98061643D01*
X167928580Y-98136207D01*
X167875853Y-98227532D01*
X167875852Y-98227535D01*
X167848559Y-98329395D01*
X162557707Y-98329395D01*
X162610489Y-98276613D01*
X162669799Y-98173886D01*
X162700500Y-98059309D01*
X162700500Y-97940691D01*
X162669799Y-97826114D01*
X162610489Y-97723387D01*
X162526613Y-97639511D01*
X162423886Y-97580201D01*
X162309309Y-97549500D01*
X162190691Y-97549500D01*
X162076114Y-97580201D01*
X162076112Y-97580201D01*
X162076112Y-97580202D01*
X161973387Y-97639511D01*
X161973384Y-97639513D01*
X161889513Y-97723384D01*
X161889511Y-97723387D01*
X161871498Y-97754587D01*
X161830201Y-97826114D01*
X161799500Y-97940691D01*
X151852735Y-97940691D01*
X151919655Y-97895977D01*
X151925916Y-97889716D01*
X151970750Y-97844883D01*
X152065974Y-97749658D01*
X152065975Y-97749657D01*
X152065977Y-97749655D01*
X152180941Y-97577598D01*
X152260130Y-97386420D01*
X152300500Y-97183465D01*
X152300500Y-96976535D01*
X152260130Y-96773580D01*
X152180941Y-96582402D01*
X152065977Y-96410345D01*
X152065975Y-96410342D01*
X151919657Y-96264024D01*
X151833626Y-96206541D01*
X151747598Y-96149059D01*
X151556420Y-96069870D01*
X151556412Y-96069868D01*
X151353469Y-96029500D01*
X151353465Y-96029500D01*
X151146535Y-96029500D01*
X151146530Y-96029500D01*
X150943587Y-96069868D01*
X150943579Y-96069870D01*
X150752403Y-96149058D01*
X150580342Y-96264024D01*
X150434024Y-96410342D01*
X150319057Y-96582403D01*
X150239061Y-96775533D01*
X150195220Y-96829936D01*
X150128926Y-96852001D01*
X150061226Y-96834722D01*
X150013616Y-96783584D01*
X150000500Y-96728080D01*
X150000500Y-94891919D01*
X150020185Y-94824880D01*
X150072989Y-94779125D01*
X150142147Y-94769181D01*
X150205703Y-94798206D01*
X150239061Y-94844466D01*
X150239869Y-94846418D01*
X150239870Y-94846420D01*
X150278430Y-94939511D01*
X150319058Y-95037596D01*
X150434024Y-95209657D01*
X150580342Y-95355975D01*
X150580345Y-95355977D01*
X150752402Y-95470941D01*
X150943580Y-95550130D01*
X151146530Y-95590499D01*
X151146534Y-95590500D01*
X151146535Y-95590500D01*
X151353466Y-95590500D01*
X151353467Y-95590499D01*
X151556420Y-95550130D01*
X151747598Y-95470941D01*
X151919655Y-95355977D01*
X152065977Y-95209655D01*
X152180941Y-95037598D01*
X152260130Y-94846420D01*
X152300500Y-94643465D01*
X152300500Y-94436535D01*
X152260130Y-94233580D01*
X152180941Y-94042402D01*
X152065977Y-93870345D01*
X152065975Y-93870342D01*
X151919657Y-93724024D01*
X151822798Y-93659306D01*
X151747598Y-93609059D01*
X151698112Y-93588561D01*
X151643709Y-93544720D01*
X151621644Y-93478426D01*
X151638923Y-93410726D01*
X151690061Y-93363116D01*
X151745565Y-93350000D01*
X152147828Y-93350000D01*
X152147844Y-93349999D01*
X152207372Y-93343598D01*
X152207379Y-93343596D01*
X152342086Y-93293354D01*
X152342093Y-93293350D01*
X152457187Y-93207190D01*
X152457190Y-93207187D01*
X152543350Y-93092093D01*
X152543354Y-93092086D01*
X152593596Y-92957379D01*
X152593598Y-92957372D01*
X152599999Y-92897844D01*
X152600000Y-92897827D01*
X152600000Y-92250000D01*
X151683012Y-92250000D01*
X151715925Y-92192993D01*
X151750000Y-92065826D01*
X151750000Y-91934174D01*
X151715925Y-91807007D01*
X151683012Y-91750000D01*
X152600000Y-91750000D01*
X152600000Y-91102172D01*
X152599999Y-91102155D01*
X152593598Y-91042627D01*
X152593596Y-91042620D01*
X152543354Y-90907913D01*
X152543350Y-90907906D01*
X152457190Y-90792812D01*
X152457187Y-90792809D01*
X152342093Y-90706649D01*
X152342086Y-90706645D01*
X152207379Y-90656403D01*
X152207372Y-90656401D01*
X152147844Y-90650000D01*
X151500000Y-90650000D01*
X151500000Y-91566988D01*
X151442993Y-91534075D01*
X151315826Y-91500000D01*
X151184174Y-91500000D01*
X151057007Y-91534075D01*
X151000000Y-91566988D01*
X151000000Y-90650000D01*
X150352155Y-90650000D01*
X150292627Y-90656401D01*
X150292617Y-90656403D01*
X150167832Y-90702945D01*
X150098141Y-90707929D01*
X150036818Y-90674443D01*
X150003334Y-90613120D01*
X150000500Y-90586763D01*
X150000500Y-89584296D01*
X156299500Y-89584296D01*
X156299500Y-89915703D01*
X156336601Y-90244991D01*
X156336604Y-90245005D01*
X156410346Y-90568093D01*
X156410349Y-90568101D01*
X156519799Y-90880890D01*
X156663582Y-91179458D01*
X156663584Y-91179461D01*
X156839896Y-91460060D01*
X157046516Y-91719153D01*
X157280847Y-91953484D01*
X157539940Y-92160104D01*
X157773735Y-92307007D01*
X157820541Y-92336417D01*
X157920063Y-92384344D01*
X158119113Y-92480202D01*
X158354037Y-92562405D01*
X158431898Y-92589650D01*
X158431906Y-92589653D01*
X158431909Y-92589653D01*
X158431910Y-92589654D01*
X158754994Y-92663396D01*
X158755003Y-92663397D01*
X158755008Y-92663398D01*
X158974533Y-92688132D01*
X159084297Y-92700499D01*
X159084300Y-92700500D01*
X159084303Y-92700500D01*
X159415700Y-92700500D01*
X159415701Y-92700499D01*
X159583996Y-92681537D01*
X159744991Y-92663398D01*
X159744994Y-92663397D01*
X159745006Y-92663396D01*
X160068090Y-92589654D01*
X160380887Y-92480202D01*
X160679461Y-92336416D01*
X160900906Y-92197273D01*
X173099500Y-92197273D01*
X173099500Y-92302727D01*
X173126793Y-92404587D01*
X173179520Y-92495913D01*
X173254087Y-92570480D01*
X173345413Y-92623207D01*
X173447273Y-92650500D01*
X173447276Y-92650500D01*
X173453777Y-92652242D01*
X173509365Y-92684336D01*
X179565489Y-98740460D01*
X179634012Y-98780022D01*
X179710438Y-98800500D01*
X180186256Y-98800500D01*
X180248256Y-98817113D01*
X180254085Y-98820478D01*
X180254087Y-98820480D01*
X180345413Y-98873207D01*
X180447273Y-98900500D01*
X180447275Y-98900500D01*
X180552725Y-98900500D01*
X180552727Y-98900500D01*
X180654587Y-98873207D01*
X180745913Y-98820480D01*
X180820480Y-98745913D01*
X180873207Y-98654587D01*
X180900500Y-98552727D01*
X180900500Y-98447273D01*
X180873207Y-98345413D01*
X180820480Y-98254087D01*
X180745913Y-98179520D01*
X180654587Y-98126793D01*
X180552727Y-98099500D01*
X180447273Y-98099500D01*
X180345413Y-98126793D01*
X180345410Y-98126794D01*
X180286555Y-98160774D01*
X180254087Y-98179520D01*
X180254086Y-98179520D01*
X180248256Y-98182887D01*
X180186256Y-98199500D01*
X179925833Y-98199500D01*
X179858794Y-98179815D01*
X179838152Y-98163181D01*
X179222244Y-97547273D01*
X197549500Y-97547273D01*
X197549500Y-97652727D01*
X197576793Y-97754587D01*
X197629520Y-97845913D01*
X197704087Y-97920480D01*
X197795413Y-97973207D01*
X197897273Y-98000500D01*
X197897275Y-98000500D01*
X198002725Y-98000500D01*
X198002727Y-98000500D01*
X198104587Y-97973207D01*
X198195913Y-97920480D01*
X198270480Y-97845913D01*
X198323207Y-97754587D01*
X198350500Y-97652727D01*
X198350500Y-97547273D01*
X198323207Y-97445413D01*
X198270480Y-97354087D01*
X198195913Y-97279520D01*
X198104587Y-97226793D01*
X198002727Y-97199500D01*
X197897273Y-97199500D01*
X197795413Y-97226793D01*
X197795410Y-97226794D01*
X197704085Y-97279521D01*
X197629521Y-97354085D01*
X197576794Y-97445410D01*
X197576793Y-97445413D01*
X197549500Y-97547273D01*
X179222244Y-97547273D01*
X176915662Y-95240691D01*
X187199500Y-95240691D01*
X187199500Y-95359309D01*
X187230201Y-95473886D01*
X187289511Y-95576613D01*
X187373387Y-95660489D01*
X187476114Y-95719799D01*
X187590691Y-95750500D01*
X187590694Y-95750500D01*
X187709306Y-95750500D01*
X187709309Y-95750500D01*
X187823886Y-95719799D01*
X187926613Y-95660489D01*
X188010489Y-95576613D01*
X188069799Y-95473886D01*
X188100500Y-95359309D01*
X188100500Y-95240691D01*
X188069799Y-95126114D01*
X188010489Y-95023387D01*
X187926613Y-94939511D01*
X187823886Y-94880201D01*
X187709309Y-94849500D01*
X187590691Y-94849500D01*
X187476114Y-94880201D01*
X187476112Y-94880201D01*
X187476112Y-94880202D01*
X187373387Y-94939511D01*
X187373384Y-94939513D01*
X187289513Y-95023384D01*
X187289511Y-95023387D01*
X187230201Y-95126114D01*
X187199500Y-95240691D01*
X176915662Y-95240691D01*
X175215662Y-93540691D01*
X180199500Y-93540691D01*
X180199500Y-93659309D01*
X180230201Y-93773886D01*
X180289511Y-93876613D01*
X180373387Y-93960489D01*
X180476114Y-94019799D01*
X180590691Y-94050500D01*
X180590694Y-94050500D01*
X180709306Y-94050500D01*
X180709309Y-94050500D01*
X180823886Y-94019799D01*
X180926613Y-93960489D01*
X181010489Y-93876613D01*
X181069799Y-93773886D01*
X181100500Y-93659309D01*
X181100500Y-93540691D01*
X181069799Y-93426114D01*
X181010489Y-93323387D01*
X180926613Y-93239511D01*
X180823886Y-93180201D01*
X180709309Y-93149500D01*
X180590691Y-93149500D01*
X180476114Y-93180201D01*
X180476112Y-93180201D01*
X180476112Y-93180202D01*
X180373387Y-93239511D01*
X180373384Y-93239513D01*
X180289513Y-93323384D01*
X180289511Y-93323387D01*
X180276342Y-93346197D01*
X180230201Y-93426114D01*
X180199500Y-93540691D01*
X175215662Y-93540691D01*
X173934336Y-92259365D01*
X173926318Y-92245477D01*
X173916135Y-92236220D01*
X173902242Y-92203776D01*
X173893524Y-92171238D01*
X173887103Y-92147275D01*
X173887102Y-92147273D01*
X174849500Y-92147273D01*
X174849500Y-92252727D01*
X174876793Y-92354587D01*
X174929520Y-92445913D01*
X175004087Y-92520480D01*
X175095413Y-92573207D01*
X175197273Y-92600500D01*
X175197275Y-92600500D01*
X175302725Y-92600500D01*
X175302727Y-92600500D01*
X175404587Y-92573207D01*
X175495913Y-92520480D01*
X175570480Y-92445913D01*
X175623207Y-92354587D01*
X175650500Y-92252727D01*
X175650500Y-92147273D01*
X175623207Y-92045413D01*
X175570480Y-91954087D01*
X175495913Y-91879520D01*
X175404587Y-91826793D01*
X175302727Y-91799500D01*
X175197273Y-91799500D01*
X175095413Y-91826793D01*
X175095410Y-91826794D01*
X175004085Y-91879521D01*
X174929521Y-91954085D01*
X174876794Y-92045410D01*
X174876793Y-92045413D01*
X174849500Y-92147273D01*
X173887102Y-92147273D01*
X173873207Y-92095413D01*
X173820480Y-92004087D01*
X173745913Y-91929520D01*
X173659312Y-91879521D01*
X173654589Y-91876794D01*
X173654588Y-91876793D01*
X173654587Y-91876793D01*
X173552727Y-91849500D01*
X173447273Y-91849500D01*
X173345413Y-91876793D01*
X173345410Y-91876794D01*
X173254085Y-91929521D01*
X173179521Y-92004085D01*
X173126794Y-92095410D01*
X173126793Y-92095413D01*
X173099500Y-92197273D01*
X160900906Y-92197273D01*
X160960060Y-92160104D01*
X161219153Y-91953484D01*
X161453484Y-91719153D01*
X161660104Y-91460060D01*
X161836416Y-91179461D01*
X161980202Y-90880887D01*
X162089654Y-90568090D01*
X162163396Y-90245006D01*
X162200500Y-89915697D01*
X162200500Y-89584303D01*
X162200499Y-89584296D01*
X186799500Y-89584296D01*
X186799500Y-89915703D01*
X186836601Y-90244991D01*
X186836604Y-90245005D01*
X186910346Y-90568093D01*
X186910349Y-90568101D01*
X187019799Y-90880890D01*
X187163582Y-91179458D01*
X187163584Y-91179461D01*
X187339896Y-91460060D01*
X187546516Y-91719153D01*
X187780847Y-91953484D01*
X188039940Y-92160104D01*
X188273735Y-92307007D01*
X188320541Y-92336417D01*
X188420063Y-92384344D01*
X188619113Y-92480202D01*
X188854037Y-92562405D01*
X188931898Y-92589650D01*
X188931906Y-92589653D01*
X188931909Y-92589653D01*
X188931910Y-92589654D01*
X189254994Y-92663396D01*
X189255003Y-92663397D01*
X189255008Y-92663398D01*
X189474533Y-92688132D01*
X189584297Y-92700499D01*
X189584300Y-92700500D01*
X189584303Y-92700500D01*
X189915700Y-92700500D01*
X189915701Y-92700499D01*
X190083996Y-92681537D01*
X190244991Y-92663398D01*
X190244994Y-92663397D01*
X190245006Y-92663396D01*
X190568090Y-92589654D01*
X190880887Y-92480202D01*
X191179461Y-92336416D01*
X191460060Y-92160104D01*
X191719153Y-91953484D01*
X191953484Y-91719153D01*
X192160104Y-91460060D01*
X192336416Y-91179461D01*
X192480202Y-90880887D01*
X192589654Y-90568090D01*
X192663396Y-90245006D01*
X192700500Y-89915697D01*
X192700500Y-89584303D01*
X192663396Y-89254994D01*
X192589654Y-88931910D01*
X192480202Y-88619113D01*
X192336416Y-88320539D01*
X192160104Y-88039940D01*
X191953484Y-87780847D01*
X191719153Y-87546516D01*
X191460060Y-87339896D01*
X191179461Y-87163584D01*
X191179458Y-87163582D01*
X190880890Y-87019799D01*
X190568101Y-86910349D01*
X190568093Y-86910346D01*
X190325777Y-86855039D01*
X190245006Y-86836604D01*
X190245003Y-86836603D01*
X190244991Y-86836601D01*
X189915703Y-86799500D01*
X189915697Y-86799500D01*
X189584303Y-86799500D01*
X189584296Y-86799500D01*
X189255008Y-86836601D01*
X189254994Y-86836604D01*
X188931906Y-86910346D01*
X188931898Y-86910349D01*
X188619109Y-87019799D01*
X188320541Y-87163582D01*
X188039941Y-87339895D01*
X187780847Y-87546515D01*
X187546515Y-87780847D01*
X187339895Y-88039941D01*
X187163582Y-88320541D01*
X187019799Y-88619109D01*
X186910349Y-88931898D01*
X186910346Y-88931906D01*
X186836604Y-89254994D01*
X186836601Y-89255008D01*
X186799500Y-89584296D01*
X162200499Y-89584296D01*
X162163396Y-89254994D01*
X162089654Y-88931910D01*
X161980202Y-88619113D01*
X161836416Y-88320539D01*
X161660104Y-88039940D01*
X161453484Y-87780847D01*
X161219153Y-87546516D01*
X161109799Y-87459309D01*
X161072434Y-87429511D01*
X160961059Y-87340693D01*
X160961056Y-87340691D01*
X164399500Y-87340691D01*
X164399500Y-87459309D01*
X164430201Y-87573886D01*
X164489511Y-87676613D01*
X164573387Y-87760489D01*
X164676114Y-87819799D01*
X164790691Y-87850500D01*
X164790694Y-87850500D01*
X164909306Y-87850500D01*
X164909309Y-87850500D01*
X165023886Y-87819799D01*
X165126613Y-87760489D01*
X165210489Y-87676613D01*
X165269799Y-87573886D01*
X165300500Y-87459309D01*
X165300500Y-87340691D01*
X165269799Y-87226114D01*
X165210489Y-87123387D01*
X165126613Y-87039511D01*
X165023886Y-86980201D01*
X164909309Y-86949500D01*
X164790691Y-86949500D01*
X164676114Y-86980201D01*
X164676112Y-86980201D01*
X164676112Y-86980202D01*
X164573387Y-87039511D01*
X164573384Y-87039513D01*
X164489513Y-87123384D01*
X164489511Y-87123387D01*
X164430201Y-87226114D01*
X164399500Y-87340691D01*
X160961056Y-87340691D01*
X160960060Y-87339896D01*
X160679461Y-87163584D01*
X160679458Y-87163582D01*
X160380890Y-87019799D01*
X160068101Y-86910349D01*
X160068093Y-86910346D01*
X159825777Y-86855039D01*
X159745006Y-86836604D01*
X159745003Y-86836603D01*
X159744991Y-86836601D01*
X159529891Y-86812366D01*
X159529890Y-86812366D01*
X159415701Y-86799500D01*
X159415697Y-86799500D01*
X159084303Y-86799500D01*
X159084296Y-86799500D01*
X158755008Y-86836601D01*
X158754994Y-86836604D01*
X158431906Y-86910346D01*
X158431898Y-86910349D01*
X158119109Y-87019799D01*
X157820541Y-87163582D01*
X157539941Y-87339895D01*
X157280847Y-87546515D01*
X157046515Y-87780847D01*
X156839895Y-88039941D01*
X156663582Y-88320541D01*
X156519799Y-88619109D01*
X156410349Y-88931898D01*
X156410346Y-88931906D01*
X156336604Y-89254994D01*
X156336601Y-89255008D01*
X156299500Y-89584296D01*
X150000500Y-89584296D01*
X150000500Y-86697273D01*
X176599500Y-86697273D01*
X176599500Y-86802727D01*
X176626793Y-86904587D01*
X176679520Y-86995913D01*
X176754087Y-87070480D01*
X176845413Y-87123207D01*
X176947273Y-87150500D01*
X176947275Y-87150500D01*
X177052725Y-87150500D01*
X177052727Y-87150500D01*
X177154587Y-87123207D01*
X177245913Y-87070480D01*
X177320480Y-86995913D01*
X177373207Y-86904587D01*
X177400500Y-86802727D01*
X177400500Y-86697273D01*
X177373207Y-86595413D01*
X177320480Y-86504087D01*
X177245913Y-86429520D01*
X177154587Y-86376793D01*
X177052727Y-86349500D01*
X176947273Y-86349500D01*
X176845413Y-86376793D01*
X176845410Y-86376794D01*
X176754085Y-86429521D01*
X176679521Y-86504085D01*
X176626794Y-86595410D01*
X176626793Y-86595413D01*
X176599500Y-86697273D01*
X150000500Y-86697273D01*
X150000500Y-83003750D01*
X150000726Y-82996263D01*
X150018271Y-82706205D01*
X150020076Y-82691340D01*
X150071780Y-82409201D01*
X150075364Y-82394663D01*
X150152096Y-82148422D01*
X150160696Y-82120822D01*
X150165998Y-82106841D01*
X150283731Y-81845249D01*
X150290676Y-81832016D01*
X150439080Y-81586526D01*
X150447567Y-81574230D01*
X150624480Y-81348417D01*
X150634395Y-81337226D01*
X150837226Y-81134395D01*
X150848417Y-81124480D01*
X151074230Y-80947567D01*
X151086526Y-80939080D01*
X151332016Y-80790676D01*
X151345249Y-80783731D01*
X151606841Y-80665998D01*
X151620822Y-80660696D01*
X151894668Y-80575362D01*
X151909197Y-80571780D01*
X152191344Y-80520075D01*
X152206201Y-80518271D01*
X152496264Y-80500726D01*
X152503751Y-80500500D01*
X152565892Y-80500500D01*
X196434108Y-80500500D01*
X196496249Y-80500500D01*
X196503736Y-80500726D01*
G37*
%TD.AperFunction*%
%TD*%
M02*
