%TF.GenerationSoftware,KiCad,Pcbnew,9.0.7-9.0.7~ubuntu24.04.1*%
%TF.CreationDate,2026-06-15T01:11:19+02:00*%
%TF.ProjectId,flight_controller,666c6967-6874-45f6-936f-6e74726f6c6c,rev?*%
%TF.SameCoordinates,Original*%
%TF.FileFunction,Copper,L2,Inr*%
%TF.FilePolarity,Positive*%
%FSLAX46Y46*%
G04 Gerber Fmt 4.6, Leading zero omitted, Abs format (unit mm)*
G04 Created by KiCad (PCBNEW 9.0.7-9.0.7~ubuntu24.04.1) date 2026-06-15 01:11:19*
%MOMM*%
%LPD*%
G01*
G04 APERTURE LIST*
%TA.AperFunction,ComponentPad*%
%ADD10R,1.700000X1.700000*%
%TD*%
%TA.AperFunction,ComponentPad*%
%ADD11C,1.700000*%
%TD*%
%TA.AperFunction,ComponentPad*%
%ADD12C,5.500000*%
%TD*%
%TA.AperFunction,ComponentPad*%
%ADD13R,0.850000X0.850000*%
%TD*%
%TA.AperFunction,ComponentPad*%
%ADD14C,0.850000*%
%TD*%
%TA.AperFunction,ComponentPad*%
%ADD15O,2.100000X1.000000*%
%TD*%
%TA.AperFunction,ComponentPad*%
%ADD16O,1.800000X1.000000*%
%TD*%
%TA.AperFunction,ViaPad*%
%ADD17C,0.500000*%
%TD*%
G04 APERTURE END LIST*
D10*
%TO.N,GNDREF*%
%TO.C,J5*%
X151250000Y-92000000D03*
D11*
%TO.N,/GPS_TX*%
X151250000Y-94540000D03*
%TO.N,/GPS_RX*%
X151250000Y-97080000D03*
%TO.N,+5V*%
X151250000Y-99620000D03*
%TD*%
D10*
%TO.N,GNDREF*%
%TO.C,J3*%
X160880000Y-128000000D03*
D11*
%TO.N,/VTX_TX*%
X163420000Y-128000000D03*
%TO.N,/VTX_RX*%
X165960000Y-128000000D03*
%TO.N,+9V*%
X168500000Y-128000000D03*
%TD*%
D10*
%TO.N,GNDREF*%
%TO.C,J4*%
X151250000Y-111000000D03*
D11*
%TO.N,/TRANSCEIVER_TX*%
X151250000Y-113540000D03*
%TO.N,/TRANSCEIVER_RX*%
X151250000Y-116080000D03*
%TO.N,+5V*%
X151250000Y-118620000D03*
%TD*%
D12*
%TO.N,*%
%TO.C,REF\u002A\u002A*%
X189750000Y-120250000D03*
%TD*%
%TO.N,*%
%TO.C,REF\u002A\u002A*%
X159250000Y-89750000D03*
%TD*%
%TO.N,*%
%TO.C,REF\u002A\u002A*%
X159250000Y-120250000D03*
%TD*%
D13*
%TO.N,GNDREF*%
%TO.C,J1*%
X193500000Y-102250000D03*
D14*
%TO.N,/JTAG_SWCLK*%
X193500000Y-103250000D03*
%TO.N,/JTAG_SWDIO*%
X193500000Y-104250000D03*
%TD*%
D12*
%TO.N,*%
%TO.C,REF\u002A\u002A*%
X189750000Y-89750000D03*
%TD*%
D15*
%TO.N,GNDREF*%
%TO.C,J6*%
X192482500Y-115820000D03*
X192482500Y-107180000D03*
D16*
X196662500Y-115820000D03*
X196662500Y-107180000D03*
%TD*%
D17*
%TO.N,+3.3V*%
X176650000Y-112900000D03*
%TO.N,GNDREF*%
X174884140Y-115386059D03*
%TO.N,/BMP_SCLK*%
X174160000Y-115610000D03*
%TO.N,GNDREF*%
X173211596Y-121689636D03*
%TO.N,+3.3V*%
X170850000Y-106200000D03*
X187650000Y-95300000D03*
X158750000Y-115100000D03*
X167450000Y-100600000D03*
X183450000Y-112900000D03*
X180650000Y-93600000D03*
X184150000Y-115900000D03*
X174513909Y-118263909D03*
X170550000Y-115300000D03*
X170250000Y-111000000D03*
X175250000Y-92200000D03*
X188150000Y-102500000D03*
X167950110Y-117501685D03*
X167500000Y-87950000D03*
%TO.N,GNDREF*%
X172093722Y-111618610D03*
X184293971Y-111573895D03*
X169603245Y-106089198D03*
X174700645Y-101298486D03*
X198113794Y-127590761D03*
X174322623Y-96829467D03*
X166732784Y-115234557D03*
X174321402Y-110798846D03*
X177892651Y-107550875D03*
X181893655Y-104285596D03*
X174241829Y-91951021D03*
X197224771Y-128529174D03*
X151884217Y-128422887D03*
X154165207Y-109982508D03*
X182564068Y-117816730D03*
X150781709Y-82359765D03*
X160041445Y-99986123D03*
X173088446Y-103359149D03*
X197261587Y-81310977D03*
X181750000Y-111100000D03*
X167388364Y-98700528D03*
X198200000Y-82200000D03*
X150945804Y-127533864D03*
X180982462Y-99177736D03*
X180850000Y-104700000D03*
X169247765Y-97215636D03*
X165050000Y-112600000D03*
X175759285Y-114497678D03*
X181685172Y-115285551D03*
X179903619Y-93036362D03*
X151670732Y-81421352D03*
X182844413Y-123989163D03*
%TO.N,VBAT*%
X183150000Y-119100000D03*
X185750000Y-126500000D03*
X177000000Y-86750000D03*
X162250000Y-98000000D03*
X154350000Y-101200000D03*
%TO.N,/ICM_INT1*%
X184050000Y-110800000D03*
X181950000Y-117400000D03*
%TO.N,+5VBAT*%
X190350000Y-106400000D03*
X162250000Y-109500000D03*
%TO.N,/BMP_SCLK*%
X174150000Y-110000000D03*
%TO.N,/BOOT*%
X173500000Y-92250000D03*
X180500000Y-98500000D03*
%TO.N,/BMP_SDI*%
X177150000Y-107500000D03*
X175250000Y-114000000D03*
%TO.N,+5V*%
X164550110Y-123401685D03*
X188050000Y-114800000D03*
X186750000Y-109000000D03*
X197950000Y-97600000D03*
X170550000Y-123300000D03*
%TO.N,Net-(U2-FB)*%
X159500000Y-100500000D03*
X154750000Y-109500000D03*
%TO.N,Net-(U4-FB)*%
X183599998Y-123934715D03*
X173650000Y-122300000D03*
%TO.N,/FLASH_SCLK*%
X165750000Y-112250000D03*
X166750000Y-114500000D03*
%TO.N,/ICM_MISO*%
X181000000Y-115750000D03*
X181750000Y-110250000D03*
%TO.N,/VTX_RX*%
X182450000Y-104950000D03*
%TO.N,/VTX_TX*%
X181446446Y-105096446D03*
%TO.N,/GPS_RX*%
X168100000Y-98450000D03*
X173150000Y-102600000D03*
%TO.N,/GPS_TX*%
X173950000Y-101600000D03*
X168850000Y-97850000D03*
%TD*%
%TA.AperFunction,Conductor*%
%TO.N,GNDREF*%
G36*
X196503736Y-80500726D02*
G01*
X196793796Y-80518271D01*
X196808659Y-80520076D01*
X197090798Y-80571780D01*
X197105335Y-80575363D01*
X197379172Y-80660695D01*
X197393163Y-80666000D01*
X197654743Y-80783727D01*
X197667989Y-80790680D01*
X197913465Y-80939075D01*
X197925776Y-80947573D01*
X198151573Y-81124473D01*
X198162781Y-81134403D01*
X198365596Y-81337218D01*
X198375526Y-81348426D01*
X198495481Y-81501538D01*
X198552422Y-81574217D01*
X198560928Y-81586540D01*
X198709316Y-81832004D01*
X198716275Y-81845263D01*
X198833997Y-82106831D01*
X198839306Y-82120832D01*
X198924635Y-82394663D01*
X198928219Y-82409201D01*
X198979923Y-82691340D01*
X198981728Y-82706205D01*
X198999274Y-82996263D01*
X198999500Y-83003750D01*
X198999500Y-126996249D01*
X198999274Y-127003736D01*
X198981728Y-127293794D01*
X198979923Y-127308659D01*
X198928219Y-127590798D01*
X198924635Y-127605336D01*
X198839306Y-127879167D01*
X198833997Y-127893168D01*
X198716275Y-128154736D01*
X198709316Y-128167995D01*
X198560928Y-128413459D01*
X198552422Y-128425782D01*
X198375526Y-128651573D01*
X198365596Y-128662781D01*
X198162781Y-128865596D01*
X198151573Y-128875526D01*
X197925782Y-129052422D01*
X197913459Y-129060928D01*
X197667995Y-129209316D01*
X197654736Y-129216275D01*
X197393168Y-129333997D01*
X197379167Y-129339306D01*
X197105336Y-129424635D01*
X197090798Y-129428219D01*
X196808659Y-129479923D01*
X196793794Y-129481728D01*
X196503736Y-129499274D01*
X196496249Y-129499500D01*
X162069269Y-129499500D01*
X162002230Y-129479815D01*
X161956475Y-129427011D01*
X161946531Y-129357853D01*
X161975556Y-129294297D01*
X161994958Y-129276234D01*
X162087187Y-129207190D01*
X162087190Y-129207187D01*
X162173350Y-129092093D01*
X162173354Y-129092086D01*
X162223596Y-128957379D01*
X162223598Y-128957372D01*
X162229999Y-128897844D01*
X162230000Y-128897827D01*
X162230000Y-128495564D01*
X162249685Y-128428525D01*
X162302489Y-128382770D01*
X162371647Y-128372826D01*
X162435203Y-128401851D01*
X162468561Y-128448112D01*
X162489059Y-128497598D01*
X162565701Y-128612302D01*
X162604024Y-128669657D01*
X162750342Y-128815975D01*
X162750345Y-128815977D01*
X162922402Y-128930941D01*
X163113580Y-129010130D01*
X163316530Y-129050499D01*
X163316534Y-129050500D01*
X163316535Y-129050500D01*
X163523466Y-129050500D01*
X163523467Y-129050499D01*
X163726420Y-129010130D01*
X163917598Y-128930941D01*
X164089655Y-128815977D01*
X164235977Y-128669655D01*
X164350941Y-128497598D01*
X164430130Y-128306420D01*
X164470500Y-128103465D01*
X164470500Y-127896535D01*
X164470499Y-127896530D01*
X164909500Y-127896530D01*
X164909500Y-128103469D01*
X164949868Y-128306412D01*
X164949870Y-128306420D01*
X164967921Y-128350000D01*
X165029059Y-128497598D01*
X165086541Y-128583626D01*
X165144024Y-128669657D01*
X165290342Y-128815975D01*
X165290345Y-128815977D01*
X165462402Y-128930941D01*
X165653580Y-129010130D01*
X165856530Y-129050499D01*
X165856534Y-129050500D01*
X165856535Y-129050500D01*
X166063466Y-129050500D01*
X166063467Y-129050499D01*
X166266420Y-129010130D01*
X166457598Y-128930941D01*
X166629655Y-128815977D01*
X166775977Y-128669655D01*
X166890941Y-128497598D01*
X166970130Y-128306420D01*
X167010500Y-128103465D01*
X167010500Y-127896535D01*
X167010499Y-127896530D01*
X167449500Y-127896530D01*
X167449500Y-128103469D01*
X167489868Y-128306412D01*
X167489870Y-128306420D01*
X167507921Y-128350000D01*
X167569059Y-128497598D01*
X167626541Y-128583626D01*
X167684024Y-128669657D01*
X167830342Y-128815975D01*
X167830345Y-128815977D01*
X168002402Y-128930941D01*
X168193580Y-129010130D01*
X168396530Y-129050499D01*
X168396534Y-129050500D01*
X168396535Y-129050500D01*
X168603466Y-129050500D01*
X168603467Y-129050499D01*
X168806420Y-129010130D01*
X168997598Y-128930941D01*
X169169655Y-128815977D01*
X169315977Y-128669655D01*
X169430941Y-128497598D01*
X169510130Y-128306420D01*
X169550500Y-128103465D01*
X169550500Y-127896535D01*
X169510130Y-127693580D01*
X169430941Y-127502402D01*
X169315977Y-127330345D01*
X169315975Y-127330342D01*
X169169657Y-127184024D01*
X169047130Y-127102155D01*
X168997598Y-127069059D01*
X168806420Y-126989870D01*
X168806412Y-126989868D01*
X168603469Y-126949500D01*
X168603465Y-126949500D01*
X168396535Y-126949500D01*
X168396530Y-126949500D01*
X168193587Y-126989868D01*
X168193579Y-126989870D01*
X168002403Y-127069058D01*
X167830342Y-127184024D01*
X167684024Y-127330342D01*
X167569058Y-127502403D01*
X167489870Y-127693579D01*
X167489868Y-127693587D01*
X167449500Y-127896530D01*
X167010499Y-127896530D01*
X166970130Y-127693580D01*
X166890941Y-127502402D01*
X166775977Y-127330345D01*
X166775975Y-127330342D01*
X166629657Y-127184024D01*
X166507130Y-127102155D01*
X166457598Y-127069059D01*
X166266420Y-126989870D01*
X166266412Y-126989868D01*
X166063469Y-126949500D01*
X166063465Y-126949500D01*
X165856535Y-126949500D01*
X165856530Y-126949500D01*
X165653587Y-126989868D01*
X165653579Y-126989870D01*
X165462403Y-127069058D01*
X165290342Y-127184024D01*
X165144024Y-127330342D01*
X165029058Y-127502403D01*
X164949870Y-127693579D01*
X164949868Y-127693587D01*
X164909500Y-127896530D01*
X164470499Y-127896530D01*
X164430130Y-127693580D01*
X164350941Y-127502402D01*
X164235977Y-127330345D01*
X164235975Y-127330342D01*
X164089657Y-127184024D01*
X163967130Y-127102155D01*
X163917598Y-127069059D01*
X163726420Y-126989870D01*
X163726412Y-126989868D01*
X163523469Y-126949500D01*
X163523465Y-126949500D01*
X163316535Y-126949500D01*
X163316530Y-126949500D01*
X163113587Y-126989868D01*
X163113579Y-126989870D01*
X162922403Y-127069058D01*
X162750342Y-127184024D01*
X162604024Y-127330342D01*
X162489058Y-127502403D01*
X162468561Y-127551888D01*
X162424720Y-127606291D01*
X162358426Y-127628356D01*
X162290726Y-127611077D01*
X162243116Y-127559939D01*
X162230000Y-127504435D01*
X162230000Y-127102172D01*
X162229999Y-127102155D01*
X162223598Y-127042627D01*
X162223596Y-127042620D01*
X162173354Y-126907913D01*
X162173350Y-126907906D01*
X162087190Y-126792812D01*
X162087187Y-126792809D01*
X161972093Y-126706649D01*
X161972086Y-126706645D01*
X161837379Y-126656403D01*
X161837372Y-126656401D01*
X161777844Y-126650000D01*
X161130000Y-126650000D01*
X161130000Y-127755025D01*
X161094905Y-127719930D01*
X161015095Y-127673852D01*
X160926078Y-127650000D01*
X160833922Y-127650000D01*
X160744905Y-127673852D01*
X160665095Y-127719930D01*
X160599930Y-127785095D01*
X160553852Y-127864905D01*
X160530000Y-127953922D01*
X160530000Y-128046078D01*
X160553852Y-128135095D01*
X160599930Y-128214905D01*
X160635025Y-128250000D01*
X159530000Y-128250000D01*
X159530000Y-128897844D01*
X159536401Y-128957372D01*
X159536403Y-128957379D01*
X159586645Y-129092086D01*
X159586649Y-129092093D01*
X159672809Y-129207187D01*
X159672812Y-129207190D01*
X159765042Y-129276234D01*
X159806913Y-129332168D01*
X159811897Y-129401859D01*
X159778411Y-129463182D01*
X159717088Y-129496666D01*
X159690731Y-129499500D01*
X152503751Y-129499500D01*
X152496264Y-129499274D01*
X152206205Y-129481728D01*
X152191340Y-129479923D01*
X151909201Y-129428219D01*
X151894663Y-129424635D01*
X151620832Y-129339306D01*
X151606831Y-129333997D01*
X151345263Y-129216275D01*
X151332004Y-129209316D01*
X151328482Y-129207187D01*
X151086537Y-129060926D01*
X151074217Y-129052422D01*
X151071762Y-129050499D01*
X150848426Y-128875526D01*
X150837218Y-128865596D01*
X150634403Y-128662781D01*
X150624473Y-128651573D01*
X150447573Y-128425776D01*
X150439075Y-128413465D01*
X150290680Y-128167989D01*
X150283727Y-128154743D01*
X150166000Y-127893163D01*
X150160693Y-127879167D01*
X150096714Y-127673852D01*
X150075363Y-127605335D01*
X150071780Y-127590798D01*
X150020076Y-127308659D01*
X150018271Y-127293794D01*
X150006932Y-127106338D01*
X150006679Y-127102155D01*
X159530000Y-127102155D01*
X159530000Y-127750000D01*
X160630000Y-127750000D01*
X160630000Y-126650000D01*
X159982155Y-126650000D01*
X159922627Y-126656401D01*
X159922620Y-126656403D01*
X159787913Y-126706645D01*
X159787906Y-126706649D01*
X159672812Y-126792809D01*
X159672809Y-126792812D01*
X159586649Y-126907906D01*
X159586645Y-126907913D01*
X159536403Y-127042620D01*
X159536401Y-127042627D01*
X159530000Y-127102155D01*
X150006679Y-127102155D01*
X150000726Y-127003736D01*
X150000500Y-126996249D01*
X150000500Y-126440691D01*
X185299500Y-126440691D01*
X185299500Y-126559309D01*
X185330201Y-126673886D01*
X185389511Y-126776613D01*
X185473387Y-126860489D01*
X185576114Y-126919799D01*
X185690691Y-126950500D01*
X185690694Y-126950500D01*
X185809306Y-126950500D01*
X185809309Y-126950500D01*
X185923886Y-126919799D01*
X186026613Y-126860489D01*
X186110489Y-126776613D01*
X186169799Y-126673886D01*
X186200500Y-126559309D01*
X186200500Y-126440691D01*
X186169799Y-126326114D01*
X186110489Y-126223387D01*
X186026613Y-126139511D01*
X185923886Y-126080201D01*
X185809309Y-126049500D01*
X185690691Y-126049500D01*
X185576114Y-126080201D01*
X185576112Y-126080201D01*
X185576112Y-126080202D01*
X185473387Y-126139511D01*
X185473384Y-126139513D01*
X185389513Y-126223384D01*
X185389511Y-126223387D01*
X185330201Y-126326114D01*
X185299500Y-126440691D01*
X150000500Y-126440691D01*
X150000500Y-123875406D01*
X183149498Y-123875406D01*
X183149498Y-123994024D01*
X183180199Y-124108601D01*
X183239509Y-124211328D01*
X183323385Y-124295204D01*
X183426112Y-124354514D01*
X183540689Y-124385215D01*
X183540692Y-124385215D01*
X183659304Y-124385215D01*
X183659307Y-124385215D01*
X183773884Y-124354514D01*
X183876611Y-124295204D01*
X183960487Y-124211328D01*
X184019797Y-124108601D01*
X184050498Y-123994024D01*
X184050498Y-123875406D01*
X184019797Y-123760829D01*
X183960487Y-123658102D01*
X183876611Y-123574226D01*
X183773884Y-123514916D01*
X183659307Y-123484215D01*
X183540689Y-123484215D01*
X183426112Y-123514916D01*
X183426110Y-123514916D01*
X183426110Y-123514917D01*
X183323385Y-123574226D01*
X183323382Y-123574228D01*
X183239511Y-123658099D01*
X183239509Y-123658102D01*
X183186163Y-123750500D01*
X183180199Y-123760829D01*
X183149498Y-123875406D01*
X150000500Y-123875406D01*
X150000500Y-123342376D01*
X164099610Y-123342376D01*
X164099610Y-123460994D01*
X164130311Y-123575571D01*
X164189621Y-123678298D01*
X164273497Y-123762174D01*
X164376224Y-123821484D01*
X164490801Y-123852185D01*
X164490804Y-123852185D01*
X164609416Y-123852185D01*
X164609419Y-123852185D01*
X164723996Y-123821484D01*
X164826723Y-123762174D01*
X164910599Y-123678298D01*
X164969909Y-123575571D01*
X165000610Y-123460994D01*
X165000610Y-123342376D01*
X164973363Y-123240691D01*
X170099500Y-123240691D01*
X170099500Y-123359309D01*
X170130201Y-123473886D01*
X170189511Y-123576613D01*
X170273387Y-123660489D01*
X170376114Y-123719799D01*
X170490691Y-123750500D01*
X170490694Y-123750500D01*
X170609307Y-123750500D01*
X170609309Y-123750500D01*
X170723886Y-123719799D01*
X170826613Y-123660489D01*
X170910489Y-123576613D01*
X170969799Y-123473886D01*
X171000500Y-123359309D01*
X171000500Y-123240691D01*
X170969799Y-123126114D01*
X170910489Y-123023387D01*
X170826613Y-122939511D01*
X170723886Y-122880201D01*
X170609309Y-122849500D01*
X170490691Y-122849500D01*
X170376114Y-122880201D01*
X170376112Y-122880201D01*
X170376112Y-122880202D01*
X170273387Y-122939511D01*
X170273384Y-122939513D01*
X170189513Y-123023384D01*
X170189511Y-123023387D01*
X170130803Y-123125072D01*
X170130201Y-123126114D01*
X170099500Y-123240691D01*
X164973363Y-123240691D01*
X164969909Y-123227799D01*
X164910599Y-123125072D01*
X164826723Y-123041196D01*
X164723996Y-122981886D01*
X164609419Y-122951185D01*
X164490801Y-122951185D01*
X164376224Y-122981886D01*
X164376222Y-122981886D01*
X164376222Y-122981887D01*
X164273497Y-123041196D01*
X164273494Y-123041198D01*
X164189623Y-123125069D01*
X164189621Y-123125072D01*
X164130311Y-123227799D01*
X164099610Y-123342376D01*
X150000500Y-123342376D01*
X150000500Y-120084296D01*
X156299500Y-120084296D01*
X156299500Y-120415703D01*
X156336601Y-120744991D01*
X156336604Y-120745005D01*
X156410346Y-121068093D01*
X156410349Y-121068101D01*
X156519799Y-121380890D01*
X156663582Y-121679458D01*
X156663584Y-121679461D01*
X156839896Y-121960060D01*
X157046516Y-122219153D01*
X157280847Y-122453484D01*
X157539940Y-122660104D01*
X157820539Y-122836416D01*
X158119113Y-122980202D01*
X158354037Y-123062405D01*
X158431898Y-123089650D01*
X158431906Y-123089653D01*
X158431909Y-123089653D01*
X158431910Y-123089654D01*
X158754994Y-123163396D01*
X158755003Y-123163397D01*
X158755008Y-123163398D01*
X158974533Y-123188132D01*
X159084297Y-123200499D01*
X159084300Y-123200500D01*
X159084303Y-123200500D01*
X159415700Y-123200500D01*
X159415701Y-123200499D01*
X159583996Y-123181537D01*
X159744991Y-123163398D01*
X159744994Y-123163397D01*
X159745006Y-123163396D01*
X160068090Y-123089654D01*
X160380887Y-122980202D01*
X160679461Y-122836416D01*
X160960060Y-122660104D01*
X161219153Y-122453484D01*
X161431946Y-122240691D01*
X173199500Y-122240691D01*
X173199500Y-122359309D01*
X173230201Y-122473886D01*
X173289511Y-122576613D01*
X173373387Y-122660489D01*
X173476114Y-122719799D01*
X173590691Y-122750500D01*
X173590694Y-122750500D01*
X173709306Y-122750500D01*
X173709309Y-122750500D01*
X173823886Y-122719799D01*
X173926613Y-122660489D01*
X174010489Y-122576613D01*
X174069799Y-122473886D01*
X174100500Y-122359309D01*
X174100500Y-122240691D01*
X174069799Y-122126114D01*
X174010489Y-122023387D01*
X173926613Y-121939511D01*
X173823886Y-121880201D01*
X173709309Y-121849500D01*
X173590691Y-121849500D01*
X173476114Y-121880201D01*
X173476112Y-121880201D01*
X173476112Y-121880202D01*
X173373387Y-121939511D01*
X173373384Y-121939513D01*
X173289513Y-122023384D01*
X173289511Y-122023387D01*
X173230201Y-122126114D01*
X173199500Y-122240691D01*
X161431946Y-122240691D01*
X161453484Y-122219153D01*
X161453490Y-122219146D01*
X161504444Y-122155252D01*
X161504444Y-122155251D01*
X161527680Y-122126114D01*
X161660104Y-121960060D01*
X161836416Y-121679461D01*
X161980202Y-121380887D01*
X162089654Y-121068090D01*
X162163396Y-120745006D01*
X162200500Y-120415697D01*
X162200500Y-120084303D01*
X162200499Y-120084296D01*
X186799500Y-120084296D01*
X186799500Y-120415703D01*
X186836601Y-120744991D01*
X186836604Y-120745005D01*
X186910346Y-121068093D01*
X186910349Y-121068101D01*
X187019799Y-121380890D01*
X187163582Y-121679458D01*
X187163584Y-121679461D01*
X187339896Y-121960060D01*
X187546516Y-122219153D01*
X187780847Y-122453484D01*
X188039940Y-122660104D01*
X188320539Y-122836416D01*
X188619113Y-122980202D01*
X188854037Y-123062405D01*
X188931898Y-123089650D01*
X188931906Y-123089653D01*
X188931909Y-123089653D01*
X188931910Y-123089654D01*
X189254994Y-123163396D01*
X189255003Y-123163397D01*
X189255008Y-123163398D01*
X189474533Y-123188132D01*
X189584297Y-123200499D01*
X189584300Y-123200500D01*
X189584303Y-123200500D01*
X189915700Y-123200500D01*
X189915701Y-123200499D01*
X190083996Y-123181537D01*
X190244991Y-123163398D01*
X190244994Y-123163397D01*
X190245006Y-123163396D01*
X190568090Y-123089654D01*
X190880887Y-122980202D01*
X191179461Y-122836416D01*
X191460060Y-122660104D01*
X191719153Y-122453484D01*
X191953484Y-122219153D01*
X192160104Y-121960060D01*
X192336416Y-121679461D01*
X192480202Y-121380887D01*
X192589654Y-121068090D01*
X192663396Y-120745006D01*
X192700500Y-120415697D01*
X192700500Y-120084303D01*
X192663396Y-119754994D01*
X192589654Y-119431910D01*
X192570304Y-119376612D01*
X192539877Y-119289655D01*
X192480202Y-119119113D01*
X192336416Y-118820539D01*
X192160104Y-118539940D01*
X191953484Y-118280847D01*
X191719153Y-118046516D01*
X191460060Y-117839896D01*
X191179461Y-117663584D01*
X191179458Y-117663582D01*
X190880890Y-117519799D01*
X190568101Y-117410349D01*
X190568093Y-117410346D01*
X190325777Y-117355039D01*
X190245006Y-117336604D01*
X190245003Y-117336603D01*
X190244991Y-117336601D01*
X189915703Y-117299500D01*
X189915697Y-117299500D01*
X189584303Y-117299500D01*
X189584296Y-117299500D01*
X189255008Y-117336601D01*
X189254994Y-117336604D01*
X188931906Y-117410346D01*
X188931898Y-117410349D01*
X188619109Y-117519799D01*
X188320541Y-117663582D01*
X188039941Y-117839895D01*
X187780847Y-118046515D01*
X187546515Y-118280847D01*
X187339895Y-118539941D01*
X187163582Y-118820541D01*
X187019799Y-119119109D01*
X186910349Y-119431898D01*
X186910346Y-119431906D01*
X186836604Y-119754994D01*
X186836601Y-119755008D01*
X186799500Y-120084296D01*
X162200499Y-120084296D01*
X162163396Y-119754994D01*
X162089654Y-119431910D01*
X162070304Y-119376612D01*
X162039877Y-119289655D01*
X161980202Y-119119113D01*
X161942436Y-119040691D01*
X182699500Y-119040691D01*
X182699500Y-119159309D01*
X182730201Y-119273886D01*
X182789511Y-119376613D01*
X182873387Y-119460489D01*
X182976114Y-119519799D01*
X183090691Y-119550500D01*
X183090694Y-119550500D01*
X183209306Y-119550500D01*
X183209309Y-119550500D01*
X183323886Y-119519799D01*
X183426613Y-119460489D01*
X183510489Y-119376613D01*
X183569799Y-119273886D01*
X183600500Y-119159309D01*
X183600500Y-119040691D01*
X183569799Y-118926114D01*
X183510489Y-118823387D01*
X183426613Y-118739511D01*
X183323886Y-118680201D01*
X183209309Y-118649500D01*
X183090691Y-118649500D01*
X182976114Y-118680201D01*
X182976112Y-118680201D01*
X182976112Y-118680202D01*
X182873387Y-118739511D01*
X182873384Y-118739513D01*
X182789513Y-118823384D01*
X182789511Y-118823387D01*
X182742461Y-118904880D01*
X182730201Y-118926114D01*
X182699500Y-119040691D01*
X161942436Y-119040691D01*
X161836416Y-118820539D01*
X161660104Y-118539940D01*
X161453484Y-118280847D01*
X161377237Y-118204600D01*
X174063409Y-118204600D01*
X174063409Y-118323218D01*
X174094110Y-118437795D01*
X174153420Y-118540522D01*
X174237296Y-118624398D01*
X174340023Y-118683708D01*
X174454600Y-118714409D01*
X174454603Y-118714409D01*
X174573215Y-118714409D01*
X174573218Y-118714409D01*
X174687795Y-118683708D01*
X174790522Y-118624398D01*
X174874398Y-118540522D01*
X174933708Y-118437795D01*
X174964409Y-118323218D01*
X174964409Y-118204600D01*
X174933708Y-118090023D01*
X174874398Y-117987296D01*
X174790522Y-117903420D01*
X174687795Y-117844110D01*
X174573218Y-117813409D01*
X174454600Y-117813409D01*
X174340023Y-117844110D01*
X174340021Y-117844110D01*
X174340021Y-117844111D01*
X174237296Y-117903420D01*
X174237293Y-117903422D01*
X174153422Y-117987293D01*
X174153420Y-117987296D01*
X174119230Y-118046515D01*
X174094110Y-118090023D01*
X174063409Y-118204600D01*
X161377237Y-118204600D01*
X161219153Y-118046516D01*
X160960060Y-117839896D01*
X160679461Y-117663584D01*
X160679458Y-117663582D01*
X160435232Y-117545969D01*
X160380890Y-117519799D01*
X160159629Y-117442376D01*
X167499610Y-117442376D01*
X167499610Y-117560994D01*
X167530311Y-117675571D01*
X167589621Y-117778298D01*
X167673497Y-117862174D01*
X167776224Y-117921484D01*
X167890801Y-117952185D01*
X167890804Y-117952185D01*
X168009416Y-117952185D01*
X168009419Y-117952185D01*
X168123996Y-117921484D01*
X168226723Y-117862174D01*
X168310599Y-117778298D01*
X168369909Y-117675571D01*
X168400610Y-117560994D01*
X168400610Y-117442376D01*
X168373363Y-117340691D01*
X181499500Y-117340691D01*
X181499500Y-117459309D01*
X181530201Y-117573886D01*
X181589511Y-117676613D01*
X181673387Y-117760489D01*
X181776114Y-117819799D01*
X181890691Y-117850500D01*
X181890694Y-117850500D01*
X182009306Y-117850500D01*
X182009309Y-117850500D01*
X182123886Y-117819799D01*
X182226613Y-117760489D01*
X182310489Y-117676613D01*
X182369799Y-117573886D01*
X182400500Y-117459309D01*
X182400500Y-117340691D01*
X182369799Y-117226114D01*
X182310489Y-117123387D01*
X182226613Y-117039511D01*
X182123886Y-116980201D01*
X182009309Y-116949500D01*
X181890691Y-116949500D01*
X181776114Y-116980201D01*
X181776112Y-116980201D01*
X181776112Y-116980202D01*
X181673387Y-117039511D01*
X181673384Y-117039513D01*
X181589513Y-117123384D01*
X181589511Y-117123387D01*
X181530803Y-117225072D01*
X181530201Y-117226114D01*
X181499500Y-117340691D01*
X168373363Y-117340691D01*
X168369909Y-117327799D01*
X168310599Y-117225072D01*
X168226723Y-117141196D01*
X168123996Y-117081886D01*
X168009419Y-117051185D01*
X167890801Y-117051185D01*
X167776224Y-117081886D01*
X167776222Y-117081886D01*
X167776222Y-117081887D01*
X167673497Y-117141196D01*
X167673494Y-117141198D01*
X167589623Y-117225069D01*
X167589621Y-117225072D01*
X167546650Y-117299500D01*
X167530311Y-117327799D01*
X167499610Y-117442376D01*
X160159629Y-117442376D01*
X160068101Y-117410349D01*
X160068093Y-117410346D01*
X159825777Y-117355039D01*
X159745006Y-117336604D01*
X159745003Y-117336603D01*
X159744991Y-117336601D01*
X159415703Y-117299500D01*
X159415697Y-117299500D01*
X159084303Y-117299500D01*
X159084296Y-117299500D01*
X158755008Y-117336601D01*
X158754994Y-117336604D01*
X158431906Y-117410346D01*
X158431898Y-117410349D01*
X158119109Y-117519799D01*
X157820541Y-117663582D01*
X157539941Y-117839895D01*
X157280847Y-118046515D01*
X157046515Y-118280847D01*
X156839895Y-118539941D01*
X156663582Y-118820541D01*
X156519799Y-119119109D01*
X156410349Y-119431898D01*
X156410346Y-119431906D01*
X156336604Y-119754994D01*
X156336601Y-119755008D01*
X156299500Y-120084296D01*
X150000500Y-120084296D01*
X150000500Y-118971919D01*
X150020185Y-118904880D01*
X150072989Y-118859125D01*
X150142147Y-118849181D01*
X150205703Y-118878206D01*
X150239061Y-118924466D01*
X150239869Y-118926418D01*
X150239870Y-118926420D01*
X150319059Y-119117598D01*
X150346927Y-119159306D01*
X150434024Y-119289657D01*
X150580342Y-119435975D01*
X150580345Y-119435977D01*
X150752402Y-119550941D01*
X150943580Y-119630130D01*
X151146530Y-119670499D01*
X151146534Y-119670500D01*
X151146535Y-119670500D01*
X151353466Y-119670500D01*
X151353467Y-119670499D01*
X151556420Y-119630130D01*
X151747598Y-119550941D01*
X151919655Y-119435977D01*
X152065977Y-119289655D01*
X152180941Y-119117598D01*
X152260130Y-118926420D01*
X152300500Y-118723465D01*
X152300500Y-118516535D01*
X152260130Y-118313580D01*
X152180941Y-118122402D01*
X152065977Y-117950345D01*
X152065975Y-117950342D01*
X151919657Y-117804024D01*
X151833626Y-117746541D01*
X151747598Y-117689059D01*
X151717548Y-117676612D01*
X151556420Y-117609870D01*
X151556412Y-117609868D01*
X151353469Y-117569500D01*
X151353465Y-117569500D01*
X151146535Y-117569500D01*
X151146530Y-117569500D01*
X150943587Y-117609868D01*
X150943579Y-117609870D01*
X150752403Y-117689058D01*
X150580342Y-117804024D01*
X150434024Y-117950342D01*
X150319057Y-118122403D01*
X150239061Y-118315533D01*
X150195220Y-118369936D01*
X150128926Y-118392001D01*
X150061226Y-118374722D01*
X150013616Y-118323584D01*
X150000500Y-118268080D01*
X150000500Y-116431919D01*
X150020185Y-116364880D01*
X150072989Y-116319125D01*
X150142147Y-116309181D01*
X150205703Y-116338206D01*
X150239061Y-116384466D01*
X150239869Y-116386418D01*
X150239870Y-116386420D01*
X150294093Y-116517325D01*
X150319058Y-116577596D01*
X150434024Y-116749657D01*
X150580342Y-116895975D01*
X150580345Y-116895977D01*
X150752402Y-117010941D01*
X150943580Y-117090130D01*
X151146530Y-117130499D01*
X151146534Y-117130500D01*
X151146535Y-117130500D01*
X151353466Y-117130500D01*
X151353467Y-117130499D01*
X151556420Y-117090130D01*
X151747598Y-117010941D01*
X151919655Y-116895977D01*
X152065977Y-116749655D01*
X152180941Y-116577598D01*
X152260130Y-116386420D01*
X152300500Y-116183465D01*
X152300500Y-115976535D01*
X152260130Y-115773580D01*
X152180941Y-115582402D01*
X152065977Y-115410345D01*
X152065975Y-115410342D01*
X151919657Y-115264024D01*
X151747597Y-115149058D01*
X151742931Y-115147126D01*
X151742930Y-115147125D01*
X151742929Y-115147125D01*
X151556420Y-115069870D01*
X151556412Y-115069868D01*
X151409730Y-115040691D01*
X158299500Y-115040691D01*
X158299500Y-115159309D01*
X158330201Y-115273886D01*
X158389511Y-115376613D01*
X158473387Y-115460489D01*
X158576114Y-115519799D01*
X158690691Y-115550500D01*
X158690694Y-115550500D01*
X158809306Y-115550500D01*
X158809309Y-115550500D01*
X158923886Y-115519799D01*
X159026613Y-115460489D01*
X159110489Y-115376613D01*
X159169799Y-115273886D01*
X159178694Y-115240691D01*
X170099500Y-115240691D01*
X170099500Y-115359309D01*
X170130201Y-115473886D01*
X170189511Y-115576613D01*
X170273387Y-115660489D01*
X170376114Y-115719799D01*
X170490691Y-115750500D01*
X170490694Y-115750500D01*
X170609306Y-115750500D01*
X170609309Y-115750500D01*
X170723886Y-115719799D01*
X170826613Y-115660489D01*
X170910489Y-115576613D01*
X170925455Y-115550691D01*
X173709500Y-115550691D01*
X173709500Y-115669309D01*
X173740201Y-115783886D01*
X173799511Y-115886613D01*
X173883387Y-115970489D01*
X173986114Y-116029799D01*
X174100691Y-116060500D01*
X174100694Y-116060500D01*
X174219306Y-116060500D01*
X174219309Y-116060500D01*
X174333886Y-116029799D01*
X174436613Y-115970489D01*
X174520489Y-115886613D01*
X174579799Y-115783886D01*
X174604771Y-115690691D01*
X180549500Y-115690691D01*
X180549500Y-115809309D01*
X180580201Y-115923886D01*
X180639511Y-116026613D01*
X180723387Y-116110489D01*
X180826114Y-116169799D01*
X180940691Y-116200500D01*
X180940694Y-116200500D01*
X181059306Y-116200500D01*
X181059309Y-116200500D01*
X181173886Y-116169799D01*
X181276613Y-116110489D01*
X181360489Y-116026613D01*
X181419799Y-115923886D01*
X181442091Y-115840691D01*
X183699500Y-115840691D01*
X183699500Y-115959309D01*
X183730201Y-116073886D01*
X183789511Y-116176613D01*
X183873387Y-116260489D01*
X183976114Y-116319799D01*
X184090691Y-116350500D01*
X184090694Y-116350500D01*
X184209306Y-116350500D01*
X184209309Y-116350500D01*
X184323886Y-116319799D01*
X184426613Y-116260489D01*
X184510489Y-116176613D01*
X184569799Y-116073886D01*
X184600500Y-115959309D01*
X184600500Y-115840691D01*
X184569799Y-115726114D01*
X184510489Y-115623387D01*
X184457102Y-115570000D01*
X190962638Y-115570000D01*
X191765512Y-115570000D01*
X191748295Y-115579940D01*
X191692440Y-115635795D01*
X191652944Y-115704204D01*
X191632500Y-115780504D01*
X191632500Y-115859496D01*
X191652944Y-115935796D01*
X191692440Y-116004205D01*
X191748295Y-116060060D01*
X191765512Y-116070000D01*
X190962638Y-116070000D01*
X190970930Y-116111690D01*
X190970930Y-116111692D01*
X191046307Y-116293671D01*
X191046314Y-116293684D01*
X191155748Y-116457462D01*
X191155751Y-116457466D01*
X191295033Y-116596748D01*
X191295037Y-116596751D01*
X191458815Y-116706185D01*
X191458828Y-116706192D01*
X191640806Y-116781569D01*
X191640818Y-116781572D01*
X191834004Y-116819999D01*
X191834008Y-116820000D01*
X192232500Y-116820000D01*
X192232500Y-116120000D01*
X192732500Y-116120000D01*
X192732500Y-116820000D01*
X193130992Y-116820000D01*
X193130995Y-116819999D01*
X193324181Y-116781572D01*
X193324193Y-116781569D01*
X193506171Y-116706192D01*
X193506184Y-116706185D01*
X193669962Y-116596751D01*
X193669966Y-116596748D01*
X193809248Y-116457466D01*
X193809251Y-116457462D01*
X193918685Y-116293684D01*
X193918692Y-116293671D01*
X193994069Y-116111692D01*
X193994069Y-116111690D01*
X194002362Y-116070000D01*
X193199488Y-116070000D01*
X193216705Y-116060060D01*
X193272560Y-116004205D01*
X193312056Y-115935796D01*
X193332500Y-115859496D01*
X193332500Y-115780504D01*
X193312056Y-115704204D01*
X193272560Y-115635795D01*
X193216705Y-115579940D01*
X193199488Y-115570000D01*
X194002362Y-115570000D01*
X195292638Y-115570000D01*
X196095512Y-115570000D01*
X196078295Y-115579940D01*
X196022440Y-115635795D01*
X195982944Y-115704204D01*
X195962500Y-115780504D01*
X195962500Y-115859496D01*
X195982944Y-115935796D01*
X196022440Y-116004205D01*
X196078295Y-116060060D01*
X196095512Y-116070000D01*
X195292638Y-116070000D01*
X195300930Y-116111690D01*
X195300930Y-116111692D01*
X195376307Y-116293671D01*
X195376314Y-116293684D01*
X195485748Y-116457462D01*
X195485751Y-116457466D01*
X195625033Y-116596748D01*
X195625037Y-116596751D01*
X195788815Y-116706185D01*
X195788828Y-116706192D01*
X195970806Y-116781569D01*
X195970818Y-116781572D01*
X196164004Y-116819999D01*
X196164008Y-116820000D01*
X196412500Y-116820000D01*
X196412500Y-116120000D01*
X196912500Y-116120000D01*
X196912500Y-116820000D01*
X197160992Y-116820000D01*
X197160995Y-116819999D01*
X197354181Y-116781572D01*
X197354193Y-116781569D01*
X197536171Y-116706192D01*
X197536184Y-116706185D01*
X197699962Y-116596751D01*
X197699966Y-116596748D01*
X197839248Y-116457466D01*
X197839251Y-116457462D01*
X197948685Y-116293684D01*
X197948692Y-116293671D01*
X198024069Y-116111692D01*
X198024069Y-116111690D01*
X198032362Y-116070000D01*
X197229488Y-116070000D01*
X197246705Y-116060060D01*
X197302560Y-116004205D01*
X197342056Y-115935796D01*
X197362500Y-115859496D01*
X197362500Y-115780504D01*
X197342056Y-115704204D01*
X197302560Y-115635795D01*
X197246705Y-115579940D01*
X197229488Y-115570000D01*
X198032362Y-115570000D01*
X198024069Y-115528309D01*
X198024069Y-115528307D01*
X197948692Y-115346328D01*
X197948685Y-115346315D01*
X197839251Y-115182537D01*
X197839248Y-115182533D01*
X197699966Y-115043251D01*
X197699962Y-115043248D01*
X197536184Y-114933814D01*
X197536171Y-114933807D01*
X197354193Y-114858430D01*
X197354181Y-114858427D01*
X197160995Y-114820000D01*
X196912500Y-114820000D01*
X196912500Y-115520000D01*
X196412500Y-115520000D01*
X196412500Y-114820000D01*
X196164004Y-114820000D01*
X195970818Y-114858427D01*
X195970806Y-114858430D01*
X195788828Y-114933807D01*
X195788815Y-114933814D01*
X195625037Y-115043248D01*
X195625033Y-115043251D01*
X195485751Y-115182533D01*
X195485748Y-115182537D01*
X195376314Y-115346315D01*
X195376307Y-115346328D01*
X195300930Y-115528307D01*
X195300930Y-115528309D01*
X195292638Y-115570000D01*
X194002362Y-115570000D01*
X193994069Y-115528309D01*
X193994069Y-115528307D01*
X193918692Y-115346328D01*
X193918685Y-115346315D01*
X193809251Y-115182537D01*
X193809248Y-115182533D01*
X193669966Y-115043251D01*
X193669962Y-115043248D01*
X193506184Y-114933814D01*
X193506174Y-114933809D01*
X193496657Y-114929867D01*
X193442254Y-114886026D01*
X193420189Y-114819731D01*
X193437469Y-114752032D01*
X193441148Y-114746597D01*
X193443012Y-114743367D01*
X193443015Y-114743365D01*
X193518781Y-114612135D01*
X193558000Y-114465766D01*
X193558000Y-114314234D01*
X193518781Y-114167865D01*
X193443015Y-114036635D01*
X193335865Y-113929485D01*
X193270250Y-113891602D01*
X193204636Y-113853719D01*
X193131450Y-113834109D01*
X193058266Y-113814500D01*
X192906734Y-113814500D01*
X192760363Y-113853719D01*
X192629135Y-113929485D01*
X192629132Y-113929487D01*
X192521987Y-114036632D01*
X192521985Y-114036635D01*
X192446219Y-114167863D01*
X192407000Y-114314234D01*
X192407000Y-114465765D01*
X192446219Y-114612136D01*
X192467792Y-114649500D01*
X192521985Y-114743365D01*
X192629135Y-114850515D01*
X192670500Y-114874397D01*
X192718716Y-114924964D01*
X192732500Y-114981784D01*
X192732500Y-115520000D01*
X192232500Y-115520000D01*
X192232500Y-114820000D01*
X191834004Y-114820000D01*
X191640818Y-114858427D01*
X191640806Y-114858430D01*
X191458828Y-114933807D01*
X191458815Y-114933814D01*
X191295037Y-115043248D01*
X191295033Y-115043251D01*
X191155751Y-115182533D01*
X191155748Y-115182537D01*
X191046314Y-115346315D01*
X191046307Y-115346328D01*
X190970930Y-115528307D01*
X190970930Y-115528309D01*
X190962638Y-115570000D01*
X184457102Y-115570000D01*
X184426613Y-115539511D01*
X184323886Y-115480201D01*
X184209309Y-115449500D01*
X184090691Y-115449500D01*
X183976114Y-115480201D01*
X183976112Y-115480201D01*
X183976112Y-115480202D01*
X183873387Y-115539511D01*
X183873384Y-115539513D01*
X183789513Y-115623384D01*
X183789511Y-115623387D01*
X183750652Y-115690693D01*
X183730201Y-115726114D01*
X183699500Y-115840691D01*
X181442091Y-115840691D01*
X181450500Y-115809309D01*
X181450500Y-115690691D01*
X181419799Y-115576114D01*
X181360489Y-115473387D01*
X181276613Y-115389511D01*
X181173886Y-115330201D01*
X181059309Y-115299500D01*
X180940691Y-115299500D01*
X180826114Y-115330201D01*
X180826112Y-115330201D01*
X180826112Y-115330202D01*
X180723387Y-115389511D01*
X180723384Y-115389513D01*
X180639513Y-115473384D01*
X180639511Y-115473387D01*
X180580201Y-115576114D01*
X180549500Y-115690691D01*
X174604771Y-115690691D01*
X174610500Y-115669309D01*
X174610500Y-115550691D01*
X174579799Y-115436114D01*
X174520489Y-115333387D01*
X174436613Y-115249511D01*
X174333886Y-115190201D01*
X174219309Y-115159500D01*
X174100691Y-115159500D01*
X173986114Y-115190201D01*
X173986112Y-115190201D01*
X173986112Y-115190202D01*
X173883387Y-115249511D01*
X173883384Y-115249513D01*
X173799513Y-115333384D01*
X173799511Y-115333387D01*
X173755081Y-115410342D01*
X173740201Y-115436114D01*
X173709500Y-115550691D01*
X170925455Y-115550691D01*
X170969799Y-115473886D01*
X171000500Y-115359309D01*
X171000500Y-115240691D01*
X170969799Y-115126114D01*
X170910489Y-115023387D01*
X170826613Y-114939511D01*
X170723886Y-114880201D01*
X170619901Y-114852338D01*
X170616352Y-114851387D01*
X170609309Y-114849500D01*
X170490691Y-114849500D01*
X170376114Y-114880201D01*
X170376112Y-114880201D01*
X170376112Y-114880202D01*
X170273387Y-114939511D01*
X170273384Y-114939513D01*
X170189513Y-115023384D01*
X170189511Y-115023387D01*
X170158780Y-115076615D01*
X170130201Y-115126114D01*
X170099500Y-115240691D01*
X159178694Y-115240691D01*
X159200500Y-115159309D01*
X159200500Y-115040691D01*
X159169799Y-114926114D01*
X159110489Y-114823387D01*
X159026613Y-114739511D01*
X158923886Y-114680201D01*
X158809309Y-114649500D01*
X158690691Y-114649500D01*
X158576114Y-114680201D01*
X158576112Y-114680201D01*
X158576112Y-114680202D01*
X158473387Y-114739511D01*
X158473384Y-114739513D01*
X158389513Y-114823384D01*
X158389511Y-114823387D01*
X158356709Y-114880202D01*
X158330201Y-114926114D01*
X158299500Y-115040691D01*
X151409730Y-115040691D01*
X151353469Y-115029500D01*
X151353465Y-115029500D01*
X151146535Y-115029500D01*
X151146530Y-115029500D01*
X150943587Y-115069868D01*
X150943579Y-115069870D01*
X150752403Y-115149058D01*
X150580342Y-115264024D01*
X150434024Y-115410342D01*
X150319057Y-115582403D01*
X150239061Y-115775533D01*
X150195220Y-115829936D01*
X150128926Y-115852001D01*
X150061226Y-115834722D01*
X150013616Y-115783584D01*
X150000500Y-115728080D01*
X150000500Y-113891919D01*
X150020185Y-113824880D01*
X150072989Y-113779125D01*
X150142147Y-113769181D01*
X150205703Y-113798206D01*
X150239061Y-113844466D01*
X150239869Y-113846418D01*
X150239870Y-113846420D01*
X150274277Y-113929485D01*
X150319058Y-114037596D01*
X150434024Y-114209657D01*
X150580342Y-114355975D01*
X150580345Y-114355977D01*
X150752402Y-114470941D01*
X150943580Y-114550130D01*
X151146530Y-114590499D01*
X151146534Y-114590500D01*
X151146535Y-114590500D01*
X151353466Y-114590500D01*
X151353467Y-114590499D01*
X151556420Y-114550130D01*
X151747598Y-114470941D01*
X151792871Y-114440691D01*
X166299500Y-114440691D01*
X166299500Y-114559309D01*
X166330201Y-114673886D01*
X166389511Y-114776613D01*
X166473387Y-114860489D01*
X166576114Y-114919799D01*
X166690691Y-114950500D01*
X166690694Y-114950500D01*
X166809306Y-114950500D01*
X166809309Y-114950500D01*
X166923886Y-114919799D01*
X167026613Y-114860489D01*
X167110489Y-114776613D01*
X167131229Y-114740691D01*
X187599500Y-114740691D01*
X187599500Y-114859309D01*
X187630201Y-114973886D01*
X187689511Y-115076613D01*
X187773387Y-115160489D01*
X187876114Y-115219799D01*
X187990691Y-115250500D01*
X187990694Y-115250500D01*
X188109306Y-115250500D01*
X188109309Y-115250500D01*
X188223886Y-115219799D01*
X188326613Y-115160489D01*
X188410489Y-115076613D01*
X188469799Y-114973886D01*
X188500500Y-114859309D01*
X188500500Y-114740691D01*
X188469799Y-114626114D01*
X188410489Y-114523387D01*
X188326613Y-114439511D01*
X188223886Y-114380201D01*
X188109309Y-114349500D01*
X187990691Y-114349500D01*
X187876114Y-114380201D01*
X187876112Y-114380201D01*
X187876112Y-114380202D01*
X187773387Y-114439511D01*
X187773384Y-114439513D01*
X187689513Y-114523384D01*
X187689511Y-114523387D01*
X187650764Y-114590499D01*
X187630201Y-114626114D01*
X187599500Y-114740691D01*
X167131229Y-114740691D01*
X167169799Y-114673886D01*
X167200500Y-114559309D01*
X167200500Y-114440691D01*
X167169799Y-114326114D01*
X167110489Y-114223387D01*
X167026613Y-114139511D01*
X166923886Y-114080201D01*
X166819901Y-114052338D01*
X166816352Y-114051387D01*
X166809309Y-114049500D01*
X166690691Y-114049500D01*
X166576114Y-114080201D01*
X166576112Y-114080201D01*
X166576112Y-114080202D01*
X166473387Y-114139511D01*
X166473384Y-114139513D01*
X166389513Y-114223384D01*
X166389511Y-114223387D01*
X166358780Y-114276615D01*
X166330201Y-114326114D01*
X166299500Y-114440691D01*
X151792871Y-114440691D01*
X151919655Y-114355977D01*
X151919658Y-114355974D01*
X151930750Y-114344883D01*
X152065974Y-114209658D01*
X152065975Y-114209657D01*
X152065977Y-114209655D01*
X152180941Y-114037598D01*
X152221081Y-113940691D01*
X174799500Y-113940691D01*
X174799500Y-114059309D01*
X174830201Y-114173886D01*
X174889511Y-114276613D01*
X174973387Y-114360489D01*
X175076114Y-114419799D01*
X175190691Y-114450500D01*
X175190694Y-114450500D01*
X175309306Y-114450500D01*
X175309309Y-114450500D01*
X175423886Y-114419799D01*
X175526613Y-114360489D01*
X175610489Y-114276613D01*
X175669799Y-114173886D01*
X175700500Y-114059309D01*
X175700500Y-113940691D01*
X175669799Y-113826114D01*
X175610489Y-113723387D01*
X175526613Y-113639511D01*
X175423886Y-113580201D01*
X175309309Y-113549500D01*
X175190691Y-113549500D01*
X175076114Y-113580201D01*
X175076112Y-113580201D01*
X175076112Y-113580202D01*
X174973387Y-113639511D01*
X174973384Y-113639513D01*
X174889513Y-113723384D01*
X174889511Y-113723387D01*
X174830201Y-113826114D01*
X174799500Y-113940691D01*
X152221081Y-113940691D01*
X152260130Y-113846420D01*
X152300500Y-113643465D01*
X152300500Y-113436535D01*
X152260130Y-113233580D01*
X152180941Y-113042402D01*
X152180940Y-113042400D01*
X152180940Y-113042399D01*
X152086765Y-112901456D01*
X152086763Y-112901454D01*
X152065975Y-112870342D01*
X152036324Y-112840691D01*
X176199500Y-112840691D01*
X176199500Y-112959309D01*
X176230201Y-113073886D01*
X176289511Y-113176613D01*
X176373387Y-113260489D01*
X176476114Y-113319799D01*
X176590691Y-113350500D01*
X176590694Y-113350500D01*
X176709306Y-113350500D01*
X176709309Y-113350500D01*
X176823886Y-113319799D01*
X176926613Y-113260489D01*
X177010489Y-113176613D01*
X177069799Y-113073886D01*
X177100500Y-112959309D01*
X177100500Y-112840691D01*
X182999500Y-112840691D01*
X182999500Y-112959309D01*
X183030201Y-113073886D01*
X183089511Y-113176613D01*
X183173387Y-113260489D01*
X183276114Y-113319799D01*
X183390691Y-113350500D01*
X183390694Y-113350500D01*
X183509306Y-113350500D01*
X183509309Y-113350500D01*
X183623886Y-113319799D01*
X183726613Y-113260489D01*
X183810489Y-113176613D01*
X183869799Y-113073886D01*
X183900500Y-112959309D01*
X183900500Y-112840691D01*
X183869799Y-112726114D01*
X183810489Y-112623387D01*
X183726613Y-112539511D01*
X183623886Y-112480201D01*
X183509309Y-112449500D01*
X183390691Y-112449500D01*
X183276114Y-112480201D01*
X183276112Y-112480201D01*
X183276112Y-112480202D01*
X183173387Y-112539511D01*
X183173384Y-112539513D01*
X183089513Y-112623384D01*
X183089511Y-112623387D01*
X183030201Y-112726114D01*
X182999500Y-112840691D01*
X177100500Y-112840691D01*
X177069799Y-112726114D01*
X177010489Y-112623387D01*
X176926613Y-112539511D01*
X176823886Y-112480201D01*
X176709309Y-112449500D01*
X176590691Y-112449500D01*
X176476114Y-112480201D01*
X176476112Y-112480201D01*
X176476112Y-112480202D01*
X176373387Y-112539511D01*
X176373384Y-112539513D01*
X176289513Y-112623384D01*
X176289511Y-112623387D01*
X176230201Y-112726114D01*
X176199500Y-112840691D01*
X152036324Y-112840691D01*
X151919657Y-112724024D01*
X151833626Y-112666541D01*
X151747598Y-112609059D01*
X151698112Y-112588561D01*
X151643709Y-112544720D01*
X151621644Y-112478426D01*
X151638923Y-112410726D01*
X151690061Y-112363116D01*
X151745565Y-112350000D01*
X152147828Y-112350000D01*
X152147844Y-112349999D01*
X152207372Y-112343598D01*
X152207379Y-112343596D01*
X152342086Y-112293354D01*
X152342093Y-112293350D01*
X152457186Y-112207190D01*
X152469537Y-112190691D01*
X165299500Y-112190691D01*
X165299500Y-112309309D01*
X165330201Y-112423886D01*
X165389511Y-112526613D01*
X165473387Y-112610489D01*
X165576114Y-112669799D01*
X165690691Y-112700500D01*
X165690694Y-112700500D01*
X165809306Y-112700500D01*
X165809309Y-112700500D01*
X165923886Y-112669799D01*
X166026613Y-112610489D01*
X166110489Y-112526613D01*
X166169799Y-112423886D01*
X166200500Y-112309309D01*
X166200500Y-112190691D01*
X166169799Y-112076114D01*
X166110489Y-111973387D01*
X166026613Y-111889511D01*
X165923886Y-111830201D01*
X165809309Y-111799500D01*
X165690691Y-111799500D01*
X165576114Y-111830201D01*
X165576112Y-111830201D01*
X165576112Y-111830202D01*
X165473387Y-111889511D01*
X165473384Y-111889513D01*
X165389513Y-111973384D01*
X165389511Y-111973387D01*
X165330201Y-112076114D01*
X165299500Y-112190691D01*
X152469537Y-112190691D01*
X152531252Y-112108253D01*
X152531252Y-112108252D01*
X152531253Y-112108251D01*
X152543354Y-112092085D01*
X152593596Y-111957379D01*
X152593598Y-111957372D01*
X152599999Y-111897844D01*
X152600000Y-111897827D01*
X152600000Y-111250000D01*
X151494975Y-111250000D01*
X151530070Y-111214905D01*
X151576148Y-111135095D01*
X151600000Y-111046078D01*
X151600000Y-110953922D01*
X151596455Y-110940691D01*
X169799500Y-110940691D01*
X169799500Y-111059309D01*
X169830201Y-111173886D01*
X169889511Y-111276613D01*
X169973387Y-111360489D01*
X170076114Y-111419799D01*
X170190691Y-111450500D01*
X170190694Y-111450500D01*
X170309306Y-111450500D01*
X170309309Y-111450500D01*
X170423886Y-111419799D01*
X170526613Y-111360489D01*
X170610489Y-111276613D01*
X170669799Y-111173886D01*
X170700500Y-111059309D01*
X170700500Y-110940691D01*
X170669799Y-110826114D01*
X170620480Y-110740691D01*
X183599500Y-110740691D01*
X183599500Y-110859309D01*
X183630201Y-110973886D01*
X183689511Y-111076613D01*
X183773387Y-111160489D01*
X183876114Y-111219799D01*
X183990691Y-111250500D01*
X183990694Y-111250500D01*
X184109306Y-111250500D01*
X184109309Y-111250500D01*
X184223886Y-111219799D01*
X184326613Y-111160489D01*
X184410489Y-111076613D01*
X184469799Y-110973886D01*
X184500500Y-110859309D01*
X184500500Y-110740691D01*
X184469799Y-110626114D01*
X184410489Y-110523387D01*
X184326613Y-110439511D01*
X184223886Y-110380201D01*
X184109309Y-110349500D01*
X183990691Y-110349500D01*
X183876114Y-110380201D01*
X183876112Y-110380201D01*
X183876112Y-110380202D01*
X183773387Y-110439511D01*
X183773384Y-110439513D01*
X183689513Y-110523384D01*
X183689511Y-110523387D01*
X183656709Y-110580202D01*
X183630201Y-110626114D01*
X183599500Y-110740691D01*
X170620480Y-110740691D01*
X170610489Y-110723387D01*
X170526613Y-110639511D01*
X170423886Y-110580201D01*
X170309309Y-110549500D01*
X170190691Y-110549500D01*
X170076114Y-110580201D01*
X170076112Y-110580201D01*
X170076112Y-110580202D01*
X169973387Y-110639511D01*
X169973384Y-110639513D01*
X169889513Y-110723384D01*
X169889511Y-110723387D01*
X169853884Y-110785095D01*
X169830201Y-110826114D01*
X169799500Y-110940691D01*
X151596455Y-110940691D01*
X151576148Y-110864905D01*
X151530070Y-110785095D01*
X151494975Y-110750000D01*
X151500000Y-110750000D01*
X152600000Y-110750000D01*
X152600000Y-110102172D01*
X152599999Y-110102155D01*
X152593598Y-110042627D01*
X152593596Y-110042620D01*
X152543354Y-109907913D01*
X152543350Y-109907906D01*
X152457190Y-109792812D01*
X152457187Y-109792809D01*
X152342093Y-109706649D01*
X152342086Y-109706645D01*
X152207379Y-109656403D01*
X152207372Y-109656401D01*
X152147844Y-109650000D01*
X151500000Y-109650000D01*
X151500000Y-110750000D01*
X151494975Y-110750000D01*
X151464905Y-110719930D01*
X151385095Y-110673852D01*
X151296078Y-110650000D01*
X151203922Y-110650000D01*
X151114905Y-110673852D01*
X151035095Y-110719930D01*
X151000000Y-110755025D01*
X151000000Y-109650000D01*
X150352155Y-109650000D01*
X150292627Y-109656401D01*
X150292617Y-109656403D01*
X150167832Y-109702945D01*
X150137225Y-109705133D01*
X150106853Y-109709501D01*
X150102697Y-109707603D01*
X150098141Y-109707929D01*
X150071213Y-109693225D01*
X150043297Y-109680476D01*
X150040826Y-109676631D01*
X150036818Y-109674443D01*
X150022115Y-109647516D01*
X150005523Y-109621698D01*
X150004631Y-109615495D01*
X150003334Y-109613120D01*
X150000500Y-109586763D01*
X150000500Y-109440691D01*
X154299500Y-109440691D01*
X154299500Y-109559309D01*
X154330201Y-109673886D01*
X154389511Y-109776613D01*
X154473387Y-109860489D01*
X154576114Y-109919799D01*
X154690691Y-109950500D01*
X154690694Y-109950500D01*
X154809306Y-109950500D01*
X154809309Y-109950500D01*
X154923886Y-109919799D01*
X155026613Y-109860489D01*
X155110489Y-109776613D01*
X155169799Y-109673886D01*
X155200500Y-109559309D01*
X155200500Y-109440691D01*
X161799500Y-109440691D01*
X161799500Y-109559309D01*
X161830201Y-109673886D01*
X161889511Y-109776613D01*
X161973387Y-109860489D01*
X162076114Y-109919799D01*
X162190691Y-109950500D01*
X162190694Y-109950500D01*
X162309306Y-109950500D01*
X162309309Y-109950500D01*
X162345916Y-109940691D01*
X173699500Y-109940691D01*
X173699500Y-110059309D01*
X173730201Y-110173886D01*
X173789511Y-110276613D01*
X173873387Y-110360489D01*
X173976114Y-110419799D01*
X174090691Y-110450500D01*
X174090694Y-110450500D01*
X174209306Y-110450500D01*
X174209309Y-110450500D01*
X174323886Y-110419799D01*
X174426613Y-110360489D01*
X174510489Y-110276613D01*
X174560097Y-110190691D01*
X181299500Y-110190691D01*
X181299500Y-110309309D01*
X181330201Y-110423886D01*
X181389511Y-110526613D01*
X181473387Y-110610489D01*
X181576114Y-110669799D01*
X181690691Y-110700500D01*
X181690694Y-110700500D01*
X181809306Y-110700500D01*
X181809309Y-110700500D01*
X181923886Y-110669799D01*
X182026613Y-110610489D01*
X182110489Y-110526613D01*
X182169799Y-110423886D01*
X182200500Y-110309309D01*
X182200500Y-110190691D01*
X182169799Y-110076114D01*
X182110489Y-109973387D01*
X182026613Y-109889511D01*
X181923886Y-109830201D01*
X181809309Y-109799500D01*
X181690691Y-109799500D01*
X181576114Y-109830201D01*
X181576112Y-109830201D01*
X181576112Y-109830202D01*
X181473387Y-109889511D01*
X181473384Y-109889513D01*
X181389513Y-109973384D01*
X181389511Y-109973387D01*
X181339905Y-110059307D01*
X181330201Y-110076114D01*
X181299500Y-110190691D01*
X174560097Y-110190691D01*
X174569799Y-110173886D01*
X174600500Y-110059309D01*
X174600500Y-109940691D01*
X174569799Y-109826114D01*
X174510489Y-109723387D01*
X174426613Y-109639511D01*
X174323886Y-109580201D01*
X174209309Y-109549500D01*
X174090691Y-109549500D01*
X173976114Y-109580201D01*
X173976112Y-109580201D01*
X173976112Y-109580202D01*
X173873387Y-109639511D01*
X173873384Y-109639513D01*
X173789513Y-109723384D01*
X173789511Y-109723387D01*
X173758780Y-109776615D01*
X173730201Y-109826114D01*
X173699500Y-109940691D01*
X162345916Y-109940691D01*
X162423886Y-109919799D01*
X162526613Y-109860489D01*
X162610489Y-109776613D01*
X162669799Y-109673886D01*
X162700500Y-109559309D01*
X162700500Y-109440691D01*
X162669799Y-109326114D01*
X162610489Y-109223387D01*
X162526613Y-109139511D01*
X162423886Y-109080201D01*
X162319901Y-109052338D01*
X162316352Y-109051387D01*
X162309309Y-109049500D01*
X162190691Y-109049500D01*
X162076114Y-109080201D01*
X162076112Y-109080201D01*
X162076112Y-109080202D01*
X161973387Y-109139511D01*
X161973384Y-109139513D01*
X161889513Y-109223384D01*
X161889511Y-109223387D01*
X161858780Y-109276615D01*
X161830201Y-109326114D01*
X161799500Y-109440691D01*
X155200500Y-109440691D01*
X155169799Y-109326114D01*
X155110489Y-109223387D01*
X155026613Y-109139511D01*
X154923886Y-109080201D01*
X154809309Y-109049500D01*
X154690691Y-109049500D01*
X154576114Y-109080201D01*
X154576112Y-109080201D01*
X154576112Y-109080202D01*
X154473387Y-109139511D01*
X154473384Y-109139513D01*
X154389513Y-109223384D01*
X154389511Y-109223387D01*
X154358780Y-109276615D01*
X154330201Y-109326114D01*
X154299500Y-109440691D01*
X150000500Y-109440691D01*
X150000500Y-108940691D01*
X186299500Y-108940691D01*
X186299500Y-109059309D01*
X186330201Y-109173886D01*
X186389511Y-109276613D01*
X186473387Y-109360489D01*
X186576114Y-109419799D01*
X186690691Y-109450500D01*
X186690694Y-109450500D01*
X186809306Y-109450500D01*
X186809309Y-109450500D01*
X186923886Y-109419799D01*
X187026613Y-109360489D01*
X187110489Y-109276613D01*
X187169799Y-109173886D01*
X187200500Y-109059309D01*
X187200500Y-108940691D01*
X187169799Y-108826114D01*
X187110489Y-108723387D01*
X187026613Y-108639511D01*
X187021921Y-108636802D01*
X187016192Y-108633494D01*
X187016191Y-108633494D01*
X186923886Y-108580201D01*
X186809309Y-108549500D01*
X186690691Y-108549500D01*
X186576114Y-108580201D01*
X186576112Y-108580201D01*
X186576112Y-108580202D01*
X186473387Y-108639511D01*
X186473384Y-108639513D01*
X186389513Y-108723384D01*
X186389511Y-108723387D01*
X186330201Y-108826114D01*
X186299500Y-108940691D01*
X150000500Y-108940691D01*
X150000500Y-107440691D01*
X176699500Y-107440691D01*
X176699500Y-107559309D01*
X176730201Y-107673886D01*
X176789511Y-107776613D01*
X176873387Y-107860489D01*
X176976114Y-107919799D01*
X177090691Y-107950500D01*
X177090694Y-107950500D01*
X177209306Y-107950500D01*
X177209309Y-107950500D01*
X177323886Y-107919799D01*
X177426613Y-107860489D01*
X177510489Y-107776613D01*
X177569799Y-107673886D01*
X177600500Y-107559309D01*
X177600500Y-107440691D01*
X177569799Y-107326114D01*
X177510489Y-107223387D01*
X177426613Y-107139511D01*
X177323886Y-107080201D01*
X177209309Y-107049500D01*
X177090691Y-107049500D01*
X176976114Y-107080201D01*
X176976112Y-107080201D01*
X176976112Y-107080202D01*
X176873387Y-107139511D01*
X176873384Y-107139513D01*
X176789513Y-107223384D01*
X176789511Y-107223387D01*
X176730201Y-107326114D01*
X176699500Y-107440691D01*
X150000500Y-107440691D01*
X150000500Y-106930000D01*
X190962638Y-106930000D01*
X191765512Y-106930000D01*
X191748295Y-106939940D01*
X191692440Y-106995795D01*
X191652944Y-107064204D01*
X191632500Y-107140504D01*
X191632500Y-107219496D01*
X191652944Y-107295796D01*
X191692440Y-107364205D01*
X191748295Y-107420060D01*
X191765512Y-107430000D01*
X190962638Y-107430000D01*
X190970930Y-107471690D01*
X190970930Y-107471692D01*
X191046307Y-107653671D01*
X191046314Y-107653684D01*
X191155748Y-107817462D01*
X191155751Y-107817466D01*
X191295033Y-107956748D01*
X191295037Y-107956751D01*
X191458815Y-108066185D01*
X191458828Y-108066192D01*
X191640806Y-108141569D01*
X191640818Y-108141572D01*
X191834004Y-108179999D01*
X191834008Y-108180000D01*
X192232500Y-108180000D01*
X192232500Y-107480000D01*
X192732500Y-107480000D01*
X192732500Y-108018215D01*
X192712815Y-108085254D01*
X192670502Y-108125601D01*
X192629138Y-108149483D01*
X192629132Y-108149487D01*
X192521987Y-108256632D01*
X192521985Y-108256635D01*
X192446219Y-108387863D01*
X192407000Y-108534234D01*
X192407000Y-108685766D01*
X192426609Y-108758950D01*
X192446219Y-108832136D01*
X192484102Y-108897750D01*
X192521985Y-108963365D01*
X192629135Y-109070515D01*
X192742781Y-109136129D01*
X192748642Y-109139513D01*
X192760365Y-109146281D01*
X192906734Y-109185500D01*
X192906736Y-109185500D01*
X193058264Y-109185500D01*
X193058266Y-109185500D01*
X193204635Y-109146281D01*
X193335865Y-109070515D01*
X193443015Y-108963365D01*
X193518781Y-108832135D01*
X193558000Y-108685766D01*
X193558000Y-108534234D01*
X193518781Y-108387865D01*
X193443015Y-108256635D01*
X193443013Y-108256633D01*
X193438951Y-108249597D01*
X193441154Y-108248325D01*
X193420541Y-108195022D01*
X193434573Y-108126576D01*
X193483382Y-108076582D01*
X193496663Y-108070129D01*
X193506182Y-108066186D01*
X193506184Y-108066185D01*
X193669962Y-107956751D01*
X193669966Y-107956748D01*
X193809248Y-107817466D01*
X193809251Y-107817462D01*
X193918685Y-107653684D01*
X193918692Y-107653671D01*
X193994069Y-107471692D01*
X193994069Y-107471690D01*
X194002362Y-107430000D01*
X193199488Y-107430000D01*
X193216705Y-107420060D01*
X193272560Y-107364205D01*
X193312056Y-107295796D01*
X193332500Y-107219496D01*
X193332500Y-107140504D01*
X193312056Y-107064204D01*
X193272560Y-106995795D01*
X193216705Y-106939940D01*
X193199488Y-106930000D01*
X194002362Y-106930000D01*
X195292638Y-106930000D01*
X196095512Y-106930000D01*
X196078295Y-106939940D01*
X196022440Y-106995795D01*
X195982944Y-107064204D01*
X195962500Y-107140504D01*
X195962500Y-107219496D01*
X195982944Y-107295796D01*
X196022440Y-107364205D01*
X196078295Y-107420060D01*
X196095512Y-107430000D01*
X195292638Y-107430000D01*
X195300930Y-107471690D01*
X195300930Y-107471692D01*
X195376307Y-107653671D01*
X195376314Y-107653684D01*
X195485748Y-107817462D01*
X195485751Y-107817466D01*
X195625033Y-107956748D01*
X195625037Y-107956751D01*
X195788815Y-108066185D01*
X195788828Y-108066192D01*
X195970806Y-108141569D01*
X195970818Y-108141572D01*
X196164004Y-108179999D01*
X196164008Y-108180000D01*
X196412500Y-108180000D01*
X196412500Y-107480000D01*
X196912500Y-107480000D01*
X196912500Y-108180000D01*
X197160992Y-108180000D01*
X197160995Y-108179999D01*
X197354181Y-108141572D01*
X197354193Y-108141569D01*
X197536171Y-108066192D01*
X197536184Y-108066185D01*
X197699962Y-107956751D01*
X197699966Y-107956748D01*
X197839248Y-107817466D01*
X197839251Y-107817462D01*
X197948685Y-107653684D01*
X197948692Y-107653671D01*
X198024069Y-107471692D01*
X198024069Y-107471690D01*
X198032362Y-107430000D01*
X197229488Y-107430000D01*
X197246705Y-107420060D01*
X197302560Y-107364205D01*
X197342056Y-107295796D01*
X197362500Y-107219496D01*
X197362500Y-107140504D01*
X197342056Y-107064204D01*
X197302560Y-106995795D01*
X197246705Y-106939940D01*
X197229488Y-106930000D01*
X198032362Y-106930000D01*
X198024069Y-106888309D01*
X198024069Y-106888307D01*
X197948692Y-106706328D01*
X197948685Y-106706315D01*
X197839251Y-106542537D01*
X197839248Y-106542533D01*
X197699966Y-106403251D01*
X197699962Y-106403248D01*
X197536184Y-106293814D01*
X197536171Y-106293807D01*
X197354193Y-106218430D01*
X197354181Y-106218427D01*
X197160995Y-106180000D01*
X196912500Y-106180000D01*
X196912500Y-106880000D01*
X196412500Y-106880000D01*
X196412500Y-106180000D01*
X196164004Y-106180000D01*
X195970818Y-106218427D01*
X195970806Y-106218430D01*
X195788828Y-106293807D01*
X195788815Y-106293814D01*
X195625037Y-106403248D01*
X195625033Y-106403251D01*
X195485751Y-106542533D01*
X195485748Y-106542537D01*
X195376314Y-106706315D01*
X195376307Y-106706328D01*
X195300930Y-106888307D01*
X195300930Y-106888309D01*
X195292638Y-106930000D01*
X194002362Y-106930000D01*
X193994069Y-106888309D01*
X193994069Y-106888307D01*
X193918692Y-106706328D01*
X193918685Y-106706315D01*
X193809251Y-106542537D01*
X193809248Y-106542533D01*
X193669966Y-106403251D01*
X193669962Y-106403248D01*
X193506184Y-106293814D01*
X193506171Y-106293807D01*
X193324193Y-106218430D01*
X193324181Y-106218427D01*
X193130995Y-106180000D01*
X192732500Y-106180000D01*
X192732500Y-106880000D01*
X192232500Y-106880000D01*
X192232500Y-106180000D01*
X191834004Y-106180000D01*
X191640818Y-106218427D01*
X191640806Y-106218430D01*
X191458828Y-106293807D01*
X191458815Y-106293814D01*
X191295037Y-106403248D01*
X191295033Y-106403251D01*
X191155751Y-106542533D01*
X191155748Y-106542537D01*
X191046314Y-106706315D01*
X191046307Y-106706328D01*
X190970930Y-106888307D01*
X190970930Y-106888309D01*
X190962638Y-106930000D01*
X150000500Y-106930000D01*
X150000500Y-106140691D01*
X170399500Y-106140691D01*
X170399500Y-106259309D01*
X170430201Y-106373886D01*
X170489511Y-106476613D01*
X170573387Y-106560489D01*
X170676114Y-106619799D01*
X170790691Y-106650500D01*
X170790694Y-106650500D01*
X170909306Y-106650500D01*
X170909309Y-106650500D01*
X171023886Y-106619799D01*
X171126613Y-106560489D01*
X171210489Y-106476613D01*
X171269799Y-106373886D01*
X171278694Y-106340691D01*
X189899500Y-106340691D01*
X189899500Y-106459309D01*
X189930201Y-106573886D01*
X189989511Y-106676613D01*
X190073387Y-106760489D01*
X190176114Y-106819799D01*
X190290691Y-106850500D01*
X190290694Y-106850500D01*
X190409307Y-106850500D01*
X190409309Y-106850500D01*
X190523886Y-106819799D01*
X190626613Y-106760489D01*
X190710489Y-106676613D01*
X190769799Y-106573886D01*
X190800500Y-106459309D01*
X190800500Y-106340691D01*
X190769799Y-106226114D01*
X190710489Y-106123387D01*
X190626613Y-106039511D01*
X190523886Y-105980201D01*
X190409309Y-105949500D01*
X190290691Y-105949500D01*
X190176114Y-105980201D01*
X190176112Y-105980201D01*
X190176112Y-105980202D01*
X190073387Y-106039511D01*
X190073384Y-106039513D01*
X189989513Y-106123384D01*
X189989511Y-106123387D01*
X189930201Y-106226114D01*
X189899500Y-106340691D01*
X171278694Y-106340691D01*
X171300500Y-106259309D01*
X171300500Y-106140691D01*
X171269799Y-106026114D01*
X171210489Y-105923387D01*
X171126613Y-105839511D01*
X171023886Y-105780201D01*
X170909309Y-105749500D01*
X170790691Y-105749500D01*
X170676114Y-105780201D01*
X170676112Y-105780201D01*
X170676112Y-105780202D01*
X170573387Y-105839511D01*
X170573384Y-105839513D01*
X170489513Y-105923384D01*
X170489511Y-105923387D01*
X170456709Y-105980202D01*
X170430201Y-106026114D01*
X170399500Y-106140691D01*
X150000500Y-106140691D01*
X150000500Y-105037137D01*
X180995946Y-105037137D01*
X180995946Y-105155755D01*
X181026647Y-105270332D01*
X181085957Y-105373059D01*
X181169833Y-105456935D01*
X181272560Y-105516245D01*
X181387137Y-105546946D01*
X181387140Y-105546946D01*
X181505752Y-105546946D01*
X181505755Y-105546946D01*
X181620332Y-105516245D01*
X181723059Y-105456935D01*
X181806935Y-105373059D01*
X181866245Y-105270332D01*
X181867633Y-105265149D01*
X181903995Y-105205491D01*
X181966841Y-105174960D01*
X182036217Y-105183252D01*
X182085782Y-105221754D01*
X182089509Y-105226611D01*
X182089510Y-105226612D01*
X182089511Y-105226613D01*
X182173387Y-105310489D01*
X182276114Y-105369799D01*
X182390691Y-105400500D01*
X182390694Y-105400500D01*
X182509306Y-105400500D01*
X182509309Y-105400500D01*
X182623886Y-105369799D01*
X182726613Y-105310489D01*
X182810489Y-105226613D01*
X182869799Y-105123886D01*
X182900500Y-105009309D01*
X182900500Y-104890691D01*
X182869799Y-104776114D01*
X182810489Y-104673387D01*
X182726613Y-104589511D01*
X182623886Y-104530201D01*
X182509309Y-104499500D01*
X182390691Y-104499500D01*
X182276114Y-104530201D01*
X182276112Y-104530201D01*
X182276112Y-104530202D01*
X182173387Y-104589511D01*
X182173384Y-104589513D01*
X182089513Y-104673384D01*
X182089511Y-104673387D01*
X182030200Y-104776114D01*
X182028810Y-104781304D01*
X181992442Y-104840962D01*
X181929593Y-104871487D01*
X181860218Y-104863188D01*
X181810662Y-104824690D01*
X181806935Y-104819833D01*
X181723061Y-104735959D01*
X181723059Y-104735957D01*
X181620332Y-104676647D01*
X181505755Y-104645946D01*
X181387137Y-104645946D01*
X181272560Y-104676647D01*
X181272558Y-104676647D01*
X181272558Y-104676648D01*
X181169833Y-104735957D01*
X181169830Y-104735959D01*
X181085959Y-104819830D01*
X181085957Y-104819833D01*
X181045046Y-104890693D01*
X181026647Y-104922560D01*
X180995946Y-105037137D01*
X150000500Y-105037137D01*
X150000500Y-102540691D01*
X172699500Y-102540691D01*
X172699500Y-102659309D01*
X172730201Y-102773886D01*
X172789511Y-102876613D01*
X172873387Y-102960489D01*
X172976114Y-103019799D01*
X173090691Y-103050500D01*
X173090694Y-103050500D01*
X173209306Y-103050500D01*
X173209309Y-103050500D01*
X173323886Y-103019799D01*
X173426613Y-102960489D01*
X173510489Y-102876613D01*
X173569799Y-102773886D01*
X173600500Y-102659309D01*
X173600500Y-102540691D01*
X173573705Y-102440691D01*
X187699500Y-102440691D01*
X187699500Y-102559309D01*
X187730201Y-102673886D01*
X187789511Y-102776613D01*
X187873387Y-102860489D01*
X187976114Y-102919799D01*
X188090691Y-102950500D01*
X188090694Y-102950500D01*
X188209306Y-102950500D01*
X188209309Y-102950500D01*
X188323886Y-102919799D01*
X188426613Y-102860489D01*
X188510489Y-102776613D01*
X188569799Y-102673886D01*
X188600500Y-102559309D01*
X188600500Y-102500000D01*
X192575000Y-102500000D01*
X192575000Y-102722844D01*
X192581401Y-102782372D01*
X192581403Y-102782379D01*
X192631645Y-102917086D01*
X192631649Y-102917093D01*
X192717809Y-103032187D01*
X192717812Y-103032190D01*
X192832906Y-103118350D01*
X192832913Y-103118354D01*
X192843833Y-103122427D01*
X192899767Y-103164298D01*
X192924184Y-103229762D01*
X192924500Y-103238609D01*
X192924500Y-103325765D01*
X192963719Y-103472136D01*
X193001602Y-103537750D01*
X193039485Y-103603365D01*
X193039487Y-103603367D01*
X193098439Y-103662319D01*
X193131924Y-103723642D01*
X193126940Y-103793334D01*
X193098439Y-103837681D01*
X193039487Y-103896632D01*
X193039485Y-103896635D01*
X192963719Y-104027863D01*
X192924500Y-104174234D01*
X192924500Y-104325765D01*
X192963719Y-104472136D01*
X192997244Y-104530202D01*
X193039485Y-104603365D01*
X193146635Y-104710515D01*
X193260252Y-104776112D01*
X193269244Y-104781304D01*
X193277865Y-104786281D01*
X193424234Y-104825500D01*
X193424236Y-104825500D01*
X193575764Y-104825500D01*
X193575766Y-104825500D01*
X193722135Y-104786281D01*
X193853365Y-104710515D01*
X193960515Y-104603365D01*
X194036281Y-104472135D01*
X194075500Y-104325766D01*
X194075500Y-104174234D01*
X194036281Y-104027865D01*
X193960515Y-103896635D01*
X193901561Y-103837681D01*
X193868076Y-103776358D01*
X193873060Y-103706666D01*
X193901561Y-103662319D01*
X193960515Y-103603365D01*
X194036281Y-103472135D01*
X194075500Y-103325766D01*
X194075500Y-103238608D01*
X194095185Y-103171569D01*
X194147989Y-103125814D01*
X194156173Y-103122424D01*
X194167087Y-103118353D01*
X194167093Y-103118350D01*
X194282187Y-103032190D01*
X194282190Y-103032187D01*
X194368350Y-102917093D01*
X194368354Y-102917086D01*
X194418596Y-102782379D01*
X194418598Y-102782372D01*
X194424999Y-102722844D01*
X194425000Y-102722827D01*
X194425000Y-102500000D01*
X193549728Y-102500000D01*
X193641614Y-102461940D01*
X193711940Y-102391614D01*
X193750000Y-102299728D01*
X193750000Y-102200272D01*
X193711940Y-102108386D01*
X193641614Y-102038060D01*
X193549728Y-102000000D01*
X193750000Y-102000000D01*
X194425000Y-102000000D01*
X194425000Y-101777172D01*
X194424999Y-101777155D01*
X194418598Y-101717627D01*
X194418596Y-101717620D01*
X194368354Y-101582913D01*
X194368350Y-101582906D01*
X194282190Y-101467812D01*
X194282187Y-101467809D01*
X194167093Y-101381649D01*
X194167086Y-101381645D01*
X194032379Y-101331403D01*
X194032372Y-101331401D01*
X193972844Y-101325000D01*
X193750000Y-101325000D01*
X193750000Y-102000000D01*
X193549728Y-102000000D01*
X193450272Y-102000000D01*
X193358386Y-102038060D01*
X193288060Y-102108386D01*
X193250000Y-102200272D01*
X193250000Y-102299728D01*
X193288060Y-102391614D01*
X193358386Y-102461940D01*
X193450272Y-102500000D01*
X192575000Y-102500000D01*
X188600500Y-102500000D01*
X188600500Y-102440691D01*
X188569799Y-102326114D01*
X188510489Y-102223387D01*
X188426613Y-102139511D01*
X188323886Y-102080201D01*
X188209309Y-102049500D01*
X188090691Y-102049500D01*
X187976114Y-102080201D01*
X187976112Y-102080201D01*
X187976112Y-102080202D01*
X187873387Y-102139511D01*
X187873384Y-102139513D01*
X187789513Y-102223384D01*
X187789511Y-102223387D01*
X187730201Y-102326114D01*
X187699500Y-102440691D01*
X173573705Y-102440691D01*
X173569799Y-102426114D01*
X173510489Y-102323387D01*
X173426613Y-102239511D01*
X173323886Y-102180201D01*
X173209309Y-102149500D01*
X173090691Y-102149500D01*
X172976114Y-102180201D01*
X172976112Y-102180201D01*
X172976112Y-102180202D01*
X172873387Y-102239511D01*
X172873384Y-102239513D01*
X172789513Y-102323384D01*
X172789511Y-102323387D01*
X172730201Y-102426114D01*
X172699500Y-102540691D01*
X150000500Y-102540691D01*
X150000500Y-101140691D01*
X153899500Y-101140691D01*
X153899500Y-101259309D01*
X153930201Y-101373886D01*
X153989511Y-101476613D01*
X154073387Y-101560489D01*
X154176114Y-101619799D01*
X154290691Y-101650500D01*
X154290694Y-101650500D01*
X154409306Y-101650500D01*
X154409309Y-101650500D01*
X154523886Y-101619799D01*
X154626613Y-101560489D01*
X154646411Y-101540691D01*
X173499500Y-101540691D01*
X173499500Y-101659309D01*
X173530201Y-101773886D01*
X173589511Y-101876613D01*
X173673387Y-101960489D01*
X173776114Y-102019799D01*
X173890691Y-102050500D01*
X173890694Y-102050500D01*
X174009306Y-102050500D01*
X174009309Y-102050500D01*
X174123886Y-102019799D01*
X174226613Y-101960489D01*
X174310489Y-101876613D01*
X174367912Y-101777155D01*
X192575000Y-101777155D01*
X192575000Y-102000000D01*
X193250000Y-102000000D01*
X193250000Y-101325000D01*
X193027155Y-101325000D01*
X192967627Y-101331401D01*
X192967620Y-101331403D01*
X192832913Y-101381645D01*
X192832906Y-101381649D01*
X192717812Y-101467809D01*
X192717809Y-101467812D01*
X192631649Y-101582906D01*
X192631645Y-101582913D01*
X192581403Y-101717620D01*
X192581401Y-101717627D01*
X192575000Y-101777155D01*
X174367912Y-101777155D01*
X174369799Y-101773886D01*
X174400500Y-101659309D01*
X174400500Y-101540691D01*
X174369799Y-101426114D01*
X174310489Y-101323387D01*
X174226613Y-101239511D01*
X174123886Y-101180201D01*
X174009309Y-101149500D01*
X173890691Y-101149500D01*
X173776114Y-101180201D01*
X173776112Y-101180201D01*
X173776112Y-101180202D01*
X173673387Y-101239511D01*
X173673384Y-101239513D01*
X173589513Y-101323384D01*
X173589511Y-101323387D01*
X173560355Y-101373887D01*
X173530201Y-101426114D01*
X173499500Y-101540691D01*
X154646411Y-101540691D01*
X154710489Y-101476613D01*
X154769799Y-101373886D01*
X154800500Y-101259309D01*
X154800500Y-101140691D01*
X154769799Y-101026114D01*
X154710489Y-100923387D01*
X154626613Y-100839511D01*
X154523886Y-100780201D01*
X154409309Y-100749500D01*
X154290691Y-100749500D01*
X154176114Y-100780201D01*
X154176112Y-100780201D01*
X154176112Y-100780202D01*
X154073387Y-100839511D01*
X154073384Y-100839513D01*
X153989513Y-100923384D01*
X153989511Y-100923387D01*
X153968091Y-100960488D01*
X153930201Y-101026114D01*
X153899500Y-101140691D01*
X150000500Y-101140691D01*
X150000500Y-99971919D01*
X150020185Y-99904880D01*
X150072989Y-99859125D01*
X150142147Y-99849181D01*
X150205703Y-99878206D01*
X150239061Y-99924466D01*
X150239869Y-99926418D01*
X150239870Y-99926420D01*
X150290852Y-100049500D01*
X150319058Y-100117596D01*
X150434024Y-100289657D01*
X150580342Y-100435975D01*
X150580345Y-100435977D01*
X150752402Y-100550941D01*
X150943580Y-100630130D01*
X151090259Y-100659306D01*
X151146530Y-100670499D01*
X151146534Y-100670500D01*
X151146535Y-100670500D01*
X151353466Y-100670500D01*
X151353467Y-100670499D01*
X151556420Y-100630130D01*
X151747598Y-100550941D01*
X151912600Y-100440691D01*
X159049500Y-100440691D01*
X159049500Y-100559309D01*
X159080201Y-100673886D01*
X159139511Y-100776613D01*
X159223387Y-100860489D01*
X159326114Y-100919799D01*
X159440691Y-100950500D01*
X159440694Y-100950500D01*
X159559306Y-100950500D01*
X159559309Y-100950500D01*
X159673886Y-100919799D01*
X159776613Y-100860489D01*
X159860489Y-100776613D01*
X159919799Y-100673886D01*
X159950500Y-100559309D01*
X159950500Y-100540691D01*
X166999500Y-100540691D01*
X166999500Y-100659309D01*
X167030201Y-100773886D01*
X167089511Y-100876613D01*
X167173387Y-100960489D01*
X167276114Y-101019799D01*
X167390691Y-101050500D01*
X167390694Y-101050500D01*
X167509306Y-101050500D01*
X167509309Y-101050500D01*
X167623886Y-101019799D01*
X167726613Y-100960489D01*
X167810489Y-100876613D01*
X167869799Y-100773886D01*
X167900500Y-100659309D01*
X167900500Y-100540691D01*
X167869799Y-100426114D01*
X167810489Y-100323387D01*
X167726613Y-100239511D01*
X167623886Y-100180201D01*
X167509309Y-100149500D01*
X167390691Y-100149500D01*
X167276114Y-100180201D01*
X167276112Y-100180201D01*
X167276112Y-100180202D01*
X167173387Y-100239511D01*
X167173384Y-100239513D01*
X167089513Y-100323384D01*
X167089511Y-100323387D01*
X167030201Y-100426114D01*
X166999500Y-100540691D01*
X159950500Y-100540691D01*
X159950500Y-100440691D01*
X159919799Y-100326114D01*
X159860489Y-100223387D01*
X159776613Y-100139511D01*
X159673886Y-100080201D01*
X159559309Y-100049500D01*
X159440691Y-100049500D01*
X159326114Y-100080201D01*
X159326112Y-100080201D01*
X159326112Y-100080202D01*
X159223387Y-100139511D01*
X159223384Y-100139513D01*
X159139513Y-100223384D01*
X159139511Y-100223387D01*
X159080201Y-100326114D01*
X159049500Y-100440691D01*
X151912600Y-100440691D01*
X151919655Y-100435977D01*
X151929520Y-100426112D01*
X152010750Y-100344883D01*
X152065974Y-100289658D01*
X152065975Y-100289657D01*
X152065977Y-100289655D01*
X152180941Y-100117598D01*
X152260130Y-99926420D01*
X152300500Y-99723465D01*
X152300500Y-99516535D01*
X152260130Y-99313580D01*
X152180941Y-99122402D01*
X152065977Y-98950345D01*
X152065975Y-98950342D01*
X151919657Y-98804024D01*
X151803800Y-98726612D01*
X151747598Y-98689059D01*
X151710967Y-98673886D01*
X151556420Y-98609870D01*
X151556412Y-98609868D01*
X151353469Y-98569500D01*
X151353465Y-98569500D01*
X151146535Y-98569500D01*
X151146530Y-98569500D01*
X150943587Y-98609868D01*
X150943579Y-98609870D01*
X150752403Y-98689058D01*
X150580342Y-98804024D01*
X150434024Y-98950342D01*
X150319057Y-99122403D01*
X150239061Y-99315533D01*
X150195220Y-99369936D01*
X150128926Y-99392001D01*
X150061226Y-99374722D01*
X150013616Y-99323584D01*
X150000500Y-99268080D01*
X150000500Y-97431919D01*
X150020185Y-97364880D01*
X150072989Y-97319125D01*
X150142147Y-97309181D01*
X150205703Y-97338206D01*
X150239061Y-97384466D01*
X150239869Y-97386418D01*
X150239870Y-97386420D01*
X150282572Y-97489511D01*
X150303771Y-97540691D01*
X150319059Y-97577598D01*
X150320799Y-97580202D01*
X150434024Y-97749657D01*
X150580342Y-97895975D01*
X150580345Y-97895977D01*
X150752402Y-98010941D01*
X150943580Y-98090130D01*
X151126989Y-98126612D01*
X151146530Y-98130499D01*
X151146534Y-98130500D01*
X151146535Y-98130500D01*
X151353466Y-98130500D01*
X151353467Y-98130499D01*
X151556420Y-98090130D01*
X151747598Y-98010941D01*
X151852735Y-97940691D01*
X161799500Y-97940691D01*
X161799500Y-98059309D01*
X161830201Y-98173886D01*
X161889511Y-98276613D01*
X161973387Y-98360489D01*
X162076114Y-98419799D01*
X162190691Y-98450500D01*
X162190694Y-98450500D01*
X162309306Y-98450500D01*
X162309309Y-98450500D01*
X162423886Y-98419799D01*
X162474302Y-98390691D01*
X167649500Y-98390691D01*
X167649500Y-98509309D01*
X167680201Y-98623886D01*
X167739511Y-98726613D01*
X167823387Y-98810489D01*
X167926114Y-98869799D01*
X168040691Y-98900500D01*
X168040694Y-98900500D01*
X168159306Y-98900500D01*
X168159309Y-98900500D01*
X168273886Y-98869799D01*
X168376613Y-98810489D01*
X168460489Y-98726613D01*
X168519799Y-98623886D01*
X168550500Y-98509309D01*
X168550500Y-98440691D01*
X180049500Y-98440691D01*
X180049500Y-98559309D01*
X180080201Y-98673886D01*
X180139511Y-98776613D01*
X180223387Y-98860489D01*
X180326114Y-98919799D01*
X180440691Y-98950500D01*
X180440694Y-98950500D01*
X180559306Y-98950500D01*
X180559309Y-98950500D01*
X180673886Y-98919799D01*
X180776613Y-98860489D01*
X180860489Y-98776613D01*
X180919799Y-98673886D01*
X180950500Y-98559309D01*
X180950500Y-98440691D01*
X180919799Y-98326114D01*
X180860489Y-98223387D01*
X180776613Y-98139511D01*
X180673886Y-98080201D01*
X180559309Y-98049500D01*
X180440691Y-98049500D01*
X180326114Y-98080201D01*
X180326112Y-98080201D01*
X180326112Y-98080202D01*
X180223387Y-98139511D01*
X180223384Y-98139513D01*
X180139513Y-98223384D01*
X180139511Y-98223387D01*
X180103970Y-98284946D01*
X180080201Y-98326114D01*
X180049500Y-98440691D01*
X168550500Y-98440691D01*
X168550500Y-98397740D01*
X168570185Y-98330701D01*
X168622989Y-98284946D01*
X168692147Y-98275002D01*
X168706575Y-98277961D01*
X168790691Y-98300500D01*
X168790694Y-98300500D01*
X168909306Y-98300500D01*
X168909309Y-98300500D01*
X169023886Y-98269799D01*
X169126613Y-98210489D01*
X169210489Y-98126613D01*
X169269799Y-98023886D01*
X169300500Y-97909309D01*
X169300500Y-97790691D01*
X169269799Y-97676114D01*
X169214424Y-97580202D01*
X169210493Y-97573393D01*
X169210490Y-97573390D01*
X169210489Y-97573387D01*
X169177793Y-97540691D01*
X197499500Y-97540691D01*
X197499500Y-97659309D01*
X197530201Y-97773886D01*
X197589511Y-97876613D01*
X197673387Y-97960489D01*
X197776114Y-98019799D01*
X197890691Y-98050500D01*
X197890694Y-98050500D01*
X198009306Y-98050500D01*
X198009309Y-98050500D01*
X198123886Y-98019799D01*
X198226613Y-97960489D01*
X198310489Y-97876613D01*
X198369799Y-97773886D01*
X198400500Y-97659309D01*
X198400500Y-97540691D01*
X198369799Y-97426114D01*
X198310489Y-97323387D01*
X198226613Y-97239511D01*
X198123886Y-97180201D01*
X198009309Y-97149500D01*
X197890691Y-97149500D01*
X197776114Y-97180201D01*
X197776112Y-97180201D01*
X197776112Y-97180202D01*
X197673387Y-97239511D01*
X197673384Y-97239513D01*
X197589513Y-97323384D01*
X197589511Y-97323387D01*
X197553119Y-97386420D01*
X197530201Y-97426114D01*
X197499500Y-97540691D01*
X169177793Y-97540691D01*
X169126613Y-97489511D01*
X169023886Y-97430201D01*
X168909309Y-97399500D01*
X168790691Y-97399500D01*
X168676114Y-97430201D01*
X168676112Y-97430201D01*
X168676112Y-97430202D01*
X168573387Y-97489511D01*
X168573384Y-97489513D01*
X168489513Y-97573384D01*
X168489511Y-97573387D01*
X168430201Y-97676114D01*
X168399500Y-97790691D01*
X168399500Y-97790693D01*
X168399500Y-97902259D01*
X168379815Y-97969298D01*
X168327011Y-98015053D01*
X168257853Y-98024997D01*
X168243407Y-98022034D01*
X168202007Y-98010941D01*
X168159309Y-97999500D01*
X168040691Y-97999500D01*
X167926114Y-98030201D01*
X167926112Y-98030201D01*
X167926112Y-98030202D01*
X167823387Y-98089511D01*
X167823384Y-98089513D01*
X167739513Y-98173384D01*
X167739511Y-98173387D01*
X167718091Y-98210488D01*
X167680201Y-98276114D01*
X167649500Y-98390691D01*
X162474302Y-98390691D01*
X162526613Y-98360489D01*
X162610489Y-98276613D01*
X162669799Y-98173886D01*
X162700500Y-98059309D01*
X162700500Y-97940691D01*
X162669799Y-97826114D01*
X162610489Y-97723387D01*
X162526613Y-97639511D01*
X162423886Y-97580201D01*
X162309309Y-97549500D01*
X162190691Y-97549500D01*
X162076114Y-97580201D01*
X162076112Y-97580201D01*
X162076112Y-97580202D01*
X161973387Y-97639511D01*
X161973384Y-97639513D01*
X161889513Y-97723384D01*
X161889511Y-97723387D01*
X161850652Y-97790693D01*
X161830201Y-97826114D01*
X161799500Y-97940691D01*
X151852735Y-97940691D01*
X151919655Y-97895977D01*
X151939020Y-97876612D01*
X151970750Y-97844883D01*
X152065974Y-97749658D01*
X152065975Y-97749657D01*
X152065977Y-97749655D01*
X152180941Y-97577598D01*
X152260130Y-97386420D01*
X152300500Y-97183465D01*
X152300500Y-96976535D01*
X152260130Y-96773580D01*
X152180941Y-96582402D01*
X152065977Y-96410345D01*
X152065975Y-96410342D01*
X151919657Y-96264024D01*
X151833626Y-96206541D01*
X151747598Y-96149059D01*
X151556420Y-96069870D01*
X151556412Y-96069868D01*
X151353469Y-96029500D01*
X151353465Y-96029500D01*
X151146535Y-96029500D01*
X151146530Y-96029500D01*
X150943587Y-96069868D01*
X150943579Y-96069870D01*
X150752403Y-96149058D01*
X150580342Y-96264024D01*
X150434024Y-96410342D01*
X150319057Y-96582403D01*
X150239061Y-96775533D01*
X150195220Y-96829936D01*
X150128926Y-96852001D01*
X150061226Y-96834722D01*
X150013616Y-96783584D01*
X150000500Y-96728080D01*
X150000500Y-94891919D01*
X150020185Y-94824880D01*
X150072989Y-94779125D01*
X150142147Y-94769181D01*
X150205703Y-94798206D01*
X150239061Y-94844466D01*
X150239869Y-94846418D01*
X150239870Y-94846420D01*
X150278430Y-94939511D01*
X150313172Y-95023387D01*
X150319059Y-95037598D01*
X150376541Y-95123626D01*
X150434024Y-95209657D01*
X150580342Y-95355975D01*
X150580345Y-95355977D01*
X150752402Y-95470941D01*
X150943580Y-95550130D01*
X151146530Y-95590499D01*
X151146534Y-95590500D01*
X151146535Y-95590500D01*
X151353466Y-95590500D01*
X151353467Y-95590499D01*
X151556420Y-95550130D01*
X151747598Y-95470941D01*
X151919655Y-95355977D01*
X152034941Y-95240691D01*
X187199500Y-95240691D01*
X187199500Y-95359309D01*
X187230201Y-95473886D01*
X187289511Y-95576613D01*
X187373387Y-95660489D01*
X187476114Y-95719799D01*
X187590691Y-95750500D01*
X187590694Y-95750500D01*
X187709306Y-95750500D01*
X187709309Y-95750500D01*
X187823886Y-95719799D01*
X187926613Y-95660489D01*
X188010489Y-95576613D01*
X188069799Y-95473886D01*
X188100500Y-95359309D01*
X188100500Y-95240691D01*
X188069799Y-95126114D01*
X188010489Y-95023387D01*
X187926613Y-94939511D01*
X187823886Y-94880201D01*
X187709309Y-94849500D01*
X187590691Y-94849500D01*
X187476114Y-94880201D01*
X187476112Y-94880201D01*
X187476112Y-94880202D01*
X187373387Y-94939511D01*
X187373384Y-94939513D01*
X187289513Y-95023384D01*
X187289511Y-95023387D01*
X187230201Y-95126114D01*
X187199500Y-95240691D01*
X152034941Y-95240691D01*
X152065977Y-95209655D01*
X152121799Y-95126112D01*
X152180940Y-95037600D01*
X152180940Y-95037599D01*
X152180941Y-95037598D01*
X152260130Y-94846420D01*
X152300500Y-94643465D01*
X152300500Y-94436535D01*
X152260130Y-94233580D01*
X152180941Y-94042402D01*
X152065977Y-93870345D01*
X152065975Y-93870342D01*
X151919658Y-93724025D01*
X151919650Y-93724019D01*
X151792720Y-93639207D01*
X151792710Y-93639201D01*
X151747598Y-93609059D01*
X151692738Y-93586335D01*
X151687598Y-93583617D01*
X151666565Y-93563138D01*
X151643709Y-93544720D01*
X151642368Y-93540691D01*
X180199500Y-93540691D01*
X180199500Y-93659309D01*
X180230201Y-93773886D01*
X180289511Y-93876613D01*
X180373387Y-93960489D01*
X180476114Y-94019799D01*
X180590691Y-94050500D01*
X180590694Y-94050500D01*
X180709306Y-94050500D01*
X180709309Y-94050500D01*
X180823886Y-94019799D01*
X180926613Y-93960489D01*
X181010489Y-93876613D01*
X181069799Y-93773886D01*
X181100500Y-93659309D01*
X181100500Y-93540691D01*
X181069799Y-93426114D01*
X181010489Y-93323387D01*
X180926613Y-93239511D01*
X180823886Y-93180201D01*
X180709309Y-93149500D01*
X180590691Y-93149500D01*
X180476114Y-93180201D01*
X180476112Y-93180201D01*
X180476112Y-93180202D01*
X180373387Y-93239511D01*
X180373384Y-93239513D01*
X180289513Y-93323384D01*
X180289511Y-93323387D01*
X180276342Y-93346197D01*
X180230201Y-93426114D01*
X180199500Y-93540691D01*
X151642368Y-93540691D01*
X151641820Y-93539046D01*
X151637537Y-93534876D01*
X151630915Y-93506281D01*
X151621644Y-93478426D01*
X151623122Y-93472631D01*
X151621774Y-93466807D01*
X151631662Y-93439172D01*
X151638923Y-93410726D01*
X151643300Y-93406650D01*
X151645314Y-93401023D01*
X151668572Y-93383121D01*
X151690061Y-93363116D01*
X151696561Y-93361579D01*
X151700683Y-93358408D01*
X151715207Y-93357173D01*
X151745565Y-93350000D01*
X152147828Y-93350000D01*
X152147844Y-93349999D01*
X152207372Y-93343598D01*
X152207379Y-93343596D01*
X152342086Y-93293354D01*
X152342093Y-93293350D01*
X152457187Y-93207190D01*
X152457190Y-93207187D01*
X152543350Y-93092093D01*
X152543354Y-93092086D01*
X152593596Y-92957379D01*
X152593598Y-92957372D01*
X152599999Y-92897844D01*
X152600000Y-92897827D01*
X152600000Y-92250000D01*
X151494975Y-92250000D01*
X151530070Y-92214905D01*
X151576148Y-92135095D01*
X151600000Y-92046078D01*
X151600000Y-91953922D01*
X151576148Y-91864905D01*
X151530070Y-91785095D01*
X151494975Y-91750000D01*
X151500000Y-91750000D01*
X152600000Y-91750000D01*
X152600000Y-91102172D01*
X152599999Y-91102155D01*
X152593598Y-91042627D01*
X152593596Y-91042620D01*
X152543354Y-90907913D01*
X152543350Y-90907906D01*
X152457190Y-90792812D01*
X152457187Y-90792809D01*
X152342093Y-90706649D01*
X152342086Y-90706645D01*
X152207379Y-90656403D01*
X152207372Y-90656401D01*
X152147844Y-90650000D01*
X151500000Y-90650000D01*
X151500000Y-91750000D01*
X151494975Y-91750000D01*
X151464905Y-91719930D01*
X151385095Y-91673852D01*
X151296078Y-91650000D01*
X151203922Y-91650000D01*
X151114905Y-91673852D01*
X151035095Y-91719930D01*
X151000000Y-91755025D01*
X151000000Y-90650000D01*
X150352155Y-90650000D01*
X150292627Y-90656401D01*
X150292617Y-90656403D01*
X150167832Y-90702945D01*
X150098141Y-90707929D01*
X150036818Y-90674443D01*
X150003334Y-90613120D01*
X150000500Y-90586763D01*
X150000500Y-89584296D01*
X156299500Y-89584296D01*
X156299500Y-89915703D01*
X156336601Y-90244991D01*
X156336604Y-90245005D01*
X156410346Y-90568093D01*
X156410349Y-90568101D01*
X156519799Y-90880890D01*
X156663582Y-91179458D01*
X156663584Y-91179461D01*
X156839896Y-91460060D01*
X157046516Y-91719153D01*
X157280847Y-91953484D01*
X157539940Y-92160104D01*
X157820539Y-92336416D01*
X158119113Y-92480202D01*
X158348552Y-92560486D01*
X158431898Y-92589650D01*
X158431906Y-92589653D01*
X158431909Y-92589653D01*
X158431910Y-92589654D01*
X158754994Y-92663396D01*
X158755003Y-92663397D01*
X158755008Y-92663398D01*
X158974533Y-92688132D01*
X159084297Y-92700499D01*
X159084300Y-92700500D01*
X159084303Y-92700500D01*
X159415700Y-92700500D01*
X159415701Y-92700499D01*
X159583996Y-92681537D01*
X159744991Y-92663398D01*
X159744994Y-92663397D01*
X159745006Y-92663396D01*
X160068090Y-92589654D01*
X160380887Y-92480202D01*
X160679461Y-92336416D01*
X160911381Y-92190691D01*
X173049500Y-92190691D01*
X173049500Y-92309309D01*
X173080201Y-92423886D01*
X173139511Y-92526613D01*
X173223387Y-92610489D01*
X173326114Y-92669799D01*
X173440691Y-92700500D01*
X173440694Y-92700500D01*
X173559306Y-92700500D01*
X173559309Y-92700500D01*
X173673886Y-92669799D01*
X173776613Y-92610489D01*
X173860489Y-92526613D01*
X173919799Y-92423886D01*
X173950500Y-92309309D01*
X173950500Y-92190691D01*
X173937102Y-92140691D01*
X174799500Y-92140691D01*
X174799500Y-92259309D01*
X174830201Y-92373886D01*
X174889511Y-92476613D01*
X174973387Y-92560489D01*
X175076114Y-92619799D01*
X175190691Y-92650500D01*
X175190694Y-92650500D01*
X175309306Y-92650500D01*
X175309309Y-92650500D01*
X175423886Y-92619799D01*
X175526613Y-92560489D01*
X175610489Y-92476613D01*
X175669799Y-92373886D01*
X175700500Y-92259309D01*
X175700500Y-92140691D01*
X175669799Y-92026114D01*
X175610489Y-91923387D01*
X175526613Y-91839511D01*
X175423886Y-91780201D01*
X175309309Y-91749500D01*
X175190691Y-91749500D01*
X175076114Y-91780201D01*
X175076112Y-91780201D01*
X175076112Y-91780202D01*
X174973387Y-91839511D01*
X174973384Y-91839513D01*
X174889513Y-91923384D01*
X174889511Y-91923387D01*
X174830201Y-92026114D01*
X174799500Y-92140691D01*
X173937102Y-92140691D01*
X173919799Y-92076114D01*
X173860489Y-91973387D01*
X173776613Y-91889511D01*
X173673886Y-91830201D01*
X173559309Y-91799500D01*
X173440691Y-91799500D01*
X173326114Y-91830201D01*
X173326112Y-91830201D01*
X173326112Y-91830202D01*
X173223387Y-91889511D01*
X173223384Y-91889513D01*
X173139513Y-91973384D01*
X173139511Y-91973387D01*
X173080201Y-92076114D01*
X173049500Y-92190691D01*
X160911381Y-92190691D01*
X160960060Y-92160104D01*
X161219153Y-91953484D01*
X161453484Y-91719153D01*
X161660104Y-91460060D01*
X161836416Y-91179461D01*
X161980202Y-90880887D01*
X162089654Y-90568090D01*
X162163396Y-90245006D01*
X162200500Y-89915697D01*
X162200500Y-89584303D01*
X162200499Y-89584296D01*
X186799500Y-89584296D01*
X186799500Y-89915703D01*
X186836601Y-90244991D01*
X186836604Y-90245005D01*
X186910346Y-90568093D01*
X186910349Y-90568101D01*
X187019799Y-90880890D01*
X187163582Y-91179458D01*
X187163584Y-91179461D01*
X187339896Y-91460060D01*
X187546516Y-91719153D01*
X187780847Y-91953484D01*
X188039940Y-92160104D01*
X188320539Y-92336416D01*
X188619113Y-92480202D01*
X188848552Y-92560486D01*
X188931898Y-92589650D01*
X188931906Y-92589653D01*
X188931909Y-92589653D01*
X188931910Y-92589654D01*
X189254994Y-92663396D01*
X189255003Y-92663397D01*
X189255008Y-92663398D01*
X189474533Y-92688132D01*
X189584297Y-92700499D01*
X189584300Y-92700500D01*
X189584303Y-92700500D01*
X189915700Y-92700500D01*
X189915701Y-92700499D01*
X190083996Y-92681537D01*
X190244991Y-92663398D01*
X190244994Y-92663397D01*
X190245006Y-92663396D01*
X190568090Y-92589654D01*
X190880887Y-92480202D01*
X191179461Y-92336416D01*
X191460060Y-92160104D01*
X191719153Y-91953484D01*
X191953484Y-91719153D01*
X192160104Y-91460060D01*
X192336416Y-91179461D01*
X192480202Y-90880887D01*
X192589654Y-90568090D01*
X192663396Y-90245006D01*
X192700500Y-89915697D01*
X192700500Y-89584303D01*
X192663396Y-89254994D01*
X192589654Y-88931910D01*
X192480202Y-88619113D01*
X192336416Y-88320539D01*
X192160104Y-88039940D01*
X191953484Y-87780847D01*
X191719153Y-87546516D01*
X191460060Y-87339896D01*
X191266263Y-87218125D01*
X191179458Y-87163582D01*
X190880890Y-87019799D01*
X190568101Y-86910349D01*
X190568093Y-86910346D01*
X190325777Y-86855039D01*
X190245006Y-86836604D01*
X190245003Y-86836603D01*
X190244991Y-86836601D01*
X189915703Y-86799500D01*
X189915697Y-86799500D01*
X189584303Y-86799500D01*
X189584296Y-86799500D01*
X189255008Y-86836601D01*
X189254994Y-86836604D01*
X188931906Y-86910346D01*
X188931898Y-86910349D01*
X188619109Y-87019799D01*
X188320541Y-87163582D01*
X188039941Y-87339895D01*
X187780847Y-87546515D01*
X187546515Y-87780847D01*
X187339895Y-88039941D01*
X187163582Y-88320541D01*
X187019799Y-88619109D01*
X186910349Y-88931898D01*
X186910346Y-88931906D01*
X186836604Y-89254994D01*
X186836601Y-89255008D01*
X186799500Y-89584296D01*
X162200499Y-89584296D01*
X162163396Y-89254994D01*
X162089654Y-88931910D01*
X161980202Y-88619113D01*
X161836416Y-88320539D01*
X161660104Y-88039940D01*
X161541082Y-87890691D01*
X167049500Y-87890691D01*
X167049500Y-88009309D01*
X167080201Y-88123886D01*
X167139511Y-88226613D01*
X167223387Y-88310489D01*
X167326114Y-88369799D01*
X167440691Y-88400500D01*
X167440694Y-88400500D01*
X167559306Y-88400500D01*
X167559309Y-88400500D01*
X167673886Y-88369799D01*
X167776613Y-88310489D01*
X167860489Y-88226613D01*
X167919799Y-88123886D01*
X167950500Y-88009309D01*
X167950500Y-87890691D01*
X167919799Y-87776114D01*
X167860489Y-87673387D01*
X167776613Y-87589511D01*
X167673886Y-87530201D01*
X167559309Y-87499500D01*
X167440691Y-87499500D01*
X167326114Y-87530201D01*
X167326112Y-87530201D01*
X167326112Y-87530202D01*
X167223387Y-87589511D01*
X167223384Y-87589513D01*
X167139513Y-87673384D01*
X167139511Y-87673387D01*
X167080201Y-87776114D01*
X167049500Y-87890691D01*
X161541082Y-87890691D01*
X161453484Y-87780847D01*
X161219153Y-87546516D01*
X160960060Y-87339896D01*
X160766263Y-87218125D01*
X160679458Y-87163582D01*
X160380890Y-87019799D01*
X160068101Y-86910349D01*
X160068093Y-86910346D01*
X159825777Y-86855039D01*
X159745006Y-86836604D01*
X159745003Y-86836603D01*
X159744991Y-86836601D01*
X159471474Y-86805784D01*
X159415703Y-86799500D01*
X159415697Y-86799500D01*
X159084303Y-86799500D01*
X159084296Y-86799500D01*
X158755008Y-86836601D01*
X158754994Y-86836604D01*
X158431906Y-86910346D01*
X158431898Y-86910349D01*
X158119109Y-87019799D01*
X157820541Y-87163582D01*
X157539941Y-87339895D01*
X157280847Y-87546515D01*
X157046515Y-87780847D01*
X156839895Y-88039941D01*
X156663582Y-88320541D01*
X156519799Y-88619109D01*
X156410349Y-88931898D01*
X156410346Y-88931906D01*
X156336604Y-89254994D01*
X156336601Y-89255008D01*
X156299500Y-89584296D01*
X150000500Y-89584296D01*
X150000500Y-86690691D01*
X176549500Y-86690691D01*
X176549500Y-86809309D01*
X176580201Y-86923886D01*
X176639511Y-87026613D01*
X176723387Y-87110489D01*
X176826114Y-87169799D01*
X176940691Y-87200500D01*
X176940694Y-87200500D01*
X177059306Y-87200500D01*
X177059309Y-87200500D01*
X177173886Y-87169799D01*
X177276613Y-87110489D01*
X177360489Y-87026613D01*
X177419799Y-86923886D01*
X177450500Y-86809309D01*
X177450500Y-86690691D01*
X177419799Y-86576114D01*
X177360489Y-86473387D01*
X177276613Y-86389511D01*
X177173886Y-86330201D01*
X177059309Y-86299500D01*
X176940691Y-86299500D01*
X176826114Y-86330201D01*
X176826112Y-86330201D01*
X176826112Y-86330202D01*
X176723387Y-86389511D01*
X176723384Y-86389513D01*
X176639513Y-86473384D01*
X176639511Y-86473387D01*
X176580201Y-86576114D01*
X176549500Y-86690691D01*
X150000500Y-86690691D01*
X150000500Y-83003750D01*
X150000726Y-82996263D01*
X150018271Y-82706205D01*
X150020076Y-82691340D01*
X150071780Y-82409201D01*
X150075364Y-82394663D01*
X150152096Y-82148422D01*
X150160696Y-82120822D01*
X150165998Y-82106841D01*
X150283731Y-81845249D01*
X150290676Y-81832016D01*
X150439080Y-81586526D01*
X150447567Y-81574230D01*
X150624480Y-81348417D01*
X150634395Y-81337226D01*
X150837226Y-81134395D01*
X150848417Y-81124480D01*
X151074230Y-80947567D01*
X151086526Y-80939080D01*
X151332016Y-80790676D01*
X151345249Y-80783731D01*
X151606841Y-80665998D01*
X151620822Y-80660696D01*
X151894668Y-80575362D01*
X151909197Y-80571780D01*
X152191344Y-80520075D01*
X152206201Y-80518271D01*
X152496264Y-80500726D01*
X152503751Y-80500500D01*
X152565892Y-80500500D01*
X196434108Y-80500500D01*
X196496249Y-80500500D01*
X196503736Y-80500726D01*
G37*
%TD.AperFunction*%
%TD*%
M02*
