M48
; DRILL file {KiCad 9.0.7-9.0.7~ubuntu24.04.1} date 2026-06-02T22:06:35+0200
; FORMAT={-:-/ absolute / metric / decimal}
; #@! TF.CreationDate,2026-06-02T22:06:35+02:00
; #@! TF.GenerationSoftware,Kicad,Pcbnew,9.0.7-9.0.7~ubuntu24.04.1
; #@! TF.FileFunction,Plated,1,6,PTH
FMAT,2
METRIC
; #@! TA.AperFunction,Plated,PTH,ViaDrill
T1C0.200
; #@! TA.AperFunction,Plated,PTH,ViaDrill
T2C0.300
; #@! TA.AperFunction,Plated,PTH,ComponentDrill
T3C0.500
; #@! TA.AperFunction,Plated,PTH,ComponentDrill
T4C0.600
; #@! TA.AperFunction,Plated,PTH,ComponentDrill
T5C1.000
; #@! TA.AperFunction,Plated,PTH,ComponentDrill
T6C3.200
%
G90
G05
T1
X150.782Y-82.36
X150.946Y-127.534
X151.671Y-81.421
X151.884Y-128.423
X154.27Y-109.86
X154.35Y-101.2
X154.75Y-109.5
X158.75Y-115.1
X159.5Y-100.5
X160.029Y-100.052
X162.25Y-109.5
X164.55Y-123.402
X164.85Y-87.4
X165.05Y-112.6
X165.75Y-112.25
X166.65Y-115.1
X166.75Y-114.5
X167.45Y-100.6
X167.601Y-98.438
X167.95Y-117.502
X168.249Y-98.382
X168.729Y-98.021
X168.95Y-97.4
X169.603Y-106.089
X170.25Y-111.0
X170.55Y-115.3
X170.55Y-123.3
X172.094Y-111.619
X173.15Y-102.6
X173.5Y-92.25
X173.649Y-122.484
X173.75Y-114.3
X173.915Y-102.286
X173.95Y-101.6
X174.119Y-115.605
X174.15Y-110.0
X174.242Y-91.951
X174.288Y-96.861
X174.321Y-110.799
X175.25Y-92.2
X175.25Y-114.0
X175.759Y-114.498
X176.65Y-112.9
X177.0Y-86.75
X177.15Y-107.5
X177.765Y-107.561
X179.904Y-93.036
X180.5Y-98.5
X180.806Y-104.839
X180.982Y-99.178
X181.25Y-105.25
X181.548Y-115.205
X181.75Y-111.1
X181.931Y-104.398
X181.95Y-117.4
X182.313Y-104.937
X182.467Y-117.706
X182.844Y-123.989
X183.15Y-119.1
X183.6Y-123.935
X184.05Y-110.8
X184.297Y-111.471
X186.75Y-109.0
X187.65Y-95.3
X188.15Y-102.5
X190.35Y-106.4
X191.65Y-102.5
X197.225Y-128.529
X197.262Y-81.311
X197.95Y-97.6
X198.114Y-127.591
X198.2Y-82.2
T2
X162.25Y-98.0
X170.85Y-106.2
X174.514Y-118.264
X180.65Y-93.6
X181.0Y-115.75
X181.75Y-110.25
X183.45Y-112.9
X184.15Y-115.9
X185.75Y-126.5
X188.05Y-114.8
T3
X193.5Y-102.25
X193.5Y-103.25
X193.5Y-104.25
T5
X151.25Y-92.0
X151.25Y-94.54
X151.25Y-97.08
X151.25Y-99.62
X151.25Y-111.0
X151.25Y-113.54
X151.25Y-116.08
X151.25Y-118.62
X160.88Y-128.0
X163.42Y-128.0
X165.96Y-128.0
X168.5Y-128.0
T6
X159.25Y-89.75
X159.25Y-120.25
X189.75Y-89.75
X189.75Y-120.25
T4
G00X191.933Y-107.18
M15
G01X193.032Y-107.18
M16
G05
G00X191.933Y-115.82
M15
G01X193.032Y-115.82
M16
G05
G00X196.262Y-107.18
M15
G01X197.062Y-107.18
M16
G05
G00X196.262Y-115.82
M15
G01X197.062Y-115.82
M16
G05
M30
