%TF.GenerationSoftware,KiCad,Pcbnew,9.0.7-9.0.7~ubuntu24.04.1*%
%TF.CreationDate,2026-06-03T23:34:01+02:00*%
%TF.ProjectId,flight_controller,666c6967-6874-45f6-936f-6e74726f6c6c,rev?*%
%TF.SameCoordinates,Original*%
%TF.FileFunction,Copper,L3,Inr*%
%TF.FilePolarity,Positive*%
%FSLAX46Y46*%
G04 Gerber Fmt 4.6, Leading zero omitted, Abs format (unit mm)*
G04 Created by KiCad (PCBNEW 9.0.7-9.0.7~ubuntu24.04.1) date 2026-06-03 23:34:01*
%MOMM*%
%LPD*%
G01*
G04 APERTURE LIST*
%TA.AperFunction,ComponentPad*%
%ADD10R,1.700000X1.700000*%
%TD*%
%TA.AperFunction,ComponentPad*%
%ADD11C,1.700000*%
%TD*%
%TA.AperFunction,ComponentPad*%
%ADD12C,5.500000*%
%TD*%
%TA.AperFunction,ComponentPad*%
%ADD13R,0.850000X0.850000*%
%TD*%
%TA.AperFunction,ComponentPad*%
%ADD14C,0.850000*%
%TD*%
%TA.AperFunction,ComponentPad*%
%ADD15O,2.100000X1.000000*%
%TD*%
%TA.AperFunction,ComponentPad*%
%ADD16O,1.800000X1.000000*%
%TD*%
%TA.AperFunction,ViaPad*%
%ADD17C,0.500000*%
%TD*%
%TA.AperFunction,ViaPad*%
%ADD18C,0.400000*%
%TD*%
%TA.AperFunction,ViaPad*%
%ADD19C,0.600000*%
%TD*%
G04 APERTURE END LIST*
D10*
%TO.N,GNDREF*%
%TO.C,J5*%
X151250000Y-92000000D03*
D11*
%TO.N,/GPS_TX*%
X151250000Y-94540000D03*
%TO.N,/GPS_RX*%
X151250000Y-97080000D03*
%TO.N,+5V*%
X151250000Y-99620000D03*
%TD*%
D10*
%TO.N,GNDREF*%
%TO.C,J3*%
X160880000Y-128000000D03*
D11*
%TO.N,/VTX_TX*%
X163420000Y-128000000D03*
%TO.N,/VTX_RX*%
X165960000Y-128000000D03*
%TO.N,+9V*%
X168500000Y-128000000D03*
%TD*%
D10*
%TO.N,GNDREF*%
%TO.C,J4*%
X151250000Y-111000000D03*
D11*
%TO.N,/TRANSCEIVER_TX*%
X151250000Y-113540000D03*
%TO.N,/TRANSCEIVER_RX*%
X151250000Y-116080000D03*
%TO.N,+5V*%
X151250000Y-118620000D03*
%TD*%
D12*
%TO.N,*%
%TO.C,REF\u002A\u002A*%
X189750000Y-120250000D03*
%TD*%
%TO.N,*%
%TO.C,REF\u002A\u002A*%
X159250000Y-89750000D03*
%TD*%
%TO.N,*%
%TO.C,REF\u002A\u002A*%
X159250000Y-120250000D03*
%TD*%
D13*
%TO.N,GNDREF*%
%TO.C,J1*%
X193500000Y-102250000D03*
D14*
%TO.N,/JTAG_SWCLK*%
X193500000Y-103250000D03*
%TO.N,/JTAG_SWDIO*%
X193500000Y-104250000D03*
%TD*%
D12*
%TO.N,*%
%TO.C,REF\u002A\u002A*%
X189750000Y-89750000D03*
%TD*%
D15*
%TO.N,GNDREF*%
%TO.C,J6*%
X192482500Y-115820000D03*
X192482500Y-107180000D03*
D16*
X196662500Y-115820000D03*
X196662500Y-107180000D03*
%TD*%
D17*
%TO.N,+3.3V*%
X170850000Y-106200000D03*
X187650000Y-95300000D03*
D18*
X158750000Y-115100000D03*
X167450000Y-100600000D03*
D17*
X183450000Y-112900000D03*
D18*
X176650000Y-112900000D03*
D17*
X180650000Y-93600000D03*
X184150000Y-115900000D03*
X174513909Y-118263909D03*
D18*
X170550000Y-115300000D03*
X170250000Y-111000000D03*
X175250000Y-92200000D03*
X188150000Y-102500000D03*
X167950110Y-117501685D03*
D17*
X164850000Y-87400000D03*
D18*
%TO.N,GNDREF*%
X172093722Y-111618610D03*
X184297235Y-111471365D03*
X169603245Y-106089198D03*
X173914779Y-102286424D03*
X198113794Y-127590761D03*
X174287852Y-96860528D03*
X166650000Y-115100000D03*
X174321402Y-110798846D03*
X177765277Y-107560855D03*
X181930646Y-104398435D03*
X174241829Y-91951021D03*
X197224771Y-128529174D03*
X151884217Y-128422887D03*
X154269998Y-109860002D03*
X182466875Y-117706020D03*
X150781709Y-82359765D03*
X160028624Y-100051574D03*
X197261587Y-81310977D03*
X174118961Y-115605162D03*
X181750000Y-111100000D03*
X167601259Y-98437911D03*
X198200000Y-82200000D03*
X150945804Y-127533864D03*
X180982462Y-99177736D03*
X180806316Y-104839451D03*
X168950000Y-97400000D03*
X165050000Y-112600000D03*
X175759285Y-114497678D03*
X181547594Y-115204811D03*
X179903619Y-93036362D03*
X151670732Y-81421352D03*
X182844413Y-123989163D03*
%TO.N,VBAT*%
X183150000Y-119100000D03*
D17*
X185750000Y-126500000D03*
D18*
X177000000Y-86750000D03*
D17*
X162250000Y-98000000D03*
D18*
X154350000Y-101200000D03*
%TO.N,/ICM_INT1*%
X184050000Y-110800000D03*
X181950000Y-117400000D03*
%TO.N,+5VBAT*%
X190350000Y-106400000D03*
X162250000Y-109500000D03*
%TO.N,/BMP_SCLK*%
X173750000Y-114300000D03*
X174150000Y-110000000D03*
%TO.N,/BOOT*%
X173500000Y-92250000D03*
X180500000Y-98500000D03*
%TO.N,/BMP_SDI*%
X177150000Y-107500000D03*
X175250000Y-114000000D03*
%TO.N,+5V*%
X164550110Y-123401685D03*
D17*
X188050000Y-114800000D03*
D18*
X186750000Y-109000000D03*
X197950000Y-97600000D03*
X170550000Y-123300000D03*
%TO.N,Net-(U2-FB)*%
X159500000Y-100500000D03*
X154750000Y-109500000D03*
%TO.N,Net-(U4-FB)*%
X173648970Y-122483732D03*
X183599998Y-123934715D03*
%TO.N,/FLASH_SCLK*%
X165750000Y-112250000D03*
X166750000Y-114500000D03*
D19*
%TO.N,/ICM_MISO*%
X181000000Y-115750000D03*
X181750000Y-110250000D03*
D18*
%TO.N,/VTX_RX*%
X182313188Y-104936812D03*
%TO.N,/VTX_TX*%
X181250000Y-105250000D03*
%TO.N,/GPS_RX*%
X168249059Y-98382122D03*
X173150000Y-102600000D03*
%TO.N,/GPS_TX*%
X173950000Y-101600000D03*
X168728554Y-98021446D03*
%TD*%
%TA.AperFunction,Conductor*%
%TO.N,+3.3V*%
G36*
X188693039Y-86119685D02*
G01*
X188738794Y-86172489D01*
X188750000Y-86224000D01*
X188750000Y-86886016D01*
X188730315Y-86953055D01*
X188677511Y-86998810D01*
X188666955Y-87003057D01*
X188619119Y-87019795D01*
X188619105Y-87019801D01*
X188320541Y-87163582D01*
X188039941Y-87339895D01*
X187780847Y-87546515D01*
X187546515Y-87780847D01*
X187339895Y-88039941D01*
X187163582Y-88320541D01*
X187019799Y-88619109D01*
X186910349Y-88931898D01*
X186910346Y-88931906D01*
X186836604Y-89254994D01*
X186836601Y-89255008D01*
X186799500Y-89584296D01*
X186799500Y-89915703D01*
X186836601Y-90244991D01*
X186836604Y-90245005D01*
X186910346Y-90568093D01*
X186910349Y-90568101D01*
X187019799Y-90880890D01*
X187163582Y-91179458D01*
X187207663Y-91249612D01*
X187339896Y-91460060D01*
X187546516Y-91719153D01*
X187780847Y-91953484D01*
X188039940Y-92160104D01*
X188320539Y-92336416D01*
X188619113Y-92480202D01*
X188666954Y-92496942D01*
X188723730Y-92537663D01*
X188749478Y-92602616D01*
X188750000Y-92613984D01*
X188750000Y-106776000D01*
X188730315Y-106843039D01*
X188677511Y-106888794D01*
X188626000Y-106900000D01*
X185750000Y-106900000D01*
X185750000Y-121676000D01*
X185730315Y-121743039D01*
X185677511Y-121788794D01*
X185626000Y-121800000D01*
X175550000Y-121800000D01*
X163350000Y-121800000D01*
X161975713Y-121800000D01*
X161908674Y-121780315D01*
X161862919Y-121727511D01*
X161852975Y-121658353D01*
X161863993Y-121622198D01*
X161920602Y-121504645D01*
X161980202Y-121380887D01*
X162089654Y-121068090D01*
X162163396Y-120745006D01*
X162200500Y-120415697D01*
X162200500Y-120084303D01*
X162163396Y-119754994D01*
X162089654Y-119431910D01*
X162085654Y-119420480D01*
X162037531Y-119282950D01*
X161980202Y-119119113D01*
X161980199Y-119119108D01*
X161980197Y-119119101D01*
X161967602Y-119092947D01*
X161945606Y-119047273D01*
X182749500Y-119047273D01*
X182749500Y-119152727D01*
X182776793Y-119254587D01*
X182829520Y-119345913D01*
X182904087Y-119420480D01*
X182995413Y-119473207D01*
X183097273Y-119500500D01*
X183097275Y-119500500D01*
X183202725Y-119500500D01*
X183202727Y-119500500D01*
X183304587Y-119473207D01*
X183395913Y-119420480D01*
X183470480Y-119345913D01*
X183523207Y-119254587D01*
X183550500Y-119152727D01*
X183550500Y-119047273D01*
X183523207Y-118945413D01*
X183470480Y-118854087D01*
X183395913Y-118779520D01*
X183304587Y-118726793D01*
X183202727Y-118699500D01*
X183097273Y-118699500D01*
X182995413Y-118726793D01*
X182995410Y-118726794D01*
X182904085Y-118779521D01*
X182829521Y-118854085D01*
X182776794Y-118945410D01*
X182776793Y-118945413D01*
X182749500Y-119047273D01*
X161945606Y-119047273D01*
X161836417Y-118820541D01*
X161836416Y-118820539D01*
X161660104Y-118539940D01*
X161453484Y-118280847D01*
X161219153Y-118046516D01*
X160960060Y-117839896D01*
X160679461Y-117663584D01*
X160679458Y-117663582D01*
X160380890Y-117519799D01*
X160199098Y-117456187D01*
X160068101Y-117410349D01*
X160068093Y-117410346D01*
X159813393Y-117352213D01*
X159791750Y-117347273D01*
X181549500Y-117347273D01*
X181549500Y-117452727D01*
X181576793Y-117554587D01*
X181629520Y-117645913D01*
X181704087Y-117720480D01*
X181795413Y-117773207D01*
X181897273Y-117800500D01*
X181897275Y-117800500D01*
X181987373Y-117800500D01*
X182054412Y-117820185D01*
X182094759Y-117862499D01*
X182146395Y-117951933D01*
X182220962Y-118026500D01*
X182312288Y-118079227D01*
X182414148Y-118106520D01*
X182414150Y-118106520D01*
X182519600Y-118106520D01*
X182519602Y-118106520D01*
X182621462Y-118079227D01*
X182712788Y-118026500D01*
X182787355Y-117951933D01*
X182840082Y-117860607D01*
X182867375Y-117758747D01*
X182867375Y-117653293D01*
X182840082Y-117551433D01*
X182787355Y-117460107D01*
X182712788Y-117385540D01*
X182621462Y-117332813D01*
X182519602Y-117305520D01*
X182429501Y-117305520D01*
X182362462Y-117285835D01*
X182322114Y-117243520D01*
X182320151Y-117240120D01*
X182270480Y-117154087D01*
X182195913Y-117079520D01*
X182104587Y-117026793D01*
X182002727Y-116999500D01*
X181897273Y-116999500D01*
X181795413Y-117026793D01*
X181795410Y-117026794D01*
X181704085Y-117079521D01*
X181629521Y-117154085D01*
X181576794Y-117245410D01*
X181576793Y-117245413D01*
X181549500Y-117347273D01*
X159791750Y-117347273D01*
X159745006Y-117336604D01*
X159745003Y-117336603D01*
X159744991Y-117336601D01*
X159415703Y-117299500D01*
X159415697Y-117299500D01*
X159084303Y-117299500D01*
X159084296Y-117299500D01*
X158755008Y-117336601D01*
X158754994Y-117336604D01*
X158431906Y-117410346D01*
X158431898Y-117410349D01*
X158119109Y-117519799D01*
X157820541Y-117663582D01*
X157539941Y-117839895D01*
X157280847Y-118046515D01*
X157046515Y-118280847D01*
X156839895Y-118539941D01*
X156663582Y-118820541D01*
X156519799Y-119119109D01*
X156410349Y-119431898D01*
X156410346Y-119431906D01*
X156336604Y-119754994D01*
X156336601Y-119755008D01*
X156299500Y-120084296D01*
X156299500Y-120415703D01*
X156336601Y-120744991D01*
X156336604Y-120745005D01*
X156410346Y-121068093D01*
X156410349Y-121068101D01*
X156519799Y-121380890D01*
X156636007Y-121622198D01*
X156647359Y-121691140D01*
X156619637Y-121755274D01*
X156561642Y-121794240D01*
X156524287Y-121800000D01*
X154574000Y-121800000D01*
X154506961Y-121780315D01*
X154461206Y-121727511D01*
X154450000Y-121676000D01*
X154450000Y-115552435D01*
X173718461Y-115552435D01*
X173718461Y-115657889D01*
X173745754Y-115759749D01*
X173798481Y-115851075D01*
X173873048Y-115925642D01*
X173964374Y-115978369D01*
X174066234Y-116005662D01*
X174066236Y-116005662D01*
X174171686Y-116005662D01*
X174171688Y-116005662D01*
X174273548Y-115978369D01*
X174364874Y-115925642D01*
X174439441Y-115851075D01*
X174492168Y-115759749D01*
X174512436Y-115684108D01*
X180499500Y-115684108D01*
X180499500Y-115815892D01*
X180513666Y-115868760D01*
X180533608Y-115943187D01*
X180553920Y-115978367D01*
X180599500Y-116057314D01*
X180692686Y-116150500D01*
X180806814Y-116216392D01*
X180934108Y-116250500D01*
X180934110Y-116250500D01*
X181065890Y-116250500D01*
X181065892Y-116250500D01*
X181193186Y-116216392D01*
X181307314Y-116150500D01*
X181400500Y-116057314D01*
X181466392Y-115943186D01*
X181500500Y-115815892D01*
X181500500Y-115727197D01*
X181520185Y-115660158D01*
X181572989Y-115614403D01*
X181592835Y-115608773D01*
X181592471Y-115607414D01*
X181600319Y-115605311D01*
X181600321Y-115605311D01*
X181702181Y-115578018D01*
X181793507Y-115525291D01*
X181868074Y-115450724D01*
X181920801Y-115359398D01*
X181948094Y-115257538D01*
X181948094Y-115152084D01*
X181920801Y-115050224D01*
X181868074Y-114958898D01*
X181793507Y-114884331D01*
X181702181Y-114831604D01*
X181600321Y-114804311D01*
X181494867Y-114804311D01*
X181393007Y-114831604D01*
X181393004Y-114831605D01*
X181301679Y-114884332D01*
X181227115Y-114958896D01*
X181174388Y-115050221D01*
X181174387Y-115050224D01*
X181145618Y-115157593D01*
X181109253Y-115217254D01*
X181046406Y-115247783D01*
X181025843Y-115249500D01*
X180934108Y-115249500D01*
X180806812Y-115283608D01*
X180692686Y-115349500D01*
X180692683Y-115349502D01*
X180599502Y-115442683D01*
X180599500Y-115442686D01*
X180533608Y-115556812D01*
X180506525Y-115657889D01*
X180499500Y-115684108D01*
X174512436Y-115684108D01*
X174519461Y-115657889D01*
X174519461Y-115552435D01*
X174492168Y-115450575D01*
X174439441Y-115359249D01*
X174364874Y-115284682D01*
X174298020Y-115246084D01*
X174273550Y-115231956D01*
X174273549Y-115231955D01*
X174273548Y-115231955D01*
X174171688Y-115204662D01*
X174066234Y-115204662D01*
X173964374Y-115231955D01*
X173964371Y-115231956D01*
X173873046Y-115284683D01*
X173798482Y-115359247D01*
X173745755Y-115450572D01*
X173745754Y-115450575D01*
X173718461Y-115552435D01*
X154450000Y-115552435D01*
X154450000Y-115047273D01*
X166249500Y-115047273D01*
X166249500Y-115152727D01*
X166272764Y-115239548D01*
X166276793Y-115254586D01*
X166276794Y-115254589D01*
X166278496Y-115257537D01*
X166329520Y-115345913D01*
X166404087Y-115420480D01*
X166495413Y-115473207D01*
X166597273Y-115500500D01*
X166597275Y-115500500D01*
X166702725Y-115500500D01*
X166702727Y-115500500D01*
X166804587Y-115473207D01*
X166895913Y-115420480D01*
X166970480Y-115345913D01*
X167023207Y-115254587D01*
X167050500Y-115152727D01*
X167050500Y-115047273D01*
X167023207Y-114945413D01*
X167015060Y-114931303D01*
X166998589Y-114863404D01*
X167021442Y-114797377D01*
X167034763Y-114781629D01*
X167070480Y-114745913D01*
X167123207Y-114654587D01*
X167150500Y-114552727D01*
X167150500Y-114447273D01*
X167123207Y-114345413D01*
X167070480Y-114254087D01*
X167063666Y-114247273D01*
X173349500Y-114247273D01*
X173349500Y-114352727D01*
X173376793Y-114454587D01*
X173429520Y-114545913D01*
X173504087Y-114620480D01*
X173595413Y-114673207D01*
X173697273Y-114700500D01*
X173697275Y-114700500D01*
X173802725Y-114700500D01*
X173802727Y-114700500D01*
X173904587Y-114673207D01*
X173995913Y-114620480D01*
X174070480Y-114545913D01*
X174123207Y-114454587D01*
X174150500Y-114352727D01*
X174150500Y-114247273D01*
X174123207Y-114145413D01*
X174070480Y-114054087D01*
X173995913Y-113979520D01*
X173940059Y-113947273D01*
X174849500Y-113947273D01*
X174849500Y-114052727D01*
X174876793Y-114154587D01*
X174929520Y-114245913D01*
X175004087Y-114320480D01*
X175095413Y-114373207D01*
X175197273Y-114400500D01*
X175197275Y-114400500D01*
X175234785Y-114400500D01*
X175301824Y-114420185D01*
X175347579Y-114472989D01*
X175358785Y-114524500D01*
X175358785Y-114550405D01*
X175377562Y-114620480D01*
X175386078Y-114652264D01*
X175386079Y-114652267D01*
X175387420Y-114654589D01*
X175438805Y-114743591D01*
X175513372Y-114818158D01*
X175604698Y-114870885D01*
X175706558Y-114898178D01*
X175706560Y-114898178D01*
X175812010Y-114898178D01*
X175812012Y-114898178D01*
X175913872Y-114870885D01*
X176005198Y-114818158D01*
X176079765Y-114743591D01*
X176132492Y-114652265D01*
X176159785Y-114550405D01*
X176159785Y-114444951D01*
X176132492Y-114343091D01*
X176079765Y-114251765D01*
X176005198Y-114177198D01*
X175913872Y-114124471D01*
X175812012Y-114097178D01*
X175774500Y-114097178D01*
X175707461Y-114077493D01*
X175661706Y-114024689D01*
X175650500Y-113973178D01*
X175650500Y-113947275D01*
X175650500Y-113947273D01*
X175623207Y-113845413D01*
X175570480Y-113754087D01*
X175495913Y-113679520D01*
X175404587Y-113626793D01*
X175302727Y-113599500D01*
X175197273Y-113599500D01*
X175095413Y-113626793D01*
X175095410Y-113626794D01*
X175004085Y-113679521D01*
X174929521Y-113754085D01*
X174876794Y-113845410D01*
X174876793Y-113845413D01*
X174849500Y-113947273D01*
X173940059Y-113947273D01*
X173904587Y-113926793D01*
X173802727Y-113899500D01*
X173697273Y-113899500D01*
X173595413Y-113926793D01*
X173595410Y-113926794D01*
X173504085Y-113979521D01*
X173429521Y-114054085D01*
X173376794Y-114145410D01*
X173376793Y-114145413D01*
X173349500Y-114247273D01*
X167063666Y-114247273D01*
X166995913Y-114179520D01*
X166904587Y-114126793D01*
X166802727Y-114099500D01*
X166697273Y-114099500D01*
X166595413Y-114126793D01*
X166595410Y-114126794D01*
X166504085Y-114179521D01*
X166429521Y-114254085D01*
X166376794Y-114345410D01*
X166376793Y-114345413D01*
X166349500Y-114447273D01*
X166349500Y-114552727D01*
X166376172Y-114652267D01*
X166376793Y-114654586D01*
X166376794Y-114654589D01*
X166384937Y-114668693D01*
X166401410Y-114736593D01*
X166378557Y-114802620D01*
X166365233Y-114818372D01*
X166329521Y-114854084D01*
X166276794Y-114945410D01*
X166276793Y-114945413D01*
X166249500Y-115047273D01*
X154450000Y-115047273D01*
X154450000Y-112547273D01*
X164649500Y-112547273D01*
X164649500Y-112652727D01*
X164676793Y-112754587D01*
X164729520Y-112845913D01*
X164804087Y-112920480D01*
X164895413Y-112973207D01*
X164997273Y-113000500D01*
X164997275Y-113000500D01*
X165102725Y-113000500D01*
X165102727Y-113000500D01*
X165204587Y-112973207D01*
X165295913Y-112920480D01*
X165370480Y-112845913D01*
X165423207Y-112754587D01*
X165435501Y-112708702D01*
X165471864Y-112649044D01*
X165534710Y-112618514D01*
X165586655Y-112624485D01*
X165587562Y-112621103D01*
X165595411Y-112623206D01*
X165595413Y-112623207D01*
X165697273Y-112650500D01*
X165697275Y-112650500D01*
X165802725Y-112650500D01*
X165802727Y-112650500D01*
X165904587Y-112623207D01*
X165995913Y-112570480D01*
X166070480Y-112495913D01*
X166123207Y-112404587D01*
X166150500Y-112302727D01*
X166150500Y-112197273D01*
X166123207Y-112095413D01*
X166070480Y-112004087D01*
X165995913Y-111929520D01*
X165904587Y-111876793D01*
X165802727Y-111849500D01*
X165697273Y-111849500D01*
X165595413Y-111876793D01*
X165595410Y-111876794D01*
X165504085Y-111929521D01*
X165429521Y-112004085D01*
X165376794Y-112095410D01*
X165376793Y-112095411D01*
X165364499Y-112141296D01*
X165328133Y-112200956D01*
X165265286Y-112231485D01*
X165213326Y-112225579D01*
X165212438Y-112228897D01*
X165204588Y-112226793D01*
X165204587Y-112226793D01*
X165102727Y-112199500D01*
X164997273Y-112199500D01*
X164895413Y-112226793D01*
X164895410Y-112226794D01*
X164804085Y-112279521D01*
X164729521Y-112354085D01*
X164676794Y-112445410D01*
X164676793Y-112445413D01*
X164649500Y-112547273D01*
X154450000Y-112547273D01*
X154450000Y-111565883D01*
X171693222Y-111565883D01*
X171693222Y-111671337D01*
X171720515Y-111773197D01*
X171773242Y-111864523D01*
X171847809Y-111939090D01*
X171939135Y-111991817D01*
X172040995Y-112019110D01*
X172040997Y-112019110D01*
X172146447Y-112019110D01*
X172146449Y-112019110D01*
X172248309Y-111991817D01*
X172339635Y-111939090D01*
X172414202Y-111864523D01*
X172466929Y-111773197D01*
X172494222Y-111671337D01*
X172494222Y-111565883D01*
X172466929Y-111464023D01*
X172414202Y-111372697D01*
X172339635Y-111298130D01*
X172264216Y-111254587D01*
X172248311Y-111245404D01*
X172248310Y-111245403D01*
X172248309Y-111245403D01*
X172146449Y-111218110D01*
X172040995Y-111218110D01*
X171939135Y-111245403D01*
X171939132Y-111245404D01*
X171847807Y-111298131D01*
X171773243Y-111372695D01*
X171720516Y-111464020D01*
X171720515Y-111464023D01*
X171693222Y-111565883D01*
X154450000Y-111565883D01*
X154450000Y-111324000D01*
X154469685Y-111256961D01*
X154522489Y-111211206D01*
X154574000Y-111200000D01*
X163350000Y-111200000D01*
X163350000Y-109947273D01*
X173749500Y-109947273D01*
X173749500Y-110052727D01*
X173776793Y-110154587D01*
X173829520Y-110245913D01*
X173904087Y-110320480D01*
X173972900Y-110360209D01*
X174021113Y-110410773D01*
X174034337Y-110479380D01*
X174008369Y-110544245D01*
X174002602Y-110550743D01*
X174000924Y-110552929D01*
X173948196Y-110644256D01*
X173948195Y-110644259D01*
X173920902Y-110746119D01*
X173920902Y-110851573D01*
X173948195Y-110953433D01*
X174000922Y-111044759D01*
X174075489Y-111119326D01*
X174166815Y-111172053D01*
X174268675Y-111199346D01*
X174268677Y-111199346D01*
X174374127Y-111199346D01*
X174374129Y-111199346D01*
X174475989Y-111172053D01*
X174567315Y-111119326D01*
X174641882Y-111044759D01*
X174694609Y-110953433D01*
X174721902Y-110851573D01*
X174721902Y-110746119D01*
X174694609Y-110644259D01*
X174641882Y-110552933D01*
X174567315Y-110478366D01*
X174498501Y-110438636D01*
X174450287Y-110388071D01*
X174437064Y-110319464D01*
X174451836Y-110271522D01*
X174460336Y-110256056D01*
X174470480Y-110245913D01*
X174506163Y-110184108D01*
X181249500Y-110184108D01*
X181249500Y-110315892D01*
X181261374Y-110360207D01*
X181283608Y-110443187D01*
X181304585Y-110479520D01*
X181349500Y-110557314D01*
X181349502Y-110557316D01*
X181448433Y-110656247D01*
X181446407Y-110658272D01*
X181479449Y-110703502D01*
X181483619Y-110773247D01*
X181450452Y-110833155D01*
X181429520Y-110854087D01*
X181376794Y-110945410D01*
X181376793Y-110945413D01*
X181349500Y-111047273D01*
X181349500Y-111152727D01*
X181374333Y-111245404D01*
X181376793Y-111254586D01*
X181376794Y-111254589D01*
X181390917Y-111279050D01*
X181429520Y-111345913D01*
X181504087Y-111420480D01*
X181595413Y-111473207D01*
X181697273Y-111500500D01*
X181697275Y-111500500D01*
X181802725Y-111500500D01*
X181802727Y-111500500D01*
X181904587Y-111473207D01*
X181995913Y-111420480D01*
X182070480Y-111345913D01*
X182123207Y-111254587D01*
X182150500Y-111152727D01*
X182150500Y-111047273D01*
X182123207Y-110945413D01*
X182070480Y-110854087D01*
X182049548Y-110833155D01*
X182044143Y-110823257D01*
X182035363Y-110816179D01*
X182027699Y-110793140D01*
X182016064Y-110771833D01*
X182016868Y-110760583D01*
X182013308Y-110749881D01*
X182013974Y-110747273D01*
X183649500Y-110747273D01*
X183649500Y-110852727D01*
X183676485Y-110953435D01*
X183676793Y-110954586D01*
X183676794Y-110954589D01*
X183690016Y-110977490D01*
X183729520Y-111045913D01*
X183804087Y-111120480D01*
X183872322Y-111159875D01*
X183920537Y-111210443D01*
X183933759Y-111279050D01*
X183924886Y-111314706D01*
X183924029Y-111316775D01*
X183924028Y-111316777D01*
X183924028Y-111316778D01*
X183896735Y-111418638D01*
X183896735Y-111524092D01*
X183924028Y-111625952D01*
X183976755Y-111717278D01*
X184051322Y-111791845D01*
X184142648Y-111844572D01*
X184244508Y-111871865D01*
X184244510Y-111871865D01*
X184349960Y-111871865D01*
X184349962Y-111871865D01*
X184451822Y-111844572D01*
X184543148Y-111791845D01*
X184617715Y-111717278D01*
X184670442Y-111625952D01*
X184697735Y-111524092D01*
X184697735Y-111418638D01*
X184670442Y-111316778D01*
X184617715Y-111225452D01*
X184543148Y-111150885D01*
X184474912Y-111111488D01*
X184426697Y-111060921D01*
X184413475Y-110992314D01*
X184422354Y-110956644D01*
X184423201Y-110954597D01*
X184423207Y-110954587D01*
X184450500Y-110852727D01*
X184450500Y-110747273D01*
X184423207Y-110645413D01*
X184370480Y-110554087D01*
X184295913Y-110479520D01*
X184204587Y-110426793D01*
X184102727Y-110399500D01*
X183997273Y-110399500D01*
X183895413Y-110426793D01*
X183895410Y-110426794D01*
X183804085Y-110479521D01*
X183729521Y-110554085D01*
X183676794Y-110645410D01*
X183676793Y-110645413D01*
X183649500Y-110747273D01*
X182013974Y-110747273D01*
X182019316Y-110726356D01*
X182021048Y-110702141D01*
X182028255Y-110691356D01*
X182030598Y-110682185D01*
X182045899Y-110664956D01*
X182049735Y-110659215D01*
X182050317Y-110657943D01*
X182051271Y-110656918D01*
X182051658Y-110656338D01*
X182051567Y-110656247D01*
X182052027Y-110655786D01*
X182052749Y-110654707D01*
X182057193Y-110650569D01*
X182057314Y-110650500D01*
X182150500Y-110557314D01*
X182216392Y-110443186D01*
X182250500Y-110315892D01*
X182250500Y-110184108D01*
X182216392Y-110056814D01*
X182150500Y-109942686D01*
X182057314Y-109849500D01*
X182000250Y-109816554D01*
X181943187Y-109783608D01*
X181879539Y-109766554D01*
X181815892Y-109749500D01*
X181684108Y-109749500D01*
X181556812Y-109783608D01*
X181442686Y-109849500D01*
X181442683Y-109849502D01*
X181349502Y-109942683D01*
X181349500Y-109942686D01*
X181283608Y-110056812D01*
X181257299Y-110155000D01*
X181249500Y-110184108D01*
X174506163Y-110184108D01*
X174523207Y-110154587D01*
X174550500Y-110052727D01*
X174550500Y-109947273D01*
X174523207Y-109845413D01*
X174470480Y-109754087D01*
X174395913Y-109679520D01*
X174304587Y-109626793D01*
X174202727Y-109599500D01*
X174097273Y-109599500D01*
X173995413Y-109626793D01*
X173995410Y-109626794D01*
X173904085Y-109679521D01*
X173829521Y-109754085D01*
X173776794Y-109845410D01*
X173776793Y-109845413D01*
X173749500Y-109947273D01*
X163350000Y-109947273D01*
X163350000Y-107447273D01*
X176749500Y-107447273D01*
X176749500Y-107552727D01*
X176765806Y-107613580D01*
X176776793Y-107654586D01*
X176776794Y-107654589D01*
X176777596Y-107655978D01*
X176829520Y-107745913D01*
X176904087Y-107820480D01*
X176995413Y-107873207D01*
X177097273Y-107900500D01*
X177097275Y-107900500D01*
X177202725Y-107900500D01*
X177202727Y-107900500D01*
X177304587Y-107873207D01*
X177353198Y-107845141D01*
X177421095Y-107828669D01*
X177487122Y-107851521D01*
X177502877Y-107864848D01*
X177519364Y-107881335D01*
X177610690Y-107934062D01*
X177712550Y-107961355D01*
X177712552Y-107961355D01*
X177818002Y-107961355D01*
X177818004Y-107961355D01*
X177919864Y-107934062D01*
X178011190Y-107881335D01*
X178085757Y-107806768D01*
X178138484Y-107715442D01*
X178165777Y-107613582D01*
X178165777Y-107508128D01*
X178138484Y-107406268D01*
X178085757Y-107314942D01*
X178011190Y-107240375D01*
X177919864Y-107187648D01*
X177818004Y-107160355D01*
X177712550Y-107160355D01*
X177610690Y-107187648D01*
X177610689Y-107187648D01*
X177562079Y-107215713D01*
X177494178Y-107232184D01*
X177428152Y-107209331D01*
X177412399Y-107196006D01*
X177395914Y-107179521D01*
X177395913Y-107179520D01*
X177304587Y-107126793D01*
X177202727Y-107099500D01*
X177097273Y-107099500D01*
X176995413Y-107126793D01*
X176995410Y-107126794D01*
X176904085Y-107179521D01*
X176829521Y-107254085D01*
X176776794Y-107345410D01*
X176776793Y-107345413D01*
X176749500Y-107447273D01*
X163350000Y-107447273D01*
X163350000Y-106036471D01*
X169202745Y-106036471D01*
X169202745Y-106141925D01*
X169230038Y-106243785D01*
X169282765Y-106335111D01*
X169357332Y-106409678D01*
X169448658Y-106462405D01*
X169550518Y-106489698D01*
X169550520Y-106489698D01*
X169655970Y-106489698D01*
X169655972Y-106489698D01*
X169757832Y-106462405D01*
X169849158Y-106409678D01*
X169923725Y-106335111D01*
X169976452Y-106243785D01*
X170003745Y-106141925D01*
X170003745Y-106036471D01*
X169976452Y-105934611D01*
X169923725Y-105843285D01*
X169849158Y-105768718D01*
X169757832Y-105715991D01*
X169655972Y-105688698D01*
X169550518Y-105688698D01*
X169448658Y-105715991D01*
X169448655Y-105715992D01*
X169357330Y-105768719D01*
X169282766Y-105843283D01*
X169230039Y-105934608D01*
X169230038Y-105934611D01*
X169202745Y-106036471D01*
X163350000Y-106036471D01*
X163350000Y-104786724D01*
X180405816Y-104786724D01*
X180405816Y-104892178D01*
X180433109Y-104994038D01*
X180485836Y-105085364D01*
X180560403Y-105159931D01*
X180651729Y-105212658D01*
X180753589Y-105239951D01*
X180753591Y-105239951D01*
X180761439Y-105242054D01*
X180761098Y-105243324D01*
X180817319Y-105268193D01*
X180855792Y-105326516D01*
X180857015Y-105330774D01*
X180876793Y-105404588D01*
X180876794Y-105404589D01*
X180929520Y-105495913D01*
X181004087Y-105570480D01*
X181095413Y-105623207D01*
X181197273Y-105650500D01*
X181197275Y-105650500D01*
X181302725Y-105650500D01*
X181302727Y-105650500D01*
X181404587Y-105623207D01*
X181495913Y-105570480D01*
X181570480Y-105495913D01*
X181623207Y-105404587D01*
X181650500Y-105302727D01*
X181650500Y-105197273D01*
X181623207Y-105095413D01*
X181570480Y-105004087D01*
X181495913Y-104929520D01*
X181404587Y-104876793D01*
X181302727Y-104849500D01*
X181302726Y-104849500D01*
X181294877Y-104847397D01*
X181295216Y-104846128D01*
X181238986Y-104821249D01*
X181200519Y-104762921D01*
X181199300Y-104758675D01*
X181179523Y-104684864D01*
X181126796Y-104593538D01*
X181052229Y-104518971D01*
X180960903Y-104466244D01*
X180859043Y-104438951D01*
X180753589Y-104438951D01*
X180651729Y-104466244D01*
X180651726Y-104466245D01*
X180560401Y-104518972D01*
X180485837Y-104593536D01*
X180433110Y-104684861D01*
X180433109Y-104684864D01*
X180405816Y-104786724D01*
X163350000Y-104786724D01*
X163350000Y-104345708D01*
X181530146Y-104345708D01*
X181530146Y-104451162D01*
X181557439Y-104553022D01*
X181610166Y-104644348D01*
X181684733Y-104718915D01*
X181776059Y-104771642D01*
X181820782Y-104783625D01*
X181880441Y-104819988D01*
X181910971Y-104882834D01*
X181912688Y-104903399D01*
X181912688Y-104989539D01*
X181939981Y-105091399D01*
X181992708Y-105182725D01*
X182067275Y-105257292D01*
X182158601Y-105310019D01*
X182260461Y-105337312D01*
X182260463Y-105337312D01*
X182365913Y-105337312D01*
X182365915Y-105337312D01*
X182467775Y-105310019D01*
X182559101Y-105257292D01*
X182633668Y-105182725D01*
X182686395Y-105091399D01*
X182713688Y-104989539D01*
X182713688Y-104884085D01*
X182686395Y-104782225D01*
X182633668Y-104690899D01*
X182559101Y-104616332D01*
X182467777Y-104563606D01*
X182467776Y-104563605D01*
X182448629Y-104558474D01*
X182423050Y-104551621D01*
X182363392Y-104515257D01*
X182332863Y-104452410D01*
X182331146Y-104431847D01*
X182331146Y-104345710D01*
X182331146Y-104345708D01*
X182303853Y-104243848D01*
X182251126Y-104152522D01*
X182176559Y-104077955D01*
X182085233Y-104025228D01*
X181983373Y-103997935D01*
X181877919Y-103997935D01*
X181776059Y-104025228D01*
X181776056Y-104025229D01*
X181684731Y-104077956D01*
X181610167Y-104152520D01*
X181557440Y-104243845D01*
X181557439Y-104243848D01*
X181530146Y-104345708D01*
X163350000Y-104345708D01*
X163350000Y-102547273D01*
X172749500Y-102547273D01*
X172749500Y-102652727D01*
X172776793Y-102754587D01*
X172829520Y-102845913D01*
X172904087Y-102920480D01*
X172995413Y-102973207D01*
X173097273Y-103000500D01*
X173097275Y-103000500D01*
X173202725Y-103000500D01*
X173202727Y-103000500D01*
X173304587Y-102973207D01*
X173395913Y-102920480D01*
X173470480Y-102845913D01*
X173523207Y-102754587D01*
X173535167Y-102709949D01*
X173571528Y-102650294D01*
X173634374Y-102619763D01*
X173703750Y-102628057D01*
X173716927Y-102634652D01*
X173760192Y-102659631D01*
X173862052Y-102686924D01*
X173862054Y-102686924D01*
X173967504Y-102686924D01*
X173967506Y-102686924D01*
X174069366Y-102659631D01*
X174160692Y-102606904D01*
X174235259Y-102532337D01*
X174287986Y-102441011D01*
X174315279Y-102339151D01*
X174315279Y-102233697D01*
X174287986Y-102131837D01*
X174235259Y-102040511D01*
X174235258Y-102040510D01*
X174232262Y-102036606D01*
X174207066Y-101971438D01*
X174221103Y-101902993D01*
X174242950Y-101873442D01*
X174270480Y-101845913D01*
X174323207Y-101754587D01*
X174350500Y-101652727D01*
X174350500Y-101547273D01*
X174323207Y-101445413D01*
X174270480Y-101354087D01*
X174195913Y-101279520D01*
X174104587Y-101226793D01*
X174002727Y-101199500D01*
X173897273Y-101199500D01*
X173795413Y-101226793D01*
X173795410Y-101226794D01*
X173704085Y-101279521D01*
X173629521Y-101354085D01*
X173576794Y-101445410D01*
X173576793Y-101445413D01*
X173549500Y-101547273D01*
X173549500Y-101652726D01*
X173576793Y-101754586D01*
X173576794Y-101754589D01*
X173629520Y-101845913D01*
X173632517Y-101849818D01*
X173657712Y-101914987D01*
X173643674Y-101983432D01*
X173621825Y-102012985D01*
X173594299Y-102040511D01*
X173541573Y-102131834D01*
X173541572Y-102131837D01*
X173529613Y-102176470D01*
X173493248Y-102236131D01*
X173430401Y-102266660D01*
X173361025Y-102258365D01*
X173347838Y-102251764D01*
X173304589Y-102226794D01*
X173304588Y-102226793D01*
X173304587Y-102226793D01*
X173202727Y-102199500D01*
X173097273Y-102199500D01*
X172995413Y-102226793D01*
X172995410Y-102226794D01*
X172904085Y-102279521D01*
X172829521Y-102354085D01*
X172776794Y-102445410D01*
X172776793Y-102445413D01*
X172749500Y-102547273D01*
X163350000Y-102547273D01*
X163350000Y-98385184D01*
X167200759Y-98385184D01*
X167200759Y-98490638D01*
X167228052Y-98592498D01*
X167280779Y-98683824D01*
X167355346Y-98758391D01*
X167446672Y-98811118D01*
X167548532Y-98838411D01*
X167548534Y-98838411D01*
X167653984Y-98838411D01*
X167653986Y-98838411D01*
X167755846Y-98811118D01*
X167847172Y-98758391D01*
X167872353Y-98733209D01*
X167933672Y-98699726D01*
X168003364Y-98704710D01*
X168022019Y-98713498D01*
X168094472Y-98755329D01*
X168196332Y-98782622D01*
X168196334Y-98782622D01*
X168301784Y-98782622D01*
X168301786Y-98782622D01*
X168403646Y-98755329D01*
X168494972Y-98702602D01*
X168569539Y-98628035D01*
X168622266Y-98536709D01*
X168628390Y-98513850D01*
X168664755Y-98454192D01*
X168678998Y-98447273D01*
X180099500Y-98447273D01*
X180099500Y-98552727D01*
X180126793Y-98654587D01*
X180179520Y-98745913D01*
X180254087Y-98820480D01*
X180345413Y-98873207D01*
X180447273Y-98900500D01*
X180447275Y-98900500D01*
X180480519Y-98900500D01*
X180547558Y-98920185D01*
X180593313Y-98972989D01*
X180603257Y-99042147D01*
X180600294Y-99056593D01*
X180581962Y-99125009D01*
X180581962Y-99230462D01*
X180609255Y-99332322D01*
X180609256Y-99332325D01*
X180620609Y-99351989D01*
X180661982Y-99423649D01*
X180736549Y-99498216D01*
X180827875Y-99550943D01*
X180929735Y-99578236D01*
X180929737Y-99578236D01*
X181035187Y-99578236D01*
X181035189Y-99578236D01*
X181137049Y-99550943D01*
X181228375Y-99498216D01*
X181302942Y-99423649D01*
X181355669Y-99332323D01*
X181382962Y-99230463D01*
X181382962Y-99125009D01*
X181355669Y-99023149D01*
X181302942Y-98931823D01*
X181228375Y-98857256D01*
X181137049Y-98804529D01*
X181035189Y-98777236D01*
X181001943Y-98777236D01*
X180934904Y-98757551D01*
X180889149Y-98704747D01*
X180879205Y-98635589D01*
X180882168Y-98621143D01*
X180900500Y-98552727D01*
X180900500Y-98447273D01*
X180873207Y-98345413D01*
X180820480Y-98254087D01*
X180745913Y-98179520D01*
X180654587Y-98126793D01*
X180552727Y-98099500D01*
X180447273Y-98099500D01*
X180345413Y-98126793D01*
X180345410Y-98126794D01*
X180254085Y-98179521D01*
X180179521Y-98254085D01*
X180126794Y-98345410D01*
X180126793Y-98345413D01*
X180099500Y-98447273D01*
X168678998Y-98447273D01*
X168727602Y-98423663D01*
X168748165Y-98421946D01*
X168781279Y-98421946D01*
X168781281Y-98421946D01*
X168883141Y-98394653D01*
X168974467Y-98341926D01*
X169049034Y-98267359D01*
X169101761Y-98176033D01*
X169129054Y-98074173D01*
X169129054Y-97968719D01*
X169105033Y-97879070D01*
X169106696Y-97809222D01*
X169145859Y-97751360D01*
X169162795Y-97739600D01*
X169195913Y-97720480D01*
X169270480Y-97645913D01*
X169323207Y-97554587D01*
X169350500Y-97452727D01*
X169350500Y-97347273D01*
X169323207Y-97245413D01*
X169270480Y-97154087D01*
X169195913Y-97079520D01*
X169104587Y-97026793D01*
X169002727Y-96999500D01*
X168897273Y-96999500D01*
X168795413Y-97026793D01*
X168795410Y-97026794D01*
X168704085Y-97079521D01*
X168629521Y-97154085D01*
X168576794Y-97245410D01*
X168576793Y-97245413D01*
X168549500Y-97347273D01*
X168549500Y-97452728D01*
X168573520Y-97542374D01*
X168571857Y-97612223D01*
X168532694Y-97670086D01*
X168515747Y-97681852D01*
X168482639Y-97700967D01*
X168408075Y-97775531D01*
X168355348Y-97866856D01*
X168355347Y-97866857D01*
X168352075Y-97879072D01*
X168349332Y-97889311D01*
X168349223Y-97889716D01*
X168312858Y-97949376D01*
X168250011Y-97979905D01*
X168229448Y-97981622D01*
X168196332Y-97981622D01*
X168094472Y-98008915D01*
X168094469Y-98008916D01*
X168003146Y-98061642D01*
X167977965Y-98086823D01*
X167916641Y-98120307D01*
X167846950Y-98115321D01*
X167828288Y-98106528D01*
X167755846Y-98064704D01*
X167653986Y-98037411D01*
X167548532Y-98037411D01*
X167446672Y-98064704D01*
X167446669Y-98064705D01*
X167355344Y-98117432D01*
X167280780Y-98191996D01*
X167228053Y-98283321D01*
X167228052Y-98283324D01*
X167200759Y-98385184D01*
X163350000Y-98385184D01*
X163350000Y-96807801D01*
X173887352Y-96807801D01*
X173887352Y-96913255D01*
X173914645Y-97015115D01*
X173967372Y-97106441D01*
X174041939Y-97181008D01*
X174133265Y-97233735D01*
X174235125Y-97261028D01*
X174235127Y-97261028D01*
X174340577Y-97261028D01*
X174340579Y-97261028D01*
X174442439Y-97233735D01*
X174533765Y-97181008D01*
X174608332Y-97106441D01*
X174661059Y-97015115D01*
X174688352Y-96913255D01*
X174688352Y-96807801D01*
X174661059Y-96705941D01*
X174608332Y-96614615D01*
X174533765Y-96540048D01*
X174442439Y-96487321D01*
X174340579Y-96460028D01*
X174235125Y-96460028D01*
X174133265Y-96487321D01*
X174133262Y-96487322D01*
X174041937Y-96540049D01*
X173967373Y-96614613D01*
X173914646Y-96705938D01*
X173914645Y-96705941D01*
X173887352Y-96807801D01*
X163350000Y-96807801D01*
X163350000Y-92983635D01*
X179503119Y-92983635D01*
X179503119Y-93089089D01*
X179530412Y-93190949D01*
X179583139Y-93282275D01*
X179657706Y-93356842D01*
X179749032Y-93409569D01*
X179850892Y-93436862D01*
X179850894Y-93436862D01*
X179956344Y-93436862D01*
X179956346Y-93436862D01*
X180058206Y-93409569D01*
X180149532Y-93356842D01*
X180224099Y-93282275D01*
X180276826Y-93190949D01*
X180304119Y-93089089D01*
X180304119Y-92983635D01*
X180276826Y-92881775D01*
X180224099Y-92790449D01*
X180149532Y-92715882D01*
X180082678Y-92677284D01*
X180058208Y-92663156D01*
X180058207Y-92663155D01*
X180058206Y-92663155D01*
X179956346Y-92635862D01*
X179850892Y-92635862D01*
X179749032Y-92663155D01*
X179749029Y-92663156D01*
X179657704Y-92715883D01*
X179583140Y-92790447D01*
X179530413Y-92881772D01*
X179530412Y-92881775D01*
X179503119Y-92983635D01*
X163350000Y-92983635D01*
X163350000Y-92197273D01*
X173099500Y-92197273D01*
X173099500Y-92302727D01*
X173126793Y-92404587D01*
X173179520Y-92495913D01*
X173254087Y-92570480D01*
X173345413Y-92623207D01*
X173447273Y-92650500D01*
X173447275Y-92650500D01*
X173552725Y-92650500D01*
X173552727Y-92650500D01*
X173654587Y-92623207D01*
X173745913Y-92570480D01*
X173820480Y-92495913D01*
X173873207Y-92404587D01*
X173878704Y-92384068D01*
X173915069Y-92324410D01*
X173977915Y-92293880D01*
X174047291Y-92302174D01*
X174060467Y-92308769D01*
X174087242Y-92324228D01*
X174189102Y-92351521D01*
X174189104Y-92351521D01*
X174294554Y-92351521D01*
X174294556Y-92351521D01*
X174396416Y-92324228D01*
X174487742Y-92271501D01*
X174562309Y-92196934D01*
X174615036Y-92105608D01*
X174642329Y-92003748D01*
X174642329Y-91898294D01*
X174615036Y-91796434D01*
X174562309Y-91705108D01*
X174487742Y-91630541D01*
X174396416Y-91577814D01*
X174294556Y-91550521D01*
X174189102Y-91550521D01*
X174087242Y-91577814D01*
X174087239Y-91577815D01*
X173995914Y-91630542D01*
X173921350Y-91705106D01*
X173868623Y-91796431D01*
X173868622Y-91796434D01*
X173863123Y-91816955D01*
X173826756Y-91876614D01*
X173763908Y-91907141D01*
X173694532Y-91898844D01*
X173681349Y-91892244D01*
X173654589Y-91876794D01*
X173654588Y-91876793D01*
X173654587Y-91876793D01*
X173552727Y-91849500D01*
X173447273Y-91849500D01*
X173345413Y-91876793D01*
X173345410Y-91876794D01*
X173254085Y-91929521D01*
X173179521Y-92004085D01*
X173126794Y-92095410D01*
X173126793Y-92095413D01*
X173099500Y-92197273D01*
X163350000Y-92197273D01*
X163350000Y-86697273D01*
X176599500Y-86697273D01*
X176599500Y-86802727D01*
X176626793Y-86904587D01*
X176679520Y-86995913D01*
X176754087Y-87070480D01*
X176845413Y-87123207D01*
X176947273Y-87150500D01*
X176947275Y-87150500D01*
X177052725Y-87150500D01*
X177052727Y-87150500D01*
X177154587Y-87123207D01*
X177245913Y-87070480D01*
X177320480Y-86995913D01*
X177373207Y-86904587D01*
X177400500Y-86802727D01*
X177400500Y-86697273D01*
X177373207Y-86595413D01*
X177320480Y-86504087D01*
X177245913Y-86429520D01*
X177154587Y-86376793D01*
X177052727Y-86349500D01*
X176947273Y-86349500D01*
X176845413Y-86376793D01*
X176845410Y-86376794D01*
X176754085Y-86429521D01*
X176679521Y-86504085D01*
X176626794Y-86595410D01*
X176626793Y-86595413D01*
X176599500Y-86697273D01*
X163350000Y-86697273D01*
X163350000Y-86224000D01*
X163369685Y-86156961D01*
X163422489Y-86111206D01*
X163474000Y-86100000D01*
X188626000Y-86100000D01*
X188693039Y-86119685D01*
G37*
%TD.AperFunction*%
%TD*%
%TA.AperFunction,Conductor*%
%TO.N,+5VBAT*%
G36*
X196503736Y-80500726D02*
G01*
X196793796Y-80518271D01*
X196808659Y-80520076D01*
X197090798Y-80571780D01*
X197105335Y-80575363D01*
X197379172Y-80660695D01*
X197393163Y-80666000D01*
X197450919Y-80691993D01*
X197503973Y-80737457D01*
X197510973Y-80760822D01*
X197515060Y-80757912D01*
X197584850Y-80754589D01*
X197606499Y-80762015D01*
X197654743Y-80783727D01*
X197667989Y-80790680D01*
X197913465Y-80939075D01*
X197925776Y-80947573D01*
X198075740Y-81065062D01*
X198151573Y-81124473D01*
X198162781Y-81134403D01*
X198365596Y-81337218D01*
X198375526Y-81348426D01*
X198495481Y-81501538D01*
X198552422Y-81574217D01*
X198560928Y-81586540D01*
X198656258Y-81744236D01*
X198674094Y-81811791D01*
X198652576Y-81878265D01*
X198598536Y-81922552D01*
X198529130Y-81930593D01*
X198466395Y-81899834D01*
X198462460Y-81896067D01*
X198445914Y-81879521D01*
X198445913Y-81879520D01*
X198354587Y-81826793D01*
X198252727Y-81799500D01*
X198147273Y-81799500D01*
X198045413Y-81826793D01*
X198045410Y-81826794D01*
X197954085Y-81879521D01*
X197879521Y-81954085D01*
X197826794Y-82045410D01*
X197826793Y-82045413D01*
X197799500Y-82147273D01*
X197799500Y-82252727D01*
X197826793Y-82354587D01*
X197879520Y-82445913D01*
X197954087Y-82520480D01*
X198045413Y-82573207D01*
X198147273Y-82600500D01*
X198147275Y-82600500D01*
X198252725Y-82600500D01*
X198252727Y-82600500D01*
X198354587Y-82573207D01*
X198445913Y-82520480D01*
X198520480Y-82445913D01*
X198573207Y-82354587D01*
X198600500Y-82252727D01*
X198600500Y-82169206D01*
X198620185Y-82102167D01*
X198672989Y-82056412D01*
X198742147Y-82046468D01*
X198805703Y-82075493D01*
X198842885Y-82132316D01*
X198924635Y-82394663D01*
X198928219Y-82409201D01*
X198979923Y-82691340D01*
X198981728Y-82706205D01*
X198999274Y-82996263D01*
X198999500Y-83003750D01*
X198999500Y-95476000D01*
X198979815Y-95543039D01*
X198927011Y-95588794D01*
X198875500Y-95600000D01*
X196250000Y-95600000D01*
X196250000Y-106366498D01*
X196230315Y-106433537D01*
X196177511Y-106479292D01*
X196150192Y-106488115D01*
X196058177Y-106506418D01*
X196058167Y-106506421D01*
X195930695Y-106559221D01*
X195930682Y-106559228D01*
X195815958Y-106635885D01*
X195815954Y-106635888D01*
X195718388Y-106733454D01*
X195718385Y-106733458D01*
X195643928Y-106844891D01*
X195590316Y-106889696D01*
X195540826Y-106900000D01*
X193754174Y-106900000D01*
X193687135Y-106880315D01*
X193651072Y-106844891D01*
X193576614Y-106733458D01*
X193576611Y-106733454D01*
X193479045Y-106635888D01*
X193479041Y-106635885D01*
X193364317Y-106559228D01*
X193364304Y-106559221D01*
X193236832Y-106506421D01*
X193236822Y-106506418D01*
X193101495Y-106479500D01*
X193101493Y-106479500D01*
X191863507Y-106479500D01*
X191863505Y-106479500D01*
X191728177Y-106506418D01*
X191728167Y-106506421D01*
X191600695Y-106559221D01*
X191600682Y-106559228D01*
X191485958Y-106635885D01*
X191485954Y-106635888D01*
X191388388Y-106733454D01*
X191388385Y-106733458D01*
X191313928Y-106844891D01*
X191260316Y-106889696D01*
X191210826Y-106900000D01*
X189274000Y-106900000D01*
X189206961Y-106880315D01*
X189161206Y-106827511D01*
X189150000Y-106776000D01*
X189150000Y-102689822D01*
X192924499Y-102689822D01*
X192933231Y-102733717D01*
X192933234Y-102733724D01*
X192966495Y-102783503D01*
X192969732Y-102785666D01*
X193014538Y-102839278D01*
X193023247Y-102908602D01*
X193008230Y-102950769D01*
X192963720Y-103027861D01*
X192963720Y-103027862D01*
X192924500Y-103174234D01*
X192924500Y-103325765D01*
X192963719Y-103472136D01*
X193001602Y-103537750D01*
X193039485Y-103603365D01*
X193039487Y-103603367D01*
X193098439Y-103662319D01*
X193131924Y-103723642D01*
X193126940Y-103793334D01*
X193098439Y-103837681D01*
X193039487Y-103896632D01*
X193039485Y-103896635D01*
X192963719Y-104027863D01*
X192930318Y-104152522D01*
X192924500Y-104174234D01*
X192924500Y-104325766D01*
X192944109Y-104398950D01*
X192963719Y-104472136D01*
X192990760Y-104518971D01*
X193039485Y-104603365D01*
X193146635Y-104710515D01*
X193277865Y-104786281D01*
X193424234Y-104825500D01*
X193424236Y-104825500D01*
X193575764Y-104825500D01*
X193575766Y-104825500D01*
X193722135Y-104786281D01*
X193853365Y-104710515D01*
X193960515Y-104603365D01*
X194036281Y-104472135D01*
X194075500Y-104325766D01*
X194075500Y-104174234D01*
X194036281Y-104027865D01*
X193960515Y-103896635D01*
X193901561Y-103837681D01*
X193868076Y-103776358D01*
X193873060Y-103706666D01*
X193901561Y-103662319D01*
X193960515Y-103603365D01*
X194036281Y-103472135D01*
X194075500Y-103325766D01*
X194075500Y-103174234D01*
X194036281Y-103027865D01*
X193991770Y-102950770D01*
X193975296Y-102882870D01*
X193998148Y-102816843D01*
X194030267Y-102785666D01*
X194033504Y-102783504D01*
X194066767Y-102733722D01*
X194075500Y-102689820D01*
X194075500Y-101810180D01*
X194075500Y-101810177D01*
X194066768Y-101766282D01*
X194066767Y-101766281D01*
X194066767Y-101766278D01*
X194033504Y-101716496D01*
X194033503Y-101716495D01*
X193983724Y-101683234D01*
X193983717Y-101683231D01*
X193939822Y-101674500D01*
X193939820Y-101674500D01*
X193060180Y-101674500D01*
X193060178Y-101674500D01*
X193016282Y-101683231D01*
X193016275Y-101683234D01*
X192966496Y-101716495D01*
X192966495Y-101716496D01*
X192933234Y-101766275D01*
X192933231Y-101766282D01*
X192924500Y-101810177D01*
X192924500Y-101810180D01*
X192924500Y-102689820D01*
X192924500Y-102689822D01*
X192924499Y-102689822D01*
X189150000Y-102689822D01*
X189150000Y-92790322D01*
X189169685Y-92723283D01*
X189222489Y-92677528D01*
X189287884Y-92667102D01*
X189380420Y-92677528D01*
X189584299Y-92700499D01*
X189584300Y-92700500D01*
X189584303Y-92700500D01*
X189915700Y-92700500D01*
X189915701Y-92700499D01*
X190083996Y-92681537D01*
X190244991Y-92663398D01*
X190244994Y-92663397D01*
X190245006Y-92663396D01*
X190568090Y-92589654D01*
X190880887Y-92480202D01*
X191179461Y-92336416D01*
X191460060Y-92160104D01*
X191719153Y-91953484D01*
X191953484Y-91719153D01*
X192160104Y-91460060D01*
X192336416Y-91179461D01*
X192480202Y-90880887D01*
X192589654Y-90568090D01*
X192663396Y-90245006D01*
X192700500Y-89915697D01*
X192700500Y-89584303D01*
X192663396Y-89254994D01*
X192589654Y-88931910D01*
X192480202Y-88619113D01*
X192336416Y-88320539D01*
X192160104Y-88039940D01*
X191953484Y-87780847D01*
X191719153Y-87546516D01*
X191460060Y-87339896D01*
X191179461Y-87163584D01*
X191179458Y-87163582D01*
X190880890Y-87019799D01*
X190568101Y-86910349D01*
X190568093Y-86910346D01*
X190325777Y-86855039D01*
X190245006Y-86836604D01*
X190245003Y-86836603D01*
X190244991Y-86836601D01*
X189915703Y-86799500D01*
X189915697Y-86799500D01*
X189584303Y-86799500D01*
X189584296Y-86799500D01*
X189287883Y-86832897D01*
X189219061Y-86820842D01*
X189167682Y-86773493D01*
X189150000Y-86709677D01*
X189150000Y-85700000D01*
X162950000Y-85700000D01*
X162950000Y-110676000D01*
X162930315Y-110743039D01*
X162877511Y-110788794D01*
X162826000Y-110800000D01*
X154574000Y-110800000D01*
X154506961Y-110780315D01*
X154461206Y-110727511D01*
X154450000Y-110676000D01*
X154450000Y-110290127D01*
X154469685Y-110223088D01*
X154512003Y-110182738D01*
X154515911Y-110180482D01*
X154590478Y-110105915D01*
X154643205Y-110014589D01*
X154649148Y-109992407D01*
X154685512Y-109932747D01*
X154748359Y-109902217D01*
X154768923Y-109900500D01*
X154802725Y-109900500D01*
X154802727Y-109900500D01*
X154904587Y-109873207D01*
X154995913Y-109820480D01*
X155070480Y-109745913D01*
X155123207Y-109654587D01*
X155150500Y-109552727D01*
X155150500Y-109447273D01*
X155123207Y-109345413D01*
X155070480Y-109254087D01*
X154995913Y-109179520D01*
X154904587Y-109126793D01*
X154802727Y-109099500D01*
X154697273Y-109099500D01*
X154697271Y-109099500D01*
X154606092Y-109123931D01*
X154536243Y-109122268D01*
X154478380Y-109083105D01*
X154450877Y-109018876D01*
X154450000Y-109004156D01*
X154450000Y-101676314D01*
X154469685Y-101609275D01*
X154512000Y-101568927D01*
X154595913Y-101520480D01*
X154670480Y-101445913D01*
X154723207Y-101354587D01*
X154750500Y-101252727D01*
X154750500Y-101147273D01*
X154723207Y-101045413D01*
X154670480Y-100954087D01*
X154595913Y-100879520D01*
X154584975Y-100873205D01*
X154511999Y-100831071D01*
X154463784Y-100780504D01*
X154450000Y-100723685D01*
X154450000Y-100447273D01*
X159099500Y-100447273D01*
X159099500Y-100552727D01*
X159126793Y-100654587D01*
X159179520Y-100745913D01*
X159254087Y-100820480D01*
X159345413Y-100873207D01*
X159447273Y-100900500D01*
X159447275Y-100900500D01*
X159552725Y-100900500D01*
X159552727Y-100900500D01*
X159654587Y-100873207D01*
X159745913Y-100820480D01*
X159820480Y-100745913D01*
X159873207Y-100654587D01*
X159900500Y-100552727D01*
X159900500Y-100552725D01*
X159902603Y-100544877D01*
X159905816Y-100545737D01*
X159927827Y-100495988D01*
X159986153Y-100457519D01*
X160022496Y-100452074D01*
X160081349Y-100452074D01*
X160081351Y-100452074D01*
X160183211Y-100424781D01*
X160274537Y-100372054D01*
X160349104Y-100297487D01*
X160401831Y-100206161D01*
X160429124Y-100104301D01*
X160429124Y-99998847D01*
X160401831Y-99896987D01*
X160349104Y-99805661D01*
X160274537Y-99731094D01*
X160183211Y-99678367D01*
X160081351Y-99651074D01*
X159975897Y-99651074D01*
X159874037Y-99678367D01*
X159874034Y-99678368D01*
X159782709Y-99731095D01*
X159708145Y-99805659D01*
X159655418Y-99896984D01*
X159655417Y-99896987D01*
X159626021Y-100006697D01*
X159622807Y-100005836D01*
X159600797Y-100055586D01*
X159542471Y-100094055D01*
X159506128Y-100099500D01*
X159447273Y-100099500D01*
X159345413Y-100126793D01*
X159345410Y-100126794D01*
X159254085Y-100179521D01*
X159179521Y-100254085D01*
X159126794Y-100345410D01*
X159126793Y-100345413D01*
X159099500Y-100447273D01*
X154450000Y-100447273D01*
X154450000Y-97940691D01*
X161799500Y-97940691D01*
X161799500Y-98059309D01*
X161830201Y-98173886D01*
X161889511Y-98276613D01*
X161973387Y-98360489D01*
X162076114Y-98419799D01*
X162190691Y-98450500D01*
X162190694Y-98450500D01*
X162309306Y-98450500D01*
X162309309Y-98450500D01*
X162423886Y-98419799D01*
X162526613Y-98360489D01*
X162610489Y-98276613D01*
X162669799Y-98173886D01*
X162700500Y-98059309D01*
X162700500Y-97940691D01*
X162669799Y-97826114D01*
X162610489Y-97723387D01*
X162526613Y-97639511D01*
X162423886Y-97580201D01*
X162309309Y-97549500D01*
X162190691Y-97549500D01*
X162076114Y-97580201D01*
X162076112Y-97580201D01*
X162076112Y-97580202D01*
X161973387Y-97639511D01*
X161973384Y-97639513D01*
X161889513Y-97723384D01*
X161889511Y-97723387D01*
X161871498Y-97754587D01*
X161830201Y-97826114D01*
X161799500Y-97940691D01*
X154450000Y-97940691D01*
X154450000Y-89584296D01*
X156299500Y-89584296D01*
X156299500Y-89915703D01*
X156336601Y-90244991D01*
X156336604Y-90245005D01*
X156410346Y-90568093D01*
X156410349Y-90568101D01*
X156519799Y-90880890D01*
X156663582Y-91179458D01*
X156663584Y-91179461D01*
X156839896Y-91460060D01*
X157046516Y-91719153D01*
X157280847Y-91953484D01*
X157539940Y-92160104D01*
X157820539Y-92336416D01*
X158119113Y-92480202D01*
X158354037Y-92562405D01*
X158431898Y-92589650D01*
X158431906Y-92589653D01*
X158431909Y-92589653D01*
X158431910Y-92589654D01*
X158754994Y-92663396D01*
X158755003Y-92663397D01*
X158755008Y-92663398D01*
X158974533Y-92688132D01*
X159084297Y-92700499D01*
X159084300Y-92700500D01*
X159084303Y-92700500D01*
X159415700Y-92700500D01*
X159415701Y-92700499D01*
X159583996Y-92681537D01*
X159744991Y-92663398D01*
X159744994Y-92663397D01*
X159745006Y-92663396D01*
X160068090Y-92589654D01*
X160380887Y-92480202D01*
X160679461Y-92336416D01*
X160960060Y-92160104D01*
X161219153Y-91953484D01*
X161453484Y-91719153D01*
X161660104Y-91460060D01*
X161836416Y-91179461D01*
X161980202Y-90880887D01*
X162089654Y-90568090D01*
X162163396Y-90245006D01*
X162200500Y-89915697D01*
X162200500Y-89584303D01*
X162163396Y-89254994D01*
X162089654Y-88931910D01*
X161980202Y-88619113D01*
X161836416Y-88320539D01*
X161660104Y-88039940D01*
X161453484Y-87780847D01*
X161219153Y-87546516D01*
X160960060Y-87339896D01*
X160679461Y-87163584D01*
X160679458Y-87163582D01*
X160380890Y-87019799D01*
X160068101Y-86910349D01*
X160068093Y-86910346D01*
X159825777Y-86855039D01*
X159745006Y-86836604D01*
X159745003Y-86836603D01*
X159744991Y-86836601D01*
X159415703Y-86799500D01*
X159415697Y-86799500D01*
X159084303Y-86799500D01*
X159084296Y-86799500D01*
X158755008Y-86836601D01*
X158754994Y-86836604D01*
X158431906Y-86910346D01*
X158431898Y-86910349D01*
X158119109Y-87019799D01*
X157820541Y-87163582D01*
X157539941Y-87339895D01*
X157280847Y-87546515D01*
X157046515Y-87780847D01*
X156839895Y-88039941D01*
X156663582Y-88320541D01*
X156519799Y-88619109D01*
X156410349Y-88931898D01*
X156410346Y-88931906D01*
X156336604Y-89254994D01*
X156336601Y-89255008D01*
X156299500Y-89584296D01*
X154450000Y-89584296D01*
X154450000Y-81258250D01*
X196861087Y-81258250D01*
X196861087Y-81363704D01*
X196888380Y-81465564D01*
X196941107Y-81556890D01*
X197015674Y-81631457D01*
X197107000Y-81684184D01*
X197208860Y-81711477D01*
X197208862Y-81711477D01*
X197314312Y-81711477D01*
X197314314Y-81711477D01*
X197416174Y-81684184D01*
X197507500Y-81631457D01*
X197582067Y-81556890D01*
X197634794Y-81465564D01*
X197662087Y-81363704D01*
X197662087Y-81258250D01*
X197634794Y-81156390D01*
X197582067Y-81065064D01*
X197507500Y-80990497D01*
X197493611Y-80982478D01*
X197445397Y-80931911D01*
X197442901Y-80918961D01*
X197383055Y-80927902D01*
X197367935Y-80924844D01*
X197314315Y-80910477D01*
X197314314Y-80910477D01*
X197208860Y-80910477D01*
X197107000Y-80937770D01*
X197106997Y-80937771D01*
X197015672Y-80990498D01*
X196941108Y-81065062D01*
X196888381Y-81156387D01*
X196888380Y-81156390D01*
X196861087Y-81258250D01*
X154450000Y-81258250D01*
X154450000Y-80624500D01*
X154469685Y-80557461D01*
X154522489Y-80511706D01*
X154574000Y-80500500D01*
X196434108Y-80500500D01*
X196496249Y-80500500D01*
X196503736Y-80500726D01*
G37*
%TD.AperFunction*%
%TD*%
%TA.AperFunction,Conductor*%
%TO.N,+5V*%
G36*
X153993039Y-80520185D02*
G01*
X154038794Y-80572989D01*
X154050000Y-80624500D01*
X154050000Y-100885390D01*
X154033387Y-100947390D01*
X153976794Y-101045410D01*
X153976793Y-101045413D01*
X153949500Y-101147273D01*
X153949500Y-101252727D01*
X153976793Y-101354587D01*
X154029520Y-101445913D01*
X154029523Y-101445916D01*
X154033387Y-101452608D01*
X154050000Y-101514609D01*
X154050000Y-109462244D01*
X154030315Y-109529283D01*
X154013682Y-109549925D01*
X153949518Y-109614089D01*
X153896792Y-109705412D01*
X153896791Y-109705415D01*
X153869498Y-109807275D01*
X153869498Y-109912729D01*
X153896791Y-110014589D01*
X153946468Y-110100633D01*
X153949519Y-110105916D01*
X154013681Y-110170078D01*
X154047166Y-110231401D01*
X154050000Y-110257759D01*
X154050000Y-122200000D01*
X156976001Y-122200000D01*
X157043040Y-122219685D01*
X157063682Y-122236319D01*
X157280847Y-122453484D01*
X157539940Y-122660104D01*
X157820539Y-122836416D01*
X158119113Y-122980202D01*
X158354037Y-123062405D01*
X158431898Y-123089650D01*
X158431906Y-123089653D01*
X158431909Y-123089653D01*
X158431910Y-123089654D01*
X158754994Y-123163396D01*
X158755003Y-123163397D01*
X158755008Y-123163398D01*
X158974533Y-123188132D01*
X159084297Y-123200499D01*
X159084300Y-123200500D01*
X159084303Y-123200500D01*
X159415700Y-123200500D01*
X159415701Y-123200499D01*
X159583996Y-123181537D01*
X159744991Y-123163398D01*
X159744994Y-123163397D01*
X159745006Y-123163396D01*
X160068090Y-123089654D01*
X160380887Y-122980202D01*
X160679461Y-122836416D01*
X160960060Y-122660104D01*
X161219153Y-122453484D01*
X161436318Y-122236319D01*
X161497641Y-122202834D01*
X161523999Y-122200000D01*
X173148768Y-122200000D01*
X173215807Y-122219685D01*
X173261562Y-122272489D01*
X173271506Y-122341647D01*
X173268545Y-122356079D01*
X173248470Y-122431005D01*
X173248470Y-122536459D01*
X173275763Y-122638319D01*
X173328490Y-122729645D01*
X173403057Y-122804212D01*
X173494383Y-122856939D01*
X173596243Y-122884232D01*
X173596245Y-122884232D01*
X173701695Y-122884232D01*
X173701697Y-122884232D01*
X173803557Y-122856939D01*
X173894883Y-122804212D01*
X173969450Y-122729645D01*
X174022177Y-122638319D01*
X174049470Y-122536459D01*
X174049470Y-122431005D01*
X174029397Y-122356090D01*
X174031060Y-122286244D01*
X174070222Y-122228381D01*
X174134451Y-122200877D01*
X174149172Y-122200000D01*
X186050000Y-122200000D01*
X186050000Y-120084296D01*
X186799500Y-120084296D01*
X186799500Y-120415703D01*
X186836601Y-120744991D01*
X186836604Y-120745005D01*
X186910346Y-121068093D01*
X186910349Y-121068101D01*
X187019799Y-121380890D01*
X187163582Y-121679458D01*
X187163584Y-121679461D01*
X187339896Y-121960060D01*
X187546516Y-122219153D01*
X187780847Y-122453484D01*
X188039940Y-122660104D01*
X188320539Y-122836416D01*
X188619113Y-122980202D01*
X188854037Y-123062405D01*
X188931898Y-123089650D01*
X188931906Y-123089653D01*
X188931909Y-123089653D01*
X188931910Y-123089654D01*
X189254994Y-123163396D01*
X189255003Y-123163397D01*
X189255008Y-123163398D01*
X189474533Y-123188132D01*
X189584297Y-123200499D01*
X189584300Y-123200500D01*
X189584303Y-123200500D01*
X189915700Y-123200500D01*
X189915701Y-123200499D01*
X190083996Y-123181537D01*
X190244991Y-123163398D01*
X190244994Y-123163397D01*
X190245006Y-123163396D01*
X190568090Y-123089654D01*
X190880887Y-122980202D01*
X191179461Y-122836416D01*
X191460060Y-122660104D01*
X191719153Y-122453484D01*
X191953484Y-122219153D01*
X192160104Y-121960060D01*
X192336416Y-121679461D01*
X192480202Y-121380887D01*
X192589654Y-121068090D01*
X192663396Y-120745006D01*
X192700500Y-120415697D01*
X192700500Y-120084303D01*
X192683876Y-119936757D01*
X192663398Y-119755008D01*
X192663397Y-119755003D01*
X192663396Y-119754994D01*
X192589654Y-119431910D01*
X192585654Y-119420480D01*
X192527606Y-119254587D01*
X192480202Y-119119113D01*
X192336416Y-118820539D01*
X192160104Y-118539940D01*
X191953484Y-118280847D01*
X191719153Y-118046516D01*
X191460060Y-117839896D01*
X191179461Y-117663584D01*
X191179458Y-117663582D01*
X190880890Y-117519799D01*
X190568101Y-117410349D01*
X190568093Y-117410346D01*
X190325777Y-117355039D01*
X190245006Y-117336604D01*
X190245003Y-117336603D01*
X190244991Y-117336601D01*
X189915703Y-117299500D01*
X189915697Y-117299500D01*
X189584303Y-117299500D01*
X189584296Y-117299500D01*
X189255008Y-117336601D01*
X189254994Y-117336604D01*
X188931906Y-117410346D01*
X188931898Y-117410349D01*
X188619109Y-117519799D01*
X188320541Y-117663582D01*
X188039941Y-117839895D01*
X187780847Y-118046515D01*
X187546515Y-118280847D01*
X187339895Y-118539941D01*
X187163582Y-118820541D01*
X187019799Y-119119109D01*
X186910349Y-119431898D01*
X186910346Y-119431906D01*
X186836604Y-119754994D01*
X186836601Y-119755008D01*
X186799500Y-120084296D01*
X186050000Y-120084296D01*
X186050000Y-115888995D01*
X191231999Y-115888995D01*
X191258918Y-116024322D01*
X191258921Y-116024332D01*
X191311721Y-116151804D01*
X191311728Y-116151817D01*
X191388385Y-116266541D01*
X191388388Y-116266545D01*
X191485954Y-116364111D01*
X191485958Y-116364114D01*
X191600682Y-116440771D01*
X191600695Y-116440778D01*
X191728167Y-116493578D01*
X191728172Y-116493580D01*
X191728176Y-116493580D01*
X191728177Y-116493581D01*
X191863504Y-116520500D01*
X191863507Y-116520500D01*
X193101495Y-116520500D01*
X193192541Y-116502389D01*
X193236828Y-116493580D01*
X193364311Y-116440775D01*
X193479042Y-116364114D01*
X193576614Y-116266542D01*
X193653275Y-116151811D01*
X193706080Y-116024328D01*
X193733000Y-115888995D01*
X195561999Y-115888995D01*
X195588918Y-116024322D01*
X195588921Y-116024332D01*
X195641721Y-116151804D01*
X195641728Y-116151817D01*
X195718385Y-116266541D01*
X195718388Y-116266545D01*
X195815954Y-116364111D01*
X195815958Y-116364114D01*
X195930682Y-116440771D01*
X195930695Y-116440778D01*
X196058167Y-116493578D01*
X196058172Y-116493580D01*
X196058176Y-116493580D01*
X196058177Y-116493581D01*
X196193504Y-116520500D01*
X196193507Y-116520500D01*
X197131495Y-116520500D01*
X197222541Y-116502389D01*
X197266828Y-116493580D01*
X197394311Y-116440775D01*
X197509042Y-116364114D01*
X197606614Y-116266542D01*
X197683275Y-116151811D01*
X197736080Y-116024328D01*
X197763000Y-115888993D01*
X197763000Y-115751007D01*
X197763000Y-115751004D01*
X197736081Y-115615677D01*
X197736080Y-115615676D01*
X197736080Y-115615672D01*
X197720483Y-115578018D01*
X197683278Y-115488195D01*
X197683271Y-115488182D01*
X197606614Y-115373458D01*
X197606611Y-115373454D01*
X197509045Y-115275888D01*
X197509041Y-115275885D01*
X197394317Y-115199228D01*
X197394304Y-115199221D01*
X197266832Y-115146421D01*
X197266822Y-115146418D01*
X197131495Y-115119500D01*
X197131493Y-115119500D01*
X196193507Y-115119500D01*
X196193505Y-115119500D01*
X196058177Y-115146418D01*
X196058167Y-115146421D01*
X195930695Y-115199221D01*
X195930682Y-115199228D01*
X195815958Y-115275885D01*
X195815954Y-115275888D01*
X195718388Y-115373454D01*
X195718385Y-115373458D01*
X195641728Y-115488182D01*
X195641721Y-115488195D01*
X195588921Y-115615667D01*
X195588918Y-115615677D01*
X195562000Y-115751004D01*
X195562000Y-115751007D01*
X195562000Y-115888993D01*
X195562000Y-115888995D01*
X195561999Y-115888995D01*
X193733000Y-115888995D01*
X193733000Y-115888993D01*
X193733000Y-115751007D01*
X193733000Y-115751004D01*
X193706081Y-115615677D01*
X193706080Y-115615676D01*
X193706080Y-115615672D01*
X193690483Y-115578018D01*
X193653278Y-115488195D01*
X193653271Y-115488182D01*
X193576614Y-115373458D01*
X193576611Y-115373454D01*
X193479045Y-115275888D01*
X193479041Y-115275885D01*
X193364317Y-115199228D01*
X193364304Y-115199221D01*
X193231201Y-115144089D01*
X193231947Y-115142287D01*
X193181042Y-115108928D01*
X193152585Y-115045116D01*
X193163144Y-114976049D01*
X193209368Y-114923655D01*
X193213475Y-114921177D01*
X193335865Y-114850515D01*
X193443015Y-114743365D01*
X193518781Y-114612135D01*
X193558000Y-114465766D01*
X193558000Y-114314234D01*
X193518781Y-114167865D01*
X193443015Y-114036635D01*
X193335865Y-113929485D01*
X193270250Y-113891602D01*
X193204636Y-113853719D01*
X193097005Y-113824880D01*
X193058266Y-113814500D01*
X192906734Y-113814500D01*
X192760363Y-113853719D01*
X192629135Y-113929485D01*
X192629132Y-113929487D01*
X192521987Y-114036632D01*
X192521985Y-114036635D01*
X192446219Y-114167863D01*
X192407000Y-114314234D01*
X192407000Y-114465765D01*
X192446219Y-114612136D01*
X192451037Y-114620480D01*
X192521985Y-114743365D01*
X192629135Y-114850515D01*
X192629136Y-114850516D01*
X192629138Y-114850517D01*
X192694256Y-114888113D01*
X192742472Y-114938680D01*
X192755694Y-115007287D01*
X192729726Y-115072152D01*
X192672812Y-115112680D01*
X192632256Y-115119500D01*
X191863505Y-115119500D01*
X191728177Y-115146418D01*
X191728167Y-115146421D01*
X191600695Y-115199221D01*
X191600682Y-115199228D01*
X191485958Y-115275885D01*
X191485954Y-115275888D01*
X191388388Y-115373454D01*
X191388385Y-115373458D01*
X191311728Y-115488182D01*
X191311721Y-115488195D01*
X191258921Y-115615667D01*
X191258918Y-115615677D01*
X191232000Y-115751004D01*
X191232000Y-115751007D01*
X191232000Y-115888993D01*
X191232000Y-115888995D01*
X191231999Y-115888995D01*
X186050000Y-115888995D01*
X186050000Y-107424000D01*
X186069685Y-107356961D01*
X186122489Y-107311206D01*
X186174000Y-107300000D01*
X191141375Y-107300000D01*
X191208414Y-107319685D01*
X191254169Y-107372489D01*
X191256527Y-107378726D01*
X191256589Y-107378701D01*
X191311721Y-107511804D01*
X191311728Y-107511817D01*
X191388385Y-107626541D01*
X191388388Y-107626545D01*
X191485954Y-107724111D01*
X191485958Y-107724114D01*
X191600682Y-107800771D01*
X191600695Y-107800778D01*
X191728167Y-107853578D01*
X191728172Y-107853580D01*
X191728176Y-107853580D01*
X191728177Y-107853581D01*
X191863504Y-107880500D01*
X192632256Y-107880500D01*
X192699295Y-107900185D01*
X192745050Y-107952989D01*
X192754994Y-108022147D01*
X192725969Y-108085703D01*
X192694256Y-108111887D01*
X192629138Y-108149482D01*
X192629132Y-108149487D01*
X192521987Y-108256632D01*
X192521985Y-108256635D01*
X192446219Y-108387863D01*
X192407000Y-108534234D01*
X192407000Y-108685765D01*
X192446219Y-108832136D01*
X192484102Y-108897750D01*
X192521985Y-108963365D01*
X192629135Y-109070515D01*
X192760365Y-109146281D01*
X192906734Y-109185500D01*
X192906736Y-109185500D01*
X193058264Y-109185500D01*
X193058266Y-109185500D01*
X193204635Y-109146281D01*
X193335865Y-109070515D01*
X193443015Y-108963365D01*
X193518781Y-108832135D01*
X193558000Y-108685766D01*
X193558000Y-108534234D01*
X193518781Y-108387865D01*
X193443015Y-108256635D01*
X193335865Y-108149485D01*
X193213474Y-108078822D01*
X193165259Y-108028254D01*
X193152037Y-107959647D01*
X193178005Y-107894783D01*
X193231518Y-107856676D01*
X193231201Y-107855911D01*
X193234529Y-107854532D01*
X193234919Y-107854255D01*
X193236210Y-107853836D01*
X193364304Y-107800778D01*
X193364304Y-107800777D01*
X193364311Y-107800775D01*
X193479042Y-107724114D01*
X193576614Y-107626542D01*
X193653275Y-107511811D01*
X193654801Y-107508128D01*
X193708411Y-107378701D01*
X193710496Y-107379564D01*
X193743258Y-107329570D01*
X193807069Y-107301110D01*
X193823625Y-107300000D01*
X195471375Y-107300000D01*
X195538414Y-107319685D01*
X195584169Y-107372489D01*
X195586527Y-107378726D01*
X195586589Y-107378701D01*
X195641721Y-107511804D01*
X195641728Y-107511817D01*
X195718385Y-107626541D01*
X195718388Y-107626545D01*
X195815954Y-107724111D01*
X195815958Y-107724114D01*
X195930682Y-107800771D01*
X195930695Y-107800778D01*
X196058167Y-107853578D01*
X196058172Y-107853580D01*
X196058176Y-107853580D01*
X196058177Y-107853581D01*
X196193504Y-107880500D01*
X196193507Y-107880500D01*
X197131495Y-107880500D01*
X197255109Y-107855911D01*
X197266828Y-107853580D01*
X197394311Y-107800775D01*
X197509042Y-107724114D01*
X197606614Y-107626542D01*
X197683275Y-107511811D01*
X197736080Y-107384328D01*
X197752854Y-107300000D01*
X197763000Y-107248995D01*
X197763000Y-107111004D01*
X197736081Y-106975677D01*
X197736080Y-106975676D01*
X197736080Y-106975672D01*
X197730452Y-106962085D01*
X197683278Y-106848195D01*
X197683271Y-106848182D01*
X197606614Y-106733458D01*
X197606611Y-106733454D01*
X197509045Y-106635888D01*
X197509041Y-106635885D01*
X197394317Y-106559228D01*
X197394304Y-106559221D01*
X197266832Y-106506421D01*
X197266822Y-106506418D01*
X197131495Y-106479500D01*
X197131493Y-106479500D01*
X196774000Y-106479500D01*
X196706961Y-106459815D01*
X196661206Y-106407011D01*
X196650000Y-106355500D01*
X196650000Y-96124000D01*
X196669685Y-96056961D01*
X196722489Y-96011206D01*
X196774000Y-96000000D01*
X198875500Y-96000000D01*
X198942539Y-96019685D01*
X198988294Y-96072489D01*
X198999500Y-96124000D01*
X198999500Y-126996249D01*
X198999274Y-127003736D01*
X198981728Y-127293794D01*
X198979923Y-127308659D01*
X198928219Y-127590798D01*
X198924635Y-127605336D01*
X198839306Y-127879167D01*
X198833997Y-127893168D01*
X198716275Y-128154736D01*
X198709316Y-128167995D01*
X198560928Y-128413459D01*
X198552422Y-128425782D01*
X198375526Y-128651573D01*
X198365596Y-128662781D01*
X198162781Y-128865596D01*
X198151573Y-128875526D01*
X197925782Y-129052422D01*
X197913459Y-129060928D01*
X197667995Y-129209316D01*
X197654736Y-129216275D01*
X197393168Y-129333997D01*
X197379167Y-129339306D01*
X197105336Y-129424635D01*
X197090798Y-129428219D01*
X196808659Y-129479923D01*
X196793794Y-129481728D01*
X196503736Y-129499274D01*
X196496249Y-129499500D01*
X152503751Y-129499500D01*
X152496264Y-129499274D01*
X152206205Y-129481728D01*
X152191340Y-129479923D01*
X151909201Y-129428219D01*
X151894663Y-129424635D01*
X151620832Y-129339306D01*
X151606831Y-129333997D01*
X151345263Y-129216275D01*
X151332004Y-129209316D01*
X151086540Y-129060928D01*
X151074217Y-129052422D01*
X151071762Y-129050499D01*
X150848426Y-128875526D01*
X150837218Y-128865596D01*
X150634403Y-128662781D01*
X150624473Y-128651573D01*
X150566419Y-128577473D01*
X150457546Y-128438505D01*
X150447579Y-128425784D01*
X150439075Y-128413465D01*
X150412896Y-128370160D01*
X151483717Y-128370160D01*
X151483717Y-128475614D01*
X151511010Y-128577474D01*
X151563737Y-128668800D01*
X151638304Y-128743367D01*
X151729630Y-128796094D01*
X151831490Y-128823387D01*
X151831492Y-128823387D01*
X151936942Y-128823387D01*
X151936944Y-128823387D01*
X152038804Y-128796094D01*
X152130130Y-128743367D01*
X152204697Y-128668800D01*
X152257424Y-128577474D01*
X152284717Y-128475614D01*
X152284717Y-128370160D01*
X152257424Y-128268300D01*
X152204697Y-128176974D01*
X152130130Y-128102407D01*
X152038804Y-128049680D01*
X151936944Y-128022387D01*
X151831490Y-128022387D01*
X151729630Y-128049680D01*
X151729627Y-128049681D01*
X151638302Y-128102408D01*
X151563738Y-128176972D01*
X151511011Y-128268297D01*
X151511010Y-128268300D01*
X151483717Y-128370160D01*
X150412896Y-128370160D01*
X150290680Y-128167989D01*
X150283727Y-128154743D01*
X150166000Y-127893163D01*
X150160693Y-127879167D01*
X150152957Y-127854342D01*
X150075363Y-127605335D01*
X150071780Y-127590797D01*
X150054291Y-127495361D01*
X150051684Y-127481137D01*
X150545304Y-127481137D01*
X150545304Y-127586591D01*
X150572597Y-127688451D01*
X150625324Y-127779777D01*
X150699891Y-127854344D01*
X150791217Y-127907071D01*
X150893077Y-127934364D01*
X150893079Y-127934364D01*
X150998529Y-127934364D01*
X150998531Y-127934364D01*
X151100391Y-127907071D01*
X151191717Y-127854344D01*
X151266284Y-127779777D01*
X151319011Y-127688451D01*
X151346304Y-127586591D01*
X151346304Y-127481137D01*
X151319011Y-127379277D01*
X151266284Y-127287951D01*
X151191717Y-127213384D01*
X151100391Y-127160657D01*
X150998531Y-127133364D01*
X150893077Y-127133364D01*
X150791217Y-127160657D01*
X150791214Y-127160658D01*
X150699889Y-127213385D01*
X150625325Y-127287949D01*
X150572598Y-127379274D01*
X150572597Y-127379277D01*
X150545304Y-127481137D01*
X150051684Y-127481137D01*
X150020076Y-127308659D01*
X150018271Y-127293794D01*
X150017917Y-127287949D01*
X150008378Y-127130247D01*
X159829500Y-127130247D01*
X159829500Y-128869752D01*
X159841131Y-128928229D01*
X159841132Y-128928230D01*
X159885447Y-128994552D01*
X159951769Y-129038867D01*
X159951770Y-129038868D01*
X160010247Y-129050499D01*
X160010250Y-129050500D01*
X160010252Y-129050500D01*
X161749750Y-129050500D01*
X161749751Y-129050499D01*
X161764568Y-129047552D01*
X161808229Y-129038868D01*
X161808229Y-129038867D01*
X161808231Y-129038867D01*
X161874552Y-128994552D01*
X161918867Y-128928231D01*
X161918867Y-128928229D01*
X161918868Y-128928229D01*
X161930499Y-128869752D01*
X161930500Y-128869750D01*
X161930500Y-127896530D01*
X162369500Y-127896530D01*
X162369500Y-128103469D01*
X162405263Y-128283259D01*
X162409870Y-128306420D01*
X162489059Y-128497598D01*
X162542429Y-128577473D01*
X162604024Y-128669657D01*
X162750342Y-128815975D01*
X162750345Y-128815977D01*
X162922402Y-128930941D01*
X163113580Y-129010130D01*
X163258052Y-129038867D01*
X163316530Y-129050499D01*
X163316534Y-129050500D01*
X163316535Y-129050500D01*
X163523466Y-129050500D01*
X163523467Y-129050499D01*
X163726420Y-129010130D01*
X163917598Y-128930941D01*
X164089655Y-128815977D01*
X164235977Y-128669655D01*
X164350941Y-128497598D01*
X164430130Y-128306420D01*
X164470500Y-128103465D01*
X164470500Y-127896535D01*
X164470499Y-127896530D01*
X164909500Y-127896530D01*
X164909500Y-128103469D01*
X164945263Y-128283259D01*
X164949870Y-128306420D01*
X165029059Y-128497598D01*
X165082429Y-128577473D01*
X165144024Y-128669657D01*
X165290342Y-128815975D01*
X165290345Y-128815977D01*
X165462402Y-128930941D01*
X165653580Y-129010130D01*
X165798052Y-129038867D01*
X165856530Y-129050499D01*
X165856534Y-129050500D01*
X165856535Y-129050500D01*
X166063466Y-129050500D01*
X166063467Y-129050499D01*
X166266420Y-129010130D01*
X166457598Y-128930941D01*
X166629655Y-128815977D01*
X166775977Y-128669655D01*
X166890941Y-128497598D01*
X166970130Y-128306420D01*
X167010500Y-128103465D01*
X167010500Y-127896535D01*
X167010499Y-127896530D01*
X167449500Y-127896530D01*
X167449500Y-128103469D01*
X167485263Y-128283259D01*
X167489870Y-128306420D01*
X167569059Y-128497598D01*
X167622429Y-128577473D01*
X167684024Y-128669657D01*
X167830342Y-128815975D01*
X167830345Y-128815977D01*
X168002402Y-128930941D01*
X168193580Y-129010130D01*
X168338052Y-129038867D01*
X168396530Y-129050499D01*
X168396534Y-129050500D01*
X168396535Y-129050500D01*
X168603466Y-129050500D01*
X168603467Y-129050499D01*
X168806420Y-129010130D01*
X168997598Y-128930941D01*
X169169655Y-128815977D01*
X169315977Y-128669655D01*
X169430941Y-128497598D01*
X169439702Y-128476449D01*
X169439703Y-128476447D01*
X196824271Y-128476447D01*
X196824271Y-128581901D01*
X196851564Y-128683761D01*
X196904291Y-128775087D01*
X196978858Y-128849654D01*
X197070184Y-128902381D01*
X197172044Y-128929674D01*
X197172046Y-128929674D01*
X197277496Y-128929674D01*
X197277498Y-128929674D01*
X197379358Y-128902381D01*
X197470684Y-128849654D01*
X197545251Y-128775087D01*
X197597978Y-128683761D01*
X197625271Y-128581901D01*
X197625271Y-128476447D01*
X197597978Y-128374587D01*
X197545251Y-128283261D01*
X197470684Y-128208694D01*
X197379358Y-128155967D01*
X197277498Y-128128674D01*
X197172044Y-128128674D01*
X197070184Y-128155967D01*
X197070181Y-128155968D01*
X196978856Y-128208695D01*
X196904292Y-128283259D01*
X196851565Y-128374584D01*
X196851564Y-128374587D01*
X196824271Y-128476447D01*
X169439703Y-128476447D01*
X169462724Y-128420868D01*
X169462724Y-128420867D01*
X169463134Y-128419878D01*
X169510130Y-128306420D01*
X169550500Y-128103465D01*
X169550500Y-127896535D01*
X169510130Y-127693580D01*
X169467556Y-127590797D01*
X169461990Y-127577360D01*
X169445701Y-127538034D01*
X197713294Y-127538034D01*
X197713294Y-127643488D01*
X197740587Y-127745348D01*
X197793314Y-127836674D01*
X197867881Y-127911241D01*
X197959207Y-127963968D01*
X198061067Y-127991261D01*
X198061069Y-127991261D01*
X198166519Y-127991261D01*
X198166521Y-127991261D01*
X198268381Y-127963968D01*
X198359707Y-127911241D01*
X198434274Y-127836674D01*
X198487001Y-127745348D01*
X198514294Y-127643488D01*
X198514294Y-127538034D01*
X198487001Y-127436174D01*
X198434274Y-127344848D01*
X198359707Y-127270281D01*
X198268381Y-127217554D01*
X198166521Y-127190261D01*
X198061067Y-127190261D01*
X197959207Y-127217554D01*
X197959204Y-127217555D01*
X197867879Y-127270282D01*
X197793315Y-127344846D01*
X197740588Y-127436171D01*
X197740587Y-127436174D01*
X197713294Y-127538034D01*
X169445701Y-127538034D01*
X169430942Y-127502403D01*
X169315975Y-127330342D01*
X169169657Y-127184024D01*
X169001655Y-127071770D01*
X168997598Y-127069059D01*
X168806420Y-126989870D01*
X168806412Y-126989868D01*
X168603469Y-126949500D01*
X168603465Y-126949500D01*
X168396535Y-126949500D01*
X168396530Y-126949500D01*
X168193587Y-126989868D01*
X168193579Y-126989870D01*
X168002403Y-127069058D01*
X167830342Y-127184024D01*
X167684024Y-127330342D01*
X167569058Y-127502403D01*
X167489870Y-127693579D01*
X167489868Y-127693587D01*
X167449500Y-127896530D01*
X167010499Y-127896530D01*
X166970130Y-127693580D01*
X166890941Y-127502402D01*
X166775977Y-127330345D01*
X166775975Y-127330342D01*
X166629657Y-127184024D01*
X166461655Y-127071770D01*
X166457598Y-127069059D01*
X166266420Y-126989870D01*
X166266412Y-126989868D01*
X166063469Y-126949500D01*
X166063465Y-126949500D01*
X165856535Y-126949500D01*
X165856530Y-126949500D01*
X165653587Y-126989868D01*
X165653579Y-126989870D01*
X165462403Y-127069058D01*
X165290342Y-127184024D01*
X165144024Y-127330342D01*
X165029058Y-127502403D01*
X164949870Y-127693579D01*
X164949868Y-127693587D01*
X164909500Y-127896530D01*
X164470499Y-127896530D01*
X164430130Y-127693580D01*
X164350941Y-127502402D01*
X164235977Y-127330345D01*
X164235975Y-127330342D01*
X164089657Y-127184024D01*
X163921655Y-127071770D01*
X163917598Y-127069059D01*
X163726420Y-126989870D01*
X163726412Y-126989868D01*
X163523469Y-126949500D01*
X163523465Y-126949500D01*
X163316535Y-126949500D01*
X163316530Y-126949500D01*
X163113587Y-126989868D01*
X163113579Y-126989870D01*
X162922403Y-127069058D01*
X162750342Y-127184024D01*
X162604024Y-127330342D01*
X162489058Y-127502403D01*
X162409870Y-127693579D01*
X162409868Y-127693587D01*
X162369500Y-127896530D01*
X161930500Y-127896530D01*
X161930500Y-127130249D01*
X161930499Y-127130247D01*
X161918868Y-127071770D01*
X161918867Y-127071769D01*
X161874552Y-127005447D01*
X161808230Y-126961132D01*
X161808229Y-126961131D01*
X161749752Y-126949500D01*
X161749748Y-126949500D01*
X160010252Y-126949500D01*
X160010247Y-126949500D01*
X159951770Y-126961131D01*
X159951769Y-126961132D01*
X159885447Y-127005447D01*
X159841132Y-127071769D01*
X159841131Y-127071770D01*
X159829500Y-127130247D01*
X150008378Y-127130247D01*
X150000726Y-127003736D01*
X150000500Y-126996249D01*
X150000500Y-126440691D01*
X185299500Y-126440691D01*
X185299500Y-126559309D01*
X185330201Y-126673886D01*
X185389511Y-126776613D01*
X185473387Y-126860489D01*
X185576114Y-126919799D01*
X185690691Y-126950500D01*
X185690694Y-126950500D01*
X185809306Y-126950500D01*
X185809309Y-126950500D01*
X185923886Y-126919799D01*
X186026613Y-126860489D01*
X186110489Y-126776613D01*
X186169799Y-126673886D01*
X186200500Y-126559309D01*
X186200500Y-126440691D01*
X186169799Y-126326114D01*
X186110489Y-126223387D01*
X186026613Y-126139511D01*
X185923886Y-126080201D01*
X185809309Y-126049500D01*
X185690691Y-126049500D01*
X185576114Y-126080201D01*
X185576112Y-126080201D01*
X185576112Y-126080202D01*
X185473387Y-126139511D01*
X185473384Y-126139513D01*
X185389513Y-126223384D01*
X185389511Y-126223387D01*
X185330201Y-126326114D01*
X185299500Y-126440691D01*
X150000500Y-126440691D01*
X150000500Y-123936436D01*
X182443913Y-123936436D01*
X182443913Y-124041890D01*
X182471206Y-124143750D01*
X182523933Y-124235076D01*
X182598500Y-124309643D01*
X182689826Y-124362370D01*
X182791686Y-124389663D01*
X182791688Y-124389663D01*
X182897138Y-124389663D01*
X182897140Y-124389663D01*
X182999000Y-124362370D01*
X183090326Y-124309643D01*
X183161751Y-124238217D01*
X183223070Y-124204735D01*
X183292762Y-124209719D01*
X183337110Y-124238220D01*
X183354085Y-124255195D01*
X183445411Y-124307922D01*
X183547271Y-124335215D01*
X183547273Y-124335215D01*
X183652723Y-124335215D01*
X183652725Y-124335215D01*
X183754585Y-124307922D01*
X183845911Y-124255195D01*
X183920478Y-124180628D01*
X183973205Y-124089302D01*
X184000498Y-123987442D01*
X184000498Y-123881988D01*
X183973205Y-123780128D01*
X183920478Y-123688802D01*
X183845911Y-123614235D01*
X183754585Y-123561508D01*
X183652725Y-123534215D01*
X183547271Y-123534215D01*
X183445411Y-123561508D01*
X183445408Y-123561509D01*
X183354085Y-123614235D01*
X183282662Y-123685658D01*
X183221338Y-123719142D01*
X183151647Y-123714157D01*
X183107300Y-123685657D01*
X183090327Y-123668684D01*
X183090326Y-123668683D01*
X182999000Y-123615956D01*
X182897140Y-123588663D01*
X182791686Y-123588663D01*
X182689826Y-123615956D01*
X182689823Y-123615957D01*
X182598498Y-123668684D01*
X182523934Y-123743248D01*
X182471207Y-123834573D01*
X182471206Y-123834576D01*
X182443913Y-123936436D01*
X150000500Y-123936436D01*
X150000500Y-119505295D01*
X150020185Y-119438256D01*
X150072989Y-119392501D01*
X150134230Y-119381677D01*
X150134728Y-119381716D01*
X150767036Y-118749407D01*
X150784075Y-118812993D01*
X150849901Y-118927007D01*
X150942993Y-119020099D01*
X151057007Y-119085925D01*
X151120590Y-119102962D01*
X150488282Y-119735269D01*
X150488282Y-119735270D01*
X150542449Y-119774624D01*
X150731782Y-119871095D01*
X150933870Y-119936757D01*
X151143754Y-119970000D01*
X151356246Y-119970000D01*
X151566127Y-119936757D01*
X151566130Y-119936757D01*
X151768217Y-119871095D01*
X151957554Y-119774622D01*
X152011716Y-119735270D01*
X152011717Y-119735270D01*
X151379408Y-119102962D01*
X151442993Y-119085925D01*
X151557007Y-119020099D01*
X151650099Y-118927007D01*
X151715925Y-118812993D01*
X151732962Y-118749409D01*
X152365270Y-119381717D01*
X152365270Y-119381716D01*
X152404622Y-119327554D01*
X152501095Y-119138217D01*
X152566757Y-118936130D01*
X152566757Y-118936127D01*
X152600000Y-118726246D01*
X152600000Y-118513753D01*
X152566757Y-118303872D01*
X152566757Y-118303869D01*
X152501095Y-118101782D01*
X152404624Y-117912449D01*
X152365270Y-117858282D01*
X152365269Y-117858282D01*
X151732962Y-118490590D01*
X151715925Y-118427007D01*
X151650099Y-118312993D01*
X151557007Y-118219901D01*
X151442993Y-118154075D01*
X151379409Y-118137037D01*
X152011716Y-117504728D01*
X151957550Y-117465375D01*
X151768216Y-117368904D01*
X151592026Y-117311656D01*
X151534350Y-117272218D01*
X151507152Y-117207860D01*
X151519067Y-117139013D01*
X151566311Y-117087538D01*
X151582882Y-117079168D01*
X151747598Y-117010941D01*
X151919655Y-116895977D01*
X152065977Y-116749655D01*
X152180941Y-116577598D01*
X152260130Y-116386420D01*
X152300500Y-116183465D01*
X152300500Y-115976535D01*
X152260130Y-115773580D01*
X152180941Y-115582402D01*
X152065977Y-115410345D01*
X152065975Y-115410342D01*
X151919657Y-115264024D01*
X151822671Y-115199221D01*
X151747598Y-115149059D01*
X151741229Y-115146421D01*
X151556420Y-115069870D01*
X151556412Y-115069868D01*
X151353469Y-115029500D01*
X151353465Y-115029500D01*
X151146535Y-115029500D01*
X151146530Y-115029500D01*
X150943587Y-115069868D01*
X150943579Y-115069870D01*
X150752403Y-115149058D01*
X150580342Y-115264024D01*
X150434024Y-115410342D01*
X150319057Y-115582403D01*
X150239061Y-115775533D01*
X150195220Y-115829936D01*
X150128926Y-115852001D01*
X150061226Y-115834722D01*
X150013616Y-115783584D01*
X150000500Y-115728080D01*
X150000500Y-113891919D01*
X150020185Y-113824880D01*
X150072989Y-113779125D01*
X150142147Y-113769181D01*
X150205703Y-113798206D01*
X150239061Y-113844466D01*
X150239869Y-113846418D01*
X150239870Y-113846420D01*
X150261857Y-113899500D01*
X150319058Y-114037596D01*
X150434024Y-114209657D01*
X150580342Y-114355975D01*
X150580345Y-114355977D01*
X150752402Y-114470941D01*
X150943580Y-114550130D01*
X151146530Y-114590499D01*
X151146534Y-114590500D01*
X151146535Y-114590500D01*
X151353466Y-114590500D01*
X151353467Y-114590499D01*
X151556420Y-114550130D01*
X151747598Y-114470941D01*
X151919655Y-114355977D01*
X152065977Y-114209655D01*
X152180941Y-114037598D01*
X152260130Y-113846420D01*
X152300500Y-113643465D01*
X152300500Y-113436535D01*
X152260130Y-113233580D01*
X152180941Y-113042402D01*
X152065977Y-112870345D01*
X152065975Y-112870342D01*
X151919657Y-112724024D01*
X151809619Y-112650500D01*
X151747598Y-112609059D01*
X151556420Y-112529870D01*
X151556412Y-112529868D01*
X151353469Y-112489500D01*
X151353465Y-112489500D01*
X151146535Y-112489500D01*
X151146530Y-112489500D01*
X150943587Y-112529868D01*
X150943579Y-112529870D01*
X150752403Y-112609058D01*
X150580342Y-112724024D01*
X150434024Y-112870342D01*
X150319057Y-113042403D01*
X150239061Y-113235533D01*
X150195220Y-113289936D01*
X150128926Y-113312001D01*
X150061226Y-113294722D01*
X150013616Y-113243584D01*
X150000500Y-113188080D01*
X150000500Y-112021769D01*
X150020185Y-111954730D01*
X150072989Y-111908975D01*
X150142147Y-111899031D01*
X150205703Y-111928056D01*
X150227602Y-111952878D01*
X150255447Y-111994552D01*
X150321769Y-112038867D01*
X150321770Y-112038868D01*
X150380247Y-112050499D01*
X150380250Y-112050500D01*
X150380252Y-112050500D01*
X152119750Y-112050500D01*
X152119751Y-112050499D01*
X152134568Y-112047552D01*
X152178229Y-112038868D01*
X152178229Y-112038867D01*
X152178231Y-112038867D01*
X152244552Y-111994552D01*
X152288867Y-111928231D01*
X152288867Y-111928229D01*
X152288868Y-111928229D01*
X152300499Y-111869752D01*
X152300500Y-111869750D01*
X152300500Y-110130249D01*
X152300499Y-110130247D01*
X152288868Y-110071770D01*
X152288867Y-110071769D01*
X152244552Y-110005447D01*
X152178230Y-109961132D01*
X152178229Y-109961131D01*
X152119752Y-109949500D01*
X152119748Y-109949500D01*
X150380252Y-109949500D01*
X150380247Y-109949500D01*
X150321770Y-109961131D01*
X150321769Y-109961132D01*
X150255448Y-110005446D01*
X150227602Y-110047122D01*
X150173989Y-110091926D01*
X150104664Y-110100633D01*
X150041637Y-110070478D01*
X150004918Y-110011035D01*
X150000500Y-109978230D01*
X150000500Y-100505295D01*
X150020185Y-100438256D01*
X150072989Y-100392501D01*
X150134230Y-100381677D01*
X150134728Y-100381716D01*
X150767036Y-99749407D01*
X150784075Y-99812993D01*
X150849901Y-99927007D01*
X150942993Y-100020099D01*
X151057007Y-100085925D01*
X151120590Y-100102962D01*
X150488282Y-100735269D01*
X150488282Y-100735270D01*
X150542449Y-100774624D01*
X150731782Y-100871095D01*
X150933870Y-100936757D01*
X151143754Y-100970000D01*
X151356246Y-100970000D01*
X151566127Y-100936757D01*
X151566130Y-100936757D01*
X151768217Y-100871095D01*
X151957554Y-100774622D01*
X152011716Y-100735270D01*
X152011717Y-100735270D01*
X151379408Y-100102962D01*
X151442993Y-100085925D01*
X151557007Y-100020099D01*
X151650099Y-99927007D01*
X151715925Y-99812993D01*
X151732962Y-99749409D01*
X152365270Y-100381717D01*
X152365270Y-100381716D01*
X152404622Y-100327554D01*
X152501095Y-100138217D01*
X152566757Y-99936130D01*
X152566757Y-99936127D01*
X152600000Y-99726246D01*
X152600000Y-99513753D01*
X152566757Y-99303872D01*
X152566757Y-99303869D01*
X152501095Y-99101782D01*
X152404624Y-98912449D01*
X152365270Y-98858282D01*
X152365269Y-98858282D01*
X151732962Y-99490590D01*
X151715925Y-99427007D01*
X151650099Y-99312993D01*
X151557007Y-99219901D01*
X151442993Y-99154075D01*
X151379409Y-99137037D01*
X152011716Y-98504728D01*
X151957550Y-98465375D01*
X151768216Y-98368904D01*
X151592026Y-98311656D01*
X151534350Y-98272218D01*
X151507152Y-98207860D01*
X151519067Y-98139013D01*
X151566311Y-98087538D01*
X151582882Y-98079168D01*
X151747598Y-98010941D01*
X151919655Y-97895977D01*
X152065977Y-97749655D01*
X152180941Y-97577598D01*
X152260130Y-97386420D01*
X152300500Y-97183465D01*
X152300500Y-96976535D01*
X152260130Y-96773580D01*
X152180941Y-96582402D01*
X152065977Y-96410345D01*
X152065975Y-96410342D01*
X151919657Y-96264024D01*
X151833626Y-96206541D01*
X151747598Y-96149059D01*
X151556420Y-96069870D01*
X151556412Y-96069868D01*
X151353469Y-96029500D01*
X151353465Y-96029500D01*
X151146535Y-96029500D01*
X151146530Y-96029500D01*
X150943587Y-96069868D01*
X150943579Y-96069870D01*
X150752403Y-96149058D01*
X150580342Y-96264024D01*
X150434024Y-96410342D01*
X150319057Y-96582403D01*
X150239061Y-96775533D01*
X150195220Y-96829936D01*
X150128926Y-96852001D01*
X150061226Y-96834722D01*
X150013616Y-96783584D01*
X150000500Y-96728080D01*
X150000500Y-94891919D01*
X150020185Y-94824880D01*
X150072989Y-94779125D01*
X150142147Y-94769181D01*
X150205703Y-94798206D01*
X150239061Y-94844466D01*
X150239869Y-94846418D01*
X150239870Y-94846420D01*
X150278430Y-94939511D01*
X150319058Y-95037596D01*
X150434024Y-95209657D01*
X150580342Y-95355975D01*
X150580345Y-95355977D01*
X150752402Y-95470941D01*
X150943580Y-95550130D01*
X151146530Y-95590499D01*
X151146534Y-95590500D01*
X151146535Y-95590500D01*
X151353466Y-95590500D01*
X151353467Y-95590499D01*
X151556420Y-95550130D01*
X151747598Y-95470941D01*
X151919655Y-95355977D01*
X152065977Y-95209655D01*
X152180941Y-95037598D01*
X152260130Y-94846420D01*
X152300500Y-94643465D01*
X152300500Y-94436535D01*
X152260130Y-94233580D01*
X152180941Y-94042402D01*
X152065977Y-93870345D01*
X152065975Y-93870342D01*
X151919657Y-93724024D01*
X151822803Y-93659309D01*
X151747598Y-93609059D01*
X151556420Y-93529870D01*
X151556412Y-93529868D01*
X151353469Y-93489500D01*
X151353465Y-93489500D01*
X151146535Y-93489500D01*
X151146530Y-93489500D01*
X150943587Y-93529868D01*
X150943579Y-93529870D01*
X150752403Y-93609058D01*
X150580342Y-93724024D01*
X150434024Y-93870342D01*
X150319057Y-94042403D01*
X150239061Y-94235533D01*
X150195220Y-94289936D01*
X150128926Y-94312001D01*
X150061226Y-94294722D01*
X150013616Y-94243584D01*
X150000500Y-94188080D01*
X150000500Y-93021769D01*
X150020185Y-92954730D01*
X150072989Y-92908975D01*
X150142147Y-92899031D01*
X150205703Y-92928056D01*
X150227602Y-92952878D01*
X150255447Y-92994552D01*
X150321769Y-93038867D01*
X150321770Y-93038868D01*
X150380247Y-93050499D01*
X150380250Y-93050500D01*
X150380252Y-93050500D01*
X152119750Y-93050500D01*
X152119751Y-93050499D01*
X152134568Y-93047552D01*
X152178229Y-93038868D01*
X152178229Y-93038867D01*
X152178231Y-93038867D01*
X152244552Y-92994552D01*
X152288867Y-92928231D01*
X152288867Y-92928229D01*
X152288868Y-92928229D01*
X152300499Y-92869752D01*
X152300500Y-92869750D01*
X152300500Y-91130249D01*
X152300499Y-91130247D01*
X152288868Y-91071770D01*
X152288867Y-91071769D01*
X152244552Y-91005447D01*
X152178230Y-90961132D01*
X152178229Y-90961131D01*
X152119752Y-90949500D01*
X152119748Y-90949500D01*
X150380252Y-90949500D01*
X150380247Y-90949500D01*
X150321770Y-90961131D01*
X150321769Y-90961132D01*
X150255448Y-91005446D01*
X150227602Y-91047122D01*
X150173989Y-91091926D01*
X150104664Y-91100633D01*
X150041637Y-91070478D01*
X150004918Y-91011035D01*
X150000500Y-90978230D01*
X150000500Y-83003750D01*
X150000726Y-82996263D01*
X150018271Y-82706205D01*
X150020076Y-82691340D01*
X150052511Y-82514352D01*
X150071780Y-82409197D01*
X150075364Y-82394663D01*
X150102669Y-82307040D01*
X150102670Y-82307038D01*
X150381209Y-82307038D01*
X150381209Y-82412492D01*
X150408502Y-82514352D01*
X150461229Y-82605678D01*
X150535796Y-82680245D01*
X150627122Y-82732972D01*
X150728982Y-82760265D01*
X150728984Y-82760265D01*
X150834434Y-82760265D01*
X150834436Y-82760265D01*
X150936296Y-82732972D01*
X151027622Y-82680245D01*
X151102189Y-82605678D01*
X151154916Y-82514352D01*
X151182209Y-82412492D01*
X151182209Y-82307038D01*
X151154916Y-82205178D01*
X151102189Y-82113852D01*
X151027622Y-82039285D01*
X150936296Y-81986558D01*
X150834436Y-81959265D01*
X150728982Y-81959265D01*
X150627122Y-81986558D01*
X150627119Y-81986559D01*
X150535794Y-82039286D01*
X150461230Y-82113850D01*
X150408503Y-82205175D01*
X150408502Y-82205178D01*
X150381209Y-82307038D01*
X150102670Y-82307038D01*
X150160696Y-82120822D01*
X150165998Y-82106841D01*
X150283731Y-81845249D01*
X150290676Y-81832016D01*
X150439080Y-81586526D01*
X150447567Y-81574230D01*
X150608648Y-81368625D01*
X151270232Y-81368625D01*
X151270232Y-81474079D01*
X151297525Y-81575939D01*
X151350252Y-81667265D01*
X151424819Y-81741832D01*
X151516145Y-81794559D01*
X151618005Y-81821852D01*
X151618007Y-81821852D01*
X151723457Y-81821852D01*
X151723459Y-81821852D01*
X151825319Y-81794559D01*
X151916645Y-81741832D01*
X151991212Y-81667265D01*
X152043939Y-81575939D01*
X152071232Y-81474079D01*
X152071232Y-81368625D01*
X152043939Y-81266765D01*
X151991212Y-81175439D01*
X151916645Y-81100872D01*
X151825319Y-81048145D01*
X151723459Y-81020852D01*
X151618005Y-81020852D01*
X151516145Y-81048145D01*
X151516142Y-81048146D01*
X151424817Y-81100873D01*
X151350253Y-81175437D01*
X151297526Y-81266762D01*
X151297525Y-81266765D01*
X151270232Y-81368625D01*
X150608648Y-81368625D01*
X150624480Y-81348417D01*
X150634395Y-81337226D01*
X150837226Y-81134395D01*
X150848417Y-81124480D01*
X151074230Y-80947567D01*
X151086526Y-80939080D01*
X151332016Y-80790676D01*
X151345249Y-80783731D01*
X151606841Y-80665998D01*
X151620822Y-80660696D01*
X151894668Y-80575362D01*
X151909197Y-80571780D01*
X152191344Y-80520075D01*
X152206201Y-80518271D01*
X152496264Y-80500726D01*
X152503751Y-80500500D01*
X152565892Y-80500500D01*
X153926000Y-80500500D01*
X153993039Y-80520185D01*
G37*
%TD.AperFunction*%
%TA.AperFunction,Conductor*%
G36*
X150205703Y-116338206D02*
G01*
X150239061Y-116384466D01*
X150239869Y-116386418D01*
X150239870Y-116386420D01*
X150262383Y-116440771D01*
X150319058Y-116577596D01*
X150434024Y-116749657D01*
X150580342Y-116895975D01*
X150752405Y-117010943D01*
X150855043Y-117053456D01*
X150917108Y-117079164D01*
X150971511Y-117123005D01*
X150993576Y-117189299D01*
X150976297Y-117256998D01*
X150925160Y-117304609D01*
X150907974Y-117311656D01*
X150731781Y-117368905D01*
X150542439Y-117465380D01*
X150488282Y-117504727D01*
X150488282Y-117504728D01*
X151120591Y-118137037D01*
X151057007Y-118154075D01*
X150942993Y-118219901D01*
X150849901Y-118312993D01*
X150784075Y-118427007D01*
X150767037Y-118490591D01*
X150134727Y-117858281D01*
X150134228Y-117858321D01*
X150065851Y-117843956D01*
X150016095Y-117794905D01*
X150000500Y-117734703D01*
X150000500Y-116431919D01*
X150020185Y-116364880D01*
X150072989Y-116319125D01*
X150142147Y-116309181D01*
X150205703Y-116338206D01*
G37*
%TD.AperFunction*%
%TA.AperFunction,Conductor*%
G36*
X150205703Y-97338206D02*
G01*
X150239061Y-97384466D01*
X150239869Y-97386418D01*
X150239870Y-97386420D01*
X150319059Y-97577598D01*
X150376541Y-97663626D01*
X150434024Y-97749657D01*
X150580342Y-97895975D01*
X150752405Y-98010943D01*
X150855043Y-98053456D01*
X150917108Y-98079164D01*
X150971511Y-98123005D01*
X150993576Y-98189299D01*
X150976297Y-98256998D01*
X150925160Y-98304609D01*
X150907974Y-98311656D01*
X150731781Y-98368905D01*
X150542439Y-98465380D01*
X150488282Y-98504727D01*
X150488282Y-98504728D01*
X151120591Y-99137037D01*
X151057007Y-99154075D01*
X150942993Y-99219901D01*
X150849901Y-99312993D01*
X150784075Y-99427007D01*
X150767037Y-99490591D01*
X150134727Y-98858281D01*
X150134228Y-98858321D01*
X150065851Y-98843956D01*
X150016095Y-98794905D01*
X150000500Y-98734703D01*
X150000500Y-97431919D01*
X150020185Y-97364880D01*
X150072989Y-97319125D01*
X150142147Y-97309181D01*
X150205703Y-97338206D01*
G37*
%TD.AperFunction*%
%TD*%
M02*
