M48
; DRILL file {KiCad 9.0.7-9.0.7~ubuntu24.04.1} date 2026-06-16T10:17:44+0200
; FORMAT={-:-/ absolute / metric / decimal}
; #@! TF.CreationDate,2026-06-16T10:17:44+02:00
; #@! TF.GenerationSoftware,Kicad,Pcbnew,9.0.7-9.0.7~ubuntu24.04.1
; #@! TF.FileFunction,Plated,1,6,PTH
FMAT,2
METRIC
; #@! TA.AperFunction,Plated,PTH,ViaDrill
T1C0.200
; #@! TA.AperFunction,Plated,PTH,ComponentDrill
T2C0.500
; #@! TA.AperFunction,Plated,PTH,ComponentDrill
T3C0.600
; #@! TA.AperFunction,Plated,PTH,ComponentDrill
T4C0.700
; #@! TA.AperFunction,Plated,PTH,ComponentDrill
T5C4.000
%
G90
G05
T1
X150.782Y-82.36
X150.946Y-127.534
X151.671Y-81.421
X151.884Y-128.423
X154.07Y-100.92
X154.165Y-109.983
X154.75Y-109.5
X158.75Y-115.1
X159.15Y-99.86
X159.5Y-100.5
X161.932Y-108.6
X161.97Y-105.82
X162.69Y-99.09
X162.69Y-102.59
X162.7Y-100.91
X162.73Y-104.12
X165.05Y-112.6
X165.75Y-112.25
X165.955Y-124.387
X165.964Y-123.58
X165.975Y-120.543
X166.733Y-115.235
X166.75Y-114.5
X167.388Y-98.701
X167.415Y-119.95
X167.431Y-100.207
X167.5Y-87.95
X168.1Y-98.45
X168.232Y-117.837
X168.394Y-101.153
X168.85Y-97.85
X169.114Y-111.137
X169.248Y-97.216
X169.603Y-106.089
X170.434Y-111.143
X170.85Y-106.2
X171.75Y-115.91
X171.76Y-116.76
X172.094Y-111.619
X173.088Y-103.359
X173.15Y-102.6
X173.18Y-116.75
X173.212Y-121.69
X173.5Y-92.25
X173.65Y-122.3
X173.95Y-101.6
X174.15Y-110.0
X174.16Y-115.61
X174.242Y-91.951
X174.321Y-110.799
X174.323Y-96.829
X174.701Y-101.298
X174.884Y-115.386
X175.25Y-114.0
X175.35Y-93.18
X175.759Y-114.498
X177.0Y-86.75
X177.15Y-107.5
X177.736Y-110.266
X177.893Y-107.551
X179.56Y-127.4
X179.904Y-93.036
X180.5Y-98.5
X180.85Y-104.7
X180.982Y-99.178
X181.0Y-115.75
X181.38Y-94.41
X181.405Y-127.42
X181.446Y-105.096
X181.685Y-115.286
X181.75Y-110.25
X181.75Y-111.1
X181.894Y-104.286
X181.95Y-117.4
X182.45Y-104.95
X182.564Y-117.817
X182.844Y-123.989
X183.12Y-127.42
X183.37Y-118.65
X183.45Y-112.9
X183.6Y-123.935
X184.05Y-110.8
X184.15Y-115.9
X184.294Y-111.574
X184.52Y-127.43
X186.259Y-107.668
X187.65Y-95.3
X188.069Y-113.82
X188.32Y-105.03
X190.35Y-106.4
X197.225Y-128.529
X197.262Y-81.311
X197.95Y-97.6
X198.114Y-127.591
X198.2Y-82.2
T2
X193.5Y-102.25
X193.5Y-103.25
X193.5Y-104.25
T4
X151.25Y-92.0
X151.25Y-94.54
X151.25Y-97.08
X151.25Y-99.62
X151.25Y-111.0
X151.25Y-113.54
X151.25Y-116.08
X151.25Y-118.62
X160.88Y-128.0
X163.42Y-128.0
X165.96Y-128.0
X168.5Y-128.0
T5
X159.25Y-89.75
X159.25Y-120.25
X189.75Y-89.75
X189.75Y-120.25
T3
G00X191.933Y-107.18
M15
G01X193.032Y-107.18
M16
G05
G00X191.933Y-115.82
M15
G01X193.032Y-115.82
M16
G05
G00X196.262Y-107.18
M15
G01X197.062Y-107.18
M16
G05
G00X196.262Y-115.82
M15
G01X197.062Y-115.82
M16
G05
M30
