%TF.GenerationSoftware,KiCad,Pcbnew,9.0.7-9.0.7~ubuntu24.04.1*%
%TF.CreationDate,2026-06-03T23:34:01+02:00*%
%TF.ProjectId,flight_controller,666c6967-6874-45f6-936f-6e74726f6c6c,rev?*%
%TF.SameCoordinates,Original*%
%TF.FileFunction,Copper,L4,Inr*%
%TF.FilePolarity,Positive*%
%FSLAX46Y46*%
G04 Gerber Fmt 4.6, Leading zero omitted, Abs format (unit mm)*
G04 Created by KiCad (PCBNEW 9.0.7-9.0.7~ubuntu24.04.1) date 2026-06-03 23:34:01*
%MOMM*%
%LPD*%
G01*
G04 APERTURE LIST*
%TA.AperFunction,ComponentPad*%
%ADD10R,1.700000X1.700000*%
%TD*%
%TA.AperFunction,ComponentPad*%
%ADD11C,1.700000*%
%TD*%
%TA.AperFunction,ComponentPad*%
%ADD12C,5.500000*%
%TD*%
%TA.AperFunction,ComponentPad*%
%ADD13R,0.850000X0.850000*%
%TD*%
%TA.AperFunction,ComponentPad*%
%ADD14C,0.850000*%
%TD*%
%TA.AperFunction,ComponentPad*%
%ADD15O,2.100000X1.000000*%
%TD*%
%TA.AperFunction,ComponentPad*%
%ADD16O,1.800000X1.000000*%
%TD*%
%TA.AperFunction,ViaPad*%
%ADD17C,0.500000*%
%TD*%
%TA.AperFunction,ViaPad*%
%ADD18C,0.400000*%
%TD*%
%TA.AperFunction,ViaPad*%
%ADD19C,0.600000*%
%TD*%
G04 APERTURE END LIST*
D10*
%TO.N,GNDREF*%
%TO.C,J5*%
X151250000Y-92000000D03*
D11*
%TO.N,/GPS_TX*%
X151250000Y-94540000D03*
%TO.N,/GPS_RX*%
X151250000Y-97080000D03*
%TO.N,+5V*%
X151250000Y-99620000D03*
%TD*%
D10*
%TO.N,GNDREF*%
%TO.C,J3*%
X160880000Y-128000000D03*
D11*
%TO.N,/VTX_TX*%
X163420000Y-128000000D03*
%TO.N,/VTX_RX*%
X165960000Y-128000000D03*
%TO.N,+9V*%
X168500000Y-128000000D03*
%TD*%
D10*
%TO.N,GNDREF*%
%TO.C,J4*%
X151250000Y-111000000D03*
D11*
%TO.N,/TRANSCEIVER_TX*%
X151250000Y-113540000D03*
%TO.N,/TRANSCEIVER_RX*%
X151250000Y-116080000D03*
%TO.N,+5V*%
X151250000Y-118620000D03*
%TD*%
D12*
%TO.N,*%
%TO.C,REF\u002A\u002A*%
X189750000Y-120250000D03*
%TD*%
%TO.N,*%
%TO.C,REF\u002A\u002A*%
X159250000Y-89750000D03*
%TD*%
%TO.N,*%
%TO.C,REF\u002A\u002A*%
X159250000Y-120250000D03*
%TD*%
D13*
%TO.N,GNDREF*%
%TO.C,J1*%
X193500000Y-102250000D03*
D14*
%TO.N,/JTAG_SWCLK*%
X193500000Y-103250000D03*
%TO.N,/JTAG_SWDIO*%
X193500000Y-104250000D03*
%TD*%
D12*
%TO.N,*%
%TO.C,REF\u002A\u002A*%
X189750000Y-89750000D03*
%TD*%
D15*
%TO.N,GNDREF*%
%TO.C,J6*%
X192482500Y-115820000D03*
X192482500Y-107180000D03*
D16*
X196662500Y-115820000D03*
X196662500Y-107180000D03*
%TD*%
D17*
%TO.N,+3.3V*%
X170850000Y-106200000D03*
X187650000Y-95300000D03*
D18*
X158750000Y-115100000D03*
X167450000Y-100600000D03*
D17*
X183450000Y-112900000D03*
D18*
X176650000Y-112900000D03*
D17*
X180650000Y-93600000D03*
X184150000Y-115900000D03*
X174513909Y-118263909D03*
D18*
X170550000Y-115300000D03*
X170250000Y-111000000D03*
X175250000Y-92200000D03*
X188150000Y-102500000D03*
X167950110Y-117501685D03*
D17*
X164850000Y-87400000D03*
D18*
%TO.N,GNDREF*%
X172093722Y-111618610D03*
X184297235Y-111471365D03*
X169603245Y-106089198D03*
X173914779Y-102286424D03*
X198113794Y-127590761D03*
X174287852Y-96860528D03*
X166650000Y-115100000D03*
X174321402Y-110798846D03*
X177765277Y-107560855D03*
X181930646Y-104398435D03*
X174241829Y-91951021D03*
X197224771Y-128529174D03*
X151884217Y-128422887D03*
X154269998Y-109860002D03*
X182466875Y-117706020D03*
X150781709Y-82359765D03*
X160028624Y-100051574D03*
X197261587Y-81310977D03*
X174118961Y-115605162D03*
X181750000Y-111100000D03*
X167601259Y-98437911D03*
X198200000Y-82200000D03*
X150945804Y-127533864D03*
X180982462Y-99177736D03*
X180806316Y-104839451D03*
X168950000Y-97400000D03*
X165050000Y-112600000D03*
X175759285Y-114497678D03*
X181547594Y-115204811D03*
X179903619Y-93036362D03*
X151670732Y-81421352D03*
X182844413Y-123989163D03*
%TO.N,VBAT*%
X183150000Y-119100000D03*
D17*
X185750000Y-126500000D03*
D18*
X177000000Y-86750000D03*
D17*
X162250000Y-98000000D03*
D18*
X154350000Y-101200000D03*
%TO.N,/ICM_INT1*%
X184050000Y-110800000D03*
X181950000Y-117400000D03*
%TO.N,+5VBAT*%
X190350000Y-106400000D03*
X162250000Y-109500000D03*
%TO.N,/BMP_SCLK*%
X173750000Y-114300000D03*
X174150000Y-110000000D03*
%TO.N,/BOOT*%
X173500000Y-92250000D03*
X180500000Y-98500000D03*
%TO.N,/BMP_SDI*%
X177150000Y-107500000D03*
X175250000Y-114000000D03*
%TO.N,+5V*%
X164550110Y-123401685D03*
D17*
X188050000Y-114800000D03*
D18*
X186750000Y-109000000D03*
X197950000Y-97600000D03*
X170550000Y-123300000D03*
%TO.N,Net-(U2-FB)*%
X159500000Y-100500000D03*
X154750000Y-109500000D03*
%TO.N,Net-(U4-FB)*%
X173648970Y-122483732D03*
X183599998Y-123934715D03*
%TO.N,/FLASH_SCLK*%
X165750000Y-112250000D03*
X166750000Y-114500000D03*
D19*
%TO.N,/ICM_MISO*%
X181000000Y-115750000D03*
X181750000Y-110250000D03*
D18*
%TO.N,/VTX_RX*%
X182313188Y-104936812D03*
%TO.N,/VTX_TX*%
X181250000Y-105250000D03*
%TO.N,/GPS_RX*%
X168249059Y-98382122D03*
X173150000Y-102600000D03*
%TO.N,/GPS_TX*%
X173950000Y-101600000D03*
X168728554Y-98021446D03*
%TD*%
%TA.AperFunction,Conductor*%
%TO.N,VBAT*%
G36*
X196434890Y-80520185D02*
G01*
X196480645Y-80572989D01*
X196490589Y-80642147D01*
X196470953Y-80693391D01*
X196374958Y-80837056D01*
X196374951Y-80837069D01*
X196299537Y-81019137D01*
X196299534Y-81019147D01*
X196261087Y-81212433D01*
X196261087Y-81212436D01*
X196261087Y-81409518D01*
X196261087Y-81409520D01*
X196261086Y-81409520D01*
X196299534Y-81602806D01*
X196299537Y-81602816D01*
X196374951Y-81784884D01*
X196374958Y-81784897D01*
X196484447Y-81948758D01*
X196484450Y-81948762D01*
X196623801Y-82088113D01*
X196623805Y-82088116D01*
X196787666Y-82197605D01*
X196787679Y-82197612D01*
X196969747Y-82273026D01*
X196969752Y-82273028D01*
X197036687Y-82286342D01*
X197122418Y-82303396D01*
X197184329Y-82335781D01*
X197218904Y-82396497D01*
X197219844Y-82400821D01*
X197237947Y-82491829D01*
X197237950Y-82491839D01*
X197313364Y-82673907D01*
X197313371Y-82673920D01*
X197422860Y-82837781D01*
X197422863Y-82837785D01*
X197562214Y-82977136D01*
X197562218Y-82977139D01*
X197726079Y-83086628D01*
X197726092Y-83086635D01*
X197847447Y-83136901D01*
X197908165Y-83162051D01*
X197908169Y-83162051D01*
X197908170Y-83162052D01*
X198101456Y-83200500D01*
X198101459Y-83200500D01*
X198298543Y-83200500D01*
X198452099Y-83169955D01*
X198491835Y-83162051D01*
X198673914Y-83086632D01*
X198806609Y-82997967D01*
X198873286Y-82977090D01*
X198940666Y-82995574D01*
X198987357Y-83047553D01*
X198999500Y-83101070D01*
X198999500Y-96961061D01*
X198979815Y-97028100D01*
X198927011Y-97073855D01*
X198857853Y-97083799D01*
X198794297Y-97054774D01*
X198772398Y-97029952D01*
X198727139Y-96962218D01*
X198727136Y-96962214D01*
X198587785Y-96822863D01*
X198587781Y-96822860D01*
X198423920Y-96713371D01*
X198423907Y-96713364D01*
X198241839Y-96637950D01*
X198241829Y-96637947D01*
X198048543Y-96599500D01*
X198048541Y-96599500D01*
X197851459Y-96599500D01*
X197851457Y-96599500D01*
X197658170Y-96637947D01*
X197658160Y-96637950D01*
X197476092Y-96713364D01*
X197476079Y-96713371D01*
X197312218Y-96822860D01*
X197312214Y-96822863D01*
X197172863Y-96962214D01*
X197172860Y-96962218D01*
X197063371Y-97126079D01*
X197063364Y-97126092D01*
X196987950Y-97308160D01*
X196987947Y-97308170D01*
X196949500Y-97501456D01*
X196949500Y-97501459D01*
X196949500Y-97698541D01*
X196949500Y-97698543D01*
X196949499Y-97698543D01*
X196987947Y-97891829D01*
X196987950Y-97891839D01*
X197063364Y-98073907D01*
X197063371Y-98073920D01*
X197172860Y-98237781D01*
X197172863Y-98237785D01*
X197312214Y-98377136D01*
X197312218Y-98377139D01*
X197476079Y-98486628D01*
X197476092Y-98486635D01*
X197616447Y-98544771D01*
X197658165Y-98562051D01*
X197658169Y-98562051D01*
X197658170Y-98562052D01*
X197851456Y-98600500D01*
X197851459Y-98600500D01*
X198048543Y-98600500D01*
X198178582Y-98574632D01*
X198241835Y-98562051D01*
X198423914Y-98486632D01*
X198587782Y-98377139D01*
X198727139Y-98237782D01*
X198746927Y-98208167D01*
X198772398Y-98170048D01*
X198826010Y-98125242D01*
X198895335Y-98116535D01*
X198958362Y-98146689D01*
X198995082Y-98206132D01*
X198999500Y-98238938D01*
X198999500Y-126762183D01*
X198979815Y-126829222D01*
X198927011Y-126874977D01*
X198857853Y-126884921D01*
X198794297Y-126855896D01*
X198787819Y-126849864D01*
X198751579Y-126813624D01*
X198751575Y-126813621D01*
X198587714Y-126704132D01*
X198587701Y-126704125D01*
X198405633Y-126628711D01*
X198405623Y-126628708D01*
X198212337Y-126590261D01*
X198212335Y-126590261D01*
X198015253Y-126590261D01*
X198015251Y-126590261D01*
X197821964Y-126628708D01*
X197821954Y-126628711D01*
X197639886Y-126704125D01*
X197639873Y-126704132D01*
X197476012Y-126813621D01*
X197476008Y-126813624D01*
X197336657Y-126952975D01*
X197336654Y-126952979D01*
X197227165Y-127116840D01*
X197227158Y-127116853D01*
X197151744Y-127298921D01*
X197151741Y-127298931D01*
X197121374Y-127451593D01*
X197088989Y-127513504D01*
X197028273Y-127548078D01*
X197023950Y-127549018D01*
X196932940Y-127567122D01*
X196932931Y-127567124D01*
X196750863Y-127642538D01*
X196750850Y-127642545D01*
X196586989Y-127752034D01*
X196586985Y-127752037D01*
X196447634Y-127891388D01*
X196447631Y-127891392D01*
X196338142Y-128055253D01*
X196338135Y-128055266D01*
X196262721Y-128237334D01*
X196262718Y-128237344D01*
X196224271Y-128430630D01*
X196224271Y-128430633D01*
X196224271Y-128627715D01*
X196224271Y-128627717D01*
X196224270Y-128627717D01*
X196262718Y-128821003D01*
X196262721Y-128821013D01*
X196338135Y-129003081D01*
X196338142Y-129003094D01*
X196447631Y-129166955D01*
X196447634Y-129166959D01*
X196568494Y-129287819D01*
X196601979Y-129349142D01*
X196596995Y-129418834D01*
X196555123Y-129474767D01*
X196489659Y-129499184D01*
X196480813Y-129499500D01*
X169625747Y-129499500D01*
X169558708Y-129479815D01*
X169512953Y-129427011D01*
X169503009Y-129357853D01*
X169532034Y-129294297D01*
X169552861Y-129275183D01*
X169561805Y-129268683D01*
X169575229Y-129258931D01*
X169758931Y-129075229D01*
X169911634Y-128865051D01*
X170029579Y-128633572D01*
X170109860Y-128386493D01*
X170142453Y-128180705D01*
X170150500Y-128129902D01*
X170150500Y-127870097D01*
X170128947Y-127734021D01*
X170109860Y-127613507D01*
X170029579Y-127366428D01*
X170029577Y-127366425D01*
X170029577Y-127366423D01*
X169966194Y-127242029D01*
X169911634Y-127134949D01*
X169758931Y-126924771D01*
X169575229Y-126741069D01*
X169524636Y-126704311D01*
X169365054Y-126588368D01*
X169365053Y-126588367D01*
X169365051Y-126588366D01*
X169257104Y-126533364D01*
X169133576Y-126470422D01*
X168886493Y-126390140D01*
X168629902Y-126349500D01*
X168629897Y-126349500D01*
X168370103Y-126349500D01*
X168370098Y-126349500D01*
X168113506Y-126390140D01*
X167866423Y-126470422D01*
X167634945Y-126588368D01*
X167424774Y-126741066D01*
X167424768Y-126741071D01*
X167317681Y-126848159D01*
X167256358Y-126881644D01*
X167186666Y-126876660D01*
X167142319Y-126848159D01*
X167035231Y-126741071D01*
X167035225Y-126741066D01*
X166825054Y-126588368D01*
X166825053Y-126588367D01*
X166825051Y-126588366D01*
X166717104Y-126533364D01*
X166593576Y-126470422D01*
X166346493Y-126390140D01*
X166089902Y-126349500D01*
X166089897Y-126349500D01*
X165830103Y-126349500D01*
X165830098Y-126349500D01*
X165573506Y-126390140D01*
X165326423Y-126470422D01*
X165094945Y-126588368D01*
X164884774Y-126741066D01*
X164884768Y-126741071D01*
X164777681Y-126848159D01*
X164716358Y-126881644D01*
X164646666Y-126876660D01*
X164602319Y-126848159D01*
X164495231Y-126741071D01*
X164495225Y-126741066D01*
X164285054Y-126588368D01*
X164285053Y-126588367D01*
X164285051Y-126588366D01*
X164177104Y-126533364D01*
X164053576Y-126470422D01*
X163806493Y-126390140D01*
X163549902Y-126349500D01*
X163549897Y-126349500D01*
X163290103Y-126349500D01*
X163290098Y-126349500D01*
X163033506Y-126390140D01*
X162786423Y-126470422D01*
X162554946Y-126588367D01*
X162493219Y-126633214D01*
X162427413Y-126656693D01*
X162359359Y-126640867D01*
X162332654Y-126620576D01*
X162232262Y-126520184D01*
X162079523Y-126424211D01*
X161909254Y-126364631D01*
X161909249Y-126364630D01*
X161774960Y-126349500D01*
X161774954Y-126349500D01*
X159985046Y-126349500D01*
X159985039Y-126349500D01*
X159850750Y-126364630D01*
X159850745Y-126364631D01*
X159680476Y-126424211D01*
X159527737Y-126520184D01*
X159400184Y-126647737D01*
X159304211Y-126800476D01*
X159244631Y-126970745D01*
X159244630Y-126970750D01*
X159229500Y-127105039D01*
X159229500Y-128894960D01*
X159244630Y-129029249D01*
X159244631Y-129029254D01*
X159304211Y-129199524D01*
X159373332Y-129309527D01*
X159392333Y-129376764D01*
X159371966Y-129443599D01*
X159318698Y-129488814D01*
X159268339Y-129499500D01*
X152503751Y-129499500D01*
X152496266Y-129499274D01*
X152490478Y-129498924D01*
X152476845Y-129498099D01*
X152411117Y-129474400D01*
X152368635Y-129418929D01*
X152362887Y-129349296D01*
X152395698Y-129287610D01*
X152415438Y-129271227D01*
X152521999Y-129200026D01*
X152661356Y-129060669D01*
X152770849Y-128896801D01*
X152846268Y-128714722D01*
X152871338Y-128588687D01*
X152884717Y-128521430D01*
X152884717Y-128324343D01*
X152846269Y-128131057D01*
X152846268Y-128131056D01*
X152846268Y-128131052D01*
X152814874Y-128055260D01*
X152770852Y-127948979D01*
X152770845Y-127948966D01*
X152661356Y-127785105D01*
X152661353Y-127785101D01*
X152522002Y-127645750D01*
X152521998Y-127645747D01*
X152358137Y-127536258D01*
X152358124Y-127536251D01*
X152176056Y-127460837D01*
X152176046Y-127460834D01*
X152023384Y-127430467D01*
X151961473Y-127398082D01*
X151926899Y-127337366D01*
X151925959Y-127333041D01*
X151907856Y-127242036D01*
X151907855Y-127242029D01*
X151907853Y-127242024D01*
X151832439Y-127059956D01*
X151832432Y-127059943D01*
X151722943Y-126896082D01*
X151722940Y-126896078D01*
X151583589Y-126756727D01*
X151583585Y-126756724D01*
X151419724Y-126647235D01*
X151419711Y-126647228D01*
X151237643Y-126571814D01*
X151237633Y-126571811D01*
X151044347Y-126533364D01*
X151044345Y-126533364D01*
X150847263Y-126533364D01*
X150847261Y-126533364D01*
X150653974Y-126571811D01*
X150653964Y-126571814D01*
X150471896Y-126647228D01*
X150471883Y-126647235D01*
X150308022Y-126756724D01*
X150308018Y-126756727D01*
X150212181Y-126852565D01*
X150150858Y-126886050D01*
X150081166Y-126881066D01*
X150025233Y-126839194D01*
X150000816Y-126773730D01*
X150000500Y-126764884D01*
X150000500Y-119995679D01*
X150020185Y-119928640D01*
X150072989Y-119882885D01*
X150142147Y-119872941D01*
X150197383Y-119895360D01*
X150384949Y-120031634D01*
X150471188Y-120075575D01*
X150616423Y-120149577D01*
X150616425Y-120149577D01*
X150616428Y-120149579D01*
X150863507Y-120229860D01*
X150995706Y-120250797D01*
X151120098Y-120270500D01*
X151120103Y-120270500D01*
X151379902Y-120270500D01*
X151493298Y-120252539D01*
X151636493Y-120229860D01*
X151883572Y-120149579D01*
X152028806Y-120075578D01*
X155699500Y-120075578D01*
X155699500Y-120424421D01*
X155733692Y-120771594D01*
X155801744Y-121113721D01*
X155801747Y-121113732D01*
X155903016Y-121447571D01*
X155997414Y-121675468D01*
X156010306Y-121706592D01*
X156036516Y-121769867D01*
X156036518Y-121769872D01*
X156200955Y-122077511D01*
X156200972Y-122077539D01*
X156394759Y-122367563D01*
X156394776Y-122367586D01*
X156616084Y-122637251D01*
X156862748Y-122883915D01*
X156862753Y-122883919D01*
X156862754Y-122883920D01*
X157132419Y-123105228D01*
X157132426Y-123105233D01*
X157132436Y-123105240D01*
X157422460Y-123299027D01*
X157422465Y-123299030D01*
X157422477Y-123299038D01*
X157422486Y-123299042D01*
X157422488Y-123299044D01*
X157730127Y-123463481D01*
X157730129Y-123463481D01*
X157730135Y-123463485D01*
X158052430Y-123596984D01*
X158386258Y-123698250D01*
X158386264Y-123698251D01*
X158386267Y-123698252D01*
X158386278Y-123698255D01*
X158728405Y-123766307D01*
X159075575Y-123800500D01*
X159075578Y-123800500D01*
X159424422Y-123800500D01*
X159424425Y-123800500D01*
X159771595Y-123766307D01*
X159838197Y-123753059D01*
X160113721Y-123698255D01*
X160113732Y-123698252D01*
X160113732Y-123698251D01*
X160113742Y-123698250D01*
X160447570Y-123596984D01*
X160681160Y-123500228D01*
X163549609Y-123500228D01*
X163588057Y-123693514D01*
X163588060Y-123693524D01*
X163663474Y-123875592D01*
X163663481Y-123875605D01*
X163772970Y-124039466D01*
X163772973Y-124039470D01*
X163912324Y-124178821D01*
X163912328Y-124178824D01*
X164076189Y-124288313D01*
X164076202Y-124288320D01*
X164258270Y-124363734D01*
X164258275Y-124363736D01*
X164258279Y-124363736D01*
X164258280Y-124363737D01*
X164451566Y-124402185D01*
X164451569Y-124402185D01*
X164648653Y-124402185D01*
X164778692Y-124376317D01*
X164841945Y-124363736D01*
X165024024Y-124288317D01*
X165187892Y-124178824D01*
X165327249Y-124039467D01*
X165436742Y-123875599D01*
X165512161Y-123693520D01*
X165524742Y-123630267D01*
X165550610Y-123500228D01*
X165550610Y-123398543D01*
X169549499Y-123398543D01*
X169587947Y-123591829D01*
X169587950Y-123591839D01*
X169663364Y-123773907D01*
X169663371Y-123773920D01*
X169772860Y-123937781D01*
X169772863Y-123937785D01*
X169912214Y-124077136D01*
X169912218Y-124077139D01*
X170076079Y-124186628D01*
X170076092Y-124186635D01*
X170258160Y-124262049D01*
X170258165Y-124262051D01*
X170258169Y-124262051D01*
X170258170Y-124262052D01*
X170451456Y-124300500D01*
X170451459Y-124300500D01*
X170648543Y-124300500D01*
X170778582Y-124274632D01*
X170841835Y-124262051D01*
X171023914Y-124186632D01*
X171171967Y-124087706D01*
X181843912Y-124087706D01*
X181882360Y-124280992D01*
X181882363Y-124281002D01*
X181957777Y-124463070D01*
X181957784Y-124463083D01*
X182067273Y-124626944D01*
X182067276Y-124626948D01*
X182206627Y-124766299D01*
X182206631Y-124766302D01*
X182370492Y-124875791D01*
X182370505Y-124875798D01*
X182552573Y-124951212D01*
X182552578Y-124951214D01*
X182552582Y-124951214D01*
X182552583Y-124951215D01*
X182745869Y-124989663D01*
X182745872Y-124989663D01*
X182942956Y-124989663D01*
X183072995Y-124963795D01*
X183136248Y-124951214D01*
X183246076Y-124905721D01*
X183315540Y-124898253D01*
X183317670Y-124898657D01*
X183394681Y-124913975D01*
X183501454Y-124935215D01*
X183501457Y-124935215D01*
X183698541Y-124935215D01*
X183828580Y-124909347D01*
X183891833Y-124896766D01*
X184073912Y-124821347D01*
X184237780Y-124711854D01*
X184377137Y-124572497D01*
X184486630Y-124408629D01*
X184562049Y-124226550D01*
X184589667Y-124087706D01*
X184600498Y-124033258D01*
X184600498Y-123836171D01*
X184562050Y-123642885D01*
X184562049Y-123642884D01*
X184562049Y-123642880D01*
X184562047Y-123642875D01*
X184486633Y-123460807D01*
X184486626Y-123460794D01*
X184377137Y-123296933D01*
X184377134Y-123296929D01*
X184237783Y-123157578D01*
X184237779Y-123157575D01*
X184073918Y-123048086D01*
X184073905Y-123048079D01*
X183891837Y-122972665D01*
X183891827Y-122972662D01*
X183698541Y-122934215D01*
X183698539Y-122934215D01*
X183501457Y-122934215D01*
X183501455Y-122934215D01*
X183308169Y-122972662D01*
X183308166Y-122972663D01*
X183308164Y-122972663D01*
X183308163Y-122972664D01*
X183308161Y-122972665D01*
X183198335Y-123018155D01*
X183128866Y-123025622D01*
X183126693Y-123025210D01*
X182942958Y-122988663D01*
X182942954Y-122988663D01*
X182745872Y-122988663D01*
X182745870Y-122988663D01*
X182552583Y-123027110D01*
X182552573Y-123027113D01*
X182370505Y-123102527D01*
X182370492Y-123102534D01*
X182206631Y-123212023D01*
X182206627Y-123212026D01*
X182067276Y-123351377D01*
X182067273Y-123351381D01*
X181957784Y-123515242D01*
X181957777Y-123515255D01*
X181882363Y-123697323D01*
X181882360Y-123697333D01*
X181843913Y-123890619D01*
X181843913Y-123890622D01*
X181843913Y-124087704D01*
X181843913Y-124087706D01*
X181843912Y-124087706D01*
X171171967Y-124087706D01*
X171187782Y-124077139D01*
X171327139Y-123937782D01*
X171368693Y-123875592D01*
X171408753Y-123815639D01*
X171436628Y-123773920D01*
X171436628Y-123773919D01*
X171436632Y-123773914D01*
X171512051Y-123591835D01*
X171527285Y-123515249D01*
X171550500Y-123398543D01*
X171550500Y-123201456D01*
X171512052Y-123008170D01*
X171512051Y-123008169D01*
X171512051Y-123008165D01*
X171481420Y-122934215D01*
X171436635Y-122826092D01*
X171436628Y-122826079D01*
X171327139Y-122662218D01*
X171327136Y-122662214D01*
X171247197Y-122582275D01*
X172648469Y-122582275D01*
X172686917Y-122775561D01*
X172686920Y-122775571D01*
X172762334Y-122957639D01*
X172762341Y-122957652D01*
X172871830Y-123121513D01*
X172871833Y-123121517D01*
X173011184Y-123260868D01*
X173011188Y-123260871D01*
X173175049Y-123370360D01*
X173175062Y-123370367D01*
X173357130Y-123445781D01*
X173357135Y-123445783D01*
X173357139Y-123445783D01*
X173357140Y-123445784D01*
X173550426Y-123484232D01*
X173550429Y-123484232D01*
X173747513Y-123484232D01*
X173877552Y-123458364D01*
X173940805Y-123445783D01*
X174122884Y-123370364D01*
X174286752Y-123260871D01*
X174426109Y-123121514D01*
X174535602Y-122957646D01*
X174611021Y-122775567D01*
X174641061Y-122624548D01*
X174649470Y-122582275D01*
X174649470Y-122385188D01*
X174611022Y-122191902D01*
X174611021Y-122191901D01*
X174611021Y-122191897D01*
X174563641Y-122077511D01*
X174535605Y-122009824D01*
X174535598Y-122009811D01*
X174426109Y-121845950D01*
X174426106Y-121845946D01*
X174286755Y-121706595D01*
X174286751Y-121706592D01*
X174122890Y-121597103D01*
X174122877Y-121597096D01*
X173940809Y-121521682D01*
X173940799Y-121521679D01*
X173747513Y-121483232D01*
X173747511Y-121483232D01*
X173550429Y-121483232D01*
X173550427Y-121483232D01*
X173357140Y-121521679D01*
X173357130Y-121521682D01*
X173175062Y-121597096D01*
X173175049Y-121597103D01*
X173011188Y-121706592D01*
X173011184Y-121706595D01*
X172871833Y-121845946D01*
X172871830Y-121845950D01*
X172762341Y-122009811D01*
X172762334Y-122009824D01*
X172686920Y-122191892D01*
X172686917Y-122191902D01*
X172648470Y-122385188D01*
X172648470Y-122385191D01*
X172648470Y-122582273D01*
X172648470Y-122582275D01*
X172648469Y-122582275D01*
X171247197Y-122582275D01*
X171187785Y-122522863D01*
X171187781Y-122522860D01*
X171126931Y-122482201D01*
X171023920Y-122413371D01*
X171023907Y-122413364D01*
X170841839Y-122337950D01*
X170841829Y-122337947D01*
X170648543Y-122299500D01*
X170648541Y-122299500D01*
X170451459Y-122299500D01*
X170451457Y-122299500D01*
X170258170Y-122337947D01*
X170258160Y-122337950D01*
X170076092Y-122413364D01*
X170076079Y-122413371D01*
X169912218Y-122522860D01*
X169912214Y-122522863D01*
X169772863Y-122662214D01*
X169772860Y-122662218D01*
X169663371Y-122826079D01*
X169663364Y-122826092D01*
X169587950Y-123008160D01*
X169587947Y-123008170D01*
X169549500Y-123201456D01*
X169549500Y-123201459D01*
X169549500Y-123398541D01*
X169549500Y-123398543D01*
X169549499Y-123398543D01*
X165550610Y-123398543D01*
X165550610Y-123303141D01*
X165533984Y-123219559D01*
X165533984Y-123219558D01*
X165521654Y-123157575D01*
X165512161Y-123109850D01*
X165512159Y-123109845D01*
X165436745Y-122927777D01*
X165436738Y-122927764D01*
X165327249Y-122763903D01*
X165327246Y-122763899D01*
X165187895Y-122624548D01*
X165187891Y-122624545D01*
X165024030Y-122515056D01*
X165024017Y-122515049D01*
X164841949Y-122439635D01*
X164841939Y-122439632D01*
X164648653Y-122401185D01*
X164648651Y-122401185D01*
X164451569Y-122401185D01*
X164451567Y-122401185D01*
X164258280Y-122439632D01*
X164258270Y-122439635D01*
X164076202Y-122515049D01*
X164076189Y-122515056D01*
X163912328Y-122624545D01*
X163912324Y-122624548D01*
X163772973Y-122763899D01*
X163772970Y-122763903D01*
X163663481Y-122927764D01*
X163663474Y-122927777D01*
X163588060Y-123109845D01*
X163588057Y-123109855D01*
X163549610Y-123303141D01*
X163549610Y-123303144D01*
X163549610Y-123500226D01*
X163549610Y-123500228D01*
X163549609Y-123500228D01*
X160681160Y-123500228D01*
X160769865Y-123463485D01*
X161077523Y-123299038D01*
X161367581Y-123105228D01*
X161637246Y-122883920D01*
X161883920Y-122637246D01*
X162105228Y-122367581D01*
X162299038Y-122077523D01*
X162463485Y-121769865D01*
X162596984Y-121447570D01*
X162698250Y-121113742D01*
X162698252Y-121113732D01*
X162698255Y-121113721D01*
X162766307Y-120771594D01*
X162800500Y-120424421D01*
X162800500Y-120075578D01*
X186199500Y-120075578D01*
X186199500Y-120424421D01*
X186233692Y-120771594D01*
X186301744Y-121113721D01*
X186301747Y-121113732D01*
X186403016Y-121447571D01*
X186497414Y-121675468D01*
X186510306Y-121706592D01*
X186536516Y-121769867D01*
X186536518Y-121769872D01*
X186700955Y-122077511D01*
X186700972Y-122077539D01*
X186894759Y-122367563D01*
X186894776Y-122367586D01*
X187116084Y-122637251D01*
X187362748Y-122883915D01*
X187362753Y-122883919D01*
X187362754Y-122883920D01*
X187632419Y-123105228D01*
X187632426Y-123105233D01*
X187632436Y-123105240D01*
X187922460Y-123299027D01*
X187922465Y-123299030D01*
X187922477Y-123299038D01*
X187922486Y-123299042D01*
X187922488Y-123299044D01*
X188230127Y-123463481D01*
X188230129Y-123463481D01*
X188230135Y-123463485D01*
X188552430Y-123596984D01*
X188886258Y-123698250D01*
X188886264Y-123698251D01*
X188886267Y-123698252D01*
X188886278Y-123698255D01*
X189228405Y-123766307D01*
X189575575Y-123800500D01*
X189575578Y-123800500D01*
X189924422Y-123800500D01*
X189924425Y-123800500D01*
X190271595Y-123766307D01*
X190338197Y-123753059D01*
X190613721Y-123698255D01*
X190613732Y-123698252D01*
X190613732Y-123698251D01*
X190613742Y-123698250D01*
X190947570Y-123596984D01*
X191269865Y-123463485D01*
X191577523Y-123299038D01*
X191867581Y-123105228D01*
X192137246Y-122883920D01*
X192383920Y-122637246D01*
X192605228Y-122367581D01*
X192799038Y-122077523D01*
X192963485Y-121769865D01*
X193096984Y-121447570D01*
X193198250Y-121113742D01*
X193198252Y-121113732D01*
X193198255Y-121113721D01*
X193266307Y-120771594D01*
X193300500Y-120424421D01*
X193300500Y-120075578D01*
X193282750Y-119895361D01*
X193266307Y-119728405D01*
X193217902Y-119485054D01*
X193198255Y-119386278D01*
X193198252Y-119386267D01*
X193198251Y-119386264D01*
X193198250Y-119386258D01*
X193096984Y-119052430D01*
X192963485Y-118730135D01*
X192950862Y-118706520D01*
X192799044Y-118422488D01*
X192799042Y-118422486D01*
X192799038Y-118422477D01*
X192799027Y-118422460D01*
X192605240Y-118132436D01*
X192605233Y-118132426D01*
X192605228Y-118132419D01*
X192383920Y-117862754D01*
X192383919Y-117862753D01*
X192383915Y-117862748D01*
X192137251Y-117616084D01*
X191867586Y-117394776D01*
X191867563Y-117394759D01*
X191796987Y-117347602D01*
X191752181Y-117293990D01*
X191743474Y-117224665D01*
X191773628Y-117161638D01*
X191833071Y-117124918D01*
X191865877Y-117120500D01*
X193134851Y-117120500D01*
X193134852Y-117120500D01*
X193337034Y-117088477D01*
X193531719Y-117025220D01*
X193714110Y-116932287D01*
X193826154Y-116850883D01*
X193879713Y-116811971D01*
X193879715Y-116811968D01*
X193879719Y-116811966D01*
X194024466Y-116667219D01*
X194024468Y-116667215D01*
X194024471Y-116667213D01*
X194117161Y-116539634D01*
X194144787Y-116501610D01*
X194237720Y-116319219D01*
X194300977Y-116124534D01*
X194333000Y-115922352D01*
X194333000Y-115717648D01*
X194962000Y-115717648D01*
X194962000Y-115922351D01*
X194994022Y-116124534D01*
X195057281Y-116319223D01*
X195096227Y-116395657D01*
X195150212Y-116501609D01*
X195150215Y-116501613D01*
X195270528Y-116667213D01*
X195415286Y-116811971D01*
X195568092Y-116922989D01*
X195580890Y-116932287D01*
X195697107Y-116991503D01*
X195763276Y-117025218D01*
X195763278Y-117025218D01*
X195763281Y-117025220D01*
X195798047Y-117036516D01*
X195957965Y-117088477D01*
X196059057Y-117104488D01*
X196160148Y-117120500D01*
X196160149Y-117120500D01*
X197164851Y-117120500D01*
X197164852Y-117120500D01*
X197367034Y-117088477D01*
X197561719Y-117025220D01*
X197744110Y-116932287D01*
X197856154Y-116850883D01*
X197909713Y-116811971D01*
X197909715Y-116811968D01*
X197909719Y-116811966D01*
X198054466Y-116667219D01*
X198054468Y-116667215D01*
X198054471Y-116667213D01*
X198147161Y-116539634D01*
X198174787Y-116501610D01*
X198267720Y-116319219D01*
X198330977Y-116124534D01*
X198363000Y-115922352D01*
X198363000Y-115717648D01*
X198343349Y-115593579D01*
X198330977Y-115515465D01*
X198288362Y-115384310D01*
X198267720Y-115320781D01*
X198267718Y-115320778D01*
X198267718Y-115320776D01*
X198215413Y-115218123D01*
X198174787Y-115138390D01*
X198151451Y-115106270D01*
X198054471Y-114972786D01*
X197909713Y-114828028D01*
X197744113Y-114707715D01*
X197744112Y-114707714D01*
X197744110Y-114707713D01*
X197674958Y-114672478D01*
X197561723Y-114614781D01*
X197367034Y-114551522D01*
X197186066Y-114522860D01*
X197164852Y-114519500D01*
X196160148Y-114519500D01*
X196138934Y-114522860D01*
X195957965Y-114551522D01*
X195763276Y-114614781D01*
X195580886Y-114707715D01*
X195415286Y-114828028D01*
X195270528Y-114972786D01*
X195150215Y-115138386D01*
X195057281Y-115320776D01*
X194994022Y-115515465D01*
X194962000Y-115717648D01*
X194333000Y-115717648D01*
X194313349Y-115593579D01*
X194300977Y-115515465D01*
X194258362Y-115384310D01*
X194237720Y-115320781D01*
X194237718Y-115320778D01*
X194237718Y-115320776D01*
X194185413Y-115218123D01*
X194144787Y-115138390D01*
X194121451Y-115106270D01*
X194024471Y-114972786D01*
X193879713Y-114828028D01*
X193714114Y-114707715D01*
X193648961Y-114674518D01*
X193609178Y-114654247D01*
X193558383Y-114606273D01*
X193541588Y-114538452D01*
X193545699Y-114511673D01*
X193558000Y-114465766D01*
X193558000Y-114314234D01*
X193518781Y-114167865D01*
X193443015Y-114036635D01*
X193335865Y-113929485D01*
X193219349Y-113862214D01*
X193204636Y-113853719D01*
X193101480Y-113826079D01*
X193058266Y-113814500D01*
X192906734Y-113814500D01*
X192760363Y-113853719D01*
X192629135Y-113929485D01*
X192629132Y-113929487D01*
X192521987Y-114036632D01*
X192521985Y-114036635D01*
X192446219Y-114167863D01*
X192407000Y-114314234D01*
X192407000Y-114395500D01*
X192387315Y-114462539D01*
X192334511Y-114508294D01*
X192283000Y-114519500D01*
X191830148Y-114519500D01*
X191808934Y-114522860D01*
X191627965Y-114551522D01*
X191433276Y-114614781D01*
X191250886Y-114707715D01*
X191085286Y-114828028D01*
X190940528Y-114972786D01*
X190820215Y-115138386D01*
X190727281Y-115320776D01*
X190664022Y-115515465D01*
X190632000Y-115717648D01*
X190632000Y-115922351D01*
X190664022Y-116124534D01*
X190727281Y-116319223D01*
X190820212Y-116501609D01*
X190941248Y-116668202D01*
X190964727Y-116734009D01*
X190948901Y-116802062D01*
X190898795Y-116850757D01*
X190830317Y-116864632D01*
X190804936Y-116859748D01*
X190613742Y-116801750D01*
X190613741Y-116801749D01*
X190613732Y-116801747D01*
X190613721Y-116801744D01*
X190271594Y-116733692D01*
X190010120Y-116707940D01*
X189924425Y-116699500D01*
X189575575Y-116699500D01*
X189496394Y-116707298D01*
X189228405Y-116733692D01*
X188886278Y-116801744D01*
X188886267Y-116801747D01*
X188552428Y-116903016D01*
X188230132Y-117036516D01*
X188230127Y-117036518D01*
X187922488Y-117200955D01*
X187922460Y-117200972D01*
X187632436Y-117394759D01*
X187632413Y-117394776D01*
X187362748Y-117616084D01*
X187116084Y-117862748D01*
X186894776Y-118132413D01*
X186894759Y-118132436D01*
X186700972Y-118422460D01*
X186700955Y-118422488D01*
X186536518Y-118730127D01*
X186536516Y-118730132D01*
X186403016Y-119052428D01*
X186301747Y-119386267D01*
X186301744Y-119386278D01*
X186233692Y-119728405D01*
X186199500Y-120075578D01*
X162800500Y-120075578D01*
X162782750Y-119895361D01*
X162766307Y-119728405D01*
X162717902Y-119485054D01*
X162698255Y-119386278D01*
X162698252Y-119386267D01*
X162698251Y-119386264D01*
X162698250Y-119386258D01*
X162596984Y-119052430D01*
X162463485Y-118730135D01*
X162450862Y-118706520D01*
X162299044Y-118422488D01*
X162299042Y-118422486D01*
X162299038Y-118422477D01*
X162299027Y-118422460D01*
X162105240Y-118132436D01*
X162105233Y-118132426D01*
X162105228Y-118132419D01*
X161883920Y-117862754D01*
X161883919Y-117862753D01*
X161883915Y-117862748D01*
X161637251Y-117616084D01*
X161617930Y-117600228D01*
X166949609Y-117600228D01*
X166988057Y-117793514D01*
X166988060Y-117793524D01*
X167063474Y-117975592D01*
X167063481Y-117975605D01*
X167172970Y-118139466D01*
X167172973Y-118139470D01*
X167312324Y-118278821D01*
X167312328Y-118278824D01*
X167476189Y-118388313D01*
X167476202Y-118388320D01*
X167658270Y-118463734D01*
X167658275Y-118463736D01*
X167658279Y-118463736D01*
X167658280Y-118463737D01*
X167851566Y-118502185D01*
X167851569Y-118502185D01*
X168048653Y-118502185D01*
X168178692Y-118476317D01*
X168241945Y-118463736D01*
X168424024Y-118388317D01*
X168587892Y-118278824D01*
X168706277Y-118160439D01*
X173463409Y-118160439D01*
X173463409Y-118367378D01*
X173503777Y-118570321D01*
X173503779Y-118570329D01*
X173582967Y-118761505D01*
X173697933Y-118933566D01*
X173844251Y-119079884D01*
X173844254Y-119079886D01*
X174016311Y-119194850D01*
X174207489Y-119274039D01*
X174410439Y-119314408D01*
X174410443Y-119314409D01*
X174410444Y-119314409D01*
X174617375Y-119314409D01*
X174617376Y-119314408D01*
X174820329Y-119274039D01*
X175011507Y-119194850D01*
X175183564Y-119079886D01*
X175329886Y-118933564D01*
X175444850Y-118761507D01*
X175524039Y-118570329D01*
X175564409Y-118367374D01*
X175564409Y-118160444D01*
X175524039Y-117957489D01*
X175444850Y-117766311D01*
X175329886Y-117594254D01*
X175329884Y-117594251D01*
X175183566Y-117447933D01*
X175020431Y-117338931D01*
X175011507Y-117332968D01*
X174917406Y-117293990D01*
X174820329Y-117253779D01*
X174820321Y-117253777D01*
X174617378Y-117213409D01*
X174617374Y-117213409D01*
X174410444Y-117213409D01*
X174410439Y-117213409D01*
X174207496Y-117253777D01*
X174207488Y-117253779D01*
X174016312Y-117332967D01*
X173844251Y-117447933D01*
X173697933Y-117594251D01*
X173582967Y-117766312D01*
X173503779Y-117957488D01*
X173503777Y-117957496D01*
X173463409Y-118160439D01*
X168706277Y-118160439D01*
X168727249Y-118139467D01*
X168795194Y-118037781D01*
X168836738Y-117975605D01*
X168836738Y-117975604D01*
X168836742Y-117975599D01*
X168844241Y-117957496D01*
X168878864Y-117873907D01*
X168912161Y-117793520D01*
X168947456Y-117616084D01*
X168950610Y-117600228D01*
X168950610Y-117403141D01*
X168912162Y-117209855D01*
X168912161Y-117209854D01*
X168912161Y-117209850D01*
X168908484Y-117200972D01*
X168836745Y-117027777D01*
X168836738Y-117027764D01*
X168727249Y-116863903D01*
X168727246Y-116863899D01*
X168587895Y-116724548D01*
X168587891Y-116724545D01*
X168424030Y-116615056D01*
X168424017Y-116615049D01*
X168241949Y-116539635D01*
X168241939Y-116539632D01*
X168048653Y-116501185D01*
X168048651Y-116501185D01*
X167851569Y-116501185D01*
X167851567Y-116501185D01*
X167658280Y-116539632D01*
X167658270Y-116539635D01*
X167476202Y-116615049D01*
X167476189Y-116615056D01*
X167312328Y-116724545D01*
X167312324Y-116724548D01*
X167172973Y-116863899D01*
X167172970Y-116863903D01*
X167063481Y-117027764D01*
X167063474Y-117027777D01*
X166988060Y-117209845D01*
X166988057Y-117209855D01*
X166949610Y-117403141D01*
X166949610Y-117403144D01*
X166949610Y-117600226D01*
X166949610Y-117600228D01*
X166949609Y-117600228D01*
X161617930Y-117600228D01*
X161487167Y-117492913D01*
X161487162Y-117492909D01*
X161367581Y-117394772D01*
X161367570Y-117394764D01*
X161367563Y-117394759D01*
X161077539Y-117200972D01*
X161077511Y-117200955D01*
X160769872Y-117036518D01*
X160769867Y-117036516D01*
X160748769Y-117027777D01*
X160662751Y-116992147D01*
X160447571Y-116903016D01*
X160146913Y-116811812D01*
X160113742Y-116801750D01*
X160113741Y-116801749D01*
X160113732Y-116801747D01*
X160113721Y-116801744D01*
X159771594Y-116733692D01*
X159510120Y-116707940D01*
X159424425Y-116699500D01*
X159075575Y-116699500D01*
X158996394Y-116707298D01*
X158728405Y-116733692D01*
X158386278Y-116801744D01*
X158386267Y-116801747D01*
X158052428Y-116903016D01*
X157730132Y-117036516D01*
X157730127Y-117036518D01*
X157422488Y-117200955D01*
X157422460Y-117200972D01*
X157132436Y-117394759D01*
X157132413Y-117394776D01*
X156862748Y-117616084D01*
X156616084Y-117862748D01*
X156394776Y-118132413D01*
X156394759Y-118132436D01*
X156200972Y-118422460D01*
X156200955Y-118422488D01*
X156036518Y-118730127D01*
X156036516Y-118730132D01*
X155903016Y-119052428D01*
X155801747Y-119386267D01*
X155801744Y-119386278D01*
X155733692Y-119728405D01*
X155699500Y-120075578D01*
X152028806Y-120075578D01*
X152115051Y-120031634D01*
X152325229Y-119878931D01*
X152508931Y-119695229D01*
X152661634Y-119485051D01*
X152779579Y-119253572D01*
X152859860Y-119006493D01*
X152882539Y-118863298D01*
X152900500Y-118749902D01*
X152900500Y-118490097D01*
X152877329Y-118343802D01*
X152859860Y-118233507D01*
X152779579Y-117986428D01*
X152779577Y-117986425D01*
X152779577Y-117986423D01*
X152722246Y-117873907D01*
X152661634Y-117754949D01*
X152508931Y-117544771D01*
X152401841Y-117437681D01*
X152368356Y-117376358D01*
X152373340Y-117306666D01*
X152401841Y-117262319D01*
X152454315Y-117209845D01*
X152508931Y-117155229D01*
X152661634Y-116945051D01*
X152779579Y-116713572D01*
X152859860Y-116466493D01*
X152892240Y-116262051D01*
X152900500Y-116209902D01*
X152900500Y-115950097D01*
X152876178Y-115796535D01*
X152859860Y-115693507D01*
X152779579Y-115446428D01*
X152779577Y-115446425D01*
X152779577Y-115446423D01*
X152711760Y-115313327D01*
X152661634Y-115214949D01*
X152649714Y-115198543D01*
X157749499Y-115198543D01*
X157787947Y-115391829D01*
X157787950Y-115391839D01*
X157863364Y-115573907D01*
X157863371Y-115573920D01*
X157972860Y-115737781D01*
X157972863Y-115737785D01*
X158112214Y-115877136D01*
X158112218Y-115877139D01*
X158276079Y-115986628D01*
X158276092Y-115986635D01*
X158458160Y-116062049D01*
X158458165Y-116062051D01*
X158458169Y-116062051D01*
X158458170Y-116062052D01*
X158651456Y-116100500D01*
X158651459Y-116100500D01*
X158848543Y-116100500D01*
X158999988Y-116070375D01*
X159041835Y-116062051D01*
X159223914Y-115986632D01*
X159387782Y-115877139D01*
X159527139Y-115737782D01*
X159636632Y-115573914D01*
X159712051Y-115391835D01*
X159744174Y-115230345D01*
X159750500Y-115198543D01*
X165649499Y-115198543D01*
X165687947Y-115391829D01*
X165687950Y-115391839D01*
X165763364Y-115573907D01*
X165763371Y-115573920D01*
X165872860Y-115737781D01*
X165872863Y-115737785D01*
X166012214Y-115877136D01*
X166012218Y-115877139D01*
X166176079Y-115986628D01*
X166176092Y-115986635D01*
X166358160Y-116062049D01*
X166358165Y-116062051D01*
X166358169Y-116062051D01*
X166358170Y-116062052D01*
X166551456Y-116100500D01*
X166551459Y-116100500D01*
X166748543Y-116100500D01*
X166899988Y-116070375D01*
X166941835Y-116062051D01*
X167123914Y-115986632D01*
X167287782Y-115877139D01*
X167427139Y-115737782D01*
X167536632Y-115573914D01*
X167609272Y-115398543D01*
X169549499Y-115398543D01*
X169587947Y-115591829D01*
X169587950Y-115591839D01*
X169663364Y-115773907D01*
X169663371Y-115773920D01*
X169772860Y-115937781D01*
X169772863Y-115937785D01*
X169912214Y-116077136D01*
X169912218Y-116077139D01*
X170076079Y-116186628D01*
X170076092Y-116186635D01*
X170230732Y-116250688D01*
X170258165Y-116262051D01*
X170258169Y-116262051D01*
X170258170Y-116262052D01*
X170451456Y-116300500D01*
X170451459Y-116300500D01*
X170648543Y-116300500D01*
X170798439Y-116270683D01*
X170841835Y-116262051D01*
X171023914Y-116186632D01*
X171187782Y-116077139D01*
X171327139Y-115937782D01*
X171436632Y-115773914D01*
X171512051Y-115591835D01*
X171530985Y-115496650D01*
X171550500Y-115398543D01*
X171550500Y-115201456D01*
X171512052Y-115008170D01*
X171512051Y-115008169D01*
X171512051Y-115008165D01*
X171495853Y-114969059D01*
X171436635Y-114826092D01*
X171436628Y-114826079D01*
X171327139Y-114662218D01*
X171327136Y-114662214D01*
X171187785Y-114522863D01*
X171187781Y-114522860D01*
X171023920Y-114413371D01*
X171023907Y-114413364D01*
X170988125Y-114398543D01*
X172749499Y-114398543D01*
X172787947Y-114591829D01*
X172787950Y-114591839D01*
X172863364Y-114773907D01*
X172863371Y-114773920D01*
X172972860Y-114937781D01*
X172972863Y-114937785D01*
X173112216Y-115077138D01*
X173120707Y-115082811D01*
X173139231Y-115095188D01*
X173184037Y-115148798D01*
X173192746Y-115218123D01*
X173184904Y-115245742D01*
X173156909Y-115313330D01*
X173156908Y-115313333D01*
X173118461Y-115506618D01*
X173118461Y-115506621D01*
X173118461Y-115703703D01*
X173118461Y-115703705D01*
X173118460Y-115703705D01*
X173156908Y-115896991D01*
X173156911Y-115897001D01*
X173232325Y-116079069D01*
X173232332Y-116079082D01*
X173341821Y-116242943D01*
X173341824Y-116242947D01*
X173481175Y-116382298D01*
X173481179Y-116382301D01*
X173645040Y-116491790D01*
X173645053Y-116491797D01*
X173760546Y-116539635D01*
X173827126Y-116567213D01*
X173827130Y-116567213D01*
X173827131Y-116567214D01*
X174020417Y-116605662D01*
X174020420Y-116605662D01*
X174217504Y-116605662D01*
X174398519Y-116569655D01*
X174410796Y-116567213D01*
X174592875Y-116491794D01*
X174756743Y-116382301D01*
X174896100Y-116242944D01*
X175005593Y-116079076D01*
X175081012Y-115896997D01*
X175105495Y-115773914D01*
X175119461Y-115703705D01*
X175119461Y-115663389D01*
X179899500Y-115663389D01*
X179899500Y-115836611D01*
X179900448Y-115842596D01*
X179925927Y-116003469D01*
X179926598Y-116007701D01*
X179980127Y-116172445D01*
X180058768Y-116326788D01*
X180160586Y-116466928D01*
X180283072Y-116589414D01*
X180423212Y-116691232D01*
X180577555Y-116769873D01*
X180742299Y-116823402D01*
X180913389Y-116850500D01*
X180913391Y-116850500D01*
X180918252Y-116850883D01*
X180918074Y-116853135D01*
X180976137Y-116870185D01*
X181021892Y-116922989D01*
X181031836Y-116992147D01*
X181023659Y-117021952D01*
X180987950Y-117108160D01*
X180987947Y-117108170D01*
X180949500Y-117301456D01*
X180949500Y-117301459D01*
X180949500Y-117498541D01*
X180949500Y-117498543D01*
X180949499Y-117498543D01*
X180987947Y-117691829D01*
X180987950Y-117691839D01*
X181063364Y-117873907D01*
X181063371Y-117873920D01*
X181172860Y-118037781D01*
X181172863Y-118037785D01*
X181312214Y-118177136D01*
X181312218Y-118177139D01*
X181476079Y-118286628D01*
X181476092Y-118286635D01*
X181585333Y-118331883D01*
X181658165Y-118362051D01*
X181683464Y-118367083D01*
X181745373Y-118399467D01*
X181746899Y-118400965D01*
X181809668Y-118463734D01*
X181829094Y-118483160D01*
X181992954Y-118592648D01*
X181992967Y-118592655D01*
X182175035Y-118668069D01*
X182175040Y-118668071D01*
X182175044Y-118668071D01*
X182175045Y-118668072D01*
X182368331Y-118706520D01*
X182368334Y-118706520D01*
X182565418Y-118706520D01*
X182695457Y-118680652D01*
X182758710Y-118668071D01*
X182940789Y-118592652D01*
X183104657Y-118483159D01*
X183244014Y-118343802D01*
X183353507Y-118179934D01*
X183428926Y-117997855D01*
X183441507Y-117934602D01*
X183467375Y-117804563D01*
X183467375Y-117607476D01*
X183428927Y-117414190D01*
X183428926Y-117414189D01*
X183428926Y-117414185D01*
X183424353Y-117403144D01*
X183353510Y-117232112D01*
X183353503Y-117232099D01*
X183244014Y-117068238D01*
X183244011Y-117068234D01*
X183104660Y-116928883D01*
X183104656Y-116928880D01*
X182940795Y-116819391D01*
X182940782Y-116819384D01*
X182758714Y-116743970D01*
X182758704Y-116743967D01*
X182733410Y-116738936D01*
X182671499Y-116706551D01*
X182669976Y-116705055D01*
X182587782Y-116622861D01*
X182587781Y-116622860D01*
X182587780Y-116622859D01*
X182423920Y-116513371D01*
X182423907Y-116513364D01*
X182241839Y-116437950D01*
X182241829Y-116437947D01*
X182078127Y-116405384D01*
X182059532Y-116395657D01*
X182039193Y-116390496D01*
X182029196Y-116379789D01*
X182016216Y-116372999D01*
X182005831Y-116354762D01*
X181991512Y-116339425D01*
X181988891Y-116325013D01*
X181981642Y-116312283D01*
X181982765Y-116291328D01*
X181979011Y-116270683D01*
X181984944Y-116250688D01*
X181985383Y-116242513D01*
X181987692Y-116236473D01*
X181989576Y-116231906D01*
X182019873Y-116172445D01*
X182041232Y-116106707D01*
X182043053Y-116102294D01*
X182062060Y-116078640D01*
X182079185Y-116053596D01*
X182086592Y-116048111D01*
X182086819Y-116047830D01*
X182087100Y-116047735D01*
X182088777Y-116046494D01*
X182185376Y-115981950D01*
X182324733Y-115842593D01*
X182355511Y-115796530D01*
X183099500Y-115796530D01*
X183099500Y-116003469D01*
X183139868Y-116206412D01*
X183139870Y-116206420D01*
X183158206Y-116250688D01*
X183219059Y-116397598D01*
X183265384Y-116466929D01*
X183334024Y-116569657D01*
X183480342Y-116715975D01*
X183480345Y-116715977D01*
X183652402Y-116830941D01*
X183843580Y-116910130D01*
X184019141Y-116945051D01*
X184046530Y-116950499D01*
X184046534Y-116950500D01*
X184046535Y-116950500D01*
X184253466Y-116950500D01*
X184253467Y-116950499D01*
X184456420Y-116910130D01*
X184647598Y-116830941D01*
X184819655Y-116715977D01*
X184965977Y-116569655D01*
X185080941Y-116397598D01*
X185160130Y-116206420D01*
X185200500Y-116003465D01*
X185200500Y-115796535D01*
X185160130Y-115593580D01*
X185080941Y-115402402D01*
X184965977Y-115230345D01*
X184965975Y-115230342D01*
X184819657Y-115084024D01*
X184696084Y-115001456D01*
X184647598Y-114969059D01*
X184626285Y-114960231D01*
X184456420Y-114889870D01*
X184456412Y-114889868D01*
X184253469Y-114849500D01*
X184253465Y-114849500D01*
X184046535Y-114849500D01*
X184046530Y-114849500D01*
X183843587Y-114889868D01*
X183843579Y-114889870D01*
X183652403Y-114969058D01*
X183480342Y-115084024D01*
X183334024Y-115230342D01*
X183219058Y-115402403D01*
X183139870Y-115593579D01*
X183139868Y-115593587D01*
X183099500Y-115796530D01*
X182355511Y-115796530D01*
X182370623Y-115773914D01*
X182405611Y-115721552D01*
X182434223Y-115678729D01*
X182434226Y-115678725D01*
X182509645Y-115496646D01*
X182530493Y-115391839D01*
X182548094Y-115303354D01*
X182548094Y-115106267D01*
X182509646Y-114912981D01*
X182509645Y-114912980D01*
X182509645Y-114912976D01*
X182434226Y-114730897D01*
X182434222Y-114730890D01*
X182411263Y-114696530D01*
X186999500Y-114696530D01*
X186999500Y-114903469D01*
X187039868Y-115106412D01*
X187039870Y-115106420D01*
X187109621Y-115274814D01*
X187119059Y-115297598D01*
X187173068Y-115378429D01*
X187234024Y-115469657D01*
X187380342Y-115615975D01*
X187380345Y-115615977D01*
X187552402Y-115730941D01*
X187743580Y-115810130D01*
X187906779Y-115842592D01*
X187946530Y-115850499D01*
X187946534Y-115850500D01*
X187946535Y-115850500D01*
X188153466Y-115850500D01*
X188153467Y-115850499D01*
X188356420Y-115810130D01*
X188547598Y-115730941D01*
X188719655Y-115615977D01*
X188865977Y-115469655D01*
X188980941Y-115297598D01*
X189060130Y-115106420D01*
X189100500Y-114903465D01*
X189100500Y-114696535D01*
X189060130Y-114493580D01*
X188980941Y-114302402D01*
X188865977Y-114130345D01*
X188865975Y-114130342D01*
X188719657Y-113984024D01*
X188609067Y-113910131D01*
X188547598Y-113869059D01*
X188531082Y-113862218D01*
X188356420Y-113789870D01*
X188356412Y-113789868D01*
X188153469Y-113749500D01*
X188153465Y-113749500D01*
X187946535Y-113749500D01*
X187946530Y-113749500D01*
X187743587Y-113789868D01*
X187743579Y-113789870D01*
X187552403Y-113869058D01*
X187380342Y-113984024D01*
X187234024Y-114130342D01*
X187119058Y-114302403D01*
X187039870Y-114493579D01*
X187039868Y-114493587D01*
X186999500Y-114696530D01*
X182411263Y-114696530D01*
X182324733Y-114567029D01*
X182324730Y-114567025D01*
X182185379Y-114427674D01*
X182185375Y-114427671D01*
X182021514Y-114318182D01*
X182021501Y-114318175D01*
X181839433Y-114242761D01*
X181839423Y-114242758D01*
X181646137Y-114204311D01*
X181646135Y-114204311D01*
X181449053Y-114204311D01*
X181449051Y-114204311D01*
X181255764Y-114242758D01*
X181255754Y-114242761D01*
X181073686Y-114318175D01*
X181073673Y-114318182D01*
X180909812Y-114427671D01*
X180909808Y-114427674D01*
X180770457Y-114567025D01*
X180708637Y-114659545D01*
X180655024Y-114704349D01*
X180643856Y-114708583D01*
X180577553Y-114730127D01*
X180423211Y-114808768D01*
X180367149Y-114849500D01*
X180283072Y-114910586D01*
X180283070Y-114910588D01*
X180283069Y-114910588D01*
X180160588Y-115033069D01*
X180160588Y-115033070D01*
X180160586Y-115033072D01*
X180128570Y-115077138D01*
X180058768Y-115173211D01*
X179980128Y-115327552D01*
X179926597Y-115492302D01*
X179907009Y-115615977D01*
X179899500Y-115663389D01*
X175119461Y-115663389D01*
X175119461Y-115501167D01*
X175139146Y-115434128D01*
X175191950Y-115388373D01*
X175261108Y-115378429D01*
X175290913Y-115386606D01*
X175405643Y-115434128D01*
X175467450Y-115459729D01*
X175467454Y-115459729D01*
X175467455Y-115459730D01*
X175660741Y-115498178D01*
X175660744Y-115498178D01*
X175857828Y-115498178D01*
X176001219Y-115469655D01*
X176051120Y-115459729D01*
X176215032Y-115391835D01*
X176233192Y-115384313D01*
X176233192Y-115384312D01*
X176233199Y-115384310D01*
X176397067Y-115274817D01*
X176536424Y-115135460D01*
X176645917Y-114971592D01*
X176721336Y-114789513D01*
X176748242Y-114654248D01*
X176759785Y-114596221D01*
X176759785Y-114399134D01*
X176721337Y-114205848D01*
X176721336Y-114205847D01*
X176721336Y-114205843D01*
X176664377Y-114068332D01*
X176656909Y-113998865D01*
X176688184Y-113936386D01*
X176748273Y-113900734D01*
X176754735Y-113899267D01*
X176941835Y-113862051D01*
X177123914Y-113786632D01*
X177287782Y-113677139D01*
X177427139Y-113537782D01*
X177536632Y-113373914D01*
X177612051Y-113191835D01*
X177644265Y-113029887D01*
X177650500Y-112998543D01*
X177650500Y-112801456D01*
X177649520Y-112796530D01*
X182399500Y-112796530D01*
X182399500Y-113003469D01*
X182439868Y-113206412D01*
X182439870Y-113206420D01*
X182510584Y-113377139D01*
X182519059Y-113397598D01*
X182556933Y-113454281D01*
X182634024Y-113569657D01*
X182780342Y-113715975D01*
X182780345Y-113715977D01*
X182952402Y-113830941D01*
X183143580Y-113910130D01*
X183275579Y-113936386D01*
X183346530Y-113950499D01*
X183346534Y-113950500D01*
X183346535Y-113950500D01*
X183553466Y-113950500D01*
X183553467Y-113950499D01*
X183756420Y-113910130D01*
X183947598Y-113830941D01*
X184119655Y-113715977D01*
X184265977Y-113569655D01*
X184380941Y-113397598D01*
X184460130Y-113206420D01*
X184500500Y-113003465D01*
X184500500Y-112796535D01*
X184486055Y-112723914D01*
X184458942Y-112587605D01*
X184461268Y-112587142D01*
X184460736Y-112527777D01*
X184497982Y-112468663D01*
X184555830Y-112440027D01*
X184589070Y-112433416D01*
X184771149Y-112357997D01*
X184935017Y-112248504D01*
X185074374Y-112109147D01*
X185183867Y-111945279D01*
X185259286Y-111763200D01*
X185284233Y-111637785D01*
X185297735Y-111569908D01*
X185297735Y-111372821D01*
X185259287Y-111179535D01*
X185259286Y-111179534D01*
X185259286Y-111179530D01*
X185244860Y-111144702D01*
X185183870Y-110997457D01*
X185183863Y-110997444D01*
X185071398Y-110829128D01*
X185050520Y-110762450D01*
X185050500Y-110760237D01*
X185050500Y-110701456D01*
X185012052Y-110508170D01*
X185012051Y-110508169D01*
X185012051Y-110508165D01*
X185007751Y-110497783D01*
X184936635Y-110326092D01*
X184936628Y-110326079D01*
X184827139Y-110162218D01*
X184827136Y-110162214D01*
X184687785Y-110022863D01*
X184687781Y-110022860D01*
X184523920Y-109913371D01*
X184523907Y-109913364D01*
X184341839Y-109837950D01*
X184341829Y-109837947D01*
X184148543Y-109799500D01*
X184148541Y-109799500D01*
X183951459Y-109799500D01*
X183951457Y-109799500D01*
X183758170Y-109837947D01*
X183758160Y-109837950D01*
X183576092Y-109913364D01*
X183576079Y-109913371D01*
X183412218Y-110022860D01*
X183412214Y-110022863D01*
X183272863Y-110162214D01*
X183272860Y-110162218D01*
X183163371Y-110326079D01*
X183163364Y-110326092D01*
X183087950Y-110508160D01*
X183087947Y-110508170D01*
X183049500Y-110701456D01*
X183049500Y-110701459D01*
X183049500Y-110898541D01*
X183049500Y-110898543D01*
X183049499Y-110898543D01*
X183087947Y-111091829D01*
X183087950Y-111091839D01*
X183163364Y-111273907D01*
X183163371Y-111273920D01*
X183275837Y-111442236D01*
X183280151Y-111453558D01*
X183285718Y-111460030D01*
X183289757Y-111478764D01*
X183295537Y-111493931D01*
X183296735Y-111502486D01*
X183296735Y-111569906D01*
X183328626Y-111730235D01*
X183329121Y-111733764D01*
X183324519Y-111764954D01*
X183321709Y-111796361D01*
X183319458Y-111799258D01*
X183318923Y-111802885D01*
X183298196Y-111826628D01*
X183278846Y-111851538D01*
X183274984Y-111853218D01*
X183272975Y-111855521D01*
X183263174Y-111858359D01*
X183230512Y-111872577D01*
X183143584Y-111889869D01*
X183143579Y-111889870D01*
X182952403Y-111969058D01*
X182780342Y-112084024D01*
X182634024Y-112230342D01*
X182519058Y-112402403D01*
X182439870Y-112593579D01*
X182439868Y-112593587D01*
X182399500Y-112796530D01*
X177649520Y-112796530D01*
X177612052Y-112608170D01*
X177612051Y-112608169D01*
X177612051Y-112608165D01*
X177584578Y-112541839D01*
X177536635Y-112426092D01*
X177536628Y-112426079D01*
X177427139Y-112262218D01*
X177427136Y-112262214D01*
X177287785Y-112122863D01*
X177287781Y-112122860D01*
X177123920Y-112013371D01*
X177123907Y-112013364D01*
X176941839Y-111937950D01*
X176941829Y-111937947D01*
X176748543Y-111899500D01*
X176748541Y-111899500D01*
X176551459Y-111899500D01*
X176551457Y-111899500D01*
X176358170Y-111937947D01*
X176358160Y-111937950D01*
X176176092Y-112013364D01*
X176176079Y-112013371D01*
X176012218Y-112122860D01*
X176012214Y-112122863D01*
X175872863Y-112262214D01*
X175872860Y-112262218D01*
X175763371Y-112426079D01*
X175763364Y-112426092D01*
X175687950Y-112608160D01*
X175687947Y-112608170D01*
X175649500Y-112801456D01*
X175649500Y-112908270D01*
X175629815Y-112975309D01*
X175577011Y-113021064D01*
X175507853Y-113031008D01*
X175501309Y-113029887D01*
X175348544Y-112999500D01*
X175348541Y-112999500D01*
X175151459Y-112999500D01*
X175151457Y-112999500D01*
X174958170Y-113037947D01*
X174958160Y-113037950D01*
X174776092Y-113113364D01*
X174776079Y-113113371D01*
X174612218Y-113222860D01*
X174612214Y-113222863D01*
X174472863Y-113362214D01*
X174472858Y-113362220D01*
X174441282Y-113409477D01*
X174387670Y-113454281D01*
X174318345Y-113462988D01*
X174269291Y-113443687D01*
X174223924Y-113413374D01*
X174223917Y-113413370D01*
X174223914Y-113413368D01*
X174223910Y-113413366D01*
X174223906Y-113413364D01*
X174041839Y-113337950D01*
X174041829Y-113337947D01*
X173848543Y-113299500D01*
X173848541Y-113299500D01*
X173651459Y-113299500D01*
X173651457Y-113299500D01*
X173458170Y-113337947D01*
X173458160Y-113337950D01*
X173276092Y-113413364D01*
X173276079Y-113413371D01*
X173112218Y-113522860D01*
X173112214Y-113522863D01*
X172972863Y-113662214D01*
X172972860Y-113662218D01*
X172863371Y-113826079D01*
X172863364Y-113826092D01*
X172787950Y-114008160D01*
X172787947Y-114008170D01*
X172749500Y-114201456D01*
X172749500Y-114201459D01*
X172749500Y-114398541D01*
X172749500Y-114398543D01*
X172749499Y-114398543D01*
X170988125Y-114398543D01*
X170841839Y-114337950D01*
X170841829Y-114337947D01*
X170736440Y-114316984D01*
X170648543Y-114299500D01*
X170648541Y-114299500D01*
X170451459Y-114299500D01*
X170451457Y-114299500D01*
X170258170Y-114337947D01*
X170258160Y-114337950D01*
X170076092Y-114413364D01*
X170076079Y-114413371D01*
X169912218Y-114522860D01*
X169912214Y-114522863D01*
X169772863Y-114662214D01*
X169772860Y-114662218D01*
X169663371Y-114826079D01*
X169663364Y-114826092D01*
X169587950Y-115008160D01*
X169587947Y-115008170D01*
X169549500Y-115201456D01*
X169549500Y-115201459D01*
X169549500Y-115398541D01*
X169549500Y-115398543D01*
X169549499Y-115398543D01*
X167609272Y-115398543D01*
X167612051Y-115391835D01*
X167644174Y-115230345D01*
X167650500Y-115198543D01*
X167650500Y-115196285D01*
X167650500Y-115001459D01*
X167647431Y-114986034D01*
X167647267Y-114974740D01*
X167653715Y-114951530D01*
X167655860Y-114927542D01*
X167656648Y-114925589D01*
X167712051Y-114791835D01*
X167737835Y-114662214D01*
X167750500Y-114598543D01*
X167750500Y-114401456D01*
X167712052Y-114208170D01*
X167712051Y-114208169D01*
X167712051Y-114208165D01*
X167695358Y-114167865D01*
X167636635Y-114026092D01*
X167636628Y-114026079D01*
X167527139Y-113862218D01*
X167527136Y-113862214D01*
X167387785Y-113722863D01*
X167387781Y-113722860D01*
X167223920Y-113613371D01*
X167223907Y-113613364D01*
X167041839Y-113537950D01*
X167041829Y-113537947D01*
X166848543Y-113499500D01*
X166848541Y-113499500D01*
X166651459Y-113499500D01*
X166651457Y-113499500D01*
X166458170Y-113537947D01*
X166458160Y-113537950D01*
X166276092Y-113613364D01*
X166276079Y-113613371D01*
X166112218Y-113722860D01*
X166112214Y-113722863D01*
X165972863Y-113862214D01*
X165972860Y-113862218D01*
X165863371Y-114026079D01*
X165863364Y-114026092D01*
X165787950Y-114208160D01*
X165787947Y-114208170D01*
X165749500Y-114401456D01*
X165749500Y-114598541D01*
X165750364Y-114602887D01*
X165744130Y-114672478D01*
X165743306Y-114674518D01*
X165734189Y-114696530D01*
X165694716Y-114791829D01*
X165687948Y-114808168D01*
X165687947Y-114808171D01*
X165649500Y-115001456D01*
X165649500Y-115001459D01*
X165649500Y-115198541D01*
X165649500Y-115198543D01*
X165649499Y-115198543D01*
X159750500Y-115198543D01*
X159750500Y-115001456D01*
X159712052Y-114808170D01*
X159712051Y-114808169D01*
X159712051Y-114808165D01*
X159705287Y-114791835D01*
X159636635Y-114626092D01*
X159636628Y-114626079D01*
X159527139Y-114462218D01*
X159527136Y-114462214D01*
X159387785Y-114322863D01*
X159387781Y-114322860D01*
X159223920Y-114213371D01*
X159223907Y-114213364D01*
X159041839Y-114137950D01*
X159041829Y-114137947D01*
X158848543Y-114099500D01*
X158848541Y-114099500D01*
X158651459Y-114099500D01*
X158651457Y-114099500D01*
X158458170Y-114137947D01*
X158458160Y-114137950D01*
X158276092Y-114213364D01*
X158276079Y-114213371D01*
X158112218Y-114322860D01*
X158112214Y-114322863D01*
X157972863Y-114462214D01*
X157972860Y-114462218D01*
X157863371Y-114626079D01*
X157863364Y-114626092D01*
X157787950Y-114808160D01*
X157787947Y-114808170D01*
X157749500Y-115001456D01*
X157749500Y-115001459D01*
X157749500Y-115198541D01*
X157749500Y-115198543D01*
X157749499Y-115198543D01*
X152649714Y-115198543D01*
X152508931Y-115004771D01*
X152399405Y-114895245D01*
X152397111Y-114892681D01*
X152383515Y-114864119D01*
X152368356Y-114836358D01*
X152368609Y-114832807D01*
X152367080Y-114829594D01*
X152371083Y-114798221D01*
X152373340Y-114766666D01*
X152375548Y-114763229D01*
X152375924Y-114760287D01*
X152382399Y-114752569D01*
X152401841Y-114722319D01*
X152451682Y-114672478D01*
X152508931Y-114615229D01*
X152661634Y-114405051D01*
X152779579Y-114173572D01*
X152859860Y-113926493D01*
X152882539Y-113783298D01*
X152900500Y-113669902D01*
X152900500Y-113410097D01*
X152873208Y-113237785D01*
X152859860Y-113153507D01*
X152779579Y-112906428D01*
X152779577Y-112906425D01*
X152779577Y-112906423D01*
X152686579Y-112723907D01*
X152673656Y-112698543D01*
X164049499Y-112698543D01*
X164087947Y-112891829D01*
X164087950Y-112891839D01*
X164163364Y-113073907D01*
X164163371Y-113073920D01*
X164272860Y-113237781D01*
X164272863Y-113237785D01*
X164412214Y-113377136D01*
X164412218Y-113377139D01*
X164576079Y-113486628D01*
X164576092Y-113486635D01*
X164758160Y-113562049D01*
X164758165Y-113562051D01*
X164758169Y-113562051D01*
X164758170Y-113562052D01*
X164951456Y-113600500D01*
X164951459Y-113600500D01*
X165148543Y-113600500D01*
X165303597Y-113569657D01*
X165341835Y-113562051D01*
X165523914Y-113486632D01*
X165687782Y-113377139D01*
X165779351Y-113285569D01*
X165840672Y-113252085D01*
X165842840Y-113251634D01*
X165848541Y-113250500D01*
X166041835Y-113212051D01*
X166223914Y-113136632D01*
X166387782Y-113027139D01*
X166527139Y-112887782D01*
X166636632Y-112723914D01*
X166712051Y-112541835D01*
X166741110Y-112395746D01*
X166750500Y-112348543D01*
X166750500Y-112151456D01*
X166712052Y-111958170D01*
X166712051Y-111958169D01*
X166712051Y-111958165D01*
X166706716Y-111945285D01*
X166636635Y-111776092D01*
X166636628Y-111776079D01*
X166527139Y-111612218D01*
X166527136Y-111612214D01*
X166387785Y-111472863D01*
X166387781Y-111472860D01*
X166223920Y-111363371D01*
X166223907Y-111363364D01*
X166041839Y-111287950D01*
X166041829Y-111287947D01*
X165848543Y-111249500D01*
X165848541Y-111249500D01*
X165651459Y-111249500D01*
X165651457Y-111249500D01*
X165458170Y-111287947D01*
X165458160Y-111287950D01*
X165276092Y-111363364D01*
X165276079Y-111363371D01*
X165112218Y-111472860D01*
X165112214Y-111472863D01*
X165020649Y-111564429D01*
X164959326Y-111597914D01*
X164957160Y-111598365D01*
X164758170Y-111637947D01*
X164758160Y-111637950D01*
X164576092Y-111713364D01*
X164576079Y-111713371D01*
X164412218Y-111822860D01*
X164412214Y-111822863D01*
X164272863Y-111962214D01*
X164272860Y-111962218D01*
X164163371Y-112126079D01*
X164163364Y-112126092D01*
X164087950Y-112308160D01*
X164087947Y-112308170D01*
X164049500Y-112501456D01*
X164049500Y-112501459D01*
X164049500Y-112698541D01*
X164049500Y-112698543D01*
X164049499Y-112698543D01*
X152673656Y-112698543D01*
X152661634Y-112674949D01*
X152616785Y-112613220D01*
X152605319Y-112581086D01*
X152593420Y-112549182D01*
X152593615Y-112548283D01*
X152593306Y-112547416D01*
X152601030Y-112514198D01*
X152608272Y-112480909D01*
X152608996Y-112479941D01*
X152609131Y-112479362D01*
X152629423Y-112452655D01*
X152674392Y-112407686D01*
X152686332Y-112395746D01*
X152729816Y-112352262D01*
X152825789Y-112199522D01*
X152885368Y-112029255D01*
X152887159Y-112013364D01*
X152894830Y-111945279D01*
X152900500Y-111894954D01*
X152900500Y-111098543D01*
X169249499Y-111098543D01*
X169287947Y-111291829D01*
X169287950Y-111291839D01*
X169363364Y-111473907D01*
X169363371Y-111473920D01*
X169472860Y-111637781D01*
X169472863Y-111637785D01*
X169612214Y-111777136D01*
X169612218Y-111777139D01*
X169776079Y-111886628D01*
X169776092Y-111886635D01*
X169917673Y-111945279D01*
X169958165Y-111962051D01*
X169958169Y-111962051D01*
X169958170Y-111962052D01*
X170151456Y-112000500D01*
X170151459Y-112000500D01*
X170348543Y-112000500D01*
X170478582Y-111974632D01*
X170541835Y-111962051D01*
X170723914Y-111886632D01*
X170887782Y-111777139D01*
X170905048Y-111759873D01*
X170966370Y-111726386D01*
X171036062Y-111731369D01*
X171091996Y-111773239D01*
X171114348Y-111823360D01*
X171131669Y-111910439D01*
X171131672Y-111910449D01*
X171207086Y-112092517D01*
X171207093Y-112092530D01*
X171316582Y-112256391D01*
X171316585Y-112256395D01*
X171455936Y-112395746D01*
X171455940Y-112395749D01*
X171619801Y-112505238D01*
X171619814Y-112505245D01*
X171725889Y-112549182D01*
X171801887Y-112580661D01*
X171801891Y-112580661D01*
X171801892Y-112580662D01*
X171995178Y-112619110D01*
X171995181Y-112619110D01*
X172192265Y-112619110D01*
X172322304Y-112593242D01*
X172385557Y-112580661D01*
X172567636Y-112505242D01*
X172731504Y-112395749D01*
X172870861Y-112256392D01*
X172980354Y-112092524D01*
X173055773Y-111910445D01*
X173072445Y-111826628D01*
X173094222Y-111717153D01*
X173094222Y-111520066D01*
X173055774Y-111326780D01*
X173055773Y-111326779D01*
X173055773Y-111326775D01*
X173041302Y-111291839D01*
X172980357Y-111144702D01*
X172980350Y-111144689D01*
X172870861Y-110980828D01*
X172870858Y-110980824D01*
X172731507Y-110841473D01*
X172731503Y-110841470D01*
X172567642Y-110731981D01*
X172567629Y-110731974D01*
X172385561Y-110656560D01*
X172385551Y-110656557D01*
X172192265Y-110618110D01*
X172192263Y-110618110D01*
X171995181Y-110618110D01*
X171995179Y-110618110D01*
X171801892Y-110656557D01*
X171801882Y-110656560D01*
X171619814Y-110731974D01*
X171619801Y-110731981D01*
X171455940Y-110841470D01*
X171455935Y-110841474D01*
X171438669Y-110858740D01*
X171377345Y-110892224D01*
X171307654Y-110887238D01*
X171251721Y-110845365D01*
X171229373Y-110795248D01*
X171221140Y-110753859D01*
X171212051Y-110708165D01*
X171197257Y-110672449D01*
X171136635Y-110526092D01*
X171136628Y-110526079D01*
X171027139Y-110362218D01*
X171027136Y-110362214D01*
X170887785Y-110222863D01*
X170887781Y-110222860D01*
X170723920Y-110113371D01*
X170723907Y-110113364D01*
X170688125Y-110098543D01*
X173149499Y-110098543D01*
X173187947Y-110291829D01*
X173187950Y-110291839D01*
X173263364Y-110473907D01*
X173263371Y-110473919D01*
X173313869Y-110549494D01*
X173334747Y-110616171D01*
X173332384Y-110642575D01*
X173320902Y-110700305D01*
X173320902Y-110897387D01*
X173320902Y-110897389D01*
X173320901Y-110897389D01*
X173359349Y-111090675D01*
X173359352Y-111090685D01*
X173434766Y-111272753D01*
X173434773Y-111272766D01*
X173544262Y-111436627D01*
X173544265Y-111436631D01*
X173683616Y-111575982D01*
X173683620Y-111575985D01*
X173847481Y-111685474D01*
X173847494Y-111685481D01*
X173973762Y-111737782D01*
X174029567Y-111760897D01*
X174029571Y-111760897D01*
X174029572Y-111760898D01*
X174222858Y-111799346D01*
X174222861Y-111799346D01*
X174419945Y-111799346D01*
X174592841Y-111764954D01*
X174613237Y-111760897D01*
X174795316Y-111685478D01*
X174959184Y-111575985D01*
X175098541Y-111436628D01*
X175208034Y-111272760D01*
X175283453Y-111090681D01*
X175301999Y-110997444D01*
X175321902Y-110897389D01*
X175321902Y-110700302D01*
X175283454Y-110507016D01*
X175283453Y-110507015D01*
X175283453Y-110507011D01*
X175279631Y-110497783D01*
X175208037Y-110324938D01*
X175208030Y-110324925D01*
X175157532Y-110249350D01*
X175148362Y-110220065D01*
X175137127Y-110191509D01*
X175137462Y-110185254D01*
X175136654Y-110182673D01*
X175138380Y-110163389D01*
X180649500Y-110163389D01*
X180649500Y-110336610D01*
X180676489Y-110507016D01*
X180676598Y-110507701D01*
X180704054Y-110592201D01*
X180730126Y-110672442D01*
X180730130Y-110672452D01*
X180771609Y-110753859D01*
X180784505Y-110822528D01*
X180782741Y-110834345D01*
X180749500Y-111001456D01*
X180749500Y-111001459D01*
X180749500Y-111198541D01*
X180749500Y-111198543D01*
X180749499Y-111198543D01*
X180787947Y-111391829D01*
X180787950Y-111391839D01*
X180863364Y-111573907D01*
X180863371Y-111573920D01*
X180972860Y-111737781D01*
X180972863Y-111737785D01*
X181112214Y-111877136D01*
X181112218Y-111877139D01*
X181276079Y-111986628D01*
X181276092Y-111986635D01*
X181458160Y-112062049D01*
X181458165Y-112062051D01*
X181458169Y-112062051D01*
X181458170Y-112062052D01*
X181651456Y-112100500D01*
X181651459Y-112100500D01*
X181848543Y-112100500D01*
X181978582Y-112074632D01*
X182041835Y-112062051D01*
X182223914Y-111986632D01*
X182387782Y-111877139D01*
X182527139Y-111737782D01*
X182636632Y-111573914D01*
X182712051Y-111391835D01*
X182731942Y-111291839D01*
X182750500Y-111198543D01*
X182750500Y-111001456D01*
X182750499Y-111001454D01*
X182717259Y-110834343D01*
X182723486Y-110764752D01*
X182728392Y-110753856D01*
X182769871Y-110672449D01*
X182769871Y-110672448D01*
X182769873Y-110672445D01*
X182823402Y-110507701D01*
X182850500Y-110336611D01*
X182850500Y-110163389D01*
X182823402Y-109992299D01*
X182769873Y-109827555D01*
X182691232Y-109673212D01*
X182589414Y-109533072D01*
X182466928Y-109410586D01*
X182326788Y-109308768D01*
X182172445Y-109230127D01*
X182007701Y-109176598D01*
X182007699Y-109176597D01*
X182007698Y-109176597D01*
X181876271Y-109155781D01*
X181836611Y-109149500D01*
X181663389Y-109149500D01*
X181623728Y-109155781D01*
X181492302Y-109176597D01*
X181327552Y-109230128D01*
X181173211Y-109308768D01*
X181117149Y-109349500D01*
X181033072Y-109410586D01*
X181033070Y-109410588D01*
X181033069Y-109410588D01*
X180910588Y-109533069D01*
X180910588Y-109533070D01*
X180910586Y-109533072D01*
X180866859Y-109593256D01*
X180808768Y-109673211D01*
X180730128Y-109827552D01*
X180676597Y-109992302D01*
X180649500Y-110163389D01*
X175138380Y-110163389D01*
X175139017Y-110156265D01*
X175142694Y-110137785D01*
X175149207Y-110105043D01*
X175150500Y-110098542D01*
X175150500Y-109901456D01*
X175112052Y-109708170D01*
X175112051Y-109708169D01*
X175112051Y-109708165D01*
X175082897Y-109637781D01*
X175036635Y-109526092D01*
X175036628Y-109526079D01*
X174927139Y-109362218D01*
X174927136Y-109362214D01*
X174787785Y-109222863D01*
X174787781Y-109222860D01*
X174623920Y-109113371D01*
X174623907Y-109113364D01*
X174588125Y-109098543D01*
X185749499Y-109098543D01*
X185787947Y-109291829D01*
X185787950Y-109291839D01*
X185863364Y-109473907D01*
X185863371Y-109473920D01*
X185972860Y-109637781D01*
X185972863Y-109637785D01*
X186112214Y-109777136D01*
X186112218Y-109777139D01*
X186276079Y-109886628D01*
X186276092Y-109886635D01*
X186458160Y-109962049D01*
X186458165Y-109962051D01*
X186458169Y-109962051D01*
X186458170Y-109962052D01*
X186651456Y-110000500D01*
X186651459Y-110000500D01*
X186848543Y-110000500D01*
X186982196Y-109973914D01*
X187041835Y-109962051D01*
X187223914Y-109886632D01*
X187387782Y-109777139D01*
X187527139Y-109637782D01*
X187636632Y-109473914D01*
X187712051Y-109291835D01*
X187747551Y-109113368D01*
X187750500Y-109098543D01*
X187750500Y-108901456D01*
X187712052Y-108708170D01*
X187712051Y-108708169D01*
X187712051Y-108708165D01*
X187702772Y-108685764D01*
X187636635Y-108526092D01*
X187636628Y-108526079D01*
X187527139Y-108362218D01*
X187527136Y-108362214D01*
X187387785Y-108222863D01*
X187387781Y-108222860D01*
X187223920Y-108113371D01*
X187223907Y-108113364D01*
X187041839Y-108037950D01*
X187041829Y-108037947D01*
X186848543Y-107999500D01*
X186848541Y-107999500D01*
X186651459Y-107999500D01*
X186651457Y-107999500D01*
X186458170Y-108037947D01*
X186458160Y-108037950D01*
X186276092Y-108113364D01*
X186276079Y-108113371D01*
X186112218Y-108222860D01*
X186112214Y-108222863D01*
X185972863Y-108362214D01*
X185972860Y-108362218D01*
X185863371Y-108526079D01*
X185863364Y-108526092D01*
X185787950Y-108708160D01*
X185787947Y-108708170D01*
X185749500Y-108901456D01*
X185749500Y-108901459D01*
X185749500Y-109098541D01*
X185749500Y-109098543D01*
X185749499Y-109098543D01*
X174588125Y-109098543D01*
X174441839Y-109037950D01*
X174441829Y-109037947D01*
X174336440Y-109016984D01*
X174248543Y-108999500D01*
X174248541Y-108999500D01*
X174051459Y-108999500D01*
X174051457Y-108999500D01*
X173858170Y-109037947D01*
X173858160Y-109037950D01*
X173676092Y-109113364D01*
X173676079Y-109113371D01*
X173512218Y-109222860D01*
X173512214Y-109222863D01*
X173372863Y-109362214D01*
X173372860Y-109362218D01*
X173263371Y-109526079D01*
X173263364Y-109526092D01*
X173187950Y-109708160D01*
X173187947Y-109708170D01*
X173149500Y-109901456D01*
X173149500Y-109901459D01*
X173149500Y-110098541D01*
X173149500Y-110098543D01*
X173149499Y-110098543D01*
X170688125Y-110098543D01*
X170541839Y-110037950D01*
X170541829Y-110037947D01*
X170436440Y-110016984D01*
X170348543Y-109999500D01*
X170348541Y-109999500D01*
X170151459Y-109999500D01*
X170151457Y-109999500D01*
X169958170Y-110037947D01*
X169958160Y-110037950D01*
X169776092Y-110113364D01*
X169776079Y-110113371D01*
X169612218Y-110222860D01*
X169612214Y-110222863D01*
X169472863Y-110362214D01*
X169472860Y-110362218D01*
X169363371Y-110526079D01*
X169363364Y-110526092D01*
X169287950Y-110708160D01*
X169287947Y-110708170D01*
X169249500Y-110901456D01*
X169249500Y-110901459D01*
X169249500Y-111098541D01*
X169249500Y-111098543D01*
X169249499Y-111098543D01*
X152900500Y-111098543D01*
X152900500Y-110105046D01*
X152885725Y-109973914D01*
X152885369Y-109970750D01*
X152885366Y-109970737D01*
X152881100Y-109958545D01*
X153269497Y-109958545D01*
X153307945Y-110151831D01*
X153307948Y-110151841D01*
X153383362Y-110333909D01*
X153383369Y-110333922D01*
X153492858Y-110497783D01*
X153492861Y-110497787D01*
X153632212Y-110637138D01*
X153632216Y-110637141D01*
X153796077Y-110746630D01*
X153796090Y-110746637D01*
X153978158Y-110822051D01*
X153978163Y-110822053D01*
X153978167Y-110822053D01*
X153978168Y-110822054D01*
X154171454Y-110860502D01*
X154171457Y-110860502D01*
X154368541Y-110860502D01*
X154526265Y-110829128D01*
X154561833Y-110822053D01*
X154626547Y-110795248D01*
X154661414Y-110780806D01*
X154743905Y-110746637D01*
X154743905Y-110746636D01*
X154743912Y-110746634D01*
X154907780Y-110637141D01*
X155047137Y-110497784D01*
X155061279Y-110476618D01*
X155114887Y-110431812D01*
X155116777Y-110431008D01*
X155223914Y-110386632D01*
X155387782Y-110277139D01*
X155527139Y-110137782D01*
X155636632Y-109973914D01*
X155712051Y-109791835D01*
X155742694Y-109637785D01*
X155750500Y-109598543D01*
X161249499Y-109598543D01*
X161287947Y-109791829D01*
X161287950Y-109791839D01*
X161363364Y-109973907D01*
X161363371Y-109973920D01*
X161472860Y-110137781D01*
X161472863Y-110137785D01*
X161612214Y-110277136D01*
X161612218Y-110277139D01*
X161776079Y-110386628D01*
X161776092Y-110386635D01*
X161958160Y-110462049D01*
X161958165Y-110462051D01*
X161958169Y-110462051D01*
X161958170Y-110462052D01*
X162151456Y-110500500D01*
X162151459Y-110500500D01*
X162348543Y-110500500D01*
X162482196Y-110473914D01*
X162541835Y-110462051D01*
X162723914Y-110386632D01*
X162887782Y-110277139D01*
X163027139Y-110137782D01*
X163136632Y-109973914D01*
X163212051Y-109791835D01*
X163242694Y-109637785D01*
X163250500Y-109598543D01*
X163250500Y-109401456D01*
X163212052Y-109208170D01*
X163212051Y-109208169D01*
X163212051Y-109208165D01*
X163198975Y-109176597D01*
X163136635Y-109026092D01*
X163136628Y-109026079D01*
X163027139Y-108862218D01*
X163027136Y-108862214D01*
X162887785Y-108722863D01*
X162887781Y-108722860D01*
X162723920Y-108613371D01*
X162723907Y-108613364D01*
X162541839Y-108537950D01*
X162541829Y-108537947D01*
X162348543Y-108499500D01*
X162348541Y-108499500D01*
X162151459Y-108499500D01*
X162151457Y-108499500D01*
X161958170Y-108537947D01*
X161958160Y-108537950D01*
X161776092Y-108613364D01*
X161776079Y-108613371D01*
X161612218Y-108722860D01*
X161612214Y-108722863D01*
X161472863Y-108862214D01*
X161472860Y-108862218D01*
X161363371Y-109026079D01*
X161363364Y-109026092D01*
X161287950Y-109208160D01*
X161287947Y-109208170D01*
X161249500Y-109401456D01*
X161249500Y-109401459D01*
X161249500Y-109598541D01*
X161249500Y-109598543D01*
X161249499Y-109598543D01*
X155750500Y-109598543D01*
X155750500Y-109401456D01*
X155712052Y-109208170D01*
X155712051Y-109208169D01*
X155712051Y-109208165D01*
X155698975Y-109176597D01*
X155636635Y-109026092D01*
X155636628Y-109026079D01*
X155527139Y-108862218D01*
X155527136Y-108862214D01*
X155387785Y-108722863D01*
X155387781Y-108722860D01*
X155223920Y-108613371D01*
X155223907Y-108613364D01*
X155041839Y-108537950D01*
X155041829Y-108537947D01*
X154848543Y-108499500D01*
X154848541Y-108499500D01*
X154651459Y-108499500D01*
X154651457Y-108499500D01*
X154458170Y-108537947D01*
X154458160Y-108537950D01*
X154276092Y-108613364D01*
X154276079Y-108613371D01*
X154112218Y-108722860D01*
X154112214Y-108722863D01*
X153972867Y-108862211D01*
X153972862Y-108862216D01*
X153958715Y-108883388D01*
X153905101Y-108928192D01*
X153903068Y-108929055D01*
X153796087Y-108973368D01*
X153796077Y-108973373D01*
X153632216Y-109082862D01*
X153632212Y-109082865D01*
X153492861Y-109222216D01*
X153492858Y-109222220D01*
X153383369Y-109386081D01*
X153383362Y-109386094D01*
X153307948Y-109568162D01*
X153307945Y-109568172D01*
X153269498Y-109761458D01*
X153269498Y-109761461D01*
X153269498Y-109958543D01*
X153269498Y-109958545D01*
X153269497Y-109958545D01*
X152881100Y-109958545D01*
X152838900Y-109837947D01*
X152825789Y-109800478D01*
X152729816Y-109647738D01*
X152602262Y-109520184D01*
X152449523Y-109424211D01*
X152279254Y-109364631D01*
X152279249Y-109364630D01*
X152144960Y-109349500D01*
X152144954Y-109349500D01*
X150355046Y-109349500D01*
X150355039Y-109349500D01*
X150220750Y-109364630D01*
X150220739Y-109364633D01*
X150165453Y-109383978D01*
X150095674Y-109387539D01*
X150035047Y-109352809D01*
X150002821Y-109290816D01*
X150000500Y-109266936D01*
X150000500Y-107598543D01*
X176149499Y-107598543D01*
X176187947Y-107791829D01*
X176187950Y-107791839D01*
X176263364Y-107973907D01*
X176263371Y-107973920D01*
X176372860Y-108137781D01*
X176372863Y-108137785D01*
X176512214Y-108277136D01*
X176512218Y-108277139D01*
X176676079Y-108386628D01*
X176676092Y-108386635D01*
X176752974Y-108418480D01*
X176858165Y-108462051D01*
X176858169Y-108462051D01*
X176858170Y-108462052D01*
X177051456Y-108500500D01*
X177051459Y-108500500D01*
X177248541Y-108500500D01*
X177327042Y-108484884D01*
X177396630Y-108491110D01*
X177398615Y-108491912D01*
X177473442Y-108522906D01*
X177473446Y-108522906D01*
X177473447Y-108522907D01*
X177666733Y-108561355D01*
X177666736Y-108561355D01*
X177863820Y-108561355D01*
X178000163Y-108534234D01*
X178057112Y-108522906D01*
X178239191Y-108447487D01*
X178403059Y-108337994D01*
X178542416Y-108198637D01*
X178651909Y-108034769D01*
X178727328Y-107852690D01*
X178765777Y-107659396D01*
X178765777Y-107462314D01*
X178765777Y-107462311D01*
X178727329Y-107269025D01*
X178727328Y-107269024D01*
X178727328Y-107269020D01*
X178719657Y-107250500D01*
X178651912Y-107086947D01*
X178651905Y-107086934D01*
X178542416Y-106923073D01*
X178542413Y-106923069D01*
X178403062Y-106783718D01*
X178403058Y-106783715D01*
X178239197Y-106674226D01*
X178239184Y-106674219D01*
X178057116Y-106598805D01*
X178057106Y-106598802D01*
X177863820Y-106560355D01*
X177863818Y-106560355D01*
X177666736Y-106560355D01*
X177623707Y-106568914D01*
X177588233Y-106575970D01*
X177518642Y-106569742D01*
X177516592Y-106568914D01*
X177502599Y-106563118D01*
X177441835Y-106537949D01*
X177441831Y-106537948D01*
X177441828Y-106537947D01*
X177248543Y-106499500D01*
X177248541Y-106499500D01*
X177051459Y-106499500D01*
X177051457Y-106499500D01*
X176858170Y-106537947D01*
X176858160Y-106537950D01*
X176676092Y-106613364D01*
X176676079Y-106613371D01*
X176512218Y-106722860D01*
X176512214Y-106722863D01*
X176372863Y-106862214D01*
X176372860Y-106862218D01*
X176263371Y-107026079D01*
X176263364Y-107026092D01*
X176187950Y-107208160D01*
X176187947Y-107208170D01*
X176149500Y-107401456D01*
X176149500Y-107401459D01*
X176149500Y-107598541D01*
X176149500Y-107598543D01*
X176149499Y-107598543D01*
X150000500Y-107598543D01*
X150000500Y-106187741D01*
X168602744Y-106187741D01*
X168641192Y-106381027D01*
X168641195Y-106381037D01*
X168716609Y-106563105D01*
X168716616Y-106563118D01*
X168826105Y-106726979D01*
X168826108Y-106726983D01*
X168965459Y-106866334D01*
X168965463Y-106866337D01*
X169129324Y-106975826D01*
X169129337Y-106975833D01*
X169311405Y-107051247D01*
X169311410Y-107051249D01*
X169311414Y-107051249D01*
X169311415Y-107051250D01*
X169504701Y-107089698D01*
X169504704Y-107089698D01*
X169701788Y-107089698D01*
X169831827Y-107063830D01*
X169895080Y-107051249D01*
X170045187Y-106989072D01*
X170114656Y-106981604D01*
X170175625Y-107012123D01*
X170175635Y-107012112D01*
X170175685Y-107012153D01*
X170177135Y-107012879D01*
X170180320Y-107015953D01*
X170180342Y-107015975D01*
X170180345Y-107015977D01*
X170352402Y-107130941D01*
X170543580Y-107210130D01*
X170746530Y-107250499D01*
X170746534Y-107250500D01*
X170746535Y-107250500D01*
X170953466Y-107250500D01*
X170953467Y-107250499D01*
X171156420Y-107210130D01*
X171347598Y-107130941D01*
X171519655Y-107015977D01*
X171665977Y-106869655D01*
X171780941Y-106697598D01*
X171860130Y-106506420D01*
X171861697Y-106498543D01*
X189349499Y-106498543D01*
X189387947Y-106691829D01*
X189387950Y-106691839D01*
X189463364Y-106873907D01*
X189463371Y-106873920D01*
X189572860Y-107037781D01*
X189572863Y-107037785D01*
X189712214Y-107177136D01*
X189712218Y-107177139D01*
X189876079Y-107286628D01*
X189876092Y-107286635D01*
X190055548Y-107360967D01*
X190058165Y-107362051D01*
X190058169Y-107362051D01*
X190058170Y-107362052D01*
X190251456Y-107400500D01*
X190251459Y-107400500D01*
X190448542Y-107400500D01*
X190518048Y-107386674D01*
X190587639Y-107392901D01*
X190642817Y-107435763D01*
X190661139Y-107480210D01*
X190662884Y-107479792D01*
X190664020Y-107484526D01*
X190664023Y-107484534D01*
X190727280Y-107679219D01*
X190815670Y-107852694D01*
X190820215Y-107861613D01*
X190940528Y-108027213D01*
X191085286Y-108171971D01*
X191230036Y-108277136D01*
X191250890Y-108292287D01*
X191340589Y-108337991D01*
X191433276Y-108385218D01*
X191433278Y-108385218D01*
X191433281Y-108385220D01*
X191535645Y-108418480D01*
X191627965Y-108448477D01*
X191713655Y-108462049D01*
X191830148Y-108480500D01*
X192283000Y-108480500D01*
X192350039Y-108500185D01*
X192395794Y-108552989D01*
X192407000Y-108604500D01*
X192407000Y-108685766D01*
X192416940Y-108722863D01*
X192446219Y-108832136D01*
X192475810Y-108883388D01*
X192521985Y-108963365D01*
X192629135Y-109070515D01*
X192760365Y-109146281D01*
X192906734Y-109185500D01*
X192906736Y-109185500D01*
X193058264Y-109185500D01*
X193058266Y-109185500D01*
X193204635Y-109146281D01*
X193335865Y-109070515D01*
X193443015Y-108963365D01*
X193518781Y-108832135D01*
X193558000Y-108685766D01*
X193558000Y-108534234D01*
X193545699Y-108488325D01*
X193547362Y-108418480D01*
X193586524Y-108360618D01*
X193609175Y-108345753D01*
X193714110Y-108292287D01*
X193809665Y-108222863D01*
X193879713Y-108171971D01*
X193879715Y-108171968D01*
X193879719Y-108171966D01*
X194024466Y-108027219D01*
X194024468Y-108027215D01*
X194024471Y-108027213D01*
X194077232Y-107954590D01*
X194144787Y-107861610D01*
X194237720Y-107679219D01*
X194300977Y-107484534D01*
X194333000Y-107282352D01*
X194333000Y-107077648D01*
X194962000Y-107077648D01*
X194962000Y-107282352D01*
X194966378Y-107309995D01*
X194994022Y-107484534D01*
X195057281Y-107679223D01*
X195150215Y-107861613D01*
X195270528Y-108027213D01*
X195415286Y-108171971D01*
X195560036Y-108277136D01*
X195580890Y-108292287D01*
X195670589Y-108337991D01*
X195763276Y-108385218D01*
X195763278Y-108385218D01*
X195763281Y-108385220D01*
X195865645Y-108418480D01*
X195957965Y-108448477D01*
X196043655Y-108462049D01*
X196160148Y-108480500D01*
X196160149Y-108480500D01*
X197164851Y-108480500D01*
X197164852Y-108480500D01*
X197367034Y-108448477D01*
X197561719Y-108385220D01*
X197744110Y-108292287D01*
X197839665Y-108222863D01*
X197909713Y-108171971D01*
X197909715Y-108171968D01*
X197909719Y-108171966D01*
X198054466Y-108027219D01*
X198054468Y-108027215D01*
X198054471Y-108027213D01*
X198107232Y-107954590D01*
X198174787Y-107861610D01*
X198267720Y-107679219D01*
X198330977Y-107484534D01*
X198363000Y-107282352D01*
X198363000Y-107077648D01*
X198330977Y-106875466D01*
X198330470Y-106873907D01*
X198282731Y-106726980D01*
X198267720Y-106680781D01*
X198267718Y-106680778D01*
X198267718Y-106680776D01*
X198225951Y-106598805D01*
X198174787Y-106498390D01*
X198167056Y-106487749D01*
X198054471Y-106332786D01*
X197909713Y-106188028D01*
X197744113Y-106067715D01*
X197744112Y-106067714D01*
X197744110Y-106067713D01*
X197664481Y-106027140D01*
X197561723Y-105974781D01*
X197367034Y-105911522D01*
X197192495Y-105883878D01*
X197164852Y-105879500D01*
X196160148Y-105879500D01*
X196135829Y-105883351D01*
X195957965Y-105911522D01*
X195763276Y-105974781D01*
X195580886Y-106067715D01*
X195415286Y-106188028D01*
X195270528Y-106332786D01*
X195150215Y-106498386D01*
X195057281Y-106680776D01*
X194994022Y-106875465D01*
X194966181Y-107051248D01*
X194962000Y-107077648D01*
X194333000Y-107077648D01*
X194300977Y-106875466D01*
X194300470Y-106873907D01*
X194252731Y-106726980D01*
X194237720Y-106680781D01*
X194237718Y-106680778D01*
X194237718Y-106680776D01*
X194195951Y-106598805D01*
X194144787Y-106498390D01*
X194137056Y-106487749D01*
X194024471Y-106332786D01*
X193879713Y-106188028D01*
X193714113Y-106067715D01*
X193714112Y-106067714D01*
X193714110Y-106067713D01*
X193634481Y-106027140D01*
X193531723Y-105974781D01*
X193337034Y-105911522D01*
X193162495Y-105883878D01*
X193134852Y-105879500D01*
X191830148Y-105879500D01*
X191762754Y-105890174D01*
X191627964Y-105911523D01*
X191627961Y-105911523D01*
X191433281Y-105974779D01*
X191433279Y-105974779D01*
X191407075Y-105988131D01*
X191338406Y-106001026D01*
X191273666Y-105974748D01*
X191240584Y-105930878D01*
X191239502Y-105931457D01*
X191236634Y-105926092D01*
X191236632Y-105926086D01*
X191211038Y-105887782D01*
X191127139Y-105762217D01*
X190987785Y-105622863D01*
X190987781Y-105622860D01*
X190823920Y-105513371D01*
X190823907Y-105513364D01*
X190641839Y-105437950D01*
X190641829Y-105437947D01*
X190448543Y-105399500D01*
X190448541Y-105399500D01*
X190251459Y-105399500D01*
X190251457Y-105399500D01*
X190058170Y-105437947D01*
X190058160Y-105437950D01*
X189876092Y-105513364D01*
X189876079Y-105513371D01*
X189712218Y-105622860D01*
X189712214Y-105622863D01*
X189572863Y-105762214D01*
X189572860Y-105762218D01*
X189463371Y-105926079D01*
X189463364Y-105926092D01*
X189387950Y-106108160D01*
X189387947Y-106108170D01*
X189349500Y-106301456D01*
X189349500Y-106301459D01*
X189349500Y-106498541D01*
X189349500Y-106498543D01*
X189349499Y-106498543D01*
X171861697Y-106498543D01*
X171900500Y-106303465D01*
X171900500Y-106096535D01*
X171860130Y-105893580D01*
X171780941Y-105702402D01*
X171665977Y-105530345D01*
X171665975Y-105530342D01*
X171519657Y-105384024D01*
X171413907Y-105313365D01*
X171347598Y-105269059D01*
X171250035Y-105228647D01*
X171156420Y-105189870D01*
X171156412Y-105189868D01*
X170953469Y-105149500D01*
X170953465Y-105149500D01*
X170746535Y-105149500D01*
X170746530Y-105149500D01*
X170543587Y-105189868D01*
X170543579Y-105189870D01*
X170352401Y-105269058D01*
X170333425Y-105281738D01*
X170266747Y-105302614D01*
X170199367Y-105284128D01*
X170195646Y-105281736D01*
X170077165Y-105202569D01*
X170077152Y-105202562D01*
X169895084Y-105127148D01*
X169895074Y-105127145D01*
X169701788Y-105088698D01*
X169701786Y-105088698D01*
X169504704Y-105088698D01*
X169504702Y-105088698D01*
X169311415Y-105127145D01*
X169311405Y-105127148D01*
X169129337Y-105202562D01*
X169129324Y-105202569D01*
X168965463Y-105312058D01*
X168965459Y-105312061D01*
X168826108Y-105451412D01*
X168826105Y-105451416D01*
X168716616Y-105615277D01*
X168716609Y-105615290D01*
X168641195Y-105797358D01*
X168641192Y-105797368D01*
X168602745Y-105990654D01*
X168602745Y-105990657D01*
X168602745Y-106187739D01*
X168602745Y-106187741D01*
X168602744Y-106187741D01*
X150000500Y-106187741D01*
X150000500Y-104937994D01*
X179805815Y-104937994D01*
X179844263Y-105131280D01*
X179844266Y-105131290D01*
X179919680Y-105313358D01*
X179919687Y-105313371D01*
X180029176Y-105477232D01*
X180029179Y-105477236D01*
X180168533Y-105616590D01*
X180296961Y-105702402D01*
X180332402Y-105726083D01*
X180342467Y-105730252D01*
X180396870Y-105774089D01*
X180398118Y-105775922D01*
X180472860Y-105887781D01*
X180472863Y-105887785D01*
X180612214Y-106027136D01*
X180612218Y-106027139D01*
X180776079Y-106136628D01*
X180776092Y-106136635D01*
X180900182Y-106188034D01*
X180958165Y-106212051D01*
X180958169Y-106212051D01*
X180958170Y-106212052D01*
X181151456Y-106250500D01*
X181151459Y-106250500D01*
X181348543Y-106250500D01*
X181478582Y-106224632D01*
X181541835Y-106212051D01*
X181599818Y-106188034D01*
X181617269Y-106180806D01*
X181723907Y-106136635D01*
X181723907Y-106136634D01*
X181723914Y-106136632D01*
X181887782Y-106027139D01*
X181970069Y-105944850D01*
X182031392Y-105911366D01*
X182081941Y-105910915D01*
X182119553Y-105918396D01*
X182214644Y-105937312D01*
X182214647Y-105937312D01*
X182411731Y-105937312D01*
X182544434Y-105910915D01*
X182605023Y-105898863D01*
X182787102Y-105823444D01*
X182950970Y-105713951D01*
X183090327Y-105574594D01*
X183199820Y-105410726D01*
X183275239Y-105228647D01*
X183287820Y-105165394D01*
X183313688Y-105035355D01*
X183313688Y-104838268D01*
X183275240Y-104644982D01*
X183275239Y-104644981D01*
X183275239Y-104644977D01*
X183258003Y-104603365D01*
X183199823Y-104462904D01*
X183199816Y-104462891D01*
X183090327Y-104299030D01*
X183090324Y-104299026D01*
X182950975Y-104159677D01*
X182950970Y-104159673D01*
X182932069Y-104147044D01*
X182887264Y-104093434D01*
X182886419Y-104091444D01*
X182829001Y-103952822D01*
X182817281Y-103924526D01*
X182817274Y-103924514D01*
X182707785Y-103760653D01*
X182707782Y-103760649D01*
X182568431Y-103621298D01*
X182568427Y-103621295D01*
X182404566Y-103511806D01*
X182404553Y-103511799D01*
X182222485Y-103436385D01*
X182222475Y-103436382D01*
X182029189Y-103397935D01*
X182029187Y-103397935D01*
X181832105Y-103397935D01*
X181832103Y-103397935D01*
X181638816Y-103436382D01*
X181638806Y-103436385D01*
X181456738Y-103511799D01*
X181456725Y-103511806D01*
X181292864Y-103621295D01*
X181292860Y-103621298D01*
X181153513Y-103760646D01*
X181153510Y-103760649D01*
X181124186Y-103804534D01*
X181070572Y-103849338D01*
X181001247Y-103858044D01*
X180996894Y-103857258D01*
X180904860Y-103838951D01*
X180904857Y-103838951D01*
X180707775Y-103838951D01*
X180707773Y-103838951D01*
X180514486Y-103877398D01*
X180514476Y-103877401D01*
X180332408Y-103952815D01*
X180332395Y-103952822D01*
X180168534Y-104062311D01*
X180168530Y-104062314D01*
X180029179Y-104201665D01*
X180029176Y-104201669D01*
X179919687Y-104365530D01*
X179919680Y-104365543D01*
X179844266Y-104547611D01*
X179844263Y-104547621D01*
X179805816Y-104740907D01*
X179805816Y-104740910D01*
X179805816Y-104937992D01*
X179805816Y-104937994D01*
X179805815Y-104937994D01*
X150000500Y-104937994D01*
X150000500Y-102698543D01*
X172149499Y-102698543D01*
X172187947Y-102891829D01*
X172187950Y-102891839D01*
X172263364Y-103073907D01*
X172263371Y-103073920D01*
X172372860Y-103237781D01*
X172372863Y-103237785D01*
X172512214Y-103377136D01*
X172512218Y-103377139D01*
X172676079Y-103486628D01*
X172676092Y-103486635D01*
X172858160Y-103562049D01*
X172858165Y-103562051D01*
X172858169Y-103562051D01*
X172858170Y-103562052D01*
X173051456Y-103600500D01*
X173051459Y-103600500D01*
X173248543Y-103600500D01*
X173378582Y-103574632D01*
X173441835Y-103562051D01*
X173623914Y-103486632D01*
X173787782Y-103377139D01*
X173841677Y-103323244D01*
X173903000Y-103289758D01*
X173929359Y-103286924D01*
X174013322Y-103286924D01*
X174143361Y-103261056D01*
X174206614Y-103248475D01*
X174388693Y-103173056D01*
X174552561Y-103063563D01*
X174691918Y-102924206D01*
X174801411Y-102760338D01*
X174868428Y-102598543D01*
X187149499Y-102598543D01*
X187187947Y-102791829D01*
X187187950Y-102791839D01*
X187263364Y-102973907D01*
X187263371Y-102973920D01*
X187372860Y-103137781D01*
X187372863Y-103137785D01*
X187512214Y-103277136D01*
X187512218Y-103277139D01*
X187676079Y-103386628D01*
X187676092Y-103386635D01*
X187796201Y-103436385D01*
X187858165Y-103462051D01*
X187858169Y-103462051D01*
X187858170Y-103462052D01*
X188051456Y-103500500D01*
X188051459Y-103500500D01*
X188248543Y-103500500D01*
X188391140Y-103472135D01*
X188441835Y-103462051D01*
X188623914Y-103386632D01*
X188787782Y-103277139D01*
X188927139Y-103137782D01*
X189036632Y-102973914D01*
X189046219Y-102950770D01*
X189074343Y-102882870D01*
X189112051Y-102791835D01*
X189132343Y-102689822D01*
X192924499Y-102689822D01*
X192933231Y-102733717D01*
X192933234Y-102733724D01*
X192966495Y-102783503D01*
X192969732Y-102785666D01*
X193014538Y-102839278D01*
X193023247Y-102908602D01*
X193008230Y-102950769D01*
X192963720Y-103027861D01*
X192963720Y-103027862D01*
X192924500Y-103174234D01*
X192924500Y-103325765D01*
X192963719Y-103472136D01*
X192986619Y-103511799D01*
X193039485Y-103603365D01*
X193039487Y-103603367D01*
X193098439Y-103662319D01*
X193131924Y-103723642D01*
X193126940Y-103793334D01*
X193098439Y-103837681D01*
X193039487Y-103896632D01*
X193039485Y-103896635D01*
X192963719Y-104027863D01*
X192946150Y-104093434D01*
X192924500Y-104174234D01*
X192924500Y-104325766D01*
X192935158Y-104365543D01*
X192963719Y-104472136D01*
X193001602Y-104537750D01*
X193039485Y-104603365D01*
X193146635Y-104710515D01*
X193277865Y-104786281D01*
X193424234Y-104825500D01*
X193424236Y-104825500D01*
X193575764Y-104825500D01*
X193575766Y-104825500D01*
X193722135Y-104786281D01*
X193853365Y-104710515D01*
X193960515Y-104603365D01*
X194036281Y-104472135D01*
X194075500Y-104325766D01*
X194075500Y-104174234D01*
X194036281Y-104027865D01*
X193960515Y-103896635D01*
X193901561Y-103837681D01*
X193868076Y-103776358D01*
X193873060Y-103706666D01*
X193901561Y-103662319D01*
X193960515Y-103603365D01*
X194036281Y-103472135D01*
X194075500Y-103325766D01*
X194075500Y-103174234D01*
X194036281Y-103027865D01*
X193991770Y-102950770D01*
X193975296Y-102882870D01*
X193998148Y-102816843D01*
X194030267Y-102785666D01*
X194033504Y-102783504D01*
X194066767Y-102733722D01*
X194073765Y-102698543D01*
X194075500Y-102689822D01*
X194075500Y-101810177D01*
X194066768Y-101766282D01*
X194066767Y-101766281D01*
X194066767Y-101766278D01*
X194033504Y-101716496D01*
X194033503Y-101716495D01*
X193983724Y-101683234D01*
X193983717Y-101683231D01*
X193939822Y-101674500D01*
X193939820Y-101674500D01*
X193060180Y-101674500D01*
X193060178Y-101674500D01*
X193016282Y-101683231D01*
X193016275Y-101683234D01*
X192966496Y-101716495D01*
X192966495Y-101716496D01*
X192933234Y-101766275D01*
X192933231Y-101766282D01*
X192924500Y-101810177D01*
X192924500Y-101810180D01*
X192924500Y-102689820D01*
X192924500Y-102689822D01*
X192924499Y-102689822D01*
X189132343Y-102689822D01*
X189150500Y-102598541D01*
X189150500Y-102401459D01*
X189150500Y-102401456D01*
X189112052Y-102208170D01*
X189112051Y-102208169D01*
X189112051Y-102208165D01*
X189078050Y-102126079D01*
X189036635Y-102026092D01*
X189036628Y-102026079D01*
X188934330Y-101872979D01*
X188927138Y-101862216D01*
X188787785Y-101722863D01*
X188787781Y-101722860D01*
X188623920Y-101613371D01*
X188623907Y-101613364D01*
X188441839Y-101537950D01*
X188441829Y-101537947D01*
X188248543Y-101499500D01*
X188248541Y-101499500D01*
X188051459Y-101499500D01*
X188051457Y-101499500D01*
X187858170Y-101537947D01*
X187858160Y-101537950D01*
X187676092Y-101613364D01*
X187676079Y-101613371D01*
X187512218Y-101722860D01*
X187512214Y-101722863D01*
X187372863Y-101862214D01*
X187372860Y-101862218D01*
X187263371Y-102026079D01*
X187263364Y-102026092D01*
X187187950Y-102208160D01*
X187187947Y-102208170D01*
X187149500Y-102401456D01*
X187149500Y-102401459D01*
X187149500Y-102598541D01*
X187149500Y-102598543D01*
X187149499Y-102598543D01*
X174868428Y-102598543D01*
X174876830Y-102578259D01*
X174915279Y-102384965D01*
X174915279Y-102187883D01*
X174915279Y-102187880D01*
X174915278Y-102187878D01*
X174881787Y-102019506D01*
X174888014Y-101949915D01*
X174888809Y-101947943D01*
X174912051Y-101891835D01*
X174928294Y-101810177D01*
X174950500Y-101698543D01*
X174950500Y-101501456D01*
X174912052Y-101308170D01*
X174912051Y-101308169D01*
X174912051Y-101308165D01*
X174899200Y-101277139D01*
X174836635Y-101126092D01*
X174836628Y-101126079D01*
X174727139Y-100962218D01*
X174727136Y-100962214D01*
X174587785Y-100822863D01*
X174587781Y-100822860D01*
X174423920Y-100713371D01*
X174423907Y-100713364D01*
X174241839Y-100637950D01*
X174241829Y-100637947D01*
X174048543Y-100599500D01*
X174048541Y-100599500D01*
X173851459Y-100599500D01*
X173851457Y-100599500D01*
X173658170Y-100637947D01*
X173658160Y-100637950D01*
X173476092Y-100713364D01*
X173476079Y-100713371D01*
X173312218Y-100822860D01*
X173312214Y-100822863D01*
X173172863Y-100962214D01*
X173172860Y-100962218D01*
X173063371Y-101126079D01*
X173063364Y-101126092D01*
X172987950Y-101308160D01*
X172987947Y-101308170D01*
X172949500Y-101501456D01*
X172949500Y-101518278D01*
X172929815Y-101585317D01*
X172877011Y-101631072D01*
X172861499Y-101636937D01*
X172858167Y-101637947D01*
X172676092Y-101713364D01*
X172676079Y-101713371D01*
X172512218Y-101822860D01*
X172512214Y-101822863D01*
X172372863Y-101962214D01*
X172372860Y-101962218D01*
X172263371Y-102126079D01*
X172263364Y-102126092D01*
X172187950Y-102308160D01*
X172187947Y-102308170D01*
X172149500Y-102501456D01*
X172149500Y-102501459D01*
X172149500Y-102698541D01*
X172149500Y-102698543D01*
X172149499Y-102698543D01*
X150000500Y-102698543D01*
X150000500Y-100995679D01*
X150020185Y-100928640D01*
X150072989Y-100882885D01*
X150142147Y-100872941D01*
X150197383Y-100895360D01*
X150384949Y-101031634D01*
X150467914Y-101073907D01*
X150616423Y-101149577D01*
X150616425Y-101149577D01*
X150616428Y-101149579D01*
X150863507Y-101229860D01*
X150995706Y-101250797D01*
X151120098Y-101270500D01*
X151120103Y-101270500D01*
X151379902Y-101270500D01*
X151493298Y-101252539D01*
X151636493Y-101229860D01*
X151883572Y-101149579D01*
X152115051Y-101031634D01*
X152325229Y-100878931D01*
X152508931Y-100695229D01*
X152579177Y-100598543D01*
X158499499Y-100598543D01*
X158537947Y-100791829D01*
X158537950Y-100791839D01*
X158613364Y-100973907D01*
X158613371Y-100973920D01*
X158722860Y-101137781D01*
X158722863Y-101137785D01*
X158862214Y-101277136D01*
X158862218Y-101277139D01*
X159026079Y-101386628D01*
X159026092Y-101386635D01*
X159208160Y-101462049D01*
X159208165Y-101462051D01*
X159208169Y-101462051D01*
X159208170Y-101462052D01*
X159401456Y-101500500D01*
X159401459Y-101500500D01*
X159598543Y-101500500D01*
X159728582Y-101474632D01*
X159791835Y-101462051D01*
X159973914Y-101386632D01*
X160137782Y-101277139D01*
X160277139Y-101137782D01*
X160354368Y-101022197D01*
X160407979Y-100977393D01*
X160409896Y-100976578D01*
X160502538Y-100938206D01*
X160666406Y-100828713D01*
X160796576Y-100698543D01*
X166449499Y-100698543D01*
X166487947Y-100891829D01*
X166487950Y-100891839D01*
X166563364Y-101073907D01*
X166563371Y-101073920D01*
X166672860Y-101237781D01*
X166672863Y-101237785D01*
X166812214Y-101377136D01*
X166812218Y-101377139D01*
X166976079Y-101486628D01*
X166976092Y-101486635D01*
X167158160Y-101562049D01*
X167158165Y-101562051D01*
X167158169Y-101562051D01*
X167158170Y-101562052D01*
X167351456Y-101600500D01*
X167351459Y-101600500D01*
X167548543Y-101600500D01*
X167678582Y-101574632D01*
X167741835Y-101562051D01*
X167923914Y-101486632D01*
X168087782Y-101377139D01*
X168227139Y-101237782D01*
X168336632Y-101073914D01*
X168412051Y-100891835D01*
X168431942Y-100791839D01*
X168450500Y-100698543D01*
X168450500Y-100501456D01*
X168412052Y-100308170D01*
X168412051Y-100308169D01*
X168412051Y-100308165D01*
X168346586Y-100150117D01*
X168336635Y-100126092D01*
X168336628Y-100126079D01*
X168227139Y-99962218D01*
X168227136Y-99962214D01*
X168087785Y-99822863D01*
X168087781Y-99822860D01*
X167923920Y-99713371D01*
X167923911Y-99713366D01*
X167780411Y-99653927D01*
X167758411Y-99636198D01*
X167734565Y-99621044D01*
X167731566Y-99614565D01*
X167726008Y-99610086D01*
X167717085Y-99583278D01*
X167705217Y-99557636D01*
X167706197Y-99550564D01*
X167703943Y-99543792D01*
X167710929Y-99516418D01*
X167714809Y-99488428D01*
X167719456Y-99483008D01*
X167721222Y-99476093D01*
X167741900Y-99456839D01*
X167760296Y-99435392D01*
X167768537Y-99432039D01*
X167772359Y-99428482D01*
X167792325Y-99420568D01*
X167797927Y-99418892D01*
X167893094Y-99399962D01*
X167975994Y-99365623D01*
X167982052Y-99363811D01*
X168010908Y-99363664D01*
X168039606Y-99360579D01*
X168041690Y-99360974D01*
X168130338Y-99378607D01*
X168150517Y-99382622D01*
X168150518Y-99382622D01*
X168347602Y-99382622D01*
X168493230Y-99353654D01*
X168540894Y-99344173D01*
X168702730Y-99277139D01*
X168722966Y-99268757D01*
X168722966Y-99268756D01*
X168722973Y-99268754D01*
X168886841Y-99159261D01*
X169026198Y-99019904D01*
X169041155Y-98997517D01*
X169094765Y-98952710D01*
X169096808Y-98951843D01*
X169202461Y-98908081D01*
X169202461Y-98908080D01*
X169202468Y-98908078D01*
X169366336Y-98798585D01*
X169505693Y-98659228D01*
X169546241Y-98598543D01*
X179499499Y-98598543D01*
X179537947Y-98791829D01*
X179537950Y-98791839D01*
X179613364Y-98973907D01*
X179613371Y-98973920D01*
X179722860Y-99137781D01*
X179722863Y-99137785D01*
X179862215Y-99277137D01*
X179862218Y-99277139D01*
X179957809Y-99341010D01*
X180002612Y-99394620D01*
X180010534Y-99419919D01*
X180020409Y-99469565D01*
X180020412Y-99469575D01*
X180095826Y-99651643D01*
X180095833Y-99651656D01*
X180205322Y-99815517D01*
X180205325Y-99815521D01*
X180344676Y-99954872D01*
X180344680Y-99954875D01*
X180508541Y-100064364D01*
X180508554Y-100064371D01*
X180657564Y-100126092D01*
X180690627Y-100139787D01*
X180690631Y-100139787D01*
X180690632Y-100139788D01*
X180883918Y-100178236D01*
X180883921Y-100178236D01*
X181081005Y-100178236D01*
X181222375Y-100150115D01*
X181274297Y-100139787D01*
X181456376Y-100064368D01*
X181620244Y-99954875D01*
X181759601Y-99815518D01*
X181869094Y-99651650D01*
X181944513Y-99469571D01*
X181965550Y-99363811D01*
X181982962Y-99276279D01*
X181982962Y-99079192D01*
X181944514Y-98885906D01*
X181944513Y-98885905D01*
X181944513Y-98885901D01*
X181905550Y-98791835D01*
X181869097Y-98703828D01*
X181869090Y-98703815D01*
X181759601Y-98539954D01*
X181759598Y-98539950D01*
X181620246Y-98400598D01*
X181591808Y-98381596D01*
X181524651Y-98336724D01*
X181479847Y-98283114D01*
X181471928Y-98257820D01*
X181462051Y-98208165D01*
X181436331Y-98146071D01*
X181386635Y-98026092D01*
X181386628Y-98026079D01*
X181277139Y-97862217D01*
X181137785Y-97722863D01*
X181137781Y-97722860D01*
X180973920Y-97613371D01*
X180973907Y-97613364D01*
X180791839Y-97537950D01*
X180791829Y-97537947D01*
X180598543Y-97499500D01*
X180598541Y-97499500D01*
X180401459Y-97499500D01*
X180401457Y-97499500D01*
X180208170Y-97537947D01*
X180208160Y-97537950D01*
X180026092Y-97613364D01*
X180026079Y-97613371D01*
X179862218Y-97722860D01*
X179862214Y-97722863D01*
X179722863Y-97862214D01*
X179722861Y-97862217D01*
X179613371Y-98026079D01*
X179613364Y-98026092D01*
X179537950Y-98208160D01*
X179537947Y-98208170D01*
X179499500Y-98401456D01*
X179499500Y-98401459D01*
X179499500Y-98598541D01*
X179499500Y-98598543D01*
X179499499Y-98598543D01*
X169546241Y-98598543D01*
X169615186Y-98495360D01*
X169654082Y-98401456D01*
X169676260Y-98347914D01*
X169679800Y-98339367D01*
X169690605Y-98313281D01*
X169720168Y-98164660D01*
X169729054Y-98119989D01*
X169729054Y-98072530D01*
X169748739Y-98005491D01*
X169749952Y-98003639D01*
X169776445Y-97963990D01*
X169836632Y-97873914D01*
X169912051Y-97691835D01*
X169940010Y-97551279D01*
X169950500Y-97498543D01*
X169950500Y-97301456D01*
X169912052Y-97108170D01*
X169912051Y-97108169D01*
X169912051Y-97108165D01*
X169901958Y-97083799D01*
X169850295Y-96959071D01*
X173287351Y-96959071D01*
X173325799Y-97152357D01*
X173325802Y-97152367D01*
X173401216Y-97334435D01*
X173401223Y-97334448D01*
X173510712Y-97498309D01*
X173510715Y-97498313D01*
X173650066Y-97637664D01*
X173650070Y-97637667D01*
X173813931Y-97747156D01*
X173813944Y-97747163D01*
X173941817Y-97800129D01*
X173996017Y-97822579D01*
X173996021Y-97822579D01*
X173996022Y-97822580D01*
X174189308Y-97861028D01*
X174189311Y-97861028D01*
X174386395Y-97861028D01*
X174516434Y-97835160D01*
X174579687Y-97822579D01*
X174761766Y-97747160D01*
X174925634Y-97637667D01*
X175064991Y-97498310D01*
X175174484Y-97334442D01*
X175249903Y-97152363D01*
X175269315Y-97054774D01*
X175288352Y-96959071D01*
X175288352Y-96761984D01*
X175249904Y-96568698D01*
X175249903Y-96568697D01*
X175249903Y-96568693D01*
X175195748Y-96437950D01*
X175174487Y-96386620D01*
X175174480Y-96386607D01*
X175064991Y-96222746D01*
X175064988Y-96222742D01*
X174925637Y-96083391D01*
X174925633Y-96083388D01*
X174761772Y-95973899D01*
X174761759Y-95973892D01*
X174579691Y-95898478D01*
X174579681Y-95898475D01*
X174386395Y-95860028D01*
X174386393Y-95860028D01*
X174189311Y-95860028D01*
X174189309Y-95860028D01*
X173996022Y-95898475D01*
X173996012Y-95898478D01*
X173813944Y-95973892D01*
X173813931Y-95973899D01*
X173650070Y-96083388D01*
X173650066Y-96083391D01*
X173510715Y-96222742D01*
X173510712Y-96222746D01*
X173401223Y-96386607D01*
X173401216Y-96386620D01*
X173325802Y-96568688D01*
X173325799Y-96568698D01*
X173287352Y-96761984D01*
X173287352Y-96761987D01*
X173287352Y-96959069D01*
X173287352Y-96959071D01*
X173287351Y-96959071D01*
X169850295Y-96959071D01*
X169836635Y-96926092D01*
X169836628Y-96926079D01*
X169768946Y-96824786D01*
X169727139Y-96762218D01*
X169727136Y-96762214D01*
X169587785Y-96622863D01*
X169587781Y-96622860D01*
X169423920Y-96513371D01*
X169423907Y-96513364D01*
X169241839Y-96437950D01*
X169241829Y-96437947D01*
X169048543Y-96399500D01*
X169048541Y-96399500D01*
X168851459Y-96399500D01*
X168851457Y-96399500D01*
X168658170Y-96437947D01*
X168658160Y-96437950D01*
X168476092Y-96513364D01*
X168476079Y-96513371D01*
X168312218Y-96622860D01*
X168312214Y-96622863D01*
X168172863Y-96762214D01*
X168172860Y-96762218D01*
X168063371Y-96926079D01*
X168063364Y-96926092D01*
X167987950Y-97108160D01*
X167987947Y-97108170D01*
X167949500Y-97301456D01*
X167949500Y-97335985D01*
X167929815Y-97403024D01*
X167877011Y-97448779D01*
X167807853Y-97458723D01*
X167801308Y-97457602D01*
X167699802Y-97437411D01*
X167699800Y-97437411D01*
X167502718Y-97437411D01*
X167502716Y-97437411D01*
X167309429Y-97475858D01*
X167309419Y-97475861D01*
X167127351Y-97551275D01*
X167127338Y-97551282D01*
X166963477Y-97660771D01*
X166963473Y-97660774D01*
X166824122Y-97800125D01*
X166824119Y-97800129D01*
X166714630Y-97963990D01*
X166714623Y-97964003D01*
X166639209Y-98146071D01*
X166639206Y-98146081D01*
X166600759Y-98339367D01*
X166600759Y-98339370D01*
X166600759Y-98536452D01*
X166600759Y-98536454D01*
X166600758Y-98536454D01*
X166639206Y-98729740D01*
X166639209Y-98729750D01*
X166714623Y-98911818D01*
X166714630Y-98911831D01*
X166824119Y-99075692D01*
X166824122Y-99075696D01*
X166963473Y-99215047D01*
X166963477Y-99215050D01*
X167127338Y-99324539D01*
X167127351Y-99324546D01*
X167270846Y-99383983D01*
X167325250Y-99427824D01*
X167347315Y-99494118D01*
X167330036Y-99561817D01*
X167278899Y-99609428D01*
X167247586Y-99620161D01*
X167158170Y-99637947D01*
X167158160Y-99637950D01*
X166976092Y-99713364D01*
X166976079Y-99713371D01*
X166812218Y-99822860D01*
X166812214Y-99822863D01*
X166672863Y-99962214D01*
X166672860Y-99962218D01*
X166563371Y-100126079D01*
X166563364Y-100126092D01*
X166487950Y-100308160D01*
X166487947Y-100308170D01*
X166449500Y-100501456D01*
X166449500Y-100501459D01*
X166449500Y-100698541D01*
X166449500Y-100698543D01*
X166449499Y-100698543D01*
X160796576Y-100698543D01*
X160805763Y-100689356D01*
X160915256Y-100525488D01*
X160925209Y-100501459D01*
X160947388Y-100447915D01*
X160990673Y-100343413D01*
X160990675Y-100343409D01*
X161017578Y-100208160D01*
X161029124Y-100150117D01*
X161029124Y-99953030D01*
X160990676Y-99759744D01*
X160990675Y-99759743D01*
X160990675Y-99759739D01*
X160990673Y-99759734D01*
X160915259Y-99577666D01*
X160915252Y-99577653D01*
X160805763Y-99413792D01*
X160805760Y-99413788D01*
X160666409Y-99274437D01*
X160666405Y-99274434D01*
X160502544Y-99164945D01*
X160502531Y-99164938D01*
X160320463Y-99089524D01*
X160320453Y-99089521D01*
X160127167Y-99051074D01*
X160127165Y-99051074D01*
X159930083Y-99051074D01*
X159930081Y-99051074D01*
X159736794Y-99089521D01*
X159736784Y-99089524D01*
X159554716Y-99164938D01*
X159554703Y-99164945D01*
X159390842Y-99274434D01*
X159390838Y-99274437D01*
X159251487Y-99413788D01*
X159251484Y-99413792D01*
X159174254Y-99529375D01*
X159120642Y-99574180D01*
X159118605Y-99575045D01*
X159026089Y-99613366D01*
X159026079Y-99613371D01*
X158862218Y-99722860D01*
X158862214Y-99722863D01*
X158722863Y-99862214D01*
X158722860Y-99862218D01*
X158613371Y-100026079D01*
X158613364Y-100026092D01*
X158537950Y-100208160D01*
X158537947Y-100208170D01*
X158499500Y-100401456D01*
X158499500Y-100401459D01*
X158499500Y-100598541D01*
X158499500Y-100598543D01*
X158499499Y-100598543D01*
X152579177Y-100598543D01*
X152661634Y-100485051D01*
X152779579Y-100253572D01*
X152859860Y-100006493D01*
X152888944Y-99822860D01*
X152900500Y-99749902D01*
X152900500Y-99490097D01*
X152866634Y-99276279D01*
X152859860Y-99233507D01*
X152779579Y-98986428D01*
X152779577Y-98986425D01*
X152779577Y-98986423D01*
X152728355Y-98885896D01*
X152661634Y-98754949D01*
X152508931Y-98544771D01*
X152401841Y-98437681D01*
X152368356Y-98376358D01*
X152373340Y-98306666D01*
X152401841Y-98262319D01*
X152426383Y-98237777D01*
X152508931Y-98155229D01*
X152661634Y-97945051D01*
X152779579Y-97713572D01*
X152859860Y-97466493D01*
X152882539Y-97323298D01*
X152900500Y-97209902D01*
X152900500Y-96950097D01*
X152878947Y-96814021D01*
X152859860Y-96693507D01*
X152779579Y-96446428D01*
X152779577Y-96446425D01*
X152779577Y-96446423D01*
X152730701Y-96350500D01*
X152661634Y-96214949D01*
X152508931Y-96004771D01*
X152401841Y-95897681D01*
X152368356Y-95836358D01*
X152373340Y-95766666D01*
X152401841Y-95722319D01*
X152508931Y-95615229D01*
X152661634Y-95405051D01*
X152767881Y-95196530D01*
X186599500Y-95196530D01*
X186599500Y-95403469D01*
X186639868Y-95606412D01*
X186639870Y-95606420D01*
X186719059Y-95797598D01*
X186760773Y-95860028D01*
X186834024Y-95969657D01*
X186980342Y-96115975D01*
X186980345Y-96115977D01*
X187152402Y-96230941D01*
X187343580Y-96310130D01*
X187546530Y-96350499D01*
X187546534Y-96350500D01*
X187546535Y-96350500D01*
X187753466Y-96350500D01*
X187753467Y-96350499D01*
X187956420Y-96310130D01*
X188147598Y-96230941D01*
X188319655Y-96115977D01*
X188465977Y-95969655D01*
X188580941Y-95797598D01*
X188660130Y-95606420D01*
X188700500Y-95403465D01*
X188700500Y-95196535D01*
X188660130Y-94993580D01*
X188580941Y-94802402D01*
X188465977Y-94630345D01*
X188465975Y-94630342D01*
X188319657Y-94484024D01*
X188209016Y-94410097D01*
X188147598Y-94369059D01*
X187956420Y-94289870D01*
X187956412Y-94289868D01*
X187753469Y-94249500D01*
X187753465Y-94249500D01*
X187546535Y-94249500D01*
X187546530Y-94249500D01*
X187343587Y-94289868D01*
X187343579Y-94289870D01*
X187152403Y-94369058D01*
X186980342Y-94484024D01*
X186834024Y-94630342D01*
X186719058Y-94802403D01*
X186639870Y-94993579D01*
X186639868Y-94993587D01*
X186599500Y-95196530D01*
X152767881Y-95196530D01*
X152779579Y-95173572D01*
X152859860Y-94926493D01*
X152879514Y-94802402D01*
X152900500Y-94669902D01*
X152900500Y-94410097D01*
X152875063Y-94249500D01*
X152859860Y-94153507D01*
X152779579Y-93906428D01*
X152779577Y-93906425D01*
X152779577Y-93906423D01*
X152717357Y-93784312D01*
X152661634Y-93674949D01*
X152616785Y-93613220D01*
X152593306Y-93547416D01*
X152609131Y-93479362D01*
X152629423Y-93452655D01*
X152729816Y-93352262D01*
X152825789Y-93199522D01*
X152885368Y-93029255D01*
X152885607Y-93027139D01*
X152896571Y-92929826D01*
X152900500Y-92894954D01*
X152900500Y-91105046D01*
X152887422Y-90988971D01*
X152885369Y-90970750D01*
X152885368Y-90970745D01*
X152825788Y-90800476D01*
X152729815Y-90647737D01*
X152602262Y-90520184D01*
X152449523Y-90424211D01*
X152279254Y-90364631D01*
X152279249Y-90364630D01*
X152144960Y-90349500D01*
X152144954Y-90349500D01*
X150355046Y-90349500D01*
X150355039Y-90349500D01*
X150220750Y-90364630D01*
X150220739Y-90364633D01*
X150165453Y-90383978D01*
X150095674Y-90387539D01*
X150035047Y-90352809D01*
X150002821Y-90290816D01*
X150000500Y-90266936D01*
X150000500Y-89575578D01*
X155699500Y-89575578D01*
X155699500Y-89924421D01*
X155733692Y-90271594D01*
X155801744Y-90613721D01*
X155801747Y-90613732D01*
X155903016Y-90947571D01*
X155920164Y-90988970D01*
X156025052Y-91242192D01*
X156036516Y-91269867D01*
X156036518Y-91269872D01*
X156200955Y-91577511D01*
X156200972Y-91577539D01*
X156394759Y-91867563D01*
X156394776Y-91867586D01*
X156616084Y-92137251D01*
X156862748Y-92383915D01*
X156862753Y-92383919D01*
X156862754Y-92383920D01*
X157132419Y-92605228D01*
X157132426Y-92605233D01*
X157132436Y-92605240D01*
X157422460Y-92799027D01*
X157422465Y-92799030D01*
X157422477Y-92799038D01*
X157422486Y-92799042D01*
X157422488Y-92799044D01*
X157730127Y-92963481D01*
X157730129Y-92963481D01*
X157730135Y-92963485D01*
X158052430Y-93096984D01*
X158386258Y-93198250D01*
X158386264Y-93198251D01*
X158386267Y-93198252D01*
X158386278Y-93198255D01*
X158728405Y-93266307D01*
X159075575Y-93300500D01*
X159075578Y-93300500D01*
X159424422Y-93300500D01*
X159424425Y-93300500D01*
X159771595Y-93266307D01*
X159838197Y-93253059D01*
X160113721Y-93198255D01*
X160113732Y-93198252D01*
X160113732Y-93198251D01*
X160113742Y-93198250D01*
X160447570Y-93096984D01*
X160769865Y-92963485D01*
X161077523Y-92799038D01*
X161367581Y-92605228D01*
X161637246Y-92383920D01*
X161672623Y-92348543D01*
X172499499Y-92348543D01*
X172537947Y-92541829D01*
X172537950Y-92541839D01*
X172613364Y-92723907D01*
X172613371Y-92723920D01*
X172722860Y-92887781D01*
X172722863Y-92887785D01*
X172862214Y-93027136D01*
X172862218Y-93027139D01*
X173026079Y-93136628D01*
X173026092Y-93136635D01*
X173174846Y-93198250D01*
X173208165Y-93212051D01*
X173208169Y-93212051D01*
X173208170Y-93212052D01*
X173401456Y-93250500D01*
X173401459Y-93250500D01*
X173598543Y-93250500D01*
X173728582Y-93224632D01*
X173791835Y-93212051D01*
X173973914Y-93136632D01*
X174137782Y-93027139D01*
X174177080Y-92987841D01*
X174197424Y-92976731D01*
X174215207Y-92961853D01*
X174230517Y-92958660D01*
X174238403Y-92954355D01*
X174249239Y-92952497D01*
X174256974Y-92951521D01*
X174340370Y-92951521D01*
X174485050Y-92922742D01*
X174489409Y-92922192D01*
X174519731Y-92927087D01*
X174550331Y-92929826D01*
X174554790Y-92932748D01*
X174558385Y-92933329D01*
X174565723Y-92939913D01*
X174592613Y-92957535D01*
X174612214Y-92977136D01*
X174612218Y-92977139D01*
X174776079Y-93086628D01*
X174776092Y-93086635D01*
X174958160Y-93162049D01*
X174958165Y-93162051D01*
X174958169Y-93162051D01*
X174958170Y-93162052D01*
X175151456Y-93200500D01*
X175151459Y-93200500D01*
X175348543Y-93200500D01*
X175478582Y-93174632D01*
X175541835Y-93162051D01*
X175607372Y-93134905D01*
X178903118Y-93134905D01*
X178941566Y-93328191D01*
X178941569Y-93328201D01*
X179016983Y-93510269D01*
X179016990Y-93510282D01*
X179126479Y-93674143D01*
X179126482Y-93674147D01*
X179265833Y-93813498D01*
X179265837Y-93813501D01*
X179429698Y-93922990D01*
X179429711Y-93922997D01*
X179538952Y-93968245D01*
X179611784Y-93998413D01*
X179618912Y-93999830D01*
X179680822Y-94032215D01*
X179709282Y-94073995D01*
X179719057Y-94097595D01*
X179834024Y-94269657D01*
X179980342Y-94415975D01*
X179980345Y-94415977D01*
X180152402Y-94530941D01*
X180343580Y-94610130D01*
X180546530Y-94650499D01*
X180546534Y-94650500D01*
X180546535Y-94650500D01*
X180753466Y-94650500D01*
X180753467Y-94650499D01*
X180956420Y-94610130D01*
X181147598Y-94530941D01*
X181319655Y-94415977D01*
X181465977Y-94269655D01*
X181580941Y-94097598D01*
X181660130Y-93906420D01*
X181700500Y-93703465D01*
X181700500Y-93496535D01*
X181660130Y-93293580D01*
X181580941Y-93102402D01*
X181465977Y-92930345D01*
X181465975Y-92930342D01*
X181319657Y-92784024D01*
X181154864Y-92673914D01*
X181147598Y-92669059D01*
X180956420Y-92589870D01*
X180956412Y-92589868D01*
X180836287Y-92565974D01*
X180774376Y-92533590D01*
X180757376Y-92513247D01*
X180680759Y-92398581D01*
X180680753Y-92398574D01*
X180541404Y-92259225D01*
X180541400Y-92259222D01*
X180377539Y-92149733D01*
X180377526Y-92149726D01*
X180195458Y-92074312D01*
X180195448Y-92074309D01*
X180002162Y-92035862D01*
X180002160Y-92035862D01*
X179805078Y-92035862D01*
X179805076Y-92035862D01*
X179611789Y-92074309D01*
X179611779Y-92074312D01*
X179429711Y-92149726D01*
X179429698Y-92149733D01*
X179265837Y-92259222D01*
X179265833Y-92259225D01*
X179126482Y-92398576D01*
X179126479Y-92398580D01*
X179016990Y-92562441D01*
X179016983Y-92562454D01*
X178941569Y-92744522D01*
X178941566Y-92744532D01*
X178903119Y-92937818D01*
X178903119Y-92937821D01*
X178903119Y-93134903D01*
X178903119Y-93134905D01*
X178903118Y-93134905D01*
X175607372Y-93134905D01*
X175723914Y-93086632D01*
X175887782Y-92977139D01*
X175951849Y-92913072D01*
X176020874Y-92844048D01*
X176027136Y-92837785D01*
X176027139Y-92837782D01*
X176136632Y-92673914D01*
X176212051Y-92491835D01*
X176240554Y-92348543D01*
X176250500Y-92298543D01*
X176250500Y-92101456D01*
X176212052Y-91908170D01*
X176212051Y-91908169D01*
X176212051Y-91908165D01*
X176157340Y-91776079D01*
X176136635Y-91726092D01*
X176136628Y-91726079D01*
X176027139Y-91562218D01*
X176027136Y-91562214D01*
X175887785Y-91422863D01*
X175887781Y-91422860D01*
X175723920Y-91313371D01*
X175723907Y-91313364D01*
X175541839Y-91237950D01*
X175541829Y-91237947D01*
X175348543Y-91199500D01*
X175348541Y-91199500D01*
X175151459Y-91199500D01*
X175151454Y-91199500D01*
X175011087Y-91227421D01*
X174941496Y-91221194D01*
X174899215Y-91193485D01*
X174879614Y-91173884D01*
X174879610Y-91173881D01*
X174715749Y-91064392D01*
X174715736Y-91064385D01*
X174533668Y-90988971D01*
X174533658Y-90988968D01*
X174340372Y-90950521D01*
X174340370Y-90950521D01*
X174143288Y-90950521D01*
X174143286Y-90950521D01*
X173949999Y-90988968D01*
X173949989Y-90988971D01*
X173767921Y-91064385D01*
X173767908Y-91064392D01*
X173604047Y-91173881D01*
X173604043Y-91173884D01*
X173564749Y-91213180D01*
X173503426Y-91246666D01*
X173477067Y-91249500D01*
X173401457Y-91249500D01*
X173208170Y-91287947D01*
X173208160Y-91287950D01*
X173026092Y-91363364D01*
X173026079Y-91363371D01*
X172862218Y-91472860D01*
X172862214Y-91472863D01*
X172722863Y-91612214D01*
X172722860Y-91612218D01*
X172613371Y-91776079D01*
X172613364Y-91776092D01*
X172537950Y-91958160D01*
X172537947Y-91958170D01*
X172499500Y-92151456D01*
X172499500Y-92151459D01*
X172499500Y-92348541D01*
X172499500Y-92348543D01*
X172499499Y-92348543D01*
X161672623Y-92348543D01*
X161883920Y-92137246D01*
X162105228Y-91867581D01*
X162299038Y-91577523D01*
X162463485Y-91269865D01*
X162596984Y-90947570D01*
X162698250Y-90613742D01*
X162698252Y-90613732D01*
X162698255Y-90613721D01*
X162766307Y-90271594D01*
X162800500Y-89924421D01*
X162800500Y-89575578D01*
X186199500Y-89575578D01*
X186199500Y-89924421D01*
X186233692Y-90271594D01*
X186301744Y-90613721D01*
X186301747Y-90613732D01*
X186403016Y-90947571D01*
X186420164Y-90988970D01*
X186525052Y-91242192D01*
X186536516Y-91269867D01*
X186536518Y-91269872D01*
X186700955Y-91577511D01*
X186700972Y-91577539D01*
X186894759Y-91867563D01*
X186894776Y-91867586D01*
X187116084Y-92137251D01*
X187362748Y-92383915D01*
X187362753Y-92383919D01*
X187362754Y-92383920D01*
X187632419Y-92605228D01*
X187632426Y-92605233D01*
X187632436Y-92605240D01*
X187922460Y-92799027D01*
X187922465Y-92799030D01*
X187922477Y-92799038D01*
X187922486Y-92799042D01*
X187922488Y-92799044D01*
X188230127Y-92963481D01*
X188230129Y-92963481D01*
X188230135Y-92963485D01*
X188552430Y-93096984D01*
X188886258Y-93198250D01*
X188886264Y-93198251D01*
X188886267Y-93198252D01*
X188886278Y-93198255D01*
X189228405Y-93266307D01*
X189575575Y-93300500D01*
X189575578Y-93300500D01*
X189924422Y-93300500D01*
X189924425Y-93300500D01*
X190271595Y-93266307D01*
X190338197Y-93253059D01*
X190613721Y-93198255D01*
X190613732Y-93198252D01*
X190613732Y-93198251D01*
X190613742Y-93198250D01*
X190947570Y-93096984D01*
X191269865Y-92963485D01*
X191577523Y-92799038D01*
X191867581Y-92605228D01*
X192137246Y-92383920D01*
X192383920Y-92137246D01*
X192605228Y-91867581D01*
X192799038Y-91577523D01*
X192963485Y-91269865D01*
X193096984Y-90947570D01*
X193198250Y-90613742D01*
X193198252Y-90613732D01*
X193198255Y-90613721D01*
X193266307Y-90271594D01*
X193300500Y-89924421D01*
X193300500Y-89575578D01*
X193266307Y-89228405D01*
X193198255Y-88886278D01*
X193198252Y-88886267D01*
X193198251Y-88886264D01*
X193198250Y-88886258D01*
X193096984Y-88552430D01*
X192963485Y-88230135D01*
X192955917Y-88215977D01*
X192799044Y-87922488D01*
X192799042Y-87922486D01*
X192799038Y-87922477D01*
X192799027Y-87922460D01*
X192605240Y-87632436D01*
X192605233Y-87632426D01*
X192605228Y-87632419D01*
X192383920Y-87362754D01*
X192383917Y-87362751D01*
X192383915Y-87362748D01*
X192137251Y-87116084D01*
X191867586Y-86894776D01*
X191867563Y-86894759D01*
X191577539Y-86700972D01*
X191577511Y-86700955D01*
X191269872Y-86536518D01*
X191269867Y-86536516D01*
X190947571Y-86403016D01*
X190613732Y-86301747D01*
X190613721Y-86301744D01*
X190271594Y-86233692D01*
X190010120Y-86207940D01*
X189924425Y-86199500D01*
X189575575Y-86199500D01*
X189496394Y-86207298D01*
X189228405Y-86233692D01*
X188886278Y-86301744D01*
X188886267Y-86301747D01*
X188552428Y-86403016D01*
X188230132Y-86536516D01*
X188230127Y-86536518D01*
X187922488Y-86700955D01*
X187922460Y-86700972D01*
X187632436Y-86894759D01*
X187632413Y-86894776D01*
X187362748Y-87116084D01*
X187116084Y-87362748D01*
X186894776Y-87632413D01*
X186894759Y-87632436D01*
X186700972Y-87922460D01*
X186700955Y-87922488D01*
X186536518Y-88230127D01*
X186536516Y-88230132D01*
X186403016Y-88552428D01*
X186301747Y-88886267D01*
X186301744Y-88886278D01*
X186233692Y-89228405D01*
X186199500Y-89575578D01*
X162800500Y-89575578D01*
X162766307Y-89228405D01*
X162698255Y-88886278D01*
X162698252Y-88886267D01*
X162698251Y-88886264D01*
X162698250Y-88886258D01*
X162596984Y-88552430D01*
X162463485Y-88230135D01*
X162455917Y-88215977D01*
X162299044Y-87922488D01*
X162299042Y-87922486D01*
X162299038Y-87922477D01*
X162299027Y-87922460D01*
X162105240Y-87632436D01*
X162105233Y-87632426D01*
X162105228Y-87632419D01*
X161999399Y-87503466D01*
X161889135Y-87369108D01*
X161889134Y-87369107D01*
X161883918Y-87362751D01*
X161817697Y-87296530D01*
X163799500Y-87296530D01*
X163799500Y-87503469D01*
X163839868Y-87706412D01*
X163839870Y-87706420D01*
X163919059Y-87897598D01*
X163935690Y-87922488D01*
X164034024Y-88069657D01*
X164180342Y-88215975D01*
X164180345Y-88215977D01*
X164352402Y-88330941D01*
X164543580Y-88410130D01*
X164746530Y-88450499D01*
X164746534Y-88450500D01*
X164746535Y-88450500D01*
X164953466Y-88450500D01*
X164953467Y-88450499D01*
X165156420Y-88410130D01*
X165347598Y-88330941D01*
X165519655Y-88215977D01*
X165665977Y-88069655D01*
X165780941Y-87897598D01*
X165860130Y-87706420D01*
X165900500Y-87503465D01*
X165900500Y-87296535D01*
X165860130Y-87093580D01*
X165780941Y-86902402D01*
X165665977Y-86730345D01*
X165665975Y-86730342D01*
X165519657Y-86584024D01*
X165433626Y-86526541D01*
X165347598Y-86469059D01*
X165156420Y-86389870D01*
X165156412Y-86389868D01*
X164953469Y-86349500D01*
X164953465Y-86349500D01*
X164746535Y-86349500D01*
X164746530Y-86349500D01*
X164543587Y-86389868D01*
X164543579Y-86389870D01*
X164352403Y-86469058D01*
X164180342Y-86584024D01*
X164034024Y-86730342D01*
X163919058Y-86902403D01*
X163839870Y-87093579D01*
X163839868Y-87093587D01*
X163799500Y-87296530D01*
X161817697Y-87296530D01*
X161637251Y-87116084D01*
X161367586Y-86894776D01*
X161367563Y-86894759D01*
X161077539Y-86700972D01*
X161077511Y-86700955D01*
X160769872Y-86536518D01*
X160769867Y-86536516D01*
X160447571Y-86403016D01*
X160113732Y-86301747D01*
X160113721Y-86301744D01*
X159771594Y-86233692D01*
X159510120Y-86207940D01*
X159424425Y-86199500D01*
X159075575Y-86199500D01*
X158996394Y-86207298D01*
X158728405Y-86233692D01*
X158386278Y-86301744D01*
X158386267Y-86301747D01*
X158052428Y-86403016D01*
X157730132Y-86536516D01*
X157730127Y-86536518D01*
X157422488Y-86700955D01*
X157422460Y-86700972D01*
X157132436Y-86894759D01*
X157132413Y-86894776D01*
X156862748Y-87116084D01*
X156616084Y-87362748D01*
X156394776Y-87632413D01*
X156394759Y-87632436D01*
X156200972Y-87922460D01*
X156200955Y-87922488D01*
X156036518Y-88230127D01*
X156036516Y-88230132D01*
X155903016Y-88552428D01*
X155801747Y-88886267D01*
X155801744Y-88886278D01*
X155733692Y-89228405D01*
X155699500Y-89575578D01*
X150000500Y-89575578D01*
X150000500Y-83273057D01*
X150020185Y-83206018D01*
X150072989Y-83160263D01*
X150142147Y-83150319D01*
X150193391Y-83169955D01*
X150307788Y-83246393D01*
X150307801Y-83246400D01*
X150372158Y-83273057D01*
X150489874Y-83321816D01*
X150489878Y-83321816D01*
X150489879Y-83321817D01*
X150683165Y-83360265D01*
X150683168Y-83360265D01*
X150880252Y-83360265D01*
X151010291Y-83334397D01*
X151073544Y-83321816D01*
X151255623Y-83246397D01*
X151419491Y-83136904D01*
X151558848Y-82997547D01*
X151668341Y-82833679D01*
X151670681Y-82828031D01*
X151743758Y-82651604D01*
X151743760Y-82651600D01*
X151774128Y-82498932D01*
X151806513Y-82437021D01*
X151867228Y-82402447D01*
X151871491Y-82401518D01*
X151962567Y-82383403D01*
X152144646Y-82307984D01*
X152308514Y-82198491D01*
X152447871Y-82059134D01*
X152557364Y-81895266D01*
X152632783Y-81713187D01*
X152645364Y-81649934D01*
X152671232Y-81519895D01*
X152671232Y-81322808D01*
X152632784Y-81129522D01*
X152632783Y-81129521D01*
X152632783Y-81129517D01*
X152587065Y-81019142D01*
X152557367Y-80947444D01*
X152557360Y-80947431D01*
X152447871Y-80783570D01*
X152447868Y-80783566D01*
X152378740Y-80714438D01*
X152369876Y-80698205D01*
X152356941Y-80684982D01*
X152353478Y-80668174D01*
X152345255Y-80653115D01*
X152346574Y-80634665D01*
X152342842Y-80616549D01*
X152349014Y-80600539D01*
X152350239Y-80583423D01*
X152361323Y-80568615D01*
X152367978Y-80551358D01*
X152381827Y-80541226D01*
X152392111Y-80527490D01*
X152409440Y-80521026D01*
X152424370Y-80510105D01*
X152456432Y-80503499D01*
X152457575Y-80503073D01*
X152458798Y-80502992D01*
X152486952Y-80501289D01*
X152496268Y-80500726D01*
X152503751Y-80500500D01*
X152565892Y-80500500D01*
X196367851Y-80500500D01*
X196434890Y-80520185D01*
G37*
%TD.AperFunction*%
%TD*%
M02*
