%TF.GenerationSoftware,KiCad,Pcbnew,9.0.7-9.0.7~ubuntu24.04.1*%
%TF.CreationDate,2026-06-02T18:03:56+02:00*%
%TF.ProjectId,flight_controller,666c6967-6874-45f6-936f-6e74726f6c6c,rev?*%
%TF.SameCoordinates,Original*%
%TF.FileFunction,Copper,L5,Inr*%
%TF.FilePolarity,Positive*%
%FSLAX46Y46*%
G04 Gerber Fmt 4.6, Leading zero omitted, Abs format (unit mm)*
G04 Created by KiCad (PCBNEW 9.0.7-9.0.7~ubuntu24.04.1) date 2026-06-02 18:03:56*
%MOMM*%
%LPD*%
G01*
G04 APERTURE LIST*
%TA.AperFunction,ComponentPad*%
%ADD10R,1.700000X1.700000*%
%TD*%
%TA.AperFunction,ComponentPad*%
%ADD11C,1.700000*%
%TD*%
%TA.AperFunction,ComponentPad*%
%ADD12C,5.500000*%
%TD*%
%TA.AperFunction,ComponentPad*%
%ADD13R,0.850000X0.850000*%
%TD*%
%TA.AperFunction,ComponentPad*%
%ADD14C,0.850000*%
%TD*%
%TA.AperFunction,ComponentPad*%
%ADD15O,2.100000X1.000000*%
%TD*%
%TA.AperFunction,ComponentPad*%
%ADD16O,1.800000X1.000000*%
%TD*%
%TA.AperFunction,ViaPad*%
%ADD17C,0.400000*%
%TD*%
%TA.AperFunction,ViaPad*%
%ADD18C,0.500000*%
%TD*%
%TA.AperFunction,ViaPad*%
%ADD19C,0.600000*%
%TD*%
G04 APERTURE END LIST*
D10*
%TO.N,GNDREF*%
%TO.C,J5*%
X151250000Y-92000000D03*
D11*
%TO.N,/GPS_TX*%
X151250000Y-94540000D03*
%TO.N,/GPS_RX*%
X151250000Y-97080000D03*
%TO.N,+5V*%
X151250000Y-99620000D03*
%TD*%
D10*
%TO.N,GNDREF*%
%TO.C,J3*%
X160880000Y-128000000D03*
D11*
%TO.N,/VTX_TX*%
X163420000Y-128000000D03*
%TO.N,/VTX_RX*%
X165960000Y-128000000D03*
%TO.N,+9V*%
X168500000Y-128000000D03*
%TD*%
D10*
%TO.N,GNDREF*%
%TO.C,J4*%
X151250000Y-111000000D03*
D11*
%TO.N,/TRANSCEIVER_TX*%
X151250000Y-113540000D03*
%TO.N,/TRANSCEIVER_RX*%
X151250000Y-116080000D03*
%TO.N,+5V*%
X151250000Y-118620000D03*
%TD*%
D12*
%TO.N,*%
%TO.C,REF\u002A\u002A*%
X189750000Y-120250000D03*
%TD*%
%TO.N,*%
%TO.C,REF\u002A\u002A*%
X159250000Y-89750000D03*
%TD*%
%TO.N,*%
%TO.C,REF\u002A\u002A*%
X159250000Y-120250000D03*
%TD*%
D13*
%TO.N,/JTAG_SWCLK*%
%TO.C,J1*%
X193500000Y-102250000D03*
D14*
%TO.N,/JTAG_SWDIO*%
X193500000Y-103250000D03*
%TO.N,GNDREF*%
X193500000Y-104250000D03*
%TD*%
D12*
%TO.N,*%
%TO.C,REF\u002A\u002A*%
X189750000Y-89750000D03*
%TD*%
D15*
%TO.N,GNDREF*%
%TO.C,J6*%
X192482500Y-115820000D03*
X192482500Y-107180000D03*
D16*
X196662500Y-115820000D03*
X196662500Y-107180000D03*
%TD*%
D17*
%TO.N,Net-(U2-FB)*%
X154750000Y-109500000D03*
%TO.N,+5V*%
X170550000Y-123300000D03*
%TO.N,VBAT*%
X183150000Y-119100000D03*
D18*
%TO.N,+3.3V*%
X170850000Y-106200000D03*
X187650000Y-95300000D03*
D17*
X158750000Y-115100000D03*
X167450000Y-100600000D03*
D18*
X183450000Y-112900000D03*
D17*
X176650000Y-112900000D03*
D18*
X180650000Y-93600000D03*
X184150000Y-115900000D03*
X174513909Y-118263909D03*
D17*
X170550000Y-115300000D03*
X170250000Y-111000000D03*
X175250000Y-92200000D03*
X188150000Y-102500000D03*
X167950110Y-117501685D03*
D18*
X164850000Y-87400000D03*
D17*
%TO.N,GNDREF*%
X172093722Y-111618610D03*
X184297235Y-111471365D03*
X169603245Y-106089198D03*
X173914779Y-102286424D03*
X198113794Y-127590761D03*
X174287852Y-96860528D03*
X166650000Y-115100000D03*
X174321402Y-110798846D03*
X177765277Y-107560855D03*
X181930646Y-104398435D03*
X174241829Y-91951021D03*
X197224771Y-128529174D03*
X151884217Y-128422887D03*
X154269998Y-109860002D03*
X182466875Y-117706020D03*
X150781709Y-82359765D03*
X160028624Y-100051574D03*
X191650000Y-102500000D03*
X197261587Y-81310977D03*
X174118961Y-115605162D03*
X181750000Y-111100000D03*
X167601259Y-98437911D03*
X198200000Y-82200000D03*
X150945804Y-127533864D03*
X180982462Y-99177736D03*
X180806316Y-104839451D03*
X168950000Y-97400000D03*
X165050000Y-112600000D03*
X175759285Y-114497678D03*
X181547594Y-115204811D03*
X179903619Y-93036362D03*
X151670732Y-81421352D03*
X182844413Y-123989163D03*
D18*
%TO.N,VBAT*%
X185750000Y-126500000D03*
D17*
X177000000Y-86750000D03*
D18*
X162250000Y-98000000D03*
D17*
X154350000Y-101200000D03*
%TO.N,/ICM_INT1*%
X184050000Y-110800000D03*
X181950000Y-117400000D03*
%TO.N,+5VBAT*%
X190350000Y-106400000D03*
X162250000Y-109500000D03*
%TO.N,/BMP_SCLK*%
X173750000Y-114300000D03*
X174150000Y-110000000D03*
%TO.N,/BOOT*%
X173500000Y-92250000D03*
X180500000Y-98500000D03*
%TO.N,/BMP_SDI*%
X177150000Y-107500000D03*
X175250000Y-114000000D03*
%TO.N,+5V*%
X164550110Y-123401685D03*
D18*
X188050000Y-115100000D03*
D17*
X186750000Y-109000000D03*
X197950000Y-97600000D03*
%TO.N,Net-(U2-FB)*%
X159500000Y-100500000D03*
%TO.N,Net-(U4-FB)*%
X173648970Y-122483732D03*
X183599998Y-123934715D03*
%TO.N,/FLASH_SCLK*%
X165750000Y-112250000D03*
X166750000Y-114500000D03*
D19*
%TO.N,/ICM_MISO*%
X181000000Y-115750000D03*
X181750000Y-110250000D03*
D17*
%TO.N,/VTX_RX*%
X182313188Y-104936812D03*
%TO.N,/VTX_TX*%
X181250000Y-105250000D03*
%TO.N,/GPS_RX*%
X168249059Y-98382122D03*
X173150000Y-102600000D03*
%TO.N,/GPS_TX*%
X173950000Y-101600000D03*
X168728554Y-98021446D03*
%TD*%
%TA.AperFunction,Conductor*%
%TO.N,GNDREF*%
G36*
X196503736Y-80500726D02*
G01*
X196793796Y-80518271D01*
X196808659Y-80520076D01*
X197090798Y-80571780D01*
X197105335Y-80575363D01*
X197379172Y-80660695D01*
X197393163Y-80666000D01*
X197654743Y-80783727D01*
X197667989Y-80790680D01*
X197913465Y-80939075D01*
X197925776Y-80947573D01*
X198151573Y-81124473D01*
X198162781Y-81134403D01*
X198365596Y-81337218D01*
X198375526Y-81348426D01*
X198495481Y-81501538D01*
X198552422Y-81574217D01*
X198560928Y-81586540D01*
X198709316Y-81832004D01*
X198716275Y-81845263D01*
X198833997Y-82106831D01*
X198839306Y-82120832D01*
X198924635Y-82394663D01*
X198928219Y-82409201D01*
X198979923Y-82691340D01*
X198981728Y-82706205D01*
X198999274Y-82996263D01*
X198999500Y-83003750D01*
X198999500Y-126996249D01*
X198999274Y-127003736D01*
X198981728Y-127293794D01*
X198979923Y-127308659D01*
X198928219Y-127590798D01*
X198924635Y-127605336D01*
X198839306Y-127879167D01*
X198833997Y-127893168D01*
X198716275Y-128154736D01*
X198709316Y-128167995D01*
X198560928Y-128413459D01*
X198552422Y-128425782D01*
X198375526Y-128651573D01*
X198365596Y-128662781D01*
X198162781Y-128865596D01*
X198151573Y-128875526D01*
X197925782Y-129052422D01*
X197913459Y-129060928D01*
X197667995Y-129209316D01*
X197654736Y-129216275D01*
X197393168Y-129333997D01*
X197379167Y-129339306D01*
X197105336Y-129424635D01*
X197090798Y-129428219D01*
X196808659Y-129479923D01*
X196793794Y-129481728D01*
X196503736Y-129499274D01*
X196496249Y-129499500D01*
X162069269Y-129499500D01*
X162002230Y-129479815D01*
X161956475Y-129427011D01*
X161946531Y-129357853D01*
X161975556Y-129294297D01*
X161994958Y-129276234D01*
X162087187Y-129207190D01*
X162087190Y-129207187D01*
X162173350Y-129092093D01*
X162173354Y-129092086D01*
X162223596Y-128957379D01*
X162223598Y-128957372D01*
X162229999Y-128897844D01*
X162230000Y-128897827D01*
X162230000Y-128701087D01*
X162249685Y-128634048D01*
X162302489Y-128588293D01*
X162371647Y-128578349D01*
X162435203Y-128607374D01*
X162454318Y-128628202D01*
X162542441Y-128749495D01*
X162670500Y-128877554D01*
X162670505Y-128877558D01*
X162698427Y-128897844D01*
X162817006Y-128983996D01*
X162922484Y-129037740D01*
X162978360Y-129066211D01*
X162978363Y-129066212D01*
X163044683Y-129087760D01*
X163150591Y-129122171D01*
X163233429Y-129135291D01*
X163329449Y-129150500D01*
X163329454Y-129150500D01*
X163510551Y-129150500D01*
X163597259Y-129136765D01*
X163689409Y-129122171D01*
X163861639Y-129066211D01*
X164022994Y-128983996D01*
X164169501Y-128877553D01*
X164297553Y-128749501D01*
X164403996Y-128602994D01*
X164486211Y-128441639D01*
X164542171Y-128269409D01*
X164559250Y-128161576D01*
X164567527Y-128109321D01*
X164597456Y-128046186D01*
X164656768Y-128009255D01*
X164726630Y-128010253D01*
X164784863Y-128048863D01*
X164812473Y-128109321D01*
X164837829Y-128269410D01*
X164893787Y-128441636D01*
X164893788Y-128441639D01*
X164949664Y-128551300D01*
X164968513Y-128588293D01*
X164976006Y-128602997D01*
X165082441Y-128749494D01*
X165082445Y-128749499D01*
X165210500Y-128877554D01*
X165210505Y-128877558D01*
X165238427Y-128897844D01*
X165357006Y-128983996D01*
X165462484Y-129037740D01*
X165518360Y-129066211D01*
X165518363Y-129066212D01*
X165584683Y-129087760D01*
X165690591Y-129122171D01*
X165773429Y-129135291D01*
X165869449Y-129150500D01*
X165869454Y-129150500D01*
X166050551Y-129150500D01*
X166137259Y-129136765D01*
X166229409Y-129122171D01*
X166401639Y-129066211D01*
X166562994Y-128983996D01*
X166709501Y-128877553D01*
X166837553Y-128749501D01*
X166943996Y-128602994D01*
X167026211Y-128441639D01*
X167082171Y-128269409D01*
X167099250Y-128161576D01*
X167107527Y-128109321D01*
X167137456Y-128046186D01*
X167196768Y-128009255D01*
X167266630Y-128010253D01*
X167324863Y-128048863D01*
X167352473Y-128109321D01*
X167377829Y-128269410D01*
X167433787Y-128441636D01*
X167433788Y-128441639D01*
X167489664Y-128551300D01*
X167508513Y-128588293D01*
X167516006Y-128602997D01*
X167622441Y-128749494D01*
X167622445Y-128749499D01*
X167750500Y-128877554D01*
X167750505Y-128877558D01*
X167778427Y-128897844D01*
X167897006Y-128983996D01*
X168002484Y-129037740D01*
X168058360Y-129066211D01*
X168058363Y-129066212D01*
X168124683Y-129087760D01*
X168230591Y-129122171D01*
X168313429Y-129135291D01*
X168409449Y-129150500D01*
X168409454Y-129150500D01*
X168590551Y-129150500D01*
X168677259Y-129136765D01*
X168769409Y-129122171D01*
X168941639Y-129066211D01*
X169102994Y-128983996D01*
X169249501Y-128877553D01*
X169377553Y-128749501D01*
X169483996Y-128602994D01*
X169566211Y-128441639D01*
X169622171Y-128269409D01*
X169639250Y-128161576D01*
X169650500Y-128090551D01*
X169650500Y-127909448D01*
X169625245Y-127750000D01*
X169622171Y-127730591D01*
X169566211Y-127558361D01*
X169566211Y-127558360D01*
X169495937Y-127420442D01*
X169483996Y-127397006D01*
X169465681Y-127371797D01*
X169377558Y-127250505D01*
X169377554Y-127250500D01*
X169249499Y-127122445D01*
X169249494Y-127122441D01*
X169102997Y-127016006D01*
X169102996Y-127016005D01*
X169102994Y-127016004D01*
X169051300Y-126989664D01*
X168941639Y-126933788D01*
X168941636Y-126933787D01*
X168769410Y-126877829D01*
X168590551Y-126849500D01*
X168590546Y-126849500D01*
X168409454Y-126849500D01*
X168409449Y-126849500D01*
X168230589Y-126877829D01*
X168058363Y-126933787D01*
X168058360Y-126933788D01*
X167897002Y-127016006D01*
X167750505Y-127122441D01*
X167750500Y-127122445D01*
X167622445Y-127250500D01*
X167622441Y-127250505D01*
X167516006Y-127397002D01*
X167433788Y-127558360D01*
X167433787Y-127558363D01*
X167377829Y-127730589D01*
X167352473Y-127890678D01*
X167322544Y-127953813D01*
X167263232Y-127990744D01*
X167193369Y-127989746D01*
X167135137Y-127951136D01*
X167107527Y-127890678D01*
X167085245Y-127750000D01*
X167082171Y-127730591D01*
X167026211Y-127558361D01*
X167026211Y-127558360D01*
X166955937Y-127420442D01*
X166943996Y-127397006D01*
X166925681Y-127371797D01*
X166837558Y-127250505D01*
X166837554Y-127250500D01*
X166709499Y-127122445D01*
X166709494Y-127122441D01*
X166562997Y-127016006D01*
X166562996Y-127016005D01*
X166562994Y-127016004D01*
X166511300Y-126989664D01*
X166401639Y-126933788D01*
X166401636Y-126933787D01*
X166229410Y-126877829D01*
X166050551Y-126849500D01*
X166050546Y-126849500D01*
X165869454Y-126849500D01*
X165869449Y-126849500D01*
X165690589Y-126877829D01*
X165518363Y-126933787D01*
X165518360Y-126933788D01*
X165357002Y-127016006D01*
X165210505Y-127122441D01*
X165210500Y-127122445D01*
X165082445Y-127250500D01*
X165082441Y-127250505D01*
X164976006Y-127397002D01*
X164893788Y-127558360D01*
X164893787Y-127558363D01*
X164837829Y-127730589D01*
X164812473Y-127890678D01*
X164782544Y-127953813D01*
X164723232Y-127990744D01*
X164653369Y-127989746D01*
X164595137Y-127951136D01*
X164567527Y-127890678D01*
X164545245Y-127750000D01*
X164542171Y-127730591D01*
X164486211Y-127558361D01*
X164486211Y-127558360D01*
X164415937Y-127420442D01*
X164403996Y-127397006D01*
X164385681Y-127371797D01*
X164297558Y-127250505D01*
X164297554Y-127250500D01*
X164169499Y-127122445D01*
X164169494Y-127122441D01*
X164022997Y-127016006D01*
X164022996Y-127016005D01*
X164022994Y-127016004D01*
X163971300Y-126989664D01*
X163861639Y-126933788D01*
X163861636Y-126933787D01*
X163689410Y-126877829D01*
X163510551Y-126849500D01*
X163510546Y-126849500D01*
X163329454Y-126849500D01*
X163329449Y-126849500D01*
X163150589Y-126877829D01*
X162978363Y-126933787D01*
X162978360Y-126933788D01*
X162817002Y-127016006D01*
X162670505Y-127122441D01*
X162670500Y-127122445D01*
X162542445Y-127250500D01*
X162542441Y-127250505D01*
X162454318Y-127371797D01*
X162398988Y-127414463D01*
X162329375Y-127420442D01*
X162267580Y-127387836D01*
X162233223Y-127326998D01*
X162230000Y-127298912D01*
X162230000Y-127102172D01*
X162229999Y-127102155D01*
X162223598Y-127042627D01*
X162223596Y-127042620D01*
X162173354Y-126907913D01*
X162173350Y-126907906D01*
X162087190Y-126792812D01*
X162087187Y-126792809D01*
X161972093Y-126706649D01*
X161972086Y-126706645D01*
X161837379Y-126656403D01*
X161837372Y-126656401D01*
X161777844Y-126650000D01*
X161130000Y-126650000D01*
X161130000Y-127566988D01*
X161072993Y-127534075D01*
X160945826Y-127500000D01*
X160814174Y-127500000D01*
X160687007Y-127534075D01*
X160630000Y-127566988D01*
X160630000Y-126650000D01*
X159982155Y-126650000D01*
X159922627Y-126656401D01*
X159922620Y-126656403D01*
X159787913Y-126706645D01*
X159787906Y-126706649D01*
X159672812Y-126792809D01*
X159672809Y-126792812D01*
X159586649Y-126907906D01*
X159586645Y-126907913D01*
X159536403Y-127042620D01*
X159536401Y-127042627D01*
X159530000Y-127102155D01*
X159530000Y-127750000D01*
X160446988Y-127750000D01*
X160414075Y-127807007D01*
X160380000Y-127934174D01*
X160380000Y-128065826D01*
X160414075Y-128192993D01*
X160446988Y-128250000D01*
X159530000Y-128250000D01*
X159530000Y-128897844D01*
X159536401Y-128957372D01*
X159536403Y-128957379D01*
X159586645Y-129092086D01*
X159586649Y-129092093D01*
X159672809Y-129207187D01*
X159672812Y-129207190D01*
X159765042Y-129276234D01*
X159806913Y-129332168D01*
X159811897Y-129401859D01*
X159778411Y-129463182D01*
X159717088Y-129496666D01*
X159690731Y-129499500D01*
X152503751Y-129499500D01*
X152496264Y-129499274D01*
X152206205Y-129481728D01*
X152191340Y-129479923D01*
X151909201Y-129428219D01*
X151894663Y-129424635D01*
X151620832Y-129339306D01*
X151606831Y-129333997D01*
X151345263Y-129216275D01*
X151332004Y-129209316D01*
X151234710Y-129150500D01*
X151086537Y-129060926D01*
X151074217Y-129052422D01*
X150848426Y-128875526D01*
X150837218Y-128865596D01*
X150634403Y-128662781D01*
X150624473Y-128651573D01*
X150505723Y-128500000D01*
X150447573Y-128425776D01*
X150439075Y-128413465D01*
X150290680Y-128167989D01*
X150283727Y-128154743D01*
X150166000Y-127893163D01*
X150160693Y-127879167D01*
X150114394Y-127730589D01*
X150075363Y-127605335D01*
X150071780Y-127590798D01*
X150036266Y-127397006D01*
X150020075Y-127308657D01*
X150018271Y-127293794D01*
X150000726Y-127003736D01*
X150000500Y-126996249D01*
X150000500Y-126427525D01*
X185199500Y-126427525D01*
X185199500Y-126572475D01*
X185221989Y-126656403D01*
X185237017Y-126712488D01*
X185309488Y-126838011D01*
X185309490Y-126838013D01*
X185309491Y-126838015D01*
X185411985Y-126940509D01*
X185411986Y-126940510D01*
X185411988Y-126940511D01*
X185537511Y-127012982D01*
X185537512Y-127012982D01*
X185537515Y-127012984D01*
X185677525Y-127050500D01*
X185677528Y-127050500D01*
X185822472Y-127050500D01*
X185822475Y-127050500D01*
X185962485Y-127012984D01*
X186088015Y-126940509D01*
X186190509Y-126838015D01*
X186262984Y-126712485D01*
X186300500Y-126572475D01*
X186300500Y-126427525D01*
X186262984Y-126287515D01*
X186190509Y-126161985D01*
X186088015Y-126059491D01*
X186088013Y-126059490D01*
X186088011Y-126059488D01*
X185962488Y-125987017D01*
X185962489Y-125987017D01*
X185951006Y-125983940D01*
X185822475Y-125949500D01*
X185677525Y-125949500D01*
X185548993Y-125983940D01*
X185537511Y-125987017D01*
X185411988Y-126059488D01*
X185411982Y-126059493D01*
X185309493Y-126161982D01*
X185309488Y-126161988D01*
X185237017Y-126287511D01*
X185237016Y-126287515D01*
X185199500Y-126427525D01*
X150000500Y-126427525D01*
X150000500Y-123335793D01*
X164049610Y-123335793D01*
X164049610Y-123467576D01*
X164083718Y-123594872D01*
X164102499Y-123627401D01*
X164149610Y-123708999D01*
X164242796Y-123802185D01*
X164356924Y-123868077D01*
X164484218Y-123902185D01*
X164484220Y-123902185D01*
X164616000Y-123902185D01*
X164616002Y-123902185D01*
X164740512Y-123868823D01*
X183099498Y-123868823D01*
X183099498Y-124000606D01*
X183133606Y-124127902D01*
X183166552Y-124184965D01*
X183199498Y-124242029D01*
X183292684Y-124335215D01*
X183406812Y-124401107D01*
X183534106Y-124435215D01*
X183534108Y-124435215D01*
X183665888Y-124435215D01*
X183665890Y-124435215D01*
X183793184Y-124401107D01*
X183907312Y-124335215D01*
X184000498Y-124242029D01*
X184066390Y-124127901D01*
X184100498Y-124000607D01*
X184100498Y-123868823D01*
X184066390Y-123741529D01*
X184000498Y-123627401D01*
X183907312Y-123534215D01*
X183836248Y-123493186D01*
X183793185Y-123468323D01*
X183729537Y-123451269D01*
X183665890Y-123434215D01*
X183534106Y-123434215D01*
X183406810Y-123468323D01*
X183292684Y-123534215D01*
X183292681Y-123534217D01*
X183199500Y-123627398D01*
X183199498Y-123627401D01*
X183133606Y-123741527D01*
X183099498Y-123868823D01*
X164740512Y-123868823D01*
X164743296Y-123868077D01*
X164857424Y-123802185D01*
X164950610Y-123708999D01*
X165016502Y-123594871D01*
X165050610Y-123467577D01*
X165050610Y-123335793D01*
X165023364Y-123234108D01*
X170049500Y-123234108D01*
X170049500Y-123365891D01*
X170083608Y-123493187D01*
X170107296Y-123534215D01*
X170149500Y-123607314D01*
X170242686Y-123700500D01*
X170356814Y-123766392D01*
X170484108Y-123800500D01*
X170484110Y-123800500D01*
X170615890Y-123800500D01*
X170615892Y-123800500D01*
X170743186Y-123766392D01*
X170857314Y-123700500D01*
X170950500Y-123607314D01*
X171016392Y-123493186D01*
X171050500Y-123365892D01*
X171050500Y-123234108D01*
X171016392Y-123106814D01*
X170950500Y-122992686D01*
X170857314Y-122899500D01*
X170800250Y-122866554D01*
X170743187Y-122833608D01*
X170679539Y-122816554D01*
X170615892Y-122799500D01*
X170484108Y-122799500D01*
X170356812Y-122833608D01*
X170242686Y-122899500D01*
X170242683Y-122899502D01*
X170149502Y-122992683D01*
X170149500Y-122992686D01*
X170083608Y-123106812D01*
X170049500Y-123234108D01*
X165023364Y-123234108D01*
X165016502Y-123208499D01*
X164950610Y-123094371D01*
X164857424Y-123001185D01*
X164800360Y-122968239D01*
X164743297Y-122935293D01*
X164679649Y-122918239D01*
X164616002Y-122901185D01*
X164484218Y-122901185D01*
X164356922Y-122935293D01*
X164242796Y-123001185D01*
X164242793Y-123001187D01*
X164149612Y-123094368D01*
X164149610Y-123094371D01*
X164083718Y-123208497D01*
X164049610Y-123335793D01*
X150000500Y-123335793D01*
X150000500Y-120078681D01*
X156199500Y-120078681D01*
X156199500Y-120421318D01*
X156237858Y-120761768D01*
X156237861Y-120761782D01*
X156314102Y-121095816D01*
X156314103Y-121095818D01*
X156427264Y-121419216D01*
X156575922Y-121727907D01*
X156575924Y-121727910D01*
X156758211Y-122018018D01*
X156971834Y-122285893D01*
X157214107Y-122528166D01*
X157481982Y-122741789D01*
X157772090Y-122924076D01*
X158080785Y-123072736D01*
X158404183Y-123185897D01*
X158738217Y-123262139D01*
X158738226Y-123262140D01*
X158738231Y-123262141D01*
X158965197Y-123287713D01*
X159078682Y-123300499D01*
X159078685Y-123300500D01*
X159078688Y-123300500D01*
X159421315Y-123300500D01*
X159421316Y-123300499D01*
X159595311Y-123280895D01*
X159761768Y-123262141D01*
X159761771Y-123262140D01*
X159761783Y-123262139D01*
X159987884Y-123210532D01*
X160004346Y-123206775D01*
X160030094Y-123200897D01*
X160095817Y-123185897D01*
X160419215Y-123072736D01*
X160727910Y-122924076D01*
X161018018Y-122741789D01*
X161285893Y-122528166D01*
X161396219Y-122417840D01*
X173148470Y-122417840D01*
X173148470Y-122549623D01*
X173182578Y-122676919D01*
X173215524Y-122733982D01*
X173248470Y-122791046D01*
X173341656Y-122884232D01*
X173455784Y-122950124D01*
X173583078Y-122984232D01*
X173583080Y-122984232D01*
X173714860Y-122984232D01*
X173714862Y-122984232D01*
X173842156Y-122950124D01*
X173956284Y-122884232D01*
X174049470Y-122791046D01*
X174115362Y-122676918D01*
X174149470Y-122549624D01*
X174149470Y-122417840D01*
X174115362Y-122290546D01*
X174049470Y-122176418D01*
X173956284Y-122083232D01*
X173899220Y-122050286D01*
X173842157Y-122017340D01*
X173778509Y-122000286D01*
X173714862Y-121983232D01*
X173583078Y-121983232D01*
X173455782Y-122017340D01*
X173341656Y-122083232D01*
X173341653Y-122083234D01*
X173248472Y-122176415D01*
X173248470Y-122176418D01*
X173182578Y-122290544D01*
X173148470Y-122417840D01*
X161396219Y-122417840D01*
X161528166Y-122285893D01*
X161741789Y-122018018D01*
X161924076Y-121727910D01*
X162072736Y-121419215D01*
X162185897Y-121095817D01*
X162262139Y-120761783D01*
X162300500Y-120421312D01*
X162300500Y-120078688D01*
X162300499Y-120078681D01*
X186699500Y-120078681D01*
X186699500Y-120421318D01*
X186737858Y-120761768D01*
X186737861Y-120761782D01*
X186814102Y-121095816D01*
X186814103Y-121095818D01*
X186927264Y-121419216D01*
X187075922Y-121727907D01*
X187075924Y-121727910D01*
X187258211Y-122018018D01*
X187471834Y-122285893D01*
X187714107Y-122528166D01*
X187981982Y-122741789D01*
X188272090Y-122924076D01*
X188580785Y-123072736D01*
X188904183Y-123185897D01*
X189238217Y-123262139D01*
X189238226Y-123262140D01*
X189238231Y-123262141D01*
X189465197Y-123287713D01*
X189578682Y-123300499D01*
X189578685Y-123300500D01*
X189578688Y-123300500D01*
X189921315Y-123300500D01*
X189921316Y-123300499D01*
X190095311Y-123280895D01*
X190261768Y-123262141D01*
X190261771Y-123262140D01*
X190261783Y-123262139D01*
X190595817Y-123185897D01*
X190919215Y-123072736D01*
X191227910Y-122924076D01*
X191518018Y-122741789D01*
X191785893Y-122528166D01*
X192028166Y-122285893D01*
X192241789Y-122018018D01*
X192424076Y-121727910D01*
X192572736Y-121419215D01*
X192685897Y-121095817D01*
X192762139Y-120761783D01*
X192800500Y-120421312D01*
X192800500Y-120078688D01*
X192787713Y-119965197D01*
X192762141Y-119738231D01*
X192762140Y-119738226D01*
X192762139Y-119738217D01*
X192685897Y-119404183D01*
X192572736Y-119080785D01*
X192424076Y-118772090D01*
X192241789Y-118481982D01*
X192028166Y-118214107D01*
X191785893Y-117971834D01*
X191518018Y-117758211D01*
X191227910Y-117575924D01*
X191227907Y-117575922D01*
X190919216Y-117427264D01*
X190595818Y-117314103D01*
X190595816Y-117314102D01*
X190337473Y-117255137D01*
X190261783Y-117237861D01*
X190261780Y-117237860D01*
X190261768Y-117237858D01*
X189921318Y-117199500D01*
X189921312Y-117199500D01*
X189578688Y-117199500D01*
X189578681Y-117199500D01*
X189238231Y-117237858D01*
X189238217Y-117237861D01*
X188904183Y-117314102D01*
X188904181Y-117314103D01*
X188580783Y-117427264D01*
X188272092Y-117575922D01*
X187981983Y-117758210D01*
X187714107Y-117971833D01*
X187471833Y-118214107D01*
X187258210Y-118481983D01*
X187075922Y-118772092D01*
X186927264Y-119080783D01*
X186814103Y-119404181D01*
X186814102Y-119404183D01*
X186737861Y-119738217D01*
X186737858Y-119738231D01*
X186699500Y-120078681D01*
X162300499Y-120078681D01*
X162287713Y-119965197D01*
X162262141Y-119738231D01*
X162262140Y-119738226D01*
X162262139Y-119738217D01*
X162185897Y-119404183D01*
X162072736Y-119080785D01*
X162050257Y-119034108D01*
X182649500Y-119034108D01*
X182649500Y-119165891D01*
X182683608Y-119293187D01*
X182716554Y-119350250D01*
X182749500Y-119407314D01*
X182842686Y-119500500D01*
X182956814Y-119566392D01*
X183084108Y-119600500D01*
X183084110Y-119600500D01*
X183215890Y-119600500D01*
X183215892Y-119600500D01*
X183343186Y-119566392D01*
X183457314Y-119500500D01*
X183550500Y-119407314D01*
X183616392Y-119293186D01*
X183650500Y-119165892D01*
X183650500Y-119034108D01*
X183616392Y-118906814D01*
X183550500Y-118792686D01*
X183457314Y-118699500D01*
X183400250Y-118666554D01*
X183343187Y-118633608D01*
X183279539Y-118616554D01*
X183215892Y-118599500D01*
X183084108Y-118599500D01*
X182956812Y-118633608D01*
X182842686Y-118699500D01*
X182842683Y-118699502D01*
X182749502Y-118792683D01*
X182749500Y-118792686D01*
X182683608Y-118906812D01*
X182649500Y-119034108D01*
X162050257Y-119034108D01*
X161924076Y-118772090D01*
X161741789Y-118481982D01*
X161528166Y-118214107D01*
X161505493Y-118191434D01*
X173963409Y-118191434D01*
X173963409Y-118336384D01*
X174000925Y-118476394D01*
X174000926Y-118476397D01*
X174073397Y-118601920D01*
X174073399Y-118601922D01*
X174073400Y-118601924D01*
X174175894Y-118704418D01*
X174175895Y-118704419D01*
X174175897Y-118704420D01*
X174301420Y-118776891D01*
X174301421Y-118776891D01*
X174301424Y-118776893D01*
X174441434Y-118814409D01*
X174441437Y-118814409D01*
X174586381Y-118814409D01*
X174586384Y-118814409D01*
X174726394Y-118776893D01*
X174851924Y-118704418D01*
X174954418Y-118601924D01*
X175026893Y-118476394D01*
X175064409Y-118336384D01*
X175064409Y-118191434D01*
X175026893Y-118051424D01*
X175007019Y-118017002D01*
X174954420Y-117925897D01*
X174954415Y-117925891D01*
X174851926Y-117823402D01*
X174851920Y-117823397D01*
X174726397Y-117750926D01*
X174726398Y-117750926D01*
X174694754Y-117742447D01*
X174586384Y-117713409D01*
X174441434Y-117713409D01*
X174333064Y-117742447D01*
X174301420Y-117750926D01*
X174175897Y-117823397D01*
X174175891Y-117823402D01*
X174073402Y-117925891D01*
X174073397Y-117925897D01*
X174000926Y-118051420D01*
X174000925Y-118051424D01*
X173963409Y-118191434D01*
X161505493Y-118191434D01*
X161285893Y-117971834D01*
X161018018Y-117758211D01*
X160727910Y-117575924D01*
X160727907Y-117575922D01*
X160652039Y-117539386D01*
X160436927Y-117435793D01*
X167449610Y-117435793D01*
X167449610Y-117567576D01*
X167483718Y-117694872D01*
X167490901Y-117707313D01*
X167549610Y-117808999D01*
X167642796Y-117902185D01*
X167756924Y-117968077D01*
X167884218Y-118002185D01*
X167884220Y-118002185D01*
X168016000Y-118002185D01*
X168016002Y-118002185D01*
X168143296Y-117968077D01*
X168257424Y-117902185D01*
X168350610Y-117808999D01*
X168416502Y-117694871D01*
X168450610Y-117567577D01*
X168450610Y-117435793D01*
X168423364Y-117334108D01*
X181449500Y-117334108D01*
X181449500Y-117465892D01*
X181466554Y-117529539D01*
X181483608Y-117593187D01*
X181508329Y-117636004D01*
X181549500Y-117707314D01*
X181642686Y-117800500D01*
X181756814Y-117866392D01*
X181884108Y-117900500D01*
X181884110Y-117900500D01*
X182015890Y-117900500D01*
X182015892Y-117900500D01*
X182143186Y-117866392D01*
X182257314Y-117800500D01*
X182350500Y-117707314D01*
X182416392Y-117593186D01*
X182450500Y-117465892D01*
X182450500Y-117334108D01*
X182416392Y-117206814D01*
X182350500Y-117092686D01*
X182257314Y-116999500D01*
X182184660Y-116957553D01*
X182143187Y-116933608D01*
X182079539Y-116916554D01*
X182015892Y-116899500D01*
X181884108Y-116899500D01*
X181756812Y-116933608D01*
X181642686Y-116999500D01*
X181642683Y-116999502D01*
X181549502Y-117092683D01*
X181549500Y-117092686D01*
X181483608Y-117206812D01*
X181454860Y-117314103D01*
X181449500Y-117334108D01*
X168423364Y-117334108D01*
X168416502Y-117308499D01*
X168350610Y-117194371D01*
X168257424Y-117101185D01*
X168193006Y-117063993D01*
X168143297Y-117035293D01*
X168079649Y-117018239D01*
X168016002Y-117001185D01*
X167884218Y-117001185D01*
X167756922Y-117035293D01*
X167642796Y-117101185D01*
X167642793Y-117101187D01*
X167549612Y-117194368D01*
X167549610Y-117194371D01*
X167483718Y-117308497D01*
X167449610Y-117435793D01*
X160436927Y-117435793D01*
X160419216Y-117427264D01*
X160095818Y-117314103D01*
X160095816Y-117314102D01*
X159837473Y-117255137D01*
X159761783Y-117237861D01*
X159761780Y-117237860D01*
X159761768Y-117237858D01*
X159421318Y-117199500D01*
X159421312Y-117199500D01*
X159078688Y-117199500D01*
X159078681Y-117199500D01*
X158738231Y-117237858D01*
X158738217Y-117237861D01*
X158404183Y-117314102D01*
X158404181Y-117314103D01*
X158080783Y-117427264D01*
X157772092Y-117575922D01*
X157481983Y-117758210D01*
X157214107Y-117971833D01*
X156971833Y-118214107D01*
X156758210Y-118481983D01*
X156575922Y-118772092D01*
X156427264Y-119080783D01*
X156314103Y-119404181D01*
X156314102Y-119404183D01*
X156237861Y-119738217D01*
X156237858Y-119738231D01*
X156199500Y-120078681D01*
X150000500Y-120078681D01*
X150000500Y-119218411D01*
X150020185Y-119151372D01*
X150072989Y-119105617D01*
X150142147Y-119095673D01*
X150205703Y-119124698D01*
X150234985Y-119162116D01*
X150266006Y-119222997D01*
X150372441Y-119369494D01*
X150372445Y-119369499D01*
X150500500Y-119497554D01*
X150500505Y-119497558D01*
X150595247Y-119566391D01*
X150647006Y-119603996D01*
X150752484Y-119657740D01*
X150808360Y-119686211D01*
X150808363Y-119686212D01*
X150894476Y-119714191D01*
X150980591Y-119742171D01*
X151063429Y-119755291D01*
X151159449Y-119770500D01*
X151159454Y-119770500D01*
X151340551Y-119770500D01*
X151427259Y-119756765D01*
X151519409Y-119742171D01*
X151691639Y-119686211D01*
X151852994Y-119603996D01*
X151999501Y-119497553D01*
X152127553Y-119369501D01*
X152233996Y-119222994D01*
X152316211Y-119061639D01*
X152372171Y-118889409D01*
X152390752Y-118772092D01*
X152400500Y-118710551D01*
X152400500Y-118529448D01*
X152384019Y-118425397D01*
X152372171Y-118350591D01*
X152342938Y-118260620D01*
X152316212Y-118178363D01*
X152316211Y-118178360D01*
X152265015Y-118077884D01*
X152233996Y-118017006D01*
X152198447Y-117968077D01*
X152127558Y-117870505D01*
X152127554Y-117870500D01*
X151999499Y-117742445D01*
X151999494Y-117742441D01*
X151852997Y-117636006D01*
X151852996Y-117636005D01*
X151852994Y-117636004D01*
X151801300Y-117609664D01*
X151691639Y-117553788D01*
X151691636Y-117553787D01*
X151519410Y-117497829D01*
X151359321Y-117472473D01*
X151296186Y-117442544D01*
X151259255Y-117383232D01*
X151260253Y-117313370D01*
X151298863Y-117255137D01*
X151359321Y-117227527D01*
X151429425Y-117216422D01*
X151519409Y-117202171D01*
X151691639Y-117146211D01*
X151852994Y-117063996D01*
X151999501Y-116957553D01*
X152127553Y-116829501D01*
X152233996Y-116682994D01*
X152316211Y-116521639D01*
X152372171Y-116349409D01*
X152389815Y-116238011D01*
X152400500Y-116170551D01*
X152400500Y-115989448D01*
X152379917Y-115859496D01*
X152372171Y-115810591D01*
X152326798Y-115670945D01*
X152316212Y-115638363D01*
X152316211Y-115638360D01*
X152277294Y-115561982D01*
X152233996Y-115477006D01*
X152183362Y-115407314D01*
X152127558Y-115330505D01*
X152127554Y-115330500D01*
X151999499Y-115202445D01*
X151999494Y-115202441D01*
X151894716Y-115126315D01*
X151894693Y-115126300D01*
X151852993Y-115096003D01*
X151731519Y-115034108D01*
X158249500Y-115034108D01*
X158249500Y-115165892D01*
X158259293Y-115202441D01*
X158283608Y-115293187D01*
X158294750Y-115312485D01*
X158349500Y-115407314D01*
X158442686Y-115500500D01*
X158556814Y-115566392D01*
X158684108Y-115600500D01*
X158684110Y-115600500D01*
X158815890Y-115600500D01*
X158815892Y-115600500D01*
X158943186Y-115566392D01*
X159057314Y-115500500D01*
X159150500Y-115407314D01*
X159216392Y-115293186D01*
X159232222Y-115234108D01*
X170049500Y-115234108D01*
X170049500Y-115365892D01*
X170066554Y-115429539D01*
X170083608Y-115493187D01*
X170103885Y-115528307D01*
X170149500Y-115607314D01*
X170242686Y-115700500D01*
X170356814Y-115766392D01*
X170484108Y-115800500D01*
X170484110Y-115800500D01*
X170615890Y-115800500D01*
X170615892Y-115800500D01*
X170743186Y-115766392D01*
X170857314Y-115700500D01*
X170886871Y-115670943D01*
X180399500Y-115670943D01*
X180399500Y-115829056D01*
X180440423Y-115981783D01*
X180440426Y-115981790D01*
X180519475Y-116118709D01*
X180519479Y-116118714D01*
X180519480Y-116118716D01*
X180631284Y-116230520D01*
X180631286Y-116230521D01*
X180631290Y-116230524D01*
X180740666Y-116293671D01*
X180768216Y-116309577D01*
X180920943Y-116350500D01*
X180920945Y-116350500D01*
X181079055Y-116350500D01*
X181079057Y-116350500D01*
X181231784Y-116309577D01*
X181368716Y-116230520D01*
X181480520Y-116118716D01*
X181559577Y-115981784D01*
X181600500Y-115829057D01*
X181600500Y-115827525D01*
X183599500Y-115827525D01*
X183599500Y-115972475D01*
X183622969Y-116060060D01*
X183637017Y-116112488D01*
X183709488Y-116238011D01*
X183709490Y-116238013D01*
X183709491Y-116238015D01*
X183811985Y-116340509D01*
X183811986Y-116340510D01*
X183811988Y-116340511D01*
X183937511Y-116412982D01*
X183937512Y-116412982D01*
X183937515Y-116412984D01*
X184077525Y-116450500D01*
X184077528Y-116450500D01*
X184222472Y-116450500D01*
X184222475Y-116450500D01*
X184362485Y-116412984D01*
X184488015Y-116340509D01*
X184590509Y-116238015D01*
X184662984Y-116112485D01*
X184700500Y-115972475D01*
X184700500Y-115827525D01*
X184662984Y-115687515D01*
X184653417Y-115670945D01*
X184590511Y-115561988D01*
X184590506Y-115561982D01*
X184488017Y-115459493D01*
X184488011Y-115459488D01*
X184362488Y-115387017D01*
X184362489Y-115387017D01*
X184351006Y-115383940D01*
X184222475Y-115349500D01*
X184077525Y-115349500D01*
X183948993Y-115383940D01*
X183937511Y-115387017D01*
X183811988Y-115459488D01*
X183811982Y-115459493D01*
X183709493Y-115561982D01*
X183709488Y-115561988D01*
X183637017Y-115687511D01*
X183637016Y-115687515D01*
X183599500Y-115827525D01*
X181600500Y-115827525D01*
X181600500Y-115670943D01*
X181559577Y-115518216D01*
X181535785Y-115477006D01*
X181480524Y-115381290D01*
X181480518Y-115381282D01*
X181368717Y-115269481D01*
X181368709Y-115269475D01*
X181231790Y-115190426D01*
X181231786Y-115190424D01*
X181231784Y-115190423D01*
X181079057Y-115149500D01*
X180920943Y-115149500D01*
X180768216Y-115190423D01*
X180768209Y-115190426D01*
X180631290Y-115269475D01*
X180631282Y-115269481D01*
X180519481Y-115381282D01*
X180519475Y-115381290D01*
X180440426Y-115518209D01*
X180440423Y-115518216D01*
X180399500Y-115670943D01*
X170886871Y-115670943D01*
X170950500Y-115607314D01*
X171016392Y-115493186D01*
X171050500Y-115365892D01*
X171050500Y-115234108D01*
X171016392Y-115106814D01*
X171016391Y-115106812D01*
X171016391Y-115106811D01*
X171001719Y-115081400D01*
X171001718Y-115081398D01*
X170970614Y-115027525D01*
X187499500Y-115027525D01*
X187499500Y-115172475D01*
X187525493Y-115269480D01*
X187537017Y-115312488D01*
X187609488Y-115438011D01*
X187609490Y-115438013D01*
X187609491Y-115438015D01*
X187711985Y-115540509D01*
X187711986Y-115540510D01*
X187711988Y-115540511D01*
X187837511Y-115612982D01*
X187837512Y-115612982D01*
X187837515Y-115612984D01*
X187977525Y-115650500D01*
X187977528Y-115650500D01*
X188122472Y-115650500D01*
X188122475Y-115650500D01*
X188262485Y-115612984D01*
X188336935Y-115570000D01*
X190962638Y-115570000D01*
X191765512Y-115570000D01*
X191748295Y-115579940D01*
X191692440Y-115635795D01*
X191652944Y-115704204D01*
X191632500Y-115780504D01*
X191632500Y-115859496D01*
X191652944Y-115935796D01*
X191692440Y-116004205D01*
X191748295Y-116060060D01*
X191765512Y-116070000D01*
X190962638Y-116070000D01*
X190970930Y-116111690D01*
X190970930Y-116111692D01*
X191046307Y-116293671D01*
X191046314Y-116293684D01*
X191155748Y-116457462D01*
X191155751Y-116457466D01*
X191295033Y-116596748D01*
X191295037Y-116596751D01*
X191458815Y-116706185D01*
X191458828Y-116706192D01*
X191640806Y-116781569D01*
X191640818Y-116781572D01*
X191834004Y-116819999D01*
X191834008Y-116820000D01*
X192232500Y-116820000D01*
X192232500Y-116120000D01*
X192732500Y-116120000D01*
X192732500Y-116820000D01*
X193130992Y-116820000D01*
X193130995Y-116819999D01*
X193324181Y-116781572D01*
X193324193Y-116781569D01*
X193506171Y-116706192D01*
X193506184Y-116706185D01*
X193669962Y-116596751D01*
X193669966Y-116596748D01*
X193809248Y-116457466D01*
X193809251Y-116457462D01*
X193918685Y-116293684D01*
X193918692Y-116293671D01*
X193994069Y-116111692D01*
X193994069Y-116111690D01*
X194002362Y-116070000D01*
X193199488Y-116070000D01*
X193216705Y-116060060D01*
X193272560Y-116004205D01*
X193312056Y-115935796D01*
X193332500Y-115859496D01*
X193332500Y-115780504D01*
X193312056Y-115704204D01*
X193272560Y-115635795D01*
X193216705Y-115579940D01*
X193199488Y-115570000D01*
X194002362Y-115570000D01*
X195292638Y-115570000D01*
X196095512Y-115570000D01*
X196078295Y-115579940D01*
X196022440Y-115635795D01*
X195982944Y-115704204D01*
X195962500Y-115780504D01*
X195962500Y-115859496D01*
X195982944Y-115935796D01*
X196022440Y-116004205D01*
X196078295Y-116060060D01*
X196095512Y-116070000D01*
X195292638Y-116070000D01*
X195300930Y-116111690D01*
X195300930Y-116111692D01*
X195376307Y-116293671D01*
X195376314Y-116293684D01*
X195485748Y-116457462D01*
X195485751Y-116457466D01*
X195625033Y-116596748D01*
X195625037Y-116596751D01*
X195788815Y-116706185D01*
X195788828Y-116706192D01*
X195970806Y-116781569D01*
X195970818Y-116781572D01*
X196164004Y-116819999D01*
X196164008Y-116820000D01*
X196412500Y-116820000D01*
X196412500Y-116120000D01*
X196912500Y-116120000D01*
X196912500Y-116820000D01*
X197160992Y-116820000D01*
X197160995Y-116819999D01*
X197354181Y-116781572D01*
X197354193Y-116781569D01*
X197536171Y-116706192D01*
X197536184Y-116706185D01*
X197699962Y-116596751D01*
X197699966Y-116596748D01*
X197839248Y-116457466D01*
X197839251Y-116457462D01*
X197948685Y-116293684D01*
X197948692Y-116293671D01*
X198024069Y-116111692D01*
X198024069Y-116111690D01*
X198032362Y-116070000D01*
X197229488Y-116070000D01*
X197246705Y-116060060D01*
X197302560Y-116004205D01*
X197342056Y-115935796D01*
X197362500Y-115859496D01*
X197362500Y-115780504D01*
X197342056Y-115704204D01*
X197302560Y-115635795D01*
X197246705Y-115579940D01*
X197229488Y-115570000D01*
X198032362Y-115570000D01*
X198024069Y-115528309D01*
X198024069Y-115528307D01*
X197948692Y-115346328D01*
X197948685Y-115346315D01*
X197839251Y-115182537D01*
X197839248Y-115182533D01*
X197699966Y-115043251D01*
X197699962Y-115043248D01*
X197536184Y-114933814D01*
X197536171Y-114933807D01*
X197354193Y-114858430D01*
X197354181Y-114858427D01*
X197160995Y-114820000D01*
X196912500Y-114820000D01*
X196912500Y-115520000D01*
X196412500Y-115520000D01*
X196412500Y-114820000D01*
X196164004Y-114820000D01*
X195970818Y-114858427D01*
X195970806Y-114858430D01*
X195788828Y-114933807D01*
X195788815Y-114933814D01*
X195625037Y-115043248D01*
X195625033Y-115043251D01*
X195485751Y-115182533D01*
X195485748Y-115182537D01*
X195376314Y-115346315D01*
X195376307Y-115346328D01*
X195300930Y-115528307D01*
X195300930Y-115528309D01*
X195292638Y-115570000D01*
X194002362Y-115570000D01*
X193994069Y-115528309D01*
X193994069Y-115528307D01*
X193918692Y-115346328D01*
X193918685Y-115346315D01*
X193809251Y-115182537D01*
X193809248Y-115182533D01*
X193669966Y-115043251D01*
X193669962Y-115043248D01*
X193506184Y-114933814D01*
X193506174Y-114933809D01*
X193496657Y-114929867D01*
X193442254Y-114886026D01*
X193420189Y-114819731D01*
X193437469Y-114752032D01*
X193441148Y-114746597D01*
X193443012Y-114743367D01*
X193443015Y-114743365D01*
X193518781Y-114612135D01*
X193558000Y-114465766D01*
X193558000Y-114314234D01*
X193518781Y-114167865D01*
X193443015Y-114036635D01*
X193335865Y-113929485D01*
X193270250Y-113891602D01*
X193204636Y-113853719D01*
X193129579Y-113833608D01*
X193058266Y-113814500D01*
X192906734Y-113814500D01*
X192760363Y-113853719D01*
X192629135Y-113929485D01*
X192629132Y-113929487D01*
X192521987Y-114036632D01*
X192521985Y-114036635D01*
X192446219Y-114167863D01*
X192414034Y-114287981D01*
X192407000Y-114314234D01*
X192407000Y-114465766D01*
X192416307Y-114500499D01*
X192446219Y-114612136D01*
X192458616Y-114633608D01*
X192521985Y-114743365D01*
X192629135Y-114850515D01*
X192670500Y-114874397D01*
X192718716Y-114924964D01*
X192732500Y-114981784D01*
X192732500Y-115520000D01*
X192232500Y-115520000D01*
X192232500Y-114820000D01*
X191834004Y-114820000D01*
X191640818Y-114858427D01*
X191640806Y-114858430D01*
X191458828Y-114933807D01*
X191458815Y-114933814D01*
X191295037Y-115043248D01*
X191295033Y-115043251D01*
X191155751Y-115182533D01*
X191155748Y-115182537D01*
X191046314Y-115346315D01*
X191046307Y-115346328D01*
X190970930Y-115528307D01*
X190970930Y-115528309D01*
X190962638Y-115570000D01*
X188336935Y-115570000D01*
X188388015Y-115540509D01*
X188490509Y-115438015D01*
X188562984Y-115312485D01*
X188600500Y-115172475D01*
X188600500Y-115027525D01*
X188562984Y-114887515D01*
X188562124Y-114886026D01*
X188490511Y-114761988D01*
X188490506Y-114761982D01*
X188388017Y-114659493D01*
X188388011Y-114659488D01*
X188262488Y-114587017D01*
X188262489Y-114587017D01*
X188251006Y-114583940D01*
X188122475Y-114549500D01*
X187977525Y-114549500D01*
X187848993Y-114583940D01*
X187837511Y-114587017D01*
X187711988Y-114659488D01*
X187711982Y-114659493D01*
X187609493Y-114761982D01*
X187609488Y-114761988D01*
X187537017Y-114887511D01*
X187537016Y-114887515D01*
X187499500Y-115027525D01*
X170970614Y-115027525D01*
X170950500Y-114992686D01*
X170857314Y-114899500D01*
X170786174Y-114858427D01*
X170743187Y-114833608D01*
X170679539Y-114816554D01*
X170615892Y-114799500D01*
X170484108Y-114799500D01*
X170356812Y-114833608D01*
X170242686Y-114899500D01*
X170242683Y-114899502D01*
X170149502Y-114992683D01*
X170149500Y-114992686D01*
X170083608Y-115106812D01*
X170067778Y-115165892D01*
X170049500Y-115234108D01*
X159232222Y-115234108D01*
X159250500Y-115165892D01*
X159250500Y-115034108D01*
X159216392Y-114906814D01*
X159150500Y-114792686D01*
X159057314Y-114699500D01*
X159000250Y-114666554D01*
X158943187Y-114633608D01*
X158879539Y-114616554D01*
X158815892Y-114599500D01*
X158684108Y-114599500D01*
X158556812Y-114633608D01*
X158442686Y-114699500D01*
X158442683Y-114699502D01*
X158349502Y-114792683D01*
X158349500Y-114792686D01*
X158283608Y-114906812D01*
X158267644Y-114966392D01*
X158249500Y-115034108D01*
X151731519Y-115034108D01*
X151691639Y-115013788D01*
X151691636Y-115013787D01*
X151519410Y-114957829D01*
X151359321Y-114932473D01*
X151296186Y-114902544D01*
X151259255Y-114843232D01*
X151260253Y-114773370D01*
X151298863Y-114715137D01*
X151359321Y-114687527D01*
X151429425Y-114676422D01*
X151519409Y-114662171D01*
X151691639Y-114606211D01*
X151852994Y-114523996D01*
X151976715Y-114434108D01*
X166249500Y-114434108D01*
X166249500Y-114565892D01*
X166261891Y-114612135D01*
X166283608Y-114693187D01*
X166296281Y-114715137D01*
X166349500Y-114807314D01*
X166442686Y-114900500D01*
X166556814Y-114966392D01*
X166684108Y-115000500D01*
X166684110Y-115000500D01*
X166815890Y-115000500D01*
X166815892Y-115000500D01*
X166943186Y-114966392D01*
X167057314Y-114900500D01*
X167150500Y-114807314D01*
X167216392Y-114693186D01*
X167250500Y-114565892D01*
X167250500Y-114434108D01*
X167216392Y-114306814D01*
X167216389Y-114306808D01*
X167205520Y-114287982D01*
X167205519Y-114287981D01*
X167174415Y-114234108D01*
X173249500Y-114234108D01*
X173249500Y-114365891D01*
X173283608Y-114493187D01*
X173301394Y-114523993D01*
X173349500Y-114607314D01*
X173442686Y-114700500D01*
X173556814Y-114766392D01*
X173684108Y-114800500D01*
X173684110Y-114800500D01*
X173815890Y-114800500D01*
X173815892Y-114800500D01*
X173943186Y-114766392D01*
X174057314Y-114700500D01*
X174150500Y-114607314D01*
X174216392Y-114493186D01*
X174250500Y-114365892D01*
X174250500Y-114234108D01*
X174216392Y-114106814D01*
X174212170Y-114099502D01*
X174150503Y-113992691D01*
X174150502Y-113992690D01*
X174150500Y-113992686D01*
X174091922Y-113934108D01*
X174749500Y-113934108D01*
X174749500Y-114065892D01*
X174753847Y-114082116D01*
X174783608Y-114193187D01*
X174813006Y-114244104D01*
X174849500Y-114307314D01*
X174942686Y-114400500D01*
X175041521Y-114457563D01*
X175055729Y-114465766D01*
X175056814Y-114466392D01*
X175184108Y-114500500D01*
X175184110Y-114500500D01*
X175315890Y-114500500D01*
X175315892Y-114500500D01*
X175443186Y-114466392D01*
X175557314Y-114400500D01*
X175650500Y-114307314D01*
X175716392Y-114193186D01*
X175750500Y-114065892D01*
X175750500Y-113934108D01*
X175716392Y-113806814D01*
X175650500Y-113692686D01*
X175557314Y-113599500D01*
X175500250Y-113566554D01*
X175443187Y-113533608D01*
X175379539Y-113516554D01*
X175315892Y-113499500D01*
X175184108Y-113499500D01*
X175056812Y-113533608D01*
X174942686Y-113599500D01*
X174942683Y-113599502D01*
X174849502Y-113692683D01*
X174849500Y-113692686D01*
X174783608Y-113806812D01*
X174750739Y-113929485D01*
X174749500Y-113934108D01*
X174091922Y-113934108D01*
X174057314Y-113899500D01*
X174000250Y-113866554D01*
X173943187Y-113833608D01*
X173843188Y-113806814D01*
X173815892Y-113799500D01*
X173684108Y-113799500D01*
X173556812Y-113833608D01*
X173442686Y-113899500D01*
X173442683Y-113899502D01*
X173349502Y-113992683D01*
X173349500Y-113992686D01*
X173283608Y-114106812D01*
X173249500Y-114234108D01*
X167174415Y-114234108D01*
X167150790Y-114193189D01*
X167150500Y-114192686D01*
X167057314Y-114099500D01*
X166977240Y-114053269D01*
X166943187Y-114033608D01*
X166876251Y-114015673D01*
X166815892Y-113999500D01*
X166684108Y-113999500D01*
X166556812Y-114033608D01*
X166442686Y-114099500D01*
X166442683Y-114099502D01*
X166349502Y-114192683D01*
X166349500Y-114192686D01*
X166283608Y-114306812D01*
X166249500Y-114434108D01*
X151976715Y-114434108D01*
X151999501Y-114417553D01*
X152127553Y-114289501D01*
X152233996Y-114142994D01*
X152316211Y-113981639D01*
X152372171Y-113809409D01*
X152390659Y-113692683D01*
X152400500Y-113630551D01*
X152400500Y-113449448D01*
X152376908Y-113300499D01*
X152372171Y-113270591D01*
X152316211Y-113098361D01*
X152316211Y-113098360D01*
X152265015Y-112997884D01*
X152233996Y-112937006D01*
X152220396Y-112918287D01*
X152159237Y-112834108D01*
X176149500Y-112834108D01*
X176149500Y-112965891D01*
X176183608Y-113093187D01*
X176194750Y-113112485D01*
X176249500Y-113207314D01*
X176342686Y-113300500D01*
X176456814Y-113366392D01*
X176584108Y-113400500D01*
X176584110Y-113400500D01*
X176715890Y-113400500D01*
X176715892Y-113400500D01*
X176843186Y-113366392D01*
X176957314Y-113300500D01*
X177050500Y-113207314D01*
X177116392Y-113093186D01*
X177150500Y-112965892D01*
X177150500Y-112834108D01*
X177148736Y-112827525D01*
X182899500Y-112827525D01*
X182899500Y-112972475D01*
X182933232Y-113098363D01*
X182937017Y-113112488D01*
X183009488Y-113238011D01*
X183009490Y-113238013D01*
X183009491Y-113238015D01*
X183111985Y-113340509D01*
X183111986Y-113340510D01*
X183111988Y-113340511D01*
X183237511Y-113412982D01*
X183237512Y-113412982D01*
X183237515Y-113412984D01*
X183377525Y-113450500D01*
X183377528Y-113450500D01*
X183522472Y-113450500D01*
X183522475Y-113450500D01*
X183662485Y-113412984D01*
X183788015Y-113340509D01*
X183890509Y-113238015D01*
X183962984Y-113112485D01*
X184000500Y-112972475D01*
X184000500Y-112827525D01*
X183962984Y-112687515D01*
X183948507Y-112662441D01*
X183890511Y-112561988D01*
X183890506Y-112561982D01*
X183788017Y-112459493D01*
X183788011Y-112459488D01*
X183662488Y-112387017D01*
X183662489Y-112387017D01*
X183651006Y-112383940D01*
X183522475Y-112349500D01*
X183377525Y-112349500D01*
X183248993Y-112383940D01*
X183237511Y-112387017D01*
X183111988Y-112459488D01*
X183111982Y-112459493D01*
X183009493Y-112561982D01*
X183009488Y-112561988D01*
X182937017Y-112687511D01*
X182937016Y-112687515D01*
X182899500Y-112827525D01*
X177148736Y-112827525D01*
X177116392Y-112706814D01*
X177050500Y-112592686D01*
X176957314Y-112499500D01*
X176888017Y-112459491D01*
X176843187Y-112433608D01*
X176767156Y-112413236D01*
X176715892Y-112399500D01*
X176584108Y-112399500D01*
X176456812Y-112433608D01*
X176342686Y-112499500D01*
X176342683Y-112499502D01*
X176249502Y-112592683D01*
X176249500Y-112592686D01*
X176183608Y-112706812D01*
X176149500Y-112834108D01*
X152159237Y-112834108D01*
X152127558Y-112790505D01*
X152127554Y-112790500D01*
X151999495Y-112662441D01*
X151878202Y-112574318D01*
X151835536Y-112518989D01*
X151829557Y-112449375D01*
X151862162Y-112387580D01*
X151923001Y-112353223D01*
X151951087Y-112350000D01*
X152147828Y-112350000D01*
X152147844Y-112349999D01*
X152207372Y-112343598D01*
X152207379Y-112343596D01*
X152342086Y-112293354D01*
X152342093Y-112293350D01*
X152457187Y-112207190D01*
X152474466Y-112184108D01*
X165249500Y-112184108D01*
X165249500Y-112315891D01*
X165283608Y-112443187D01*
X165311587Y-112491647D01*
X165349500Y-112557314D01*
X165442686Y-112650500D01*
X165506791Y-112687511D01*
X165556810Y-112716390D01*
X165556814Y-112716392D01*
X165684108Y-112750500D01*
X165684110Y-112750500D01*
X165815890Y-112750500D01*
X165815892Y-112750500D01*
X165943186Y-112716392D01*
X166057314Y-112650500D01*
X166150500Y-112557314D01*
X166216392Y-112443186D01*
X166250500Y-112315892D01*
X166250500Y-112184108D01*
X166216392Y-112056814D01*
X166150500Y-111942686D01*
X166057314Y-111849500D01*
X166000250Y-111816554D01*
X165943187Y-111783608D01*
X165879539Y-111766554D01*
X165815892Y-111749500D01*
X165684108Y-111749500D01*
X165556812Y-111783608D01*
X165442686Y-111849500D01*
X165442683Y-111849502D01*
X165349502Y-111942683D01*
X165349500Y-111942686D01*
X165283608Y-112056812D01*
X165249500Y-112184108D01*
X152474466Y-112184108D01*
X152536179Y-112101672D01*
X152536180Y-112101671D01*
X152543353Y-112092088D01*
X152543354Y-112092086D01*
X152593596Y-111957379D01*
X152593598Y-111957372D01*
X152599999Y-111897844D01*
X152600000Y-111897827D01*
X152600000Y-111250000D01*
X151683012Y-111250000D01*
X151715925Y-111192993D01*
X151750000Y-111065826D01*
X151750000Y-110934174D01*
X151749982Y-110934108D01*
X169749500Y-110934108D01*
X169749500Y-111065892D01*
X169766554Y-111129539D01*
X169783608Y-111193187D01*
X169803856Y-111228257D01*
X169849500Y-111307314D01*
X169942686Y-111400500D01*
X170056814Y-111466392D01*
X170184108Y-111500500D01*
X170184110Y-111500500D01*
X170315890Y-111500500D01*
X170315892Y-111500500D01*
X170443186Y-111466392D01*
X170557314Y-111400500D01*
X170650500Y-111307314D01*
X170716392Y-111193186D01*
X170750500Y-111065892D01*
X170750500Y-110934108D01*
X170716392Y-110806814D01*
X170650500Y-110692686D01*
X170557314Y-110599500D01*
X170500250Y-110566554D01*
X170443187Y-110533608D01*
X170379539Y-110516554D01*
X170315892Y-110499500D01*
X170184108Y-110499500D01*
X170056812Y-110533608D01*
X169942686Y-110599500D01*
X169942683Y-110599502D01*
X169849502Y-110692683D01*
X169849500Y-110692686D01*
X169783608Y-110806812D01*
X169767778Y-110865892D01*
X169749500Y-110934108D01*
X151749982Y-110934108D01*
X151715925Y-110807007D01*
X151683012Y-110750000D01*
X152600000Y-110750000D01*
X152600000Y-110102172D01*
X152599999Y-110102155D01*
X152593598Y-110042627D01*
X152593596Y-110042620D01*
X152543354Y-109907913D01*
X152543350Y-109907906D01*
X152457190Y-109792812D01*
X152457187Y-109792809D01*
X152342093Y-109706649D01*
X152342086Y-109706645D01*
X152207379Y-109656403D01*
X152207372Y-109656401D01*
X152147844Y-109650000D01*
X151500000Y-109650000D01*
X151500000Y-110566988D01*
X151442993Y-110534075D01*
X151315826Y-110500000D01*
X151184174Y-110500000D01*
X151057007Y-110534075D01*
X151000000Y-110566988D01*
X151000000Y-109650000D01*
X150352155Y-109650000D01*
X150292627Y-109656401D01*
X150292617Y-109656403D01*
X150167832Y-109702945D01*
X150137225Y-109705133D01*
X150106853Y-109709501D01*
X150102697Y-109707603D01*
X150098141Y-109707929D01*
X150071213Y-109693225D01*
X150043297Y-109680476D01*
X150040826Y-109676631D01*
X150036818Y-109674443D01*
X150022115Y-109647516D01*
X150005523Y-109621698D01*
X150004631Y-109615495D01*
X150003334Y-109613120D01*
X150000500Y-109586763D01*
X150000500Y-109434108D01*
X154249500Y-109434108D01*
X154249500Y-109565891D01*
X154283608Y-109693187D01*
X154293027Y-109709501D01*
X154349500Y-109807314D01*
X154442686Y-109900500D01*
X154556814Y-109966392D01*
X154684108Y-110000500D01*
X154684110Y-110000500D01*
X154815890Y-110000500D01*
X154815892Y-110000500D01*
X154943186Y-109966392D01*
X155057314Y-109900500D01*
X155150500Y-109807314D01*
X155216392Y-109693186D01*
X155250500Y-109565892D01*
X155250500Y-109434108D01*
X161749500Y-109434108D01*
X161749500Y-109565891D01*
X161783608Y-109693187D01*
X161793027Y-109709501D01*
X161849500Y-109807314D01*
X161942686Y-109900500D01*
X162056814Y-109966392D01*
X162184108Y-110000500D01*
X162184110Y-110000500D01*
X162315890Y-110000500D01*
X162315892Y-110000500D01*
X162443186Y-109966392D01*
X162499103Y-109934108D01*
X173649500Y-109934108D01*
X173649500Y-110065891D01*
X173683608Y-110193187D01*
X173716554Y-110250250D01*
X173749500Y-110307314D01*
X173842686Y-110400500D01*
X173956814Y-110466392D01*
X174084108Y-110500500D01*
X174084110Y-110500500D01*
X174215890Y-110500500D01*
X174215892Y-110500500D01*
X174343186Y-110466392D01*
X174457314Y-110400500D01*
X174550500Y-110307314D01*
X174616392Y-110193186D01*
X174622352Y-110170943D01*
X181149500Y-110170943D01*
X181149500Y-110329057D01*
X181186299Y-110466391D01*
X181190423Y-110481783D01*
X181190426Y-110481790D01*
X181269475Y-110618709D01*
X181269479Y-110618714D01*
X181269480Y-110618716D01*
X181381284Y-110730520D01*
X181381286Y-110730521D01*
X181381290Y-110730524D01*
X181518209Y-110809573D01*
X181518216Y-110809577D01*
X181670943Y-110850500D01*
X181670945Y-110850500D01*
X181829055Y-110850500D01*
X181829057Y-110850500D01*
X181981784Y-110809577D01*
X182112501Y-110734108D01*
X183549500Y-110734108D01*
X183549500Y-110865892D01*
X183566011Y-110927511D01*
X183583608Y-110993187D01*
X183587542Y-111000000D01*
X183649500Y-111107314D01*
X183742686Y-111200500D01*
X183856814Y-111266392D01*
X183984108Y-111300500D01*
X183984110Y-111300500D01*
X184115890Y-111300500D01*
X184115892Y-111300500D01*
X184243186Y-111266392D01*
X184357314Y-111200500D01*
X184450500Y-111107314D01*
X184516392Y-110993186D01*
X184550500Y-110865892D01*
X184550500Y-110734108D01*
X184516392Y-110606814D01*
X184450500Y-110492686D01*
X184357314Y-110399500D01*
X184300250Y-110366554D01*
X184243187Y-110333608D01*
X184179539Y-110316554D01*
X184115892Y-110299500D01*
X183984108Y-110299500D01*
X183856812Y-110333608D01*
X183742686Y-110399500D01*
X183742683Y-110399502D01*
X183649502Y-110492683D01*
X183649500Y-110492686D01*
X183583608Y-110606812D01*
X183550462Y-110730518D01*
X183549500Y-110734108D01*
X182112501Y-110734108D01*
X182118716Y-110730520D01*
X182230520Y-110618716D01*
X182309577Y-110481784D01*
X182350500Y-110329057D01*
X182350500Y-110170943D01*
X182309577Y-110018216D01*
X182261018Y-109934108D01*
X182230524Y-109881290D01*
X182230518Y-109881282D01*
X182118717Y-109769481D01*
X182118709Y-109769475D01*
X181981790Y-109690426D01*
X181981786Y-109690424D01*
X181981784Y-109690423D01*
X181829057Y-109649500D01*
X181670943Y-109649500D01*
X181518216Y-109690423D01*
X181518209Y-109690426D01*
X181381290Y-109769475D01*
X181381282Y-109769481D01*
X181269481Y-109881282D01*
X181269475Y-109881290D01*
X181190426Y-110018209D01*
X181190423Y-110018216D01*
X181149500Y-110170943D01*
X174622352Y-110170943D01*
X174650500Y-110065892D01*
X174650500Y-109934108D01*
X174616392Y-109806814D01*
X174550500Y-109692686D01*
X174457314Y-109599500D01*
X174399100Y-109565890D01*
X174343187Y-109533608D01*
X174279539Y-109516554D01*
X174215892Y-109499500D01*
X174084108Y-109499500D01*
X173956812Y-109533608D01*
X173842686Y-109599500D01*
X173842683Y-109599502D01*
X173749502Y-109692683D01*
X173749500Y-109692686D01*
X173683608Y-109806812D01*
X173649500Y-109934108D01*
X162499103Y-109934108D01*
X162557314Y-109900500D01*
X162650500Y-109807314D01*
X162716392Y-109693186D01*
X162750500Y-109565892D01*
X162750500Y-109434108D01*
X162716392Y-109306814D01*
X162650500Y-109192686D01*
X162557314Y-109099500D01*
X162443186Y-109033608D01*
X162315892Y-108999500D01*
X162184108Y-108999500D01*
X162056812Y-109033608D01*
X161942686Y-109099500D01*
X161942683Y-109099502D01*
X161849502Y-109192683D01*
X161849500Y-109192686D01*
X161783608Y-109306812D01*
X161749500Y-109434108D01*
X155250500Y-109434108D01*
X155216392Y-109306814D01*
X155150500Y-109192686D01*
X155057314Y-109099500D01*
X154999100Y-109065890D01*
X154943187Y-109033608D01*
X154879539Y-109016554D01*
X154815892Y-108999500D01*
X154684108Y-108999500D01*
X154556812Y-109033608D01*
X154442686Y-109099500D01*
X154442683Y-109099502D01*
X154349502Y-109192683D01*
X154349500Y-109192686D01*
X154283608Y-109306812D01*
X154249500Y-109434108D01*
X150000500Y-109434108D01*
X150000500Y-108934108D01*
X186249500Y-108934108D01*
X186249500Y-109065892D01*
X186250739Y-109070515D01*
X186283608Y-109193187D01*
X186316554Y-109250250D01*
X186349500Y-109307314D01*
X186442686Y-109400500D01*
X186556814Y-109466392D01*
X186684108Y-109500500D01*
X186684110Y-109500500D01*
X186815890Y-109500500D01*
X186815892Y-109500500D01*
X186943186Y-109466392D01*
X187057314Y-109400500D01*
X187150500Y-109307314D01*
X187216392Y-109193186D01*
X187250500Y-109065892D01*
X187250500Y-108934108D01*
X187216392Y-108806814D01*
X187150500Y-108692686D01*
X187057314Y-108599500D01*
X187000250Y-108566554D01*
X186943187Y-108533608D01*
X186879539Y-108516554D01*
X186815892Y-108499500D01*
X186684108Y-108499500D01*
X186556812Y-108533608D01*
X186442686Y-108599500D01*
X186442683Y-108599502D01*
X186349502Y-108692683D01*
X186349500Y-108692686D01*
X186283608Y-108806812D01*
X186276823Y-108832135D01*
X186249500Y-108934108D01*
X150000500Y-108934108D01*
X150000500Y-107434108D01*
X176649500Y-107434108D01*
X176649500Y-107565891D01*
X176683608Y-107693187D01*
X176716554Y-107750250D01*
X176749500Y-107807314D01*
X176842686Y-107900500D01*
X176956814Y-107966392D01*
X177084108Y-108000500D01*
X177084110Y-108000500D01*
X177215890Y-108000500D01*
X177215892Y-108000500D01*
X177343186Y-107966392D01*
X177457314Y-107900500D01*
X177550500Y-107807314D01*
X177616392Y-107693186D01*
X177650500Y-107565892D01*
X177650500Y-107434108D01*
X177616392Y-107306814D01*
X177550500Y-107192686D01*
X177457314Y-107099500D01*
X177396180Y-107064204D01*
X177343187Y-107033608D01*
X177279539Y-107016554D01*
X177215892Y-106999500D01*
X177084108Y-106999500D01*
X176956812Y-107033608D01*
X176842686Y-107099500D01*
X176842683Y-107099502D01*
X176749502Y-107192683D01*
X176749500Y-107192686D01*
X176683608Y-107306812D01*
X176649500Y-107434108D01*
X150000500Y-107434108D01*
X150000500Y-106930000D01*
X190962638Y-106930000D01*
X191765512Y-106930000D01*
X191748295Y-106939940D01*
X191692440Y-106995795D01*
X191652944Y-107064204D01*
X191632500Y-107140504D01*
X191632500Y-107219496D01*
X191652944Y-107295796D01*
X191692440Y-107364205D01*
X191748295Y-107420060D01*
X191765512Y-107430000D01*
X190962638Y-107430000D01*
X190970930Y-107471690D01*
X190970930Y-107471692D01*
X191046307Y-107653671D01*
X191046314Y-107653684D01*
X191155748Y-107817462D01*
X191155751Y-107817466D01*
X191295033Y-107956748D01*
X191295037Y-107956751D01*
X191458815Y-108066185D01*
X191458828Y-108066192D01*
X191640806Y-108141569D01*
X191640818Y-108141572D01*
X191834004Y-108179999D01*
X191834008Y-108180000D01*
X192232500Y-108180000D01*
X192232500Y-107480000D01*
X192732500Y-107480000D01*
X192732500Y-108018215D01*
X192712815Y-108085254D01*
X192670502Y-108125601D01*
X192629138Y-108149483D01*
X192629132Y-108149487D01*
X192521987Y-108256632D01*
X192521985Y-108256635D01*
X192446219Y-108387863D01*
X192416307Y-108499500D01*
X192407000Y-108534234D01*
X192407000Y-108685766D01*
X192408854Y-108692686D01*
X192446219Y-108832136D01*
X192484102Y-108897750D01*
X192521985Y-108963365D01*
X192629135Y-109070515D01*
X192760365Y-109146281D01*
X192906734Y-109185500D01*
X192906736Y-109185500D01*
X193058264Y-109185500D01*
X193058266Y-109185500D01*
X193204635Y-109146281D01*
X193335865Y-109070515D01*
X193443015Y-108963365D01*
X193518781Y-108832135D01*
X193558000Y-108685766D01*
X193558000Y-108534234D01*
X193518781Y-108387865D01*
X193443015Y-108256635D01*
X193443013Y-108256633D01*
X193438951Y-108249597D01*
X193441154Y-108248325D01*
X193420541Y-108195022D01*
X193434573Y-108126576D01*
X193483382Y-108076582D01*
X193496663Y-108070129D01*
X193506182Y-108066186D01*
X193506184Y-108066185D01*
X193669962Y-107956751D01*
X193669966Y-107956748D01*
X193809248Y-107817466D01*
X193809251Y-107817462D01*
X193918685Y-107653684D01*
X193918692Y-107653671D01*
X193994069Y-107471692D01*
X193994069Y-107471690D01*
X194002362Y-107430000D01*
X193199488Y-107430000D01*
X193216705Y-107420060D01*
X193272560Y-107364205D01*
X193312056Y-107295796D01*
X193332500Y-107219496D01*
X193332500Y-107140504D01*
X193312056Y-107064204D01*
X193272560Y-106995795D01*
X193216705Y-106939940D01*
X193199488Y-106930000D01*
X194002362Y-106930000D01*
X195292638Y-106930000D01*
X196095512Y-106930000D01*
X196078295Y-106939940D01*
X196022440Y-106995795D01*
X195982944Y-107064204D01*
X195962500Y-107140504D01*
X195962500Y-107219496D01*
X195982944Y-107295796D01*
X196022440Y-107364205D01*
X196078295Y-107420060D01*
X196095512Y-107430000D01*
X195292638Y-107430000D01*
X195300930Y-107471690D01*
X195300930Y-107471692D01*
X195376307Y-107653671D01*
X195376314Y-107653684D01*
X195485748Y-107817462D01*
X195485751Y-107817466D01*
X195625033Y-107956748D01*
X195625037Y-107956751D01*
X195788815Y-108066185D01*
X195788828Y-108066192D01*
X195970806Y-108141569D01*
X195970818Y-108141572D01*
X196164004Y-108179999D01*
X196164008Y-108180000D01*
X196412500Y-108180000D01*
X196412500Y-107480000D01*
X196912500Y-107480000D01*
X196912500Y-108180000D01*
X197160992Y-108180000D01*
X197160995Y-108179999D01*
X197354181Y-108141572D01*
X197354193Y-108141569D01*
X197536171Y-108066192D01*
X197536184Y-108066185D01*
X197699962Y-107956751D01*
X197699966Y-107956748D01*
X197839248Y-107817466D01*
X197839251Y-107817462D01*
X197948685Y-107653684D01*
X197948692Y-107653671D01*
X198024069Y-107471692D01*
X198024069Y-107471690D01*
X198032362Y-107430000D01*
X197229488Y-107430000D01*
X197246705Y-107420060D01*
X197302560Y-107364205D01*
X197342056Y-107295796D01*
X197362500Y-107219496D01*
X197362500Y-107140504D01*
X197342056Y-107064204D01*
X197302560Y-106995795D01*
X197246705Y-106939940D01*
X197229488Y-106930000D01*
X198032362Y-106930000D01*
X198024069Y-106888309D01*
X198024069Y-106888307D01*
X197948692Y-106706328D01*
X197948685Y-106706315D01*
X197839251Y-106542537D01*
X197839248Y-106542533D01*
X197699966Y-106403251D01*
X197699962Y-106403248D01*
X197536184Y-106293814D01*
X197536171Y-106293807D01*
X197354193Y-106218430D01*
X197354181Y-106218427D01*
X197160995Y-106180000D01*
X196912500Y-106180000D01*
X196912500Y-106880000D01*
X196412500Y-106880000D01*
X196412500Y-106180000D01*
X196164004Y-106180000D01*
X195970818Y-106218427D01*
X195970806Y-106218430D01*
X195788828Y-106293807D01*
X195788815Y-106293814D01*
X195625037Y-106403248D01*
X195625033Y-106403251D01*
X195485751Y-106542533D01*
X195485748Y-106542537D01*
X195376314Y-106706315D01*
X195376307Y-106706328D01*
X195300930Y-106888307D01*
X195300930Y-106888309D01*
X195292638Y-106930000D01*
X194002362Y-106930000D01*
X193994069Y-106888309D01*
X193994069Y-106888307D01*
X193918692Y-106706328D01*
X193918685Y-106706315D01*
X193809251Y-106542537D01*
X193809248Y-106542533D01*
X193669966Y-106403251D01*
X193669962Y-106403248D01*
X193506184Y-106293814D01*
X193506171Y-106293807D01*
X193324193Y-106218430D01*
X193324181Y-106218427D01*
X193130995Y-106180000D01*
X192732500Y-106180000D01*
X192732500Y-106880000D01*
X192232500Y-106880000D01*
X192232500Y-106180000D01*
X191834004Y-106180000D01*
X191640818Y-106218427D01*
X191640806Y-106218430D01*
X191458828Y-106293807D01*
X191458815Y-106293814D01*
X191295037Y-106403248D01*
X191295033Y-106403251D01*
X191155751Y-106542533D01*
X191155748Y-106542537D01*
X191046314Y-106706315D01*
X191046307Y-106706328D01*
X190970930Y-106888307D01*
X190970930Y-106888309D01*
X190962638Y-106930000D01*
X150000500Y-106930000D01*
X150000500Y-106127525D01*
X170299500Y-106127525D01*
X170299500Y-106272475D01*
X170334541Y-106403248D01*
X170337017Y-106412488D01*
X170409488Y-106538011D01*
X170409490Y-106538013D01*
X170409491Y-106538015D01*
X170511985Y-106640509D01*
X170511986Y-106640510D01*
X170511988Y-106640511D01*
X170637511Y-106712982D01*
X170637512Y-106712982D01*
X170637515Y-106712984D01*
X170777525Y-106750500D01*
X170777528Y-106750500D01*
X170922472Y-106750500D01*
X170922475Y-106750500D01*
X171062485Y-106712984D01*
X171188015Y-106640509D01*
X171290509Y-106538015D01*
X171362984Y-106412485D01*
X171383985Y-106334108D01*
X189849500Y-106334108D01*
X189849500Y-106465891D01*
X189883608Y-106593187D01*
X189910928Y-106640506D01*
X189949500Y-106707314D01*
X190042686Y-106800500D01*
X190156814Y-106866392D01*
X190284108Y-106900500D01*
X190284110Y-106900500D01*
X190415890Y-106900500D01*
X190415892Y-106900500D01*
X190543186Y-106866392D01*
X190657314Y-106800500D01*
X190750500Y-106707314D01*
X190816392Y-106593186D01*
X190850500Y-106465892D01*
X190850500Y-106334108D01*
X190816392Y-106206814D01*
X190750500Y-106092686D01*
X190657314Y-105999500D01*
X190600250Y-105966554D01*
X190543187Y-105933608D01*
X190479539Y-105916554D01*
X190415892Y-105899500D01*
X190284108Y-105899500D01*
X190156812Y-105933608D01*
X190042686Y-105999500D01*
X190042683Y-105999502D01*
X189949502Y-106092683D01*
X189949500Y-106092686D01*
X189883608Y-106206812D01*
X189849500Y-106334108D01*
X171383985Y-106334108D01*
X171400500Y-106272475D01*
X171400500Y-106127525D01*
X171362984Y-105987515D01*
X171312168Y-105899500D01*
X171290511Y-105861988D01*
X171290506Y-105861982D01*
X171188017Y-105759493D01*
X171188011Y-105759488D01*
X171062488Y-105687017D01*
X171062489Y-105687017D01*
X171051006Y-105683940D01*
X170922475Y-105649500D01*
X170777525Y-105649500D01*
X170648993Y-105683940D01*
X170637511Y-105687017D01*
X170511988Y-105759488D01*
X170511982Y-105759493D01*
X170409493Y-105861982D01*
X170409488Y-105861988D01*
X170337017Y-105987511D01*
X170337016Y-105987515D01*
X170299500Y-106127525D01*
X150000500Y-106127525D01*
X150000500Y-105184108D01*
X180749500Y-105184108D01*
X180749500Y-105315892D01*
X180755647Y-105338834D01*
X180783608Y-105443187D01*
X180816554Y-105500250D01*
X180849500Y-105557314D01*
X180942686Y-105650500D01*
X181056814Y-105716392D01*
X181184108Y-105750500D01*
X181184110Y-105750500D01*
X181315890Y-105750500D01*
X181315892Y-105750500D01*
X181443186Y-105716392D01*
X181557314Y-105650500D01*
X181650500Y-105557314D01*
X181716392Y-105443186D01*
X181744353Y-105338831D01*
X181780717Y-105279174D01*
X181843563Y-105248644D01*
X181912939Y-105256938D01*
X181951808Y-105283246D01*
X182005874Y-105337312D01*
X182120002Y-105403204D01*
X182247296Y-105437312D01*
X182247298Y-105437312D01*
X182379078Y-105437312D01*
X182379080Y-105437312D01*
X182506374Y-105403204D01*
X182620502Y-105337312D01*
X182713688Y-105244126D01*
X182779580Y-105129998D01*
X182798738Y-105058500D01*
X193045050Y-105058500D01*
X193061849Y-105069725D01*
X193061855Y-105069728D01*
X193230182Y-105139451D01*
X193230194Y-105139454D01*
X193408890Y-105174999D01*
X193408894Y-105175000D01*
X193591106Y-105175000D01*
X193591109Y-105174999D01*
X193769805Y-105139454D01*
X193769813Y-105139452D01*
X193938151Y-105069724D01*
X193938154Y-105069723D01*
X193954947Y-105058500D01*
X193954948Y-105058500D01*
X193500001Y-104603553D01*
X193500000Y-104603553D01*
X193045050Y-105058500D01*
X182798738Y-105058500D01*
X182813688Y-105002704D01*
X182813688Y-104870920D01*
X182779580Y-104743626D01*
X182713688Y-104629498D01*
X182620502Y-104536312D01*
X182557608Y-104500000D01*
X182506375Y-104470420D01*
X182442727Y-104453366D01*
X182379080Y-104436312D01*
X182247296Y-104436312D01*
X182120000Y-104470420D01*
X182005874Y-104536312D01*
X182005871Y-104536314D01*
X181912690Y-104629495D01*
X181912688Y-104629498D01*
X181846796Y-104743626D01*
X181836083Y-104783608D01*
X181818835Y-104847978D01*
X181782469Y-104907638D01*
X181719622Y-104938167D01*
X181650247Y-104929872D01*
X181611379Y-104903565D01*
X181557316Y-104849502D01*
X181557314Y-104849500D01*
X181500250Y-104816554D01*
X181443187Y-104783608D01*
X181379539Y-104766554D01*
X181315892Y-104749500D01*
X181184108Y-104749500D01*
X181056812Y-104783608D01*
X180942686Y-104849500D01*
X180942683Y-104849502D01*
X180849502Y-104942683D01*
X180849500Y-104942686D01*
X180783608Y-105056812D01*
X180763998Y-105129999D01*
X180749500Y-105184108D01*
X150000500Y-105184108D01*
X150000500Y-104158890D01*
X192575000Y-104158890D01*
X192575000Y-104341109D01*
X192610545Y-104519805D01*
X192610548Y-104519817D01*
X192680271Y-104688145D01*
X192691498Y-104704947D01*
X193146446Y-104250000D01*
X193146446Y-104249999D01*
X193096719Y-104200272D01*
X193250000Y-104200272D01*
X193250000Y-104299728D01*
X193288060Y-104391614D01*
X193358386Y-104461940D01*
X193450272Y-104500000D01*
X193549728Y-104500000D01*
X193641614Y-104461940D01*
X193711940Y-104391614D01*
X193750000Y-104299728D01*
X193750000Y-104200272D01*
X193711940Y-104108386D01*
X193641614Y-104038060D01*
X193549728Y-104000000D01*
X193450272Y-104000000D01*
X193358386Y-104038060D01*
X193288060Y-104108386D01*
X193250000Y-104200272D01*
X193096719Y-104200272D01*
X192940660Y-104044213D01*
X192907175Y-103982890D01*
X192912159Y-103913198D01*
X192954031Y-103857265D01*
X193019495Y-103832848D01*
X193087768Y-103847700D01*
X193097232Y-103853430D01*
X193156340Y-103892925D01*
X193156346Y-103892928D01*
X193156347Y-103892929D01*
X193288380Y-103947619D01*
X193288384Y-103947619D01*
X193288385Y-103947620D01*
X193428542Y-103975500D01*
X193428545Y-103975500D01*
X193571457Y-103975500D01*
X193665751Y-103956742D01*
X193711620Y-103947619D01*
X193843653Y-103892929D01*
X193902765Y-103853431D01*
X193969440Y-103832554D01*
X194036821Y-103851038D01*
X194083511Y-103903016D01*
X194094688Y-103971986D01*
X194066803Y-104036050D01*
X194059337Y-104044215D01*
X193853553Y-104250000D01*
X193853553Y-104250001D01*
X194308500Y-104704948D01*
X194308500Y-104704947D01*
X194319723Y-104688154D01*
X194319724Y-104688151D01*
X194389452Y-104519813D01*
X194389454Y-104519805D01*
X194424999Y-104341109D01*
X194425000Y-104341106D01*
X194425000Y-104158894D01*
X194424999Y-104158890D01*
X194389454Y-103980194D01*
X194389451Y-103980182D01*
X194319728Y-103811855D01*
X194319725Y-103811849D01*
X194308499Y-103795050D01*
X194294215Y-103809335D01*
X194232892Y-103842819D01*
X194163200Y-103837834D01*
X194107267Y-103795963D01*
X194082851Y-103730498D01*
X194097703Y-103662225D01*
X194103434Y-103652761D01*
X194142924Y-103593660D01*
X194142925Y-103593659D01*
X194142929Y-103593653D01*
X194197619Y-103461620D01*
X194225500Y-103321455D01*
X194225500Y-103178545D01*
X194225500Y-103178542D01*
X194197620Y-103038385D01*
X194197619Y-103038384D01*
X194197619Y-103038380D01*
X194166439Y-102963106D01*
X194158971Y-102893642D01*
X194173349Y-102858623D01*
X194172565Y-102858277D01*
X194222583Y-102744995D01*
X194222585Y-102744991D01*
X194225500Y-102719865D01*
X194225499Y-101780136D01*
X194225497Y-101780117D01*
X194222586Y-101755012D01*
X194222585Y-101755010D01*
X194222585Y-101755009D01*
X194177206Y-101652235D01*
X194097765Y-101572794D01*
X194097763Y-101572793D01*
X193994992Y-101527415D01*
X193969865Y-101524500D01*
X193030143Y-101524500D01*
X193030117Y-101524502D01*
X193005012Y-101527413D01*
X193005008Y-101527415D01*
X192902235Y-101572793D01*
X192822794Y-101652234D01*
X192777415Y-101755006D01*
X192777415Y-101755008D01*
X192774500Y-101780131D01*
X192774500Y-102719856D01*
X192774502Y-102719882D01*
X192777413Y-102744987D01*
X192777415Y-102744991D01*
X192827435Y-102858276D01*
X192825686Y-102859048D01*
X192842944Y-102912014D01*
X192833559Y-102963109D01*
X192829333Y-102973311D01*
X192802381Y-103038379D01*
X192802379Y-103038385D01*
X192774500Y-103178542D01*
X192774500Y-103178545D01*
X192774500Y-103321455D01*
X192774500Y-103321457D01*
X192774499Y-103321457D01*
X192802379Y-103461614D01*
X192802381Y-103461620D01*
X192857069Y-103593650D01*
X192857074Y-103593659D01*
X192896568Y-103652765D01*
X192917446Y-103719442D01*
X192898962Y-103786823D01*
X192846983Y-103833513D01*
X192778013Y-103844689D01*
X192713949Y-103816804D01*
X192705785Y-103809337D01*
X192691498Y-103795050D01*
X192680274Y-103811848D01*
X192610547Y-103980186D01*
X192610545Y-103980194D01*
X192575000Y-104158890D01*
X150000500Y-104158890D01*
X150000500Y-102534108D01*
X172649500Y-102534108D01*
X172649500Y-102665892D01*
X172663962Y-102719864D01*
X172683608Y-102793187D01*
X172691766Y-102807316D01*
X172749500Y-102907314D01*
X172842686Y-103000500D01*
X172956814Y-103066392D01*
X173084108Y-103100500D01*
X173084110Y-103100500D01*
X173215890Y-103100500D01*
X173215892Y-103100500D01*
X173343186Y-103066392D01*
X173457314Y-103000500D01*
X173550500Y-102907314D01*
X173616392Y-102793186D01*
X173650500Y-102665892D01*
X173650500Y-102534108D01*
X173623705Y-102434108D01*
X187649500Y-102434108D01*
X187649500Y-102565891D01*
X187683608Y-102693187D01*
X187699011Y-102719865D01*
X187749500Y-102807314D01*
X187842686Y-102900500D01*
X187956814Y-102966392D01*
X188084108Y-103000500D01*
X188084110Y-103000500D01*
X188215890Y-103000500D01*
X188215892Y-103000500D01*
X188343186Y-102966392D01*
X188457314Y-102900500D01*
X188550500Y-102807314D01*
X188616392Y-102693186D01*
X188650500Y-102565892D01*
X188650500Y-102434108D01*
X188616392Y-102306814D01*
X188550500Y-102192686D01*
X188457314Y-102099500D01*
X188399968Y-102066391D01*
X188343187Y-102033608D01*
X188279539Y-102016554D01*
X188215892Y-101999500D01*
X188084108Y-101999500D01*
X187956812Y-102033608D01*
X187842686Y-102099500D01*
X187842683Y-102099502D01*
X187749502Y-102192683D01*
X187749500Y-102192686D01*
X187683608Y-102306812D01*
X187649500Y-102434108D01*
X173623705Y-102434108D01*
X173616392Y-102406814D01*
X173550500Y-102292686D01*
X173457314Y-102199500D01*
X173400250Y-102166554D01*
X173343187Y-102133608D01*
X173279539Y-102116554D01*
X173215892Y-102099500D01*
X173084108Y-102099500D01*
X172956812Y-102133608D01*
X172842686Y-102199500D01*
X172842683Y-102199502D01*
X172749502Y-102292683D01*
X172749500Y-102292686D01*
X172683608Y-102406812D01*
X172676294Y-102434110D01*
X172649500Y-102534108D01*
X150000500Y-102534108D01*
X150000500Y-101134108D01*
X153849500Y-101134108D01*
X153849500Y-101265892D01*
X153866554Y-101329539D01*
X153883608Y-101393187D01*
X153891475Y-101406812D01*
X153949500Y-101507314D01*
X154042686Y-101600500D01*
X154141521Y-101657563D01*
X154155944Y-101665890D01*
X154156814Y-101666392D01*
X154284108Y-101700500D01*
X154284110Y-101700500D01*
X154415890Y-101700500D01*
X154415892Y-101700500D01*
X154543186Y-101666392D01*
X154657314Y-101600500D01*
X154723706Y-101534108D01*
X173449500Y-101534108D01*
X173449500Y-101665891D01*
X173483608Y-101793187D01*
X173516554Y-101850250D01*
X173549500Y-101907314D01*
X173642686Y-102000500D01*
X173756814Y-102066392D01*
X173884108Y-102100500D01*
X173884110Y-102100500D01*
X174015890Y-102100500D01*
X174015892Y-102100500D01*
X174143186Y-102066392D01*
X174257314Y-102000500D01*
X174350500Y-101907314D01*
X174416392Y-101793186D01*
X174450500Y-101665892D01*
X174450500Y-101534108D01*
X174416392Y-101406814D01*
X174350500Y-101292686D01*
X174257314Y-101199500D01*
X174200250Y-101166554D01*
X174143187Y-101133608D01*
X174079539Y-101116554D01*
X174015892Y-101099500D01*
X173884108Y-101099500D01*
X173756812Y-101133608D01*
X173642686Y-101199500D01*
X173642683Y-101199502D01*
X173549502Y-101292683D01*
X173549500Y-101292686D01*
X173483608Y-101406812D01*
X173449500Y-101534108D01*
X154723706Y-101534108D01*
X154750500Y-101507314D01*
X154763023Y-101485622D01*
X154775520Y-101463980D01*
X154816390Y-101393189D01*
X154816392Y-101393186D01*
X154850500Y-101265892D01*
X154850500Y-101134108D01*
X154816392Y-101006814D01*
X154750500Y-100892686D01*
X154657314Y-100799500D01*
X154558018Y-100742171D01*
X154543187Y-100733608D01*
X154479539Y-100716554D01*
X154415892Y-100699500D01*
X154284108Y-100699500D01*
X154156812Y-100733608D01*
X154042686Y-100799500D01*
X154042683Y-100799502D01*
X153949502Y-100892683D01*
X153949500Y-100892686D01*
X153883608Y-101006812D01*
X153867644Y-101066392D01*
X153849500Y-101134108D01*
X150000500Y-101134108D01*
X150000500Y-100218411D01*
X150020185Y-100151372D01*
X150072989Y-100105617D01*
X150142147Y-100095673D01*
X150205703Y-100124698D01*
X150234985Y-100162116D01*
X150266006Y-100222997D01*
X150372441Y-100369494D01*
X150372445Y-100369499D01*
X150500500Y-100497554D01*
X150500505Y-100497558D01*
X150594560Y-100565892D01*
X150647006Y-100603996D01*
X150752484Y-100657740D01*
X150808360Y-100686211D01*
X150808363Y-100686212D01*
X150894476Y-100714191D01*
X150980591Y-100742171D01*
X151063429Y-100755291D01*
X151159449Y-100770500D01*
X151159454Y-100770500D01*
X151340551Y-100770500D01*
X151427259Y-100756765D01*
X151519409Y-100742171D01*
X151691639Y-100686211D01*
X151852994Y-100603996D01*
X151999501Y-100497553D01*
X152062946Y-100434108D01*
X158999500Y-100434108D01*
X158999500Y-100565891D01*
X159033608Y-100693187D01*
X159066554Y-100750250D01*
X159099500Y-100807314D01*
X159192686Y-100900500D01*
X159306814Y-100966392D01*
X159434108Y-101000500D01*
X159434110Y-101000500D01*
X159565890Y-101000500D01*
X159565892Y-101000500D01*
X159693186Y-100966392D01*
X159807314Y-100900500D01*
X159900500Y-100807314D01*
X159966392Y-100693186D01*
X160000500Y-100565892D01*
X160000500Y-100534108D01*
X166949500Y-100534108D01*
X166949500Y-100665892D01*
X166954945Y-100686212D01*
X166983608Y-100793187D01*
X166991766Y-100807316D01*
X167049500Y-100907314D01*
X167142686Y-101000500D01*
X167256814Y-101066392D01*
X167384108Y-101100500D01*
X167384110Y-101100500D01*
X167515890Y-101100500D01*
X167515892Y-101100500D01*
X167643186Y-101066392D01*
X167757314Y-101000500D01*
X167850500Y-100907314D01*
X167916392Y-100793186D01*
X167950500Y-100665892D01*
X167950500Y-100534108D01*
X167916392Y-100406814D01*
X167850500Y-100292686D01*
X167757314Y-100199500D01*
X167692563Y-100162116D01*
X167643187Y-100133608D01*
X167538721Y-100105617D01*
X167515892Y-100099500D01*
X167384108Y-100099500D01*
X167256812Y-100133608D01*
X167142686Y-100199500D01*
X167142683Y-100199502D01*
X167049502Y-100292683D01*
X167049500Y-100292686D01*
X166983608Y-100406812D01*
X166959293Y-100497558D01*
X166949500Y-100534108D01*
X160000500Y-100534108D01*
X160000500Y-100434108D01*
X159966392Y-100306814D01*
X159900500Y-100192686D01*
X159807314Y-100099500D01*
X159741732Y-100061636D01*
X159693187Y-100033608D01*
X159629539Y-100016554D01*
X159565892Y-99999500D01*
X159434108Y-99999500D01*
X159306812Y-100033608D01*
X159192686Y-100099500D01*
X159192683Y-100099502D01*
X159099502Y-100192683D01*
X159099500Y-100192686D01*
X159033608Y-100306812D01*
X158999500Y-100434108D01*
X152062946Y-100434108D01*
X152127553Y-100369501D01*
X152128396Y-100368340D01*
X152139473Y-100353096D01*
X152194300Y-100277629D01*
X152233996Y-100222994D01*
X152316211Y-100061639D01*
X152372171Y-99889409D01*
X152386765Y-99797259D01*
X152400500Y-99710551D01*
X152400500Y-99529448D01*
X152384019Y-99425397D01*
X152372171Y-99350591D01*
X152316211Y-99178361D01*
X152316211Y-99178360D01*
X152265015Y-99077884D01*
X152233996Y-99017006D01*
X152149350Y-98900500D01*
X152127558Y-98870505D01*
X152127554Y-98870500D01*
X151999499Y-98742445D01*
X151999494Y-98742441D01*
X151852997Y-98636006D01*
X151852996Y-98636005D01*
X151852994Y-98636004D01*
X151801300Y-98609664D01*
X151691639Y-98553788D01*
X151691636Y-98553787D01*
X151519410Y-98497829D01*
X151359321Y-98472473D01*
X151296186Y-98442544D01*
X151259255Y-98383232D01*
X151260253Y-98313370D01*
X151298863Y-98255137D01*
X151359321Y-98227527D01*
X151429425Y-98216422D01*
X151519409Y-98202171D01*
X151691639Y-98146211D01*
X151852994Y-98063996D01*
X151999501Y-97957553D01*
X152029529Y-97927525D01*
X161699500Y-97927525D01*
X161699500Y-98072475D01*
X161737016Y-98212485D01*
X161737017Y-98212488D01*
X161809488Y-98338011D01*
X161809490Y-98338013D01*
X161809491Y-98338015D01*
X161911985Y-98440509D01*
X161911986Y-98440510D01*
X161911988Y-98440511D01*
X162037511Y-98512982D01*
X162037512Y-98512982D01*
X162037515Y-98512984D01*
X162177525Y-98550500D01*
X162177528Y-98550500D01*
X162322472Y-98550500D01*
X162322475Y-98550500D01*
X162462485Y-98512984D01*
X162588015Y-98440509D01*
X162690509Y-98338015D01*
X162703087Y-98316230D01*
X167748559Y-98316230D01*
X167748559Y-98448014D01*
X167759230Y-98487838D01*
X167782667Y-98575309D01*
X167815613Y-98632372D01*
X167848559Y-98689436D01*
X167941745Y-98782622D01*
X168055873Y-98848514D01*
X168183167Y-98882622D01*
X168183169Y-98882622D01*
X168314949Y-98882622D01*
X168314951Y-98882622D01*
X168442245Y-98848514D01*
X168556373Y-98782622D01*
X168649559Y-98689436D01*
X168711759Y-98581701D01*
X168762325Y-98533486D01*
X168787053Y-98523926D01*
X168794443Y-98521946D01*
X168794446Y-98521946D01*
X168921740Y-98487838D01*
X169014803Y-98434108D01*
X179999500Y-98434108D01*
X179999500Y-98565891D01*
X180033608Y-98693187D01*
X180062045Y-98742441D01*
X180099500Y-98807314D01*
X180192686Y-98900500D01*
X180306814Y-98966392D01*
X180434108Y-99000500D01*
X180434110Y-99000500D01*
X180565890Y-99000500D01*
X180565892Y-99000500D01*
X180693186Y-98966392D01*
X180807314Y-98900500D01*
X180900500Y-98807314D01*
X180966392Y-98693186D01*
X181000500Y-98565892D01*
X181000500Y-98434108D01*
X180966392Y-98306814D01*
X180900500Y-98192686D01*
X180807314Y-98099500D01*
X180749968Y-98066391D01*
X180693187Y-98033608D01*
X180629539Y-98016554D01*
X180565892Y-97999500D01*
X180434108Y-97999500D01*
X180306812Y-98033608D01*
X180192686Y-98099500D01*
X180192683Y-98099502D01*
X180099502Y-98192683D01*
X180099500Y-98192686D01*
X180033608Y-98306812D01*
X179999500Y-98434108D01*
X169014803Y-98434108D01*
X169035868Y-98421946D01*
X169129054Y-98328760D01*
X169194946Y-98214632D01*
X169229054Y-98087338D01*
X169229054Y-97955554D01*
X169194946Y-97828260D01*
X169129054Y-97714132D01*
X169035868Y-97620946D01*
X168929429Y-97559493D01*
X168921741Y-97555054D01*
X168843575Y-97534110D01*
X168843568Y-97534108D01*
X197449500Y-97534108D01*
X197449500Y-97665892D01*
X197454083Y-97682997D01*
X197483608Y-97793187D01*
X197505854Y-97831717D01*
X197549500Y-97907314D01*
X197642686Y-98000500D01*
X197756814Y-98066392D01*
X197884108Y-98100500D01*
X197884110Y-98100500D01*
X198015890Y-98100500D01*
X198015892Y-98100500D01*
X198143186Y-98066392D01*
X198257314Y-98000500D01*
X198350500Y-97907314D01*
X198416392Y-97793186D01*
X198450500Y-97665892D01*
X198450500Y-97534108D01*
X198416392Y-97406814D01*
X198350500Y-97292686D01*
X198257314Y-97199500D01*
X198200250Y-97166554D01*
X198143187Y-97133608D01*
X198079539Y-97116554D01*
X198015892Y-97099500D01*
X197884108Y-97099500D01*
X197756812Y-97133608D01*
X197642686Y-97199500D01*
X197642683Y-97199502D01*
X197549502Y-97292683D01*
X197549500Y-97292686D01*
X197483608Y-97406812D01*
X197472170Y-97449500D01*
X197449500Y-97534108D01*
X168843568Y-97534108D01*
X168794446Y-97520946D01*
X168662662Y-97520946D01*
X168535366Y-97555054D01*
X168421240Y-97620946D01*
X168421237Y-97620948D01*
X168328056Y-97714129D01*
X168328054Y-97714132D01*
X168265853Y-97821867D01*
X168215286Y-97870082D01*
X168190560Y-97879641D01*
X168183167Y-97881622D01*
X168055873Y-97915730D01*
X168055871Y-97915730D01*
X168055871Y-97915731D01*
X167941745Y-97981622D01*
X167941742Y-97981624D01*
X167848561Y-98074805D01*
X167848559Y-98074808D01*
X167782667Y-98188934D01*
X167751082Y-98306814D01*
X167748559Y-98316230D01*
X162703087Y-98316230D01*
X162754300Y-98227527D01*
X162762982Y-98212488D01*
X162762981Y-98212488D01*
X162762984Y-98212485D01*
X162800500Y-98072475D01*
X162800500Y-97927525D01*
X162762984Y-97787515D01*
X162720614Y-97714129D01*
X162690511Y-97661988D01*
X162690506Y-97661982D01*
X162588017Y-97559493D01*
X162588011Y-97559488D01*
X162462488Y-97487017D01*
X162462489Y-97487017D01*
X162451006Y-97483940D01*
X162322475Y-97449500D01*
X162177525Y-97449500D01*
X162048993Y-97483940D01*
X162037511Y-97487017D01*
X161911988Y-97559488D01*
X161911982Y-97559493D01*
X161809493Y-97661982D01*
X161809488Y-97661988D01*
X161737017Y-97787511D01*
X161737016Y-97787515D01*
X161699500Y-97927525D01*
X152029529Y-97927525D01*
X152127553Y-97829501D01*
X152233996Y-97682994D01*
X152316211Y-97521639D01*
X152372171Y-97349409D01*
X152395914Y-97199502D01*
X152400500Y-97170551D01*
X152400500Y-96989448D01*
X152384019Y-96885397D01*
X152372171Y-96810591D01*
X152316211Y-96638361D01*
X152316211Y-96638360D01*
X152265015Y-96537884D01*
X152233996Y-96477006D01*
X152220396Y-96458287D01*
X152127558Y-96330505D01*
X152127554Y-96330500D01*
X151999499Y-96202445D01*
X151999494Y-96202441D01*
X151852997Y-96096006D01*
X151852996Y-96096005D01*
X151852994Y-96096004D01*
X151801300Y-96069664D01*
X151691639Y-96013788D01*
X151691636Y-96013787D01*
X151519410Y-95957829D01*
X151359321Y-95932473D01*
X151296186Y-95902544D01*
X151259255Y-95843232D01*
X151260253Y-95773370D01*
X151298863Y-95715137D01*
X151359321Y-95687527D01*
X151429425Y-95676422D01*
X151519409Y-95662171D01*
X151691639Y-95606211D01*
X151852994Y-95523996D01*
X151999501Y-95417553D01*
X152127553Y-95289501D01*
X152172581Y-95227525D01*
X187099500Y-95227525D01*
X187099500Y-95372475D01*
X187137016Y-95512485D01*
X187137017Y-95512488D01*
X187209488Y-95638011D01*
X187209490Y-95638013D01*
X187209491Y-95638015D01*
X187311985Y-95740509D01*
X187311986Y-95740510D01*
X187311988Y-95740511D01*
X187437511Y-95812982D01*
X187437512Y-95812982D01*
X187437515Y-95812984D01*
X187577525Y-95850500D01*
X187577528Y-95850500D01*
X187722472Y-95850500D01*
X187722475Y-95850500D01*
X187862485Y-95812984D01*
X187988015Y-95740509D01*
X188090509Y-95638015D01*
X188162984Y-95512485D01*
X188200500Y-95372475D01*
X188200500Y-95227525D01*
X188162984Y-95087515D01*
X188126723Y-95024710D01*
X188090511Y-94961988D01*
X188090506Y-94961982D01*
X187988017Y-94859493D01*
X187988011Y-94859488D01*
X187862488Y-94787017D01*
X187862489Y-94787017D01*
X187851006Y-94783940D01*
X187722475Y-94749500D01*
X187577525Y-94749500D01*
X187448993Y-94783940D01*
X187437511Y-94787017D01*
X187311988Y-94859488D01*
X187311982Y-94859493D01*
X187209493Y-94961982D01*
X187209488Y-94961988D01*
X187137017Y-95087511D01*
X187137016Y-95087515D01*
X187099500Y-95227525D01*
X152172581Y-95227525D01*
X152231440Y-95146513D01*
X152232605Y-95144907D01*
X152233996Y-95142994D01*
X152316211Y-94981639D01*
X152372171Y-94809409D01*
X152386765Y-94717259D01*
X152400500Y-94630551D01*
X152400500Y-94449448D01*
X152384019Y-94345397D01*
X152372171Y-94270591D01*
X152333152Y-94150500D01*
X152316212Y-94098363D01*
X152316211Y-94098360D01*
X152265015Y-93997884D01*
X152233996Y-93937006D01*
X152143527Y-93812485D01*
X152127558Y-93790505D01*
X152127554Y-93790500D01*
X151999499Y-93662445D01*
X151999494Y-93662441D01*
X151940711Y-93619732D01*
X151940688Y-93619717D01*
X151930389Y-93612234D01*
X151878201Y-93574318D01*
X151842118Y-93527525D01*
X180099500Y-93527525D01*
X180099500Y-93672475D01*
X180137016Y-93812485D01*
X180137017Y-93812488D01*
X180209488Y-93938011D01*
X180209490Y-93938013D01*
X180209491Y-93938015D01*
X180311985Y-94040509D01*
X180311986Y-94040510D01*
X180311988Y-94040511D01*
X180437511Y-94112982D01*
X180437512Y-94112982D01*
X180437515Y-94112984D01*
X180577525Y-94150500D01*
X180577528Y-94150500D01*
X180722472Y-94150500D01*
X180722475Y-94150500D01*
X180862485Y-94112984D01*
X180988015Y-94040509D01*
X181090509Y-93938015D01*
X181162984Y-93812485D01*
X181200500Y-93672475D01*
X181200500Y-93527525D01*
X181162984Y-93387515D01*
X181143185Y-93353223D01*
X181090511Y-93261988D01*
X181090506Y-93261982D01*
X180988017Y-93159493D01*
X180988011Y-93159488D01*
X180862488Y-93087017D01*
X180862489Y-93087017D01*
X180851006Y-93083940D01*
X180722475Y-93049500D01*
X180577525Y-93049500D01*
X180448993Y-93083940D01*
X180437511Y-93087017D01*
X180311988Y-93159488D01*
X180311982Y-93159493D01*
X180209493Y-93261982D01*
X180209488Y-93261988D01*
X180137017Y-93387511D01*
X180137016Y-93387515D01*
X180099500Y-93527525D01*
X151842118Y-93527525D01*
X151835536Y-93518989D01*
X151829557Y-93449376D01*
X151862162Y-93387580D01*
X151923000Y-93353223D01*
X151951087Y-93350000D01*
X152147828Y-93350000D01*
X152147844Y-93349999D01*
X152207372Y-93343598D01*
X152207379Y-93343596D01*
X152342086Y-93293354D01*
X152342093Y-93293350D01*
X152457187Y-93207190D01*
X152457190Y-93207187D01*
X152543350Y-93092093D01*
X152543354Y-93092086D01*
X152593596Y-92957379D01*
X152593598Y-92957372D01*
X152599999Y-92897844D01*
X152600000Y-92897827D01*
X152600000Y-92250000D01*
X151683012Y-92250000D01*
X151715925Y-92192993D01*
X151750000Y-92065826D01*
X151750000Y-91934174D01*
X151715925Y-91807007D01*
X151683012Y-91750000D01*
X152600000Y-91750000D01*
X152600000Y-91102172D01*
X152599999Y-91102155D01*
X152593598Y-91042627D01*
X152593596Y-91042620D01*
X152543354Y-90907913D01*
X152543350Y-90907906D01*
X152457190Y-90792812D01*
X152457187Y-90792809D01*
X152342093Y-90706649D01*
X152342086Y-90706645D01*
X152207379Y-90656403D01*
X152207372Y-90656401D01*
X152147844Y-90650000D01*
X151500000Y-90650000D01*
X151500000Y-91566988D01*
X151442993Y-91534075D01*
X151315826Y-91500000D01*
X151184174Y-91500000D01*
X151057007Y-91534075D01*
X151000000Y-91566988D01*
X151000000Y-90650000D01*
X150352155Y-90650000D01*
X150292627Y-90656401D01*
X150292617Y-90656403D01*
X150167832Y-90702945D01*
X150098141Y-90707929D01*
X150036818Y-90674443D01*
X150003334Y-90613120D01*
X150000500Y-90586763D01*
X150000500Y-89578681D01*
X156199500Y-89578681D01*
X156199500Y-89921318D01*
X156237858Y-90261768D01*
X156237861Y-90261782D01*
X156314102Y-90595816D01*
X156314103Y-90595818D01*
X156427264Y-90919216D01*
X156575922Y-91227907D01*
X156575924Y-91227910D01*
X156758211Y-91518018D01*
X156897749Y-91692993D01*
X156942811Y-91749500D01*
X156971834Y-91785893D01*
X157214107Y-92028166D01*
X157481982Y-92241789D01*
X157772090Y-92424076D01*
X158080785Y-92572736D01*
X158404183Y-92685897D01*
X158738217Y-92762139D01*
X158738226Y-92762140D01*
X158738231Y-92762141D01*
X158965197Y-92787713D01*
X159078682Y-92800499D01*
X159078685Y-92800500D01*
X159078688Y-92800500D01*
X159421315Y-92800500D01*
X159421316Y-92800499D01*
X159595311Y-92780895D01*
X159761768Y-92762141D01*
X159761771Y-92762140D01*
X159761783Y-92762139D01*
X160095817Y-92685897D01*
X160419215Y-92572736D01*
X160727910Y-92424076D01*
X161018018Y-92241789D01*
X161090347Y-92184108D01*
X172999500Y-92184108D01*
X172999500Y-92315891D01*
X173033608Y-92443187D01*
X173046736Y-92465925D01*
X173099500Y-92557314D01*
X173192686Y-92650500D01*
X173306814Y-92716392D01*
X173434108Y-92750500D01*
X173434110Y-92750500D01*
X173565890Y-92750500D01*
X173565892Y-92750500D01*
X173693186Y-92716392D01*
X173807314Y-92650500D01*
X173900500Y-92557314D01*
X173966392Y-92443186D01*
X174000500Y-92315892D01*
X174000500Y-92184108D01*
X173987103Y-92134108D01*
X174749500Y-92134108D01*
X174749500Y-92265891D01*
X174783608Y-92393187D01*
X174787599Y-92400099D01*
X174849500Y-92507314D01*
X174942686Y-92600500D01*
X175056814Y-92666392D01*
X175184108Y-92700500D01*
X175184110Y-92700500D01*
X175315890Y-92700500D01*
X175315892Y-92700500D01*
X175443186Y-92666392D01*
X175557314Y-92600500D01*
X175650500Y-92507314D01*
X175716392Y-92393186D01*
X175750500Y-92265892D01*
X175750500Y-92134108D01*
X175716392Y-92006814D01*
X175650500Y-91892686D01*
X175557314Y-91799500D01*
X175470712Y-91749500D01*
X175443187Y-91733608D01*
X175379539Y-91716554D01*
X175315892Y-91699500D01*
X175184108Y-91699500D01*
X175056812Y-91733608D01*
X174942686Y-91799500D01*
X174942683Y-91799502D01*
X174849502Y-91892683D01*
X174849500Y-91892686D01*
X174783608Y-92006812D01*
X174749500Y-92134108D01*
X173987103Y-92134108D01*
X173966392Y-92056814D01*
X173900500Y-91942686D01*
X173807314Y-91849500D01*
X173733714Y-91807007D01*
X173693187Y-91783608D01*
X173629539Y-91766554D01*
X173565892Y-91749500D01*
X173434108Y-91749500D01*
X173306812Y-91783608D01*
X173192686Y-91849500D01*
X173192683Y-91849502D01*
X173099502Y-91942683D01*
X173099500Y-91942686D01*
X173033608Y-92056812D01*
X172999500Y-92184108D01*
X161090347Y-92184108D01*
X161180676Y-92112073D01*
X161222107Y-92079034D01*
X161243633Y-92061866D01*
X161285893Y-92028166D01*
X161528166Y-91785893D01*
X161741789Y-91518018D01*
X161924076Y-91227910D01*
X162072736Y-90919215D01*
X162185897Y-90595817D01*
X162262139Y-90261783D01*
X162300500Y-89921312D01*
X162300500Y-89578688D01*
X162300499Y-89578681D01*
X186699500Y-89578681D01*
X186699500Y-89921318D01*
X186737858Y-90261768D01*
X186737861Y-90261782D01*
X186814102Y-90595816D01*
X186814103Y-90595818D01*
X186927264Y-90919216D01*
X187075922Y-91227907D01*
X187075924Y-91227910D01*
X187258211Y-91518018D01*
X187397749Y-91692993D01*
X187442811Y-91749500D01*
X187471834Y-91785893D01*
X187714107Y-92028166D01*
X187981982Y-92241789D01*
X188272090Y-92424076D01*
X188580785Y-92572736D01*
X188904183Y-92685897D01*
X189238217Y-92762139D01*
X189238226Y-92762140D01*
X189238231Y-92762141D01*
X189465197Y-92787713D01*
X189578682Y-92800499D01*
X189578685Y-92800500D01*
X189578688Y-92800500D01*
X189921315Y-92800500D01*
X189921316Y-92800499D01*
X190095311Y-92780895D01*
X190261768Y-92762141D01*
X190261771Y-92762140D01*
X190261783Y-92762139D01*
X190595817Y-92685897D01*
X190919215Y-92572736D01*
X191227910Y-92424076D01*
X191518018Y-92241789D01*
X191785893Y-92028166D01*
X192028166Y-91785893D01*
X192241789Y-91518018D01*
X192424076Y-91227910D01*
X192572736Y-90919215D01*
X192685897Y-90595817D01*
X192762139Y-90261783D01*
X192800500Y-89921312D01*
X192800500Y-89578688D01*
X192762139Y-89238217D01*
X192685897Y-88904183D01*
X192572736Y-88580785D01*
X192424076Y-88272090D01*
X192241789Y-87981982D01*
X192028166Y-87714107D01*
X191785893Y-87471834D01*
X191518018Y-87258211D01*
X191227910Y-87075924D01*
X191227907Y-87075922D01*
X190919216Y-86927264D01*
X190595818Y-86814103D01*
X190595816Y-86814102D01*
X190338024Y-86755262D01*
X190261783Y-86737861D01*
X190261780Y-86737860D01*
X190261768Y-86737858D01*
X189921318Y-86699500D01*
X189921312Y-86699500D01*
X189578688Y-86699500D01*
X189578681Y-86699500D01*
X189238231Y-86737858D01*
X189238217Y-86737861D01*
X188904183Y-86814102D01*
X188904181Y-86814103D01*
X188580783Y-86927264D01*
X188272092Y-87075922D01*
X187981983Y-87258210D01*
X187714107Y-87471833D01*
X187471833Y-87714107D01*
X187258210Y-87981983D01*
X187075922Y-88272092D01*
X186927264Y-88580783D01*
X186814103Y-88904181D01*
X186814102Y-88904183D01*
X186737861Y-89238217D01*
X186737858Y-89238231D01*
X186699500Y-89578681D01*
X162300499Y-89578681D01*
X162262139Y-89238217D01*
X162185897Y-88904183D01*
X162072736Y-88580785D01*
X161924076Y-88272090D01*
X161741789Y-87981982D01*
X161528166Y-87714107D01*
X161285893Y-87471834D01*
X161104935Y-87327525D01*
X164299500Y-87327525D01*
X164299500Y-87472475D01*
X164337016Y-87612485D01*
X164337017Y-87612488D01*
X164409488Y-87738011D01*
X164409490Y-87738013D01*
X164409491Y-87738015D01*
X164511985Y-87840509D01*
X164511986Y-87840510D01*
X164511988Y-87840511D01*
X164637511Y-87912982D01*
X164637512Y-87912982D01*
X164637515Y-87912984D01*
X164777525Y-87950500D01*
X164777528Y-87950500D01*
X164922472Y-87950500D01*
X164922475Y-87950500D01*
X165062485Y-87912984D01*
X165188015Y-87840509D01*
X165290509Y-87738015D01*
X165362984Y-87612485D01*
X165400500Y-87472475D01*
X165400500Y-87327525D01*
X165362984Y-87187515D01*
X165341613Y-87150500D01*
X165290511Y-87061988D01*
X165290506Y-87061982D01*
X165188017Y-86959493D01*
X165188011Y-86959488D01*
X165062488Y-86887017D01*
X165062489Y-86887017D01*
X165051006Y-86883940D01*
X164922475Y-86849500D01*
X164777525Y-86849500D01*
X164648993Y-86883940D01*
X164637511Y-86887017D01*
X164511988Y-86959488D01*
X164511982Y-86959493D01*
X164409493Y-87061982D01*
X164409488Y-87061988D01*
X164337017Y-87187511D01*
X164337016Y-87187515D01*
X164299500Y-87327525D01*
X161104935Y-87327525D01*
X161018018Y-87258211D01*
X160727910Y-87075924D01*
X160727907Y-87075922D01*
X160419216Y-86927264D01*
X160095818Y-86814103D01*
X160095816Y-86814102D01*
X160020324Y-86796872D01*
X160011962Y-86794963D01*
X159761783Y-86737861D01*
X159761780Y-86737860D01*
X159761768Y-86737858D01*
X159421318Y-86699500D01*
X159421312Y-86699500D01*
X159078688Y-86699500D01*
X159078681Y-86699500D01*
X158738231Y-86737858D01*
X158738217Y-86737861D01*
X158404183Y-86814102D01*
X158404181Y-86814103D01*
X158080783Y-86927264D01*
X157772092Y-87075922D01*
X157481983Y-87258210D01*
X157214107Y-87471833D01*
X156971833Y-87714107D01*
X156758210Y-87981983D01*
X156575922Y-88272092D01*
X156427264Y-88580783D01*
X156314103Y-88904181D01*
X156314102Y-88904183D01*
X156237861Y-89238217D01*
X156237858Y-89238231D01*
X156199500Y-89578681D01*
X150000500Y-89578681D01*
X150000500Y-86684108D01*
X176499500Y-86684108D01*
X176499500Y-86815891D01*
X176533608Y-86943187D01*
X176566554Y-87000250D01*
X176599500Y-87057314D01*
X176692686Y-87150500D01*
X176806814Y-87216392D01*
X176934108Y-87250500D01*
X176934110Y-87250500D01*
X177065890Y-87250500D01*
X177065892Y-87250500D01*
X177193186Y-87216392D01*
X177307314Y-87150500D01*
X177400500Y-87057314D01*
X177466392Y-86943186D01*
X177500500Y-86815892D01*
X177500500Y-86684108D01*
X177466392Y-86556814D01*
X177400500Y-86442686D01*
X177307314Y-86349500D01*
X177250250Y-86316554D01*
X177193187Y-86283608D01*
X177129539Y-86266554D01*
X177065892Y-86249500D01*
X176934108Y-86249500D01*
X176806812Y-86283608D01*
X176692686Y-86349500D01*
X176692683Y-86349502D01*
X176599502Y-86442683D01*
X176599500Y-86442686D01*
X176533608Y-86556812D01*
X176499500Y-86684108D01*
X150000500Y-86684108D01*
X150000500Y-83003750D01*
X150000726Y-82996263D01*
X150018271Y-82706205D01*
X150020076Y-82691340D01*
X150071780Y-82409201D01*
X150075364Y-82394663D01*
X150152096Y-82148422D01*
X150160696Y-82120822D01*
X150165998Y-82106841D01*
X150283731Y-81845249D01*
X150290676Y-81832016D01*
X150439080Y-81586526D01*
X150447567Y-81574230D01*
X150624480Y-81348417D01*
X150634395Y-81337226D01*
X150837226Y-81134395D01*
X150848417Y-81124480D01*
X151074230Y-80947567D01*
X151086526Y-80939080D01*
X151332016Y-80790676D01*
X151345249Y-80783731D01*
X151606841Y-80665998D01*
X151620822Y-80660696D01*
X151894668Y-80575362D01*
X151909197Y-80571780D01*
X152191344Y-80520075D01*
X152206201Y-80518271D01*
X152496264Y-80500726D01*
X152503751Y-80500500D01*
X152565892Y-80500500D01*
X196434108Y-80500500D01*
X196496249Y-80500500D01*
X196503736Y-80500726D01*
G37*
%TD.AperFunction*%
%TD*%
M02*
