%TF.GenerationSoftware,KiCad,Pcbnew,9.0.7-9.0.7~ubuntu24.04.1*%
%TF.CreationDate,2026-06-17T10:13:52+02:00*%
%TF.ProjectId,flight_controller,666c6967-6874-45f6-936f-6e74726f6c6c,rev?*%
%TF.SameCoordinates,Original*%
%TF.FileFunction,Copper,L5,Inr*%
%TF.FilePolarity,Positive*%
%FSLAX46Y46*%
G04 Gerber Fmt 4.6, Leading zero omitted, Abs format (unit mm)*
G04 Created by KiCad (PCBNEW 9.0.7-9.0.7~ubuntu24.04.1) date 2026-06-17 10:13:52*
%MOMM*%
%LPD*%
G01*
G04 APERTURE LIST*
%TA.AperFunction,ComponentPad*%
%ADD10R,1.700000X1.700000*%
%TD*%
%TA.AperFunction,ComponentPad*%
%ADD11C,1.700000*%
%TD*%
%TA.AperFunction,ComponentPad*%
%ADD12C,5.500000*%
%TD*%
%TA.AperFunction,ComponentPad*%
%ADD13R,0.850000X0.850000*%
%TD*%
%TA.AperFunction,ComponentPad*%
%ADD14C,0.850000*%
%TD*%
%TA.AperFunction,ComponentPad*%
%ADD15O,2.100000X1.000000*%
%TD*%
%TA.AperFunction,ComponentPad*%
%ADD16O,1.800000X1.000000*%
%TD*%
%TA.AperFunction,ViaPad*%
%ADD17C,0.500000*%
%TD*%
G04 APERTURE END LIST*
D10*
%TO.N,GNDREF*%
%TO.C,J5*%
X151250000Y-92000000D03*
D11*
%TO.N,/GPS_TX*%
X151250000Y-94540000D03*
%TO.N,/GPS_RX*%
X151250000Y-97080000D03*
%TO.N,+5V*%
X151250000Y-99620000D03*
%TD*%
D10*
%TO.N,GNDREF*%
%TO.C,J3*%
X160880000Y-128000000D03*
D11*
%TO.N,/VTX_TX*%
X163420000Y-128000000D03*
%TO.N,/VTX_RX*%
X165960000Y-128000000D03*
%TO.N,+9V*%
X168500000Y-128000000D03*
%TD*%
D10*
%TO.N,GNDREF*%
%TO.C,J4*%
X151250000Y-111000000D03*
D11*
%TO.N,/TRANSCEIVER_TX*%
X151250000Y-113540000D03*
%TO.N,/TRANSCEIVER_RX*%
X151250000Y-116080000D03*
%TO.N,+5V*%
X151250000Y-118620000D03*
%TD*%
D12*
%TO.N,*%
%TO.C,REF\u002A\u002A*%
X189750000Y-120250000D03*
%TD*%
%TO.N,*%
%TO.C,REF\u002A\u002A*%
X159250000Y-89750000D03*
%TD*%
%TO.N,*%
%TO.C,REF\u002A\u002A*%
X159250000Y-120250000D03*
%TD*%
D13*
%TO.N,GNDREF*%
%TO.C,J1*%
X193500000Y-102250000D03*
D14*
%TO.N,/JTAG_SWCLK*%
X193500000Y-103250000D03*
%TO.N,/JTAG_SWDIO*%
X193500000Y-104250000D03*
%TD*%
D12*
%TO.N,*%
%TO.C,REF\u002A\u002A*%
X189750000Y-89750000D03*
%TD*%
D15*
%TO.N,GNDREF*%
%TO.C,J6*%
X192482500Y-115820000D03*
X192482500Y-107180000D03*
D16*
X196662500Y-115820000D03*
X196662500Y-107180000D03*
%TD*%
D17*
%TO.N,+3.3V*%
X170850000Y-106200000D03*
X187650000Y-95300000D03*
X167122544Y-120273955D03*
X158750000Y-115100000D03*
X183450000Y-112900000D03*
X181380000Y-94410000D03*
X177735723Y-110265774D03*
X170434052Y-111143127D03*
X184150000Y-115900000D03*
X171760000Y-116760000D03*
X188420170Y-105089758D03*
X169113699Y-111137098D03*
X167850079Y-119462787D03*
X174874959Y-93610527D03*
X167500000Y-87950000D03*
X168890838Y-100764006D03*
%TO.N,GNDREF*%
X172093722Y-111618610D03*
X184293971Y-111573895D03*
X169603245Y-106089198D03*
X174700645Y-101298486D03*
X198113794Y-127590761D03*
X174322623Y-96829467D03*
X166732784Y-115234557D03*
X174321402Y-110798846D03*
X177892651Y-107550875D03*
X181893655Y-104285596D03*
X174241829Y-91951021D03*
X197224771Y-128529174D03*
X151884217Y-128422887D03*
X154165207Y-109982508D03*
X174884140Y-115386059D03*
X182564068Y-117816730D03*
X150781709Y-82359765D03*
X159150000Y-99860000D03*
X173088446Y-103359149D03*
X197261587Y-81310977D03*
X181750000Y-111100000D03*
X167388364Y-98700528D03*
X198200000Y-82200000D03*
X150945804Y-127533864D03*
X180982462Y-99177736D03*
X180850000Y-104700000D03*
X169247765Y-97215636D03*
X165050000Y-112600000D03*
X175759285Y-114497678D03*
X181685172Y-115285551D03*
X179903619Y-93036362D03*
X151670732Y-81421352D03*
X182844413Y-123989163D03*
X173211596Y-121689636D03*
%TO.N,VBAT*%
X162870000Y-99090000D03*
X184440000Y-127490000D03*
X162850000Y-104130000D03*
X183370000Y-118650000D03*
X162850000Y-102620000D03*
X162850000Y-100910000D03*
X179540000Y-127520000D03*
X181400000Y-127510000D03*
X177000000Y-86750000D03*
X154070000Y-100920000D03*
X183110000Y-127510000D03*
%TO.N,/ICM_INT1*%
X184050000Y-110800000D03*
X181950000Y-117400000D03*
%TO.N,+5VBAT*%
X162870000Y-105820000D03*
X190340000Y-106770000D03*
X162870000Y-108510000D03*
%TO.N,/BMP_SCLK*%
X174160000Y-115610000D03*
X174150000Y-110000000D03*
%TO.N,/BOOT*%
X173500000Y-92250000D03*
X180500000Y-98500000D03*
%TO.N,/BMP_SDI*%
X177150000Y-107500000D03*
X175250000Y-114000000D03*
%TO.N,+5V*%
X188069416Y-113819701D03*
X186259093Y-107668232D03*
X167044297Y-123277986D03*
X197950000Y-97600000D03*
%TO.N,Net-(U2-FB)*%
X159500000Y-100500000D03*
X154750000Y-109500000D03*
%TO.N,Net-(U4-FB)*%
X183599998Y-123934715D03*
X173650000Y-122300000D03*
%TO.N,/FLASH_SCLK*%
X165750000Y-112250000D03*
X166750000Y-114500000D03*
%TO.N,/ICM_MISO*%
X181000000Y-115750000D03*
X181750000Y-110250000D03*
%TO.N,/VTX_RX*%
X182450000Y-104950000D03*
%TO.N,/VTX_TX*%
X181446446Y-105096446D03*
%TO.N,/GPS_RX*%
X168100000Y-98450000D03*
X173150000Y-102600000D03*
%TO.N,/GPS_TX*%
X173950000Y-101600000D03*
X168850000Y-97850000D03*
%TD*%
%TA.AperFunction,Conductor*%
%TO.N,GNDREF*%
G36*
X196503736Y-80500726D02*
G01*
X196793796Y-80518271D01*
X196808659Y-80520076D01*
X197090798Y-80571780D01*
X197105335Y-80575363D01*
X197379172Y-80660695D01*
X197393163Y-80666000D01*
X197654743Y-80783727D01*
X197667989Y-80790680D01*
X197913465Y-80939075D01*
X197925776Y-80947573D01*
X198151573Y-81124473D01*
X198162781Y-81134403D01*
X198365596Y-81337218D01*
X198375526Y-81348426D01*
X198495481Y-81501538D01*
X198552422Y-81574217D01*
X198560928Y-81586540D01*
X198709316Y-81832004D01*
X198716275Y-81845263D01*
X198833997Y-82106831D01*
X198839306Y-82120832D01*
X198924635Y-82394663D01*
X198928219Y-82409201D01*
X198979923Y-82691340D01*
X198981728Y-82706205D01*
X198999274Y-82996263D01*
X198999500Y-83003750D01*
X198999500Y-126996249D01*
X198999274Y-127003736D01*
X198981728Y-127293794D01*
X198979923Y-127308659D01*
X198928219Y-127590798D01*
X198924635Y-127605336D01*
X198839306Y-127879167D01*
X198833997Y-127893168D01*
X198716275Y-128154736D01*
X198709316Y-128167995D01*
X198560928Y-128413459D01*
X198552422Y-128425782D01*
X198375526Y-128651573D01*
X198365596Y-128662781D01*
X198162781Y-128865596D01*
X198151573Y-128875526D01*
X197925782Y-129052422D01*
X197913459Y-129060928D01*
X197667995Y-129209316D01*
X197654736Y-129216275D01*
X197393168Y-129333997D01*
X197379167Y-129339306D01*
X197105336Y-129424635D01*
X197090798Y-129428219D01*
X196808659Y-129479923D01*
X196793794Y-129481728D01*
X196503736Y-129499274D01*
X196496249Y-129499500D01*
X162069269Y-129499500D01*
X162002230Y-129479815D01*
X161956475Y-129427011D01*
X161946531Y-129357853D01*
X161975556Y-129294297D01*
X161994958Y-129276234D01*
X162087187Y-129207190D01*
X162087190Y-129207187D01*
X162173350Y-129092093D01*
X162173354Y-129092086D01*
X162223596Y-128957379D01*
X162223598Y-128957372D01*
X162229999Y-128897844D01*
X162230000Y-128897827D01*
X162230000Y-128701087D01*
X162249685Y-128634048D01*
X162302489Y-128588293D01*
X162371647Y-128578349D01*
X162435203Y-128607374D01*
X162454318Y-128628202D01*
X162542441Y-128749495D01*
X162670500Y-128877554D01*
X162670505Y-128877558D01*
X162698427Y-128897844D01*
X162817006Y-128983996D01*
X162922484Y-129037740D01*
X162978360Y-129066211D01*
X162978363Y-129066212D01*
X163044683Y-129087760D01*
X163150591Y-129122171D01*
X163233429Y-129135291D01*
X163329449Y-129150500D01*
X163329454Y-129150500D01*
X163510551Y-129150500D01*
X163597259Y-129136765D01*
X163689409Y-129122171D01*
X163861639Y-129066211D01*
X164022994Y-128983996D01*
X164169501Y-128877553D01*
X164297553Y-128749501D01*
X164403996Y-128602994D01*
X164486211Y-128441639D01*
X164542171Y-128269409D01*
X164559250Y-128161576D01*
X164567527Y-128109321D01*
X164597456Y-128046186D01*
X164656768Y-128009255D01*
X164726630Y-128010253D01*
X164784863Y-128048863D01*
X164812473Y-128109321D01*
X164837829Y-128269410D01*
X164893787Y-128441636D01*
X164893788Y-128441639D01*
X164949664Y-128551300D01*
X164968513Y-128588293D01*
X164976006Y-128602997D01*
X165082441Y-128749494D01*
X165082445Y-128749499D01*
X165210500Y-128877554D01*
X165210505Y-128877558D01*
X165238427Y-128897844D01*
X165357006Y-128983996D01*
X165462484Y-129037740D01*
X165518360Y-129066211D01*
X165518363Y-129066212D01*
X165584683Y-129087760D01*
X165690591Y-129122171D01*
X165773429Y-129135291D01*
X165869449Y-129150500D01*
X165869454Y-129150500D01*
X166050551Y-129150500D01*
X166137259Y-129136765D01*
X166229409Y-129122171D01*
X166401639Y-129066211D01*
X166562994Y-128983996D01*
X166709501Y-128877553D01*
X166837553Y-128749501D01*
X166943996Y-128602994D01*
X167026211Y-128441639D01*
X167082171Y-128269409D01*
X167099250Y-128161576D01*
X167107527Y-128109321D01*
X167137456Y-128046186D01*
X167196768Y-128009255D01*
X167266630Y-128010253D01*
X167324863Y-128048863D01*
X167352473Y-128109321D01*
X167377829Y-128269410D01*
X167433787Y-128441636D01*
X167433788Y-128441639D01*
X167489664Y-128551300D01*
X167508513Y-128588293D01*
X167516006Y-128602997D01*
X167622441Y-128749494D01*
X167622445Y-128749499D01*
X167750500Y-128877554D01*
X167750505Y-128877558D01*
X167778427Y-128897844D01*
X167897006Y-128983996D01*
X168002484Y-129037740D01*
X168058360Y-129066211D01*
X168058363Y-129066212D01*
X168124683Y-129087760D01*
X168230591Y-129122171D01*
X168313429Y-129135291D01*
X168409449Y-129150500D01*
X168409454Y-129150500D01*
X168590551Y-129150500D01*
X168677259Y-129136765D01*
X168769409Y-129122171D01*
X168941639Y-129066211D01*
X169102994Y-128983996D01*
X169249501Y-128877553D01*
X169377553Y-128749501D01*
X169483996Y-128602994D01*
X169566211Y-128441639D01*
X169622171Y-128269409D01*
X169639250Y-128161576D01*
X169650500Y-128090551D01*
X169650500Y-127909448D01*
X169634019Y-127805397D01*
X169622171Y-127730591D01*
X169582743Y-127609242D01*
X169566212Y-127558363D01*
X169566211Y-127558360D01*
X169534280Y-127495693D01*
X169509738Y-127447527D01*
X169509737Y-127447525D01*
X178989500Y-127447525D01*
X178989500Y-127592475D01*
X179027016Y-127732485D01*
X179027017Y-127732488D01*
X179099488Y-127858011D01*
X179099490Y-127858013D01*
X179099491Y-127858015D01*
X179201985Y-127960509D01*
X179201986Y-127960510D01*
X179201988Y-127960511D01*
X179327511Y-128032982D01*
X179327512Y-128032982D01*
X179327515Y-128032984D01*
X179467525Y-128070500D01*
X179467528Y-128070500D01*
X179612472Y-128070500D01*
X179612475Y-128070500D01*
X179752485Y-128032984D01*
X179878015Y-127960509D01*
X179980509Y-127858015D01*
X180052984Y-127732485D01*
X180090500Y-127592475D01*
X180090500Y-127447525D01*
X180087820Y-127437525D01*
X180849500Y-127437525D01*
X180849500Y-127582475D01*
X180887016Y-127722485D01*
X180887017Y-127722488D01*
X180959488Y-127848011D01*
X180959490Y-127848013D01*
X180959491Y-127848015D01*
X181061985Y-127950509D01*
X181061986Y-127950510D01*
X181061988Y-127950511D01*
X181187511Y-128022982D01*
X181187512Y-128022982D01*
X181187515Y-128022984D01*
X181327525Y-128060500D01*
X181327528Y-128060500D01*
X181472472Y-128060500D01*
X181472475Y-128060500D01*
X181612485Y-128022984D01*
X181738015Y-127950509D01*
X181840509Y-127848015D01*
X181912984Y-127722485D01*
X181950500Y-127582475D01*
X181950500Y-127437525D01*
X182559500Y-127437525D01*
X182559500Y-127582475D01*
X182597016Y-127722485D01*
X182597017Y-127722488D01*
X182669488Y-127848011D01*
X182669490Y-127848013D01*
X182669491Y-127848015D01*
X182771985Y-127950509D01*
X182771986Y-127950510D01*
X182771988Y-127950511D01*
X182897511Y-128022982D01*
X182897512Y-128022982D01*
X182897515Y-128022984D01*
X183037525Y-128060500D01*
X183037528Y-128060500D01*
X183182472Y-128060500D01*
X183182475Y-128060500D01*
X183322485Y-128022984D01*
X183448015Y-127950509D01*
X183550509Y-127848015D01*
X183622984Y-127722485D01*
X183660500Y-127582475D01*
X183660500Y-127437525D01*
X183655141Y-127417525D01*
X183889500Y-127417525D01*
X183889500Y-127562475D01*
X183912953Y-127650000D01*
X183927017Y-127702488D01*
X183999488Y-127828011D01*
X183999490Y-127828013D01*
X183999491Y-127828015D01*
X184101985Y-127930509D01*
X184101986Y-127930510D01*
X184101988Y-127930511D01*
X184227511Y-128002982D01*
X184227512Y-128002982D01*
X184227515Y-128002984D01*
X184367525Y-128040500D01*
X184367528Y-128040500D01*
X184512472Y-128040500D01*
X184512475Y-128040500D01*
X184652485Y-128002984D01*
X184778015Y-127930509D01*
X184880509Y-127828015D01*
X184952984Y-127702485D01*
X184990500Y-127562475D01*
X184990500Y-127417525D01*
X184952984Y-127277515D01*
X184937386Y-127250499D01*
X184880511Y-127151988D01*
X184880506Y-127151982D01*
X184778017Y-127049493D01*
X184778011Y-127049488D01*
X184652488Y-126977017D01*
X184652489Y-126977017D01*
X184624435Y-126969500D01*
X184512475Y-126939500D01*
X184367525Y-126939500D01*
X184255565Y-126969500D01*
X184227511Y-126977017D01*
X184101988Y-127049488D01*
X184101982Y-127049493D01*
X183999493Y-127151982D01*
X183999488Y-127151988D01*
X183927017Y-127277511D01*
X183918979Y-127307511D01*
X183889500Y-127417525D01*
X183655141Y-127417525D01*
X183622984Y-127297515D01*
X183595839Y-127250499D01*
X183550511Y-127171988D01*
X183550506Y-127171982D01*
X183448017Y-127069493D01*
X183448011Y-127069488D01*
X183322488Y-126997017D01*
X183322489Y-126997017D01*
X183311006Y-126993940D01*
X183182475Y-126959500D01*
X183037525Y-126959500D01*
X182908993Y-126993940D01*
X182897511Y-126997017D01*
X182771988Y-127069488D01*
X182771982Y-127069493D01*
X182669493Y-127171982D01*
X182669488Y-127171988D01*
X182597017Y-127297511D01*
X182597016Y-127297515D01*
X182559500Y-127437525D01*
X181950500Y-127437525D01*
X181912984Y-127297515D01*
X181885839Y-127250499D01*
X181840511Y-127171988D01*
X181840506Y-127171982D01*
X181738017Y-127069493D01*
X181738011Y-127069488D01*
X181612488Y-126997017D01*
X181612489Y-126997017D01*
X181601006Y-126993940D01*
X181472475Y-126959500D01*
X181327525Y-126959500D01*
X181198993Y-126993940D01*
X181187511Y-126997017D01*
X181061988Y-127069488D01*
X181061982Y-127069493D01*
X180959493Y-127171982D01*
X180959488Y-127171988D01*
X180887017Y-127297511D01*
X180887016Y-127297515D01*
X180849500Y-127437525D01*
X180087820Y-127437525D01*
X180052984Y-127307515D01*
X180047210Y-127297515D01*
X179980511Y-127181988D01*
X179980506Y-127181982D01*
X179878017Y-127079493D01*
X179878011Y-127079488D01*
X179752488Y-127007017D01*
X179752489Y-127007017D01*
X179726301Y-127000000D01*
X179612475Y-126969500D01*
X179467525Y-126969500D01*
X179353699Y-127000000D01*
X179327511Y-127007017D01*
X179201988Y-127079488D01*
X179201982Y-127079493D01*
X179099493Y-127181982D01*
X179099488Y-127181988D01*
X179027017Y-127307511D01*
X179027016Y-127307515D01*
X178989500Y-127447525D01*
X169509737Y-127447525D01*
X169483996Y-127397006D01*
X169465681Y-127371797D01*
X169377558Y-127250505D01*
X169377554Y-127250500D01*
X169249499Y-127122445D01*
X169249494Y-127122441D01*
X169102997Y-127016006D01*
X169102996Y-127016005D01*
X169102994Y-127016004D01*
X169051300Y-126989664D01*
X168941639Y-126933788D01*
X168941636Y-126933787D01*
X168769410Y-126877829D01*
X168590551Y-126849500D01*
X168590546Y-126849500D01*
X168409454Y-126849500D01*
X168409449Y-126849500D01*
X168230589Y-126877829D01*
X168058363Y-126933787D01*
X168058360Y-126933788D01*
X167897002Y-127016006D01*
X167750505Y-127122441D01*
X167750500Y-127122445D01*
X167622445Y-127250500D01*
X167622441Y-127250505D01*
X167516006Y-127397002D01*
X167433788Y-127558360D01*
X167433787Y-127558363D01*
X167377829Y-127730589D01*
X167352473Y-127890678D01*
X167322544Y-127953813D01*
X167263232Y-127990744D01*
X167193369Y-127989746D01*
X167135137Y-127951136D01*
X167107527Y-127890678D01*
X167093740Y-127803639D01*
X167082171Y-127730591D01*
X167042743Y-127609242D01*
X167026212Y-127558363D01*
X167026211Y-127558360D01*
X166994280Y-127495693D01*
X166943996Y-127397006D01*
X166925681Y-127371797D01*
X166837558Y-127250505D01*
X166837554Y-127250500D01*
X166709499Y-127122445D01*
X166709494Y-127122441D01*
X166562997Y-127016006D01*
X166562996Y-127016005D01*
X166562994Y-127016004D01*
X166511300Y-126989664D01*
X166401639Y-126933788D01*
X166401636Y-126933787D01*
X166229410Y-126877829D01*
X166050551Y-126849500D01*
X166050546Y-126849500D01*
X165869454Y-126849500D01*
X165869449Y-126849500D01*
X165690589Y-126877829D01*
X165518363Y-126933787D01*
X165518360Y-126933788D01*
X165357002Y-127016006D01*
X165210505Y-127122441D01*
X165210500Y-127122445D01*
X165082445Y-127250500D01*
X165082441Y-127250505D01*
X164976006Y-127397002D01*
X164893788Y-127558360D01*
X164893787Y-127558363D01*
X164837829Y-127730589D01*
X164812473Y-127890678D01*
X164782544Y-127953813D01*
X164723232Y-127990744D01*
X164653369Y-127989746D01*
X164595137Y-127951136D01*
X164567527Y-127890678D01*
X164553740Y-127803639D01*
X164542171Y-127730591D01*
X164502743Y-127609242D01*
X164486212Y-127558363D01*
X164486211Y-127558360D01*
X164454280Y-127495693D01*
X164403996Y-127397006D01*
X164385681Y-127371797D01*
X164297558Y-127250505D01*
X164297554Y-127250500D01*
X164169499Y-127122445D01*
X164169494Y-127122441D01*
X164022997Y-127016006D01*
X164022996Y-127016005D01*
X164022994Y-127016004D01*
X163971300Y-126989664D01*
X163861639Y-126933788D01*
X163861636Y-126933787D01*
X163689410Y-126877829D01*
X163510551Y-126849500D01*
X163510546Y-126849500D01*
X163329454Y-126849500D01*
X163329449Y-126849500D01*
X163150589Y-126877829D01*
X162978363Y-126933787D01*
X162978360Y-126933788D01*
X162817002Y-127016006D01*
X162670505Y-127122441D01*
X162670500Y-127122445D01*
X162542445Y-127250500D01*
X162542441Y-127250505D01*
X162454318Y-127371797D01*
X162398988Y-127414463D01*
X162329375Y-127420442D01*
X162267580Y-127387836D01*
X162233223Y-127326998D01*
X162230000Y-127298912D01*
X162230000Y-127102172D01*
X162229999Y-127102155D01*
X162223598Y-127042627D01*
X162223596Y-127042620D01*
X162173354Y-126907913D01*
X162173350Y-126907906D01*
X162087190Y-126792812D01*
X162087187Y-126792809D01*
X161972093Y-126706649D01*
X161972086Y-126706645D01*
X161837379Y-126656403D01*
X161837372Y-126656401D01*
X161777844Y-126650000D01*
X161130000Y-126650000D01*
X161130000Y-127755025D01*
X161094905Y-127719930D01*
X161015095Y-127673852D01*
X160926078Y-127650000D01*
X160833922Y-127650000D01*
X160744905Y-127673852D01*
X160665095Y-127719930D01*
X160599930Y-127785095D01*
X160553852Y-127864905D01*
X160530000Y-127953922D01*
X160530000Y-128046078D01*
X160553852Y-128135095D01*
X160599930Y-128214905D01*
X160635025Y-128250000D01*
X159530000Y-128250000D01*
X159530000Y-128897844D01*
X159536401Y-128957372D01*
X159536403Y-128957379D01*
X159586645Y-129092086D01*
X159586649Y-129092093D01*
X159672809Y-129207187D01*
X159672812Y-129207190D01*
X159765042Y-129276234D01*
X159806913Y-129332168D01*
X159811897Y-129401859D01*
X159778411Y-129463182D01*
X159717088Y-129496666D01*
X159690731Y-129499500D01*
X152503751Y-129499500D01*
X152496264Y-129499274D01*
X152206205Y-129481728D01*
X152191340Y-129479923D01*
X151909201Y-129428219D01*
X151894663Y-129424635D01*
X151620832Y-129339306D01*
X151606831Y-129333997D01*
X151345263Y-129216275D01*
X151332004Y-129209316D01*
X151234710Y-129150500D01*
X151086537Y-129060926D01*
X151074217Y-129052422D01*
X150848426Y-128875526D01*
X150837218Y-128865596D01*
X150634403Y-128662781D01*
X150624473Y-128651573D01*
X150567106Y-128578349D01*
X150447573Y-128425776D01*
X150439075Y-128413465D01*
X150290680Y-128167989D01*
X150283727Y-128154743D01*
X150166000Y-127893163D01*
X150160693Y-127879167D01*
X150154102Y-127858017D01*
X150075363Y-127605335D01*
X150071780Y-127590798D01*
X150040027Y-127417527D01*
X150020075Y-127308657D01*
X150018271Y-127293794D01*
X150017286Y-127277511D01*
X150006679Y-127102155D01*
X159530000Y-127102155D01*
X159530000Y-127750000D01*
X160630000Y-127750000D01*
X160630000Y-126650000D01*
X159982155Y-126650000D01*
X159922627Y-126656401D01*
X159922620Y-126656403D01*
X159787913Y-126706645D01*
X159787906Y-126706649D01*
X159672812Y-126792809D01*
X159672809Y-126792812D01*
X159586649Y-126907906D01*
X159586645Y-126907913D01*
X159536403Y-127042620D01*
X159536401Y-127042627D01*
X159530000Y-127102155D01*
X150006679Y-127102155D01*
X150000726Y-127003736D01*
X150000500Y-126996249D01*
X150000500Y-123862240D01*
X183049498Y-123862240D01*
X183049498Y-124007190D01*
X183087014Y-124147200D01*
X183087015Y-124147203D01*
X183159486Y-124272726D01*
X183159488Y-124272728D01*
X183159489Y-124272730D01*
X183261983Y-124375224D01*
X183261984Y-124375225D01*
X183261986Y-124375226D01*
X183387509Y-124447697D01*
X183387510Y-124447697D01*
X183387513Y-124447699D01*
X183527523Y-124485215D01*
X183527526Y-124485215D01*
X183672470Y-124485215D01*
X183672473Y-124485215D01*
X183812483Y-124447699D01*
X183938013Y-124375224D01*
X184040507Y-124272730D01*
X184112982Y-124147200D01*
X184150498Y-124007190D01*
X184150498Y-123862240D01*
X184112982Y-123722230D01*
X184051650Y-123616001D01*
X184040509Y-123596703D01*
X184040504Y-123596697D01*
X183938015Y-123494208D01*
X183938009Y-123494203D01*
X183812486Y-123421732D01*
X183812487Y-123421732D01*
X183801004Y-123418655D01*
X183672473Y-123384215D01*
X183527523Y-123384215D01*
X183398991Y-123418655D01*
X183387509Y-123421732D01*
X183261986Y-123494203D01*
X183261980Y-123494208D01*
X183159491Y-123596697D01*
X183159486Y-123596703D01*
X183087015Y-123722226D01*
X183087014Y-123722230D01*
X183049498Y-123862240D01*
X150000500Y-123862240D01*
X150000500Y-120078681D01*
X156199500Y-120078681D01*
X156199500Y-120421318D01*
X156237858Y-120761768D01*
X156237861Y-120761782D01*
X156314102Y-121095816D01*
X156314103Y-121095818D01*
X156427264Y-121419216D01*
X156575922Y-121727907D01*
X156575924Y-121727910D01*
X156758211Y-122018018D01*
X156971834Y-122285893D01*
X157214107Y-122528166D01*
X157481982Y-122741789D01*
X157772090Y-122924076D01*
X158080785Y-123072736D01*
X158404183Y-123185897D01*
X158738217Y-123262139D01*
X158738226Y-123262140D01*
X158738231Y-123262141D01*
X158965197Y-123287713D01*
X159078682Y-123300499D01*
X159078685Y-123300500D01*
X159078688Y-123300500D01*
X159421315Y-123300500D01*
X159421316Y-123300499D01*
X159595311Y-123280895D01*
X159761768Y-123262141D01*
X159761771Y-123262140D01*
X159761783Y-123262139D01*
X160009883Y-123205511D01*
X166493797Y-123205511D01*
X166493797Y-123350461D01*
X166531313Y-123490471D01*
X166531314Y-123490474D01*
X166603785Y-123615997D01*
X166603787Y-123615999D01*
X166603788Y-123616001D01*
X166706282Y-123718495D01*
X166706283Y-123718496D01*
X166706285Y-123718497D01*
X166831808Y-123790968D01*
X166831809Y-123790968D01*
X166831812Y-123790970D01*
X166971822Y-123828486D01*
X166971825Y-123828486D01*
X167116769Y-123828486D01*
X167116772Y-123828486D01*
X167256782Y-123790970D01*
X167382312Y-123718495D01*
X167484806Y-123616001D01*
X167557281Y-123490471D01*
X167594797Y-123350461D01*
X167594797Y-123205511D01*
X167557281Y-123065501D01*
X167484806Y-122939971D01*
X167382312Y-122837477D01*
X167382310Y-122837476D01*
X167382308Y-122837474D01*
X167256785Y-122765003D01*
X167256786Y-122765003D01*
X167245303Y-122761926D01*
X167116772Y-122727486D01*
X166971822Y-122727486D01*
X166843290Y-122761926D01*
X166831808Y-122765003D01*
X166706285Y-122837474D01*
X166706279Y-122837479D01*
X166603790Y-122939968D01*
X166603785Y-122939974D01*
X166531314Y-123065497D01*
X166531313Y-123065501D01*
X166493797Y-123205511D01*
X160009883Y-123205511D01*
X160095817Y-123185897D01*
X160419215Y-123072736D01*
X160727910Y-122924076D01*
X161018018Y-122741789D01*
X161285893Y-122528166D01*
X161528166Y-122285893D01*
X161574713Y-122227525D01*
X173099500Y-122227525D01*
X173099500Y-122372475D01*
X173137016Y-122512485D01*
X173137017Y-122512488D01*
X173209488Y-122638011D01*
X173209490Y-122638013D01*
X173209491Y-122638015D01*
X173311985Y-122740509D01*
X173311986Y-122740510D01*
X173311988Y-122740511D01*
X173437511Y-122812982D01*
X173437512Y-122812982D01*
X173437515Y-122812984D01*
X173577525Y-122850500D01*
X173577528Y-122850500D01*
X173722472Y-122850500D01*
X173722475Y-122850500D01*
X173862485Y-122812984D01*
X173988015Y-122740509D01*
X174090509Y-122638015D01*
X174162984Y-122512485D01*
X174200500Y-122372475D01*
X174200500Y-122227525D01*
X174162984Y-122087515D01*
X174090509Y-121961985D01*
X173988015Y-121859491D01*
X173988013Y-121859490D01*
X173988011Y-121859488D01*
X173862488Y-121787017D01*
X173862489Y-121787017D01*
X173851006Y-121783940D01*
X173722475Y-121749500D01*
X173577525Y-121749500D01*
X173448993Y-121783940D01*
X173437511Y-121787017D01*
X173311988Y-121859488D01*
X173311982Y-121859493D01*
X173209493Y-121961982D01*
X173209488Y-121961988D01*
X173137017Y-122087511D01*
X173137016Y-122087515D01*
X173099500Y-122227525D01*
X161574713Y-122227525D01*
X161741789Y-122018018D01*
X161924076Y-121727910D01*
X162072736Y-121419215D01*
X162185897Y-121095817D01*
X162262139Y-120761783D01*
X162267471Y-120714464D01*
X162280895Y-120595311D01*
X162300500Y-120421312D01*
X162300500Y-120201480D01*
X166572044Y-120201480D01*
X166572044Y-120346430D01*
X166609560Y-120486440D01*
X166609561Y-120486443D01*
X166682032Y-120611966D01*
X166682034Y-120611968D01*
X166682035Y-120611970D01*
X166784529Y-120714464D01*
X166784530Y-120714465D01*
X166784532Y-120714466D01*
X166910055Y-120786937D01*
X166910056Y-120786937D01*
X166910059Y-120786939D01*
X167050069Y-120824455D01*
X167050072Y-120824455D01*
X167195016Y-120824455D01*
X167195019Y-120824455D01*
X167335029Y-120786939D01*
X167460559Y-120714464D01*
X167563053Y-120611970D01*
X167635528Y-120486440D01*
X167673044Y-120346430D01*
X167673044Y-120201480D01*
X167664443Y-120169381D01*
X167666105Y-120099532D01*
X167680217Y-120078681D01*
X186699500Y-120078681D01*
X186699500Y-120421318D01*
X186737858Y-120761768D01*
X186737861Y-120761782D01*
X186814102Y-121095816D01*
X186814103Y-121095818D01*
X186927264Y-121419216D01*
X187075922Y-121727907D01*
X187075924Y-121727910D01*
X187258211Y-122018018D01*
X187471834Y-122285893D01*
X187714107Y-122528166D01*
X187981982Y-122741789D01*
X188272090Y-122924076D01*
X188580785Y-123072736D01*
X188904183Y-123185897D01*
X189238217Y-123262139D01*
X189238226Y-123262140D01*
X189238231Y-123262141D01*
X189465197Y-123287713D01*
X189578682Y-123300499D01*
X189578685Y-123300500D01*
X189578688Y-123300500D01*
X189921315Y-123300500D01*
X189921316Y-123300499D01*
X190095311Y-123280895D01*
X190261768Y-123262141D01*
X190261771Y-123262140D01*
X190261783Y-123262139D01*
X190595817Y-123185897D01*
X190919215Y-123072736D01*
X191227910Y-122924076D01*
X191518018Y-122741789D01*
X191785893Y-122528166D01*
X192028166Y-122285893D01*
X192241789Y-122018018D01*
X192424076Y-121727910D01*
X192572736Y-121419215D01*
X192685897Y-121095817D01*
X192762139Y-120761783D01*
X192767471Y-120714464D01*
X192780895Y-120595311D01*
X192800500Y-120421312D01*
X192800500Y-120078688D01*
X192780739Y-119903296D01*
X192762141Y-119738231D01*
X192762140Y-119738226D01*
X192762139Y-119738217D01*
X192685897Y-119404183D01*
X192572736Y-119080785D01*
X192424076Y-118772090D01*
X192241789Y-118481982D01*
X192028166Y-118214107D01*
X191785893Y-117971834D01*
X191518018Y-117758211D01*
X191286101Y-117612488D01*
X191227907Y-117575922D01*
X190919216Y-117427264D01*
X190595818Y-117314103D01*
X190595816Y-117314102D01*
X190337473Y-117255137D01*
X190261783Y-117237861D01*
X190261780Y-117237860D01*
X190261768Y-117237858D01*
X189921318Y-117199500D01*
X189921312Y-117199500D01*
X189578688Y-117199500D01*
X189578681Y-117199500D01*
X189238231Y-117237858D01*
X189238217Y-117237861D01*
X188904183Y-117314102D01*
X188904181Y-117314103D01*
X188580783Y-117427264D01*
X188272092Y-117575922D01*
X187981983Y-117758210D01*
X187714107Y-117971833D01*
X187471833Y-118214107D01*
X187258210Y-118481983D01*
X187075922Y-118772092D01*
X186927264Y-119080783D01*
X186814103Y-119404181D01*
X186814102Y-119404183D01*
X186737861Y-119738217D01*
X186737858Y-119738231D01*
X186699500Y-120078681D01*
X167680217Y-120078681D01*
X167705266Y-120041669D01*
X167769495Y-120014164D01*
X167784217Y-120013287D01*
X167922551Y-120013287D01*
X167922554Y-120013287D01*
X168062564Y-119975771D01*
X168188094Y-119903296D01*
X168290588Y-119800802D01*
X168363063Y-119675272D01*
X168400579Y-119535262D01*
X168400579Y-119390312D01*
X168363063Y-119250302D01*
X168347298Y-119222997D01*
X168290590Y-119124775D01*
X168290585Y-119124769D01*
X168188096Y-119022280D01*
X168188090Y-119022275D01*
X168062567Y-118949804D01*
X168062568Y-118949804D01*
X168051085Y-118946727D01*
X167922554Y-118912287D01*
X167777604Y-118912287D01*
X167649072Y-118946727D01*
X167637590Y-118949804D01*
X167512067Y-119022275D01*
X167512061Y-119022280D01*
X167409572Y-119124769D01*
X167409567Y-119124775D01*
X167337096Y-119250298D01*
X167337095Y-119250302D01*
X167299579Y-119390312D01*
X167299579Y-119390314D01*
X167299579Y-119535263D01*
X167308180Y-119567360D01*
X167306518Y-119637210D01*
X167267357Y-119695073D01*
X167203128Y-119722578D01*
X167188406Y-119723455D01*
X167050069Y-119723455D01*
X166921537Y-119757895D01*
X166910055Y-119760972D01*
X166784532Y-119833443D01*
X166784526Y-119833448D01*
X166682037Y-119935937D01*
X166682032Y-119935943D01*
X166609561Y-120061466D01*
X166609560Y-120061470D01*
X166572044Y-120201480D01*
X162300500Y-120201480D01*
X162300500Y-120078688D01*
X162280739Y-119903296D01*
X162262141Y-119738231D01*
X162262140Y-119738226D01*
X162262139Y-119738217D01*
X162185897Y-119404183D01*
X162072736Y-119080785D01*
X161924076Y-118772090D01*
X161801823Y-118577525D01*
X182819500Y-118577525D01*
X182819500Y-118722475D01*
X182857016Y-118862485D01*
X182857017Y-118862488D01*
X182929488Y-118988011D01*
X182929490Y-118988013D01*
X182929491Y-118988015D01*
X183031985Y-119090509D01*
X183031986Y-119090510D01*
X183031988Y-119090511D01*
X183157511Y-119162982D01*
X183157512Y-119162982D01*
X183157515Y-119162984D01*
X183297525Y-119200500D01*
X183297528Y-119200500D01*
X183442472Y-119200500D01*
X183442475Y-119200500D01*
X183582485Y-119162984D01*
X183708015Y-119090509D01*
X183810509Y-118988015D01*
X183882984Y-118862485D01*
X183920500Y-118722475D01*
X183920500Y-118577525D01*
X183882984Y-118437515D01*
X183832798Y-118350591D01*
X183810511Y-118311988D01*
X183810506Y-118311982D01*
X183708017Y-118209493D01*
X183708011Y-118209488D01*
X183582488Y-118137017D01*
X183582489Y-118137017D01*
X183551371Y-118128679D01*
X183442475Y-118099500D01*
X183297525Y-118099500D01*
X183188629Y-118128679D01*
X183157511Y-118137017D01*
X183031988Y-118209488D01*
X183031982Y-118209493D01*
X182929493Y-118311982D01*
X182929488Y-118311988D01*
X182857017Y-118437511D01*
X182857016Y-118437515D01*
X182819500Y-118577525D01*
X161801823Y-118577525D01*
X161741789Y-118481982D01*
X161528166Y-118214107D01*
X161285893Y-117971834D01*
X161018018Y-117758211D01*
X160786101Y-117612488D01*
X160727907Y-117575922D01*
X160419216Y-117427264D01*
X160134176Y-117327525D01*
X181399500Y-117327525D01*
X181399500Y-117472475D01*
X181437016Y-117612485D01*
X181437017Y-117612488D01*
X181509488Y-117738011D01*
X181509490Y-117738013D01*
X181509491Y-117738015D01*
X181611985Y-117840509D01*
X181611986Y-117840510D01*
X181611988Y-117840511D01*
X181737511Y-117912982D01*
X181737512Y-117912982D01*
X181737515Y-117912984D01*
X181877525Y-117950500D01*
X181877528Y-117950500D01*
X182022472Y-117950500D01*
X182022475Y-117950500D01*
X182162485Y-117912984D01*
X182288015Y-117840509D01*
X182390509Y-117738015D01*
X182462984Y-117612485D01*
X182500500Y-117472475D01*
X182500500Y-117327525D01*
X182462984Y-117187515D01*
X182391668Y-117063993D01*
X182390511Y-117061988D01*
X182390506Y-117061982D01*
X182288017Y-116959493D01*
X182288011Y-116959488D01*
X182162488Y-116887017D01*
X182162489Y-116887017D01*
X182151006Y-116883940D01*
X182022475Y-116849500D01*
X181877525Y-116849500D01*
X181748993Y-116883940D01*
X181737511Y-116887017D01*
X181611988Y-116959488D01*
X181611982Y-116959493D01*
X181509493Y-117061982D01*
X181509488Y-117061988D01*
X181437017Y-117187511D01*
X181437016Y-117187515D01*
X181399500Y-117327525D01*
X160134176Y-117327525D01*
X160095818Y-117314103D01*
X160095816Y-117314102D01*
X159837473Y-117255137D01*
X159761783Y-117237861D01*
X159761780Y-117237860D01*
X159761768Y-117237858D01*
X159421318Y-117199500D01*
X159421312Y-117199500D01*
X159078688Y-117199500D01*
X159078681Y-117199500D01*
X158738231Y-117237858D01*
X158738217Y-117237861D01*
X158404183Y-117314102D01*
X158404181Y-117314103D01*
X158080783Y-117427264D01*
X157772092Y-117575922D01*
X157481983Y-117758210D01*
X157214107Y-117971833D01*
X156971833Y-118214107D01*
X156758210Y-118481983D01*
X156575922Y-118772092D01*
X156427264Y-119080783D01*
X156314103Y-119404181D01*
X156314102Y-119404183D01*
X156237861Y-119738217D01*
X156237858Y-119738231D01*
X156199500Y-120078681D01*
X150000500Y-120078681D01*
X150000500Y-119218411D01*
X150020185Y-119151372D01*
X150072989Y-119105617D01*
X150142147Y-119095673D01*
X150205703Y-119124698D01*
X150234985Y-119162116D01*
X150266006Y-119222997D01*
X150372441Y-119369494D01*
X150372445Y-119369499D01*
X150500500Y-119497554D01*
X150500505Y-119497558D01*
X150628287Y-119590396D01*
X150647006Y-119603996D01*
X150712192Y-119637210D01*
X150808360Y-119686211D01*
X150808363Y-119686212D01*
X150894476Y-119714191D01*
X150980591Y-119742171D01*
X151063429Y-119755291D01*
X151159449Y-119770500D01*
X151159454Y-119770500D01*
X151340551Y-119770500D01*
X151427259Y-119756765D01*
X151519409Y-119742171D01*
X151691639Y-119686211D01*
X151852994Y-119603996D01*
X151999501Y-119497553D01*
X152127553Y-119369501D01*
X152233996Y-119222994D01*
X152316211Y-119061639D01*
X152372171Y-118889409D01*
X152390752Y-118772092D01*
X152400500Y-118710551D01*
X152400500Y-118529448D01*
X152384019Y-118425397D01*
X152372171Y-118350591D01*
X152344191Y-118264476D01*
X152316212Y-118178363D01*
X152316211Y-118178360D01*
X152265015Y-118077884D01*
X152233996Y-118017006D01*
X152158419Y-117912982D01*
X152127558Y-117870505D01*
X152127554Y-117870500D01*
X151999499Y-117742445D01*
X151999494Y-117742441D01*
X151852997Y-117636006D01*
X151852996Y-117636005D01*
X151852994Y-117636004D01*
X151801300Y-117609664D01*
X151691639Y-117553788D01*
X151691636Y-117553787D01*
X151519410Y-117497829D01*
X151359321Y-117472473D01*
X151296186Y-117442544D01*
X151259255Y-117383232D01*
X151260253Y-117313370D01*
X151298863Y-117255137D01*
X151359321Y-117227527D01*
X151429425Y-117216422D01*
X151519409Y-117202171D01*
X151691639Y-117146211D01*
X151852994Y-117063996D01*
X151999501Y-116957553D01*
X152127553Y-116829501D01*
X152230704Y-116687525D01*
X171209500Y-116687525D01*
X171209500Y-116832475D01*
X171243534Y-116959491D01*
X171247017Y-116972488D01*
X171319488Y-117098011D01*
X171319490Y-117098013D01*
X171319491Y-117098015D01*
X171421985Y-117200509D01*
X171421986Y-117200510D01*
X171421988Y-117200511D01*
X171547511Y-117272982D01*
X171547512Y-117272982D01*
X171547515Y-117272984D01*
X171687525Y-117310500D01*
X171687528Y-117310500D01*
X171832472Y-117310500D01*
X171832475Y-117310500D01*
X171972485Y-117272984D01*
X172098015Y-117200509D01*
X172200509Y-117098015D01*
X172272984Y-116972485D01*
X172310500Y-116832475D01*
X172310500Y-116687525D01*
X172272984Y-116547515D01*
X172258044Y-116521639D01*
X172200511Y-116421988D01*
X172200506Y-116421982D01*
X172098017Y-116319493D01*
X172098011Y-116319488D01*
X171972488Y-116247017D01*
X171972489Y-116247017D01*
X171961006Y-116243940D01*
X171832475Y-116209500D01*
X171687525Y-116209500D01*
X171558993Y-116243940D01*
X171547511Y-116247017D01*
X171421988Y-116319488D01*
X171421982Y-116319493D01*
X171319493Y-116421982D01*
X171319488Y-116421988D01*
X171247017Y-116547511D01*
X171247016Y-116547515D01*
X171209500Y-116687525D01*
X152230704Y-116687525D01*
X152233996Y-116682994D01*
X152316211Y-116521639D01*
X152372171Y-116349409D01*
X152389815Y-116238011D01*
X152400500Y-116170551D01*
X152400500Y-115989448D01*
X152374055Y-115822488D01*
X152372171Y-115810591D01*
X152316211Y-115638361D01*
X152316211Y-115638360D01*
X152277294Y-115561982D01*
X152233996Y-115477006D01*
X152168615Y-115387016D01*
X152127558Y-115330505D01*
X152127554Y-115330500D01*
X151999499Y-115202445D01*
X151999494Y-115202441D01*
X151885632Y-115119716D01*
X151852997Y-115096006D01*
X151852996Y-115096005D01*
X151852994Y-115096004D01*
X151801300Y-115069664D01*
X151718599Y-115027525D01*
X158199500Y-115027525D01*
X158199500Y-115172475D01*
X158226164Y-115271985D01*
X158237017Y-115312488D01*
X158309488Y-115438011D01*
X158309490Y-115438013D01*
X158309491Y-115438015D01*
X158411985Y-115540509D01*
X158411986Y-115540510D01*
X158411988Y-115540511D01*
X158537511Y-115612982D01*
X158537512Y-115612982D01*
X158537515Y-115612984D01*
X158677525Y-115650500D01*
X158677528Y-115650500D01*
X158822472Y-115650500D01*
X158822475Y-115650500D01*
X158962485Y-115612984D01*
X159088015Y-115540509D01*
X159090999Y-115537525D01*
X173609500Y-115537525D01*
X173609500Y-115682475D01*
X173647016Y-115822485D01*
X173647017Y-115822488D01*
X173719488Y-115948011D01*
X173719490Y-115948013D01*
X173719491Y-115948015D01*
X173821985Y-116050509D01*
X173821986Y-116050510D01*
X173821988Y-116050511D01*
X173947511Y-116122982D01*
X173947512Y-116122982D01*
X173947515Y-116122984D01*
X174087525Y-116160500D01*
X174087528Y-116160500D01*
X174232472Y-116160500D01*
X174232475Y-116160500D01*
X174372485Y-116122984D01*
X174498015Y-116050509D01*
X174600509Y-115948015D01*
X174672984Y-115822485D01*
X174710500Y-115682475D01*
X174710500Y-115677525D01*
X180449500Y-115677525D01*
X180449500Y-115822475D01*
X180487016Y-115962485D01*
X180487017Y-115962488D01*
X180559488Y-116088011D01*
X180559490Y-116088013D01*
X180559491Y-116088015D01*
X180661985Y-116190509D01*
X180661986Y-116190510D01*
X180661988Y-116190511D01*
X180787511Y-116262982D01*
X180787512Y-116262982D01*
X180787515Y-116262984D01*
X180927525Y-116300500D01*
X180927528Y-116300500D01*
X181072472Y-116300500D01*
X181072475Y-116300500D01*
X181212485Y-116262984D01*
X181338015Y-116190509D01*
X181440509Y-116088015D01*
X181512984Y-115962485D01*
X181549147Y-115827525D01*
X183599500Y-115827525D01*
X183599500Y-115972475D01*
X183630460Y-116088017D01*
X183637017Y-116112488D01*
X183709488Y-116238011D01*
X183709490Y-116238013D01*
X183709491Y-116238015D01*
X183811985Y-116340509D01*
X183811986Y-116340510D01*
X183811988Y-116340511D01*
X183937511Y-116412982D01*
X183937512Y-116412982D01*
X183937515Y-116412984D01*
X184077525Y-116450500D01*
X184077528Y-116450500D01*
X184222472Y-116450500D01*
X184222475Y-116450500D01*
X184362485Y-116412984D01*
X184488015Y-116340509D01*
X184590509Y-116238015D01*
X184662984Y-116112485D01*
X184700500Y-115972475D01*
X184700500Y-115827525D01*
X184662984Y-115687515D01*
X184595136Y-115570000D01*
X190962638Y-115570000D01*
X191765512Y-115570000D01*
X191748295Y-115579940D01*
X191692440Y-115635795D01*
X191652944Y-115704204D01*
X191632500Y-115780504D01*
X191632500Y-115859496D01*
X191652944Y-115935796D01*
X191692440Y-116004205D01*
X191748295Y-116060060D01*
X191765512Y-116070000D01*
X190962638Y-116070000D01*
X190970930Y-116111690D01*
X190970930Y-116111692D01*
X191046307Y-116293671D01*
X191046314Y-116293684D01*
X191155748Y-116457462D01*
X191155751Y-116457466D01*
X191295033Y-116596748D01*
X191295037Y-116596751D01*
X191458815Y-116706185D01*
X191458828Y-116706192D01*
X191640806Y-116781569D01*
X191640818Y-116781572D01*
X191834004Y-116819999D01*
X191834008Y-116820000D01*
X192232500Y-116820000D01*
X192232500Y-116120000D01*
X192732500Y-116120000D01*
X192732500Y-116820000D01*
X193130992Y-116820000D01*
X193130995Y-116819999D01*
X193324181Y-116781572D01*
X193324193Y-116781569D01*
X193506171Y-116706192D01*
X193506184Y-116706185D01*
X193669962Y-116596751D01*
X193669966Y-116596748D01*
X193809248Y-116457466D01*
X193809251Y-116457462D01*
X193918685Y-116293684D01*
X193918692Y-116293671D01*
X193994069Y-116111692D01*
X193994069Y-116111690D01*
X194002362Y-116070000D01*
X193199488Y-116070000D01*
X193216705Y-116060060D01*
X193272560Y-116004205D01*
X193312056Y-115935796D01*
X193332500Y-115859496D01*
X193332500Y-115780504D01*
X193312056Y-115704204D01*
X193272560Y-115635795D01*
X193216705Y-115579940D01*
X193199488Y-115570000D01*
X194002362Y-115570000D01*
X195292638Y-115570000D01*
X196095512Y-115570000D01*
X196078295Y-115579940D01*
X196022440Y-115635795D01*
X195982944Y-115704204D01*
X195962500Y-115780504D01*
X195962500Y-115859496D01*
X195982944Y-115935796D01*
X196022440Y-116004205D01*
X196078295Y-116060060D01*
X196095512Y-116070000D01*
X195292638Y-116070000D01*
X195300930Y-116111690D01*
X195300930Y-116111692D01*
X195376307Y-116293671D01*
X195376314Y-116293684D01*
X195485748Y-116457462D01*
X195485751Y-116457466D01*
X195625033Y-116596748D01*
X195625037Y-116596751D01*
X195788815Y-116706185D01*
X195788828Y-116706192D01*
X195970806Y-116781569D01*
X195970818Y-116781572D01*
X196164004Y-116819999D01*
X196164008Y-116820000D01*
X196412500Y-116820000D01*
X196412500Y-116120000D01*
X196912500Y-116120000D01*
X196912500Y-116820000D01*
X197160992Y-116820000D01*
X197160995Y-116819999D01*
X197354181Y-116781572D01*
X197354193Y-116781569D01*
X197536171Y-116706192D01*
X197536184Y-116706185D01*
X197699962Y-116596751D01*
X197699966Y-116596748D01*
X197839248Y-116457466D01*
X197839251Y-116457462D01*
X197948685Y-116293684D01*
X197948692Y-116293671D01*
X198024069Y-116111692D01*
X198024069Y-116111690D01*
X198032362Y-116070000D01*
X197229488Y-116070000D01*
X197246705Y-116060060D01*
X197302560Y-116004205D01*
X197342056Y-115935796D01*
X197362500Y-115859496D01*
X197362500Y-115780504D01*
X197342056Y-115704204D01*
X197302560Y-115635795D01*
X197246705Y-115579940D01*
X197229488Y-115570000D01*
X198032362Y-115570000D01*
X198024069Y-115528309D01*
X198024069Y-115528307D01*
X197948692Y-115346328D01*
X197948685Y-115346315D01*
X197839251Y-115182537D01*
X197839248Y-115182533D01*
X197699966Y-115043251D01*
X197699962Y-115043248D01*
X197536184Y-114933814D01*
X197536171Y-114933807D01*
X197354193Y-114858430D01*
X197354181Y-114858427D01*
X197160995Y-114820000D01*
X196912500Y-114820000D01*
X196912500Y-115520000D01*
X196412500Y-115520000D01*
X196412500Y-114820000D01*
X196164004Y-114820000D01*
X195970818Y-114858427D01*
X195970806Y-114858430D01*
X195788828Y-114933807D01*
X195788815Y-114933814D01*
X195625037Y-115043248D01*
X195625033Y-115043251D01*
X195485751Y-115182533D01*
X195485748Y-115182537D01*
X195376314Y-115346315D01*
X195376307Y-115346328D01*
X195300930Y-115528307D01*
X195300930Y-115528309D01*
X195292638Y-115570000D01*
X194002362Y-115570000D01*
X193994069Y-115528309D01*
X193994069Y-115528307D01*
X193918692Y-115346328D01*
X193918685Y-115346315D01*
X193809251Y-115182537D01*
X193809248Y-115182533D01*
X193669966Y-115043251D01*
X193669962Y-115043248D01*
X193506184Y-114933814D01*
X193506174Y-114933809D01*
X193496657Y-114929867D01*
X193442254Y-114886026D01*
X193420189Y-114819731D01*
X193437469Y-114752032D01*
X193441148Y-114746597D01*
X193443012Y-114743367D01*
X193443015Y-114743365D01*
X193518781Y-114612135D01*
X193558000Y-114465766D01*
X193558000Y-114314234D01*
X193518781Y-114167865D01*
X193515384Y-114161982D01*
X193479124Y-114099178D01*
X193443015Y-114036635D01*
X193335865Y-113929485D01*
X193270250Y-113891602D01*
X193204636Y-113853719D01*
X193131450Y-113834109D01*
X193058266Y-113814500D01*
X192906734Y-113814500D01*
X192760363Y-113853719D01*
X192629135Y-113929485D01*
X192629132Y-113929487D01*
X192521987Y-114036632D01*
X192521985Y-114036635D01*
X192446219Y-114167863D01*
X192407000Y-114314234D01*
X192407000Y-114465765D01*
X192446219Y-114612136D01*
X192473558Y-114659488D01*
X192521985Y-114743365D01*
X192629135Y-114850515D01*
X192670500Y-114874397D01*
X192718716Y-114924964D01*
X192732500Y-114981784D01*
X192732500Y-115520000D01*
X192232500Y-115520000D01*
X192232500Y-114820000D01*
X191834004Y-114820000D01*
X191640818Y-114858427D01*
X191640806Y-114858430D01*
X191458828Y-114933807D01*
X191458815Y-114933814D01*
X191295037Y-115043248D01*
X191295033Y-115043251D01*
X191155751Y-115182533D01*
X191155748Y-115182537D01*
X191046314Y-115346315D01*
X191046307Y-115346328D01*
X190970930Y-115528307D01*
X190970930Y-115528309D01*
X190962638Y-115570000D01*
X184595136Y-115570000D01*
X184590509Y-115561985D01*
X184488015Y-115459491D01*
X184488013Y-115459490D01*
X184488011Y-115459488D01*
X184362488Y-115387017D01*
X184362489Y-115387017D01*
X184351006Y-115383940D01*
X184222475Y-115349500D01*
X184077525Y-115349500D01*
X183948993Y-115383940D01*
X183937511Y-115387017D01*
X183811988Y-115459488D01*
X183811982Y-115459493D01*
X183709493Y-115561982D01*
X183709488Y-115561988D01*
X183637017Y-115687511D01*
X183637016Y-115687515D01*
X183599500Y-115827525D01*
X181549147Y-115827525D01*
X181550500Y-115822475D01*
X181550500Y-115677525D01*
X181512984Y-115537515D01*
X181480694Y-115481588D01*
X181440511Y-115411988D01*
X181440506Y-115411982D01*
X181338017Y-115309493D01*
X181338011Y-115309488D01*
X181212488Y-115237017D01*
X181212489Y-115237017D01*
X181201006Y-115233940D01*
X181072475Y-115199500D01*
X180927525Y-115199500D01*
X180798993Y-115233940D01*
X180787511Y-115237017D01*
X180661988Y-115309488D01*
X180661982Y-115309493D01*
X180559493Y-115411982D01*
X180559488Y-115411988D01*
X180487017Y-115537511D01*
X180486214Y-115540509D01*
X180449500Y-115677525D01*
X174710500Y-115677525D01*
X174710500Y-115537525D01*
X174672984Y-115397515D01*
X174666922Y-115387016D01*
X174600511Y-115271988D01*
X174600506Y-115271982D01*
X174498017Y-115169493D01*
X174498011Y-115169488D01*
X174372488Y-115097017D01*
X174372489Y-115097017D01*
X174361006Y-115093940D01*
X174232475Y-115059500D01*
X174087525Y-115059500D01*
X173958993Y-115093940D01*
X173947511Y-115097017D01*
X173821988Y-115169488D01*
X173821982Y-115169493D01*
X173719493Y-115271982D01*
X173719488Y-115271988D01*
X173647017Y-115397511D01*
X173647016Y-115397515D01*
X173609500Y-115537525D01*
X159090999Y-115537525D01*
X159190509Y-115438015D01*
X159262984Y-115312485D01*
X159300500Y-115172475D01*
X159300500Y-115027525D01*
X159262984Y-114887515D01*
X159262124Y-114886026D01*
X159190511Y-114761988D01*
X159190506Y-114761982D01*
X159088017Y-114659493D01*
X159088011Y-114659488D01*
X158962488Y-114587017D01*
X158962489Y-114587017D01*
X158951006Y-114583940D01*
X158822475Y-114549500D01*
X158677525Y-114549500D01*
X158548993Y-114583940D01*
X158537511Y-114587017D01*
X158411988Y-114659488D01*
X158411982Y-114659493D01*
X158309493Y-114761982D01*
X158309488Y-114761988D01*
X158237017Y-114887511D01*
X158237016Y-114887515D01*
X158199500Y-115027525D01*
X151718599Y-115027525D01*
X151691639Y-115013788D01*
X151691636Y-115013787D01*
X151519410Y-114957829D01*
X151359321Y-114932473D01*
X151296186Y-114902544D01*
X151259255Y-114843232D01*
X151260253Y-114773370D01*
X151298863Y-114715137D01*
X151359321Y-114687527D01*
X151429425Y-114676422D01*
X151519409Y-114662171D01*
X151691639Y-114606211D01*
X151852994Y-114523996D01*
X151985776Y-114427525D01*
X166199500Y-114427525D01*
X166199500Y-114572475D01*
X166231125Y-114690500D01*
X166237017Y-114712488D01*
X166309488Y-114838011D01*
X166309490Y-114838013D01*
X166309491Y-114838015D01*
X166411985Y-114940509D01*
X166411986Y-114940510D01*
X166411988Y-114940511D01*
X166537511Y-115012982D01*
X166537512Y-115012982D01*
X166537515Y-115012984D01*
X166677525Y-115050500D01*
X166677528Y-115050500D01*
X166822472Y-115050500D01*
X166822475Y-115050500D01*
X166962485Y-115012984D01*
X167088015Y-114940509D01*
X167190509Y-114838015D01*
X167262984Y-114712485D01*
X167300500Y-114572475D01*
X167300500Y-114427525D01*
X167262984Y-114287515D01*
X167247219Y-114260210D01*
X167190511Y-114161988D01*
X167190506Y-114161982D01*
X167088017Y-114059493D01*
X167088015Y-114059491D01*
X167040727Y-114032189D01*
X167031367Y-114026785D01*
X166962485Y-113987016D01*
X166822475Y-113949500D01*
X166677525Y-113949500D01*
X166557593Y-113981636D01*
X166537511Y-113987017D01*
X166411988Y-114059488D01*
X166411982Y-114059493D01*
X166309493Y-114161982D01*
X166309488Y-114161988D01*
X166237017Y-114287511D01*
X166237016Y-114287515D01*
X166199500Y-114427525D01*
X151985776Y-114427525D01*
X151999501Y-114417553D01*
X152127553Y-114289501D01*
X152233996Y-114142994D01*
X152316211Y-113981639D01*
X152333793Y-113927525D01*
X174699500Y-113927525D01*
X174699500Y-114072475D01*
X174725060Y-114167865D01*
X174737017Y-114212488D01*
X174809488Y-114338011D01*
X174809490Y-114338013D01*
X174809491Y-114338015D01*
X174911985Y-114440509D01*
X174911986Y-114440510D01*
X174911988Y-114440511D01*
X175037511Y-114512982D01*
X175037512Y-114512982D01*
X175037515Y-114512984D01*
X175177525Y-114550500D01*
X175177528Y-114550500D01*
X175322472Y-114550500D01*
X175322475Y-114550500D01*
X175462485Y-114512984D01*
X175588015Y-114440509D01*
X175690509Y-114338015D01*
X175762984Y-114212485D01*
X175800500Y-114072475D01*
X175800500Y-113927525D01*
X175762984Y-113787515D01*
X175739724Y-113747228D01*
X175739723Y-113747226D01*
X187518916Y-113747226D01*
X187518916Y-113892176D01*
X187553445Y-114021039D01*
X187556433Y-114032189D01*
X187628904Y-114157712D01*
X187628906Y-114157714D01*
X187628907Y-114157716D01*
X187731401Y-114260210D01*
X187731402Y-114260211D01*
X187731404Y-114260212D01*
X187856927Y-114332683D01*
X187856928Y-114332683D01*
X187856931Y-114332685D01*
X187996941Y-114370201D01*
X187996944Y-114370201D01*
X188141888Y-114370201D01*
X188141891Y-114370201D01*
X188281901Y-114332685D01*
X188407431Y-114260210D01*
X188509925Y-114157716D01*
X188582400Y-114032186D01*
X188619916Y-113892176D01*
X188619916Y-113747226D01*
X188582400Y-113607216D01*
X188513002Y-113487016D01*
X188509927Y-113481689D01*
X188509922Y-113481683D01*
X188407433Y-113379194D01*
X188407427Y-113379189D01*
X188281904Y-113306718D01*
X188281905Y-113306718D01*
X188270422Y-113303641D01*
X188141891Y-113269201D01*
X187996941Y-113269201D01*
X187868409Y-113303641D01*
X187856927Y-113306718D01*
X187731404Y-113379189D01*
X187731398Y-113379194D01*
X187628909Y-113481683D01*
X187628904Y-113481689D01*
X187556433Y-113607212D01*
X187556432Y-113607216D01*
X187518916Y-113747226D01*
X175739723Y-113747226D01*
X175690511Y-113661988D01*
X175690506Y-113661982D01*
X175588017Y-113559493D01*
X175588011Y-113559488D01*
X175462488Y-113487017D01*
X175462489Y-113487017D01*
X175451006Y-113483940D01*
X175322475Y-113449500D01*
X175177525Y-113449500D01*
X175048993Y-113483940D01*
X175037511Y-113487017D01*
X174911988Y-113559488D01*
X174911982Y-113559493D01*
X174809493Y-113661982D01*
X174809488Y-113661988D01*
X174737017Y-113787511D01*
X174737016Y-113787515D01*
X174699500Y-113927525D01*
X152333793Y-113927525D01*
X152372171Y-113809409D01*
X152386765Y-113717259D01*
X152400500Y-113630551D01*
X152400500Y-113449448D01*
X152377893Y-113306718D01*
X152372171Y-113270591D01*
X152316211Y-113098361D01*
X152316211Y-113098360D01*
X152265015Y-112997884D01*
X152233996Y-112937006D01*
X152220396Y-112918287D01*
X152154454Y-112827525D01*
X182899500Y-112827525D01*
X182899500Y-112972475D01*
X182933232Y-113098363D01*
X182937017Y-113112488D01*
X183009488Y-113238011D01*
X183009490Y-113238013D01*
X183009491Y-113238015D01*
X183111985Y-113340509D01*
X183111986Y-113340510D01*
X183111988Y-113340511D01*
X183237511Y-113412982D01*
X183237512Y-113412982D01*
X183237515Y-113412984D01*
X183377525Y-113450500D01*
X183377528Y-113450500D01*
X183522472Y-113450500D01*
X183522475Y-113450500D01*
X183662485Y-113412984D01*
X183788015Y-113340509D01*
X183890509Y-113238015D01*
X183962984Y-113112485D01*
X184000500Y-112972475D01*
X184000500Y-112827525D01*
X183962984Y-112687515D01*
X183948507Y-112662441D01*
X183890511Y-112561988D01*
X183890506Y-112561982D01*
X183788017Y-112459493D01*
X183788011Y-112459488D01*
X183662488Y-112387017D01*
X183662489Y-112387017D01*
X183651006Y-112383940D01*
X183522475Y-112349500D01*
X183377525Y-112349500D01*
X183248993Y-112383940D01*
X183237511Y-112387017D01*
X183111988Y-112459488D01*
X183111982Y-112459493D01*
X183009493Y-112561982D01*
X183009488Y-112561988D01*
X182937017Y-112687511D01*
X182936214Y-112690508D01*
X182899500Y-112827525D01*
X152154454Y-112827525D01*
X152127558Y-112790505D01*
X152127554Y-112790500D01*
X151999495Y-112662441D01*
X151878202Y-112574318D01*
X151835536Y-112518989D01*
X151829557Y-112449375D01*
X151862162Y-112387580D01*
X151923001Y-112353223D01*
X151951087Y-112350000D01*
X152147828Y-112350000D01*
X152147844Y-112349999D01*
X152207372Y-112343598D01*
X152207379Y-112343596D01*
X152342086Y-112293354D01*
X152342093Y-112293350D01*
X152457187Y-112207190D01*
X152479395Y-112177525D01*
X165199500Y-112177525D01*
X165199500Y-112322475D01*
X165226299Y-112422489D01*
X165237017Y-112462488D01*
X165309488Y-112588011D01*
X165309490Y-112588013D01*
X165309491Y-112588015D01*
X165411985Y-112690509D01*
X165411986Y-112690510D01*
X165411988Y-112690511D01*
X165537511Y-112762982D01*
X165537512Y-112762982D01*
X165537515Y-112762984D01*
X165677525Y-112800500D01*
X165677528Y-112800500D01*
X165822472Y-112800500D01*
X165822475Y-112800500D01*
X165962485Y-112762984D01*
X166088015Y-112690509D01*
X166190509Y-112588015D01*
X166262984Y-112462485D01*
X166300500Y-112322475D01*
X166300500Y-112177525D01*
X166262984Y-112037515D01*
X166216717Y-111957379D01*
X166190511Y-111911988D01*
X166190506Y-111911982D01*
X166088017Y-111809493D01*
X166088011Y-111809488D01*
X165962488Y-111737017D01*
X165962489Y-111737017D01*
X165951006Y-111733940D01*
X165822475Y-111699500D01*
X165677525Y-111699500D01*
X165548993Y-111733940D01*
X165537511Y-111737017D01*
X165411988Y-111809488D01*
X165411982Y-111809493D01*
X165309493Y-111911982D01*
X165309488Y-111911988D01*
X165237017Y-112037511D01*
X165237016Y-112037515D01*
X165199500Y-112177525D01*
X152479395Y-112177525D01*
X152541110Y-112095086D01*
X152541110Y-112095085D01*
X152543350Y-112092092D01*
X152543354Y-112092086D01*
X152593596Y-111957379D01*
X152593598Y-111957372D01*
X152599999Y-111897844D01*
X152600000Y-111897827D01*
X152600000Y-111250000D01*
X151494975Y-111250000D01*
X151530070Y-111214905D01*
X151576148Y-111135095D01*
X151595031Y-111064623D01*
X168563199Y-111064623D01*
X168563199Y-111209573D01*
X168594436Y-111326148D01*
X168600716Y-111349586D01*
X168673187Y-111475109D01*
X168673189Y-111475111D01*
X168673190Y-111475113D01*
X168775684Y-111577607D01*
X168775685Y-111577608D01*
X168775687Y-111577609D01*
X168901210Y-111650080D01*
X168901211Y-111650080D01*
X168901214Y-111650082D01*
X169041224Y-111687598D01*
X169041227Y-111687598D01*
X169186171Y-111687598D01*
X169186174Y-111687598D01*
X169326184Y-111650082D01*
X169451714Y-111577607D01*
X169554208Y-111475113D01*
X169626683Y-111349583D01*
X169653294Y-111250269D01*
X169689657Y-111190613D01*
X169752503Y-111160083D01*
X169821879Y-111168377D01*
X169875757Y-111212862D01*
X169892841Y-111250271D01*
X169919453Y-111349586D01*
X169921069Y-111355615D01*
X169993540Y-111481138D01*
X169993542Y-111481140D01*
X169993543Y-111481142D01*
X170096037Y-111583636D01*
X170096038Y-111583637D01*
X170096040Y-111583638D01*
X170221563Y-111656109D01*
X170221564Y-111656109D01*
X170221567Y-111656111D01*
X170361577Y-111693627D01*
X170361580Y-111693627D01*
X170506524Y-111693627D01*
X170506527Y-111693627D01*
X170646537Y-111656111D01*
X170772067Y-111583636D01*
X170874561Y-111481142D01*
X170947036Y-111355612D01*
X170984552Y-111215602D01*
X170984552Y-111070652D01*
X170947036Y-110930642D01*
X170945228Y-110927511D01*
X170874563Y-110805115D01*
X170874558Y-110805109D01*
X170772069Y-110702620D01*
X170772063Y-110702615D01*
X170646540Y-110630144D01*
X170646541Y-110630144D01*
X170624040Y-110624115D01*
X170506527Y-110592627D01*
X170361577Y-110592627D01*
X170244064Y-110624115D01*
X170221563Y-110630144D01*
X170096040Y-110702615D01*
X170096034Y-110702620D01*
X169993545Y-110805109D01*
X169993540Y-110805115D01*
X169921069Y-110930638D01*
X169921068Y-110930642D01*
X169902484Y-111000000D01*
X169894458Y-111029952D01*
X169858092Y-111089612D01*
X169795245Y-111120141D01*
X169725870Y-111111846D01*
X169671992Y-111067360D01*
X169654909Y-111029956D01*
X169626683Y-110924613D01*
X169596579Y-110872472D01*
X169554210Y-110799086D01*
X169554205Y-110799080D01*
X169451716Y-110696591D01*
X169451710Y-110696586D01*
X169326187Y-110624115D01*
X169326188Y-110624115D01*
X169314705Y-110621038D01*
X169186174Y-110586598D01*
X169041224Y-110586598D01*
X168912692Y-110621038D01*
X168901210Y-110624115D01*
X168775687Y-110696586D01*
X168775681Y-110696591D01*
X168673192Y-110799080D01*
X168673187Y-110799086D01*
X168600716Y-110924609D01*
X168596282Y-110941153D01*
X168563199Y-111064623D01*
X151595031Y-111064623D01*
X151600000Y-111046078D01*
X151600000Y-110953922D01*
X151576148Y-110864905D01*
X151530070Y-110785095D01*
X151494975Y-110750000D01*
X151500000Y-110750000D01*
X152600000Y-110750000D01*
X152600000Y-110102172D01*
X152599999Y-110102155D01*
X152593598Y-110042627D01*
X152593596Y-110042620D01*
X152543354Y-109907913D01*
X152543350Y-109907906D01*
X152457190Y-109792812D01*
X152457187Y-109792809D01*
X152342093Y-109706649D01*
X152342086Y-109706645D01*
X152207379Y-109656403D01*
X152207372Y-109656401D01*
X152147844Y-109650000D01*
X151500000Y-109650000D01*
X151500000Y-110750000D01*
X151494975Y-110750000D01*
X151464905Y-110719930D01*
X151385095Y-110673852D01*
X151296078Y-110650000D01*
X151203922Y-110650000D01*
X151114905Y-110673852D01*
X151035095Y-110719930D01*
X151000000Y-110755025D01*
X151000000Y-109650000D01*
X150352155Y-109650000D01*
X150292627Y-109656401D01*
X150292617Y-109656403D01*
X150167832Y-109702945D01*
X150137225Y-109705133D01*
X150106853Y-109709501D01*
X150102697Y-109707603D01*
X150098141Y-109707929D01*
X150071213Y-109693225D01*
X150043297Y-109680476D01*
X150040826Y-109676631D01*
X150036818Y-109674443D01*
X150022115Y-109647516D01*
X150005523Y-109621698D01*
X150004631Y-109615495D01*
X150003334Y-109613120D01*
X150000500Y-109586763D01*
X150000500Y-109427525D01*
X154199500Y-109427525D01*
X154199500Y-109572475D01*
X154237016Y-109712485D01*
X154237017Y-109712488D01*
X154309488Y-109838011D01*
X154309490Y-109838013D01*
X154309491Y-109838015D01*
X154411985Y-109940509D01*
X154411986Y-109940510D01*
X154411988Y-109940511D01*
X154537511Y-110012982D01*
X154537512Y-110012982D01*
X154537515Y-110012984D01*
X154677525Y-110050500D01*
X154677528Y-110050500D01*
X154822472Y-110050500D01*
X154822475Y-110050500D01*
X154962485Y-110012984D01*
X155088015Y-109940509D01*
X155100999Y-109927525D01*
X173599500Y-109927525D01*
X173599500Y-110072475D01*
X173627649Y-110177527D01*
X173637017Y-110212488D01*
X173709488Y-110338011D01*
X173709490Y-110338013D01*
X173709491Y-110338015D01*
X173811985Y-110440509D01*
X173811986Y-110440510D01*
X173811988Y-110440511D01*
X173937511Y-110512982D01*
X173937512Y-110512982D01*
X173937515Y-110512984D01*
X174077525Y-110550500D01*
X174077528Y-110550500D01*
X174222472Y-110550500D01*
X174222475Y-110550500D01*
X174362485Y-110512984D01*
X174488015Y-110440509D01*
X174590509Y-110338015D01*
X174662984Y-110212485D01*
X174668125Y-110193299D01*
X177185223Y-110193299D01*
X177185223Y-110338249D01*
X177218513Y-110462488D01*
X177222740Y-110478262D01*
X177295211Y-110603785D01*
X177295213Y-110603787D01*
X177295214Y-110603789D01*
X177397708Y-110706283D01*
X177397709Y-110706284D01*
X177397711Y-110706285D01*
X177523234Y-110778756D01*
X177523235Y-110778756D01*
X177523238Y-110778758D01*
X177663248Y-110816274D01*
X177663251Y-110816274D01*
X177808195Y-110816274D01*
X177808198Y-110816274D01*
X177948208Y-110778758D01*
X178073738Y-110706283D01*
X178176232Y-110603789D01*
X178248707Y-110478259D01*
X178286223Y-110338249D01*
X178286223Y-110193299D01*
X178281996Y-110177525D01*
X181199500Y-110177525D01*
X181199500Y-110322475D01*
X181231128Y-110440511D01*
X181237017Y-110462488D01*
X181309488Y-110588011D01*
X181309490Y-110588013D01*
X181309491Y-110588015D01*
X181411985Y-110690509D01*
X181411986Y-110690510D01*
X181411988Y-110690511D01*
X181537511Y-110762982D01*
X181537512Y-110762982D01*
X181537515Y-110762984D01*
X181677525Y-110800500D01*
X181677528Y-110800500D01*
X181822472Y-110800500D01*
X181822475Y-110800500D01*
X181962485Y-110762984D01*
X182023902Y-110727525D01*
X183499500Y-110727525D01*
X183499500Y-110872475D01*
X183521324Y-110953922D01*
X183537017Y-111012488D01*
X183609488Y-111138011D01*
X183609490Y-111138013D01*
X183609491Y-111138015D01*
X183711985Y-111240509D01*
X183711986Y-111240510D01*
X183711988Y-111240511D01*
X183837511Y-111312982D01*
X183837512Y-111312982D01*
X183837515Y-111312984D01*
X183977525Y-111350500D01*
X183977528Y-111350500D01*
X184122472Y-111350500D01*
X184122475Y-111350500D01*
X184262485Y-111312984D01*
X184388015Y-111240509D01*
X184490509Y-111138015D01*
X184562984Y-111012485D01*
X184600500Y-110872475D01*
X184600500Y-110727525D01*
X184562984Y-110587515D01*
X184541613Y-110550500D01*
X184490511Y-110461988D01*
X184490506Y-110461982D01*
X184388017Y-110359493D01*
X184388011Y-110359488D01*
X184262488Y-110287017D01*
X184262489Y-110287017D01*
X184251006Y-110283940D01*
X184122475Y-110249500D01*
X183977525Y-110249500D01*
X183848993Y-110283940D01*
X183837511Y-110287017D01*
X183711988Y-110359488D01*
X183711982Y-110359493D01*
X183609493Y-110461982D01*
X183609488Y-110461988D01*
X183537017Y-110587511D01*
X183537016Y-110587515D01*
X183499500Y-110727525D01*
X182023902Y-110727525D01*
X182088015Y-110690509D01*
X182190509Y-110588015D01*
X182262984Y-110462485D01*
X182300500Y-110322475D01*
X182300500Y-110177525D01*
X182262984Y-110037515D01*
X182206977Y-109940509D01*
X182190511Y-109911988D01*
X182190506Y-109911982D01*
X182088017Y-109809493D01*
X182088011Y-109809488D01*
X181962488Y-109737017D01*
X181962489Y-109737017D01*
X181951006Y-109733940D01*
X181822475Y-109699500D01*
X181677525Y-109699500D01*
X181548993Y-109733940D01*
X181537511Y-109737017D01*
X181411988Y-109809488D01*
X181411982Y-109809493D01*
X181309493Y-109911982D01*
X181309488Y-109911988D01*
X181237017Y-110037511D01*
X181237016Y-110037515D01*
X181199500Y-110177525D01*
X178281996Y-110177525D01*
X178248707Y-110053289D01*
X178242551Y-110042627D01*
X178176234Y-109927762D01*
X178176229Y-109927756D01*
X178073740Y-109825267D01*
X178073734Y-109825262D01*
X177948211Y-109752791D01*
X177948212Y-109752791D01*
X177936729Y-109749714D01*
X177808198Y-109715274D01*
X177663248Y-109715274D01*
X177534716Y-109749714D01*
X177523234Y-109752791D01*
X177397711Y-109825262D01*
X177397705Y-109825267D01*
X177295216Y-109927756D01*
X177295211Y-109927762D01*
X177222740Y-110053285D01*
X177222739Y-110053289D01*
X177185223Y-110193299D01*
X174668125Y-110193299D01*
X174700500Y-110072475D01*
X174700500Y-109927525D01*
X174662984Y-109787515D01*
X174642935Y-109752790D01*
X174590511Y-109661988D01*
X174590506Y-109661982D01*
X174488017Y-109559493D01*
X174488011Y-109559488D01*
X174362488Y-109487017D01*
X174362489Y-109487017D01*
X174351006Y-109483940D01*
X174222475Y-109449500D01*
X174077525Y-109449500D01*
X173948993Y-109483940D01*
X173937511Y-109487017D01*
X173811988Y-109559488D01*
X173811982Y-109559493D01*
X173709493Y-109661982D01*
X173709488Y-109661988D01*
X173637017Y-109787511D01*
X173637016Y-109787515D01*
X173599500Y-109927525D01*
X155100999Y-109927525D01*
X155190509Y-109838015D01*
X155262984Y-109712485D01*
X155300500Y-109572475D01*
X155300500Y-109427525D01*
X155262984Y-109287515D01*
X155204085Y-109185500D01*
X155190511Y-109161988D01*
X155190506Y-109161982D01*
X155088017Y-109059493D01*
X155088011Y-109059488D01*
X154962488Y-108987017D01*
X154962489Y-108987017D01*
X154951006Y-108983940D01*
X154822475Y-108949500D01*
X154677525Y-108949500D01*
X154548993Y-108983940D01*
X154537511Y-108987017D01*
X154411988Y-109059488D01*
X154411982Y-109059493D01*
X154309493Y-109161982D01*
X154309488Y-109161988D01*
X154237017Y-109287511D01*
X154237016Y-109287515D01*
X154199500Y-109427525D01*
X150000500Y-109427525D01*
X150000500Y-108437525D01*
X162319500Y-108437525D01*
X162319500Y-108582475D01*
X162347177Y-108685764D01*
X162357017Y-108722488D01*
X162429488Y-108848011D01*
X162429490Y-108848013D01*
X162429491Y-108848015D01*
X162531985Y-108950509D01*
X162531986Y-108950510D01*
X162531988Y-108950511D01*
X162657511Y-109022982D01*
X162657512Y-109022982D01*
X162657515Y-109022984D01*
X162797525Y-109060500D01*
X162797528Y-109060500D01*
X162942472Y-109060500D01*
X162942475Y-109060500D01*
X163082485Y-109022984D01*
X163208015Y-108950509D01*
X163310509Y-108848015D01*
X163382984Y-108722485D01*
X163420500Y-108582475D01*
X163420500Y-108437525D01*
X163382984Y-108297515D01*
X163355318Y-108249597D01*
X163310511Y-108171988D01*
X163310506Y-108171982D01*
X163208017Y-108069493D01*
X163208011Y-108069488D01*
X163082488Y-107997017D01*
X163082489Y-107997017D01*
X163071006Y-107993940D01*
X162942475Y-107959500D01*
X162797525Y-107959500D01*
X162668993Y-107993940D01*
X162657511Y-107997017D01*
X162531988Y-108069488D01*
X162531982Y-108069493D01*
X162429493Y-108171982D01*
X162429488Y-108171988D01*
X162357017Y-108297511D01*
X162357016Y-108297515D01*
X162319500Y-108437525D01*
X150000500Y-108437525D01*
X150000500Y-107427525D01*
X176599500Y-107427525D01*
X176599500Y-107572475D01*
X176637016Y-107712485D01*
X176637017Y-107712488D01*
X176709488Y-107838011D01*
X176709490Y-107838013D01*
X176709491Y-107838015D01*
X176811985Y-107940509D01*
X176811986Y-107940510D01*
X176811988Y-107940511D01*
X176937511Y-108012982D01*
X176937512Y-108012982D01*
X176937515Y-108012984D01*
X177077525Y-108050500D01*
X177077528Y-108050500D01*
X177222472Y-108050500D01*
X177222475Y-108050500D01*
X177362485Y-108012984D01*
X177488015Y-107940509D01*
X177590509Y-107838015D01*
X177662984Y-107712485D01*
X177694262Y-107595757D01*
X185708593Y-107595757D01*
X185708593Y-107740707D01*
X185746109Y-107880717D01*
X185746110Y-107880720D01*
X185818581Y-108006243D01*
X185818583Y-108006245D01*
X185818584Y-108006247D01*
X185921078Y-108108741D01*
X185921079Y-108108742D01*
X185921081Y-108108743D01*
X186046604Y-108181214D01*
X186046605Y-108181214D01*
X186046608Y-108181216D01*
X186186618Y-108218732D01*
X186186621Y-108218732D01*
X186331565Y-108218732D01*
X186331568Y-108218732D01*
X186471578Y-108181216D01*
X186597108Y-108108741D01*
X186699602Y-108006247D01*
X186772077Y-107880717D01*
X186809593Y-107740707D01*
X186809593Y-107595757D01*
X186772077Y-107455747D01*
X186699602Y-107330217D01*
X186597108Y-107227723D01*
X186597106Y-107227722D01*
X186597104Y-107227720D01*
X186471581Y-107155249D01*
X186471582Y-107155249D01*
X186460099Y-107152172D01*
X186331568Y-107117732D01*
X186186618Y-107117732D01*
X186058086Y-107152172D01*
X186046604Y-107155249D01*
X185921081Y-107227720D01*
X185921075Y-107227725D01*
X185818586Y-107330214D01*
X185818581Y-107330220D01*
X185746110Y-107455743D01*
X185741676Y-107472287D01*
X185708593Y-107595757D01*
X177694262Y-107595757D01*
X177700500Y-107572475D01*
X177700500Y-107427525D01*
X177662984Y-107287515D01*
X177660367Y-107282983D01*
X177590511Y-107161988D01*
X177590506Y-107161982D01*
X177488017Y-107059493D01*
X177488011Y-107059488D01*
X177362488Y-106987017D01*
X177362489Y-106987017D01*
X177345575Y-106982485D01*
X177222475Y-106949500D01*
X177077525Y-106949500D01*
X176954425Y-106982485D01*
X176937511Y-106987017D01*
X176811988Y-107059488D01*
X176811982Y-107059493D01*
X176709493Y-107161982D01*
X176709488Y-107161988D01*
X176637017Y-107287511D01*
X176637016Y-107287515D01*
X176599500Y-107427525D01*
X150000500Y-107427525D01*
X150000500Y-105747525D01*
X162319500Y-105747525D01*
X162319500Y-105892475D01*
X162357016Y-106032485D01*
X162357017Y-106032488D01*
X162429488Y-106158011D01*
X162429490Y-106158013D01*
X162429491Y-106158015D01*
X162531985Y-106260509D01*
X162531986Y-106260510D01*
X162531988Y-106260511D01*
X162657511Y-106332982D01*
X162657512Y-106332982D01*
X162657515Y-106332984D01*
X162797525Y-106370500D01*
X162797528Y-106370500D01*
X162942472Y-106370500D01*
X162942475Y-106370500D01*
X163082485Y-106332984D01*
X163208015Y-106260509D01*
X163310509Y-106158015D01*
X163328112Y-106127525D01*
X170299500Y-106127525D01*
X170299500Y-106272475D01*
X170315714Y-106332984D01*
X170337017Y-106412488D01*
X170409488Y-106538011D01*
X170409490Y-106538013D01*
X170409491Y-106538015D01*
X170511985Y-106640509D01*
X170511986Y-106640510D01*
X170511988Y-106640511D01*
X170637511Y-106712982D01*
X170637512Y-106712982D01*
X170637515Y-106712984D01*
X170777525Y-106750500D01*
X170777528Y-106750500D01*
X170922472Y-106750500D01*
X170922475Y-106750500D01*
X171062485Y-106712984D01*
X171089261Y-106697525D01*
X189789500Y-106697525D01*
X189789500Y-106842475D01*
X189805033Y-106900444D01*
X189827017Y-106982488D01*
X189899488Y-107108011D01*
X189899490Y-107108013D01*
X189899491Y-107108015D01*
X190001985Y-107210509D01*
X190001986Y-107210510D01*
X190001988Y-107210511D01*
X190127511Y-107282982D01*
X190127512Y-107282982D01*
X190127515Y-107282984D01*
X190267525Y-107320500D01*
X190267528Y-107320500D01*
X190412472Y-107320500D01*
X190412475Y-107320500D01*
X190552485Y-107282984D01*
X190678015Y-107210509D01*
X190780509Y-107108015D01*
X190808526Y-107059488D01*
X190847491Y-106992000D01*
X190898058Y-106943784D01*
X190954878Y-106930000D01*
X191765512Y-106930000D01*
X191748295Y-106939940D01*
X191692440Y-106995795D01*
X191652944Y-107064204D01*
X191632500Y-107140504D01*
X191632500Y-107219496D01*
X191652944Y-107295796D01*
X191692440Y-107364205D01*
X191748295Y-107420060D01*
X191765512Y-107430000D01*
X190962638Y-107430000D01*
X190970930Y-107471690D01*
X190970930Y-107471692D01*
X191046307Y-107653671D01*
X191046314Y-107653684D01*
X191155748Y-107817462D01*
X191155751Y-107817466D01*
X191295033Y-107956748D01*
X191295037Y-107956751D01*
X191458815Y-108066185D01*
X191458828Y-108066192D01*
X191640806Y-108141569D01*
X191640818Y-108141572D01*
X191834004Y-108179999D01*
X191834008Y-108180000D01*
X192232500Y-108180000D01*
X192232500Y-107480000D01*
X192732500Y-107480000D01*
X192732500Y-108018215D01*
X192712815Y-108085254D01*
X192670502Y-108125601D01*
X192629138Y-108149483D01*
X192629132Y-108149487D01*
X192521987Y-108256632D01*
X192521985Y-108256635D01*
X192446219Y-108387863D01*
X192407000Y-108534234D01*
X192407000Y-108685765D01*
X192446219Y-108832136D01*
X192484102Y-108897750D01*
X192521985Y-108963365D01*
X192629135Y-109070515D01*
X192760365Y-109146281D01*
X192906734Y-109185500D01*
X192906736Y-109185500D01*
X193058264Y-109185500D01*
X193058266Y-109185500D01*
X193204635Y-109146281D01*
X193335865Y-109070515D01*
X193443015Y-108963365D01*
X193518781Y-108832135D01*
X193558000Y-108685766D01*
X193558000Y-108534234D01*
X193518781Y-108387865D01*
X193443015Y-108256635D01*
X193443013Y-108256633D01*
X193438951Y-108249597D01*
X193441154Y-108248325D01*
X193420541Y-108195022D01*
X193434573Y-108126576D01*
X193483382Y-108076582D01*
X193496663Y-108070129D01*
X193506182Y-108066186D01*
X193506184Y-108066185D01*
X193669962Y-107956751D01*
X193669966Y-107956748D01*
X193809248Y-107817466D01*
X193809251Y-107817462D01*
X193918685Y-107653684D01*
X193918692Y-107653671D01*
X193994069Y-107471692D01*
X193994069Y-107471690D01*
X194002362Y-107430000D01*
X193199488Y-107430000D01*
X193216705Y-107420060D01*
X193272560Y-107364205D01*
X193312056Y-107295796D01*
X193332500Y-107219496D01*
X193332500Y-107140504D01*
X193312056Y-107064204D01*
X193272560Y-106995795D01*
X193216705Y-106939940D01*
X193199488Y-106930000D01*
X194002362Y-106930000D01*
X195292638Y-106930000D01*
X196095512Y-106930000D01*
X196078295Y-106939940D01*
X196022440Y-106995795D01*
X195982944Y-107064204D01*
X195962500Y-107140504D01*
X195962500Y-107219496D01*
X195982944Y-107295796D01*
X196022440Y-107364205D01*
X196078295Y-107420060D01*
X196095512Y-107430000D01*
X195292638Y-107430000D01*
X195300930Y-107471690D01*
X195300930Y-107471692D01*
X195376307Y-107653671D01*
X195376314Y-107653684D01*
X195485748Y-107817462D01*
X195485751Y-107817466D01*
X195625033Y-107956748D01*
X195625037Y-107956751D01*
X195788815Y-108066185D01*
X195788828Y-108066192D01*
X195970806Y-108141569D01*
X195970818Y-108141572D01*
X196164004Y-108179999D01*
X196164008Y-108180000D01*
X196412500Y-108180000D01*
X196412500Y-107480000D01*
X196912500Y-107480000D01*
X196912500Y-108180000D01*
X197160992Y-108180000D01*
X197160995Y-108179999D01*
X197354181Y-108141572D01*
X197354193Y-108141569D01*
X197536171Y-108066192D01*
X197536184Y-108066185D01*
X197699962Y-107956751D01*
X197699966Y-107956748D01*
X197839248Y-107817466D01*
X197839251Y-107817462D01*
X197948685Y-107653684D01*
X197948692Y-107653671D01*
X198024069Y-107471692D01*
X198024069Y-107471690D01*
X198032362Y-107430000D01*
X197229488Y-107430000D01*
X197246705Y-107420060D01*
X197302560Y-107364205D01*
X197342056Y-107295796D01*
X197362500Y-107219496D01*
X197362500Y-107140504D01*
X197342056Y-107064204D01*
X197302560Y-106995795D01*
X197246705Y-106939940D01*
X197229488Y-106930000D01*
X198032362Y-106930000D01*
X198024069Y-106888309D01*
X198024069Y-106888307D01*
X197948692Y-106706328D01*
X197948685Y-106706315D01*
X197839251Y-106542537D01*
X197839248Y-106542533D01*
X197699966Y-106403251D01*
X197699962Y-106403248D01*
X197536184Y-106293814D01*
X197536171Y-106293807D01*
X197354193Y-106218430D01*
X197354181Y-106218427D01*
X197160995Y-106180000D01*
X196912500Y-106180000D01*
X196912500Y-106880000D01*
X196412500Y-106880000D01*
X196412500Y-106180000D01*
X196164004Y-106180000D01*
X195970818Y-106218427D01*
X195970806Y-106218430D01*
X195788828Y-106293807D01*
X195788815Y-106293814D01*
X195625037Y-106403248D01*
X195625033Y-106403251D01*
X195485751Y-106542533D01*
X195485748Y-106542537D01*
X195376314Y-106706315D01*
X195376307Y-106706328D01*
X195300930Y-106888307D01*
X195300930Y-106888309D01*
X195292638Y-106930000D01*
X194002362Y-106930000D01*
X193994069Y-106888309D01*
X193994069Y-106888307D01*
X193918692Y-106706328D01*
X193918685Y-106706315D01*
X193809251Y-106542537D01*
X193809248Y-106542533D01*
X193669966Y-106403251D01*
X193669962Y-106403248D01*
X193506184Y-106293814D01*
X193506171Y-106293807D01*
X193324193Y-106218430D01*
X193324181Y-106218427D01*
X193130995Y-106180000D01*
X192732500Y-106180000D01*
X192732500Y-106880000D01*
X192232500Y-106880000D01*
X192232500Y-106180000D01*
X191834004Y-106180000D01*
X191640818Y-106218427D01*
X191640806Y-106218430D01*
X191458828Y-106293807D01*
X191458815Y-106293814D01*
X191295037Y-106403248D01*
X191295033Y-106403251D01*
X191155751Y-106542533D01*
X191088824Y-106642696D01*
X191035211Y-106687500D01*
X190965886Y-106696207D01*
X190902859Y-106666052D01*
X190866140Y-106606609D01*
X190866026Y-106606188D01*
X190852984Y-106557515D01*
X190844336Y-106542537D01*
X190780511Y-106431988D01*
X190780506Y-106431982D01*
X190678017Y-106329493D01*
X190678011Y-106329488D01*
X190552488Y-106257017D01*
X190552489Y-106257017D01*
X190541006Y-106253940D01*
X190412475Y-106219500D01*
X190267525Y-106219500D01*
X190138993Y-106253940D01*
X190127511Y-106257017D01*
X190001988Y-106329488D01*
X190001982Y-106329493D01*
X189899493Y-106431982D01*
X189899488Y-106431988D01*
X189827017Y-106557511D01*
X189827016Y-106557515D01*
X189789500Y-106697525D01*
X171089261Y-106697525D01*
X171188015Y-106640509D01*
X171290509Y-106538015D01*
X171362984Y-106412485D01*
X171400500Y-106272475D01*
X171400500Y-106127525D01*
X171362984Y-105987515D01*
X171308112Y-105892475D01*
X171290511Y-105861988D01*
X171290506Y-105861982D01*
X171188017Y-105759493D01*
X171188011Y-105759488D01*
X171062488Y-105687017D01*
X171062489Y-105687017D01*
X171051006Y-105683940D01*
X170922475Y-105649500D01*
X170777525Y-105649500D01*
X170648993Y-105683940D01*
X170637511Y-105687017D01*
X170511988Y-105759488D01*
X170511982Y-105759493D01*
X170409493Y-105861982D01*
X170409488Y-105861988D01*
X170337017Y-105987511D01*
X170337016Y-105987515D01*
X170299500Y-106127525D01*
X163328112Y-106127525D01*
X163382984Y-106032485D01*
X163420500Y-105892475D01*
X163420500Y-105747525D01*
X163382984Y-105607515D01*
X163380228Y-105602742D01*
X163310511Y-105481988D01*
X163310506Y-105481982D01*
X163208017Y-105379493D01*
X163208011Y-105379488D01*
X163082488Y-105307017D01*
X163082489Y-105307017D01*
X163064672Y-105302243D01*
X162942475Y-105269500D01*
X162797525Y-105269500D01*
X162675328Y-105302243D01*
X162657511Y-105307017D01*
X162531988Y-105379488D01*
X162531982Y-105379493D01*
X162429493Y-105481982D01*
X162429488Y-105481988D01*
X162357017Y-105607511D01*
X162357016Y-105607515D01*
X162319500Y-105747525D01*
X150000500Y-105747525D01*
X150000500Y-105023971D01*
X180895946Y-105023971D01*
X180895946Y-105168921D01*
X180927858Y-105288015D01*
X180933463Y-105308934D01*
X181005934Y-105434457D01*
X181005936Y-105434459D01*
X181005937Y-105434461D01*
X181108431Y-105536955D01*
X181108432Y-105536956D01*
X181108434Y-105536957D01*
X181233957Y-105609428D01*
X181233958Y-105609428D01*
X181233961Y-105609430D01*
X181373971Y-105646946D01*
X181373974Y-105646946D01*
X181518918Y-105646946D01*
X181518921Y-105646946D01*
X181658931Y-105609430D01*
X181784461Y-105536955D01*
X181886955Y-105434461D01*
X181904609Y-105403882D01*
X181955174Y-105355667D01*
X182023781Y-105342443D01*
X182088646Y-105368410D01*
X182099677Y-105378201D01*
X182111985Y-105390509D01*
X182111986Y-105390510D01*
X182111988Y-105390511D01*
X182237511Y-105462982D01*
X182237512Y-105462982D01*
X182237515Y-105462984D01*
X182377525Y-105500500D01*
X182377528Y-105500500D01*
X182522472Y-105500500D01*
X182522475Y-105500500D01*
X182662485Y-105462984D01*
X182788015Y-105390509D01*
X182890509Y-105288015D01*
X182962984Y-105162485D01*
X183000500Y-105022475D01*
X183000500Y-105017283D01*
X187869670Y-105017283D01*
X187869670Y-105162233D01*
X187903373Y-105288011D01*
X187907187Y-105302246D01*
X187979658Y-105427769D01*
X187979660Y-105427771D01*
X187979661Y-105427773D01*
X188082155Y-105530267D01*
X188082156Y-105530268D01*
X188082158Y-105530269D01*
X188207681Y-105602740D01*
X188207682Y-105602740D01*
X188207685Y-105602742D01*
X188347695Y-105640258D01*
X188347698Y-105640258D01*
X188492642Y-105640258D01*
X188492645Y-105640258D01*
X188632655Y-105602742D01*
X188758185Y-105530267D01*
X188860679Y-105427773D01*
X188933154Y-105302243D01*
X188970670Y-105162233D01*
X188970670Y-105017283D01*
X188933154Y-104877273D01*
X188894904Y-104811023D01*
X188860681Y-104751746D01*
X188860676Y-104751740D01*
X188758187Y-104649251D01*
X188758181Y-104649246D01*
X188632658Y-104576775D01*
X188632659Y-104576775D01*
X188609274Y-104570509D01*
X188492645Y-104539258D01*
X188347695Y-104539258D01*
X188231066Y-104570509D01*
X188207681Y-104576775D01*
X188082158Y-104649246D01*
X188082152Y-104649251D01*
X187979663Y-104751740D01*
X187979658Y-104751746D01*
X187907187Y-104877269D01*
X187907186Y-104877273D01*
X187869670Y-105017283D01*
X183000500Y-105017283D01*
X183000500Y-104877525D01*
X182962984Y-104737515D01*
X182947395Y-104710515D01*
X182890511Y-104611988D01*
X182890506Y-104611982D01*
X182788017Y-104509493D01*
X182788011Y-104509488D01*
X182662488Y-104437017D01*
X182662489Y-104437017D01*
X182651006Y-104433940D01*
X182522475Y-104399500D01*
X182377525Y-104399500D01*
X182248993Y-104433940D01*
X182237511Y-104437017D01*
X182111988Y-104509488D01*
X182111982Y-104509493D01*
X182009493Y-104611982D01*
X182009489Y-104611988D01*
X181991835Y-104642565D01*
X181941267Y-104690780D01*
X181872660Y-104704001D01*
X181807796Y-104678032D01*
X181796768Y-104668244D01*
X181784463Y-104655939D01*
X181784457Y-104655934D01*
X181658934Y-104583463D01*
X181658935Y-104583463D01*
X181633971Y-104576774D01*
X181518921Y-104545946D01*
X181373971Y-104545946D01*
X181258921Y-104576774D01*
X181233957Y-104583463D01*
X181108434Y-104655934D01*
X181108428Y-104655939D01*
X181005939Y-104758428D01*
X181005934Y-104758434D01*
X180933463Y-104883957D01*
X180933462Y-104883961D01*
X180895946Y-105023971D01*
X150000500Y-105023971D01*
X150000500Y-104057525D01*
X162299500Y-104057525D01*
X162299500Y-104202475D01*
X162332536Y-104325764D01*
X162337017Y-104342488D01*
X162409488Y-104468011D01*
X162409490Y-104468013D01*
X162409491Y-104468015D01*
X162511985Y-104570509D01*
X162511986Y-104570510D01*
X162511988Y-104570511D01*
X162637511Y-104642982D01*
X162637512Y-104642982D01*
X162637515Y-104642984D01*
X162777525Y-104680500D01*
X162777528Y-104680500D01*
X162922472Y-104680500D01*
X162922475Y-104680500D01*
X163062485Y-104642984D01*
X163188015Y-104570509D01*
X163290509Y-104468015D01*
X163362984Y-104342485D01*
X163400500Y-104202475D01*
X163400500Y-104057525D01*
X163362984Y-103917515D01*
X163290509Y-103791985D01*
X163188015Y-103689491D01*
X163188013Y-103689490D01*
X163188011Y-103689488D01*
X163062488Y-103617017D01*
X163062489Y-103617017D01*
X163051006Y-103613940D01*
X162922475Y-103579500D01*
X162777525Y-103579500D01*
X162648993Y-103613940D01*
X162637511Y-103617017D01*
X162511988Y-103689488D01*
X162511982Y-103689493D01*
X162409493Y-103791982D01*
X162409488Y-103791988D01*
X162337017Y-103917511D01*
X162337016Y-103917515D01*
X162299500Y-104057525D01*
X150000500Y-104057525D01*
X150000500Y-102547525D01*
X162299500Y-102547525D01*
X162299500Y-102692475D01*
X162323590Y-102782379D01*
X162337017Y-102832488D01*
X162409488Y-102958011D01*
X162409490Y-102958013D01*
X162409491Y-102958015D01*
X162511985Y-103060509D01*
X162511986Y-103060510D01*
X162511988Y-103060511D01*
X162637511Y-103132982D01*
X162637512Y-103132982D01*
X162637515Y-103132984D01*
X162777525Y-103170500D01*
X162777528Y-103170500D01*
X162922472Y-103170500D01*
X162922475Y-103170500D01*
X163062485Y-103132984D01*
X163188015Y-103060509D01*
X163290509Y-102958015D01*
X163362984Y-102832485D01*
X163400500Y-102692475D01*
X163400500Y-102547525D01*
X163395141Y-102527525D01*
X172599500Y-102527525D01*
X172599500Y-102672475D01*
X172628947Y-102782372D01*
X172637017Y-102812488D01*
X172709488Y-102938011D01*
X172709490Y-102938013D01*
X172709491Y-102938015D01*
X172811985Y-103040509D01*
X172811986Y-103040510D01*
X172811988Y-103040511D01*
X172937511Y-103112982D01*
X172937512Y-103112982D01*
X172937515Y-103112984D01*
X173077525Y-103150500D01*
X173077528Y-103150500D01*
X173222472Y-103150500D01*
X173222475Y-103150500D01*
X173362485Y-103112984D01*
X173488015Y-103040509D01*
X173590509Y-102938015D01*
X173662984Y-102812485D01*
X173700500Y-102672475D01*
X173700500Y-102527525D01*
X173693125Y-102500000D01*
X192575000Y-102500000D01*
X192575000Y-102722844D01*
X192581401Y-102782372D01*
X192581403Y-102782379D01*
X192631645Y-102917086D01*
X192631649Y-102917093D01*
X192717809Y-103032187D01*
X192717812Y-103032190D01*
X192832906Y-103118350D01*
X192832913Y-103118354D01*
X192843833Y-103122427D01*
X192899767Y-103164298D01*
X192924184Y-103229762D01*
X192924500Y-103238609D01*
X192924500Y-103325765D01*
X192963719Y-103472136D01*
X193001602Y-103537750D01*
X193039485Y-103603365D01*
X193039487Y-103603367D01*
X193098439Y-103662319D01*
X193131924Y-103723642D01*
X193126940Y-103793334D01*
X193098439Y-103837681D01*
X193039487Y-103896632D01*
X193039485Y-103896635D01*
X192963719Y-104027863D01*
X192924500Y-104174234D01*
X192924500Y-104325765D01*
X192963719Y-104472136D01*
X193001602Y-104537750D01*
X193039485Y-104603365D01*
X193146635Y-104710515D01*
X193277865Y-104786281D01*
X193424234Y-104825500D01*
X193424236Y-104825500D01*
X193575764Y-104825500D01*
X193575766Y-104825500D01*
X193722135Y-104786281D01*
X193853365Y-104710515D01*
X193960515Y-104603365D01*
X194036281Y-104472135D01*
X194075500Y-104325766D01*
X194075500Y-104174234D01*
X194036281Y-104027865D01*
X193960515Y-103896635D01*
X193901561Y-103837681D01*
X193868076Y-103776358D01*
X193873060Y-103706666D01*
X193901561Y-103662319D01*
X193960515Y-103603365D01*
X194036281Y-103472135D01*
X194075500Y-103325766D01*
X194075500Y-103238608D01*
X194095185Y-103171569D01*
X194147989Y-103125814D01*
X194156173Y-103122424D01*
X194167087Y-103118353D01*
X194167093Y-103118350D01*
X194282187Y-103032190D01*
X194282190Y-103032187D01*
X194368350Y-102917093D01*
X194368354Y-102917086D01*
X194418596Y-102782379D01*
X194418598Y-102782372D01*
X194424999Y-102722844D01*
X194425000Y-102722827D01*
X194425000Y-102500000D01*
X193549728Y-102500000D01*
X193641614Y-102461940D01*
X193711940Y-102391614D01*
X193750000Y-102299728D01*
X193750000Y-102200272D01*
X193711940Y-102108386D01*
X193641614Y-102038060D01*
X193549728Y-102000000D01*
X193750000Y-102000000D01*
X194425000Y-102000000D01*
X194425000Y-101777172D01*
X194424999Y-101777155D01*
X194418598Y-101717627D01*
X194418596Y-101717620D01*
X194368354Y-101582913D01*
X194368350Y-101582906D01*
X194282190Y-101467812D01*
X194282187Y-101467809D01*
X194167093Y-101381649D01*
X194167086Y-101381645D01*
X194032379Y-101331403D01*
X194032372Y-101331401D01*
X193972844Y-101325000D01*
X193750000Y-101325000D01*
X193750000Y-102000000D01*
X193549728Y-102000000D01*
X193450272Y-102000000D01*
X193358386Y-102038060D01*
X193288060Y-102108386D01*
X193250000Y-102200272D01*
X193250000Y-102299728D01*
X193288060Y-102391614D01*
X193358386Y-102461940D01*
X193450272Y-102500000D01*
X192575000Y-102500000D01*
X173693125Y-102500000D01*
X173662984Y-102387515D01*
X173607563Y-102291524D01*
X173604516Y-102284242D01*
X173601493Y-102257059D01*
X173595043Y-102230472D01*
X173597687Y-102222832D01*
X173596794Y-102214800D01*
X173608947Y-102190295D01*
X173617895Y-102164445D01*
X173624248Y-102159448D01*
X173627840Y-102152207D01*
X173651314Y-102138163D01*
X173672816Y-102121254D01*
X173680862Y-102120485D01*
X173687799Y-102116336D01*
X173715140Y-102117212D01*
X173742369Y-102114612D01*
X173750982Y-102116592D01*
X173877525Y-102150500D01*
X173877528Y-102150500D01*
X174022472Y-102150500D01*
X174022475Y-102150500D01*
X174162485Y-102112984D01*
X174288015Y-102040509D01*
X174390509Y-101938015D01*
X174462984Y-101812485D01*
X174472451Y-101777155D01*
X192575000Y-101777155D01*
X192575000Y-102000000D01*
X193250000Y-102000000D01*
X193250000Y-101325000D01*
X193027155Y-101325000D01*
X192967627Y-101331401D01*
X192967620Y-101331403D01*
X192832913Y-101381645D01*
X192832906Y-101381649D01*
X192717812Y-101467809D01*
X192717809Y-101467812D01*
X192631649Y-101582906D01*
X192631645Y-101582913D01*
X192581403Y-101717620D01*
X192581401Y-101717627D01*
X192575000Y-101777155D01*
X174472451Y-101777155D01*
X174500500Y-101672475D01*
X174500500Y-101527525D01*
X174462984Y-101387515D01*
X174459597Y-101381649D01*
X174390511Y-101261988D01*
X174390506Y-101261982D01*
X174288017Y-101159493D01*
X174288011Y-101159488D01*
X174162488Y-101087017D01*
X174162489Y-101087017D01*
X174151006Y-101083940D01*
X174022475Y-101049500D01*
X173877525Y-101049500D01*
X173748993Y-101083940D01*
X173737511Y-101087017D01*
X173611988Y-101159488D01*
X173611982Y-101159493D01*
X173509493Y-101261982D01*
X173509488Y-101261988D01*
X173437017Y-101387511D01*
X173437016Y-101387515D01*
X173399500Y-101527525D01*
X173399500Y-101672475D01*
X173437016Y-101812485D01*
X173488483Y-101901629D01*
X173504956Y-101969527D01*
X173482104Y-102035554D01*
X173427183Y-102078745D01*
X173357630Y-102085387D01*
X173349003Y-102083403D01*
X173268589Y-102061856D01*
X173222475Y-102049500D01*
X173077525Y-102049500D01*
X172950999Y-102083403D01*
X172937511Y-102087017D01*
X172811988Y-102159488D01*
X172811982Y-102159493D01*
X172709493Y-102261982D01*
X172709488Y-102261988D01*
X172637017Y-102387511D01*
X172637016Y-102387515D01*
X172599500Y-102527525D01*
X163395141Y-102527525D01*
X163362984Y-102407515D01*
X163290509Y-102281985D01*
X163188015Y-102179491D01*
X163188013Y-102179490D01*
X163188011Y-102179488D01*
X163062488Y-102107017D01*
X163062489Y-102107017D01*
X163051006Y-102103940D01*
X162922475Y-102069500D01*
X162777525Y-102069500D01*
X162648993Y-102103940D01*
X162637511Y-102107017D01*
X162511988Y-102179488D01*
X162511982Y-102179493D01*
X162409493Y-102281982D01*
X162409488Y-102281988D01*
X162337017Y-102407511D01*
X162337016Y-102407515D01*
X162299500Y-102547525D01*
X150000500Y-102547525D01*
X150000500Y-100847525D01*
X153519500Y-100847525D01*
X153519500Y-100992475D01*
X153557016Y-101132485D01*
X153557017Y-101132488D01*
X153629488Y-101258011D01*
X153629490Y-101258013D01*
X153629491Y-101258015D01*
X153731985Y-101360509D01*
X153731986Y-101360510D01*
X153731988Y-101360511D01*
X153857511Y-101432982D01*
X153857512Y-101432982D01*
X153857515Y-101432984D01*
X153997525Y-101470500D01*
X153997528Y-101470500D01*
X154142472Y-101470500D01*
X154142475Y-101470500D01*
X154282485Y-101432984D01*
X154408015Y-101360509D01*
X154510509Y-101258015D01*
X154582984Y-101132485D01*
X154620500Y-100992475D01*
X154620500Y-100847525D01*
X154582984Y-100707515D01*
X154577210Y-100697515D01*
X154510511Y-100581988D01*
X154510506Y-100581982D01*
X154408017Y-100479493D01*
X154408011Y-100479488D01*
X154318009Y-100427525D01*
X158949500Y-100427525D01*
X158949500Y-100572475D01*
X158981402Y-100691533D01*
X158987017Y-100712488D01*
X159059488Y-100838011D01*
X159059490Y-100838013D01*
X159059491Y-100838015D01*
X159161985Y-100940509D01*
X159161986Y-100940510D01*
X159161988Y-100940511D01*
X159287511Y-101012982D01*
X159287512Y-101012982D01*
X159287515Y-101012984D01*
X159427525Y-101050500D01*
X159427528Y-101050500D01*
X159572472Y-101050500D01*
X159572475Y-101050500D01*
X159712485Y-101012984D01*
X159838015Y-100940509D01*
X159940509Y-100838015D01*
X159940792Y-100837525D01*
X162299500Y-100837525D01*
X162299500Y-100982475D01*
X162331532Y-101102017D01*
X162337017Y-101122488D01*
X162409488Y-101248011D01*
X162409490Y-101248013D01*
X162409491Y-101248015D01*
X162511985Y-101350509D01*
X162511986Y-101350510D01*
X162511988Y-101350511D01*
X162637511Y-101422982D01*
X162637512Y-101422982D01*
X162637515Y-101422984D01*
X162777525Y-101460500D01*
X162777528Y-101460500D01*
X162922472Y-101460500D01*
X162922475Y-101460500D01*
X163062485Y-101422984D01*
X163188015Y-101350509D01*
X163290509Y-101248015D01*
X163362984Y-101122485D01*
X163400500Y-100982475D01*
X163400500Y-100837525D01*
X163362984Y-100697515D01*
X163359530Y-100691533D01*
X163359529Y-100691531D01*
X168340338Y-100691531D01*
X168340338Y-100836481D01*
X168368212Y-100940506D01*
X168377855Y-100976494D01*
X168450326Y-101102017D01*
X168450328Y-101102019D01*
X168450329Y-101102021D01*
X168552823Y-101204515D01*
X168552824Y-101204516D01*
X168552826Y-101204517D01*
X168678349Y-101276988D01*
X168678350Y-101276988D01*
X168678353Y-101276990D01*
X168818363Y-101314506D01*
X168818366Y-101314506D01*
X168963310Y-101314506D01*
X168963313Y-101314506D01*
X169103323Y-101276990D01*
X169228853Y-101204515D01*
X169331347Y-101102021D01*
X169403822Y-100976491D01*
X169441338Y-100836481D01*
X169441338Y-100691531D01*
X169403822Y-100551521D01*
X169372666Y-100497558D01*
X169331349Y-100425994D01*
X169331344Y-100425988D01*
X169228855Y-100323499D01*
X169228849Y-100323494D01*
X169103326Y-100251023D01*
X169103327Y-100251023D01*
X169091844Y-100247946D01*
X168963313Y-100213506D01*
X168818363Y-100213506D01*
X168689831Y-100247946D01*
X168678349Y-100251023D01*
X168552826Y-100323494D01*
X168552820Y-100323499D01*
X168450331Y-100425988D01*
X168450326Y-100425994D01*
X168377855Y-100551517D01*
X168377854Y-100551521D01*
X168340338Y-100691531D01*
X163359529Y-100691531D01*
X163290511Y-100571988D01*
X163290506Y-100571982D01*
X163188017Y-100469493D01*
X163188011Y-100469488D01*
X163062488Y-100397017D01*
X163062489Y-100397017D01*
X163051006Y-100393940D01*
X162922475Y-100359500D01*
X162777525Y-100359500D01*
X162648993Y-100393940D01*
X162637511Y-100397017D01*
X162511988Y-100469488D01*
X162511982Y-100469493D01*
X162409493Y-100571982D01*
X162409488Y-100571988D01*
X162337017Y-100697511D01*
X162337016Y-100697515D01*
X162299500Y-100837525D01*
X159940792Y-100837525D01*
X160012984Y-100712485D01*
X160050500Y-100572475D01*
X160050500Y-100427525D01*
X160012984Y-100287515D01*
X159991915Y-100251023D01*
X159940511Y-100161988D01*
X159940506Y-100161982D01*
X159838017Y-100059493D01*
X159838011Y-100059488D01*
X159712488Y-99987017D01*
X159712489Y-99987017D01*
X159701006Y-99983940D01*
X159572475Y-99949500D01*
X159427525Y-99949500D01*
X159298993Y-99983940D01*
X159287511Y-99987017D01*
X159161988Y-100059488D01*
X159161982Y-100059493D01*
X159059493Y-100161982D01*
X159059488Y-100161988D01*
X158987017Y-100287511D01*
X158987016Y-100287515D01*
X158949500Y-100427525D01*
X154318009Y-100427525D01*
X154282488Y-100407017D01*
X154282489Y-100407017D01*
X154271006Y-100403940D01*
X154142475Y-100369500D01*
X153997525Y-100369500D01*
X153868993Y-100403940D01*
X153857511Y-100407017D01*
X153731988Y-100479488D01*
X153731982Y-100479493D01*
X153629493Y-100581982D01*
X153629488Y-100581988D01*
X153557017Y-100707511D01*
X153557016Y-100707515D01*
X153519500Y-100847525D01*
X150000500Y-100847525D01*
X150000500Y-100218411D01*
X150020185Y-100151372D01*
X150072989Y-100105617D01*
X150142147Y-100095673D01*
X150205703Y-100124698D01*
X150234985Y-100162116D01*
X150266006Y-100222997D01*
X150372441Y-100369494D01*
X150372445Y-100369499D01*
X150500500Y-100497554D01*
X150500505Y-100497558D01*
X150603617Y-100572472D01*
X150647006Y-100603996D01*
X150752484Y-100657740D01*
X150808360Y-100686211D01*
X150808363Y-100686212D01*
X150873929Y-100707515D01*
X150980591Y-100742171D01*
X151063429Y-100755291D01*
X151159449Y-100770500D01*
X151159454Y-100770500D01*
X151340551Y-100770500D01*
X151427259Y-100756765D01*
X151519409Y-100742171D01*
X151568977Y-100726065D01*
X151583131Y-100721467D01*
X151583131Y-100721466D01*
X151691639Y-100686211D01*
X151852994Y-100603996D01*
X151999501Y-100497553D01*
X152127553Y-100369501D01*
X152233996Y-100222994D01*
X152316211Y-100061639D01*
X152372171Y-99889409D01*
X152386765Y-99797259D01*
X152400500Y-99710551D01*
X152400500Y-99529448D01*
X152384019Y-99425397D01*
X152372171Y-99350591D01*
X152316211Y-99178361D01*
X152316209Y-99178355D01*
X152258804Y-99065694D01*
X152258803Y-99065693D01*
X152251062Y-99050500D01*
X152234260Y-99017525D01*
X162319500Y-99017525D01*
X162319500Y-99162475D01*
X162357016Y-99302485D01*
X162357017Y-99302488D01*
X162429488Y-99428011D01*
X162429490Y-99428013D01*
X162429491Y-99428015D01*
X162531985Y-99530509D01*
X162531986Y-99530510D01*
X162531988Y-99530511D01*
X162657511Y-99602982D01*
X162657512Y-99602982D01*
X162657515Y-99602984D01*
X162797525Y-99640500D01*
X162797528Y-99640500D01*
X162942472Y-99640500D01*
X162942475Y-99640500D01*
X163082485Y-99602984D01*
X163208015Y-99530509D01*
X163310509Y-99428015D01*
X163382984Y-99302485D01*
X163420500Y-99162475D01*
X163420500Y-99017525D01*
X163382984Y-98877515D01*
X163378933Y-98870499D01*
X163310511Y-98751988D01*
X163310506Y-98751982D01*
X163208017Y-98649493D01*
X163208011Y-98649488D01*
X163082488Y-98577017D01*
X163082489Y-98577017D01*
X163065527Y-98572472D01*
X162942475Y-98539500D01*
X162797525Y-98539500D01*
X162674473Y-98572472D01*
X162657511Y-98577017D01*
X162531988Y-98649488D01*
X162531982Y-98649493D01*
X162429493Y-98751982D01*
X162429488Y-98751988D01*
X162357017Y-98877511D01*
X162357016Y-98877515D01*
X162319500Y-99017525D01*
X152234260Y-99017525D01*
X152233996Y-99017006D01*
X152233994Y-99017003D01*
X152233993Y-99017001D01*
X152127558Y-98870505D01*
X152127554Y-98870500D01*
X151999499Y-98742445D01*
X151999494Y-98742441D01*
X151852997Y-98636006D01*
X151852996Y-98636005D01*
X151852994Y-98636004D01*
X151801300Y-98609664D01*
X151691639Y-98553788D01*
X151691636Y-98553787D01*
X151519410Y-98497829D01*
X151481793Y-98491871D01*
X151359321Y-98472473D01*
X151296186Y-98442544D01*
X151259255Y-98383232D01*
X151259337Y-98377525D01*
X167549500Y-98377525D01*
X167549500Y-98522475D01*
X167583534Y-98649491D01*
X167587017Y-98662488D01*
X167659488Y-98788011D01*
X167659490Y-98788013D01*
X167659491Y-98788015D01*
X167761985Y-98890509D01*
X167761986Y-98890510D01*
X167761988Y-98890511D01*
X167887511Y-98962982D01*
X167887512Y-98962982D01*
X167887515Y-98962984D01*
X168027525Y-99000500D01*
X168027528Y-99000500D01*
X168172472Y-99000500D01*
X168172475Y-99000500D01*
X168312485Y-98962984D01*
X168438015Y-98890509D01*
X168540509Y-98788015D01*
X168612984Y-98662485D01*
X168650500Y-98522475D01*
X168650500Y-98522471D01*
X168651561Y-98514415D01*
X168653390Y-98514655D01*
X168670185Y-98457461D01*
X168704733Y-98427525D01*
X179949500Y-98427525D01*
X179949500Y-98572475D01*
X179987016Y-98712485D01*
X179987017Y-98712488D01*
X180059488Y-98838011D01*
X180059490Y-98838013D01*
X180059491Y-98838015D01*
X180161985Y-98940509D01*
X180161986Y-98940510D01*
X180161988Y-98940511D01*
X180287511Y-99012982D01*
X180287512Y-99012982D01*
X180287515Y-99012984D01*
X180427525Y-99050500D01*
X180427528Y-99050500D01*
X180572472Y-99050500D01*
X180572475Y-99050500D01*
X180712485Y-99012984D01*
X180838015Y-98940509D01*
X180940509Y-98838015D01*
X181012984Y-98712485D01*
X181050500Y-98572475D01*
X181050500Y-98427525D01*
X181012984Y-98287515D01*
X180995629Y-98257456D01*
X180940511Y-98161988D01*
X180940506Y-98161982D01*
X180838017Y-98059493D01*
X180838011Y-98059488D01*
X180712488Y-97987017D01*
X180712489Y-97987017D01*
X180701006Y-97983940D01*
X180572475Y-97949500D01*
X180427525Y-97949500D01*
X180298993Y-97983940D01*
X180287511Y-97987017D01*
X180161988Y-98059488D01*
X180161982Y-98059493D01*
X180059493Y-98161982D01*
X180059488Y-98161988D01*
X179987017Y-98287511D01*
X179986214Y-98290508D01*
X179949500Y-98427525D01*
X168704733Y-98427525D01*
X168722989Y-98411706D01*
X168774500Y-98400500D01*
X168922472Y-98400500D01*
X168922475Y-98400500D01*
X169062485Y-98362984D01*
X169188015Y-98290509D01*
X169290509Y-98188015D01*
X169362984Y-98062485D01*
X169400500Y-97922475D01*
X169400500Y-97777525D01*
X169362984Y-97637515D01*
X169299481Y-97527525D01*
X197399500Y-97527525D01*
X197399500Y-97672475D01*
X197429744Y-97785344D01*
X197437017Y-97812488D01*
X197509488Y-97938011D01*
X197509490Y-97938013D01*
X197509491Y-97938015D01*
X197611985Y-98040509D01*
X197611986Y-98040510D01*
X197611988Y-98040511D01*
X197737511Y-98112982D01*
X197737512Y-98112982D01*
X197737515Y-98112984D01*
X197877525Y-98150500D01*
X197877528Y-98150500D01*
X198022472Y-98150500D01*
X198022475Y-98150500D01*
X198162485Y-98112984D01*
X198288015Y-98040509D01*
X198390509Y-97938015D01*
X198462984Y-97812485D01*
X198500500Y-97672475D01*
X198500500Y-97527525D01*
X198462984Y-97387515D01*
X198440983Y-97349409D01*
X198390511Y-97261988D01*
X198390506Y-97261982D01*
X198288017Y-97159493D01*
X198288011Y-97159488D01*
X198162488Y-97087017D01*
X198162489Y-97087017D01*
X198151006Y-97083940D01*
X198022475Y-97049500D01*
X197877525Y-97049500D01*
X197748993Y-97083940D01*
X197737511Y-97087017D01*
X197611988Y-97159488D01*
X197611982Y-97159493D01*
X197509493Y-97261982D01*
X197509488Y-97261988D01*
X197437017Y-97387511D01*
X197437016Y-97387515D01*
X197399500Y-97527525D01*
X169299481Y-97527525D01*
X169290509Y-97511985D01*
X169188015Y-97409491D01*
X169188013Y-97409490D01*
X169188011Y-97409488D01*
X169062488Y-97337017D01*
X169062489Y-97337017D01*
X169051006Y-97333940D01*
X168922475Y-97299500D01*
X168777525Y-97299500D01*
X168648993Y-97333940D01*
X168637511Y-97337017D01*
X168511988Y-97409488D01*
X168511982Y-97409493D01*
X168409493Y-97511982D01*
X168409488Y-97511988D01*
X168337017Y-97637511D01*
X168299499Y-97777528D01*
X168298439Y-97785585D01*
X168296609Y-97785344D01*
X168279815Y-97842539D01*
X168227011Y-97888294D01*
X168175500Y-97899500D01*
X168172475Y-97899500D01*
X168027525Y-97899500D01*
X167898993Y-97933940D01*
X167887511Y-97937017D01*
X167761988Y-98009488D01*
X167761982Y-98009493D01*
X167659493Y-98111982D01*
X167659488Y-98111988D01*
X167587017Y-98237511D01*
X167587016Y-98237515D01*
X167549500Y-98377525D01*
X151259337Y-98377525D01*
X151260253Y-98313369D01*
X151298863Y-98255137D01*
X151359321Y-98227527D01*
X151429425Y-98216422D01*
X151519409Y-98202171D01*
X151691639Y-98146211D01*
X151852994Y-98063996D01*
X151999501Y-97957553D01*
X152127553Y-97829501D01*
X152233996Y-97682994D01*
X152316211Y-97521639D01*
X152372171Y-97349409D01*
X152386765Y-97257259D01*
X152400500Y-97170551D01*
X152400500Y-96989448D01*
X152384019Y-96885397D01*
X152372171Y-96810591D01*
X152316211Y-96638361D01*
X152316211Y-96638360D01*
X152265015Y-96537884D01*
X152233996Y-96477006D01*
X152220396Y-96458287D01*
X152127558Y-96330505D01*
X152127554Y-96330500D01*
X151999499Y-96202445D01*
X151999494Y-96202441D01*
X151852997Y-96096006D01*
X151852996Y-96096005D01*
X151852994Y-96096004D01*
X151801300Y-96069664D01*
X151691639Y-96013788D01*
X151691636Y-96013787D01*
X151519410Y-95957829D01*
X151359321Y-95932473D01*
X151296186Y-95902544D01*
X151259255Y-95843232D01*
X151260253Y-95773370D01*
X151298863Y-95715137D01*
X151359321Y-95687527D01*
X151429425Y-95676422D01*
X151519409Y-95662171D01*
X151691639Y-95606211D01*
X151852994Y-95523996D01*
X151999501Y-95417553D01*
X152127553Y-95289501D01*
X152172581Y-95227525D01*
X187099500Y-95227525D01*
X187099500Y-95372475D01*
X187137016Y-95512485D01*
X187137017Y-95512488D01*
X187209488Y-95638011D01*
X187209490Y-95638013D01*
X187209491Y-95638015D01*
X187311985Y-95740509D01*
X187311986Y-95740510D01*
X187311988Y-95740511D01*
X187437511Y-95812982D01*
X187437512Y-95812982D01*
X187437515Y-95812984D01*
X187577525Y-95850500D01*
X187577528Y-95850500D01*
X187722472Y-95850500D01*
X187722475Y-95850500D01*
X187862485Y-95812984D01*
X187988015Y-95740509D01*
X188090509Y-95638015D01*
X188162984Y-95512485D01*
X188200500Y-95372475D01*
X188200500Y-95227525D01*
X188162984Y-95087515D01*
X188126723Y-95024710D01*
X188090511Y-94961988D01*
X188090506Y-94961982D01*
X187988017Y-94859493D01*
X187988011Y-94859488D01*
X187862488Y-94787017D01*
X187862489Y-94787017D01*
X187851006Y-94783940D01*
X187722475Y-94749500D01*
X187577525Y-94749500D01*
X187448993Y-94783940D01*
X187437511Y-94787017D01*
X187311988Y-94859488D01*
X187311982Y-94859493D01*
X187209493Y-94961982D01*
X187209488Y-94961988D01*
X187137017Y-95087511D01*
X187137016Y-95087515D01*
X187099500Y-95227525D01*
X152172581Y-95227525D01*
X152231440Y-95146513D01*
X152232605Y-95144907D01*
X152233996Y-95142994D01*
X152316211Y-94981639D01*
X152372171Y-94809409D01*
X152386765Y-94717259D01*
X152400500Y-94630551D01*
X152400500Y-94449448D01*
X152384558Y-94348796D01*
X152382773Y-94337525D01*
X180829500Y-94337525D01*
X180829500Y-94482475D01*
X180867016Y-94622485D01*
X180867017Y-94622488D01*
X180939488Y-94748011D01*
X180939490Y-94748013D01*
X180939491Y-94748015D01*
X181041985Y-94850509D01*
X181041986Y-94850510D01*
X181041988Y-94850511D01*
X181167511Y-94922982D01*
X181167512Y-94922982D01*
X181167515Y-94922984D01*
X181307525Y-94960500D01*
X181307528Y-94960500D01*
X181452472Y-94960500D01*
X181452475Y-94960500D01*
X181592485Y-94922984D01*
X181718015Y-94850509D01*
X181820509Y-94748015D01*
X181892984Y-94622485D01*
X181930500Y-94482475D01*
X181930500Y-94337525D01*
X181892984Y-94197515D01*
X181850256Y-94123509D01*
X181820511Y-94071988D01*
X181820506Y-94071982D01*
X181718017Y-93969493D01*
X181718011Y-93969488D01*
X181592488Y-93897017D01*
X181592489Y-93897017D01*
X181581006Y-93893940D01*
X181452475Y-93859500D01*
X181307525Y-93859500D01*
X181178993Y-93893940D01*
X181167511Y-93897017D01*
X181041988Y-93969488D01*
X181041982Y-93969493D01*
X180939493Y-94071982D01*
X180939488Y-94071988D01*
X180867017Y-94197511D01*
X180867016Y-94197515D01*
X180829500Y-94337525D01*
X152382773Y-94337525D01*
X152372171Y-94270589D01*
X152316212Y-94098363D01*
X152316211Y-94098360D01*
X152265015Y-93997884D01*
X152233996Y-93937006D01*
X152220396Y-93918287D01*
X152127558Y-93790505D01*
X152127554Y-93790500D01*
X151999499Y-93662445D01*
X151999494Y-93662441D01*
X151955177Y-93630243D01*
X151878202Y-93574318D01*
X151850236Y-93538052D01*
X174324459Y-93538052D01*
X174324459Y-93683002D01*
X174353265Y-93790505D01*
X174361976Y-93823015D01*
X174434447Y-93948538D01*
X174434449Y-93948540D01*
X174434450Y-93948542D01*
X174536944Y-94051036D01*
X174536945Y-94051037D01*
X174536947Y-94051038D01*
X174662470Y-94123509D01*
X174662471Y-94123509D01*
X174662474Y-94123511D01*
X174802484Y-94161027D01*
X174802487Y-94161027D01*
X174947431Y-94161027D01*
X174947434Y-94161027D01*
X175087444Y-94123511D01*
X175212974Y-94051036D01*
X175315468Y-93948542D01*
X175387943Y-93823012D01*
X175425459Y-93683002D01*
X175425459Y-93538052D01*
X175387943Y-93398042D01*
X175383011Y-93389500D01*
X175315470Y-93272515D01*
X175315465Y-93272509D01*
X175212976Y-93170020D01*
X175212970Y-93170015D01*
X175087447Y-93097544D01*
X175087448Y-93097544D01*
X175075965Y-93094467D01*
X174947434Y-93060027D01*
X174802484Y-93060027D01*
X174673952Y-93094467D01*
X174662470Y-93097544D01*
X174536947Y-93170015D01*
X174536941Y-93170020D01*
X174434452Y-93272509D01*
X174434447Y-93272515D01*
X174361976Y-93398038D01*
X174361975Y-93398042D01*
X174324459Y-93538052D01*
X151850236Y-93538052D01*
X151835536Y-93518989D01*
X151829557Y-93449375D01*
X151862162Y-93387580D01*
X151923001Y-93353223D01*
X151951087Y-93350000D01*
X152147828Y-93350000D01*
X152147844Y-93349999D01*
X152207372Y-93343598D01*
X152207379Y-93343596D01*
X152342086Y-93293354D01*
X152342093Y-93293350D01*
X152457187Y-93207190D01*
X152457190Y-93207187D01*
X152543350Y-93092093D01*
X152543354Y-93092086D01*
X152593596Y-92957379D01*
X152593598Y-92957372D01*
X152599999Y-92897844D01*
X152600000Y-92897827D01*
X152600000Y-92250000D01*
X151494975Y-92250000D01*
X151530070Y-92214905D01*
X151576148Y-92135095D01*
X151600000Y-92046078D01*
X151600000Y-91953922D01*
X151576148Y-91864905D01*
X151530070Y-91785095D01*
X151494975Y-91750000D01*
X151500000Y-91750000D01*
X152600000Y-91750000D01*
X152600000Y-91102172D01*
X152599999Y-91102155D01*
X152593598Y-91042627D01*
X152593596Y-91042620D01*
X152543354Y-90907913D01*
X152543350Y-90907906D01*
X152457190Y-90792812D01*
X152457187Y-90792809D01*
X152342093Y-90706649D01*
X152342086Y-90706645D01*
X152207379Y-90656403D01*
X152207372Y-90656401D01*
X152147844Y-90650000D01*
X151500000Y-90650000D01*
X151500000Y-91750000D01*
X151494975Y-91750000D01*
X151464905Y-91719930D01*
X151385095Y-91673852D01*
X151296078Y-91650000D01*
X151203922Y-91650000D01*
X151114905Y-91673852D01*
X151035095Y-91719930D01*
X151000000Y-91755025D01*
X151000000Y-90650000D01*
X150352155Y-90650000D01*
X150292627Y-90656401D01*
X150292617Y-90656403D01*
X150167832Y-90702945D01*
X150098141Y-90707929D01*
X150036818Y-90674443D01*
X150003334Y-90613120D01*
X150000500Y-90586763D01*
X150000500Y-89578681D01*
X156199500Y-89578681D01*
X156199500Y-89921318D01*
X156237858Y-90261768D01*
X156237861Y-90261782D01*
X156314102Y-90595816D01*
X156314103Y-90595818D01*
X156427264Y-90919216D01*
X156575922Y-91227907D01*
X156575924Y-91227910D01*
X156758211Y-91518018D01*
X156863463Y-91650000D01*
X156971197Y-91785095D01*
X156971834Y-91785893D01*
X157214107Y-92028166D01*
X157481982Y-92241789D01*
X157772090Y-92424076D01*
X158080785Y-92572736D01*
X158404183Y-92685897D01*
X158738217Y-92762139D01*
X158738226Y-92762140D01*
X158738231Y-92762141D01*
X158965197Y-92787713D01*
X159078682Y-92800499D01*
X159078685Y-92800500D01*
X159078688Y-92800500D01*
X159421315Y-92800500D01*
X159421316Y-92800499D01*
X159595311Y-92780895D01*
X159761768Y-92762141D01*
X159761771Y-92762140D01*
X159761783Y-92762139D01*
X160095817Y-92685897D01*
X160419215Y-92572736D01*
X160727910Y-92424076D01*
X161018018Y-92241789D01*
X161098603Y-92177525D01*
X172949500Y-92177525D01*
X172949500Y-92322475D01*
X172987016Y-92462485D01*
X172987017Y-92462488D01*
X173059488Y-92588011D01*
X173059490Y-92588013D01*
X173059491Y-92588015D01*
X173161985Y-92690509D01*
X173161986Y-92690510D01*
X173161988Y-92690511D01*
X173287511Y-92762982D01*
X173287512Y-92762982D01*
X173287515Y-92762984D01*
X173427525Y-92800500D01*
X173427528Y-92800500D01*
X173572472Y-92800500D01*
X173572475Y-92800500D01*
X173712485Y-92762984D01*
X173838015Y-92690509D01*
X173940509Y-92588015D01*
X174012984Y-92462485D01*
X174050500Y-92322475D01*
X174050500Y-92177525D01*
X174012984Y-92037515D01*
X174007586Y-92028166D01*
X173940511Y-91911988D01*
X173940506Y-91911982D01*
X173838017Y-91809493D01*
X173838011Y-91809488D01*
X173712488Y-91737017D01*
X173712489Y-91737017D01*
X173701006Y-91733940D01*
X173572475Y-91699500D01*
X173427525Y-91699500D01*
X173298993Y-91733940D01*
X173287511Y-91737017D01*
X173161988Y-91809488D01*
X173161982Y-91809493D01*
X173059493Y-91911982D01*
X173059488Y-91911988D01*
X172987017Y-92037511D01*
X172982583Y-92054055D01*
X172949500Y-92177525D01*
X161098603Y-92177525D01*
X161230363Y-92072450D01*
X161285886Y-92028172D01*
X161285888Y-92028169D01*
X161285893Y-92028166D01*
X161528166Y-91785893D01*
X161741789Y-91518018D01*
X161924076Y-91227910D01*
X162072736Y-90919215D01*
X162185897Y-90595817D01*
X162262139Y-90261783D01*
X162300500Y-89921312D01*
X162300500Y-89578688D01*
X162300499Y-89578681D01*
X186699500Y-89578681D01*
X186699500Y-89921318D01*
X186737858Y-90261768D01*
X186737861Y-90261782D01*
X186814102Y-90595816D01*
X186814103Y-90595818D01*
X186927264Y-90919216D01*
X187075922Y-91227907D01*
X187075924Y-91227910D01*
X187258211Y-91518018D01*
X187363463Y-91650000D01*
X187471197Y-91785095D01*
X187471834Y-91785893D01*
X187714107Y-92028166D01*
X187981982Y-92241789D01*
X188272090Y-92424076D01*
X188580785Y-92572736D01*
X188904183Y-92685897D01*
X189238217Y-92762139D01*
X189238226Y-92762140D01*
X189238231Y-92762141D01*
X189465197Y-92787713D01*
X189578682Y-92800499D01*
X189578685Y-92800500D01*
X189578688Y-92800500D01*
X189921315Y-92800500D01*
X189921316Y-92800499D01*
X190095311Y-92780895D01*
X190261768Y-92762141D01*
X190261771Y-92762140D01*
X190261783Y-92762139D01*
X190595817Y-92685897D01*
X190919215Y-92572736D01*
X191227910Y-92424076D01*
X191518018Y-92241789D01*
X191785893Y-92028166D01*
X192028166Y-91785893D01*
X192241789Y-91518018D01*
X192424076Y-91227910D01*
X192572736Y-90919215D01*
X192685897Y-90595817D01*
X192762139Y-90261783D01*
X192800500Y-89921312D01*
X192800500Y-89578688D01*
X192762139Y-89238217D01*
X192685897Y-88904183D01*
X192572736Y-88580785D01*
X192424076Y-88272090D01*
X192241789Y-87981982D01*
X192028166Y-87714107D01*
X191785893Y-87471834D01*
X191518018Y-87258211D01*
X191227910Y-87075924D01*
X191227907Y-87075922D01*
X190919216Y-86927264D01*
X190595818Y-86814103D01*
X190595816Y-86814102D01*
X190338024Y-86755262D01*
X190261783Y-86737861D01*
X190261780Y-86737860D01*
X190261768Y-86737858D01*
X189921318Y-86699500D01*
X189921312Y-86699500D01*
X189578688Y-86699500D01*
X189578681Y-86699500D01*
X189238231Y-86737858D01*
X189238217Y-86737861D01*
X188904183Y-86814102D01*
X188904181Y-86814103D01*
X188580783Y-86927264D01*
X188272092Y-87075922D01*
X187981983Y-87258210D01*
X187714107Y-87471833D01*
X187471833Y-87714107D01*
X187258210Y-87981983D01*
X187075922Y-88272092D01*
X186927264Y-88580783D01*
X186814103Y-88904181D01*
X186814102Y-88904183D01*
X186737861Y-89238217D01*
X186737858Y-89238231D01*
X186699500Y-89578681D01*
X162300499Y-89578681D01*
X162262139Y-89238217D01*
X162185897Y-88904183D01*
X162072736Y-88580785D01*
X161924076Y-88272090D01*
X161741789Y-87981982D01*
X161658487Y-87877525D01*
X166949500Y-87877525D01*
X166949500Y-88022475D01*
X166987016Y-88162485D01*
X166987017Y-88162488D01*
X167059488Y-88288011D01*
X167059490Y-88288013D01*
X167059491Y-88288015D01*
X167161985Y-88390509D01*
X167161986Y-88390510D01*
X167161988Y-88390511D01*
X167287511Y-88462982D01*
X167287512Y-88462982D01*
X167287515Y-88462984D01*
X167427525Y-88500500D01*
X167427528Y-88500500D01*
X167572472Y-88500500D01*
X167572475Y-88500500D01*
X167712485Y-88462984D01*
X167838015Y-88390509D01*
X167940509Y-88288015D01*
X168012984Y-88162485D01*
X168050500Y-88022475D01*
X168050500Y-87877525D01*
X168012984Y-87737515D01*
X167999469Y-87714107D01*
X167940511Y-87611988D01*
X167940506Y-87611982D01*
X167838017Y-87509493D01*
X167838011Y-87509488D01*
X167712488Y-87437017D01*
X167712489Y-87437017D01*
X167701006Y-87433940D01*
X167572475Y-87399500D01*
X167427525Y-87399500D01*
X167298993Y-87433940D01*
X167287511Y-87437017D01*
X167161988Y-87509488D01*
X167161982Y-87509493D01*
X167059493Y-87611982D01*
X167059488Y-87611988D01*
X166987017Y-87737511D01*
X166987016Y-87737515D01*
X166949500Y-87877525D01*
X161658487Y-87877525D01*
X161528166Y-87714107D01*
X161285893Y-87471834D01*
X161018018Y-87258211D01*
X160727910Y-87075924D01*
X160727907Y-87075922D01*
X160419216Y-86927264D01*
X160095818Y-86814103D01*
X160095816Y-86814102D01*
X159991483Y-86790289D01*
X159897445Y-86768825D01*
X159761783Y-86737861D01*
X159761780Y-86737860D01*
X159761768Y-86737858D01*
X159421318Y-86699500D01*
X159421312Y-86699500D01*
X159078688Y-86699500D01*
X159078681Y-86699500D01*
X158738231Y-86737858D01*
X158738217Y-86737861D01*
X158404183Y-86814102D01*
X158404181Y-86814103D01*
X158080783Y-86927264D01*
X157772092Y-87075922D01*
X157481983Y-87258210D01*
X157214107Y-87471833D01*
X156971833Y-87714107D01*
X156758210Y-87981983D01*
X156575922Y-88272092D01*
X156427264Y-88580783D01*
X156314103Y-88904181D01*
X156314102Y-88904183D01*
X156237861Y-89238217D01*
X156237858Y-89238231D01*
X156199500Y-89578681D01*
X150000500Y-89578681D01*
X150000500Y-86677525D01*
X176449500Y-86677525D01*
X176449500Y-86822475D01*
X176487016Y-86962485D01*
X176487017Y-86962488D01*
X176559488Y-87088011D01*
X176559490Y-87088013D01*
X176559491Y-87088015D01*
X176661985Y-87190509D01*
X176661986Y-87190510D01*
X176661988Y-87190511D01*
X176787511Y-87262982D01*
X176787512Y-87262982D01*
X176787515Y-87262984D01*
X176927525Y-87300500D01*
X176927528Y-87300500D01*
X177072472Y-87300500D01*
X177072475Y-87300500D01*
X177212485Y-87262984D01*
X177338015Y-87190509D01*
X177440509Y-87088015D01*
X177512984Y-86962485D01*
X177550500Y-86822475D01*
X177550500Y-86677525D01*
X177512984Y-86537515D01*
X177440509Y-86411985D01*
X177338015Y-86309491D01*
X177338013Y-86309490D01*
X177338011Y-86309488D01*
X177212488Y-86237017D01*
X177212489Y-86237017D01*
X177201006Y-86233940D01*
X177072475Y-86199500D01*
X176927525Y-86199500D01*
X176798993Y-86233940D01*
X176787511Y-86237017D01*
X176661988Y-86309488D01*
X176661982Y-86309493D01*
X176559493Y-86411982D01*
X176559488Y-86411988D01*
X176487017Y-86537511D01*
X176487016Y-86537515D01*
X176449500Y-86677525D01*
X150000500Y-86677525D01*
X150000500Y-83003750D01*
X150000726Y-82996263D01*
X150018271Y-82706205D01*
X150020076Y-82691340D01*
X150071780Y-82409201D01*
X150075364Y-82394663D01*
X150152096Y-82148422D01*
X150160696Y-82120822D01*
X150165998Y-82106841D01*
X150283731Y-81845249D01*
X150290676Y-81832016D01*
X150439080Y-81586526D01*
X150447567Y-81574230D01*
X150624480Y-81348417D01*
X150634395Y-81337226D01*
X150837226Y-81134395D01*
X150848417Y-81124480D01*
X151074230Y-80947567D01*
X151086526Y-80939080D01*
X151332016Y-80790676D01*
X151345249Y-80783731D01*
X151606841Y-80665998D01*
X151620822Y-80660696D01*
X151894668Y-80575362D01*
X151909197Y-80571780D01*
X152191344Y-80520075D01*
X152206201Y-80518271D01*
X152496264Y-80500726D01*
X152503751Y-80500500D01*
X152565892Y-80500500D01*
X196434108Y-80500500D01*
X196496249Y-80500500D01*
X196503736Y-80500726D01*
G37*
%TD.AperFunction*%
%TD*%
M02*
