M48
; DRILL file {KiCad 9.0.7-9.0.7~ubuntu24.04.1} date 2026-06-07T21:21:26+0200
; FORMAT={-:-/ absolute / metric / decimal}
; #@! TF.CreationDate,2026-06-07T21:21:26+02:00
; #@! TF.GenerationSoftware,Kicad,Pcbnew,9.0.7-9.0.7~ubuntu24.04.1
; #@! TF.FileFunction,Plated,1,6,PTH
FMAT,2
METRIC
; #@! TA.AperFunction,Plated,PTH,ViaDrill
T1C0.200
; #@! TA.AperFunction,Plated,PTH,ComponentDrill
T2C0.500
; #@! TA.AperFunction,Plated,PTH,ComponentDrill
T3C0.600
; #@! TA.AperFunction,Plated,PTH,ComponentDrill
T4C1.000
; #@! TA.AperFunction,Plated,PTH,ComponentDrill
T5C3.200
%
G90
G05
T1
X150.782Y-82.36
X150.946Y-127.534
X151.671Y-81.421
X151.884Y-128.423
X154.165Y-109.983
X154.35Y-101.2
X154.75Y-109.5
X158.75Y-115.1
X159.5Y-100.5
X160.041Y-99.986
X162.25Y-98.0
X162.25Y-109.5
X164.55Y-123.402
X164.85Y-87.4
X165.05Y-112.6
X165.75Y-112.25
X166.733Y-115.235
X166.75Y-114.5
X167.388Y-98.701
X167.45Y-100.6
X167.95Y-117.502
X168.1Y-98.45
X168.85Y-97.85
X169.248Y-97.216
X169.603Y-106.089
X170.25Y-111.0
X170.55Y-115.3
X170.55Y-123.3
X170.85Y-106.2
X172.094Y-111.619
X173.088Y-103.359
X173.15Y-102.6
X173.5Y-92.25
X173.65Y-122.3
X173.75Y-114.3
X173.95Y-101.6
X174.15Y-110.0
X174.204Y-115.666
X174.242Y-91.951
X174.321Y-110.799
X174.323Y-96.829
X174.514Y-118.264
X174.701Y-101.298
X175.25Y-92.2
X175.25Y-114.0
X175.759Y-114.498
X176.65Y-112.9
X177.0Y-86.75
X177.15Y-107.5
X177.893Y-107.551
X179.904Y-93.036
X180.5Y-98.5
X180.65Y-93.6
X180.85Y-104.7
X180.982Y-99.178
X181.0Y-115.75
X181.446Y-105.096
X181.685Y-115.286
X181.75Y-110.25
X181.75Y-111.1
X181.894Y-104.286
X181.95Y-117.4
X182.35Y-104.919
X182.564Y-117.817
X182.844Y-123.989
X183.15Y-119.1
X183.45Y-112.9
X183.6Y-123.935
X184.05Y-110.8
X184.15Y-115.9
X184.294Y-111.574
X185.75Y-126.5
X186.75Y-109.0
X187.65Y-95.3
X188.05Y-114.8
X188.15Y-102.5
X190.35Y-106.4
X197.225Y-128.529
X197.262Y-81.311
X197.95Y-97.6
X198.114Y-127.591
X198.2Y-82.2
T2
X193.5Y-102.25
X193.5Y-103.25
X193.5Y-104.25
T4
X151.25Y-92.0
X151.25Y-94.54
X151.25Y-97.08
X151.25Y-99.62
X151.25Y-111.0
X151.25Y-113.54
X151.25Y-116.08
X151.25Y-118.62
X160.88Y-128.0
X163.42Y-128.0
X165.96Y-128.0
X168.5Y-128.0
T5
X159.25Y-89.75
X159.25Y-120.25
X189.75Y-89.75
X189.75Y-120.25
T3
G00X191.933Y-107.18
M15
G01X193.032Y-107.18
M16
G05
G00X191.933Y-115.82
M15
G01X193.032Y-115.82
M16
G05
G00X196.262Y-107.18
M15
G01X197.062Y-107.18
M16
G05
G00X196.262Y-115.82
M15
G01X197.062Y-115.82
M16
G05
M30
